<svg width="32" height="33" viewBox="0 0 32 33" fill="none" xmlns="http://www.w3.org/2000/svg">
<g clip-path="url(#clip0_708_53277)">
<path d="M17.2139 5.75618C17.6142 5.247 18.3857 5.24699 18.7861 5.75618L26.3541 15.3808C26.87 16.0369 26.4026 16.9989 25.568 16.9989H20.067V22.7509H25.568C26.4026 22.7509 26.87 23.7129 26.3541 24.369L18.7862 33.9936C18.3858 34.5028 17.6144 34.5028 17.214 33.9936L9.64598 24.369C9.1301 23.7129 9.59746 22.7509 10.4321 22.7509H15.6968V16.9989H10.432C9.59744 16.9989 9.13007 16.0369 9.64595 15.3808L17.2139 5.75618Z" fill="#271238" fill-opacity="0.7"/>
<path d="M15.2139 2.7563C15.6142 2.24712 16.3857 2.24712 16.7861 2.7563L24.3541 12.3809C24.87 13.037 24.4026 13.999 23.568 13.999H18.067V19.751H23.568C24.4026 19.751 24.87 20.713 24.3541 21.3691L16.7862 30.9937C16.3858 31.5029 15.6144 31.5029 15.214 30.9937L7.64598 21.3691C7.1301 20.713 7.59746 19.751 8.43207 19.751H13.6968V13.999H8.43204C7.59744 13.999 7.13007 13.037 7.64595 12.3809L15.2139 2.7563Z" fill="url(#paint0_linear_708_53277)"/>
<path fill-rule="evenodd" clip-rule="evenodd" d="M6.85976 11.7628C5.82801 13.075 6.76275 14.999 8.43195 14.999H12.6967V18.751H8.43198C6.76276 18.751 5.82804 20.6751 6.8598 21.9872L14.4278 31.6118C15.2286 32.6302 16.7714 32.6302 17.5722 31.6118L25.1401 21.9872C26.1719 20.6751 25.2371 18.751 23.5679 18.751H19.0669V14.999H23.5679C25.2371 14.999 26.1718 13.075 25.1401 11.7628L17.572 2.13818C16.7713 1.11982 15.2284 1.11983 14.4277 2.13819L6.85976 11.7628ZM8.43198 11.7628C7.65625 12.9375 8.43195 13.9062 10.2815 13.9062H13.3438L13.746 12.2188V13.7344V19.6719V21.6562L13.1797 19.8359H9.0445C8.26788 19.8359 7.72787 20.7608 8.43198 21.6562L14.9272 30.3125C15.4737 31.0075 16.5266 31.0075 17.0731 30.3125L23.125 21.9872C24.1875 20.875 23.3125 19.5547 21.1649 19.8359L18.5078 19.8359L17.9844 21.6562V19.6719V13.6953V12.2188L18.5078 13.9062H21.1649C23.5679 13.9062 24.255 12.7454 23.1491 11.3494L17.0312 3.3125C16.2812 2.3125 15.359 2.61753 14.8125 3.3125L8.43198 11.7628Z" fill="#181022"/>
</g>
<defs>
<linearGradient id="paint0_linear_708_53277" x1="16" y1="7.87512" x2="16" y2="31.3756" gradientUnits="userSpaceOnUse">
<stop stop-color="#86BF37"/>
<stop offset="1" stop-color="#467607"/>
</linearGradient>
<clipPath id="clip0_708_53277">
<rect width="32" height="32" fill="white" transform="matrix(0 -1 1 0 0 32.875)"/>
</clipPath>
</defs>
</svg>
