<svg width="33" height="33" viewBox="0 0 33 33" fill="none" xmlns="http://www.w3.org/2000/svg">
<g clip-path="url(#clip0_708_53278)">
<path d="M19.5068 4.25569C19.9072 3.74651 20.6786 3.74651 21.079 4.25569L28.647 13.8803C29.1629 14.5364 28.6956 15.4984 27.861 15.4984H22.36V21.2504H27.861C28.6956 21.2504 29.163 22.2124 28.6471 22.8685L21.0792 32.4931C20.6788 33.0023 19.9074 33.0023 19.507 32.4931L11.9389 22.8685C11.4231 22.2124 11.8904 21.2504 12.725 21.2504H17.9898V15.4984H12.725C11.8904 15.4984 11.423 14.5364 11.9389 13.8803L19.5068 4.25569Z" fill="#271238" fill-opacity="0.7"/>
<path d="M15.5068 2.7563C15.9072 2.24712 16.6786 2.24712 17.079 2.7563L24.647 12.3809C25.1629 13.037 24.6956 13.999 23.861 13.999H18.36V19.751H23.861C24.6956 19.751 25.163 20.713 24.6471 21.3691L17.0792 30.9937C16.6788 31.5029 15.9074 31.5029 15.507 30.9937L7.93895 21.3691C7.42307 20.713 7.89043 19.751 8.72504 19.751H13.9898V13.999H8.72501C7.89041 13.999 7.42304 13.037 7.93891 12.3809L15.5068 2.7563Z" fill="url(#paint0_linear_708_53278)"/>
<path fill-rule="evenodd" clip-rule="evenodd" d="M7.15285 11.7627C6.1211 13.0749 7.05584 14.9989 8.72504 14.9989H12.9898V18.7509H8.72507C7.05585 18.7509 6.12113 20.6749 7.15289 21.9871L14.7209 31.6117C15.5217 32.6301 17.0645 32.6301 17.8653 31.6117L25.4332 21.9871C26.465 20.6749 25.5302 18.7509 23.861 18.7509H19.36V14.9989H23.861C25.5302 14.9989 26.4649 13.0748 25.4332 11.7627L17.8651 2.13806C17.0644 1.1197 15.5215 1.11971 14.7208 2.13807L7.15285 11.7627ZM8.72507 11.7627C7.94934 12.9374 8.72504 13.9061 10.5746 13.9061H13.6368L14.0391 12.2186V13.7343V19.6718V21.6561L13.4728 19.8358H9.33759C8.56098 19.8358 8.02096 20.7607 8.72507 21.6561L15.2203 30.3124C15.7668 31.0074 16.8197 31.0073 17.3662 30.3124L23.4181 21.9871C24.4806 20.8749 23.6056 19.5546 21.458 19.8358L18.8009 19.8358L18.2775 21.6561V19.6718V13.6952V12.2186L18.8009 13.9061H21.4579C23.861 13.9061 24.5481 12.7453 23.4421 11.3493L17.3243 3.31238C16.5743 2.31238 15.652 2.61741 15.1056 3.31238L8.72507 11.7627Z" fill="#181022"/>
</g>
<defs>
<linearGradient id="paint0_linear_708_53278" x1="16.293" y1="7.37512" x2="16.293" y2="38.8751" gradientUnits="userSpaceOnUse">
<stop stop-color="#F9D34D"/>
<stop offset="1" stop-color="#A28520"/>
</linearGradient>
<clipPath id="clip0_708_53278">
<rect width="32" height="32" fill="white" transform="matrix(0 -1 1 0 0.292969 32.875)"/>
</clipPath>
</defs>
</svg>
