<svg width="1094" height="3568" viewBox="0 0 1094 3568" fill="none" xmlns="http://www.w3.org/2000/svg">
<g opacity="0.25" filter="url(#filter0_f_737_13127)">
<path d="M778.919 3262.82C803.978 3368.38 794.798 3430.62 755.606 3461.8C711.804 3496.64 646.418 3498.55 594.021 3478.87C566.006 3468.35 537.243 3449.69 513.162 3420.9C453.353 3326.99 427.315 3234.2 394.879 3114.98C346.074 2935.6 389.125 2767.68 489.516 2832.55C570.905 2885.15 662.42 2813.81 739.232 2961.77C792.868 3065.09 756.768 3169.52 778.919 3262.82Z" fill="url(#paint0_linear_737_13127)"/>
</g>
<g opacity="0.25" filter="url(#filter1_f_737_13127)">
<path d="M549.512 2374.25C647.699 2394.43 686.285 2344.2 690.55 2233.55C694.58 2206.36 693.131 2169.34 683.817 2133.84C670.764 2084.07 633.031 2043.51 587.819 2019.55C549.18 1999.07 508.214 1987.8 460.437 1975.08C348.61 1945.31 243.127 2014.14 282.826 2115.06C315.01 2196.88 269.541 2305.91 361.453 2370.3C425.633 2415.26 491.315 2362.29 549.512 2374.25Z" fill="url(#paint1_linear_737_13127)"/>
</g>
<g opacity="0.25" filter="url(#filter2_f_737_13127)">
<path d="M545 1977.08C573.342 1926.65 623.834 1945.12 700.529 2016.35C717.753 2030.37 738.132 2050.65 756.215 2073.07C789.789 2114.7 810.532 2173.45 795.859 2225.16C791.261 2241.36 784.518 2256.75 776.995 2273.57C749.309 2335.48 657.626 2330.08 606.316 2248.61C564.719 2182.57 471.5 2127.99 467.244 2050.83C464.272 1996.95 528.202 2006.97 545 1977.08Z" fill="url(#paint2_linear_737_13127)"/>
</g>
<g opacity="0.2" filter="url(#filter3_f_737_13127)">
<path d="M450.964 1673.06C585.105 1738.88 664.584 1682.76 721.731 1528.4C741.609 1488.64 757.423 1430.28 758.198 1372.32C759.087 1305.77 726.817 1243.08 679.367 1196.41C630.31 1148.16 572.692 1114.93 504.529 1076.43C354.878 991.881 169.126 1048.74 180.675 1206.13C190.038 1333.73 73.4494 1470.11 178.08 1595.88C251.142 1683.69 371.458 1634.04 450.964 1673.06Z" fill="url(#paint3_linear_737_13127)"/>
</g>
<g opacity="0.2" filter="url(#filter4_f_737_13127)">
<path d="M632.373 591.881C493.919 532.936 418.196 590.93 371.311 743.997C354.13 783.506 342.214 840.922 345.185 897.402C348.644 963.167 385.123 1022.66 434.827 1065.86C487.267 1111.44 547.331 1141.73 618.405 1176.82C773.604 1253.42 955.509 1190.46 933.524 1037.19C915.702 912.921 1023.2 775.041 910.266 656.373C831.408 573.509 714.435 626.819 632.373 591.881Z" fill="url(#paint4_linear_737_13127)"/>
</g>
<g opacity="0.25" filter="url(#filter5_f_737_13127)">
<path d="M704.792 279.228C781.547 266.385 799.712 227.8 780.037 162.931C777.681 147.985 770.447 129.586 758.747 112.865C736.657 81.2913 697.274 67.4634 658.815 65.0672C626.4 63.0476 594.101 66.7331 556.587 71.2574C467.769 81.9694 376.39 208.728 426.561 257.028C467.235 296.185 449.767 370.723 531.003 384.938C587.729 394.864 659.299 286.84 704.792 279.228Z" fill="url(#paint5_linear_737_13127)"/>
</g>
<g opacity="0.25" filter="url(#filter6_f_737_13127)">
<path d="M454.33 249.156C371.176 241.233 341.455 278.359 343.516 355.178C341.609 373.46 344.379 397.689 353.078 420.811C366.998 457.811 401.313 482.832 438.492 496.266C472.412 508.523 507.783 513.882 549.138 519.852C644.19 533.573 728.92 479.471 690.581 412.086C659.499 357.456 691.986 279.228 611.833 240.331C555.862 213.17 503.616 253.853 454.33 249.156Z" fill="url(#paint6_linear_737_13127)"/>
</g>
<defs>
<filter id="filter0_f_737_13127" x="298.805" y="2742.4" width="570.009" height="824.932" filterUnits="userSpaceOnUse" color-interpolation-filters="sRGB">
<feFlood flood-opacity="0" result="BackgroundImageFix"/>
<feBlend mode="normal" in="SourceGraphic" in2="BackgroundImageFix" result="shape"/>
<feGaussianBlur stdDeviation="37.9624" result="effect1_foregroundBlur_737_13127"/>
</filter>
<filter id="filter1_f_737_13127" x="198.339" y="1892.14" width="570.278" height="572.537" filterUnits="userSpaceOnUse" color-interpolation-filters="sRGB">
<feFlood flood-opacity="0" result="BackgroundImageFix"/>
<feBlend mode="normal" in="SourceGraphic" in2="BackgroundImageFix" result="shape"/>
<feGaussianBlur stdDeviation="37.975" result="effect1_foregroundBlur_737_13127"/>
</filter>
<filter id="filter2_f_737_13127" x="391.193" y="1872.6" width="485.398" height="518.814" filterUnits="userSpaceOnUse" color-interpolation-filters="sRGB">
<feFlood flood-opacity="0" result="BackgroundImageFix"/>
<feBlend mode="normal" in="SourceGraphic" in2="BackgroundImageFix" result="shape"/>
<feGaussianBlur stdDeviation="37.975" result="effect1_foregroundBlur_737_13127"/>
</filter>
<filter id="filter3_f_737_13127" x="33.8302" y="936.97" width="824.76" height="863.596" filterUnits="userSpaceOnUse" color-interpolation-filters="sRGB">
<feFlood flood-opacity="0" result="BackgroundImageFix"/>
<feBlend mode="normal" in="SourceGraphic" in2="BackgroundImageFix" result="shape"/>
<feGaussianBlur stdDeviation="50.187" result="effect1_foregroundBlur_737_13127"/>
</filter>
<filter id="filter4_f_737_13127" x="244.356" y="468.86" width="818.686" height="840.967" filterUnits="userSpaceOnUse" color-interpolation-filters="sRGB">
<feFlood flood-opacity="0" result="BackgroundImageFix"/>
<feBlend mode="normal" in="SourceGraphic" in2="BackgroundImageFix" result="shape"/>
<feGaussianBlur stdDeviation="50.187" result="effect1_foregroundBlur_737_13127"/>
</filter>
<filter id="filter5_f_737_13127" x="348.589" y="0.800613" width="502.491" height="448.481" filterUnits="userSpaceOnUse" color-interpolation-filters="sRGB">
<feFlood flood-opacity="0" result="BackgroundImageFix"/>
<feBlend mode="normal" in="SourceGraphic" in2="BackgroundImageFix" result="shape"/>
<feGaussianBlur stdDeviation="31.8497" result="effect1_foregroundBlur_737_13127"/>
</filter>
<filter id="filter6_f_737_13127" x="279.244" y="167.211" width="484.473" height="418.483" filterUnits="userSpaceOnUse" color-interpolation-filters="sRGB">
<feFlood flood-opacity="0" result="BackgroundImageFix"/>
<feBlend mode="normal" in="SourceGraphic" in2="BackgroundImageFix" result="shape"/>
<feGaussianBlur stdDeviation="31.8497" result="effect1_foregroundBlur_737_13127"/>
</filter>
<linearGradient id="paint0_linear_737_13127" x1="872.357" y1="3443.81" x2="482.744" y2="3530.38" gradientUnits="userSpaceOnUse">
<stop stop-color="#44007C"/>
<stop offset="1" stop-color="#B657FF"/>
</linearGradient>
<linearGradient id="paint1_linear_737_13127" x1="486.684" y1="2349.78" x2="635.971" y2="2222.5" gradientUnits="userSpaceOnUse">
<stop stop-color="#4D26E0"/>
<stop offset="1" stop-color="#240D4E"/>
</linearGradient>
<linearGradient id="paint2_linear_737_13127" x1="642.219" y1="1989.46" x2="857.751" y2="2255.84" gradientUnits="userSpaceOnUse">
<stop stop-color="#6C00DE"/>
<stop offset="1" stop-color="#8900A0"/>
</linearGradient>
<linearGradient id="paint3_linear_737_13127" x1="579.221" y1="1826.09" x2="853.483" y2="1228.81" gradientUnits="userSpaceOnUse">
<stop stop-color="#46114E"/>
<stop offset="1" stop-color="#FF1CFF"/>
</linearGradient>
<linearGradient id="paint4_linear_737_13127" x1="494.017" y1="447.513" x2="258.407" y2="1041.47" gradientUnits="userSpaceOnUse">
<stop stop-color="#44007C"/>
<stop offset="1" stop-color="#B657FF"/>
</linearGradient>
<linearGradient id="paint5_linear_737_13127" x1="756.698" y1="184.486" x2="620.331" y2="78.492" gradientUnits="userSpaceOnUse">
<stop stop-color="#AC23ED"/>
<stop offset="1" stop-color="#CF00CF"/>
</linearGradient>
<linearGradient id="paint6_linear_737_13127" x1="472.279" y1="339.626" x2="497.487" y2="470.939" gradientUnits="userSpaceOnUse">
<stop stop-color="#7226BD"/>
<stop offset="1" stop-color="#240757"/>
</linearGradient>
</defs>
</svg>
