<svg width="29" height="19" viewBox="0 0 29 19" fill="none" xmlns="http://www.w3.org/2000/svg">
<path fill-rule="evenodd" clip-rule="evenodd" d="M10.8791 18.6018C10.3936 18.6018 9.92458 18.4252 9.55968 18.1048L1.62684 11.1409C0.719437 10.3443 0.719438 8.93143 1.62685 8.13485L9.55968 1.17091C9.92458 0.850578 10.3936 0.673933 10.8791 0.673933H26.0537C27.1582 0.673933 28.0537 1.56936 28.0537 2.67393V16.6018C28.0537 17.7064 27.1582 18.6018 26.0537 18.6018H10.8791ZM11.7036 15.9583C12.2314 16.4654 13.0702 16.4487 13.5773 15.921L18.0764 11.2386L22.5756 15.921C23.0827 16.4487 23.9215 16.4654 24.4492 15.9583C24.9769 15.4513 24.9937 14.6124 24.4866 14.0847L19.9141 9.32607L24.4866 4.56743C24.9936 4.03973 24.9769 3.20089 24.4492 2.69383C23.9215 2.18677 23.0827 2.20351 22.5756 2.73121L18.0764 7.41356L13.5773 2.73121C13.0702 2.20351 12.2314 2.18677 11.7037 2.69383C11.176 3.20089 11.1592 4.03973 11.6663 4.56743L16.2388 9.32607L11.6663 14.0847C11.1592 14.6124 11.1759 15.4513 11.7036 15.9583Z" fill="#F8D5AF"/>
</svg>
