<svg height="38" viewBox="0 0 38 38" width="38" xmlns="http://www.w3.org/2000/svg"><g fill="none" transform="translate(4 9)"><path d="m29.1187 12.2139c.5092.4003.5092 1.1718 0 1.5722l-9.6246 7.568c-.6561.5159-1.6181.0485-1.6181-.7861v-5.501h-5.752v5.501c0 .8346-.962 1.302-1.6181.7861l-9.62462-7.5679c-.50918-.4004-.50919-1.1718-.00001-1.5722l9.62463-7.568c.6561-.5159 1.6181-.0485 1.6181.7861v5.2647h5.752v-5.2648c0-.8346.962-1.3019 1.6181-.7861z" fill="#271238" fill-opacity=".7"/><path d="m29.1187 8.2139c.5092.4003.5092 1.1718 0 1.5722l-9.6246 7.568c-.6561.5159-1.6181.0485-1.6181-.7861v-5.501h-5.752v5.501c0 .8346-.962 1.302-1.6181.7861l-9.62462-7.5679c-.50918-.4004-.50919-1.1718-.00001-1.5722l9.62463-7.56802c.6561-.51588 1.6181-.04852 1.6181.78609v5.26473h5.752v-5.26476c0-.8346.962-1.30197 1.6181-.78609z" fill="#A17400" stroke="#644800" stroke-width="2"/></g></svg>