<svg width="33" height="33" viewBox="0 0 33 33" fill="none" xmlns="http://www.w3.org/2000/svg">
<g clip-path="url(#clip0_708_53267)">
<path d="M30.6617 19.7139C31.1708 20.1142 31.1709 20.8857 30.6617 21.2861L21.037 28.8541C20.381 29.37 19.4189 28.9026 19.4189 28.068V22.567H13.667V28.068C13.667 28.9026 12.705 29.37 12.0489 28.8541L2.42425 21.2862C1.91506 20.8858 1.91506 20.1144 2.42424 19.714L12.0489 12.146C12.7049 11.6301 13.667 12.0975 13.667 12.9321V18.1968H19.4189V12.932C19.4189 12.0974 20.381 11.6301 21.037 12.1459L30.6617 19.7139Z" fill="#271238" fill-opacity="0.7"/>
<path d="M30.6617 15.7139C31.1708 16.1142 31.1709 16.8857 30.6617 17.2861L21.037 24.8541C20.381 25.37 19.4189 24.9026 19.4189 24.068V18.567H13.667V24.068C13.667 24.9026 12.705 25.37 12.0489 24.8541L2.42425 17.2862C1.91506 16.8858 1.91506 16.1144 2.42424 15.714L12.0489 8.14598C12.7049 7.6301 13.667 8.09746 13.667 8.93207V14.1968H19.4189V8.93204C19.4189 8.09744 20.381 7.63007 21.037 8.14595L30.6617 15.7139Z" fill="url(#paint0_linear_708_53267)"/>
<path fill-rule="evenodd" clip-rule="evenodd" d="M22.1122 7.35976C20.8 6.32801 18.876 7.26275 18.876 8.93195V13.1967H15.124V8.93198C15.124 7.26276 13.1999 6.32804 11.8878 7.3598L2.26316 14.9278C1.24479 15.7286 1.2448 17.2714 2.26317 18.0722L11.8878 25.6401C13.1999 26.6719 15.124 25.7371 15.124 24.0679V19.5669H18.876V24.0679C18.876 25.7371 20.8 26.6718 22.1122 25.6401L31.7368 18.072C32.7552 17.2713 32.7552 15.7284 31.7368 14.9277L22.1122 7.35976ZM22.1122 8.93198C20.9375 8.15625 19.9688 8.93195 19.9688 10.7815V13.8438L21.6562 14.246H20.1406H14.2031H12.2188L14.0391 13.6797V9.5445C14.0391 8.76788 13.1142 8.22787 12.2188 8.93198L3.56249 15.4272C2.86753 15.9737 2.86753 17.0266 3.5625 17.5731L11.8878 23.625C13 24.6875 14.3203 23.8125 14.0391 21.6649L14.0391 19.0078L12.2188 18.4844H14.2031H20.1797H21.6562L19.9688 19.0078V21.6649C19.9688 24.0679 21.1296 24.755 22.5256 23.6491L30.5625 17.5312C31.5625 16.7812 31.2575 15.859 30.5625 15.3125L22.1122 8.93198Z" fill="#181022"/>
</g>
<defs>
<linearGradient id="paint0_linear_708_53267" x1="16.543" y1="7.93018" x2="16.543" y2="25.0699" gradientUnits="userSpaceOnUse">
<stop stop-color="#DCDCDC"/>
<stop offset="1" stop-color="#414344"/>
</linearGradient>
<clipPath id="clip0_708_53267">
<rect width="32" height="32" fill="white" transform="translate(0.542969 0.5)"/>
</clipPath>
</defs>
</svg>
