<svg width="48" height="50" viewBox="0 0 48 50" fill="none" xmlns="http://www.w3.org/2000/svg">
<path d="M30.0561 16.7296C30.0561 16.7296 28.6162 16.6724 27.3178 18.6995C26.0886 16.766 23.5502 16.1027 21.5231 17.2316C21.0396 17.4999 20.6297 17.8494 20.2948 18.2495L15.8106 11.7645C14.4419 9.78508 11.7259 9.28969 9.74648 10.6584C7.76702 12.0272 7.27163 14.7431 8.64038 16.7226L16.2684 27.7542C15.7689 28.0996 15.3123 28.5248 14.9237 29.0332C12.9252 31.6383 13.4175 35.3706 16.0238 37.3683L21.3026 41.4168C22.8498 42.604 24.2253 42.6032 26.5401 42.4204C28.6754 42.3651 31.1659 41.934 33.7373 41.1046C37.5647 39.8706 40.7285 38.0235 42.5436 36.1533C43.3124 35.5991 43.8444 34.783 44.051 33.8756C44.051 33.8756 44.3212 30.1757 39.3288 21.4255C36.4475 15.9797 34.3004 17.9126 34.3004 17.9126C33.7186 18.3149 33.6238 18.615 33.2567 18.431C33.2567 18.431 31.9374 16.1637 30.0585 16.728" fill="#7F58FF"/>
<path d="M9.41875 14.664C8.05817 9.37359 12.794 8.7891 15.3565 11.0391L20.1064 17.914C21.044 17.914 20.6065 17.539 22.6689 16.9765C24.7925 16.3974 26.4559 17.502 27.6041 18.8463C27.6374 18.082 28.1478 17.3997 29.2939 16.9765C31.0816 16.3165 32.365 17.6725 33.0367 18.898C33.219 18.5426 33.6283 18.1908 34.419 17.914C36.919 17.039 39.9189 23.164 41.5439 27.539C43.1689 31.914 41.1689 35.664 38.0439 36.164C34.9189 36.664 35.0439 37.789 27.9189 40.414C20.7939 43.039 23.0439 41.2266 17.5439 36.9766C13.8498 34.1221 13.9417 30.4553 16.2939 29.2891C17.0746 28.902 18.3257 31.2123 19.2027 32.6327L20.1064 33.6716C20.9129 33.6977 22.284 33.4 21.3162 32C20.3484 30.6 12.9813 19.8593 9.41875 14.664Z" fill="url(#paint0_linear_151_31142)"/>
<path d="M13.0194 23.6329L13.0192 23.633L13.0226 23.6374C13.1071 23.7462 13.1916 23.8551 13.2761 23.964C14.1628 25.1068 15.0501 26.2504 15.9581 27.3798L16.1221 27.2664C15.386 26.0182 14.6293 24.7842 13.8731 23.5511C13.8011 23.4336 13.7291 23.3162 13.657 23.1987L13.6571 23.1986L13.6544 23.1946C13.1559 22.4632 12.5118 21.5376 11.8367 20.5674C10.7428 18.9955 9.56745 17.3065 8.79805 16.1364C8.67464 15.9112 8.56573 15.6415 8.47832 15.3938C7.80609 13.4182 8.82556 11.6685 10.3604 10.8084C11.8951 9.94842 13.9201 9.99179 15.2501 11.5839C15.8285 12.3337 16.9038 13.9062 17.8589 15.3031C18.4234 16.1287 18.9459 16.8929 19.2992 17.3897L19.2991 17.3897L19.3016 17.3929L19.302 17.3934C20.2708 18.6464 21.2405 19.9004 22.2397 21.1342L22.4037 21.0207C21.6009 19.6509 20.7711 18.3001 19.9407 16.951L19.9411 16.9507L19.9353 16.943C19.5023 16.3709 18.9679 15.5701 18.3967 14.714C18.1741 14.3804 17.9458 14.0384 17.7159 13.6983C16.8992 12.4906 16.0593 11.3053 15.38 10.6293L15.3803 10.629L15.373 10.623C14.1865 9.64633 12.9272 9.32633 11.7707 9.47143C10.6162 9.61628 9.57186 10.2236 8.8095 11.088C7.28559 12.8159 6.87766 15.5874 8.97534 17.7845L8.97597 17.7854L8.98113 17.7929L8.98632 17.8004L8.99154 17.808L8.99679 17.8156L9.00208 17.8232L9.00739 17.8309L9.01274 17.8386L9.01812 17.8464L9.02352 17.8542L9.02896 17.8621L9.03443 17.87L9.03994 17.878L9.04547 17.886L9.05103 17.894L9.05662 17.9021L9.06224 17.9102L9.06789 17.9184L9.07358 17.9266L9.07929 17.9349L9.08503 17.9432L9.0908 17.9515L9.0966 17.9599L9.10243 17.9683L9.10828 17.9768L9.11417 17.9853L9.12009 17.9939L9.12603 18.0025L9.132 18.0111L9.138 18.0198L9.14403 18.0285L9.15009 18.0373L9.15618 18.0461L9.16229 18.0549L9.16843 18.0638L9.1746 18.0727L9.1808 18.0817L9.18702 18.0907L9.19328 18.0997L9.19956 18.1088L9.20586 18.1179L9.21219 18.1271L9.21855 18.1363L9.22494 18.1455L9.23135 18.1548L9.23779 18.1641L9.24426 18.1734L9.25075 18.1828L9.25727 18.1923L9.26381 18.2017L9.27039 18.2112L9.27698 18.2208L9.2836 18.2303L9.29025 18.24L9.29692 18.2496L9.30362 18.2593L9.31034 18.269L9.31709 18.2788L9.32386 18.2886L9.33066 18.2984L9.33748 18.3083L9.34433 18.3182L9.3512 18.3281L9.35809 18.3381L9.36501 18.3481L9.37196 18.3581L9.37892 18.3682L9.38591 18.3783L9.39293 18.3884L9.39997 18.3986L9.40703 18.4088L9.41411 18.4191L9.42122 18.4294L9.42835 18.4397L9.4355 18.45L9.44268 18.4604L9.44988 18.4708L9.4571 18.4813L9.46434 18.4917L9.47161 18.5022L9.4789 18.5128L9.48621 18.5233L9.49354 18.534L9.50089 18.5446L9.50827 18.5553L9.51567 18.5659L9.52308 18.5767L9.53052 18.5874L9.53798 18.5982L9.54547 18.609L9.55297 18.6199L9.56049 18.6308L9.56804 18.6417L9.5756 18.6526L9.58319 18.6636L9.59079 18.6746L9.59842 18.6856L9.60606 18.6967L9.61373 18.7078L9.62141 18.7189L9.62912 18.73L9.63684 18.7412L9.64459 18.7524L9.65235 18.7636L9.66013 18.7749L9.66794 18.7862L9.67576 18.7975L9.6836 18.8088L9.69145 18.8202L9.69933 18.8316L9.70722 18.843L9.71514 18.8544L9.72307 18.8659L9.73102 18.8774L9.73899 18.8889L9.74697 18.9005L9.75497 18.912L9.76299 18.9236L9.77103 18.9353L9.77909 18.9469L9.78716 18.9586L9.79525 18.9703L9.80336 18.982L9.81148 18.9937L9.81962 19.0055L9.82777 19.0173L9.83595 19.0291L9.84414 19.041L9.85234 19.0528L9.86056 19.0647L9.8688 19.0766L9.87705 19.0886L9.88532 19.1005L9.89361 19.1125L9.90191 19.1245L9.91022 19.1366L9.91855 19.1486L9.9269 19.1607L9.93526 19.1728L9.94364 19.1849L9.95203 19.197L9.96043 19.2092L9.96885 19.2213L9.97728 19.2335L9.98573 19.2458L9.99419 19.258L10.0027 19.2702L10.0112 19.2825L10.0197 19.2948L10.0282 19.3071L10.0367 19.3195L10.0453 19.3318L10.0538 19.3442L10.0624 19.3566L10.071 19.369L10.0796 19.3814L10.0882 19.3939L10.0968 19.4064L10.1054 19.4189L10.1141 19.4314L10.1227 19.4439L10.1314 19.4564L10.1401 19.469L10.1488 19.4816L10.1575 19.4941L10.1662 19.5068L10.1749 19.5194L10.1837 19.532L10.1924 19.5447L10.2012 19.5573L10.21 19.57L10.2188 19.5827L10.2275 19.5955L10.2364 19.6082L10.2452 19.6209L10.254 19.6337L10.2628 19.6465L10.2717 19.6593L10.2805 19.6721L10.2894 19.6849L10.2983 19.6978L10.3072 19.7106L10.3161 19.7235L10.325 19.7364L10.3339 19.7493L10.3428 19.7622L10.3518 19.7751L10.3607 19.788L10.3696 19.801L10.3786 19.8139L10.3876 19.8269L10.3966 19.8399L10.4055 19.8529L10.4145 19.8659L10.4235 19.8789L10.4325 19.8919L10.4416 19.905L10.4506 19.918L10.4596 19.9311L10.4687 19.9441L10.4777 19.9572L10.4868 19.9703L10.4958 19.9834L10.5049 19.9965L10.514 20.0097L10.523 20.0228L10.5321 20.0359L10.5412 20.0491L10.5503 20.0623L10.5594 20.0754L10.5685 20.0886L10.5777 20.1018L10.5868 20.115L10.5959 20.1282L10.6051 20.1414L10.6142 20.1546L10.6233 20.1679L10.6325 20.1811L10.6417 20.1943L10.6508 20.2076L10.66 20.2208L10.6692 20.2341L10.6783 20.2474L10.6875 20.2607L10.6967 20.2739L10.7059 20.2872L10.7151 20.3005L10.7243 20.3138L10.7335 20.3271L10.7427 20.3404L10.7519 20.3538L10.7611 20.3671L10.7703 20.3804L10.7795 20.3937L10.7888 20.4071L10.798 20.4204L10.8072 20.4338L10.8164 20.4471L10.8257 20.4605L10.8349 20.4738L10.8441 20.4872L10.8534 20.5005L10.8626 20.5139L10.8719 20.5273L10.8811 20.5407L10.8904 20.554L10.8996 20.5674L10.9089 20.5808L10.9181 20.5942L10.9274 20.6075L10.9366 20.6209L10.9459 20.6343L10.9551 20.6477L10.9644 20.6611L10.9737 20.6745L10.9829 20.6879L10.9922 20.7012L11.0014 20.7146L11.0107 20.728L11.0199 20.7414L11.0292 20.7548L11.0385 20.7682L11.0477 20.7816L11.057 20.795L11.0662 20.8084L11.0755 20.8217L11.0847 20.8351L11.094 20.8485L11.1033 20.8619L11.1125 20.8753L11.1218 20.8887L11.131 20.902L11.1403 20.9154L11.1495 20.9288L11.1587 20.9421L11.168 20.9555L11.1772 20.9689L11.1865 20.9822L11.1957 20.9956L11.2049 21.0089L11.2142 21.0223L11.2234 21.0356L11.2326 21.049L11.2418 21.0623L11.2511 21.0756L11.2603 21.089L11.2695 21.1023L11.2787 21.1156L11.2879 21.1289L11.2971 21.1422L11.3063 21.1555L11.3155 21.1688L11.3247 21.1821L11.3339 21.1954L11.343 21.2087L11.3522 21.2219L11.3614 21.2352L11.3706 21.2485L11.3797 21.2617L11.3889 21.275L11.398 21.2882L11.4072 21.3014L11.4163 21.3146L11.4255 21.3279L11.4346 21.3411L11.4437 21.3543L11.4528 21.3674L11.4619 21.3806L11.471 21.3938L11.4802 21.407L11.4892 21.4201L11.4983 21.4333L11.5074 21.4464L11.5165 21.4595L11.5256 21.4726L11.5346 21.4857L11.5437 21.4988L11.5527 21.5119L11.5618 21.525L11.5708 21.538L11.5798 21.5511L11.5888 21.5641L11.5978 21.5772L11.6068 21.5902L11.6158 21.6032L11.6248 21.6162L11.6338 21.6292L11.6428 21.6421L11.6517 21.6551L11.6607 21.668L11.6696 21.681L11.6786 21.6939L11.6875 21.7068L11.6964 21.7197L11.7053 21.7326L11.7142 21.7454L11.7231 21.7583L11.732 21.7711L11.7408 21.784L11.7497 21.7968L11.7585 21.8096L11.7674 21.8224L11.7762 21.8351L11.785 21.8479L11.7938 21.8606L11.8026 21.8733L11.8114 21.886L11.8202 21.8987L11.829 21.9114L11.8377 21.9241L11.8464 21.9367L11.8552 21.9493L11.8639 21.9619L11.8726 21.9745L11.8813 21.9871L11.89 21.9996L11.8986 22.0122L11.9073 22.0247L11.916 22.0372L11.9246 22.0497L11.9332 22.0622L11.9418 22.0746L11.9504 22.0871L11.959 22.0995L11.9676 22.1119L11.9761 22.1242L11.9847 22.1366L11.9932 22.1489L12.0017 22.1612L12.0102 22.1735L12.0187 22.1858L12.0272 22.1981L12.0357 22.2103L12.0441 22.2225L12.0525 22.2347L12.061 22.2469L12.0694 22.2591L12.0777 22.2712L12.0861 22.2833L12.0945 22.2954L12.1028 22.3075L12.1112 22.3195L12.1195 22.3315L12.1278 22.3436L12.1361 22.3555L12.1443 22.3675L12.1526 22.3794L12.1608 22.3913L12.169 22.4032L12.1773 22.4151L12.1854 22.4269L12.1936 22.4388L12.2018 22.4506L12.2099 22.4623L12.218 22.4741L12.2261 22.4858L12.2342 22.4975L12.2423 22.5092L12.2504 22.5208L12.2584 22.5325L12.2664 22.5441L12.2744 22.5556L12.2824 22.5672L12.2904 22.5787L12.2983 22.5902L12.3063 22.6017L12.3142 22.6131L12.3221 22.6245L12.3299 22.6359L12.3378 22.6473L12.3456 22.6586L12.3535 22.6699L12.3613 22.6812L12.369 22.6925L12.3768 22.7037L12.3846 22.7149L12.3923 22.7261L12.4 22.7372L12.4077 22.7483L12.4153 22.7594L12.423 22.7705L12.4306 22.7815L12.4382 22.7925L12.4458 22.8035L12.4534 22.8144L12.4609 22.8253L12.4684 22.8362L12.4759 22.8471L12.4834 22.8579L12.4909 22.8687L12.4983 22.8794L12.5057 22.8902L12.5131 22.9008L12.5205 22.9115L12.5279 22.9222L12.5352 22.9328L12.5425 22.9433L12.5498 22.9539L12.5571 22.9644L12.5643 22.9749L12.5715 22.9853L12.5787 22.9957L12.5859 23.0061L12.5931 23.0164L12.6002 23.0267L12.6073 23.037L12.6144 23.0473L12.6214 23.0575L12.6285 23.0677L12.6355 23.0778L12.6425 23.0879L12.6495 23.098L12.6564 23.108L12.6633 23.118L12.6702 23.128L12.6771 23.138L12.6839 23.1479L12.6908 23.1577L12.6976 23.1675L12.7043 23.1773L12.7111 23.1871L12.7178 23.1968L12.7245 23.2065L12.7312 23.2162L12.7378 23.2258L12.7444 23.2354L12.751 23.2449L12.7576 23.2544L12.7641 23.2639L12.7707 23.2733L12.7772 23.2827L12.7836 23.292L12.7901 23.3013L12.7965 23.3106L12.8029 23.3199L12.8092 23.3291L12.8156 23.3382L12.8219 23.3473L12.8281 23.3564L12.8344 23.3655L12.8406 23.3745L12.8468 23.3834L12.853 23.3923L12.8591 23.4012L12.8652 23.4101L12.8713 23.4189L12.8774 23.4276L12.8834 23.4364L12.8894 23.445L12.8954 23.4537L12.9013 23.4623L12.9073 23.4708L12.9131 23.4793L12.919 23.4878L12.9248 23.4962L12.9306 23.5046L12.9364 23.513L12.9421 23.5213L12.9479 23.5295L12.9535 23.5378L12.9592 23.5459L12.9648 23.5541L12.9704 23.5621L12.976 23.5702L12.9815 23.5782L12.987 23.5861L12.9925 23.5941L12.9979 23.6019L13.0033 23.6097L13.0087 23.6175L13.014 23.6253L13.0194 23.6329Z" fill="#281342" stroke="#281342" stroke-width="0.2"/>
<path d="M35.0837 17.5249L35.0827 17.5235L35.0176 17.5373C34.7454 17.5949 34.4913 17.6989 34.2539 17.824L34.3433 18.0028C34.8527 17.762 35.3323 17.7183 35.7731 17.8326C36.2151 17.9473 36.6269 18.2231 36.9945 18.636L36.9944 18.636L36.996 18.6377C37.5086 19.1873 37.9662 19.8992 38.3845 20.5499C38.5185 20.7584 38.6484 20.9606 38.7749 21.1491C39.1035 21.8061 39.8391 23.31 40.1487 23.9482L40.1487 23.9482L40.1499 23.9505C41.2598 26.0976 42.2859 28.2959 43.0732 30.5762C43.1391 30.8178 43.2173 31.0644 43.2957 31.3117C43.318 31.3821 43.3403 31.4526 43.3624 31.523C43.4628 31.8433 43.5585 32.1645 43.6267 32.4852C43.7632 33.1266 43.7878 33.756 43.5266 34.3555L43.5261 34.3566C43.2764 34.9504 42.8487 35.4581 42.327 35.8392L42.3265 35.8386L42.3174 35.8471C38.1555 39.7638 32.0783 41.7277 26.4241 42.0115L26.4219 42.0116L26.3631 42.0159C25.0294 42.1122 23.6082 42.2149 22.4331 41.6105C21.7534 41.2214 20.6404 40.3811 19.5248 39.5132C19.2039 39.2636 18.883 39.0118 18.5727 38.7684C17.8073 38.1679 17.1067 37.6183 16.6314 37.2772L16.6315 37.2771L16.6277 37.2746C13.9713 35.5424 13.33 31.7307 15.2675 29.2258L15.2665 29.2249L15.2713 29.2191C15.312 29.1699 15.3611 29.105 15.4144 29.0347C15.4519 28.9851 15.4915 28.9328 15.5317 28.8814C15.632 28.7529 15.7418 28.6214 15.8551 28.5162C15.9703 28.4092 16.0789 28.3389 16.1756 28.3178C16.2602 28.2993 16.3443 28.3162 16.4324 28.4085C17.3212 29.7997 18.4538 31.0428 19.5655 32.263C19.8341 32.5577 20.1014 32.8512 20.3639 33.1451L20.518 33.0179C20.2185 32.6249 19.913 32.2363 19.6077 31.8479C18.6837 30.6726 17.7616 29.4998 17.016 28.2158C16.9205 28.0028 16.7572 27.774 16.4861 27.6888L16.4862 27.6886L16.4802 27.6871C16.0913 27.5907 15.7321 27.7569 15.433 27.9884C15.1391 28.2159 14.8847 28.5207 14.6934 28.7499L14.6909 28.7529L14.6857 28.7565L14.6767 28.7675C13.0178 30.8022 12.9394 33.8975 14.3784 36.0663C14.8339 36.7887 15.4942 37.4086 16.1643 37.8937L20.0327 40.8605L20.0327 40.8605L20.034 40.8615C20.1824 40.9714 20.3413 41.0951 20.5077 41.2249L20.5152 41.2308C20.679 41.3585 20.8498 41.4917 21.0231 41.6213C21.3738 41.8836 21.7395 42.1352 22.0861 42.3013C23.4505 42.9987 25.0286 42.892 26.4676 42.7831C32.2956 42.488 38.5426 40.4658 42.8557 36.4001C43.0756 36.2646 43.3571 35.9915 43.6117 35.6787C43.8708 35.3604 44.1117 34.989 44.2362 34.6589L44.2371 34.6592L44.2401 34.6463C44.716 32.6045 43.9292 30.0481 42.8093 27.5704C42.0794 25.9554 41.1993 24.3567 40.4213 22.9436C40.0054 22.1882 39.6187 21.4857 39.2997 20.8621L39.2952 20.8534L39.2892 20.8458C39.128 20.6412 38.9582 20.405 38.7766 20.1524C38.6838 20.0234 38.5879 19.89 38.4886 19.7544C38.1965 19.356 37.8773 18.9425 37.5289 18.5802C36.8507 17.8753 36.0403 17.3427 35.0837 17.5249Z" fill="#281342" stroke="#281342" stroke-width="0.2"/>
<path d="M28.0182 19.097C26.7215 16.1193 22.6856 15.3985 20.5082 17.843L20.4408 17.9187L20.5173 17.9851L20.5608 18.0228L20.6282 18.0813L20.694 18.0209C21.2685 17.4931 21.9955 17.1379 22.7447 16.9966L22.7447 16.9927L22.7454 16.9957C23.9602 16.7325 25.0175 17.0943 25.9229 17.7663C26.8308 18.44 27.5819 19.4231 28.1746 20.3903L28.2165 20.4586L28.2923 20.4327L28.3471 20.4139L28.4268 20.3866L28.4134 20.3034C28.345 19.8788 28.198 19.4791 28.0182 19.097Z" fill="#281342" stroke="#281342" stroke-width="0.2"/>
<path d="M30.8603 17.0742L30.8603 17.0742L30.8624 17.0747C31.8605 17.2979 32.5369 17.973 33.0595 18.8218C33.464 19.4787 33.7703 20.2285 34.0616 20.9418C34.1483 21.1539 34.2336 21.3629 34.3198 21.5652L34.3506 21.6374L34.4281 21.6246L34.4843 21.6153L34.563 21.6023L34.5678 21.5227C34.6826 19.616 33.5609 17.7678 32.1084 16.9013C31.3804 16.4669 30.5621 16.2751 29.77 16.4543C28.9762 16.6339 28.2243 17.1825 27.6242 18.1983L27.5667 18.2955L27.6702 18.3408L27.7225 18.3637L27.8051 18.3999L27.8496 18.3214C28.4392 17.2808 29.7107 16.7911 30.8603 17.0742Z" fill="#281342" stroke="#281342" stroke-width="0.2"/>
<path d="M40.3836 34.2813L40.4047 34.275L40.5366 34.2355L40.5577 34.2291L40.5773 34.2192C40.6609 34.1771 40.7452 34.1384 40.8302 34.1029C41.5473 33.8847 42.3704 33.966 43.1393 34.2762C44.0575 34.6466 44.8616 35.3298 45.2744 36.1488L45.3898 36.3778C45.7641 37.1205 45.7895 38.0959 45.5305 39.0273C45.0083 39.7859 44.1935 40.4464 43.2962 40.8986L43.2961 40.8984L43.2868 40.9035L35.2438 45.3937L31.4332 47.1361L31.4331 47.1359L31.4247 47.1402C29.7842 47.9669 27.7842 47.3073 26.9575 45.6668L26.8421 45.4378C26.4302 44.6205 26.3703 43.5698 26.6302 42.6118C26.8902 41.6534 27.4591 40.8258 28.2609 40.4218L28.2686 40.4179L28.2759 40.4135L36.8035 35.3534L40.3836 34.2813ZM27.8529 40.0718C25.7195 41.1522 24.8627 43.7563 25.9394 45.8928L26.0548 46.1218C27.1465 48.2879 29.88 48.8459 31.99 47.7826L31.9901 47.7828L31.9993 47.7776L35.47 45.84L43.8936 41.9882L43.8937 41.9884L43.9022 41.9841C44.8598 41.5015 45.5727 40.5047 45.9333 39.42C45.953 39.3609 45.9716 39.3013 45.9893 39.2414C46.024 39.1891 46.0575 39.1363 46.0897 39.083C46.6639 38.1341 46.8475 37.0242 46.2925 35.9229L46.1771 35.6939C45.1507 33.6571 42.7371 32.7799 40.662 33.6314C40.5111 33.6786 40.3632 33.7374 40.2195 33.8085L36.6307 34.8832L36.6013 34.892L36.6012 34.892L36.575 34.9076L36.5748 34.9077L27.8529 40.0718Z" fill="#281342" stroke="#281342" stroke-width="0.5"/>
<path d="M29.4189 39.5605C28.4147 40.3344 27.5293 41.0634 26.8681 41.6365C27.3967 40.985 28.2982 40.2785 29.4189 39.5605C32.2941 37.3446 36.143 34.7612 38.4905 34.4204L41.7474 33.7817C38.6761 34.9133 32.9558 37.2944 29.4189 39.5605Z" fill="#281342"/>
<path d="M26.1628 45.7804C25.147 43.7647 25.9575 41.3071 27.9732 40.2913L40.465 33.9961C42.4807 32.9803 44.9382 33.7908 45.954 35.8065L46.0694 36.0355C47.0852 38.0512 46.2747 40.5087 44.259 41.5245L31.7672 47.8198C29.7515 48.8356 27.294 48.025 26.2782 46.0093L26.1628 45.7804Z" fill="#7F58FF"/>
<path d="M42.9411 34.875C41.0911 33.375 31.9619 39.0834 27.6286 42.125C27.2119 42.8959 26.6286 44.6 27.6286 45.25C28.8786 46.0625 34.0661 41.8125 39.0661 39.625C44.0661 37.4375 45.2536 36.75 42.9411 34.875Z" fill="url(#paint1_linear_151_31142)" fill-opacity="0.5"/>
<defs>
<linearGradient id="paint0_linear_151_31142" x1="25.5072" y1="10.4965" x2="25.5072" y2="41.1939" gradientUnits="userSpaceOnUse">
<stop stop-color="#EDFFF1"/>
<stop offset="1" stop-color="#D9D9D9" stop-opacity="0"/>
</linearGradient>
<linearGradient id="paint1_linear_151_31142" x1="33.6912" y1="35.875" x2="35.5701" y2="45.2024" gradientUnits="userSpaceOnUse">
<stop stop-color="#EDFFF1"/>
<stop offset="1" stop-color="#D9D9D9" stop-opacity="0"/>
</linearGradient>
</defs>
</svg>
