<svg height="38" viewBox="0 0 38 38" width="38" xmlns="http://www.w3.org/2000/svg" xmlns:xlink="http://www.w3.org/1999/xlink"><linearGradient id="a" x1="24.105578%" x2="93.371422%" y1="48.935252%" y2="51.666542%"><stop offset="0" stop-color="#2b2d37"/><stop offset="1" stop-color="#22202a"/></linearGradient><radialGradient id="b" cx="50.000433%" cy="49.999785%" gradientTransform="matrix(.00001047 .953598 -1 .00000999 .999997 .02319)" r="36.124733%"><stop offset="0" stop-color="#d0ff6d"/><stop offset="1" stop-color="#d15d1c"/></radialGradient><g fill="none" fill-rule="evenodd" transform="translate(4)"><circle cx="14.360465" cy="23.788442" fill="#271238" fill-opacity=".7" fill-rule="nonzero" r="11.544842" transform="matrix(.96592583 .25881905 -.25881905 .96592583 6.646223 -2.90619)"/><circle cx="14.360465" cy="21.623944" fill="#523e07" fill-rule="nonzero" r="11.544842" transform="matrix(.96592583 .25881905 -.25881905 .96592583 6.08601 -2.979944)"/><path d="m11.1647535 30.4646884c6.1587395 1.6502604 12.4892744-2.0046326 14.1395349-8.1634605.2559256-.9553907.3843302-1.9149349.3953767-2.8604279-.8122279-4.2021814-3.939186-7.7861116-8.3511628-8.9683535-6.1588279-1.65021627-12.48929207 2.0047209-14.1395437 8.1634605-.25599627.9553907-.38433023 1.9149349-.39545627 2.8605163.81224558 4.202093 3.93925674 7.7861116 8.35125117 8.9682651z" fill="#a17400"/><ellipse cx="17.504302" cy="11.473879" fill="#17121c" fill-opacity=".5" fill-rule="nonzero" rx="3.128584" ry="1" transform="matrix(.95326347 .3021403 -.3021403 .95326347 4.284812 -4.752506)"/><path d="m15.0054047 8.41622233c.1292-.14574326 1.0600232-.06361024 2.787079.39915907 1.7270558.46280465 2.5486512.83326046 2.6273907.99533488.0787396.16198605-.2490325 1.98156742-.5966884 2.22671162-.3475674.2451442-.8049813.4796837-2.8598976-.1273442s-2.4309396-1.0272372-2.540521-1.3196604c-.1095814-.2924233.4533489-2.02845772.5826373-2.17420097z" fill="#523e07" fill-rule="nonzero"/><path d="m17.3715674 12.0253209c-.1285814-.0344651-.264586-.0728186-.408279-.1153256-.2923349-.0863395-.5507349-.168879-.7791768-.2478837-.0256279-.4210046.9377163-2.56155346 1.0621442-2.70188834.107107-.12071628.2371907-.18765814 1.2612465.05620465 1.2412744.36789302 1.8453861.6564279 1.9123721.7942.0787396.16207442-.2491209 1.98165579-.5966884 2.22671159-.2857069.2014884-.6456465.3958186-1.9059209.1215117-.2069674-.0548791-.3876884-.0985349-.5456977-.1335303z" fill="#0b0c10" fill-opacity=".1"/><ellipse cx="17.664521" cy="9.232056" fill="url(#a)" fill-rule="nonzero" rx="2.738589" ry="1" transform="matrix(.96592583 .25881905 -.25881905 .96592583 2.991336 -4.25734)"/><path d="m24.2878326 4.88907116c-5.2350745-1.74787628-7.2861907 1.78622093-7.5165768 3.84709349.0030047.06829395.2684744.48307721.8759442.6256214.6074698.14263255 1.1345209.17267907 1.200093.15403255-.2812-1.40817395-.050107-2.64308558 1.5437721-3.03403488 1.5937907-.3909493 3.3929582.11291302 3.6465861 0 .1047209-.04661628.2373674-.47337395.2501814-.70884139.0181162-.33484186.1730325-.8174507 0-.88387117z" fill="#d9d9d9" fill-rule="nonzero"/><path d="m24.2880977 5.7668093c-5.4233954-1.11030697-6.6541535 1.3671693-6.6541535 3.56669768.0002651.00565581.0029163.01484651.0076884.02704186.0017674.00044186.0036232.00088372.005479.00132558.6075582.14254418 1.1346093.1725907 1.2001814.15403256-.2812883-1.40820931-.0501953-2.64312093 1.5436837-3.03407024 1.0652373-.26127209 2.2221163-.12288139 2.9480931-.03604697.360293.04309907.6144511.07349907.6985814.03604697.1046325-.04661627.2373674-.47336511.250093-.70883255.0001767-.00205907.0002651-.00412698.0003535-.00619489z" fill="#282832" fill-opacity=".5"/><path d="m28.8160186 2.67219535-1.8892186 2.93788605-.1102.17134465.1618977.12369442 2.7752372 2.12086837-3.4888419-.16712931-.2035209-.0097386-.0261581.20200977-.449107 3.4639298-1.5997117-3.10505957-.0932325-.18108326-.1880558.07832419-3.2243442 1.3429907 1.8891302-2.93786837.1102-.17134466-.1618977-.12368558-2.7752372-2.12086837 3.4888419.16712047.2035209.00974744.0261582-.20201861.4491069-3.46388381 1.5997117 3.10501358.0933209.18109209.1880558-.07832418z" fill="url(#b)" fill-rule="nonzero" stroke="#c5650c" stroke-width=".5"/></g></svg>