<svg width="35" height="43" viewBox="0 0 35 43" fill="none" xmlns="http://www.w3.org/2000/svg">
<ellipse cx="15.456" cy="28.2755" rx="11.8872" ry="11.8872" transform="rotate(15 15.456 28.2755)" fill="#271238" fill-opacity="0.7"/>
<ellipse cx="15.456" cy="26.047" rx="11.8872" ry="11.8872" transform="rotate(15 15.456 26.047)" fill="url(#paint0_linear_708_56297)"/>
<mask id="mask0_708_56297" style="mask-type:alpha" maskUnits="userSpaceOnUse" x="3" y="14" width="25" height="24">
<ellipse cx="15.4559" cy="26.047" rx="11.8872" ry="11.8872" transform="rotate(15 15.4559 26.047)" fill="#2A4C96"/>
</mask>
<g mask="url(#mask0_708_56297)">
<ellipse cx="14.2024" cy="23.809" rx="10.4764" ry="10.4764" transform="rotate(15 14.2024 23.809)" fill="url(#paint1_linear_708_56297)" fill-opacity="0.6"/>
</g>
<ellipse cx="18.6931" cy="15.5961" rx="3.22134" ry="0.880809" transform="rotate(17.5862 18.6931 15.5961)" fill="#17121C" fill-opacity="0.5"/>
<path d="M16.1201 12.4475C16.2531 12.2975 17.2116 12.382 18.9898 12.8585C20.7681 13.335 21.614 13.7165 21.6951 13.8834C21.7762 14.0502 21.4387 15.9237 21.0808 16.1761C20.7229 16.4285 20.2518 16.67 18.136 16.045C16.0202 15.42 15.6331 14.9873 15.5202 14.6862C15.4074 14.3851 15.987 12.5976 16.1201 12.4475Z" fill="#50810F"/>
<path fill-rule="evenodd" clip-rule="evenodd" d="M18.5587 16.1644C18.4256 16.1287 18.2848 16.089 18.136 16.045C17.835 15.9561 17.569 15.8711 17.3337 15.7898C17.3075 15.356 18.2993 13.1523 18.4273 13.0079C18.5377 12.8835 18.6717 12.8146 19.7278 13.0662C21.0047 13.4447 21.6262 13.7416 21.6951 13.8834C21.7761 14.0502 21.4386 15.9238 21.0807 16.1762C20.7864 16.3838 20.4155 16.5839 19.1161 16.3008C18.9048 16.2448 18.7202 16.2002 18.5587 16.1644Z" fill="#0B0C10" fill-opacity="0.1"/>
<ellipse cx="18.8581" cy="13.2877" rx="2.81979" ry="0.336429" transform="rotate(15 18.8581 13.2877)" fill="url(#paint2_linear_708_56297)"/>
<path d="M25.6775 8.81613C20.2873 7.01644 18.1754 10.6553 17.9382 12.7773C17.9412 12.8476 18.2145 13.2747 18.84 13.4215C19.4655 13.5683 20.0082 13.5992 20.0757 13.5801C19.7861 12.1301 20.0241 10.8586 21.6652 10.4561C23.3064 10.0535 25.1588 10.5723 25.42 10.4561C25.5278 10.4081 25.6644 9.96866 25.6775 9.72621C25.6962 9.38144 25.8558 8.88452 25.6775 8.81613Z" fill="#D9D9D9"/>
<path fill-rule="evenodd" clip-rule="evenodd" d="M25.6781 9.71981C20.0939 8.5766 18.8267 11.1275 18.8267 13.3923C18.8269 13.3981 18.8296 13.4075 18.8345 13.42C18.8364 13.4204 18.8383 13.4209 18.8402 13.4214C19.4657 13.5682 20.0084 13.5991 20.0759 13.5799C19.7864 12.13 20.0243 10.8585 21.6654 10.4559C22.7622 10.1869 23.9534 10.3294 24.7009 10.4188C25.0719 10.4632 25.3336 10.4945 25.4202 10.4559C25.528 10.4079 25.6646 9.96853 25.6778 9.72609C25.6779 9.724 25.678 9.72191 25.6781 9.71981Z" fill="#282832" fill-opacity="0.5"/>
<path d="M30.34 6.53338L28.3948 9.55838L28.2813 9.7348L28.448 9.86216L31.3055 12.0459L27.7132 11.8738L27.5037 11.8638L27.4768 12.0718L27.0144 15.6384L25.3672 12.4413L25.2712 12.2549L25.0775 12.3355L21.7576 13.7183L23.7028 10.6933L23.8162 10.5169L23.6495 10.3896L20.792 8.20581L24.3843 8.37789L24.5938 8.38792L24.6208 8.17992L25.0832 4.61333L26.7303 7.81041L26.8264 7.99687L27.02 7.91622L30.34 6.53338Z" fill="#F6D049" stroke="#C5650C" stroke-width="0.454961"/>
<path d="M15.3495 39.065C14.2695 39.065 13.1595 38.925 12.0695 38.635C5.2495 36.805 1.1995 29.725 3.0395 22.855C4.4895 17.445 9.3095 13.555 14.8295 13.285C14.9206 12.9208 15.0425 12.5947 15.1495 12.345C15.2236 12.1722 15.2907 11.9967 15.4195 11.855C15.6241 11.6333 15.891 11.5431 16.1795 11.495C16.3295 11.475 16.5195 11.475 16.7195 11.495C16.8795 11.505 17.0595 11.525 17.2795 11.565C17.5395 10.775 18.1195 9.515 19.3795 8.575L17.1995 6.915L23.5995 7.225L24.4295 0.875L27.3595 6.565L33.2695 4.105L29.8095 9.495L34.8995 13.385L28.4995 13.075L27.6795 19.425L24.7495 13.735L22.5595 14.645C22.5163 14.8753 22.458 15.104 22.4195 15.335C27.0295 18.335 29.2395 24.105 27.7995 29.495C26.2495 35.265 21.0395 39.085 15.3795 39.085L15.3495 39.065ZM16.1695 12.405L16.0595 12.525C16.0395 12.565 16.0195 12.615 15.9995 12.665C15.9495 12.785 15.8995 12.935 15.8395 13.095C15.7695 13.315 15.6895 13.575 15.6295 13.815L15.4647 14.6548L15.199 14.145C9.93904 14.275 5.3095 17.935 3.9295 23.065C2.2195 29.455 5.9795 36.035 12.3095 37.735C18.6395 39.435 25.1895 35.615 26.8995 29.225C28.2766 24.0886 25.6064 19.4126 21.7195 15.9534C21.345 15.6201 21.2545 16.2089 21.1295 16.1313C21.1678 16.0049 21.4243 15.462 21.4593 15.335C21.4977 15.1956 21.5343 15.0557 21.5695 14.915C21.6344 14.6037 21.6831 14.2907 21.7195 13.975L25.1595 12.545L27.1365 16.3657L27.6995 12.105L32.0195 12.315L28.5795 9.685L30.9195 6.045L26.9295 7.705L24.9495 3.855L24.3895 8.145L20.0695 7.935L21.0895 8.67041L20.3895 8.975C18.7595 9.915 18.2058 11.6882 18.0506 12.1782C17.8954 12.6682 18.285 13.245 18.285 13.245L17.2147 12.485C16.8747 12.415 16.8995 12.405 16.6695 12.395C16.5112 12.395 16.3221 12.3541 16.1695 12.405ZM21.5037 13.735L21.1295 13.555C20.8995 13.455 20.539 13.355 20.199 13.245L20.0595 13.6001L19.9595 12.835C19.923 12.1604 20.0595 11.6036 20.3695 11.205C20.6495 10.845 21.0795 10.585 21.6495 10.445C21.9995 10.355 22.7143 10.2976 23.1443 10.2876L23.5115 10.5688L21.5037 13.735ZM20.8695 12.485C20.9595 12.515 21.0495 12.545 21.1295 12.575L21.9295 11.325C21.9295 11.325 21.8895 11.325 21.8695 11.345C21.5095 11.435 21.2495 11.575 21.0895 11.775C20.9564 11.9461 20.8906 12.1686 20.8695 12.485Z" fill="#181022"/>
<defs>
<linearGradient id="paint0_linear_708_56297" x1="22.8339" y1="26.047" x2="3.56887" y2="26.047" gradientUnits="userSpaceOnUse">
<stop stop-color="#86BF37"/>
<stop offset="1" stop-color="#467607"/>
</linearGradient>
<linearGradient id="paint1_linear_708_56297" x1="8.07251" y1="16.2023" x2="19.3578" y2="32.0012" gradientUnits="userSpaceOnUse">
<stop stop-color="#B7FF54"/>
<stop offset="1" stop-color="white" stop-opacity="0"/>
</linearGradient>
<linearGradient id="paint2_linear_708_56297" x1="17.3977" y1="13.0727" x2="21.304" y2="13.6241" gradientUnits="userSpaceOnUse">
<stop stop-color="#2B2D37"/>
<stop offset="1" stop-color="#22202A"/>
</linearGradient>
</defs>
</svg>
