<svg height="38" viewBox="0 0 38 38" width="38" xmlns="http://www.w3.org/2000/svg" xmlns:xlink="http://www.w3.org/1999/xlink"><linearGradient id="a" x1="24.105578%" x2="93.371422%" y1="48.935252%" y2="51.666542%"><stop offset="0" stop-color="#2b2d37"/><stop offset="1" stop-color="#22202a"/></linearGradient><radialGradient id="b" cx="50.000433%" cy="50.000041%" gradientTransform="matrix(.00001047 .953603 -1 .00000999 .999999 .02319)" r="36.124733%"><stop offset="0" stop-color="#d0ff6d"/><stop offset="1" stop-color="#d15d1c"/></radialGradient><g fill="none" fill-rule="evenodd"><circle cx="18.139535" cy="23.438312" fill="#271238" fill-opacity=".7" fill-rule="nonzero" r="11.544842" transform="matrix(.96592583 .25881905 -.25881905 .96592583 6.684371 -3.896216)"/><circle cx="18.139535" cy="21.273726" fill="#933838" fill-rule="nonzero" r="11.544842" transform="matrix(.96592583 .25881905 -.25881905 .96592583 6.124135 -3.969972)"/><path d="m14.9438233 30.1143814c6.1587395 1.6502605 12.4892744-2.0046326 14.1395348-8.1634605.2559256-.9553907.3843303-1.9148465.3953768-2.8604279-.8122279-4.202093-3.9391861-7.7861116-8.3511628-8.9682651-6.1588279-1.65026046-12.4892921 2.0046326-14.13954373 8.1634605-.25599628.9553907-.38433023 1.9149349-.39545628 2.8604279.81224558 4.202093 3.93925671 7.7861116 8.35125121 8.9682651z" fill="#ed6e6e"/><ellipse cx="21.283372" cy="11.123749" fill="#17121c" fill-opacity=".5" fill-rule="nonzero" rx="3.128584" ry="1" transform="matrix(.95326347 .3021403 -.3021403 .95326347 4.355644 -5.910679)"/><path d="m18.7844744 8.06607442c.1292-.14576093 1.0600233-.06362791 2.7870791.39917674 1.7270558.46271628 2.5486512.83326047 2.6273907.99524651.0787395.16207442-.2490326 1.98165583-.5966884 2.22680003-.3475674.2451442-.8049814.4795953-2.8598977-.1273442-2.0549162-.6070279-2.4309395-1.0272372-2.5405209-1.3196605-.1095814-.2925116.4533488-2.028493.5826372-2.17421858z" fill="#933838" fill-rule="nonzero"/><path d="m21.1506372 11.6752791c-.1285814-.0345535-.264586-.0728186-.4082791-.1153256-.2923348-.0863395-.5507348-.1688791-.7791767-.2478837-.0256279-.4210931.9377163-2.56164189 1.0621442-2.7018884.107107-.12080466.2371907-.18770233 1.2612465.05620465 1.2412744.36789302 1.845386.6564279 1.9123721.7942.0787395.16198604-.2491209 1.98156745-.5966884 2.22671165-.285707.2014883-.6456465.3958186-1.9059209.1215116-.2069675-.0548791-.3876884-.0985349-.5456977-.1335302z" fill="#0b0c10" fill-opacity=".1"/><ellipse cx="21.443591" cy="8.882014" fill="url(#a)" fill-rule="nonzero" rx="2.738589" ry="1" transform="matrix(.96592583 .25881905 -.25881905 .96592583 3.029507 -5.247362)"/><path d="m28.0669023 4.53890558c-5.2350744-1.74787628-7.2861907 1.78622093-7.5165767 3.84707582.0030046.06831162.2684744.48304186.8759442.62567441.6074697.14254419 1.1345209.1725907 1.200093.15403256-.2812-1.4082093-.050107-2.64312093 1.5437721-3.03407023 1.5937907-.3909493 3.3929581.11291302 3.646586 0 .104721-.04661628.2373675-.47337395.2501814-.7088414.0181163-.33484186.1730326-.81745069 0-.88387116z" fill="#d9d9d9" fill-rule="nonzero"/><path d="m28.0671674 5.41652884c-5.4233953-1.11029814-6.6541534 1.3671693-6.6541534 3.56675953.0002651.00565582.0029162.01475814.0076883.02695349.0017675.00044186.0036233.00088372.0054791.00132558.6075581.14263256 1.1346093.17267907 1.2001814.15403256-.2812884-1.40817395-.0501954-2.64308558 1.5436837-3.03403488 1.0652372-.26128093 2.2221163-.12289024 2.948093-.03604698.3602931.04309907.6144512.07349907.6985814.03604698.1046326-.04661628.2373675-.47336512.2500931-.70883256.0001767-.00205907.0002651-.00412698.0003534-.00620372z" fill="#282832" fill-opacity=".5"/><path d="m32.5950884 2.32202977-1.8892186 2.93788604-.1102.17134466.1618976.12369441 2.7752373 2.12086838-3.4888419-.16712931-.2035209-.00974744-.0261582.20201861-.449107 3.46387678-1.5997116-3.1050419-.0932325-.18104791-.1880559.07835954-3.2243441 1.3429907 1.8891302-2.93790373.1102-.17134465-.1618977-.12368558-2.7752372-2.12086837 3.4888419.16712047.2035209.00974744.0261581-.20201861.449107-3.46388558 1.5997116 3.10501535.093321.18109209.1880558-.07833302z" fill="url(#b)" fill-rule="nonzero" stroke="#c5650c" stroke-width=".5"/></g></svg>