<svg height="38" viewBox="0 0 38 38" width="38" xmlns="http://www.w3.org/2000/svg" xmlns:xlink="http://www.w3.org/1999/xlink"><linearGradient id="a" x1="24.105578%" x2="93.371422%" y1="48.935252%" y2="51.666542%"><stop offset="0" stop-color="#2b2d37"/><stop offset="1" stop-color="#22202a"/></linearGradient><radialGradient id="b" cx="50.000433%" cy="49.999785%" gradientTransform="matrix(.00001047 .953598 -1 .00000999 .999997 .02319)" r="36.124733%"><stop offset="0" stop-color="#d0ff6d"/><stop offset="1" stop-color="#d15d1c"/></radialGradient><g fill="none" fill-rule="evenodd" transform="translate(4)"><circle cx="14.802326" cy="23.788442" fill="#271238" fill-opacity=".7" fill-rule="nonzero" r="11.544842" transform="matrix(.96592583 .25881905 -.25881905 .96592583 6.661279 -3.020552)"/><circle cx="14.802326" cy="21.623944" fill="#c7a424" fill-rule="nonzero" r="11.544842" transform="matrix(.96592583 .25881905 -.25881905 .96592583 6.101066 -3.094306)"/><path d="m11.606614 30.4646884c6.1587395 1.6502604 12.4892744-2.0046326 14.1395348-8.1634605.2559256-.9553907.3843303-1.9149349.3953768-2.8604279-.8122279-4.2021814-3.9391861-7.7861116-8.3511628-8.9683535-6.1588279-1.65021627-12.4892921 2.0047209-14.13954373 8.1634605-.25599628.9553907-.38433023 1.9149349-.39545628 2.8605163.81224558 4.202093 3.93925674 7.7861116 8.35125121 8.9682651z" fill="#fbd54f"/><ellipse cx="17.946163" cy="11.473879" fill="#17121c" fill-opacity=".5" fill-rule="nonzero" rx="3.128584" ry="1" transform="matrix(.95326347 .3021403 -.3021403 .95326347 4.305463 -4.88601)"/><path d="m15.4472651 8.41622233c.1292-.14574326 1.0600233-.06361024 2.7870791.39915907 1.7270558.46280465 2.5486511.83326046 2.6273907.99533488.0787395.16198605-.2490326 1.98156742-.5966884 2.22671162-.3475674.2451442-.8049814.4796837-2.8598977-.1273442-2.0549162-.6070279-2.4309395-1.0272372-2.5405209-1.3196604-.1095814-.2924233.4533488-2.02845772.5826372-2.17420097z" fill="#c7a424" fill-rule="nonzero"/><path d="m17.8134279 12.0253209c-.1285814-.0344651-.264586-.0728186-.4082791-.1153256-.2923348-.0863395-.5507348-.168879-.7791767-.2478837-.0256279-.4210046.9377163-2.56155346 1.0621442-2.70188834.107107-.12071628.2371907-.18765814 1.2612465.05620465 1.2412744.36789302 1.845386.6564279 1.9123721.7942.0787395.16207442-.2491209 1.98165579-.5966884 2.22671159-.285707.2014884-.6456465.3958186-1.9059209.1215117-.2069675-.0548791-.3876884-.0985349-.5456977-.1335303z" fill="#0b0c10" fill-opacity=".1"/><ellipse cx="18.106381" cy="9.232056" fill="url(#a)" fill-rule="nonzero" rx="2.738589" ry="1" transform="matrix(.96592583 .25881905 -.25881905 .96592583 3.006392 -4.371702)"/><path d="m24.729693 4.88907116c-5.2350744-1.74787628-7.2861907 1.78622093-7.5165767 3.84709349.0030046.06829395.2684744.48307721.8759442.6256214.6074697.14263255 1.1345209.17267907 1.200093.15403255-.2812-1.40817395-.050107-2.64308558 1.5437721-3.03403488 1.5937907-.3909493 3.3929581.11291302 3.646586 0 .104721-.04661628.2373675-.47337395.2501814-.70884139.0181163-.33484186.1730326-.8174507 0-.88387117z" fill="#d9d9d9" fill-rule="nonzero"/><path d="m24.7299581 5.7668093c-5.4233953-1.11030697-6.6541534 1.3671693-6.6541534 3.56669768.0002651.00565581.0029162.01484651.0076883.02704186.0017675.00044186.0036233.00088372.0054791.00132558.6075581.14254418 1.1346093.1725907 1.2001814.15403256-.2812884-1.40820931-.0501954-2.64312093 1.5436837-3.03407024 1.0652372-.26127209 2.2221163-.12288139 2.948093-.03604697.3602931.04309907.6144512.07349907.6985814.03604697.1046326-.04661627.2373675-.47336511.2500931-.70883255.0001767-.00205907.0002651-.00412698.0003534-.00619489z" fill="#282832" fill-opacity=".5"/><path d="m29.2578791 2.67219535-1.8892186 2.93788605-.1102.17134465.1618976.12369442 2.7752372 2.12086837-3.4888418-.16712931-.2035209-.0097386-.0261582.20200977-.449107 3.4639298-1.5997116-3.10505957-.0932325-.18108326-.1880559.07832419-3.2243441 1.3429907 1.8891302-2.93786837.1102-.17134466-.1618977-.12368558-2.7752372-2.12086837 3.4888419.16712047.2035209.00974744.0261581-.20201861.449107-3.46388381 1.5997116 3.10501358.093321.18109209.1880558-.07832418z" fill="url(#b)" fill-rule="nonzero" stroke="#c5650c" stroke-width=".5"/></g></svg>