<?xml version="1.0" encoding="UTF-8"?>
<svg width="38px" height="38px" viewBox="0 0 38 38" version="1.1" xmlns="http://www.w3.org/2000/svg" xmlns:xlink="http://www.w3.org/1999/xlink">
    <!-- Generator: Sketch 56.3 (81716) - https://sketch.com -->
    <title>blue</title>
    <desc>Created with Sketch.</desc>
    <defs>
        <linearGradient x1="50.0001383%" y1="-9.71829072e-05%" x2="50.0001383%" y2="99.9994443%" id="linearGradient-1">
            <stop stop-color="#306AFF" offset="0%"></stop>
            <stop stop-color="#8CFAF5" offset="100%"></stop>
            <stop stop-color="#89DCD8" offset="100%"></stop>
        </linearGradient>
        <linearGradient x1="49.9992477%" y1="5.72041417e-06%" x2="49.9992477%" y2="100.00028%" id="linearGradient-2">
            <stop stop-color="#306AFF" offset="0%"></stop>
            <stop stop-color="#8CFAF5" offset="100%"></stop>
            <stop stop-color="#89DCD8" offset="100%"></stop>
        </linearGradient>
        <linearGradient x1="10.2133722%" y1="-10.3102307%" x2="76.7669158%" y2="85.6723845%" id="linearGradient-3">
            <stop stop-color="#AFFFFA" offset="0%"></stop>
            <stop stop-color="#D9D9D9" stop-opacity="0" offset="100%"></stop>
        </linearGradient>
        <linearGradient x1="54.4481925%" y1="-52.0444696%" x2="54.4169472%" y2="136.872056%" id="linearGradient-4">
            <stop stop-color="#2D0047" offset="0%"></stop>
            <stop stop-color="#34312F" offset="100%"></stop>
        </linearGradient>
    </defs>
    <g id="blue" stroke="none" stroke-width="1" fill="none" fill-rule="evenodd">
        <g id="Llama" transform="translate(4.000000, 2.000000)">
            <path d="M28.8289,12.5487 C29.3004,11.4557 29.4556,10.1707 29.4556,8.98368 C29.4556,7.18206 28.8706,5.56038 27.9895,4.372 C27.1279,3.20993 25.8781,2.33854 24.5112,2.33854 C23.9629,2.33854 23.4335,2.47497 23.0011,2.83551 C22.579,3.18741 22.3632,3.6588 22.2462,4.10499 C22.0358,4.90745 22.0679,5.97788 22.0993,7.02482 C22.1005,7.0646 22.1017,7.10433 22.1029,7.14402 C22.1068,7.275 22.1107,7.40751 22.1144,7.54163 C20.4446,6.82543 18.6055,6.42899 16.6756,6.42899 C14.956,6.42899 13.3083,6.74374 11.7882,7.31914 C11.7899,7.26049 11.7916,7.20215 11.7934,7.14411 C11.7945,7.10442 11.7957,7.06468 11.7969,7.02491 C10.8381,4.70844 10.8702,3.63801 10.6599,2.83554 C10.5429,2.38935 10.3271,1.91796 9.905,1.56606 C9.4726,1.20551 8.94316,1.06908 8.3949,1.06908 C7.02801,1.06908 6.76838,3.20999 5.90676,4.37206 C5.02564,5.56044 4.44071,7.18212 4.44071,8.98374 C4.44071,10.1484 4.58994,11.3874 5.02632,12.4512 C4.18319,12.533 3.54739,13.1058 3.15688,13.7337 C2.72607,14.4265 2.49103,15.3228 2.49103,16.262 C2.49103,16.9932 2.63359,17.6986 2.90005,18.3021 C2.63351,18.9056 2.49103,19.6111 2.49103,20.3428 C2.49103,21.0344 2.61827,21.7013 2.8563,22.2807 C2.50557,23.1661 2.5261,24.272 2.84244,25.29 C3.13165,26.2208 3.65998,27.0581 4.34123,27.5971 C4.37629,27.9492 4.44899,28.3089 4.56015,28.6666 C4.83871,29.5631 5.32895,30.3486 5.94672,30.8807 C6.45244,31.3162 7.1354,31.6476 7.87296,31.5787 C8.06519,31.7598 8.27532,31.9306 8.50135,32.0879 C9.3786,32.6983 10.4116,33.0425 11.3471,32.9803 C12.9879,33.6672 14.7887,34.0462 16.6756,34.0462 C18.565,34.0462 20.368,33.6662 22.0106,32.9776 C22.957,33.0518 24.0065,32.7054 24.894,32.0879 C25.12,31.9306 25.3301,31.7598 25.5224,31.5787 C26.2599,31.6476 26.9429,31.3162 27.4486,30.8807 C28.0664,30.3486 28.5566,29.5631 28.8352,28.6666 C28.9463,28.3089 29.019,27.9492 29.0541,27.5971 C29.7353,27.0581 30.2637,26.2208 30.5529,25.29 C30.8692,24.272 30.8897,23.1661 30.539,22.2807 C30.777,21.7013 30.9043,21.0344 30.9043,20.3428 C30.9043,19.6117 30.762,18.906 30.4953,18.3021 C30.7618,17.6983 30.9043,16.9928 30.9043,16.262 C30.9043,15.3228 30.6692,14.4265 30.2384,13.7337 C29.9225,13.2257 29.4459,12.7538 28.8289,12.5487 Z" id="Path" fill-opacity="0.5" fill="#281342"></path>
            <path d="M3.47147,7.075 C3.47147,10.472 4.75669,13.731 9.2031,12.1826 C11.5003,10.5565 9.9757,10.1719 9.2031,6.83843 C9.2031,3.44144 9.7261,1.03174 7.70396,1.03174 C5.68181,1.03174 3.47147,3.67801 3.47147,7.075 Z" id="Path" fill="#1F4492" fill-rule="nonzero"></path>
            <path d="M5.04851,7.58252 C5.04851,9.31383 8.43012,12.0002 8.6551,11.5603 C8.88007,11.1203 8.1955,10.4977 8.65511,7.7475 C9.1147,4.99733 8.86132,2.06417 7.82609,2.00918 C7.39398,1.98622 5.24888,4.77768 5.04851,7.58252 Z" id="Path" fill="#425B8C" fill-rule="nonzero"></path>
            <path d="M5.04852,7.58252 C5.04852,9.31383 8.43012,12.0002 8.6551,11.5603 C8.88007,11.1203 8.1955,10.4977 8.65511,7.7475 C9.1147,4.99733 8.86132,2.06417 7.82609,2.00918 C7.39398,1.98622 5.24888,4.77768 5.04852,7.58252 Z" id="Path" fill-opacity="0.8" fill="url(#linearGradient-1)" fill-rule="nonzero"></path>
            <path d="M28.0409,7.075 C28.0409,10.472 26.7557,13.731 22.3092,12.1826 C20.0121,10.5565 21.5366,10.1719 22.3092,6.83843 C22.3092,3.44144 21.7863,1.03174 23.8084,1.03174 C25.8306,1.03174 28.0409,3.67801 28.0409,7.075 Z" id="Path" fill="#1F4492" fill-rule="nonzero"></path>
            <path d="M26.7476,7.58227 C26.7476,9.31358 23.366,12 23.141,11.56 C22.916,11.1201 23.6006,10.4974 23.141,7.74725 C22.6814,4.99709 22.9348,2.06392 23.97,2.00893 C24.4021,1.98598 26.5472,4.77744 26.7476,7.58227 Z" id="Path" fill="#425B8C" fill-rule="nonzero"></path>
            <path d="M26.7476,7.58227 C26.7476,9.31358 23.366,12 23.141,11.56 C22.916,11.1201 23.6006,10.4974 23.141,7.74726 C22.6814,4.99709 22.9348,2.06392 23.97,2.00893 C24.4021,1.98598 26.5472,4.77744 26.7476,7.58227 Z" id="Path" fill-opacity="0.8" fill="url(#linearGradient-2)" fill-rule="nonzero"></path>
            <circle id="Oval" fill="#1F4492" fill-rule="nonzero" cx="15.466" cy="19.0568" r="13.6701"></circle>
            <path d="M7.17181,12.6878 C7.17181,14.3646 4.32703,17.8604 3.28416,17.8604 C2.24129,17.8604 1.39587,16.501 1.39587,14.8241 C1.39587,13.1473 2.24129,11.7879 3.28416,11.7879 C4.32703,11.7879 7.17181,11.0109 7.17181,12.6878 Z" id="Path" fill="#1F4492" fill-rule="nonzero"></path>
            <path d="M7.17157,17.0325 C7.17157,18.7093 4.32679,22.2051 3.28392,22.2051 C2.24104,22.2051 1.39563,20.8457 1.39563,19.1689 C1.39563,17.492 2.24104,16.1327 3.28392,16.1327 C4.32679,16.1327 7.17157,15.3556 7.17157,17.0325 Z" id="Path" fill="#1F4492" fill-rule="nonzero"></path>
            <path d="M6.60125,20.3477 C7.09842,21.9477 5.42041,26.1422 4.4253,26.457 C3.4302,26.7719 2.22047,25.73 1.72329,24.13 C1.22612,22.5299 1.62977,20.9776 2.62488,20.6628 C3.61998,20.3479 6.10407,18.7477 6.60125,20.3477 Z" id="Path" fill="#1F4492" fill-rule="nonzero"></path>
            <path d="M8.42998,23.9427 C8.92715,25.5427 7.24914,29.7372 6.25404,30.052 C5.25894,30.3668 4.0492,29.325 3.55203,27.7249 C3.05486,26.1249 3.45851,24.5726 4.45361,24.2577 C5.44871,23.9429 7.93281,22.3426 8.42998,23.9427 Z" id="Path" fill="#1F4492" fill-rule="nonzero"></path>
            <path d="M8.87767,24.8457 C10.2529,25.8027 11.5057,30.1432 10.914,31.0029 C10.3222,31.8627 8.72762,31.7838 7.35236,30.8267 C5.9771,29.8697 5.34195,28.3969 5.93371,27.5371 C6.52547,26.6774 7.50241,23.8886 8.87767,24.8457 Z" id="Path" fill="#1F4492" fill-rule="nonzero"></path>
            <path d="M23.8072,12.6878 C23.8072,14.3646 26.652,17.8604 27.6948,17.8604 C28.7377,17.8604 29.5831,16.501 29.5831,14.8241 C29.5831,13.1473 28.7377,11.7879 27.6948,11.7879 C26.652,11.7879 23.8072,11.0109 23.8072,12.6878 Z" id="Path" fill="#1F4492" fill-rule="nonzero"></path>
            <path d="M23.8075,17.0325 C23.8075,18.7093 26.6523,22.2051 27.6951,22.2051 C28.738,22.2051 29.5834,20.8457 29.5834,19.1689 C29.5834,17.492 28.738,16.1327 27.6951,16.1327 C26.6523,16.1327 23.8075,15.3556 23.8075,17.0325 Z" id="Path" fill="#1F4492" fill-rule="nonzero"></path>
            <path d="M24.3778,20.3477 C23.8806,21.9477 25.5586,26.1422 26.5537,26.457 C27.5488,26.7719 28.7585,25.73 29.2557,24.13 C29.7529,22.5299 29.3492,20.9776 28.3541,20.6628 C27.359,20.3479 24.8749,18.7477 24.3778,20.3477 Z" id="Path" fill="#1F4492" fill-rule="nonzero"></path>
            <path d="M22.5491,23.9427 C22.0519,25.5427 23.7299,29.7372 24.725,30.052 C25.7201,30.3668 26.9299,29.325 27.427,27.7249 C27.9242,26.1249 27.5206,24.5726 26.5255,24.2577 C25.5304,23.9429 23.0463,22.3426 22.5491,23.9427 Z" id="Path" fill="#1F4492" fill-rule="nonzero"></path>
            <path d="M22.1015,24.8457 C20.7262,25.8027 19.4734,30.1432 20.0652,31.0029 C20.6569,31.8627 22.2515,31.7838 23.6268,30.8267 C25.002,29.8697 25.6372,28.3969 25.0454,27.5371 C24.4537,26.6774 23.4767,23.8886 22.1015,24.8457 Z" id="Path" fill="#1F4492" fill-rule="nonzero"></path>
            <path d="M24.1109,19.5238 C24.8459,18.5506 25.2629,17.4377 25.2629,16.2556 C25.2629,12.4359 20.9097,9.33936 15.5397,9.33936 C10.1697,9.33936 5.81647,12.4359 5.81647,16.2556 C5.81647,17.4509 6.24279,18.5754 6.99317,19.5564 C6.07811,20.7942 6.07811,22.4189 6.07811,24.1982 C6.07811,28.0779 10.3252,30.6221 15.5642,30.6221 C20.8033,30.6221 25.0503,28.0779 25.0503,24.1982 C25.0503,22.4033 25.0503,20.7656 24.1109,19.5238 Z" id="Path" fill="#95D4EE"></path>
            <path d="M20.5233,30.4718 C18.9651,31.1619 17.2407,31.5452 15.4268,31.5452 C13.6177,31.5452 11.8977,31.1639 10.3427,30.4773 C9.6604,30.5931 8.76315,30.3604 7.94926,29.794 C7.61049,29.5583 7.32046,29.2886 7.08772,29.0048 C7.03603,29.0393 6.98572,29.0647 6.93717,29.08 C6.02009,29.3702 4.9052,28.41 4.44701,26.9354 C4.30876,26.4905 4.24609,26.0496 4.25117,25.6428 C3.63371,25.3206 3.05915,24.58 2.76158,23.6223 C2.43946,22.5856 2.52765,21.5707 2.92711,20.9585 C2.63707,20.4586 2.45959,19.7877 2.45959,19.0501 C2.45959,18.2797 2.65321,17.5821 2.96646,17.0761 L2.9733,17.0307 C2.65616,16.5238 2.45959,15.8218 2.45959,15.046 C2.45959,13.5007 3.23895,12.2479 4.20005,12.2479 C4.35655,12.2479 4.55707,12.2289 4.78314,12.2038 C7.01749,8.68434 10.9494,6.34863 15.4268,6.34863 C19.902,6.34863 23.8322,8.68203 26.0671,12.1986 C26.3122,12.2262 26.5296,12.2479 26.6968,12.2479 C27.6579,12.2479 28.4372,13.5007 28.4372,15.046 C28.4372,15.8306 28.2362,16.5398 27.9127,17.0479 C28.2363,17.556 28.4372,18.2653 28.4372,19.0501 C28.4372,19.7877 28.2598,20.4586 27.9697,20.9585 C28.3692,21.5707 28.4574,22.5856 28.1353,23.6223 C27.8377,24.58 27.2631,25.3206 26.6457,25.6428 C26.6507,26.0496 26.5881,26.4905 26.4498,26.9354 C25.9916,28.41 24.8768,29.3702 23.9597,29.08 C23.9111,29.0647 23.8608,29.0393 23.8091,29.0048 C23.5764,29.2886 23.2863,29.5583 22.9476,29.794 C22.1214,30.369 21.2093,30.6001 20.5233,30.4718 Z" id="Path" fill-opacity="0.5" fill="url(#linearGradient-3)" fill-rule="nonzero"></path>
            <path d="M15.413,25.2607 L15.413,27.9142" id="Path" stroke="url(#linearGradient-4)" stroke-width="0.414659"></path>
            <path d="M12.5522,27.0298 C14.7588,28.1762 15.9264,28.2416 17.8591,27.0298" id="Path" stroke="#000000" stroke-width="0.433947" stroke-linecap="round" stroke-linejoin="round"></path>
            <path d="M15.399,22.0172 C17.8469,22.0699 18.3844,23.8323 18.7108,24.3363 C19.0371,24.8403 18.6364,26.5282 15.399,26.1584 C12.9102,26.0649 11.5504,25.5231 12.0153,24.4191 C12.0153,24.4191 12.9512,21.9645 15.399,22.0172 Z" id="Path" fill="#3D67A7" fill-rule="nonzero"></path>
            <path d="M17.9808,24.1964 C18.1362,24.519 16.9789,25.4441 16.5806,25.5759 C16.0133,25.7636 15.3689,25.9974 15.3377,25.9325 C15.3065,25.8677 15.9417,25.4141 16.4035,24.9795 C16.8653,24.545 17.8254,23.8738 17.9808,24.1964 Z" id="Path" fill="#160646" fill-rule="nonzero"></path>
            <path d="M12.8216,24.1964 C12.6662,24.519 13.8234,25.4441 14.2217,25.5759 C14.789,25.7636 15.4334,25.9974 15.4646,25.9325 C15.4959,25.8677 14.8606,25.4141 14.3988,24.9795 C13.937,24.545 12.977,23.8737 12.8216,24.1964 Z" id="Path" fill="#160646" fill-rule="nonzero"></path>
            <path d="M11.2993,17.4732 C11.6032,18.7169 10.8835,19.969 9.6917,20.27 C8.49988,20.5709 7.28737,19.8066 6.98345,18.563 C6.67954,17.3193 7.39931,16.0671 8.5911,15.7661 C9.7829,15.4652 10.9954,16.2295 11.2993,17.4732 Z" id="Path" fill-opacity="0.2" fill="#8C8C8C" fill-rule="nonzero"></path>
            <path d="M24.0109,17.4732 C24.3148,18.7169 23.595,19.969 22.4032,20.27 C21.2114,20.5709 19.9989,19.8066 19.695,18.5629 C19.3911,17.3193 20.1109,16.0671 21.3026,15.7661 C22.4944,15.4652 23.7069,16.2295 24.0109,17.4732 Z" id="Path" fill-opacity="0.2" fill="#8C8C8C" fill-rule="nonzero"></path>
            <path d="M19.6462,17.1701 C19.3412,18.4148 20.0593,19.667 21.2501,19.9669 C22.4409,20.2668 23.6534,19.5008 23.9583,18.2561 C24.2632,17.0114 23.5451,15.7592 22.3544,15.4593 C21.1636,15.1594 19.9511,15.9253 19.6462,17.1701 Z" id="Path" fill="#0D0D0D" fill-rule="nonzero"></path>
            <path d="M11.3303,17.1898 C11.6343,18.4335 10.9145,19.6857 9.7227,19.9866 C8.53091,20.2875 7.31839,19.5233 7.01448,18.2796 C6.71056,17.0359 7.43033,15.7837 8.62213,15.4828 C9.8139,15.1818 11.0264,15.9461 11.3303,17.1898 Z" id="Path" fill="#0D0D0D" fill-rule="nonzero"></path>
            <ellipse id="Oval" fill="#0D0D0D" fill-rule="nonzero" transform="translate(19.730979, 18.663696) rotate(-30.943279) translate(-19.730979, -18.663696) " cx="19.7309795" cy="18.6636956" rx="1" ry="1"></ellipse>
            <ellipse id="Oval" fill="#0D0D0D" fill-rule="nonzero" transform="translate(23.862078, 16.443196) rotate(-30.943339) translate(-23.862078, -16.443196) " cx="23.8620778" cy="16.4431957" rx="1" ry="1"></ellipse>
            <ellipse id="Oval" fill="#0D0D0D" fill-rule="nonzero" transform="translate(11.332220, 18.947097) scale(-1, 1) rotate(-30.943118) translate(-11.332220, -18.947097) " cx="11.3322203" cy="18.947097" rx="1" ry="1"></ellipse>
            <ellipse id="Oval" fill="#0D0D0D" fill-rule="nonzero" transform="translate(6.938857, 16.465198) scale(-1, 1) rotate(-30.943360) translate(-6.938857, -16.465198) " cx="6.93885704" cy="16.4651977" rx="1" ry="1"></ellipse>
            <path d="M3.06326,10.7668 C2.59863,9.63411 2.43974,8.31499 2.43974,7.07497 C2.43974,5.15681 3.06251,3.43024 4.00063,2.16499 C4.91798,0.927746 6.24863,0 7.70394,0 C8.28765,0 8.85136,0.145252 9.3117,0.529118 C9.7611,0.903776 9.9909,1.40565 10.1154,1.88071 C10.3394,2.73507 10.3052,3.87473 10.2718,4.9894 C10.2686,5.0937 10.2656,5.19758 10.2625,5.30276 C11.881,4.69014 13.6352,4.35503 15.466,4.35503 C17.5208,4.35503 19.4788,4.77711 21.2566,5.53963 C21.2515,5.35357 21.246,5.17149 21.2406,4.98941 C21.2072,3.87474 21.173,2.73507 21.397,1.88071 C21.5215,1.40565 21.7513,0.903775 22.2006,0.529118 C22.661,0.145252 23.2247,0 23.8084,0 C25.2637,0 26.5944,0.927746 27.5117,2.16499 C28.4499,3.43024 29.0726,5.15681 29.0726,7.07497 C29.0726,8.33879 28.9074,9.70691 28.4055,10.8706 C29.0624,11.0889 29.5697,11.5914 29.9061,12.1323 C30.3648,12.8698 30.6151,13.8242 30.6151,14.8241 C30.6151,15.6022 30.4634,16.3533 30.1796,16.9961 C30.4635,17.6391 30.6151,18.3905 30.6151,19.1688 C30.6151,19.9051 30.4796,20.6152 30.2262,21.2321 C30.5996,22.1747 30.5777,23.3522 30.2409,24.4361 C29.933,25.427 29.3705,26.3185 28.6452,26.8924 C28.6079,27.2672 28.5305,27.6502 28.4121,28.0311 C28.1155,28.9855 27.5936,29.8219 26.9358,30.3883 C26.3974,30.852 25.6703,31.2049 24.885,31.1315 C24.6803,31.3243 24.4566,31.5061 24.216,31.6736 C23.2712,32.3311 22.1537,32.6999 21.1461,32.6209 C19.3973,33.354 17.4777,33.7586 15.466,33.7586 C13.457,33.7586 11.5398,33.3551 9.7928,32.6238 C8.79687,32.6899 7.69699,32.3235 6.76304,31.6736 C6.52239,31.5061 6.29866,31.3243 6.09399,31.1315 C5.30873,31.2049 4.5816,30.852 4.04317,30.3883 C3.38544,29.8219 2.86348,28.9855 2.56691,28.0311 C2.44856,27.6502 2.37116,27.2672 2.33382,26.8924 C1.60852,26.3185 1.04601,25.427 0.73809,24.4361 C0.40129,23.3522 0.37943,22.1747 0.75286,21.2321 C0.49943,20.6152 0.36395,19.9051 0.36395,19.1688 C0.36395,18.3899 0.51565,17.6387 0.79944,16.9961 C0.51574,16.3536 0.36395,15.6025 0.36395,14.8241 C0.36395,13.8242 0.61419,12.8698 1.07287,12.1323 C1.48864,11.4638 2.16558,10.8539 3.06326,10.7668 Z M1.47205,19.1688 C1.47205,19.9691 1.54459,20.8381 2.22165,21.2321 C1.3959,21.5232 1.37381,23.0051 1.72333,24.1299 C2.04622,25.1691 2.56691,26.045 3.73697,26.1095 C3.73146,26.5509 3.18887,26.3755 3.55215,27.725 C3.97321,29.08 5.19625,30.6514 6.5661,29.7366 C6.5661,29.9865 6.38477,30.1534 7.35236,30.8268 C8.23548,31.4413 9.6129,31.6736 9.9917,31.3083 C11.0314,32.2675 13.503,32.7269 15.466,32.7269 C17.4343,32.7269 20.0911,32.1949 20.9777,31.2035 C21.3888,31.6736 22.7302,31.4506 23.6267,30.8268 C24.7249,30.0026 24.1346,29.8591 24.3872,29.5512 C24.4433,29.5887 24.4924,29.9785 24.7249,30.052 C25.72,30.3669 26.9297,29.325 27.4269,27.725 C27.5769,27.2422 27.7615,26.2752 27.176,25.8919 C27.8531,26.3352 28.9328,25.1691 29.2557,24.1299 C29.6052,23.0051 29.5834,21.6844 28.4121,21.2321 C29.4732,21.3459 29.5377,19.9691 29.5377,19.1688 C29.5377,18.3172 29.2233,16.9961 28.4818,16.9961 C29.3845,16.9961 29.5831,15.6754 29.5831,14.8241 C29.5831,13.2549 28.8428,11.9638 27.8932,11.8044 C27.828,11.7935 27.7618,11.7879 27.6948,11.7879 C27.5507,11.7879 27.3721,11.773 27.1713,11.7518 C27.1195,11.7464 27.0662,11.7405 27.0116,11.7343 C26.9572,11.6488 26.1685,10.8706 26.0718,10.5775 C26.1529,10.4805 27.0032,11.2802 27.075,11.173 C27.1683,11.0336 27.254,10.886 27.3323,10.7312 C27.8426,9.72246 28.0409,8.40936 28.0409,7.07497 C28.0409,3.67798 25.8306,1.03171 23.8084,1.03171 C22.1553,1.03171 22.2031,2.64207 22.2756,5.08571 C22.2918,5.63129 22.2595,5.43854 22.4447,6.67981 C22.564,7.19483 24.3952,8.65917 22.2268,7.17291 C21.9203,6.99818 21.6064,6.83496 21.2857,6.68384 C21.2829,6.6825 21.28,6.68115 21.2772,6.67981 C19.5136,5.85036 17.544,5.38674 15.466,5.38674 C13.614,5.38674 11.8481,5.75502 10.2374,6.42235 C9.9675,6.53416 9.7019,6.65437 9.4411,6.78265 C9.4037,6.80107 9.3663,6.81965 9.3291,6.8384 C9.2914,6.85732 9.2539,6.87642 9.2165,6.89568 L8.35546,7.45014 C8.27486,7.15997 9.3273,6.86955 9.2165,5.53963 C9.2221,5.31385 9.2304,5.29932 9.2367,5.08575 C9.3092,2.64211 9.357,1.03171 7.70394,1.03171 C5.68178,1.03171 3.47145,3.67798 3.47145,7.07497 C3.47145,8.42509 3.6081,9.59636 4.13192,10.6097 C4.18592,10.7142 6.00188,9.38459 4.44223,11.041 C4.28458,11.2596 4.29715,11.1699 3.91688,11.74 C3.67158,11.7673 3.454,11.7879 3.28419,11.7879 C2.24132,11.7879 1.3959,13.1472 1.3959,14.8241 C1.3959,15.6658 1.6655,16.7113 2.22165,17.0418 C1.57683,17.6866 1.47205,18.3356 1.47205,19.1688 Z" id="Shape" fill="#281342"></path>
            <circle id="Oval" fill="#D9D9D9" fill-rule="nonzero" cx="8.48462" cy="16.6853" r="1"></circle>
            <ellipse id="Oval" fill="#D9D9D9" fill-rule="nonzero" cx="9.6114" cy="16.2958" rx="1" ry="1"></ellipse>
            <circle id="Oval" fill="#D9D9D9" fill-rule="nonzero" cx="21.1448" cy="16.6853" r="1"></circle>
            <ellipse id="Oval" fill="#D9D9D9" fill-rule="nonzero" cx="22.2716" cy="16.2958" rx="1" ry="1"></ellipse>
        </g>
    </g>
</svg>