<svg clip-rule="evenodd" stroke-linecap="round" stroke-linejoin="round" stroke-miterlimit="10" viewBox="0 0 38 38" xmlns="http://www.w3.org/2000/svg" xmlns:xlink="http://www.w3.org/1999/xlink"><linearGradient id="a"><stop offset="0" stop-color="#306aff"/><stop offset="1" stop-color="#8cfaf5"/><stop offset="1" stop-color="#89dcd8"/></linearGradient><linearGradient id="b" gradientUnits="userSpaceOnUse" x1="10.32767" x2="10.32767" xlink:href="#a" y1="3.98593" y2="13.5851"/><linearGradient id="c" gradientUnits="userSpaceOnUse" x1="28.20018" x2="28.20018" xlink:href="#a" y1="3.98569" y2="13.5849"/><linearGradient id="d" gradientUnits="userSpaceOnUse" x1="8.47866" x2="25.76768" y1="4.77101" y2="30.4779"><stop offset="0" stop-color="#affffa"/><stop offset="1" stop-color="#d9d9d9" stop-opacity="0"/></linearGradient><g><path d="m32.1948 14.5256c.4715-1.093.6267-2.378.6267-3.565 0-1.80164-.585-3.42332-1.4661-4.6117-.8616-1.16207-2.1114-2.03346-3.4783-2.03346-.5483 0-1.0777.13643-1.5101.49697-.4221.3519-.6379.82329-.7549 1.26948-.2104.80246-.1783 1.87289-.1469 2.91983.0012.03978.0024.07951.0036.1192.0039.13098.0078.26349.0115.39761-1.6698-.7162-3.5089-1.11264-5.4388-1.11264-1.7196 0-3.3673.31475-4.8874.89015.0017-.05865.0034-.11699.0052-.17503.0011-.03969.0023-.07943.0035-.1192-.9588-2.31647-.9267-3.3869-1.137-4.18937-.117-.44619-.3328-.91758-.7549-1.26948-.4324-.36055-.9619-.49698-1.5101-.49698-1.3669 0-1.6265 2.14091-2.48816 3.30298-.88112 1.18838-1.46605 2.81006-1.46605 4.61164 0 1.1647.14923 2.4037.58561 3.4675-.84313.0818-1.47893.6546-1.86944 1.2825-.43081.6928-.66562 1.5891-.66562 2.5283 0 .7312.14233 1.4366.40879 2.0401-.26654.6035-.40902 1.309-.40902 2.0407 0 .6916.12724 1.3585.36527 1.9379-.35073.8854-.3302 1.9913-.01386 3.0093.28921.9308.81754 1.7681 1.49879 2.3071.03506.3521.10776.7118.21892 1.0695.27856.8965.7688 1.682 1.38657 2.2141.50572.4355 1.1887.7669 1.9262.698.1923.1811.4024.3519.6284.5092.8773.6104 1.9103.9546 2.8458.8924 1.6408.6869 3.4416 1.0659 5.3285 1.0659 1.8894 0 3.6924-.38 5.335-1.0686.9464.0742 1.9959-.2722 2.8834-.8897.226-.1573.4361-.3281.6284-.5092.7375.0689 1.4205-.2625 1.9262-.698.6178-.5321 1.108-1.3176 1.3866-2.2141.1111-.3577.1838-.7174.2189-1.0695.6812-.539 1.2096-1.3763 1.4988-2.3071.3163-1.018.3368-2.1239-.0139-3.0093.238-.5794.3653-1.2463.3653-1.9379 0-.7311-.1423-1.4368-.409-2.0407.2665-.6038.4088-1.3093.4088-2.0401 0-.9392-.2349-1.8355-.6657-2.5283-.3159-.508-.7925-.9799-1.4095-1.185z" fill="#281342" fill-opacity=".5" fill-rule="evenodd"/><path d="m6.83735 9.0519c0 3.397 1.28522 6.656 5.73165 5.1076 2.2972-1.6261.7726-2.0107 0-5.34417 0-3.39699.523-5.80669-1.4992-5.80669-2.02211 0-4.23245 2.64627-4.23245 6.04326z" fill="#1f4492"/><path d="m8.41439 9.55942c0 1.73128 3.38161 4.41768 3.60661 3.97778.2249-.44-.4596-1.0626 0-3.8128.4596-2.75017.2062-5.68333-.829-5.73832-.4321-.02296-2.57724 2.7685-2.77761 5.57334z" fill="#425b8c"/><path d="m8.4144 9.55942c0 1.73128 3.3816 4.41768 3.6066 3.97778.2249-.44-.4596-1.0626 0-3.8128.4596-2.75017.2062-5.68333-.829-5.73832-.4321-.02296-2.57724 2.7685-2.7776 5.57334z" fill="url(#b)"/><path d="m31.4068 9.0519c0 3.397-1.2852 6.656-5.7317 5.1076-2.2971-1.6261-.7726-2.0107 0-5.34417 0-3.39699-.5229-5.80669 1.4992-5.80669 2.0222 0 4.2325 2.64627 4.2325 6.04326z" fill="#1f4492"/><path d="m30.1135 9.55917c0 1.73133-3.3816 4.41773-3.6066 3.97773-.225-.4399.4596-1.0626 0-3.81275-.4596-2.75016-.2062-5.68333.829-5.73832.4321-.02295 2.5772 2.76851 2.7776 5.57334z" fill="#425b8c"/><path d="m30.1135 9.55917c0 1.73133-3.3816 4.41773-3.6066 3.97773-.225-.4399.4596-1.0626 0-3.81274-.4596-2.75017-.2062-5.68334.829-5.73833.4321-.02295 2.5772 2.76851 2.7776 5.57334z" fill="url(#c)"/><g fill="#1f4492"><path d="m5.16177 21.0337c0-7.5498 6.12033-13.6701 13.67013-13.6701s13.6701 6.1203 13.6701 13.6701-6.1203 13.6701-13.6701 13.6701-13.67013-6.1203-13.67013-13.6701z"/><path d="m10.5377 14.6647c0 1.6768-2.84479 5.1726-3.88766 5.1726s-1.88829-1.3594-1.88829-3.0363c0-1.6768.84542-3.0362 1.88829-3.0362s3.88766-.777 3.88766.8999z"/><path d="m10.5374 19.0094c0 1.6768-2.84473 5.1726-3.8876 5.1726-1.04288 0-1.88829-1.3594-1.88829-3.0362 0-1.6769.84541-3.0362 1.88829-3.0362 1.04287 0 3.8876-.7771 3.8876.8998z"/><path d="m9.96713 22.3246c.49717 1.6-1.18084 5.7945-2.17595 6.1093-.9951.3149-2.20483-.727-2.70201-2.327-.49717-1.6001-.09352-3.1524.90159-3.4672.9951-.3149 3.47919-1.9151 3.97637-.3151z"/><path d="m11.7959 25.9196c.4971 1.6-1.1809 5.7945-2.17598 6.1093-.9951.3148-2.20484-.727-2.70201-2.3271-.49717-1.6-.09352-3.1523.90158-3.4672.9951-.3148 3.47921-1.9151 3.97641-.315z"/><path d="m12.2435 26.8226c1.3753.957 2.6281 5.2975 2.0364 6.1572-.5918.8598-2.1864.7809-3.5617-.1762-1.37522-.957-2.01037-2.4298-1.41861-3.2896.59176-.8597 1.56871-3.6485 2.94391-2.6914z"/><path d="m27.1731 14.6647c0 1.6768 2.8448 5.1726 3.8876 5.1726 1.0429 0 1.8883-1.3594 1.8883-3.0363 0-1.6768-.8454-3.0362-1.8883-3.0362-1.0428 0-3.8876-.777-3.8876.8999z"/><path d="m27.1734 19.0094c0 1.6768 2.8448 5.1726 3.8876 5.1726 1.0429 0 1.8883-1.3594 1.8883-3.0362 0-1.6769-.8454-3.0362-1.8883-3.0362-1.0428 0-3.8876-.7771-3.8876.8998z"/><path d="m27.7437 22.3246c-.4972 1.6 1.1808 5.7945 2.1759 6.1093.9951.3149 2.2048-.727 2.702-2.327.4972-1.6001.0935-3.1524-.9016-3.4672-.9951-.3149-3.4792-1.9151-3.9763-.3151z"/><path d="m25.915 25.9196c-.4972 1.6 1.1808 5.7945 2.1759 6.1093s2.2049-.727 2.702-2.3271c.4972-1.6.0936-3.1523-.9015-3.4672-.9951-.3148-3.4792-1.9151-3.9764-.315z"/><path d="m25.4674 26.8226c-1.3753.957-2.6281 5.2975-2.0363 6.1572.5917.8598 2.1863.7809 3.5616-.1762 1.3752-.957 2.0104-2.4298 1.4186-3.2896-.5917-.8597-1.5687-3.6485-2.9439-2.6914z"/></g><path d="m27.4768 21.5007c.735-.9732 1.152-2.0861 1.152-3.2682 0-3.8197-4.3532-6.9162-9.7232-6.9162s-9.72325 3.0965-9.72325 6.9162c0 1.1953.42632 2.3198 1.17665 3.3008-.91501 1.2378-.91501 2.8625-.91501 4.6418 0 3.8797 4.24711 6.4239 9.48611 6.4239 5.2391 0 9.4861-2.5442 9.4861-6.4239 0-1.7949 0-3.4326-.9394-4.6744z" fill="#95d4ee" fill-rule="evenodd"/><path d="m23.8892 32.4487c-1.5582.6901-3.2826 1.0734-5.0965 1.0734-1.8091 0-3.5291-.3813-5.0841-1.0679-.6823.1158-1.5796-.1169-2.3935-.6833-.3387-.2357-.6288-.5054-.8615-.7892-.0517.0345-.102.0599-.1506.0752-.91703.2902-2.03192-.67-2.49011-2.1446-.13825-.4449-.20092-.8858-.19584-1.2926-.61746-.3222-1.19202-1.0628-1.48959-2.0205-.32212-1.0367-.23393-2.0516.16553-2.6638-.29004-.4999-.46752-1.1708-.46752-1.9084 0-.7704.19362-1.468.50687-1.974l.00684-.0454c-.31714-.5069-.51348-1.2089-.51348-1.9847 0-1.5453.77913-2.7981 1.74023-2.7981.1565 0 .35702-.019.58309-.0441 2.23438-3.5195 6.16628-5.85517 10.64368-5.85517 4.4752 0 8.4054 2.33337 10.6403 5.84997.2451.0276.4625.0493.6297.0493.9611 0 1.7402 1.2528 1.7402 2.7981 0 .7846-.2008 1.4938-.5243 2.0019.3236.5081.5245 1.2174.5245 2.0022 0 .7376-.1774 1.4085-.4675 1.9084.3995.6122.4877 1.6271.1656 2.6638-.2976.9577-.8722 1.6983-1.4896 2.0205.005.4068-.0576.8477-.1959 1.2926-.4582 1.4746-1.573 2.4348-2.4901 2.1446-.0486-.0153-.0989-.0407-.1506-.0752-.2327.2838-.5228.5535-.8615.7892-.8262.575-1.7383.8061-2.4243.6778z" fill="url(#d)"/><path d="m15.9181 29.0067c2.2066 1.1464 3.3742 1.2118 5.3069 0" fill="none" stroke="#000" stroke-linecap="round" stroke-linejoin="round" stroke-width=".433947"/><path d="m18.7649 23.9941c2.4479.0527 2.9854 1.8151 3.3118 2.3191.3263.504-.0744 2.1919-3.3118 1.8221-2.4888-.0935-3.8486-.6353-3.3837-1.7393 0 0 .9359-2.4546 3.3837-2.4019z" fill="#3d67a7"/><path d="m21.3467 26.1733c.1554.3226-1.0019 1.2477-1.4002 1.3795-.5673.1877-1.2117.4215-1.2429.3566-.0312-.0648.604-.5184 1.0658-.953.4618-.4345 1.4219-1.1057 1.5773-.7831z" fill="#160646"/><path d="m16.1875 26.1733c-.1554.3226 1.0018 1.2477 1.4001 1.3795.5673.1877 1.2117.4215 1.2429.3566.0313-.0648-.604-.5184-1.0658-.953-.4618-.4345-1.4218-1.1058-1.5772-.7831z" fill="#160646"/><path d="m14.6652 19.4501c.3039 1.2437-.4158 2.4958-1.6076 2.7968-1.1918.3009-2.4044-.4634-2.7083-1.707-.3039-1.2437.4159-2.4959 1.6077-2.7969 1.1918-.3009 2.4043.4634 2.7082 1.7071z" fill="#8c8c8c" fill-opacity=".2"/><path d="m27.3768 19.4501c.3039 1.2437-.4159 2.4958-1.6077 2.7968-1.1918.3009-2.4043-.4634-2.7082-1.7071-.3039-1.2436.4159-2.4958 1.6076-2.7968 1.1918-.3009 2.4043.4634 2.7083 1.7071z" fill="#8c8c8c" fill-opacity=".2"/><path d="m23.0121 19.1472c-.305 1.2447.4131 2.4969 1.6039 2.7968s2.4033-.466 2.7082-1.7107c.3049-1.2448-.4132-2.4969-1.6039-2.7968-1.1908-.2999-2.4033.466-2.7082 1.7107z" fill="#0d0d0d"/><path d="m14.6963 19.1667c.3039 1.2437-.4158 2.4959-1.6076 2.7968-1.1919.3009-2.4044-.4633-2.7083-1.707s.4159-2.4959 1.6077-2.7968c1.1918-.301 2.4043.4633 2.7082 1.707z" fill="#0d0d0d"/><path d="m23.7836 18.5736c.0921-.3758.4695-.6041.8431-.51.3735.094.6017.4749.5097.8507-.0921.3757-.4695.6041-.8431.51s-.6018-.475-.5097-.8507z" fill="#dadada"/><path d="m25.3872 18.2527c.023-.0939.1174-.151.2108-.1275s.1504.1187.1274.2127c-.023.0939-.1174.151-.2108.1275s-.1504-.1188-.1274-.2127z" fill="#dadada"/><path d="m11.1471 18.8322c-.0921-.3757.1361-.7566.5097-.8507.3735-.094.751.1343.843.51.0921.3758-.1361.7567-.5097.8507-.3735.0941-.751-.1342-.843-.51z" fill="#dadada"/><path d="m12.8083 18.315c-.023-.0939.0341-.1892.1275-.2127s.1877.0336.2107.1275-.034.1892-.1274.2127-.1877-.0336-.2108-.1275z" fill="#dadada"/><path d="m22.6498 20.9119c-.0774-.1296.0601-.3562.3071-.5062.2469-.15.5097-.1666.5871-.037.0773.1296-.0602.3562-.3072.5062-.2469.15-.5097.1666-.587.037z" fill="#0d0d0d"/><path d="m26.7809 18.6917c-.0774-.1296.0601-.3562.3071-.5062.2469-.15.5097-.1666.5871-.037.0773.1296-.0602.3562-.3072.5062-.2469.15-.5097.1666-.587.037z" fill="#0d0d0d"/><path d="m15.1452 21.1956c.0773-.1296-.0602-.3562-.3071-.5062-.247-.15-.5098-.1666-.5871-.037s.0602.3562.3071.5062.5098.1666.5871.037z" fill="#0d0d0d"/><path d="m10.7518 18.7137c.0773-.1296-.0602-.3562-.3071-.5062s-.50976-.1666-.58707-.037.06019.3562.30717.5062c.2469.15.5097.1666.587.037z" fill="#0d0d0d"/><path d="m9.24546 23.739c0-.3393 1.24614-.6144 2.78334-.6144s2.7833.2751 2.7833.6144-1.2461.6144-2.7833.6144-2.78334-.2751-2.78334-.6144z" fill="#ff7be2" fill-opacity=".3"/><path d="m22.8165 23.739c0-.3393 1.2462-.6144 2.7834-.6144s2.7833.2751 2.7833.6144-1.2461.6144-2.7833.6144-2.7834-.2751-2.7834-.6144z" fill="#ff7be2" fill-opacity=".3"/><path d="m6.42914 12.7437c-.46463-1.1327-.62352-2.4518-.62352-3.69183 0-1.91816.62277-3.64473 1.56089-4.90998.91735-1.23724 2.248-2.16499 3.70329-2.16499.5837 0 1.1474.14525 1.6078.52912.4494.37466.6792.87653.8037 1.35159.224.85436.1898 1.99402.1564 3.10869-.0032.1043-.0062.20818-.0093.31336 1.6185-.61262 3.3727-.94773 5.2035-.94773 2.0548 0 4.0128.42208 5.7906 1.1846-.0051-.18606-.0106-.36814-.016-.55022-.0334-1.11467-.0676-2.25434.1564-3.1087.1245-.47506.3543-.97694.8036-1.35159.4604-.38387 1.0241-.52912 1.6078-.52912 1.4553 0 2.786.92775 3.7033 2.16499.9382 1.26525 1.5609 2.99182 1.5609 4.90998 0 1.26383-.1652 2.63193-.6671 3.79563.6569.2183 1.1642.7208 1.5006 1.2617.4587.7375.7087 1.6919.7087 2.6918 0 .7781-.1514 1.5292-.4352 2.172.2839.643.4355 1.3944.4355 2.1727 0 .7363-.1355 1.4464-.3889 2.0633.3734.9426.3515 2.1201.0147 3.204-.3079.9909-.8704 1.8824-1.5957 2.4563-.0373.3748-.1147.7578-.2331 1.1387-.2966.9544-.8185 1.7908-1.4763 2.3572-.5384.4637-1.2655.8166-2.0508.7432-.2047.1928-.4284.3746-.669.5421-.9448.6575-2.0623 1.0263-3.0699.9473-1.7488.7331-3.6684 1.1377-5.6801 1.1377-2.009 0-3.9262-.4035-5.6732-1.1348-.996.0661-2.0958-.3003-3.0298-.9502-.24063-.1675-.46436-.3493-.66903-.5421-.78526.0734-1.51239-.2795-2.05082-.7432-.65773-.5664-1.17969-1.4028-1.47626-2.3572-.11835-.3809-.19575-.7639-.23309-1.1387-.7253-.5739-1.28781-1.4654-1.59573-2.4563-.3368-1.0839-.35866-2.2614.01477-3.204-.25343-.6169-.38891-1.327-.38891-2.0633 0-.7789.1517-1.5301.43549-2.1727-.2837-.6425-.43524-1.3936-.43524-2.172 0-.9999.24999-1.9543.70867-2.6918.41577-.6685 1.09271-1.2784 1.99039-1.3655zm-1.59121 8.402c0 .8003.07254 1.6693.7496 2.0633-.82599.2911-.84784 1.773-.49832 2.8978.32289 1.0392.84358 1.9151 2.01364 1.9796-.00551.4414-.5481.266-.18482 1.6155.42106 1.355 1.6441 2.9264 3.01395 2.0116 0 .2499-.18133.4168.78622 1.0902.8832.6145 2.2606.8468 2.6394.4815 1.0397.9592 3.5113 1.4186 5.4743 1.4186 1.9683 0 4.6251-.532 5.5117-1.5234.4111.4701 1.7525.2471 2.649-.3767 1.0982-.8242.5079-.9677.7605-1.2756.0561.0375.1052.4273.3377.5008.9951.3149 2.2048-.727 2.702-2.327.15-.4828.3346-1.4498-.2509-1.8331.6771.4433 1.7568-.7228 2.0797-1.762.3495-1.1248.3277-2.4455-.8436-2.8978 1.0611.1138 1.1256-1.263 1.1256-2.0633 0-.8516-.3144-2.1727-1.0559-2.1727.9027 0 1.1013-1.3207 1.1013-2.172 0-1.5692-.7403-2.8603-1.6899-3.0197-.0652-.0109-.1314-.0165-.1984-.0165-.1441 0-.3227-.0149-.5235-.0361-.0518-.0054-.1051-.0113-.1597-.0175-.0544-.0855-.8431-.8637-.9398-1.1568.0811-.097.9314.7027 1.0032.5955.0933-.1394.179-.287.2573-.4418.5103-1.0087.7086-2.3218.7086-3.65623 0-3.39699-2.2103-6.04326-4.2325-6.04326-1.6531 0-1.6053 1.61036-1.5328 4.054.0162.54558-.0161.35283.1691 1.5941.1193.51502 1.9505 1.97939-.2179.4931-.3065-.17473-.6204-.33795-.9411-.48907-.0028-.00134-.0057-.00269-.0085-.00403-1.7636-.82945-3.7332-1.29307-5.8112-1.29307-1.852 0-3.6179.36828-5.2286 1.03561-.2699.11181-.5355.23202-.7963.3603-.0374.01842-.0748.037-.112.05575-.0377.01892-.0752.03802-.1126.05728l-.8611.55446c-.0806-.29017.9719-.58059.8611-1.91051.0056-.22578.0139-.24031.0202-.45388.0725-2.44364.1203-4.05404-1.5328-4.05404-2.02214 0-4.23247 2.64627-4.23247 6.04326 0 1.35013.13665 2.52143.66047 3.53473.054.1045 1.86996-1.2251.31031.4313-.15765.2186-.14508.1289-.52535.699-.2453.0273-.46288.0479-.63269.0479-1.04287 0-1.88829 1.3593-1.88829 3.0362 0 .8417.2696 1.8872.82575 2.2177-.64482.6448-.7496 1.2938-.7496 2.127z" fill="#281342" fill-rule="evenodd"/></g></svg>