<?xml version="1.0" encoding="UTF-8"?>
<svg width="38px" height="38px" viewBox="0 0 38 38" version="1.1" xmlns="http://www.w3.org/2000/svg" xmlns:xlink="http://www.w3.org/1999/xlink">
    <!-- Generator: Sketch 56.3 (81716) - https://sketch.com -->
    <title>brown</title>
    <desc>Created with Sketch.</desc>
    <defs>
        <linearGradient x1="65.3728127%" y1="17.4597984%" x2="32.1340909%" y2="74.8999818%" id="linearGradient-1">
            <stop stop-color="#FFCDA9" offset="0%"></stop>
            <stop stop-color="#853D27" offset="100%"></stop>
        </linearGradient>
        <linearGradient x1="34.6273914%" y1="17.4598836%" x2="67.8668535%" y2="74.8999166%" id="linearGradient-2">
            <stop stop-color="#FFCDA9" offset="0%"></stop>
            <stop stop-color="#853D27" offset="100%"></stop>
        </linearGradient>
        <path d="M0.86487,7.7207 C0.86487,3.7408 4.09125,0.5144 8.0712,0.5144 L16.0496,0.5144 C20.0295,0.5144 23.2559,3.7408 23.2559,7.7207 L23.2559,16.2903 C23.2559,19.1331 20.9514,21.4377 18.1086,21.4377 L6.0122,21.4377 C3.16943,21.4377 0.86487,19.1331 0.86487,16.2903 L0.86487,7.7207 Z" id="path-3"></path>
        <linearGradient x1="49.9999178%" y1="0%" x2="49.9999178%" y2="87.0885375%" id="linearGradient-5">
            <stop stop-color="#FBBAAC" offset="0%"></stop>
            <stop stop-color="#EC8F7B" offset="100%"></stop>
        </linearGradient>
    </defs>
    <g id="brown" stroke="none" stroke-width="1" fill="none" fill-rule="evenodd">
        <g id="Cow" transform="translate(2.000000, 5.000000)">
            <path d="M11.4096,3.5838 C11.2125,4.13227 11.0597,4.82684 10.9911,5.52564 C10.762,5.26728 10.4806,5.05204 10.1525,4.8977 C8.77158,4.24818 4.90527,3.89692 4.20812,5.37905 C3.52782,6.8254 6.11677,9.4831 7.52547,10.2142 C7.25032,10.9775 7.10036,11.8005 7.10036,12.6585 L7.10036,21.2281 C7.10036,22.9888 7.98435,24.543 9.3327,25.4711 C9.7151,26.8457 10.8073,27.9335 12.2702,28.1889 C13.8638,28.4671 15.9147,28.7388 18.0301,28.787 C20.2913,28.8386 22.6131,28.5328 24.3829,28.2104 C25.8483,27.9434 26.931,26.8353 27.2934,25.4472 C28.6224,24.5165 29.4914,22.9738 29.4914,21.2281 L29.4914,12.6585 C29.4914,11.9003 29.3743,11.1695 29.1572,10.4831 C29.4013,10.4464 29.6429,10.3745 29.8759,10.265 C31.2568,9.6154 33.9928,6.8612 33.2956,5.37905 C32.5985,3.89692 28.7322,4.24818 27.3513,4.8977 C26.7219,5.19375 26.2642,5.71387 26.0185,6.3326 C26.0223,5.38781 25.8341,4.34507 25.5605,3.5838 C24.5328,3.25152 23.002,4.15146 22.2968,5.45221 L14.6733,5.4522 C13.9681,4.15146 12.4373,3.25152 11.4096,3.5838 Z" id="Path" fill-opacity="0.5" fill="#281342" fill-rule="nonzero"></path>
            <path d="M9.155,6.8195 C8.45785,8.3017 6.77327,8.9766 5.39239,8.3271 C4.0115,7.6776 1.27549,4.92333 1.97263,3.4412 C2.66978,1.95907 6.53609,2.31033 7.91697,2.95985 C9.2979,3.60937 9.8521,5.33742 9.155,6.8195 Z" id="Path" fill="#593310" fill-rule="nonzero"></path>
            <path d="M8.69699,6.5493 C8.11144,7.7942 6.69653,8.3611 5.5367,7.8156 C4.37687,7.27 2.07884,4.95667 2.66439,3.7118 C3.24993,2.46693 6.49732,2.76196 7.65715,3.3075 C8.81698,3.85305 9.2825,5.30447 8.69699,6.5493 Z" id="Path" fill-opacity="0.8" fill="url(#linearGradient-1)" fill-rule="nonzero"></path>
            <path d="M23.8777,6.8195 C24.5749,8.3017 26.2594,8.9766 27.6403,8.3271 C29.0212,7.6776 31.7572,4.92333 31.0601,3.4412 C30.3629,1.95907 26.4966,2.31033 25.1157,2.95985 C23.7349,3.60937 23.1806,5.33742 23.8777,6.8195 Z" id="Path" fill="#E8E5DE" fill-rule="nonzero"></path>
            <path d="M24.3357,6.5493 C24.9213,7.7942 26.3362,8.3611 27.496,7.8156 C28.6558,7.27 30.9539,4.95667 30.3683,3.7118 C29.7828,2.46693 26.5354,2.76196 25.3756,3.3075 C24.2157,3.85305 23.7502,5.30447 24.3357,6.5493 Z" id="Path" fill-opacity="0.8" fill="url(#linearGradient-2)" fill-rule="nonzero"></path>
            <path d="M9.1741,1.64596 C8.67567,3.03311 8.4605,5.35477 9.1741,6.3157 C10.0856,6.8801 12.2081,7.7269 12.7464,5.53015 C13.2846,3.33336 10.6854,1.15734 9.1741,1.64596 Z" id="Path" fill="#FFBF85" fill-rule="nonzero"></path>
            <path d="M23.325,1.64596 C23.8234,3.03311 24.0386,5.35477 23.325,6.3157 C22.4135,6.8801 20.291,7.7269 19.7527,5.53015 C19.2145,3.33336 21.8136,1.15734 23.325,1.64596 Z" id="Path" fill="#FFBF85" fill-rule="nonzero"></path>
            <path d="M4.86487,10.7207 C4.86487,6.7408 8.09125,3.5144 12.0712,3.5144 L20.0496,3.5144 C24.0295,3.5144 27.2559,6.7408 27.2559,10.7207 L27.2559,19.2903 C27.2559,22.1331 24.9514,24.4377 22.1086,24.4377 L10.0122,24.4377 C7.16943,24.4377 4.86487,22.1331 4.86487,19.2903 L4.86487,10.7207 Z" id="Path" fill="#A27400" fill-rule="nonzero"></path>
            <g id="Clipped" transform="translate(4.000000, 3.000000)">
                <mask id="mask-4" fill="white">
                    <use xlink:href="#path-3"></use>
                </mask>
                <g id="Path"></g>
                <g id="Group" mask="url(#mask-4)" fill="#FFE6CF" fill-rule="nonzero">
                    <g transform="translate(-6.000000, -5.000000)" id="Path">
                        <path d="M12.8097,18.4002 C21.2043,14.6259 16.4076,5.40699 14.2601,2.97754 L9.90009,0.11426 C8.22984,1.56759 4.47286,5.2942 2.80695,8.574 C0.724565,12.6737 -0.27031,13.1292 4.28491,13.7799 C8.84014,14.4307 7.07835,20.9771 12.8097,18.4002 Z"></path>
                        <path d="M5.86546,16.7083 C6.43812,14.4697 3.58785,14.127 2.09113,14.2355 L0.9848633,24.9077 C2.28636,25.6018 5.08457,26.886 5.86546,26.4695 C6.84158,25.9489 8.44969,24.7125 7.99417,22.4999 C7.53865,20.2874 5.14964,19.5065 5.86546,16.7083 Z"></path>
                    </g>
                </g>
            </g>
            <path d="M6.94873,22.5252 C6.94873,20.2703 8.77665,18.4424 11.0315,18.4424 L21.0879,18.4424 C23.3533,18.4424 25.1897,20.2788 25.1897,22.5442 C25.1897,24.4367 23.8944,26.0831 22.0242,26.372 C20.2707,26.6429 18.0037,26.8937 15.7946,26.8503 C13.7246,26.8096 11.7164,26.5842 10.138,26.3497 C8.25928,26.0706 6.94873,24.4245 6.94873,22.5252 Z" id="Path" fill="url(#linearGradient-5)" fill-rule="nonzero"></path>
            <path d="M13.3866,24.0183 C15.6174,25.2546 16.7979,25.3251 18.7519,24.0183" id="Path" stroke="#C56E6E" stroke-width="0.475653" stroke-linecap="round" stroke-linejoin="round"></path>
            <circle id="Oval" fill="#C56E6E" fill-rule="nonzero" cx="13.6317" cy="20.9268" r="1"></circle>
            <circle id="Oval" fill="#C56E6E" fill-rule="nonzero" cx="13.6317" cy="20.9268" r="1"></circle>
            <circle id="Oval" fill="#C56E6E" fill-rule="nonzero" cx="13.6317" cy="20.9268" r="1"></circle>
            <circle id="Oval" fill="#C56E6E" fill-rule="nonzero" cx="18.5067" cy="20.9268" r="1"></circle>
            <circle id="Oval" fill="#C56E6E" fill-rule="nonzero" cx="18.5067" cy="20.9268" r="1"></circle>
            <circle id="Oval" fill="#C56E6E" fill-rule="nonzero" cx="18.5067" cy="20.9268" r="1"></circle>
            <ellipse id="Oval" fill="#0D0D0D" fill-rule="nonzero" transform="translate(7.223467, 11.607035) scale(-1, 1) rotate(-30.943420) translate(-7.223467, -11.607035) " cx="7.22346737" cy="11.6070348" rx="1" ry="1"></ellipse>
            <ellipse id="Oval" fill="#0D0D0D" fill-rule="nonzero" transform="translate(7.583437, 10.824823) scale(-1, 1) rotate(-34.805624) translate(-7.583437, -10.824823) " cx="7.58343661" cy="10.8248234" rx="1" ry="1"></ellipse>
            <path d="M12.3338,12.7885 C12.69,14.246 11.8465,15.7135 10.4497,16.0662 C9.053,16.4189 7.63201,15.5232 7.27583,14.0656 C6.91966,12.6081 7.76319,11.1406 9.1599,10.7879 C10.5566,10.4353 11.9777,11.3309 12.3338,12.7885 Z" id="Path" fill-opacity="0.2" fill="#FFBE16" fill-rule="nonzero"></path>
            <path d="M12.3703,12.4562 C12.7264,13.9137 11.8829,15.3812 10.4862,15.7339 C9.0895,16.0866 7.66844,15.1909 7.31227,13.7334 C6.9561,12.2758 7.79963,10.8083 9.1964,10.4557 C10.5931,10.103 12.0141,10.9987 12.3703,12.4562 Z" id="Path" fill="#525787" fill-rule="nonzero"></path>
            <ellipse id="Oval" fill="#2E2948" fill-rule="nonzero" cx="9.7899" cy="13.0949" rx="1.87838" ry="1.87837"></ellipse>
            <ellipse id="Oval" fill="#FFFFFF" fill-rule="nonzero" transform="translate(9.003106, 11.864988) rotate(-13.787104) translate(-9.003106, -11.864988) " cx="9.0031062" cy="11.864988" rx="1" ry="1"></ellipse>
            <ellipse id="Oval" fill="#FFFFFF" fill-rule="nonzero" transform="translate(10.355906, 11.408224) rotate(-13.786946) translate(-10.355906, -11.408224) " cx="10.3559061" cy="11.4082242" rx="1" ry="1"></ellipse>
            <ellipse id="Oval" fill="#525787" fill-rule="nonzero" transform="translate(12.372371, 14.515735) scale(-1, 1) rotate(-30.943165) translate(-12.372371, -14.515735) " cx="12.372371" cy="14.5157349" rx="1" ry="1"></ellipse>
            <ellipse id="Oval" fill="#0D0D0D" fill-rule="nonzero" transform="translate(24.897333, 11.607035) rotate(-30.943420) translate(-24.897333, -11.607035) " cx="24.8973326" cy="11.6070348" rx="1" ry="1"></ellipse>
            <ellipse id="Oval" fill="#0D0D0D" fill-rule="nonzero" transform="translate(24.537393, 10.824823) rotate(-34.805624) translate(-24.537393, -10.824823) " cx="24.5373934" cy="10.8248234" rx="1" ry="1"></ellipse>
            <path d="M19.787,12.7885 C19.4308,14.246 20.2743,15.7135 21.671,16.0662 C23.0678,16.4189 24.4888,15.5232 24.845,14.0656 C25.2011,12.6081 24.3576,11.1406 22.9609,10.7879 C21.5641,10.4353 20.1431,11.3309 19.787,12.7885 Z" id="Path" fill="#FFEBB7" fill-rule="nonzero"></path>
            <path d="M19.7505,12.4562 C19.3943,13.9137 20.2379,15.3812 21.6346,15.7339 C23.0313,16.0866 24.4523,15.1909 24.8085,13.7334 C25.1647,12.2758 24.3212,10.8083 22.9244,10.4557 C21.5277,10.103 20.1067,10.9987 19.7505,12.4562 Z" id="Path" fill="#525787" fill-rule="nonzero"></path>
            <ellipse id="Oval" fill="#2E2948" fill-rule="nonzero" transform="translate(22.330920, 13.094970) scale(-1, 1) translate(-22.330920, -13.094970) " cx="22.33092" cy="13.09497" rx="1.87838" ry="1.87837"></ellipse>
            <ellipse id="Oval" fill="#FFFFFF" fill-rule="nonzero" transform="translate(21.465326, 11.755688) rotate(-13.787104) translate(-21.465326, -11.755688) " cx="21.4653262" cy="11.755688" rx="1" ry="1"></ellipse>
            <ellipse id="Oval" fill="#FFFFFF" fill-rule="nonzero" transform="translate(22.818206, 11.298824) rotate(-13.786946) translate(-22.818206, -11.298824) " cx="22.8182061" cy="11.2988242" rx="1" ry="1"></ellipse>
            <ellipse id="Oval" fill="#525787" fill-rule="nonzero" transform="translate(19.748429, 14.515735) rotate(-30.943165) translate(-19.748429, -14.515735) " cx="19.748429" cy="14.5157349" rx="1" ry="1"></ellipse>
            <path d="M23.3251,1.65711 C23.4483,2.00013 23.5542,2.4003 23.6331,2.82291 C23.6686,3.01342 23.8231,3.67156 23.5562,3.96193 C23.5094,4.09058 22.5641,3.84839 22.5641,3.96193 C22.5016,3.96193 23.1171,4.19214 23.6327,4.44214 C23.8455,4.5453 24.2505,4.93433 24.5719,5.1062 C24.0573,4.75281 23.9827,4.05287 24.0395,3.96193 C24.2228,3.66848 24.4521,3.39402 24.706,3.21169 C24.833,3.12045 24.9698,3.0397 25.1158,2.97102 C26.4967,2.3215 30.363,1.97024 31.0602,3.45237 C31.7482,4.91522 29.125,7.5757 27.7281,8.2703 C27.5999,8.334 27.5138,8.365 27.4959,8.3734 C27.2629,8.483 26.857,7.8367 26.5133,7.532 C26.6132,7.8481 27.1005,9.198 27.1564,9.5313 C27.2219,9.9217 27.2559,10.3228 27.2559,10.7318 L27.2559,19.3014 C27.2559,20.8857 26.6352,22.0917 25.5094,23.0359 C25.1031,23.3766 25.275,21.5828 25.1812,21.5828 C25.1344,21.5828 24.9328,23.9312 24.8471,24.1252 C24.3617,25.2225 23.3927,26.0568 22.1474,26.2837 C20.3777,26.6061 18.0559,26.9119 15.7946,26.8604 C13.6792,26.8122 11.6283,26.5404 10.0348,26.2622 C8.75835,26.0394 7.7642,25.1829 7.27743,24.0551 C7.2063,23.8903 6.98,21.883 6.93124,21.7078 C6.79879,21.6166 6.93001,23.4592 6.60312,23.0828 C5.47313,22.1385 4.86489,20.8891 4.86489,19.3014 L4.86489,10.7318 C4.86489,10.0801 4.9514,9.4487 5.11355,8.8482 C5.16489,8.6581 5.7557,7.2976 5.82187,7.114 C5.68937,7.0452 5.11355,8.1993 4.86489,8.0327 C3.42321,7.0672 1.35634,4.76265 1.97265,3.45237 C2.65609,1.99937 6.38537,2.3084 7.83274,2.93308 C8.68954,3.30288 8.60021,3.58884 8.52499,3.83276 C8.233,4.77965 7.91562,4.42651 7.61874,5.05756 C8.53178,4.67651 9.3259,4.19866 9.5719,3.98901 C9.8572,3.74582 8.98278,4.20982 8.86648,4.27026 C8.61093,4.40308 8.77499,3.87183 8.77499,3.83276 C8.83985,3.5566 9.09,1.89111 9.1741,1.65711 C10.1273,1.34896 11.3945,1.98522 12.1531,3.1335 C12.2125,3.22339 11.3175,3.43109 11.3687,3.52552 L12.8297,3.52552 L19.6656,3.52552 L21.2047,3.59058 C21.0722,3.31714 20.3062,3.36794 20.3062,3.21169 C20.5484,2.57887 22.3389,1.3383 23.3251,1.65711 Z M19.5122,2.52553 C19.9373,1.9384 20.4876,1.45048 21.0722,1.11293 C21.7975,0.69414 22.7419,0.41762 23.6327,0.7056 L24.1001,0.85671 L24.2662,1.31898 C24.3586,1.57627 24.4418,1.85836 24.5131,2.1554 C24.571,2.12422 24.63,2.09444 24.6902,2.06612 C25.5598,1.65706 27.0342,1.39486 28.3577,1.41241 C29.0308,1.42134 29.7378,1.50264 30.3559,1.71464 C30.9599,1.9218 31.6268,2.30755 31.9651,3.02674 C32.3033,3.74592 32.1752,4.50563 31.9496,5.103 C31.7188,5.7143 31.3306,6.3108 30.9082,6.835 C30.0938,7.8457 28.9796,8.7968 28.1166,9.2189 C28.2082,9.7098 28.2559,10.2156 28.2559,10.7318 L28.2559,19.3014 C28.2559,21.2579 27.3411,23.0006 25.9196,24.1252 C25.3838,25.6934 24.0791,26.9483 22.3266,27.2675 C20.5235,27.596 18.1278,27.9138 15.7719,27.8601 C13.5904,27.8104 11.4869,27.5308 9.8628,27.2473 C8.11611,26.9424 6.80106,25.7119 6.24391,24.1586 C4.79803,23.0353 3.86489,21.2774 3.86489,19.3014 L3.86489,10.7318 C3.86489,10.0412 3.95042,9.3694 4.11178,8.727 C3.41105,8.2243 2.65515,7.5089 2.0626,6.7572 C1.65617,6.2416 1.28473,5.65699 1.06631,5.05756 C0.85217,4.46985 0.73749,3.72888 1.06775,3.02674 C1.40603,2.30755 2.07294,1.9218 2.67694,1.71464 C3.29503,1.50264 4.00205,1.42134 4.67516,1.41241 C5.85573,1.39676 7.15641,1.60372 8.0408,1.93895 C8.09861,1.72191 8.16299,1.51384 8.233,1.31898 L8.3991,0.85671 L8.86648,0.7056 C9.7572,0.41762 10.7017,0.69414 11.427,1.11292 C12.0116,1.45047 12.5618,1.93839 12.9869,2.52552 L19.5122,2.52553 Z" id="Shape" fill="#181022"></path>
        </g>
    </g>
</svg>