<?xml version="1.0" encoding="UTF-8"?>
<svg width="38px" height="38px" viewBox="0 0 38 38" version="1.1" xmlns="http://www.w3.org/2000/svg" xmlns:xlink="http://www.w3.org/1999/xlink">
    <!-- Generator: Sketch 56.3 (81716) - https://sketch.com -->
    <title>green</title>
    <desc>Created with Sketch.</desc>
    <defs>
        <linearGradient x1="50.0000378%" y1="0%" x2="50.0000378%" y2="100%" id="linearGradient-1">
            <stop stop-color="#67B505" offset="0%"></stop>
            <stop stop-color="#3F7100" offset="100%"></stop>
        </linearGradient>
        <linearGradient x1="10.2133218%" y1="-10.0932125%" x2="76.6020989%" y2="85.6512667%" id="linearGradient-2">
            <stop stop-color="#D9FF88" offset="0%"></stop>
            <stop stop-color="#D9D9D9" stop-opacity="0" offset="100%"></stop>
        </linearGradient>
    </defs>
    <g id="green" stroke="none" stroke-width="1" fill="none" fill-rule="evenodd">
        <g id="Snake" transform="translate(4.000000, 4.000000)">
            <path d="M16.5531,4.30188 C15.7368,4.30188 14.9351,4.35369 14.1554,4.45422 C13.0027,3.41535 11.4733,2.78247 9.7953,2.78247 C6.20787,2.78247 3.29968,5.67511 3.29968,9.2434 C3.29968,10.124 3.47682,10.9635 3.7976,11.7285 C3.58432,12.4476 3.47134,13.2075 3.47134,14.0029 C3.47134,18.749 10.5144,26.4926 15.0305,28.1203 L15.0305,31.2174 L16.5695,30.2727 L18.1084,31.2174 L18.1084,27.9628 C21.9015,26.1974 29.3888,19.7452 29.3888,14.7913 C29.3888,13.9286 29.2614,13.0903 29.0211,12.2882 C29.5093,11.381 29.7861,10.3444 29.7861,9.2434 C29.7861,5.6752 26.8881,3.1466 23.3006,3.1466 C21.7794,3.1466 20.3804,3.66671 19.2734,4.53791 C18.3966,4.3833 17.4865,4.30188 16.5531,4.30188 Z" id="Path" fill-opacity="0.5" fill="#281342" fill-rule="nonzero"></path>
            <path d="M13.0305,25.8638 C13.0305,25.8638 13.0305,26.0942 14.5695,26.1147 C16.1084,26.1352 16.1084,25.8638 16.1084,25.8638 L16.1084,30.2176 L14.5695,29.2729 L13.0305,30.2176 L13.0305,25.8638 Z" id="Path" fill="#FF6F6F" fill-rule="nonzero"></path>
            <path d="M14.4771,26.552 L14.4771,28.7276" id="Path" stroke="#AE4B4B" stroke-width="0.32"></path>
            <path d="M14.5531,3.30188 C13.7368,3.30188 12.9351,3.35369 12.1554,3.45422 C11.0027,2.41535 9.4733,1.78247 7.7953,1.78247 C4.20787,1.78247 1.29968,4.67511 1.29968,8.2434 C1.29968,9.124 1.47682,9.9635 1.7976,10.7285 C1.58432,11.4476 1.47134,12.2075 1.47134,13.0029 C1.47134,18.328 10.3375,27.4264 14.5531,27.4264 C17.15,27.4264 27.3888,19.5844 27.3888,13.7913 C27.3888,12.9286 27.2614,12.0903 27.0211,11.2882 C27.5093,10.381 27.7861,9.3444 27.7861,8.2434 C27.7861,4.6752 24.8881,2.1466 21.3006,2.1466 C19.7794,2.1466 18.3804,2.66671 17.2734,3.53791 C16.3966,3.3833 15.4865,3.30188 14.5531,3.30188 Z" id="Path" fill="url(#linearGradient-1)"></path>
            <path d="M14.5531,3.30188 C13.7368,3.30188 12.9351,3.35369 12.1554,3.45422 C11.0027,2.41535 9.4733,1.78247 7.7953,1.78247 C4.20787,1.78247 1.29968,4.67511 1.29968,8.2434 C1.29968,9.124 1.47682,9.9635 1.7976,10.7285 C1.58432,11.4476 1.47134,12.2075 1.47134,13.0029 C1.47134,18.328 10.3375,27.4264 14.5531,27.4264 C17.15,27.4264 27.3888,19.5844 27.3888,13.7913 C27.3888,12.9286 27.2614,12.0903 27.0211,11.2882 C27.5093,10.381 27.7861,9.3444 27.7861,8.2434 C27.7861,4.6752 24.8881,2.1466 21.3006,2.1466 C19.7794,2.1466 18.3804,2.66671 17.2734,3.53791 C16.3966,3.3833 15.4865,3.30188 14.5531,3.30188 Z" id="Path" fill="url(#linearGradient-1)"></path>
            <path d="M14.5531,3.30188 C13.7368,3.30188 12.9351,3.35369 12.1554,3.45422 C11.0027,2.41535 9.4733,1.78247 7.7953,1.78247 C4.20787,1.78247 1.29968,4.67511 1.29968,8.2434 C1.29968,9.124 1.47682,9.9635 1.7976,10.7285 C1.58432,11.4476 1.47134,12.2075 1.47134,13.0029 C1.47134,18.328 10.3375,27.4264 14.5531,27.4264 C17.15,27.4264 27.3888,19.5844 27.3888,13.7913 C27.3888,12.9286 27.2614,12.0903 27.0211,11.2882 C27.5093,10.381 27.7861,9.3444 27.7861,8.2434 C27.7861,4.6752 24.8881,2.1466 21.3006,2.1466 C19.7794,2.1466 18.3804,2.66671 17.2734,3.53791 C16.3966,3.3833 15.4865,3.30188 14.5531,3.30188 Z" id="Path" fill="url(#linearGradient-1)"></path>
            <path d="M18.7423,24.3005 C18.7715,24.6301 17.4696,25.0525 17.0823,25.0366 C16.5307,25.014 15.8975,25.006 15.8916,24.9398 C15.8857,24.8736 16.5827,24.6885 17.1235,24.4634 C17.6644,24.2383 18.7131,23.9709 18.7423,24.3005 Z" id="Path" fill="#112D1E" fill-rule="nonzero"></path>
            <path d="M10.3435,24.3005 C10.3144,24.6301 11.6163,25.0525 12.0036,25.0366 C12.5552,25.014 13.1884,25.006 13.1942,24.9398 C13.2001,24.8736 12.5031,24.6885 11.9623,24.4634 C11.4215,24.2383 10.3727,23.9709 10.3435,24.3005 Z" id="Path" fill="#112D1E" fill-rule="nonzero"></path>
            <path d="M14.5525,3.96364 C13.784,3.96364 13.0293,4.01242 12.2952,4.10707 C11.21,3.12903 9.7702,2.5332 8.1904,2.5332 C4.81303,2.5332 2.07513,5.25646 2.07513,8.6158 C2.07513,9.4448 2.2419,10.2352 2.54389,10.9554 C2.3431,11.6324 2.23674,12.3478 2.23674,13.0966 C2.23674,18.1099 10.5837,26.6755 14.5525,26.6755 C16.9973,26.6755 26.6366,19.2927 26.6366,13.8388 C26.6366,13.0267 26.5166,12.2375 26.2904,11.4823 C26.75,10.6282 27.0107,9.6523 27.0107,8.6159 C27.0107,5.25655 24.2823,2.87601 20.9049,2.87601 C19.4728,2.87601 18.1557,3.36567 17.1135,4.18585 C16.288,4.04029 15.4312,3.96364 14.5525,3.96364 Z" id="Path" fill-opacity="0.5" fill="url(#linearGradient-2)" fill-rule="nonzero"></path>
            <path d="M9.6954,6.34571 C10.1109,8.0367 9.127,9.7392 7.4979,10.1483 C5.86876,10.5575 4.21132,9.5184 3.79588,7.82741 C3.38045,6.13643 4.36433,4.43393 5.99345,4.02477 C7.6226,3.61561 9.28,4.65473 9.6954,6.34571 Z" id="Path" fill-opacity="0.8" fill="#FDFF9E" fill-rule="nonzero"></path>
            <path d="M9.7379,5.9607 C10.1534,7.65168 9.1695,9.3542 7.5404,9.7633 C5.91124,10.1725 4.2538,9.1334 3.83836,7.4424 C3.42293,5.75142 4.40681,4.04892 6.03593,3.63976 C7.665,3.2306 9.3225,4.26972 9.7379,5.9607 Z" id="Path" fill="#414B00" fill-rule="nonzero"></path>
            <ellipse id="Oval" fill="#000000" fill-rule="nonzero" cx="6.74567" cy="6.67194" rx="1" ry="2.66925"></ellipse>
            <ellipse id="Oval" fill="#DADADA" fill-rule="nonzero" transform="translate(5.811017, 5.274503) rotate(-13.883911) translate(-5.811017, -5.274503) " cx="5.81101717" cy="5.2745028" rx="1" ry="1"></ellipse>
            <ellipse id="Oval" fill="#DADADA" fill-rule="nonzero" transform="translate(7.388504, 4.744350) rotate(-13.883751) translate(-7.388504, -4.744350) " cx="7.38850376" cy="4.74435046" rx="1" ry="1"></ellipse>
            <ellipse id="Oval" fill="#414B00" fill-rule="nonzero" transform="translate(9.740394, 8.349589) scale(-1, 1) rotate(-31.006544) translate(-9.740394, -8.349589) " cx="9.74039418" cy="8.3495894" rx="1" ry="1"></ellipse>
            <ellipse id="Oval" fill="#414B00" fill-rule="nonzero" transform="translate(3.734841, 4.975080) scale(-1, 1) rotate(-31.006798) translate(-3.734841, -4.975080) " cx="3.73484054" cy="4.97508034" rx="1" ry="1"></ellipse>
            <path d="M19.3904,6.34571 C18.9749,8.0367 19.9588,9.7392 21.5879,10.1483 C23.2171,10.5575 24.8745,9.5184 25.2899,7.82741 C25.7054,6.13643 24.7215,4.43393 23.0924,4.02477 C21.4632,3.61561 19.8058,4.65473 19.3904,6.34571 Z" id="Path" fill-opacity="0.8" fill="#FDFF9E" fill-rule="nonzero"></path>
            <path d="M19.3479,5.9607 C18.9325,7.65168 19.9163,9.3542 21.5455,9.7633 C23.1746,10.1725 24.832,9.1334 25.2475,7.4424 C25.6629,5.75142 24.679,4.04892 23.0499,3.63976 C21.4208,3.2306 19.7633,4.26972 19.3479,5.9607 Z" id="Path" fill="#414B00" fill-rule="nonzero"></path>
            <ellipse id="Oval" fill="#000000" fill-rule="nonzero" transform="translate(22.340102, 6.671940) scale(-1, 1) translate(-22.340102, -6.671940) " cx="22.340102" cy="6.67194" rx="1" ry="2.66925"></ellipse>
            <ellipse id="Oval" fill="#DADADA" fill-rule="nonzero" transform="translate(21.301417, 5.274503) rotate(-13.883911) translate(-21.301417, -5.274503) " cx="21.3014172" cy="5.2745028" rx="1" ry="1"></ellipse>
            <ellipse id="Oval" fill="#DADADA" fill-rule="nonzero" transform="translate(22.878904, 4.744350) rotate(-13.883751) translate(-22.878904, -4.744350) " cx="22.8789038" cy="4.74435046" rx="1" ry="1"></ellipse>
            <ellipse id="Oval" fill="#414B00" fill-rule="nonzero" transform="translate(19.345406, 8.349589) rotate(-31.006544) translate(-19.345406, -8.349589) " cx="19.3454058" cy="8.3495894" rx="1" ry="1"></ellipse>
            <ellipse id="Oval" fill="#414B00" fill-rule="nonzero" transform="translate(25.351009, 4.975080) rotate(-31.006798) translate(-25.351009, -4.975080) " cx="25.3510095" cy="4.97508034" rx="1" ry="1"></ellipse>
            <path d="M13.0305,27.1203 C8.5144,25.4926 1.47134,17.749 1.47134,13.0029 C1.47134,12.5102 1.5147,12.0311 1.59839,11.5669 C1.6498,11.2817 2.41791,10.9844 2.41791,10.7834 C2.41791,10.5824 1.63392,10.3074 1.56865,10.0892 C1.39365,9.5044 1.29968,8.8848 1.29968,8.2434 C1.29968,4.67511 4.20787,1.78247 7.7953,1.78247 C9.2782,1.78247 10.2304,2.30188 11.496,2.9375 C11.6399,3.04696 11.0651,4.25421 11.1992,4.375 C11.3605,4.3542 12.479,3.41471 12.6422,3.3981 C13.2675,3.33447 13.9057,3.30188 14.5531,3.30188 C15.2336,3.30188 15.9018,3.34516 16.5537,3.42854 C16.7959,3.45951 17.7585,4.45812 17.996,4.5 C18.1692,4.3637 17.6269,3.27391 17.8137,3.15544 C18.8211,2.5167 20.0174,2.1466 21.3006,2.1466 C24.8881,2.1466 27.7861,4.6752 27.7861,8.2434 C27.7861,9.0874 27.6234,9.8936 27.3276,10.6326 C27.2375,10.8576 26.3867,10.9001 26.3867,11.1406 C26.3867,11.2812 26.9655,11.3382 27.0274,11.75 C27.091,12.1731 27.3888,13.3541 27.3888,13.7913 C27.3888,18.7452 19.9015,25.1974 16.1084,26.9628 L16.1084,30.2174 L14.5695,29.2727 L13.0305,30.2174 L13.0305,27.1203 Z M14.5695,30.4461 L12.0305,32.0047 L12.0305,27.7917 C9.6748,26.7263 6.96249,24.4253 4.79579,21.8791 C3.59551,20.4685 2.52684,18.9415 1.75339,17.44 C0.98769,15.9536 0.47134,14.4151 0.47134,13.0029 C0.47134,12.235 0.56545,11.4934 0.74557,10.7834 C0.45682,9.9895 0.29968,9.1338 0.29968,8.2434 C0.29968,4.11777 3.66065,0.78247 7.7953,0.78247 C9.5619,0.78247 11.188,1.39189 12.4697,2.41063 C13.1518,2.33867 13.8477,2.30188 14.5531,2.30188 C15.3938,2.30188 16.2177,2.36405 17.0183,2.48338 C18.2327,1.64079 19.71,1.1466 21.3006,1.1466 C25.3594,1.1466 28.7861,4.04528 28.7861,8.2434 C28.7861,9.3672 28.5359,10.4349 28.0875,11.3925 C28.2848,12.1662 28.3888,12.9688 28.3888,13.7913 C28.3888,15.2706 27.8348,16.7782 27.0274,18.188 C26.2145,19.6074 25.1042,20.9982 23.8937,22.2639 C21.7052,24.5522 19.0952,26.5281 17.1084,27.581 L17.1084,32.0047 L14.5695,30.4461 Z" id="Shape" fill="#181022"></path>
        </g>
    </g>
</svg>