<svg clip-rule="evenodd" stroke-linecap="round" stroke-linejoin="round" stroke-miterlimit="10" viewBox="0 0 38 38" xmlns="http://www.w3.org/2000/svg" xmlns:xlink="http://www.w3.org/1999/xlink"><linearGradient id="a" gradientUnits="userSpaceOnUse" x1="18.466994" x2="18.466994" y1="4.78751" y2="30.43144"><stop offset="0" stop-color="#67b505"/><stop offset="1" stop-color="#3f7100"/></linearGradient><linearGradient id="b" gradientUnits="userSpaceOnUse" x1="8.545974" x2="25.100394" y1="2.13244" y2="26.79134"><stop offset="0" stop-color="#d9ff88"/><stop offset="1" stop-color="#d9d9d9" stop-opacity="0"/></linearGradient><g><path d="m20.4772 7.30692c-.8163 0-1.618.05181-2.3977.15234-1.1527-1.03887-2.6821-1.67175-4.3601-1.67175-3.5874 0-6.49563 2.89264-6.49563 6.46089 0 .8806.17714 1.7201.49792 2.4851-.21328.7191-.32626 1.479-.32626 2.2744 0 4.7461 7.04307 12.4897 11.55917 14.1174v3.0971l1.539-.9447 1.5389.9447v-3.2546c3.7931-1.7654 11.2804-8.2176 11.2804-13.1715 0-.8627-.1274-1.701-.3677-2.5031.4882-.9072.765-1.9438.765-3.0448 0-3.56816-2.898-6.09676-6.4855-6.09676-1.5212 0-2.9202.52011-4.0272 1.39131-.8768-.15461-1.7869-.23603-2.7203-.23603z" fill="#281342" fill-opacity=".5"/><path d="m16.9546 28.8688s0 .2304 1.539.2509c1.5389.0205 1.5389-.2509 1.5389-.2509v4.3538l-1.5389-.9447-1.539.9447z" fill="#ff6f6f"/><path d="m18.4012 29.557v2.1756" fill="none" stroke="#ae4b4b" stroke-linecap="butt" stroke-linejoin="miter" stroke-width=".32"/><g fill-rule="evenodd"><path d="m18.4772 6.30692c-.8163 0-1.618.05181-2.3977.15234-1.1527-1.03887-2.6821-1.67175-4.3601-1.67175-3.58744 0-6.49563 2.89264-6.49563 6.46089 0 .8806.17714 1.7201.49792 2.4851-.21328.7191-.32626 1.479-.32626 2.2744 0 5.3251 8.86617 14.4235 13.08177 14.4235 2.5969 0 12.8357-7.842 12.8357-13.6351 0-.8627-.1274-1.701-.3677-2.5031.4882-.9072.765-1.9438.765-3.0448 0-3.56816-2.898-6.09676-6.4855-6.09676-1.5212 0-2.9202.52011-4.0272 1.39131-.8768-.15461-1.7869-.23603-2.7203-.23603z" fill="url(#a)"/><path d="m18.4772 6.30692c-.8163 0-1.618.05181-2.3977.15234-1.1527-1.03887-2.6821-1.67175-4.3601-1.67175-3.58744 0-6.49563 2.89264-6.49563 6.46089 0 .8806.17714 1.7201.49792 2.4851-.21328.7191-.32626 1.479-.32626 2.2744 0 5.3251 8.86617 14.4235 13.08177 14.4235 2.5969 0 12.8357-7.842 12.8357-13.6351 0-.8627-.1274-1.701-.3677-2.5031.4882-.9072.765-1.9438.765-3.0448 0-3.56816-2.898-6.09676-6.4855-6.09676-1.5212 0-2.9202.52011-4.0272 1.39131-.8768-.15461-1.7869-.23603-2.7203-.23603z" fill="url(#a)"/><path d="m18.4772 6.30692c-.8163 0-1.618.05181-2.3977.15234-1.1527-1.03887-2.6821-1.67175-4.3601-1.67175-3.58744 0-6.49563 2.89264-6.49563 6.46089 0 .8806.17714 1.7201.49792 2.4851-.21328.7191-.32626 1.479-.32626 2.2744 0 5.3251 8.86617 14.4235 13.08177 14.4235 2.5969 0 12.8357-7.842 12.8357-13.6351 0-.8627-.1274-1.701-.3677-2.5031.4882-.9072.765-1.9438.765-3.0448 0-3.56816-2.898-6.09676-6.4855-6.09676-1.5212 0-2.9202.52011-4.0272 1.39131-.8768-.15461-1.7869-.23603-2.7203-.23603z" fill="url(#a)"/></g><path d="m22.6664 27.3055c.0292.3296-1.2727.752-1.66.7361-.5516-.0226-1.1848-.0306-1.1907-.0968s.6911-.2513 1.2319-.4764c.5409-.2251 1.5896-.4925 1.6188-.1629z" fill="#112d1e"/><path d="m14.2676 27.3055c-.0291.3296 1.2728.752 1.6601.7361.5516-.0226 1.1848-.0306 1.1906-.0968.0059-.0662-.6911-.2513-1.2319-.4764s-1.5896-.4925-1.6188-.1629z" fill="#112d1e"/><path d="m18.4766 6.96868c-.7685 0-1.5232.04878-2.2573.14343-1.0852-.97804-2.525-1.57387-4.1048-1.57387-3.37738 0-6.11528 2.72326-6.11528 6.08256 0 .829.16677 1.6194.46876 2.3396-.20079.677-.30715 1.3924-.30715 2.1412 0 5.0133 8.34697 13.5789 12.31577 13.5789 2.4448 0 12.0841-7.3828 12.0841-12.8367 0-.8121-.12-1.6013-.3462-2.3565.4596-.8541.7203-1.83.7203-2.8664 0-3.35931-2.7284-5.73985-6.1058-5.73985-1.4321 0-2.7492.48966-3.7914 1.30984-.8255-.14556-1.6823-.22221-2.561-.22221z" fill="url(#b)"/><path d="m13.6195 9.35075c.4155 1.69095-.5684 3.39345-2.1975 3.80255-1.62915.4092-3.28659-.6299-3.70203-2.3209-.41543-1.69093.56845-3.39343 2.19757-3.80259 1.62916-.40916 3.28656.62996 3.70196 2.32094z" fill="#fdff9e" fill-opacity=".8"/><path d="m13.662 8.96574c.4155 1.69096-.5684 3.39346-2.1975 3.80256-1.62917.4092-3.28661-.6299-3.70205-2.3209-.41543-1.69094.56845-3.39344 2.19757-3.8026 1.62908-.40916 3.28658.62996 3.70198 2.32094z" fill="#414b00"/><path d="m9.88507 9.67698c0-1.47419.35133-2.66925.78473-2.66925.4333 0 .7847 1.19506.7847 2.66925 0 1.47422-.3514 2.66922-.7847 2.66922-.4334 0-.78473-1.195-.78473-2.66922z"/><path d="m8.81141 8.51029c-.12632-.51136.18484-1.02921.69499-1.15665.5101-.12744 1.0261.18379 1.1524.69515s-.1848 1.02921-.69498 1.15665c-.51015.12744-1.0261-.18379-1.15241-.69515z" fill="#dadada"/><path d="m11.0817 7.80708c-.0316-.12785.0462-.25731.1737-.28917.1276-.03186.2565.04595.2881.17379s-.0462.25731-.1737.28917c-.1276.03186-.2565-.04595-.2881-.17379z" fill="#dadada"/><path d="m14.2756 11.7239c.1057-.1761-.0822-.4843-.4198-.6883-.3375-.2039-.6968-.2264-.8025-.0503-.1056.1762.0823.4844.4198.6883.3376.204.6969.2265.8025.0503z" fill="#414b00"/><path d="m8.2701 8.34941c.10568-.17617-.08228-.48432-.41982-.68828-.33754-.20395-.69683-.22648-.80251-.05031s.08228.48433.41982.68828c.33754.20396.69683.22649.80251.05031z" fill="#414b00"/><path d="m23.3145 9.35075c-.4155 1.69095.5684 3.39345 2.1975 3.80255 1.6292.4092 3.2866-.6299 3.702-2.3209.4155-1.69093-.5684-3.39343-2.1975-3.80259-1.6292-.40916-3.2866.62996-3.702 2.32094z" fill="#fdff9e" fill-opacity=".8"/><path d="m23.272 8.96574c-.4154 1.69096.5684 3.39346 2.1976 3.80256 1.6291.4092 3.2865-.6299 3.702-2.3209.4154-1.69094-.5685-3.39344-2.1976-3.8026s-3.2866.62996-3.702 2.32094z" fill="#414b00"/><path d="m27.0489 9.67698c0-1.47419-.3513-2.66925-.7847-2.66925s-.7847 1.19506-.7847 2.66925c0 1.47422.3513 2.66922.7847 2.66922s.7847-1.195.7847-2.66922z"/><path d="m24.3018 8.51029c-.1263-.51136.1849-1.02921.695-1.15665s1.0261.18379 1.1524.69515-.1848 1.02921-.695 1.15665c-.5101.12744-1.0261-.18379-1.1524-.69515z" fill="#dadada"/><path d="m26.5721 7.80708c-.0316-.12785.0462-.25731.1737-.28917.1276-.03186.2565.04595.2881.17379s-.0462.25731-.1737.28917c-.1276.03186-.2566-.04595-.2881-.17379z" fill="#dadada"/><path d="m22.6583 11.7239c-.1056-.1761.0823-.4843.4199-.6883.3375-.2039.6968-.2264.8025-.0503.1056.1762-.0823.4844-.4199.6883-.3375.204-.6968.2265-.8025.0503z" fill="#414b00"/><path d="m28.6639 8.34941c-.1056-.17617.0823-.48432.4199-.68828.3375-.20395.6968-.22648.8025-.05031.1056.17617-.0823.48433-.4199.68828-.3375.20396-.6968.22649-.8025.05031z" fill="#414b00"/><path d="m16.9546 30.1253c-4.5161-1.6277-11.55917-9.3713-11.55917-14.1174 0-.4927.04336-.9718.12705-1.436.05141-.2852.81952-.5825.81952-.7835s-.78399-.476-.84926-.6942c-.175-.5848-.26897-1.2044-.26897-1.8458 0-3.56825 2.90819-6.46089 6.49563-6.46089 1.4829 0 2.4351.51941 3.7007 1.15503.1439.10946-.4309 1.31671-.2968 1.4375.1613-.0208 1.2798-.96029 1.443-.9769.6253-.06363 1.2635-.09622 1.9109-.09622.6805 0 1.3487.04328 2.0006.12666.2422.03097 1.2048 1.02958 1.4423 1.07146.1732-.1363-.3691-1.22609-.1823-1.34456 1.0074-.63874 2.2037-1.00884 3.4869-1.00884 3.5875 0 6.4855 2.5286 6.4855 6.09676 0 .844-.1627 1.6502-.4585 2.3892-.0901.225-.9409.2675-.9409.508 0 .1406.5788.1976.6407.6094.0636.4231.3614 1.6041.3614 2.0413 0 4.9539-7.4873 11.4061-11.2804 13.1715v3.2546l-1.5389-.9447-1.539.9447zm1.539 3.3258-2.539 1.5586v-4.213c-2.3557-1.0654-5.068-3.3664-7.23472-5.9126-1.20028-1.4106-2.26895-2.9376-3.0424-4.4391-.7657-1.4864-1.28205-3.0249-1.28205-4.4371 0-.7679.09411-1.5095.27423-2.2195-.28875-.7939-.44589-1.6496-.44589-2.54 0-4.12559 3.36097-7.46089 7.49563-7.46089 1.7666 0 3.3927.60942 4.6744 1.62816.6821-.07196 1.378-.10875 2.0834-.10875.8407 0 1.6646.06217 2.4652.1815 1.2144-.84259 2.6917-1.33678 4.2823-1.33678 4.0588 0 7.4855 2.89868 7.4855 7.09676 0 1.1238-.2502 2.1915-.6986 3.1491.1973.7737.3013 1.5763.3013 2.3988 0 1.4793-.554 2.9869-1.3614 4.3967-.8129 1.4194-1.9232 2.8102-3.1337 4.0759-2.1885 2.2883-4.7985 4.2642-6.7853 5.3171v4.4237z" fill="#181022" fill-rule="evenodd"/></g></svg>