<?xml version="1.0" encoding="UTF-8"?>
<svg width="38px" height="38px" viewBox="0 0 38 38" version="1.1" xmlns="http://www.w3.org/2000/svg" xmlns:xlink="http://www.w3.org/1999/xlink">
    <!-- Generator: Sketch 56.3 (81716) - https://sketch.com -->
    <title>grey</title>
    <desc>Created with Sketch.</desc>
    <defs>
        <linearGradient x1="50%" y1="-0.000177632514%" x2="50%" y2="99.9998224%" id="linearGradient-1">
            <stop stop-color="#353435" offset="0%"></stop>
            <stop stop-color="#93A4A3" offset="100%"></stop>
        </linearGradient>
        <linearGradient x1="50%" y1="0%" x2="50%" y2="100.000178%" id="linearGradient-2">
            <stop stop-color="#353435" offset="0%"></stop>
            <stop stop-color="#93A4A3" offset="100%"></stop>
        </linearGradient>
        <linearGradient x1="10.2133061%" y1="-5.13163469%" x2="72.7238587%" y2="85.0201439%" id="linearGradient-3">
            <stop stop-color="#FFFFFF" offset="0%"></stop>
            <stop stop-color="#D9D9D9" stop-opacity="0" offset="100%"></stop>
        </linearGradient>
    </defs>
    <g id="grey" stroke="none" stroke-width="1" fill="none" fill-rule="evenodd">
        <g id="Panda" transform="translate(2.000000, 2.000000)">
            <path d="M24.5023,5.5526 C25.6753,2.65555 29.3314,1.73457 31.9314,3.33244 C34.3389,4.81203 35.253,7.92185 33.778,10.3218 C33.2717,11.1456 32.5565,11.7587 31.7413,12.1465 C32.8141,14.1226 33.4211,16.3605 33.4211,18.7319 C33.4211,26.8689 26.334,33.3266 17.7691,33.3266 C9.20421,33.3266 2.11709,26.8689 2.11709,18.7319 C2.11709,16.2872 2.76219,13.9844 3.89768,11.9641 C3.22683,11.5766 2.64079,11.0258 2.20817,10.3218 C0.733238,7.92189 1.64727,4.81208 4.0548,3.33249 C6.59635,1.77054 10.1622,2.59947 11.4145,5.38996 C13.3589,4.58377 15.51,4.13706 17.7691,4.13706 C20.1759,4.13706 22.46,4.64408 24.5023,5.5526 Z" id="Path" fill-opacity="0.5" fill="#281342"></path>
            <ellipse id="Oval" fill="#161515" fill-rule="nonzero" transform="translate(6.380940, 6.387680) rotate(-31.573600) translate(-6.380940, -6.387680) " cx="6.38094" cy="6.38768" rx="4.13446" ry="3.88945"></ellipse>
            <ellipse id="Oval" fill-opacity="0.8" fill="url(#linearGradient-1)" fill-rule="nonzero" transform="translate(6.598320, 6.802910) rotate(-31.573600) translate(-6.598320, -6.802910) " cx="6.59832" cy="6.80291" rx="2.99212" ry="2.8148"></ellipse>
            <ellipse id="Oval" fill="#161515" fill-rule="nonzero" transform="translate(29.034379, 6.387687) scale(-1, 1) rotate(-31.573559) translate(-29.034379, -6.387687) " cx="29.0343795" cy="6.38768651" rx="4.13446167" ry="3.88945157"></ellipse>
            <ellipse id="Oval" fill-opacity="0.8" fill="url(#linearGradient-2)" fill-rule="nonzero" transform="translate(28.816997, 6.802909) scale(-1, 1) rotate(-31.573559) translate(-28.816997, -6.802909) " cx="28.8169969" cy="6.80290925" rx="2.99212121" ry="2.81480114"></ellipse>
            <ellipse id="Oval" fill="#B6B6B6" fill-rule="nonzero" cx="17.4836" cy="17.5377" rx="14.5536" ry="13.4964"></ellipse>
            <ellipse id="Oval" fill-opacity="0.9" fill="url(#linearGradient-3)" fill-rule="nonzero" cx="17.4649" cy="17.4889" rx="13.3142" ry="12.347"></ellipse>
            <ellipse id="Oval" fill="#313030" fill-rule="nonzero" transform="translate(24.587100, 17.354100) rotate(-30.903800) translate(-24.587100, -17.354100) " cx="24.5871" cy="17.3541" rx="4.47872" ry="5.33687"></ellipse>
            <ellipse id="Oval" fill="#313030" fill-rule="nonzero" transform="translate(10.342714, 17.354138) scale(-1, 1) rotate(-30.903788) translate(-10.342714, -17.354138) " cx="10.3427136" cy="17.3541383" rx="4.47872023" ry="5.33687027"></ellipse>
            <path d="M17.4272,25.1997 L17.4272,28.0247" id="Path" stroke="#000000" stroke-width="0.441459"></path>
            <path d="M14.3815,27.0828 C16.7306,28.3033 17.9737,28.3728 20.0313,27.0828" id="Path" stroke="#000000" stroke-width="0.461994" stroke-linecap="round" stroke-linejoin="round"></path>
            <path d="M17.4946,22.4509 C19.5987,22.4962 20.0607,24.0111 20.3413,24.4443 C20.6218,24.8775 20.2773,26.3284 17.4946,26.0106 C15.3552,25.9302 14.1865,25.4645 14.5861,24.5155 C14.5861,24.5155 15.3905,22.4056 17.4946,22.4509 Z" id="Path" fill="#373235" fill-rule="nonzero"></path>
            <path d="M19.7138,24.3241 C19.8474,24.6014 18.8526,25.3966 18.5102,25.5099 C18.0226,25.6712 17.4687,25.8721 17.4419,25.8164 C17.415,25.7607 17.961,25.3707 18.358,24.9972 C18.7549,24.6237 19.5802,24.0467 19.7138,24.3241 Z" id="Path" fill="#111011" fill-rule="nonzero"></path>
            <path d="M15.2791,24.3241 C15.1455,24.6014 16.1402,25.3966 16.4826,25.5099 C16.9703,25.6712 17.5241,25.8721 17.551,25.8164 C17.5778,25.7607 17.0318,25.3707 16.6349,24.9972 C16.2379,24.6237 15.4127,24.0467 15.2791,24.3241 Z" id="Path" fill="#111011" fill-rule="nonzero"></path>
            <path d="M24.2169,4.35827 C25.3898,1.46121 29.0459,0.54023 31.6459,2.13811 C34.0535,3.6177 34.9675,6.72751 33.4926,9.1275 C32.9863,9.9513 32.2711,10.5643 31.4558,10.9522 C32.5287,12.9283 33.1357,15.1662 33.1357,17.5375 C33.1357,25.6745 26.0485,32.1323 17.4836,32.1323 C8.91875,32.1323 1.83163,25.6745 1.83163,17.5375 C1.83163,15.0928 2.47673,12.79 3.61222,10.7698 C2.94137,10.3823 2.35533,9.8314 1.92271,9.1275 C0.447776,6.72755 1.36181,3.61774 3.76934,2.13815 C6.31088,0.5762 9.87677,1.40513 11.129,4.19562 C13.0735,3.38943 15.2246,2.94272 17.4836,2.94272 C19.8904,2.94272 22.1746,3.44974 24.2169,4.35827 Z M23.9224,5.43047 C21.9813,4.54096 19.7954,4.04111 17.4836,4.04111 C15.3357,4.04111 13.2965,4.47263 11.4612,5.24728 C11.1081,5.39631 8.76937,6.77932 8.43207,6.95312 C8.38934,6.58439 10.6211,5.7514 10.1293,4.65063 C10.0642,4.50498 9.98895,4.36212 9.90337,4.22286 C8.77865,2.39276 6.28983,1.87837 4.34445,3.07394 C2.39906,4.26952 1.73378,6.72231 2.8585,8.5524 C3.1958,9.1012 3.70555,9.1672 4.23676,9.4688 C4.56404,9.6545 6.18988,8.4531 6.68988,8.4531 C6.47126,8.768 4.81441,10.8801 4.62405,11.2122 C3.54269,13.0989 2.93001,15.2519 2.93001,17.5375 C2.93001,24.9914 9.4459,31.0339 17.4836,31.0339 C25.5214,31.0339 32.0373,24.9914 32.0373,17.5375 C32.0373,15.2939 31.4469,13.1781 30.4024,11.3165 C30.2096,10.9729 28.7252,9.0442 28.5024,8.7188 C28.7598,8.7188 30.0599,9.8861 30.6274,9.8438 C31.362,9.7889 32.1501,9.2141 32.5568,8.5524 C33.6815,6.72226 33.0162,4.26947 31.0708,3.0739 C29.1254,1.87833 26.6366,2.39271 25.5119,4.22281 C25.3894,4.42207 25.294,4.67903 25.2133,4.89062 C24.7202,5.87977 27.2368,6.92188 27.0024,7.3125 C26.6618,7.12268 24.2804,5.59448 23.9224,5.43047 Z" id="Shape" fill="#181022"></path>
            <path d="M13.6498,18.4688 C13.6498,20.1256 13.9207,16.25 10.3269,16.25 C6.73317,16.25 7.05603,20.1256 7.05603,18.4688 C7.05603,16.8119 8.67007,15.4688 10.3269,15.4688 C11.9838,15.4688 13.6498,16.8119 13.6498,18.4688 Z" id="Path" fill="#000000" fill-rule="nonzero"></path>
            <path d="M27.8765,18.4688 C27.8765,20.1256 28.1474,16.25 24.5537,16.25 C20.9599,16.25 21.2828,20.1256 21.2828,18.4688 C21.2828,16.8119 22.8968,15.4688 24.5537,15.4688 C26.2105,15.4688 27.8765,16.8119 27.8765,18.4688 Z" id="Path" fill="#000000" fill-rule="nonzero"></path>
        </g>
    </g>
</svg>