<?xml version="1.0" encoding="UTF-8"?>
<svg width="38px" height="38px" viewBox="0 0 38 38" version="1.1" xmlns="http://www.w3.org/2000/svg" xmlns:xlink="http://www.w3.org/1999/xlink">
    <!-- Generator: Sketch 56.3 (81716) - https://sketch.com -->
    <title>orange</title>
    <desc>Created with Sketch.</desc>
    <defs>
        <linearGradient x1="78.0219715%" y1="-3.19462051%" x2="15.701%" y2="60.8577587%" id="linearGradient-1">
            <stop stop-color="#000000" offset="0%"></stop>
            <stop stop-color="#FF7235" offset="70.8333%"></stop>
            <stop stop-color="#FF7235" offset="100%"></stop>
        </linearGradient>
        <linearGradient x1="78.0215331%" y1="-3.19458571%" x2="29.1292565%" y2="88.3786764%" id="linearGradient-2">
            <stop stop-color="#FFB3A9" offset="0%"></stop>
            <stop stop-color="#FF7235" offset="100%"></stop>
        </linearGradient>
        <linearGradient x1="21.9778076%" y1="-3.19462051%" x2="84.2993558%" y2="60.8577587%" id="linearGradient-3">
            <stop stop-color="#000000" offset="0%"></stop>
            <stop stop-color="#FF7235" offset="70.8333%"></stop>
            <stop stop-color="#FF7235" offset="100%"></stop>
        </linearGradient>
        <linearGradient x1="21.9778041%" y1="-3.19458571%" x2="70.8699598%" y2="88.3786764%" id="linearGradient-4">
            <stop stop-color="#FFB3A9" offset="0%"></stop>
            <stop stop-color="#FF7235" offset="100%"></stop>
        </linearGradient>
        <path d="M11.5063,26.0434 C12.7804,27.8106 14.313,28.1439 16.4125,28.1987 C18.5121,28.1439 20.0447,27.8106 21.3188,26.0434 C21.6485,25.5861 21.8641,25.1353 22.0772,24.6895 C22.6878,23.4127 23.2785,22.1774 26.475,20.95 C28.9883,20.805 31.3359,16.7092 32.1625,14.7625 C31.8848,14.5126 31.5456,14.4332 31.1694,14.3452 C30.286,14.1385 29.1988,13.884 28.225,11.2625 C27.925,10.4547 27.7187,9.5944 27.5111,8.7285 C26.9142,5.9033 25.2875,0.1366 16.4125,0.51158 C7.53754,0.1366 5.91084,5.9033 5.31396,8.7285 C5.10633,9.5944 4.90005,10.4547 4.60003,11.2625 C3.6263,13.884 2.53908,14.1385 1.65569,14.3452 C1.27951,14.4332 0.94029,14.5126 0.66254,14.7625 C1.48919,16.7092 3.83677,20.805 6.35004,20.95 C9.5466,22.1774 10.1373,23.4127 10.7479,24.6895 C10.961,25.1353 11.1766,25.5861 11.5063,26.0434 Z" id="path-5"></path>
        <linearGradient x1="12.6599894%" y1="-0.213042608%" x2="72.077821%" y2="82.3550797%" id="linearGradient-7">
            <stop stop-color="#FF7C03" offset="0%"></stop>
            <stop stop-color="#D9D9D9" stop-opacity="0" offset="100%"></stop>
        </linearGradient>
    </defs>
    <g id="orange" stroke="none" stroke-width="1" fill="none" fill-rule="evenodd">
        <g id="Fox" transform="translate(1.000000, 3.000000)">
            <path d="M8.18422,11.9963 C6.65461,10.4981 5.32392,5.03309 5.93437,2.40728 C8.05875,1.35258 12.7514,2.42506 14.3501,4.95104 C15.7271,4.46432 17.4324,4.20396 19.5506,4.29346 C21.5293,4.20986 23.1477,4.43155 24.4747,4.85786 C26.1284,2.39882 30.7316,1.36564 32.8297,2.40728 C33.4401,5.03309 32.1094,10.4981 30.5798,11.9963 C30.5663,12.0018 30.5526,12.0072 30.5388,12.0124 C30.5795,12.1865 30.6159,12.353 30.6492,12.5103 C30.8568,13.3763 31.0631,14.2366 31.3631,15.0443 C32.3368,17.6659 33.4241,17.9203 34.3074,18.1271 C34.6836,18.2151 35.0228,18.2945 35.3006,18.5443 C34.4739,20.4911 32.1264,24.5869 29.6131,24.7319 C26.4165,25.9593 25.8258,27.1946 25.2153,28.4714 C25.0021,28.9171 24.7865,29.368 24.4568,29.8252 C23.1827,31.5924 21.6501,31.9258 19.5506,31.9805 C17.4511,31.9258 15.9185,31.5924 14.6443,29.8252 C14.3146,29.368 14.0991,28.9171 13.8859,28.4714 C13.2754,27.1946 12.6847,25.9593 9.4881,24.7319 C6.97483,24.5869 4.62725,20.4911 3.8006,18.5443 C4.07835,18.2945 4.41757,18.2151 4.79375,18.1271 C5.67714,17.9203 6.76436,17.6659 7.73809,15.0443 C8.03811,14.2366 8.24439,13.3763 8.45202,12.5103 C8.47929,12.3813 8.50872,12.246 8.54088,12.1055 C8.41346,12.0772 8.29409,12.0408 8.18422,11.9963 Z" id="Path" fill-opacity="0.5" fill="#281342" fill-rule="nonzero"></path>
            <path d="M30.6916,1.62547 C31.3021,4.25128 29.9714,9.7162 28.4418,11.2145 C26.6354,11.9453 22.2606,10.5119 21.7568,6.4295 C21.2529,2.3471 28.0134,0.29578 30.6916,1.62547 Z" id="Path" fill="url(#linearGradient-1)" fill-rule="nonzero"></path>
            <path d="M29.1956,3.09144 C29.6422,5.01214 28.6688,9.0096 27.55,10.1055 C26.2286,10.6401 23.0286,9.5916 22.6601,6.6054 C22.2915,3.61929 27.2366,2.11881 29.1956,3.09144 Z" id="Path" fill="url(#linearGradient-2)" fill-rule="nonzero"></path>
            <path d="M3.79634,1.62547 C3.18588,4.25128 4.51658,9.7162 6.04619,11.2145 C7.8526,11.9453 12.2274,10.5119 12.7312,6.4295 C13.235,2.3471 6.4746,0.29578 3.79634,1.62547 Z" id="Path" fill="url(#linearGradient-3)" fill-rule="nonzero"></path>
            <path d="M5.29233,3.09144 C4.8458,5.01214 5.81916,9.0096 6.93803,10.1055 C8.25936,10.6401 11.4594,9.5916 11.8279,6.6054 C12.1964,3.61929 7.25139,2.11881 5.29233,3.09144 Z" id="Path" fill="url(#linearGradient-4)" fill-rule="nonzero"></path>
            <path d="M12.5063,29.0434 C13.7804,30.8106 15.313,31.1439 17.4125,31.1987 C19.5121,31.1439 21.0447,30.8106 22.3188,29.0434 C22.6485,28.5861 22.8641,28.1353 23.0772,27.6895 C23.6878,26.4127 24.2785,25.1774 27.475,23.95 C29.9883,23.805 32.3359,19.7092 33.1625,17.7625 C32.8848,17.5126 32.5456,17.4332 32.1694,17.3452 C31.286,17.1385 30.1988,16.884 29.225,14.2625 C28.925,13.4547 28.7187,12.5944 28.5111,11.7285 C27.9142,8.9033 26.2875,3.1366 17.4125,3.51158 C8.53754,3.1366 6.91084,8.9033 6.31396,11.7285 C6.10633,12.5944 5.90005,13.4547 5.60003,14.2625 C4.6263,16.884 3.53908,17.1385 2.65569,17.3452 C2.27951,17.4332 1.94029,17.5126 1.66254,17.7625 C2.48919,19.7092 4.83677,23.805 7.35004,23.95 C10.5466,25.1774 11.1373,26.4127 11.7479,27.6895 C11.961,28.1353 12.1766,28.5861 12.5063,29.0434 Z" id="Path" fill="#FF4D00"></path>
            <g id="Clipped" transform="translate(1.000000, 3.000000)">
                <mask id="mask-6" fill="white">
                    <use xlink:href="#path-5"></use>
                </mask>
                <g id="Path"></g>
                <path d="M1.67493,16.7148 C8.15083,21.0051 11.5444,19.9003 12.7594,18.712 C13.714,17.6699 14.9989,17.0315 16.4122,17.0315 C17.8543,17.0315 19.1628,17.6963 20.1231,18.7763 C21.3938,19.9385 24.7807,20.9275 31.1395,16.7148 L30.2247,25.0394 C25.9146,27.1346 17.5893,31.134 16.4697,31.4943 C16.4701,31.5025 16.4703,31.5086 16.4703,31.5126 C16.4703,31.5232 16.4487,31.5229 16.4072,31.5125 C16.3657,31.5229 16.3441,31.5232 16.3441,31.5126 C16.3441,31.5086 16.3443,31.5025 16.3446,31.4943 C15.2251,31.134 6.89982,27.1346 2.58965,25.0394 L1.67493,16.7148 Z M16.4072,30.579 C16.4304,30.2591 16.4592,29.8693 16.4921,29.4286 C16.4655,29.429 16.4389,29.4293 16.4122,29.4293 C16.3822,29.4293 16.3522,29.429 16.3223,29.4284 C16.3552,29.8692 16.384,30.259 16.4072,30.579 Z" id="Shape" fill="#F8CF9F" mask="url(#mask-6)"></path>
            </g>
            <path d="M17.3784,29.0742 L17.3784,30.4431" id="Path" stroke="#CC9F60" stroke-width="0.452516"></path>
            <ellipse id="Oval" fill="#4A1717" fill-rule="nonzero" cx="17.4314" cy="27.1129" rx="3.1149" ry="1.96151"></ellipse>
            <path d="M20.0594,26.636 C20.2096,26.9925 19.0908,28.0147 18.7056,28.1603 C18.1571,28.3677 17.5341,28.626 17.504,28.5544 C17.4738,28.4827 18.0879,27.9815 18.5344,27.5014 C18.9809,27.0212 19.9091,26.2795 20.0594,26.636 Z" id="Path" fill="#020202" fill-rule="nonzero"></path>
            <path d="M15.0712,26.636 C14.921,26.9925 16.0398,28.0147 16.425,28.1603 C16.9735,28.3677 17.5965,28.626 17.6267,28.5544 C17.6569,28.4827 17.0427,27.9815 16.5962,27.5014 C16.1497,27.0212 15.2215,26.2795 15.0712,26.636 Z" id="Path" fill="#020202" fill-rule="nonzero"></path>
            <path d="M14.9065,29.6299 C16.9352,30.6839 18.0087,30.744 19.7857,29.6299" id="Path" stroke="#CB9C5A" stroke-width="0.473565" stroke-linecap="round" stroke-linejoin="round"></path>
            <path d="M12.8776,28.4073 C14.038,30.0567 15.4339,30.3679 17.346,30.419 C19.2582,30.3679 20.654,30.0567 21.8144,28.4073 C22.1147,27.9804 22.311,27.5597 22.5051,27.1436 C23.0612,25.9519 23.5992,24.7988 26.5105,23.6532 C28.7994,23.5179 30.9375,19.6949 31.6904,17.8779 C31.4374,17.6447 31.1285,17.5706 30.7859,17.4884 C29.9813,17.2954 28.9911,17.0579 28.1043,14.611 C27.831,13.8571 27.6432,13.0541 27.4541,12.2458 C26.9105,9.6089 25.4289,4.22633 17.346,4.57634 C9.26307,4.22633 7.78155,9.6089 7.23794,12.2458 C7.04884,13.0541 6.86097,13.8571 6.58772,14.611 C5.7009,17.0579 4.18112,17.6849 3.37656,17.8779 C3.03396,17.96 2.72501,18.0341 2.47205,18.2673 C3.22492,20.0844 5.89258,23.5179 8.18155,23.6532 C11.0928,24.7988 11.6308,25.9519 12.1869,27.1436 C12.381,27.5597 12.5773,27.9804 12.8776,28.4073 Z" id="Path" fill-opacity="0.8" fill="url(#linearGradient-7)" fill-rule="nonzero"></path>
            <path d="M14.3061,15.6768 C14.7797,16.6242 15.3422,17.0587 16.033,17.8945 C14.5692,17.3189 12.6566,18.0914 10.6547,17.9795 C8.30277,17.8479 8.07797,14.5719 8.45078,13.2561 C8.58236,13.5631 9.03959,14.3314 10.408,14.2788 C12.1185,14.213 13.7139,14.4926 14.3061,15.6768 Z" id="Path" fill="#FFAA7F" fill-rule="nonzero"></path>
            <path d="M14.3061,15.296 C14.7797,16.2433 15.2929,17.0394 15.9837,17.8752 C14.783,17.1052 12.6566,17.7106 10.6547,17.5986 C8.30277,17.467 8.07797,14.191 8.45078,12.8752 C8.58236,13.1823 9.03959,13.9506 10.408,13.8979 C12.1185,13.8321 13.7139,14.1118 14.3061,15.296 Z" id="Path" fill="#2F1600" fill-rule="nonzero"></path>
            <circle id="Oval" fill="#000000" fill-rule="nonzero" cx="11.8199" cy="15.7563" r="1.75723"></circle>
            <ellipse id="Oval" fill="#DADADA" fill-rule="nonzero" transform="translate(11.256725, 15.009864) rotate(-13.787058) translate(-11.256725, -15.009864) " cx="11.2567252" cy="15.0098636" rx="1" ry="1"></ellipse>
            <ellipse id="Oval" fill="#DADADA" fill-rule="nonzero" transform="translate(12.519302, 14.651851) rotate(-13.786845) translate(-12.519302, -14.651851) " cx="12.519302" cy="14.6518507" rx="1" ry="1"></ellipse>
            <path d="M20.7797,15.6768 C20.306,16.6242 19.7435,17.0587 19.0527,17.8945 C20.5166,17.3189 22.4291,18.0914 24.431,17.9795 C26.783,17.8479 27.0078,14.5719 26.635,13.2561 C26.5034,13.5631 26.0462,14.3314 24.6777,14.2788 C22.9672,14.213 21.3718,14.4926 20.7797,15.6768 Z" id="Path" fill="#FFAA7F" fill-rule="nonzero"></path>
            <path d="M20.7797,15.296 C20.306,16.2433 19.7929,17.0394 19.1021,17.8752 C20.3027,17.1052 22.4291,17.7106 24.431,17.5986 C26.783,17.467 27.0078,14.191 26.635,12.8752 C26.5034,13.1823 26.0462,13.9506 24.6777,13.8979 C22.9672,13.8321 21.3718,14.1118 20.7797,15.296 Z" id="Path" fill="#2F1600" fill-rule="nonzero"></path>
            <circle id="Oval" fill="#000000" fill-rule="nonzero" transform="translate(23.265870, 15.756230) scale(-1, 1) translate(-23.265870, -15.756230) " cx="23.26587" cy="15.75623" r="1.75723"></circle>
            <ellipse id="Oval" fill="#DADADA" fill-rule="nonzero" transform="translate(23.828975, 15.009864) scale(-1, 1) rotate(-13.787058) translate(-23.828975, -15.009864) " cx="23.8289748" cy="15.0098636" rx="1" ry="1"></ellipse>
            <ellipse id="Oval" fill="#DADADA" fill-rule="nonzero" transform="translate(22.566398, 14.651851) scale(-1, 1) rotate(-13.786845) translate(-22.566398, -14.651851) " cx="22.566398" cy="14.6518507" rx="1" ry="1"></ellipse>
            <path d="M33.9831,16.8 C33.5131,16.37 32.9431,16.24 32.6031,16.17 C32.5831,16.17 32.5631,16.17 32.5531,16.16 C32.1231,16.06 31.8331,15.98 31.5231,15.73 C31.2031,15.46 30.7731,14.92 30.3131,13.71 C30.0431,12.98 29.8531,12.19 29.6431,11.33 C30.0131,10.86 30.3231,10.27 30.5931,9.65 C30.9531,8.82 31.2631,7.86 31.4931,6.87 C31.9531,4.94 32.1731,2.73 31.8131,1.19 L31.7031,0.73 L31.2831,0.52 C28.5031,-0.72 24.2531,0.41 22.113098,2.72 C19.4831,2.06 15.2631,1.93 12.7331,2.79 C11.6931,1.59 10.1231,0.8 8.613098,0.38 C6.8731,-0.11 4.8831,-0.17 3.5031,0.51 L3.0831,0.72 L2.9731,1.18 C2.613098,2.72 2.8331,4.92 3.2931,6.86 C3.5231,7.85 3.8331,8.81 4.1931,9.64 C4.5231,10.4 4.9231,11.12 5.4031,11.63 C5.1631,12.88 4.3331,15.27 3.6031,15.73 L2.5731,16.16 C1.3731,16.49 0.613098,17.28 0.613098,17.28 L0.893098,17.94 C1.3331,18.97 2.1631,20.56 3.2331,21.93 C3.7731,22.62 4.3831,23.28 5.0731,23.78 C5.7131,24.25 6.4531,24.63 7.2731,24.72 C8.7031,25.28 9.4831,25.82 9.9631,26.29 C10.4531,26.78 10.6931,27.26 10.9931,27.9 L10.9931,27.92 C11.5931,29.36 12.9831,31 14.4331,31.47 C15.4031,31.84 16.4531,31.94 17.5331,31.97 L17.5631,31.97 L17.5931,31.97 C19.8631,31.95 21.8931,31.4 23.2831,29.4 C23.6631,28.87 23.9131,28.35 24.1231,27.92 L24.1231,27.9 C24.4431,27.26 24.6731,26.78 25.1631,26.29 C25.6431,25.81 26.4231,25.28 27.8531,24.72 C28.6731,24.63 29.4231,24.26 30.0531,23.78 C30.7331,23.27 31.3531,22.61 31.8931,21.93 C32.9631,20.56 33.7931,18.97 34.2331,17.94 L34.5131,17.28 L33.9831,16.8 Z M27.6231,23.73 C24.4231,24.96 23.8331,26.19 23.2231,27.47 C23.0131,27.92 22.7931,28.37 22.4631,28.82 C21.1931,30.59 19.6531,30.92 17.5531,30.98 C15.4531,30.93 13.9231,30.59 12.6431,28.82 C12.3131,28.36 12.0931,27.91 11.8831,27.47 C11.2731,26.19 10.6831,24.96 7.4831,23.73 C4.9731,23.58 2.6231,19.49 1.7931,17.54 L2.8931,17.26 C3.9631,16.97 4.7631,16.67 5.7331,14.04 C5.9631,13.41 6.1431,12.75 6.3131,12.08 C6.3731,11.85 6.5831,11.55 6.6331,11.31 C6.7731,10.67 7.2731,9.28 7.2731,9.12 C6.8831,9.78 6.2131,10.85 6.1131,10.81 C4.5831,9.31 3.3231,4.03 3.9331,1.41 C5.7731,0.49 10.4831,1.91 12.1431,3.95 C12.3931,4.26 10.6131,4.79 10.6131,5.01 C11.9931,4.52 15.4231,3.2 17.5431,3.29 C20.9231,3.43 22.0931,3.95 24.7031,5.2 C23.9731,4.77 22.6431,3.79 22.6431,3.79 C23.1331,2.16 29.1631,0.58 30.8231,1.4 C31.4331,4.03 30.2831,9.14 28.7531,10.64 C28.7431,10.64 28.1031,9.96 27.4631,9.16 C27.5031,9.33 28.6131,11.34 28.6531,11.5 C28.8631,12.37 29.0631,13.23 29.3631,14.03 C30.3331,16.65 31.4231,16.91 32.3031,17.11 C32.6831,17.2 33.0231,17.28 33.2931,17.53 C32.4631,19.48 30.1231,23.57 27.6031,23.72 L27.6231,23.73 Z" id="Shape" fill="#181022"></path>
        </g>
    </g>
</svg>