<svg xmlns="http://www.w3.org/2000/svg" width="38" height="38"><g fill="none" fill-rule="evenodd"><path fill="#271238" fill-opacity=".7" fill-rule="nonzero" d="m19 5.133 4.514 9.787 10.703 1.269-7.913 7.318 2.101 10.571L19 28.813l-9.405 5.265 2.101-10.571-7.913-7.318 10.703-1.269z"/><path fill="#A50DFE" fill-rule="nonzero" d="m19 5.547 3.546 7.687.25.542.593.07 8.406.997-6.215 5.747-.438.406.116.585 1.65 8.303-7.387-4.135-.521-.291-.521.291-7.387 4.135 1.65-8.303.116-.585-.438-.406-6.215-5.747 8.406-.997.593-.07.25-.542z"/><path stroke="#D387FF" stroke-width="2.133" d="m19 5.547 3.546 7.687.25.542.593.07 8.406.997-6.215 5.747-.438.406.116.585 1.65 8.303-7.387-4.135-.521-.291-.521.291-7.387 4.135 1.65-8.303.116-.585-.438-.406-6.215-5.747 8.406-.997.593-.07.25-.542z"/></g></svg>