<?xml version="1.0" encoding="UTF-8"?>
<svg width="38px" height="38px" viewBox="0 0 38 38" version="1.1" xmlns="http://www.w3.org/2000/svg" xmlns:xlink="http://www.w3.org/1999/xlink">
    <!-- Generator: Sketch 56.3 (81716) - https://sketch.com -->
    <title>yellow</title>
    <desc>Created with Sketch.</desc>
    <defs>
        <linearGradient x1="42.5685421%" y1="18.0837872%" x2="51.9552124%" y2="93.6651822%" id="linearGradient-1">
            <stop stop-color="#FFD952" offset="0%"></stop>
            <stop stop-color="#B38E0D" offset="100%"></stop>
        </linearGradient>
        <linearGradient x1="50%" y1="0%" x2="50%" y2="82.0981672%" id="linearGradient-2">
            <stop stop-color="#FFEC3F" offset="0%"></stop>
            <stop stop-color="#000000" stop-opacity="0.67" offset="100%"></stop>
        </linearGradient>
    </defs>
    <g id="yellow" stroke="none" stroke-width="1" fill="none" fill-rule="evenodd">
        <g id="Chicken" transform="translate(5.000000, 2.000000)">
            <path d="M18.2483,7.84161 C18.5899,7.75852 18.9223,7.77466 19.222,7.90661 C19.9812,8.24089 20.3339,9.23186 20.2209,10.4154 C24.3604,12.7731 28.8867,17.6816 28.8867,22.4869 C28.8867,27.2743 26.0169,30.5413 16.0742,30.5413 C5.70417,30.5413 3.19916,27.3327 3.19916,22.4869 C3.19916,17.8984 7.44191,13.0005 11.443,10.5564 C11.2872,9.31115 11.6372,8.25409 12.4264,7.90661 C12.8782,7.70769 13.4043,7.77198 13.9242,8.04262 C14.0888,5.4453 14.9973,3.4585 16.0934,3.4585 C17.161,3.4585 18.0507,5.34349 18.2483,7.84161 Z" id="Path" fill-opacity="0.5" fill="#281342" fill-rule="nonzero"></path>
            <path d="M27.1054,20.9456 C27.1054,25.733 24.2356,29 14.2929,29 C3.92292,29 1.41791,25.7913 1.41791,20.9456 C1.41791,14.4966 9.7988,7.43652 14.1106,7.43652 C18.4224,7.43652 27.1054,14.29 27.1054,20.9456 Z" id="Path" fill="#FFD952" fill-rule="nonzero"></path>
            <path d="M27.1054,20.9456 C27.1054,25.733 24.2356,29 14.2929,29 C3.92292,29 1.41791,25.7913 1.41791,20.9456 C1.41791,14.4966 9.7988,7.43652 14.1106,7.43652 C18.4224,7.43652 27.1054,14.29 27.1054,20.9456 Z" id="Path" fill-opacity="0.5" fill="url(#linearGradient-1)" fill-rule="nonzero"></path>
            <ellipse id="Oval" fill="#D83B3B" fill-rule="nonzero" transform="translate(12.116300, 9.706760) rotate(-23.763600) translate(-12.116300, -9.706760) " cx="12.1163" cy="9.70676" rx="2.19584" ry="3.6509"></ellipse>
            <ellipse id="Oval" fill="#D83B3B" fill-rule="nonzero" transform="translate(15.969551, 9.706758) scale(-1, 1) rotate(-23.763600) translate(-15.969551, -9.706758) " cx="15.9695508" cy="9.70675762" rx="2.19584034" ry="3.65090057"></ellipse>
            <ellipse id="Oval" fill="#D83B3B" fill-rule="nonzero" cx="14.3121" cy="7.34971" rx="2.19584" ry="5.43247"></ellipse>
            <path d="M10.5216,18.7405 C10.5098,20.2738 9.62,21.5167 8.534,21.5167 C7.44806,21.5167 6.57725,20.2738 6.589,18.7405 C6.60076,17.2073 7.49063,15.9644 8.5766,15.9644 C9.6625,15.9644 10.5334,17.2073 10.5216,18.7405 Z" id="Path" fill="#FFF0BC" fill-rule="nonzero"></path>
            <path d="M10.2784,18.2823 C10.346,19.8141 9.5977,21.0975 8.6068,21.1489 C7.61602,21.2003 6.75793,20.0002 6.69026,18.4684 C6.62258,16.9366 7.37095,15.6532 8.3618,15.6018 C9.3526,15.5504 10.2107,16.7505 10.2784,18.2823 Z" id="Path" fill="#121012" fill-rule="nonzero"></path>
            <ellipse id="Oval" fill="#DADADA" fill-rule="nonzero" transform="translate(8.115487, 16.833384) rotate(-13.787058) translate(-8.115487, -16.833384) " cx="8.11548737" cy="16.8333836" rx="1" ry="1"></ellipse>
            <ellipse id="Oval" fill="#DADADA" fill-rule="nonzero" transform="translate(9.311209, 16.677896) rotate(-13.786845) translate(-9.311209, -16.677896) " cx="9.31120898" cy="16.6778962" rx="1" ry="1"></ellipse>
            <ellipse id="Oval" fill="#0D0D0D" fill-rule="nonzero" transform="translate(6.717316, 16.455043) scale(-1, 1) rotate(-48.813761) translate(-6.717316, -16.455043) " cx="6.71731602" cy="16.4550427" rx="1" ry="1"></ellipse>
            <ellipse id="Oval" fill="#0D0D0D" fill-rule="nonzero" transform="translate(6.551638, 17.284085) scale(-1, 1) rotate(-30.943360) translate(-6.551638, -17.284085) " cx="6.55163793" cy="17.2840853" rx="1" ry="1"></ellipse>
            <path d="M17.5642,18.7405 C17.576,20.2738 18.4658,21.5167 19.5518,21.5167 C20.6378,21.5167 21.5086,20.2738 21.4968,18.7405 C21.4851,17.2073 20.5952,15.9644 19.5092,15.9644 C18.4233,15.9644 17.5525,17.2073 17.5642,18.7405 Z" id="Path" fill="#FFF0BC" fill-rule="nonzero"></path>
            <path d="M17.8074,18.2823 C17.7398,19.8141 18.4881,21.0975 19.479,21.1489 C20.4698,21.2003 21.3279,20.0002 21.3956,18.4684 C21.4632,16.9366 20.7149,15.6532 19.724,15.6018 C18.7332,15.5504 17.8751,16.7505 17.8074,18.2823 Z" id="Path" fill="#121012" fill-rule="nonzero"></path>
            <ellipse id="Oval" fill="#DADADA" fill-rule="nonzero" transform="translate(19.970293, 16.833384) scale(-1, 1) rotate(-13.787058) translate(-19.970293, -16.833384) " cx="19.9702926" cy="16.8333836" rx="1" ry="1"></ellipse>
            <ellipse id="Oval" fill="#DADADA" fill-rule="nonzero" transform="translate(18.774591, 16.677896) scale(-1, 1) rotate(-13.786845) translate(-18.774591, -16.677896) " cx="18.774591" cy="16.6778962" rx="1" ry="1"></ellipse>
            <ellipse id="Oval" fill="#0D0D0D" fill-rule="nonzero" transform="translate(21.368484, 16.455043) rotate(-48.813761) translate(-21.368484, -16.455043) " cx="21.368484" cy="16.4550427" rx="1" ry="1"></ellipse>
            <ellipse id="Oval" fill="#0D0D0D" fill-rule="nonzero" transform="translate(21.534192, 17.284085) rotate(-30.943360) translate(-21.534192, -17.284085) " cx="21.5341921" cy="17.2840853" rx="1" ry="1"></ellipse>
            <path d="M16.8326,21.2084 C16.8326,21.91 14.8649,24.5811 14.5429,24.5811 C14.2209,24.5811 12.2532,21.91 12.2532,21.2084 C12.2532,20.5068 13.2784,19.938 14.5429,19.938 C15.8075,19.938 16.8326,20.5068 16.8326,21.2084 Z" id="Path" fill="#FF8B20" fill-rule="nonzero"></path>
            <path d="M16.8326,21.2084 C16.8326,21.91 14.8649,24.5811 14.5429,24.5811 C14.2209,24.5811 12.2532,21.91 12.2532,21.2084 C12.2532,20.5068 13.2784,19.938 14.5429,19.938 C15.8075,19.938 16.8326,20.5068 16.8326,21.2084 Z" id="Path" fill-opacity="0.2" fill="url(#linearGradient-2)" fill-rule="nonzero"></path>
            <path d="M16.2119,21.0416 C16.2254,21.2869 15.6266,21.6014 15.4485,21.5896 C15.1948,21.5727 14.9036,21.5668 14.9009,21.5175 C14.8982,21.4682 15.2187,21.3304 15.4675,21.1628 C15.7162,20.9953 16.1985,20.7963 16.2119,21.0416 Z" id="Path" fill="#D56804" fill-rule="nonzero"></path>
            <path d="M12.7679,21.0416 C12.7544,21.2869 13.3532,21.6014 13.5313,21.5896 C13.785,21.5727 14.0762,21.5668 14.0789,21.5175 C14.0816,21.4682 13.7611,21.3304 13.5123,21.1628 C13.2636,20.9953 12.7813,20.7963 12.7679,21.0416 Z" id="Path" fill="#D56804" fill-rule="nonzero"></path>
            <path d="M17.3581,5.29658 C17.5213,5.32929 17.6838,5.37973 17.8437,5.45014 C18.992,5.95574 19.4222,7.16046 19.4568,8.31421 C21.4725,9.55198 23.5204,11.3267 25.1145,13.3785 C26.8385,15.5976 28.1054,18.2382 28.1054,20.9457 C28.1054,23.5589 27.3064,25.9233 25.013,27.5789 C22.7961,29.1793 19.3346,30.0001 14.2929,30.0001 C9.0519,30.0001 5.56326,29.1987 3.37583,27.5968 C1.10197,25.9316 0.41791,23.5491 0.41791,20.9457 C0.41791,18.356 1.6061,15.7775 3.23635,13.5804 C4.74189,11.5513 6.68507,9.76395 8.6257,8.48823 C8.6219,7.97231 8.6945,7.47 8.8581,7.01513 C9.0918,6.36535 9.5349,5.76155 10.2422,5.45014 C10.5835,5.29983 10.9322,5.24081 11.2733,5.2498 C11.4161,4.32956 11.6534,3.49282 11.9727,2.81114 C12.4108,1.87577 13.1842,0.917236 14.3121,0.917236 C15.4699,0.917236 16.2082,1.89691 16.6154,2.73508 C16.9593,3.44317 17.2113,4.32554 17.3581,5.29658 Z M17.0222,6.25643 C16.6154,6.21637 16.3415,6.96911 16.1523,7.01513 C16.125,6.66983 16.4587,5.98281 16.3468,5.30294 C16.0201,3.31714 15.2322,1.91724 14.3121,1.91724 C13.3688,1.91724 12.5643,3.38899 12.2535,5.45504 C12.2032,5.78948 12.2765,6.65327 12.2535,7.01513 C12.0898,6.48438 11.4749,6.23944 11.1581,6.25021 C10.0367,6.28831 9.6169,7.52734 9.6257,8.48823 C9.6763,8.80104 9.8173,9.63239 9.8398,9.8125 C9.742,9.87221 9.2815,9.3124 9.1835,9.375 C5.27126,11.8747 1.41791,16.4692 1.41791,20.9457 C1.41791,25.7914 3.92292,29.0001 14.2929,29.0001 C24.2356,29.0001 27.1054,25.733 27.1054,20.9457 C27.1054,16.2851 22.951,11.5741 18.91791,9.14062 C18.7927,9.06506 18.402,9.88351 18.2773,9.8125 C18.2994,9.58053 18.4661,8.41754 18.4529,8.20386 C18.4001,7.34982 17.9765,6.35041 17.0222,6.25643 Z" id="Shape" fill="#181022"></path>
        </g>
    </g>
</svg>