<svg clip-rule="evenodd" stroke-linecap="round" stroke-linejoin="round" stroke-miterlimit="10" viewBox="0 0 38 38" xmlns="http://www.w3.org/2000/svg" xmlns:xlink="http://www.w3.org/1999/xlink"><linearGradient id="a" gradientUnits="userSpaceOnUse" x1="16.70039" x2="19.11159" y1="11.72256" y2="34.85063"><stop offset="0" stop-color="#ffd952"/><stop offset="1" stop-color="#b38e0d"/></linearGradient><linearGradient id="b" gradientUnits="userSpaceOnUse" x1="18.89059" x2="18.89059" y1="23.20873" y2="27.02063"><stop offset="0" stop-color="#ffec3f"/><stop offset="1" stop-opacity=".67"/></linearGradient><g><path d="m22.596 11.1123c.3416-.083.674-.0669.9737.065.7592.3343 1.1119 1.3253.9989 2.5088 4.1395 2.3577 8.6658 7.2662 8.6658 12.0715 0 4.7874-2.8698 8.0544-12.8125 8.0544-10.37 0-12.87505-3.2086-12.87505-8.0544 0-4.5885 4.24275-9.4864 8.24385-11.9305-.1558-1.2452.1942-2.3023.9834-2.6498.4518-.1989.9779-.1346 1.4978.1361.1646-2.59737 1.0731-4.58417 2.1692-4.58417 1.0676 0 1.9573 1.88499 2.1549 4.38307z" fill="#281342" fill-opacity=".5"/><path d="m31.4531 24.2163c0 4.7874-2.8698 8.0544-12.8125 8.0544-10.36999 0-12.875-3.2087-12.875-8.0544 0-6.449 8.3809-13.509 12.6927-13.509s12.9948 6.8534 12.9948 13.509z" fill="#ffd952"/><path d="m31.4531 24.2163c0 4.7874-2.8698 8.0544-12.8125 8.0544-10.36999 0-12.875-3.2087-12.875-8.0544 0-6.449 8.3809-13.509 12.6927-13.509s12.9948 6.8534 12.9948 13.509z" fill="url(#a)"/><g fill="#d83b3b"><path d="m14.4543 13.8623c-.8125-1.8453-.5714-3.7375.5385-4.22617 1.1099-.48869 2.6684.61117 3.4809 2.45647.8125 1.8454.5714 3.7376-.5385 4.2263-1.1099.4886-2.6684-.6112-3.4809-2.4566z"/><path d="m22.3269 13.8623c.8125-1.8453.5714-3.7375-.5385-4.22617-1.1099-.48869-2.6683.61117-3.4808 2.45647-.8125 1.8454-.5714 3.7376.5385 4.2263 1.1099.4886 2.6683-.6112 3.4808-2.4566z"/><path d="m16.464 10.6204c0-3.00023.9831-5.43243 2.1958-5.43243s2.1958 2.4322 2.1958 5.43243c0 3.0003-.9831 5.4325-2.1958 5.4325s-2.1958-2.4322-2.1958-5.4325z"/></g><path d="m14.8693 22.0112c-.0118 1.5333-.9016 2.7762-1.9876 2.7762-1.0859 0-1.9568-1.2429-1.945-2.7762.0118-1.5332.9016-2.7761 1.9876-2.7761 1.0859 0 1.9568 1.2429 1.945 2.7761z" fill="#fff0bc"/><path d="m14.6261 21.553c.0676 1.5318-.6807 2.8152-1.6716 2.8666-.9908.0514-1.8489-1.1487-1.9165-2.6805-.0677-1.5318.6806-2.8152 1.6715-2.8666.9908-.0514 1.8489 1.1487 1.9166 2.6805z" fill="#121012"/><path d="m11.9006 20.2458c-.0766-.3125.1132-.6293.4239-.7076.3107-.0782.6247.1117.7013.4242.0765.3125-.1133.6293-.424.7076-.3107.0782-.6246-.1117-.7012-.4242z" fill="#dadada"/><path d="m13.456 19.9997c-.0276-.1127.0408-.2269.1529-.2552.1121-.0282.2253.0403.2529.153s-.0408.227-.1529.2552c-.1121.0283-.2253-.0402-.2529-.153z" fill="#dadada"/><path d="m11.4759 20.1987c.1355-.1196.0613-.4283-.1656-.6895-.227-.2612-.5208-.376-.6562-.2563-.1355.1196-.0613.4283.1657.6894.2269.2612.5207.376.6561.2564z" fill="#0d0d0d"/><path d="m11.4348 20.8801c.0926-.1552-.0721-.4266-.3678-.6063-.2957-.1796-.6105-.1994-.7031-.0443-.0926.1552.0721.4266.3678.6063.2957.1796.6105.1995.7031.0443z" fill="#0d0d0d"/><path d="m21.9119 22.0112c.0118 1.5333.9016 2.7762 1.9876 2.7762s1.9568-1.2429 1.945-2.7762c-.0117-1.5332-.9016-2.7761-1.9876-2.7761-1.0859 0-1.9567 1.2429-1.945 2.7761z" fill="#fff0bc"/><path d="m22.1551 21.553c-.0676 1.5318.6807 2.8152 1.6716 2.8666.9908.0514 1.8489-1.1487 1.9166-2.6805.0676-1.5318-.6807-2.8152-1.6716-2.8666-.9908-.0514-1.8489 1.1487-1.9166 2.6805z" fill="#121012"/><path d="m24.8806 20.2458c.0765-.3125-.1133-.6293-.424-.7076-.3107-.0782-.6246.1117-.7012.4242s.1133.6293.424.7076c.3107.0782.6246-.1117.7012-.4242z" fill="#dadada"/><path d="m23.3252 19.9997c.0276-.1127-.0408-.2269-.1529-.2552-.1121-.0282-.2253.0403-.2529.153s.0408.227.1529.2552c.112.0283.2253-.0402.2529-.153z" fill="#dadada"/><path d="m25.3052 20.1987c-.1354-.1196-.0612-.4283.1657-.6895.227-.2612.5208-.376.6562-.2563.1355.1196.0613.4283-.1657.6894-.2269.2612-.5207.376-.6562.2564z" fill="#0d0d0d"/><path d="m25.3464 20.8801c-.0925-.1552.0721-.4266.3678-.6063.2958-.1796.6106-.1994.7031-.0443.0926.1552-.0721.4266-.3678.6063-.2957.1796-.6105.1995-.7031.0443z" fill="#0d0d0d"/><path d="m21.1803 24.4791c0 .7016-1.9677 3.3727-2.2897 3.3727s-2.2897-2.6711-2.2897-3.3727 1.0252-1.2704 2.2897-1.2704c1.2646 0 2.2897.5688 2.2897 1.2704z" fill="#ff8b20"/><path d="m21.1803 24.4791c0 .7016-1.9677 3.3727-2.2897 3.3727s-2.2897-2.6711-2.2897-3.3727 1.0252-1.2704 2.2897-1.2704c1.2646 0 2.2897.5688 2.2897 1.2704z" fill="url(#b)"/><path d="m20.5596 24.3123c.0135.2453-.5853.5598-.7634.548-.2537-.0169-.5449-.0228-.5476-.0721s.3178-.1871.5666-.3547c.2487-.1675.731-.3665.7444-.1212z" fill="#d56804"/><path d="m17.1156 24.3123c-.0135.2453.5853.5598.7634.548.2537-.0169.5449-.0228.5476-.0721s-.3178-.1871-.5666-.3547c-.2487-.1675-.731-.3665-.7444-.1212z" fill="#d56804"/><path d="m21.7058 8.56731c.1632.03271.3257.08315.4856.15356 1.1483.5056 1.5785 1.71033 1.6131 2.86403 2.0157 1.2378 4.0636 3.0125 5.6577 5.0643 1.724 2.2191 2.9909 4.8597 2.9909 7.5672 0 2.6132-.799 4.9776-3.0924 6.6332-2.2169 1.6004-5.6784 2.4212-10.7201 2.4212-5.241 0-8.72965-.8014-10.91708-2.4033-2.27386-1.6652-2.95792-4.0477-2.95792-6.6511 0-2.5897 1.18819-5.1682 2.81844-7.3653 1.50554-2.0291 3.44876-3.8164 5.38936-5.0921-.0038-.516.0688-1.0183.2324-1.4731.2337-.64982.6768-1.25362 1.3841-1.56503.3413-.15031.69-.20933 1.0311-.20034.1428-.92024.3801-1.75698.6994-2.43866.4381-.93537 1.2115-1.8939 2.3394-1.8939 1.1578 0 1.8961.97967 2.3033 1.81784.3439.70809.5959 1.59046.7427 2.5615zm-.3359.95985c-.4068-.04006-.6807.71264-.8699.75874-.0273-.34534.3064-1.03236.1945-1.71223-.3267-1.9858-1.1146-3.3857-2.0347-3.3857-.9433 0-1.7478 1.47175-2.0586 3.5378-.0503.33444.023 1.19823 0 1.56013-.1637-.53079-.7786-.77573-1.0954-.76496-1.1214.0381-1.5412 1.27716-1.5324 2.23806.0506.3128.1916 1.1441.2141 1.3242-.0978.0597-.5583-.5001-.6563-.4375-3.91225 2.4997-7.7656 7.0942-7.7656 11.5707 0 4.8457 2.50501 8.0544 12.875 8.0544 9.9427 0 12.8125-3.2671 12.8125-8.0544 0-4.6606-4.1544-9.3716-8.1875-11.805-.1252-.0756-.5159.7428-.6406.6718.0221-.2319.1888-1.3949.1756-1.6086-.0528-.854-.4764-1.85346-1.4307-1.94744z" fill="#181022" fill-rule="evenodd"/></g></svg>