<svg clip-rule="evenodd" stroke-linecap="round" stroke-linejoin="round" stroke-miterlimit="10" viewBox="0 0 38 38" xmlns="http://www.w3.org/2000/svg" xmlns:xlink="http://www.w3.org/1999/xlink"><linearGradient id="a"><stop offset="0"/><stop offset=".708333" stop-color="#ff7235"/><stop offset="1" stop-color="#ff7235"/></linearGradient><linearGradient id="b" gradientUnits="userSpaceOnUse" x1="30.51325" x2="23.43325" xlink:href="#a" y1="3.904112" y2="10.421422"/><linearGradient id="c"><stop offset="0" stop-color="#ffb3a9"/><stop offset="1" stop-color="#ff7235"/></linearGradient><linearGradient id="d" gradientUnits="userSpaceOnUse" x1="29.34525" x2="25.28235" xlink:href="#c" y1="5.565622" y2="12.381122"/><linearGradient id="e" gradientUnits="userSpaceOnUse" x1="6.06101" x2="13.14105" xlink:href="#a" y1="3.904112" y2="10.421422"/><linearGradient id="f" gradientUnits="userSpaceOnUse" x1="7.22898" x2="11.29185" xlink:href="#c" y1="5.565622" y2="12.381122"/><linearGradient id="g" gradientUnits="userSpaceOnUse" x1="7.21424" x2="24.57515" y1="3.918922" y2="31.178122"><stop offset="0" stop-color="#ff7c03"/><stop offset="1" stop-color="#d9d9d9" stop-opacity="0"/></linearGradient><clipPath id="h"><path clip-rule="evenodd" d="m13.5495 32.0502c1.2741 1.7672 2.8067 2.1005 4.9062 2.1553 2.0996-.0548 3.6322-.3881 4.9063-2.1553.3297-.4573.5453-.9081.7584-1.3539.6106-1.2768 1.2013-2.5121 4.3978-3.7395 2.5133-.145 4.8609-4.2408 5.6875-6.1875-.2777-.2499-.6169-.3293-.9931-.4173-.8834-.2067-1.9706-.4612-2.9444-3.0827-.3-.8078-.5063-1.6681-.7139-2.534-.5969-2.8252-2.2236-8.59188-11.0986-8.2169-8.87501-.37498-10.50171 5.3917-11.09859 8.2169-.20763.8659-.41391 1.7262-.71393 2.534-.97373 2.6215-2.06095 2.876-2.94434 3.0827-.37618.088-.7154.1674-.99315.4173.82665 1.9467 3.17423 6.0425 5.6875 6.1875 3.19661 1.2274 3.78731 2.4627 4.39791 3.7395.2131.4458.4287.8966.7584 1.3539z"/></clipPath><g><path d="m9.22737 15.0031c-1.52961-1.4982-2.8603-6.96319-2.24985-9.589 2.12438-1.0547 6.81708.01778 8.41578 2.54376 1.377-.48672 3.0823-.74708 5.2005-.65758 1.9787-.0836 3.5971.13809 4.9241.5644 1.6537-2.45904 6.2569-3.49222 8.355-2.45058.6104 2.62581-.7203 8.0908-2.2499 9.589-.0135.0055-.0272.0109-.041.0161.0407.1741.0771.3406.1104.4979.2076.866.4139 1.7263.7139 2.534.9737 2.6216 2.061 2.876 2.9443 3.0828.3762.088.7154.1674.9932.4172-.8267 1.9468-3.1742 6.0426-5.6875 6.1876-3.1966 1.2274-3.7873 2.4627-4.3978 3.7395-.2132.4457-.4288.8966-.7585 1.3538-1.2741 1.7672-2.8067 2.1006-4.9062 2.1553-2.0995-.0547-3.6321-.3881-4.9063-2.1553-.3297-.4572-.5452-.9081-.7584-1.3538-.6105-1.2768-1.2012-2.5121-4.3978-3.7395-2.51332-.145-4.8609-4.2408-5.68755-6.1876.27775-.2498.61697-.3292.99315-.4172.88339-.2068 1.97061-.4612 2.94434-3.0828.30002-.8077.5063-1.668.71393-2.534.02727-.129.0567-.2643.08886-.4048-.12742-.0283-.24679-.0647-.35666-.1092z" fill="#281342" fill-opacity=".5"/><path d="m31.7348 4.63229c.6105 2.62581-.7202 8.09071-2.2498 9.58901-1.8064.7308-6.1812-.7026-6.685-4.78498-.5039-4.0824 6.2566-6.13372 8.9348-4.80403z" fill="url(#b)"/><path d="m30.2388 6.09826c.4466 1.9207-.5268 5.91814-1.6456 7.01404-1.3214.5346-4.5214-.5139-4.8899-3.50008-.3686-2.98611 4.5765-4.48659 6.5355-3.51396z" fill="url(#d)"/><path d="m4.83949 4.63229c-.61046 2.62581.72024 8.09071 2.24985 9.58901 1.80641.7308 6.18126-.7026 6.68506-4.78498.5038-4.0824-6.25665-6.13372-8.93491-4.80403z" fill="url(#e)"/><path d="m6.33548 6.09826c-.44653 1.9207.52683 5.91814 1.6457 7.01404 1.32133.5346 4.52142-.5139 4.88992-3.50008.3685-2.98611-4.57656-4.48659-6.53562-3.51396z" fill="url(#f)"/><path d="m13.5495 32.0502c1.2741 1.7672 2.8067 2.1005 4.9062 2.1553 2.0996-.0548 3.6322-.3881 4.9063-2.1553.3297-.4573.5453-.9081.7584-1.3539.6106-1.2768 1.2013-2.5121 4.3978-3.7395 2.5133-.145 4.8609-4.2408 5.6875-6.1875-.2777-.2499-.6169-.3293-.9931-.4173-.8834-.2067-1.9706-.4612-2.9444-3.0827-.3-.8078-.5063-1.6681-.7139-2.534-.5969-2.8252-2.2236-8.59188-11.0986-8.2169-8.87501-.37498-10.50171 5.3917-11.09859 8.2169-.20763.8659-.41391 1.7262-.71393 2.534-.97373 2.6215-2.06095 2.876-2.94434 3.0827-.37618.088-.7154.1674-.99315.4173.82665 1.9467 3.17423 6.0425 5.6875 6.1875 3.19661 1.2274 3.78731 2.4627 4.39791 3.7395.2131.4458.4287.8966.7584 1.3539z" fill="#ff4d00" fill-rule="evenodd"/><g clip-path="url(#h)"><path d="m3.71808 22.7216c6.47592 4.2903 9.86952 3.1855 11.08452 1.9972.9546-1.0421 2.2395-1.6805 3.6528-1.6805 1.4421 0 2.7506.6648 3.7109 1.7448 1.2707 1.1622 4.6576 2.1512 11.0164-2.0615l-.9148 8.3246c-4.3101 2.0952-12.6354 6.0946-13.755 6.4549.0004.0082.0006.0143.0006.0183 0 .0106-.0216.0103-.0631-.0001-.0415.0104-.0631.0107-.0631.0001 0-.004.0002-.0101.0005-.0183-1.1195-.3603-9.44483-4.3597-13.755-6.4549zm14.73232 13.8642c.0232-.3199.052-.7097.0849-1.1504-.0266.0004-.0532.0007-.0799.0007-.03 0-.06-.0003-.0899-.0009.0329.4408.0617.8306.0849 1.1506z" fill="#f8cf9f" fill-rule="evenodd"/></g><path d="m18.4216 32.081v1.3689" fill="none" stroke="#cc9f60" stroke-linecap="butt" stroke-linejoin="miter" stroke-width=".452516"/><path d="m15.3597 30.1197c0-1.0833 1.3945-1.9615 3.1149-1.9615 1.7203 0 3.1149.8782 3.1149 1.9615s-1.3946 1.9615-3.1149 1.9615c-1.7204 0-3.1149-.8782-3.1149-1.9615z" fill="#4a1717"/><path d="m21.1026 29.6428c.1502.3565-.9686 1.3787-1.3538 1.5243-.5485.2074-1.1715.4657-1.2016.3941-.0302-.0717.5839-.5729 1.0304-1.053.4465-.4802 1.3747-1.2219 1.525-.8654z" fill="#020202"/><path d="m16.1144 29.6428c-.1502.3565.9686 1.3787 1.3538 1.5243.5485.2074 1.1715.4657 1.2017.3941.0302-.0717-.584-.5729-1.0305-1.053-.4465-.4802-1.3747-1.2219-1.525-.8654z" fill="#020202"/><path d="m15.9497 32.6367c2.0287 1.054 3.1022 1.1141 4.8792 0" fill="none" stroke="#cb9c5a" stroke-linecap="round" stroke-linejoin="round" stroke-width=".473565"/><path d="m13.9208 31.4141c1.1604 1.6494 2.5563 1.9606 4.4684 2.0117 1.9122-.0511 3.308-.3623 4.4684-2.0117.3003-.4269.4966-.8476.6907-1.2637.5561-1.1917 1.0941-2.3448 4.0054-3.4904 2.2889-.1353 4.427-3.9583 5.1799-5.7753-.253-.2332-.5619-.3073-.9045-.3895-.8046-.193-1.7948-.4305-2.6816-2.8774-.2733-.7539-.4611-1.5569-.6502-2.3652-.5436-2.6369-2.0252-8.01945-10.1081-7.66944-8.083-.35001-9.5645 5.03254-10.10811 7.66944-.1891.8083-.37697 1.6113-.65022 2.3652-.88682 2.4469-2.4066 3.0739-3.21116 3.2669-.3426.0821-.65155.1562-.90451.3894.75287 1.8171 3.42053 5.2506 5.7095 5.3859 2.9113 1.1456 3.4493 2.2987 4.0054 3.4904.1941.4161.3904.8368.6907 1.2637z" fill="url(#g)"/><path d="m15.3493 18.6836c.4736.9474 1.0361 1.3819 1.7269 2.2177-1.4638-.5756-3.3764.1969-5.3783.085-2.35198-.1316-2.57678-3.4076-2.20397-4.7234.13158.307.58877 1.0753 1.95727 1.0227 1.7105-.0658 3.3059.2138 3.8981 1.398z" fill="#ffaa7f"/><path d="m15.3493 18.3028c.4736.9473.9868 1.7434 1.6776 2.5792-1.2007-.77-3.3271-.1646-5.329-.2766-2.35198-.1316-2.57678-3.4076-2.20397-4.7234.13158.3071.58877 1.0754 1.95727 1.0227 1.7105-.0658 3.3059.2139 3.8981 1.3981z" fill="#2f1600"/><path d="m11.1058 18.7631c0-.9705.7868-1.7572 1.7573-1.7572.9704 0 1.7572.7867 1.7572 1.7572s-.7868 1.7573-1.7572 1.7573c-.9705 0-1.7573-.7868-1.7573-1.7573z"/><path d="m11.7066 18.1661c-.0808-.3296.1194-.6637.4471-.7462.3276-.0825.6587.1178.7395.4474.0807.3296-.1194.6637-.4471.7462s-.6588-.1178-.7395-.4474z" fill="#dadada"/><path d="m13.3694 17.7073c-.0263-.1072.0389-.2159.1455-.2428.1066-.0268.2143.0383.2406.1456.0263.1072-.0389.2159-.1455.2427-.1066.0269-.2143-.0383-.2406-.1455z" fill="#dadada"/><path d="m21.8229 18.6836c-.4737.9474-1.0362 1.3819-1.727 2.2177 1.4639-.5756 3.3764.1969 5.3783.085 2.352-.1316 2.5768-3.4076 2.204-4.7234-.1316.307-.5888 1.0753-1.9573 1.0227-1.7105-.0658-3.3059.2138-3.898 1.398z" fill="#ffaa7f"/><path d="m21.8229 18.3028c-.4737.9473-.9868 1.7434-1.6776 2.5792 1.2006-.77 3.327-.1646 5.3289-.2766 2.352-.1316 2.5768-3.4076 2.204-4.7234-.1316.3071-.5888 1.0754-1.9573 1.0227-1.7105-.0658-3.3059.2139-3.898 1.3981z" fill="#2f1600"/><path d="m26.0663 18.7631c0-.9705-.7868-1.7573-1.7573-1.7573s-1.7572.7868-1.7572 1.7573c0 .9704.7867 1.7572 1.7572 1.7572s1.7573-.7868 1.7573-1.7572z"/><path d="m25.4654 18.1661c.0808-.3296-.1194-.6637-.4471-.7462-.3276-.0825-.6587.1178-.7395.4474-.0807.3296.1194.6637.4471.7462s.6588-.1178.7395-.4474z" fill="#dadada"/><path d="m23.8026 17.7073c.0263-.1072-.0389-.2159-.1455-.2428-.1066-.0268-.2143.0383-.2406.1456-.0263.1072.0389.2159.1455.2427.1066.0269.2143-.0383.2406-.1455z" fill="#dadada"/><path d="m35.0263 19.8068c-.47-.43-1.04-.56-1.38-.63-.02 0-.04 0-.05-.01-.43-.1-.72-.18-1.03-.43-.32-.27-.75-.81-1.21-2.02-.27-.73-.46-1.52-.67-2.38.37-.47.68-1.06.95-1.68.36-.83.67-1.79.9-2.77998.46-1.93.68-4.14.32-5.68l-.11-.46-.42-.21c-2.78-1.24-7.03-.11-9.17 2.2-2.63-.66-6.85-.79-9.38.07-1.04-1.2-2.61-1.99-4.12005-2.41-1.74-.49-3.73-.55-5.11.13l-.42.21-.11.46c-.36 1.54-.14 3.74.32 5.68.23.98998.54 1.94998.9 2.77998.33.76.73 1.48 1.21 1.99-.24 1.25-1.07 3.64-1.8 4.1l-1.03.43c-1.2.33-1.96 1.12-1.96 1.12l.28.66c.44 1.03 1.27 2.62 2.34 3.99.54.69 1.15 1.35 1.84 1.85.64.47 1.38.85 2.2.94 1.43.56 2.21005 1.1 2.69005 1.57.49.49.73.97 1.03 1.61v.02c.6 1.44 1.99 3.08 3.44 3.55.97.37 2.02.47 3.1.5h.03.03c2.27-.02 4.3-.57 5.69-2.57.38-.53.63-1.05.84-1.48v-.02c.32-.64.55-1.12 1.04-1.61.48-.48 1.26-1.01 2.69-1.57.82-.09 1.57-.46 2.2-.94.68-.51 1.3-1.17 1.84-1.85 1.07-1.37 1.9-2.96 2.34-3.99l.28-.66zm-6.36 6.93c-3.2 1.23-3.79 2.46-4.4 3.74-.21.45-.43.9-.76 1.35-1.27 1.77-2.81 2.1-4.91 2.16-2.1-.05-3.63-.39-4.91-2.16-.33-.46-.55-.91-.76-1.35-.61-1.28-1.2-2.51-4.40005-3.74-2.51-.15-4.86-4.24-5.69-6.19l1.1-.28c1.07-.29 1.87-.59 2.84-3.22.23-.63.41-1.29.58-1.96.06-.23.27-.53.32-.77.14-.64.64-2.03.64-2.19-.39.66-1.06 1.73-1.16 1.69-1.53-1.5-2.79-6.77998-2.18-9.39998 1.84-.92 6.55005.5 8.21005 2.54.25.31-1.53.84-1.53 1.06 1.38-.49 4.81-1.81 6.93-1.72 3.38.14 4.55.66 7.16 1.91-.73-.43-2.06-1.41-2.06-1.41.49-1.63 6.52-3.21 8.18-2.39.61 2.63-.54 7.73998-2.07 9.23998-.01 0-.65-.68-1.29-1.48.04.17 1.15 2.18 1.19 2.34.21.87.41 1.73.71 2.53.97 2.62 2.06 2.88 2.94 3.08.38.09.72.17.99.42-.83 1.95-3.17 6.04-5.69 6.19z" fill="#181022" fill-rule="evenodd"/></g></svg>