<svg width="47" height="42" viewBox="0 0 47 42" fill="none" xmlns="http://www.w3.org/2000/svg">
<g filter="url(#filter0_f_990_109955)">
<path d="M39.4858 7.7121C38.1313 6.31081 35.8852 6.31082 34.5308 7.7121L17.3145 25.5236C16.7357 26.1224 15.7515 26.0327 15.2905 25.339L13.0141 21.9134C11.9371 20.2927 9.73276 19.8847 8.14709 21.0126C6.631 22.0909 6.24471 24.178 7.27441 25.7276L13.2541 34.5139C14.6085 35.9152 16.8546 35.9152 18.209 34.5139L39.4858 12.5015C40.7767 11.166 40.7767 9.04763 39.4858 7.7121Z" fill="#05FFF0"/>
</g>
<path d="M39.4858 7.7121C38.1313 6.31081 35.8852 6.31082 34.5308 7.7121L17.3145 25.5236C16.7357 26.1224 15.7515 26.0327 15.2905 25.339L13.0141 21.9134C11.9371 20.2927 9.73276 19.8847 8.14709 21.0126C6.631 22.0909 6.24471 24.178 7.27441 25.7276L13.2541 34.5139C14.6085 35.9152 16.8546 35.9152 18.209 34.5139L39.4858 12.5015C40.7767 11.166 40.7767 9.04763 39.4858 7.7121Z" fill="#85FFE2"/>
<defs>
<filter id="filter0_f_990_109955" x="0.698242" y="0.661133" width="45.7559" height="40.9038" filterUnits="userSpaceOnUse" color-interpolation-filters="sRGB">
<feFlood flood-opacity="0" result="BackgroundImageFix"/>
<feBlend mode="normal" in="SourceGraphic" in2="BackgroundImageFix" result="shape"/>
<feGaussianBlur stdDeviation="3" result="effect1_foregroundBlur_990_109955"/>
</filter>
</defs>
</svg>
