<svg height="222" viewBox="0 0 515 222" width="515" xmlns="http://www.w3.org/2000/svg"><g fill="none" fill-rule="nonzero"><path d="m349.601 39.3445 2.399 6.481 6.481 2.3982-6.481 2.3981-2.399 6.481-2.398-6.481-6.481-2.3981 6.481-2.3982z" fill="#fff2d2" fill-opacity=".8" opacity=".5"/><path d="m114.4444 31.8999 1.6505 4.4606 4.4606 1.6505-4.4606 1.6506-1.6505 4.4605-1.6506-4.4605-4.4605-1.6506 4.4605-1.6505z" fill="#fff2d2" fill-opacity=".8" opacity=".5"/><path d="m-105.714898 232.922393c-180.664 10.984-.233102-10.922393 105.714898-10.922393h515c-.6409 0-7.116553-1.360133-14.641007-2.339008-16.539818-2.151708-54.368316-29.230299-178.644993-32.341992-286.2397-7.166-201.598298 31.873393-427.428898 45.603393z" fill="#14133f"/><g opacity=".8" transform="translate(104 85)"><path d="m17.9228 20.568c1.222-7.282 5.835-20.6828 13.6456-20.4955 8.8009.211 7.7012 15.4365 16.291 21.5735 2.3374 1.67 3.0325-.461 6.3132 3.776 3.0177 3.897-.3722 7.626 1.4256 12.675 1.0596 2.976 4.821 2.78 5.227 7.821.4061 5.041-3.7171 7.131-1.7639 11.596 1.0996 2.514 2.9429 2.634 4.073 5.124.8565 1.888.5267 9.064 0 12.548-1.0193 6.742-2.8855 8.357-7.5361 13.88-4.4751 5.315-7.7388 7.821-13.2363 9.44-4.2023 1.237-6.493-3.228-10.7935-2.967-3.5262.214-5.3475 4.178-8.7569 2.967-8.3508-2.967-10.7347-4.371-15.2749-11.867-4.3472-7.177-8.08391-8.094-6.80265-17.137.61144-4.316 4.95245-9.66 5.58185-13.875.5656-3.789-2.0542-5.937-1.4256-9.709.6377-3.826 3.2728-4.513 4.4803-8.09 1.5424-4.569-2.4216-6.507 0-10.35 2.2429-3.558 7.7929-2.386 8.5523-6.91z" fill="#1d1c51"/><path d="m17.7721 20.57c1.2221-7.282 5.835-20.6828 13.6457-20.4955 0 0 9.7637 27.4815 10.7935 45.8455.8944 15.951-14.3283 25.141-10.7935 40.721 1.0798 4.76 2.0009 8.9 2.0009 8.9-.1832.054-.3461.103-.4904.147-2.0954.638-.2763.257 0 0 .1411-.132-.1202-.231-1.5105-.147-3.5263.214-5.3476 4.178-8.757 2.967-8.3508-2.967-10.7346-4.371-15.2749-11.867-4.3471-7.177-8.08387-8.094-6.80262-17.137.61144-4.316 4.95242-9.66 5.58182-13.875.5657-3.789-2.0542-5.937-1.4256-9.709.6377-3.826 3.2728-4.513 4.4804-8.09 1.5423-4.569-2.4216-6.507 0-10.35 2.2428-3.558 7.7928-2.386 8.5522-6.91z" fill="#262560"/><g fill="#11152b"><path d="m30.3726 55.46c.0088-.993.8162-1.793 1.8092-1.793.9899 0 1.796.795 1.8091 1.785l.871 65.615h-5.0699z"/><path d="m40.5114 73.047c.5919-.529 1.4962-.492 2.0439.082.5412.567.5425 1.459.0029 2.028l-8.8141 9.289-2.7606-2.893z"/><path d="m26.5698 68.184c-.3991-.417-.3975-1.075.0035-1.491.3952-.409 1.0409-.44 1.4736-.071l5.6445 4.821-2.0132 2.086z"/><path d="m21.1843 84.413c-.4026-.406-.4069-1.06-.0096-1.472.394-.408 1.0408-.43 1.4623-.05l10.4572 9.426-2.0132 2.087z"/></g></g><g opacity=".8" transform="translate(172 80)"><path d="m18.0104 20.809c1.2221-7.282 5.835-20.6828 13.6456-20.4955 8.801.211 7.701 15.4365 16.291 21.5735 2.337 1.67 3.033-.461 6.313 3.776 3.018 3.897-.372 7.626 1.426 12.675 1.059 2.976 4.821 2.78 5.227 7.821s-3.717 7.131-1.764 11.596c1.1 2.514 2.943 2.634 4.073 5.124.856 1.888.527 9.064 0 12.548-1.019 6.742-2.886 8.357-7.536 13.88-4.475 5.315-7.739 7.821-13.236 9.44-4.203 1.237-6.493-3.228-10.794-2.967-3.526.214-5.347 4.178-8.7569 2.967-8.3507-2.967-10.7346-4.371-15.2749-11.867-4.3471-7.177-8.0839-8.094-6.8026-17.137.6114-4.316 4.9524-9.66 5.5818-13.875.5657-3.789-2.0542-5.937-1.4255-9.709.6376-3.826 3.2727-4.513 4.4803-8.09 1.5424-4.569-2.4216-6.507 0-10.35 2.2428-3.558 7.7929-2.386 8.5522-6.91z" fill="#1d1c51"/><path d="m17.8598 20.811c1.222-7.282 5.835-20.6829 13.6452-20.4956 0 0 9.764 27.4816 10.794 45.8456.894 15.951-14.328 25.141-10.794 40.721 1.08 4.76 2.001 8.9 2.001 8.9-.183.054-.346.103-.49.147-2.095.638-.276.257 0 0 .141-.132-.12-.231-1.511-.147-3.526.214-5.347 4.178-8.7565 2.967-8.3508-2.967-10.7347-4.371-15.2749-11.867-4.3472-7.177-8.0839-8.094-6.8027-17.137.6115-4.316 4.9524-9.66 5.5818-13.875.5657-3.79-2.0541-5.937-1.4255-9.709.6376-3.826 3.2728-4.514 4.4803-8.09 1.5424-4.569-2.4216-6.508 0-10.35 2.2429-3.558 7.7929-2.386 8.5523-6.91z" fill="#262560"/><g fill="#11152b"><path d="m30.46 55.701c.009-.993.816-1.793 1.809-1.793.99 0 1.796.795 1.81 1.785l.871 65.615h-5.07z"/><path d="m40.599 73.288c.592-.529 1.496-.493 2.044.082.541.567.542 1.459.003 2.027l-8.814 9.29-2.761-2.893z"/><path d="m26.657 68.425c-.399-.417-.397-1.075.004-1.491.395-.409 1.041-.44 1.474-.071l5.644 4.821-2.013 2.086z"/><path d="m21.272 84.654c-.4026-.406-.4069-1.06-.0097-1.472.394-.408 1.0408-.43 1.4623-.051l10.4574 9.427-2.013 2.087z"/></g></g><g opacity=".8" transform="translate(346 94)"><path d="m15.189 17.997c1.055-6.286 5.038-17.855 11.781-17.693 7.597.182 6.648 13.326 14.063 18.624 2.018 1.442 2.618-.398 5.451 3.26 2.605 3.364-.322 6.583 1.23 10.942.915 2.569 4.162 2.4 4.513 6.752.35 4.352-3.209 6.156-1.523 10.011.949 2.17 2.54 2.273 3.516 4.423.739 1.629.455 7.825 0 10.833-.88 5.82-2.491 7.214-6.506 11.982-3.863 4.589-6.681 6.752-11.426 8.149-3.628 1.068-5.606-2.786-9.318-2.561-3.045.185-4.617 3.607-7.56 2.561-7.209-2.561-9.267-3.773-13.187-10.244-3.753-6.196-6.979-6.988-5.872-14.795.527-3.725 4.275-8.338 4.818-11.978.489-3.271-1.773-5.125-1.23-8.381.55-3.303 2.825-3.897 3.867-6.985 1.332-3.944-2.09-5.617 0-8.934 1.937-3.072 6.728-2.06 7.383-5.966z" fill="#1d1c51"/><path d="m15.059 17.999c1.055-6.287 5.038-17.855 11.781-17.693 0 0 8.429 23.724 9.317 39.578.773 13.77-12.369 21.704-9.317 35.154.932 4.109 1.727 7.683 1.727 7.683-.158.047-.299.089-.423.127-1.809.55-.239.222 0 0 .121-.114-.104-.2-1.304-.127-3.045.185-4.617 3.606-7.56 2.561-7.209-2.561-9.267-3.773-13.187-10.244-3.753-6.196-6.979-6.988-5.873-14.795.528-3.725 4.276-8.339 4.819-11.978.489-3.271-1.773-5.125-1.23-8.381.55-3.303 2.825-3.897 3.867-6.985 1.332-3.944-2.09-5.617 0-8.934 1.937-3.072 6.728-2.06 7.383-5.966z" fill="#262560"/><g fill="#11152b"><path d="m25.937 48.119c.008-.857.705-1.548 1.562-1.548.855 0 1.551.687 1.562 1.541l.752 56.645h-4.377z"/><path d="m34.69 63.302c.511-.456 1.292-.425 1.764.07.468.49.469 1.26.003 1.751l-7.609 8.02-2.383-2.498z"/><path d="m22.654 59.104c-.344-.36-.343-.929.003-1.287.342-.354.899-.381 1.273-.062l4.872 4.162-1.738 1.801z"/><path d="m18.005 73.114c-.347-.351-.351-.915-.008-1.27.34-.353.898-.372 1.262-.044l9.028 8.138-1.738 1.801z"/></g></g></g></svg>