<svg width="32" height="32" viewBox="0 0 32 32" fill="none" xmlns="http://www.w3.org/2000/svg">
<path d="M30.1187 19.2139C30.6279 19.6142 30.6279 20.3857 30.1187 20.7861L20.4941 28.3541C19.838 28.87 18.876 28.4026 18.876 27.568V22.067H13.124V27.568C13.124 28.4026 12.162 28.87 11.5059 28.3541L1.88128 20.7862C1.3721 20.3858 1.37209 19.6144 1.88127 19.214L11.5059 11.646C12.162 11.1301 13.124 11.5975 13.124 12.4321V17.6968H18.876V12.432C18.876 11.5974 19.838 11.1301 20.4941 11.6459L30.1187 19.2139Z" fill="#271238" fill-opacity="0.7"/>
<path d="M30.1187 15.2139C30.6279 15.6142 30.6279 16.3857 30.1187 16.7861L20.4941 24.3541C19.838 24.87 18.876 24.4026 18.876 23.568V18.067H13.124V23.568C13.124 24.4026 12.162 24.87 11.5059 24.3541L1.88128 16.7862C1.3721 16.3858 1.37209 15.6144 1.88127 15.214L11.5059 7.64598C12.162 7.1301 13.124 7.59746 13.124 8.43207V13.6968H18.876V8.43204C18.876 7.59744 19.838 7.13007 20.4941 7.64595L30.1187 15.2139Z" fill="#3ABE37" stroke="#B6FF6D" stroke-width="1.87425"/>
</svg>
