<svg width="16" height="17" viewBox="0 0 16 17" fill="none" xmlns="http://www.w3.org/2000/svg">
<g clip-path="url(#clip0_1180_14909)">
<path d="M13.5447 3.3669C12.5249 2.89898 11.4313 2.55423 10.2879 2.35679C10.2671 2.35297 10.2463 2.3625 10.2356 2.38154C10.0949 2.63169 9.93916 2.95802 9.83007 3.21452C8.60027 3.0304 7.37679 3.0304 6.17222 3.21452C6.0631 2.95232 5.90166 2.63169 5.76039 2.38154C5.74966 2.36313 5.72886 2.35361 5.70804 2.35679C4.56527 2.5536 3.47171 2.89835 2.45129 3.3669C2.44246 3.37071 2.43489 3.37706 2.42986 3.38531C0.355595 6.48422 -0.212634 9.50696 0.0661201 12.4922C0.0673814 12.5068 0.0755799 12.5208 0.0869321 12.5297C1.45547 13.5347 2.78114 14.1448 4.08219 14.5493C4.10301 14.5556 4.12507 14.548 4.13832 14.5309C4.44609 14.1106 4.72043 13.6674 4.95565 13.2014C4.96953 13.1741 4.95628 13.1417 4.92791 13.1309C4.49276 12.9658 4.0784 12.7646 3.67982 12.536C3.64829 12.5176 3.64577 12.4725 3.67477 12.4509C3.75865 12.3881 3.84255 12.3227 3.92264 12.2567C3.93713 12.2446 3.95732 12.2421 3.97436 12.2497C6.59286 13.4452 9.4277 13.4452 12.0153 12.2497C12.0323 12.2414 12.0525 12.244 12.0677 12.256C12.1478 12.3221 12.2316 12.3881 12.3162 12.4509C12.3452 12.4725 12.3433 12.5176 12.3117 12.536C11.9132 12.769 11.4988 12.9658 11.063 13.1303C11.0346 13.1411 11.022 13.1741 11.0359 13.2014C11.2762 13.6668 11.5505 14.1099 11.8526 14.5302C11.8652 14.548 11.8879 14.5556 11.9087 14.5493C13.2161 14.1448 14.5418 13.5347 15.9103 12.5297C15.9223 12.5208 15.9299 12.5075 15.9311 12.4929C16.2647 9.04156 15.3723 6.04361 13.5655 3.38594C13.5611 3.37706 13.5535 3.37071 13.5447 3.3669ZM5.34668 10.6745C4.55833 10.6745 3.90876 9.95075 3.90876 9.06189C3.90876 8.17303 4.54574 7.44927 5.34668 7.44927C6.15392 7.44927 6.79721 8.17939 6.78459 9.06189C6.78459 9.95075 6.14761 10.6745 5.34668 10.6745ZM10.6632 10.6745C9.87484 10.6745 9.22527 9.95075 9.22527 9.06189C9.22527 8.17303 9.86222 7.44927 10.6632 7.44927C11.4704 7.44927 12.1137 8.17939 12.1011 9.06189C12.1011 9.95075 11.4704 10.6745 10.6632 10.6745Z" fill="white"/>
</g>
<defs>
<clipPath id="clip0_1180_14909">
<rect width="16" height="16" fill="white" transform="translate(0 0.59668)"/>
</clipPath>
</defs>
</svg>
