<svg width="16" height="16" viewBox="0 0 16 16" fill="none" xmlns="http://www.w3.org/2000/svg">
<g clip-path="url(#clip0_1687_8616)">
<path d="M13.5447 2.77022C12.5249 2.3023 11.4313 1.95755 10.2879 1.76011C10.2671 1.75629 10.2463 1.76582 10.2356 1.78486C10.0949 2.03501 9.93916 2.36134 9.83007 2.61784C8.60027 2.43372 7.37679 2.43372 6.17222 2.61784C6.0631 2.35564 5.90166 2.03501 5.76039 1.78486C5.74966 1.76645 5.72886 1.75693 5.70804 1.76011C4.56527 1.95692 3.47171 2.30167 2.45129 2.77022C2.44246 2.77403 2.43489 2.78038 2.42986 2.78863C0.355595 5.88754 -0.212634 8.91028 0.0661201 11.8955C0.0673814 11.9101 0.0755799 11.9241 0.0869321 11.933C1.45547 12.938 2.78114 13.5482 4.08219 13.9526C4.10301 13.9589 4.12507 13.9513 4.13832 13.9342C4.44609 13.5139 4.72043 13.0707 4.95565 12.6047C4.96953 12.5774 4.95628 12.545 4.92791 12.5342C4.49276 12.3692 4.0784 12.1679 3.67982 11.9394C3.64829 11.9209 3.64577 11.8758 3.67477 11.8543C3.75865 11.7914 3.84255 11.726 3.92264 11.66C3.93713 11.6479 3.95732 11.6454 3.97436 11.653C6.59286 12.8485 9.4277 12.8485 12.0153 11.653C12.0323 11.6447 12.0525 11.6473 12.0677 11.6594C12.1478 11.7254 12.2316 11.7914 12.3162 11.8543C12.3452 11.8758 12.3433 11.9209 12.3117 11.9394C11.9132 12.1723 11.4988 12.3692 11.063 12.5336C11.0346 12.5444 11.022 12.5774 11.0359 12.6047C11.2762 13.0701 11.5505 13.5132 11.8526 13.9335C11.8652 13.9513 11.8879 13.9589 11.9087 13.9526C13.2161 13.5482 14.5418 12.938 15.9103 11.933C15.9223 11.9241 15.9299 11.9108 15.9311 11.8962C16.2647 8.44488 15.3723 5.44693 13.5655 2.78926C13.5611 2.78038 13.5535 2.77403 13.5447 2.77022ZM5.34668 10.0778C4.55833 10.0778 3.90876 9.35407 3.90876 8.46521C3.90876 7.57635 4.54574 6.85259 5.34668 6.85259C6.15392 6.85259 6.79721 7.58271 6.78459 8.46521C6.78459 9.35407 6.14761 10.0778 5.34668 10.0778ZM10.6632 10.0778C9.87484 10.0778 9.22527 9.35407 9.22527 8.46521C9.22527 7.57635 9.86222 6.85259 10.6632 6.85259C11.4704 6.85259 12.1137 7.58271 12.1011 8.46521C12.1011 9.35407 11.4704 10.0778 10.6632 10.0778Z" fill="url(#paint0_linear_1687_8616)"/>
</g>
<defs>
<linearGradient id="paint0_linear_1687_8616" x1="15.4702" y1="3.53965" x2="1.42857" y2="13.4" gradientUnits="userSpaceOnUse">
<stop stop-color="#EEEDFF"/>
<stop offset="1" stop-color="#B2ADFF"/>
</linearGradient>
<clipPath id="clip0_1687_8616">
<rect width="16" height="16" fill="white"/>
</clipPath>
</defs>
</svg>
