<svg width="16" height="17" viewBox="0 0 16 17" fill="none" xmlns="http://www.w3.org/2000/svg">
<g clip-path="url(#clip0_1180_14908)">
<path fill-rule="evenodd" clip-rule="evenodd" d="M8.00662 0.59668C3.57917 0.59668 0 4.20223 0 8.66279C0 12.2284 2.2933 15.2465 5.47471 16.3148C5.87246 16.3951 6.01816 16.1412 6.01816 15.9277C6.01816 15.7407 6.00505 15.0997 6.00505 14.4318C3.7778 14.9127 3.314 13.4703 3.314 13.4703C2.95606 12.5355 2.42572 12.2952 2.42572 12.2952C1.69674 11.8011 2.47882 11.8011 2.47882 11.8011C3.28745 11.8545 3.71175 12.6291 3.71175 12.6291C4.42746 13.8576 5.58074 13.5105 6.04471 13.2968C6.11092 12.7759 6.32316 12.4154 6.5485 12.2151C4.77211 12.0281 2.90313 11.3337 2.90313 8.23537C2.90313 7.35398 3.22107 6.63287 3.72486 6.07204C3.64538 5.87177 3.36693 5.04364 3.80451 3.93526C3.80451 3.93526 4.48056 3.72155 6.00489 4.76322C6.65751 4.58666 7.33054 4.49684 8.00662 4.49609C8.68266 4.49609 9.37182 4.58967 10.0082 4.76322C11.5327 3.72155 12.2087 3.93526 12.2087 3.93526C12.6463 5.04364 12.3677 5.87177 12.2882 6.07204C12.8053 6.63287 13.1101 7.35398 13.1101 8.23537C13.1101 11.3337 11.2411 12.0146 9.45147 12.2151C9.74319 12.4688 9.99492 12.9495 9.99492 13.7107C9.99492 14.7924 9.98181 15.6605 9.98181 15.9275C9.98181 16.1412 10.1277 16.3951 10.5253 16.3149C13.7067 15.2464 16 12.2284 16 8.66279C16.0131 4.20223 12.4208 0.59668 8.00662 0.59668Z" fill="white"/>
</g>
<defs>
<clipPath id="clip0_1180_14908">
<rect width="16" height="16" fill="white" transform="translate(0 0.59668)"/>
</clipPath>
</defs>
</svg>
