<svg width="16" height="16" viewBox="0 0 16 16" fill="none" xmlns="http://www.w3.org/2000/svg">
<g clip-path="url(#clip0_1687_8615)">
<path fill-rule="evenodd" clip-rule="evenodd" d="M8.00662 0C3.57917 0 0 3.60555 0 8.06611C0 11.6317 2.2933 14.6499 5.47471 15.7181C5.87246 15.7984 6.01816 15.5445 6.01816 15.331C6.01816 15.144 6.00505 14.503 6.00505 13.8352C3.7778 14.316 3.314 12.8736 3.314 12.8736C2.95606 11.9388 2.42572 11.6985 2.42572 11.6985C1.69674 11.2044 2.47882 11.2044 2.47882 11.2044C3.28745 11.2578 3.71175 12.0324 3.71175 12.0324C4.42746 13.2609 5.58074 12.9138 6.04471 12.7001C6.11092 12.1792 6.32316 11.8187 6.5485 11.6184C4.77211 11.4314 2.90313 10.737 2.90313 7.63869C2.90313 6.7573 3.22107 6.03619 3.72486 5.47536C3.64538 5.27509 3.36693 4.44696 3.80451 3.33858C3.80451 3.33858 4.48056 3.12487 6.00489 4.16654C6.65751 3.98998 7.33054 3.90016 8.00662 3.89941C8.68266 3.89941 9.37182 3.99299 10.0082 4.16654C11.5327 3.12487 12.2087 3.33858 12.2087 3.33858C12.6463 4.44696 12.3677 5.27509 12.2882 5.47536C12.8053 6.03619 13.1101 6.7573 13.1101 7.63869C13.1101 10.737 11.2411 11.418 9.45147 11.6184C9.74319 11.8721 9.99492 12.3528 9.99492 13.1141C9.99492 14.1957 9.98181 15.0638 9.98181 15.3308C9.98181 15.5445 10.1277 15.7984 10.5253 15.7182C13.7067 14.6497 16 11.6317 16 8.06611C16.0131 3.60555 12.4208 0 8.00662 0Z" fill="url(#paint0_linear_1687_8615)"/>
</g>
<defs>
<linearGradient id="paint0_linear_1687_8615" x1="15.4702" y1="2.29685" x2="-0.703594" y2="11.1006" gradientUnits="userSpaceOnUse">
<stop stop-color="#EEEDFF"/>
<stop offset="1" stop-color="#B2ADFF"/>
</linearGradient>
<clipPath id="clip0_1687_8615">
<rect width="16" height="16" fill="white"/>
</clipPath>
</defs>
</svg>
