<svg width="15" height="15" viewBox="0 0 15 15" fill="none" xmlns="http://www.w3.org/2000/svg">
<g clip-path="url(#clip0_1665_16592)">
<path fill-rule="evenodd" clip-rule="evenodd" d="M6.57266 4.73808C6.57266 5.87278 5.6528 6.79265 4.51809 6.79265C3.38338 6.79265 2.46351 5.87278 2.46351 4.73808C2.46351 3.60337 3.38338 2.6835 4.51809 2.6835C5.6528 2.6835 6.57266 3.60337 6.57266 4.73808ZM7.25752 12.2715C8.014 12.2715 8.64959 11.6414 8.4021 10.9266C7.84506 9.31768 6.31649 8.16237 4.51809 8.16237C2.71968 8.16237 1.19112 9.31768 0.634079 10.9266C0.386587 11.6414 1.02218 12.2715 1.77865 12.2715H7.25752Z" fill="white"/>
<path fill-rule="evenodd" clip-rule="evenodd" d="M9.77222 10.9266C10.0197 11.6414 9.38412 12.2715 8.62765 12.2715H12.737C13.4934 12.2715 14.129 11.6414 13.8815 10.9266C13.3245 9.31768 11.7959 8.16237 9.99753 8.16237C9.24904 8.16237 8.54729 8.36249 7.94287 8.71215C8.7907 9.20262 9.44702 9.98731 9.77222 10.9266ZM9.99753 6.79265C11.1322 6.79265 12.0521 5.87279 12.0521 4.73808C12.0521 3.60337 11.1322 2.6835 9.99753 2.6835C8.86282 2.6835 7.94295 3.60337 7.94295 4.73808C7.94295 5.87279 8.86282 6.79265 9.99753 6.79265Z" fill="white"/>
</g>
<defs>
<clipPath id="clip0_1665_16592">
<rect width="14.382" height="14.382" fill="white" transform="translate(0.0561523 0.286499)"/>
</clipPath>
</defs>
</svg>
