<svg width="313" height="313" viewBox="0 0 313 313" fill="none" xmlns="http://www.w3.org/2000/svg">
<path fill-rule="evenodd" clip-rule="evenodd" d="M73.5837 220.49L148.629 262.281C154.11 265.334 160.786 265.312 166.248 262.224L240.105 220.469C242.442 219.148 243.592 216.768 243.531 214.412V182.525H198.085L166.903 163.097C161.113 159.488 153.78 159.464 147.965 163.033L116.206 182.525H70.252V213.234C69.7044 215.953 70.8273 218.955 73.5837 220.49Z" fill="url(#paint0_linear_4462_11447)"/>
<path d="M148.628 230.776L73.5828 188.984C69.0722 186.472 68.9358 180.033 73.3359 177.332L147.964 131.527C153.779 127.958 161.112 127.983 166.903 131.591L240.352 177.357C244.7 180.067 244.564 186.442 240.104 188.964L166.247 230.719C160.785 233.807 154.109 233.828 148.628 230.776Z" fill="url(#paint1_linear_4462_11447)"/>
<path fill-rule="evenodd" clip-rule="evenodd" d="M79.353 186.662L149.191 225.554C154.293 228.395 160.505 228.375 165.588 225.501L234.321 186.643C236.488 185.418 237.558 183.214 237.51 181.029V151.332H195.216L166.198 133.251C160.809 129.893 153.985 129.87 148.574 133.192L119.018 151.332H76.253V179.907C75.742 182.438 76.7868 185.233 79.353 186.662Z" fill="url(#paint2_linear_4462_11447)"/>
<path d="M149.19 196.235L79.352 157.343C75.1544 155.005 75.0274 149.012 79.1222 146.499L148.573 103.872C153.984 100.551 160.808 100.574 166.197 103.931L234.55 146.522C238.597 149.044 238.47 154.977 234.32 157.324L165.587 196.182C160.504 199.055 154.292 199.075 149.19 196.235Z" fill="url(#paint3_linear_4462_11447)"/>
<g filter="url(#filter0_f_4462_11447)">
<path fill-rule="evenodd" clip-rule="evenodd" d="M79.353 179.348L149.191 218.24C154.293 221.081 160.505 221.061 165.588 218.188L234.321 179.33C236.488 178.104 237.558 175.9 237.51 173.715V144.018H195.215L166.198 125.937C160.809 122.58 153.985 122.557 148.574 125.878L119.019 144.018H76.253V172.593C75.742 175.124 76.7868 177.919 79.353 179.348Z" fill="url(#paint4_linear_4462_11447)"/>
<path d="M149.19 188.921L79.352 150.029C75.1544 147.691 75.0274 141.699 79.1222 139.186L148.573 96.5586C153.984 93.2372 160.808 93.2602 166.197 96.618L234.55 139.209C238.597 141.73 238.47 147.664 234.32 150.01L165.587 188.868C160.504 191.742 154.292 191.762 149.19 188.921Z" fill="url(#paint5_linear_4462_11447)"/>
</g>
<path fill-rule="evenodd" clip-rule="evenodd" d="M73.5837 173.794L148.629 215.586C154.11 218.638 160.786 218.617 166.248 215.529L240.105 173.774C242.442 172.453 243.592 170.073 243.531 167.717V135.83H198.085L166.903 116.401C161.113 112.793 153.78 112.768 147.965 116.337L116.206 135.83H70.252V166.539C69.7044 169.257 70.8273 172.259 73.5837 173.794Z" fill="url(#paint6_linear_4462_11447)"/>
<mask id="mask0_4462_11447" style="mask-type:alpha" maskUnits="userSpaceOnUse" x="70" y="82" width="174" height="105">
<path d="M148.628 184.08L73.5828 142.289C69.0722 139.777 68.9358 133.338 73.3359 130.637L147.964 84.832C153.779 81.263 161.112 81.2878 166.903 84.8959L240.352 130.662C244.7 133.372 244.564 139.747 240.104 142.269L166.247 184.024C160.785 187.112 154.109 187.133 148.628 184.08Z" fill="url(#paint7_linear_4462_11447)"/>
</mask>
<g mask="url(#mask0_4462_11447)">
<path d="M149.128 184.08L74.0828 142.289C69.5722 139.777 69.4358 133.338 73.8359 130.637L148.464 84.832C154.279 81.263 161.612 81.2878 167.403 84.8959L240.852 130.662C245.2 133.372 245.064 139.747 240.604 142.269L166.747 184.024C161.285 187.112 154.609 187.133 149.128 184.08Z" fill="url(#paint8_linear_4462_11447)"/>
<g filter="url(#filter1_f_4462_11447)">
<path d="M139.507 93.815C139.713 93.658 139.923 93.5034 140.134 93.3514C140.844 92.8422 140.351 92.0042 139.285 92.0005C125.743 91.9528 112.578 95.4475 103.522 102.351C90.0767 112.598 89.7695 127.243 101.156 138.521C101.517 138.879 102.263 138.971 102.846 138.766C108.181 136.893 114.989 137.19 119.932 139.842C124.871 142.493 126.511 146.725 124.56 150.409C124.346 150.812 124.619 151.266 125.232 151.431C144.568 156.63 167.043 153.89 180.478 143.649C189.46 136.803 192.579 127.995 190.265 119.539C190.081 118.867 188.706 118.696 188.04 119.229C187.883 119.355 187.724 119.479 187.561 119.603C178.072 126.836 162.301 128.708 149.633 124.696L150.349 123.544L152.594 121.562C153.256 120.977 152.425 120.181 151.327 120.348L147.609 120.911L143.248 118.57L143.493 116.179C143.567 115.456 142.192 115.066 141.404 115.587L138.767 117.328L137.442 117.85C129.893 110.626 130.334 100.807 139.507 93.815Z" fill="#591996"/>
</g>
</g>
<path d="M154.813 64.4005C154.993 64.1928 155.177 63.9884 155.363 63.7874C155.986 63.1138 155.553 62.0056 154.617 62.0006C142.734 61.9375 131.181 66.5596 123.233 75.6895C111.435 89.2426 111.165 108.611 121.157 123.528C121.474 124.001 122.129 124.123 122.64 123.852C127.322 121.375 133.297 121.767 137.634 125.275C141.969 128.781 143.408 134.379 141.695 139.251C141.508 139.784 141.747 140.384 142.285 140.602C159.253 147.478 178.976 143.854 190.767 130.311C198.649 121.256 201.386 109.607 199.355 98.4226C199.193 97.5336 197.987 97.3077 197.403 98.0126C197.265 98.1786 197.125 98.3435 196.982 98.5072C188.655 108.073 174.815 110.55 163.699 105.243L164.327 103.719L166.297 101.098C166.878 100.325 166.149 99.2718 165.185 99.4919L161.922 100.237L158.095 97.1416L158.31 93.9789C158.375 93.0228 157.168 92.5071 156.477 93.1954L154.163 95.4981L153 96.1893C146.376 86.6345 146.763 73.6477 154.813 64.4005Z" fill="white"/>
<g filter="url(#filter2_d_4462_11447)">
<circle cx="87.5" cy="213.5" r="4" fill="url(#paint9_linear_4462_11447)"/>
</g>
<g filter="url(#filter3_d_4462_11447)">
<circle cx="98.5" cy="219.5" r="4" fill="url(#paint10_linear_4462_11447)"/>
</g>
<circle cx="87.5" cy="166.5" r="10.5" fill="url(#paint11_radial_4462_11447)"/>
<g filter="url(#filter4_d_4462_11447)">
<circle cx="87.5" cy="166.5" r="4" fill="url(#paint12_linear_4462_11447)"/>
</g>
<rect x="130.105" y="234.544" width="20" height="4" rx="2" transform="rotate(27.9677 130.105 234.544)" fill="url(#paint13_linear_4462_11447)"/>
<rect x="130.105" y="187.544" width="20" height="4" rx="2" transform="rotate(27.9677 130.105 187.544)" fill="url(#paint14_linear_4462_11447)"/>
<rect x="109.105" y="176.544" width="20" height="4" rx="2" transform="rotate(27.9677 109.105 176.544)" fill="url(#paint15_linear_4462_11447)"/>
<defs>
<filter id="filter0_f_4462_11447" x="71.6262" y="89.5827" width="170.386" height="135.275" filterUnits="userSpaceOnUse" color-interpolation-filters="sRGB">
<feFlood flood-opacity="0" result="BackgroundImageFix"/>
<feBlend mode="normal" in="SourceGraphic" in2="BackgroundImageFix" result="shape"/>
<feGaussianBlur stdDeviation="2.25038" result="effect1_foregroundBlur_4462_11447"/>
</filter>
<filter id="filter1_f_4462_11447" x="79" y="78" width="126" height="90" filterUnits="userSpaceOnUse" color-interpolation-filters="sRGB">
<feFlood flood-opacity="0" result="BackgroundImageFix"/>
<feBlend mode="normal" in="SourceGraphic" in2="BackgroundImageFix" result="shape"/>
<feGaussianBlur stdDeviation="7" result="effect1_foregroundBlur_4462_11447"/>
</filter>
<filter id="filter2_d_4462_11447" x="73.5" y="199.5" width="28" height="28" filterUnits="userSpaceOnUse" color-interpolation-filters="sRGB">
<feFlood flood-opacity="0" result="BackgroundImageFix"/>
<feColorMatrix in="SourceAlpha" type="matrix" values="0 0 0 0 0 0 0 0 0 0 0 0 0 0 0 0 0 0 127 0" result="hardAlpha"/>
<feOffset/>
<feGaussianBlur stdDeviation="5"/>
<feComposite in2="hardAlpha" operator="out"/>
<feColorMatrix type="matrix" values="0 0 0 0 0.704704 0 0 0 0 0.956867 0 0 0 0 1 0 0 0 1 0"/>
<feBlend mode="normal" in2="BackgroundImageFix" result="effect1_dropShadow_4462_11447"/>
<feBlend mode="normal" in="SourceGraphic" in2="effect1_dropShadow_4462_11447" result="shape"/>
</filter>
<filter id="filter3_d_4462_11447" x="84.5" y="205.5" width="28" height="28" filterUnits="userSpaceOnUse" color-interpolation-filters="sRGB">
<feFlood flood-opacity="0" result="BackgroundImageFix"/>
<feColorMatrix in="SourceAlpha" type="matrix" values="0 0 0 0 0 0 0 0 0 0 0 0 0 0 0 0 0 0 127 0" result="hardAlpha"/>
<feOffset/>
<feGaussianBlur stdDeviation="5"/>
<feComposite in2="hardAlpha" operator="out"/>
<feColorMatrix type="matrix" values="0 0 0 0 0.704704 0 0 0 0 0.956867 0 0 0 0 1 0 0 0 1 0"/>
<feBlend mode="normal" in2="BackgroundImageFix" result="effect1_dropShadow_4462_11447"/>
<feBlend mode="normal" in="SourceGraphic" in2="effect1_dropShadow_4462_11447" result="shape"/>
</filter>
<filter id="filter4_d_4462_11447" x="73.5" y="152.5" width="28" height="28" filterUnits="userSpaceOnUse" color-interpolation-filters="sRGB">
<feFlood flood-opacity="0" result="BackgroundImageFix"/>
<feColorMatrix in="SourceAlpha" type="matrix" values="0 0 0 0 0 0 0 0 0 0 0 0 0 0 0 0 0 0 127 0" result="hardAlpha"/>
<feOffset/>
<feGaussianBlur stdDeviation="5"/>
<feComposite in2="hardAlpha" operator="out"/>
<feColorMatrix type="matrix" values="0 0 0 0 0.704704 0 0 0 0 0.956867 0 0 0 0 1 0 0 0 1 0"/>
<feBlend mode="normal" in2="BackgroundImageFix" result="effect1_dropShadow_4462_11447"/>
<feBlend mode="normal" in="SourceGraphic" in2="effect1_dropShadow_4462_11447" result="shape"/>
</filter>
<linearGradient id="paint0_linear_4462_11447" x1="70.2521" y1="227.814" x2="224.084" y2="286.745" gradientUnits="userSpaceOnUse">
<stop stop-color="#5C02A7"/>
<stop offset="1" stop-color="#B14EFF"/>
</linearGradient>
<linearGradient id="paint1_linear_4462_11447" x1="43.8092" y1="188.714" x2="213.481" y2="260.248" gradientUnits="userSpaceOnUse">
<stop stop-color="#9312FF"/>
<stop offset="1" stop-color="#C983FF"/>
</linearGradient>
<linearGradient id="paint2_linear_4462_11447" x1="76.2525" y1="193.479" x2="219.411" y2="248.32" gradientUnits="userSpaceOnUse">
<stop stop-color="#38E2FF"/>
<stop offset="1" stop-color="#D3F9FF"/>
</linearGradient>
<linearGradient id="paint3_linear_4462_11447" x1="51.6441" y1="157.091" x2="209.543" y2="223.662" gradientUnits="userSpaceOnUse">
<stop stop-color="#44007C"/>
<stop offset="1" stop-color="#B657FF"/>
</linearGradient>
<linearGradient id="paint4_linear_4462_11447" x1="76.2525" y1="186.165" x2="219.411" y2="241.007" gradientUnits="userSpaceOnUse">
<stop stop-color="#00505E"/>
<stop offset="1" stop-color="#44E1FC"/>
</linearGradient>
<linearGradient id="paint5_linear_4462_11447" x1="51.6441" y1="149.778" x2="209.543" y2="216.349" gradientUnits="userSpaceOnUse">
<stop stop-color="#44007C"/>
<stop offset="1" stop-color="#B657FF"/>
</linearGradient>
<linearGradient id="paint6_linear_4462_11447" x1="70.2521" y1="181.119" x2="224.084" y2="240.049" gradientUnits="userSpaceOnUse">
<stop stop-color="#57009F"/>
<stop offset="1" stop-color="#B557FF"/>
</linearGradient>
<linearGradient id="paint7_linear_4462_11447" x1="43.8092" y1="142.019" x2="213.481" y2="213.553" gradientUnits="userSpaceOnUse">
<stop stop-color="#5E00AD"/>
<stop offset="1" stop-color="#C376FF"/>
</linearGradient>
<linearGradient id="paint8_linear_4462_11447" x1="44.3092" y1="142.019" x2="213.981" y2="213.553" gradientUnits="userSpaceOnUse">
<stop stop-color="#7A05DC"/>
<stop offset="1" stop-color="#BD68FF"/>
</linearGradient>
<linearGradient id="paint9_linear_4462_11447" x1="86.5" y1="218" x2="91.6316" y2="216.23" gradientUnits="userSpaceOnUse">
<stop stop-color="#5FC6D8"/>
<stop offset="1" stop-color="#C9F7FF"/>
</linearGradient>
<linearGradient id="paint10_linear_4462_11447" x1="96.5" y1="222.5" x2="101.091" y2="220.231" gradientUnits="userSpaceOnUse">
<stop stop-color="#5FC6D8"/>
<stop offset="1" stop-color="#C9F7FF"/>
</linearGradient>
<radialGradient id="paint11_radial_4462_11447" cx="0" cy="0" r="1" gradientUnits="userSpaceOnUse" gradientTransform="translate(87.5 166.5) rotate(90) scale(10.5)">
<stop stop-color="#44E3FF"/>
<stop offset="1" stop-color="#44E3FF" stop-opacity="0"/>
</radialGradient>
<linearGradient id="paint12_linear_4462_11447" x1="85.5" y1="171" x2="90.8384" y2="167.92" gradientUnits="userSpaceOnUse">
<stop stop-color="#5FC6D8"/>
<stop offset="1" stop-color="#C9F7FF"/>
</linearGradient>
<linearGradient id="paint13_linear_4462_11447" x1="140.105" y1="234.544" x2="140.105" y2="238.544" gradientUnits="userSpaceOnUse">
<stop stop-color="#420576"/>
<stop offset="1" stop-color="#6907BB"/>
</linearGradient>
<linearGradient id="paint14_linear_4462_11447" x1="140.105" y1="187.544" x2="140.105" y2="191.544" gradientUnits="userSpaceOnUse">
<stop stop-color="#420576"/>
<stop offset="1" stop-color="#6907BB"/>
</linearGradient>
<linearGradient id="paint15_linear_4462_11447" x1="119.105" y1="176.544" x2="119.105" y2="180.544" gradientUnits="userSpaceOnUse">
<stop stop-color="#420576"/>
<stop offset="1" stop-color="#6907BB"/>
</linearGradient>
</defs>
</svg>
