<svg width="187" height="203" viewBox="0 0 187 203" fill="none" xmlns="http://www.w3.org/2000/svg">
<path fill-rule="evenodd" clip-rule="evenodd" d="M10.5827 158.489L85.6277 200.281C91.1094 203.334 97.7849 203.312 103.247 200.224L177.104 158.469C179.441 157.148 180.591 154.768 180.53 152.412V120.525H135.084L103.902 101.096C98.1119 97.4883 90.7792 97.4636 84.9644 101.033L53.2053 120.525H7.25102V151.234C6.70338 153.953 7.82631 156.954 10.5827 158.489Z" fill="url(#paint0_linear_5_86)"/>
<path d="M85.6278 168.776L10.5828 126.984C6.07221 124.472 5.93576 118.033 10.3359 115.332L84.9645 69.5271C90.7793 65.9581 98.1119 65.9829 103.903 69.591L177.352 115.357C181.7 118.067 181.564 124.442 177.104 126.964L103.247 168.719C97.785 171.807 91.1094 171.828 85.6278 168.776Z" fill="url(#paint1_linear_5_86)"/>
<path fill-rule="evenodd" clip-rule="evenodd" d="M16.3521 124.662L86.1904 163.554C91.2917 166.395 97.5041 166.375 102.587 163.501L171.32 124.643C173.487 123.418 174.558 121.214 174.509 119.029V89.332H132.215L103.197 71.2511C97.8084 67.8933 90.9844 67.8702 85.5731 71.1916L56.0175 89.332H13.2521V117.907C12.7411 120.438 13.786 123.233 16.3521 124.662Z" fill="url(#paint2_linear_5_86)"/>
<path d="M86.1903 134.235L16.352 95.3426C12.1544 93.0049 12.0274 87.0123 16.1222 84.499L85.573 41.872C90.9843 38.5507 97.8083 38.5737 103.197 41.9315L171.55 84.5223C175.597 87.0438 175.47 92.9772 171.32 95.3238L102.587 134.182C97.504 137.055 91.2916 137.075 86.1903 134.235Z" fill="url(#paint3_linear_5_86)"/>
<g filter="url(#filter0_f_5_86)">
<path fill-rule="evenodd" clip-rule="evenodd" d="M16.3521 117.349L86.1904 156.24C91.2917 159.081 97.5041 159.061 102.587 156.188L171.32 117.33C173.487 116.104 174.558 113.9 174.509 111.715V82.0181H132.214L103.197 63.9375C97.8084 60.5797 90.9844 60.5566 85.5731 63.878L56.018 82.0181H13.2521V110.593C12.7411 113.124 13.786 115.919 16.3521 117.349Z" fill="url(#paint4_linear_5_86)"/>
<path d="M86.1903 126.921L16.352 88.0291C12.1544 85.6915 12.0274 79.6988 16.1222 77.1855L85.573 34.5586C90.9843 31.2372 97.8083 31.2602 103.197 34.618L171.55 77.2088C175.597 79.7303 175.47 85.6637 171.32 88.0103L102.587 126.868C97.504 129.742 91.2916 129.762 86.1903 126.921Z" fill="url(#paint5_linear_5_86)"/>
</g>
<path fill-rule="evenodd" clip-rule="evenodd" d="M10.5827 111.794L85.6277 153.586C91.1094 156.638 97.7849 156.617 103.247 153.529L177.104 111.774C179.441 110.453 180.591 108.073 180.53 105.717V73.8302H135.084L103.902 54.4013C98.1119 50.7931 90.7792 50.7684 84.9644 54.3374L53.2053 73.8302H7.25102V104.539C6.70338 107.258 7.82631 110.259 10.5827 111.794Z" fill="url(#paint6_linear_5_86)"/>
<mask id="mask0_5_86" style="mask-type:alpha" maskUnits="userSpaceOnUse" x="7" y="20" width="174" height="105">
<path d="M85.6278 122.08L10.5828 80.2889C6.07221 77.7771 5.93576 71.3376 10.3359 68.6369L84.9645 22.832C90.7793 19.263 98.1119 19.2878 103.903 22.8959L177.352 68.662C181.7 71.3715 181.564 77.7473 177.104 80.2688L103.247 122.024C97.785 125.112 91.1094 125.133 85.6278 122.08Z" fill="url(#paint7_linear_5_86)"/>
</mask>
<g mask="url(#mask0_5_86)">
<path d="M86.1278 122.08L11.0828 80.2889C6.57221 77.7771 6.43576 71.3376 10.8359 68.6369L85.4645 22.832C91.2793 19.263 98.6119 19.2878 104.403 22.8959L177.852 68.662C182.2 71.3715 182.064 77.7473 177.604 80.2688L103.747 122.024C98.285 125.112 91.6094 125.133 86.1278 122.08Z" fill="url(#paint8_linear_5_86)"/>
<g filter="url(#filter1_f_5_86)">
<path d="M76.5074 31.815C76.7135 31.658 76.9225 31.5034 77.1344 31.3514C77.8443 30.8422 77.3513 30.0042 76.2845 30.0005C62.743 29.9528 49.5785 33.4475 40.5216 40.3506C27.0767 50.5981 26.7695 65.2425 38.1557 76.5213C38.5165 76.8787 39.2628 76.9709 39.846 76.7662C45.1814 74.8933 51.9893 75.1898 56.9319 77.8423C61.8713 80.493 63.5111 84.7255 61.5599 88.4094C61.3464 88.8124 61.6186 89.2663 62.2318 89.4311C81.5675 94.6297 104.043 91.89 117.478 81.6494C126.46 74.8035 129.579 65.9952 127.265 57.5391C127.081 56.8669 125.706 56.6961 125.04 57.2291C124.883 57.3546 124.724 57.4792 124.561 57.603C115.072 64.8357 99.3007 66.7084 86.6333 62.696L87.3494 61.5436L89.5939 59.5616C90.2558 58.9771 89.4254 58.1811 88.3274 58.3476L84.6093 58.9112L80.2477 56.5705L80.4925 54.1792C80.5665 53.4563 79.1918 53.0663 78.4036 53.5867L75.7668 55.3278L74.4424 55.8504C66.8931 48.6261 67.3342 38.8068 76.5074 31.815Z" fill="#591996"/>
</g>
</g>
<path d="M91.8126 2.4005C91.9935 2.19278 92.1769 1.98841 92.3628 1.78739C92.9858 1.11384 92.5532 0.0056073 91.6171 0.000637201C79.7337 -0.0624511 68.1811 4.55957 60.2332 13.6895C48.4347 27.2426 48.1651 46.6111 58.157 61.5281C58.4737 62.0008 59.1286 62.1228 59.6403 61.852C64.3224 59.3751 70.2967 59.7672 74.6342 63.2753C78.9687 66.7811 80.4077 72.3789 78.6954 77.2512C78.5081 77.7841 78.7469 78.3844 79.285 78.6025C96.2531 85.478 115.976 81.8545 127.767 68.3105C135.649 59.2562 138.386 47.6066 136.355 36.4226C136.193 35.5336 134.987 35.3077 134.403 36.0126C134.265 36.1786 134.125 36.3435 133.982 36.5072C125.655 46.073 111.815 48.5498 100.699 43.243L101.327 41.719L103.297 39.0977C103.878 38.3246 103.149 37.2718 102.185 37.4919L98.9225 38.2374L95.0949 35.1416L95.3098 31.9789C95.3747 31.0228 94.1683 30.5071 93.4767 31.1954L91.1627 33.4981L90.0005 34.1893C83.3756 24.6345 83.7627 11.6477 91.8126 2.4005Z" fill="white"/>
<g filter="url(#filter2_d_5_86)">
<circle cx="24.5" cy="151.5" r="4" fill="url(#paint9_linear_5_86)"/>
</g>
<g filter="url(#filter3_d_5_86)">
<circle cx="35.5" cy="157.5" r="4" fill="url(#paint10_linear_5_86)"/>
</g>
<circle cx="24.5" cy="104.5" r="10.5" fill="url(#paint11_radial_5_86)"/>
<g filter="url(#filter4_d_5_86)">
<circle cx="24.5" cy="104.5" r="4" fill="url(#paint12_linear_5_86)"/>
</g>
<rect x="67.1055" y="172.544" width="20" height="4" rx="2" transform="rotate(27.9677 67.1055 172.544)" fill="url(#paint13_linear_5_86)"/>
<rect x="67.1055" y="125.544" width="20" height="4" rx="2" transform="rotate(27.9677 67.1055 125.544)" fill="url(#paint14_linear_5_86)"/>
<rect x="46.1055" y="114.544" width="20" height="4" rx="2" transform="rotate(27.9677 46.1055 114.544)" fill="url(#paint15_linear_5_86)"/>
<defs>
<filter id="filter0_f_5_86" x="8.62522" y="27.5828" width="170.386" height="135.275" filterUnits="userSpaceOnUse" color-interpolation-filters="sRGB">
<feFlood flood-opacity="0" result="BackgroundImageFix"/>
<feBlend mode="normal" in="SourceGraphic" in2="BackgroundImageFix" result="shape"/>
<feGaussianBlur stdDeviation="2.25038" result="effect1_foregroundBlur_5_86"/>
</filter>
<filter id="filter1_f_5_86" x="16" y="16" width="126" height="90" filterUnits="userSpaceOnUse" color-interpolation-filters="sRGB">
<feFlood flood-opacity="0" result="BackgroundImageFix"/>
<feBlend mode="normal" in="SourceGraphic" in2="BackgroundImageFix" result="shape"/>
<feGaussianBlur stdDeviation="7" result="effect1_foregroundBlur_5_86"/>
</filter>
<filter id="filter2_d_5_86" x="10.5" y="137.5" width="28" height="28" filterUnits="userSpaceOnUse" color-interpolation-filters="sRGB">
<feFlood flood-opacity="0" result="BackgroundImageFix"/>
<feColorMatrix in="SourceAlpha" type="matrix" values="0 0 0 0 0 0 0 0 0 0 0 0 0 0 0 0 0 0 127 0" result="hardAlpha"/>
<feOffset/>
<feGaussianBlur stdDeviation="5"/>
<feComposite in2="hardAlpha" operator="out"/>
<feColorMatrix type="matrix" values="0 0 0 0 0.704704 0 0 0 0 0.956867 0 0 0 0 1 0 0 0 1 0"/>
<feBlend mode="normal" in2="BackgroundImageFix" result="effect1_dropShadow_5_86"/>
<feBlend mode="normal" in="SourceGraphic" in2="effect1_dropShadow_5_86" result="shape"/>
</filter>
<filter id="filter3_d_5_86" x="21.5" y="143.5" width="28" height="28" filterUnits="userSpaceOnUse" color-interpolation-filters="sRGB">
<feFlood flood-opacity="0" result="BackgroundImageFix"/>
<feColorMatrix in="SourceAlpha" type="matrix" values="0 0 0 0 0 0 0 0 0 0 0 0 0 0 0 0 0 0 127 0" result="hardAlpha"/>
<feOffset/>
<feGaussianBlur stdDeviation="5"/>
<feComposite in2="hardAlpha" operator="out"/>
<feColorMatrix type="matrix" values="0 0 0 0 0.704704 0 0 0 0 0.956867 0 0 0 0 1 0 0 0 1 0"/>
<feBlend mode="normal" in2="BackgroundImageFix" result="effect1_dropShadow_5_86"/>
<feBlend mode="normal" in="SourceGraphic" in2="effect1_dropShadow_5_86" result="shape"/>
</filter>
<filter id="filter4_d_5_86" x="10.5" y="90.5" width="28" height="28" filterUnits="userSpaceOnUse" color-interpolation-filters="sRGB">
<feFlood flood-opacity="0" result="BackgroundImageFix"/>
<feColorMatrix in="SourceAlpha" type="matrix" values="0 0 0 0 0 0 0 0 0 0 0 0 0 0 0 0 0 0 127 0" result="hardAlpha"/>
<feOffset/>
<feGaussianBlur stdDeviation="5"/>
<feComposite in2="hardAlpha" operator="out"/>
<feColorMatrix type="matrix" values="0 0 0 0 0.704704 0 0 0 0 0.956867 0 0 0 0 1 0 0 0 1 0"/>
<feBlend mode="normal" in2="BackgroundImageFix" result="effect1_dropShadow_5_86"/>
<feBlend mode="normal" in="SourceGraphic" in2="effect1_dropShadow_5_86" result="shape"/>
</filter>
<linearGradient id="paint0_linear_5_86" x1="7.25109" y1="165.814" x2="161.083" y2="224.745" gradientUnits="userSpaceOnUse">
<stop stop-color="#5C02A7"/>
<stop offset="1" stop-color="#B14EFF"/>
</linearGradient>
<linearGradient id="paint1_linear_5_86" x1="-19.1908" y1="126.714" x2="150.481" y2="198.248" gradientUnits="userSpaceOnUse">
<stop stop-color="#9312FF"/>
<stop offset="1" stop-color="#C983FF"/>
</linearGradient>
<linearGradient id="paint2_linear_5_86" x1="13.2516" y1="131.479" x2="156.41" y2="186.32" gradientUnits="userSpaceOnUse">
<stop stop-color="#38E2FF"/>
<stop offset="1" stop-color="#D3F9FF"/>
</linearGradient>
<linearGradient id="paint3_linear_5_86" x1="-11.3559" y1="95.091" x2="146.543" y2="161.662" gradientUnits="userSpaceOnUse">
<stop stop-color="#44007C"/>
<stop offset="1" stop-color="#B657FF"/>
</linearGradient>
<linearGradient id="paint4_linear_5_86" x1="13.2516" y1="124.165" x2="156.41" y2="179.007" gradientUnits="userSpaceOnUse">
<stop stop-color="#00505E"/>
<stop offset="1" stop-color="#44E1FC"/>
</linearGradient>
<linearGradient id="paint5_linear_5_86" x1="-11.3559" y1="87.7775" x2="146.543" y2="154.349" gradientUnits="userSpaceOnUse">
<stop stop-color="#44007C"/>
<stop offset="1" stop-color="#B657FF"/>
</linearGradient>
<linearGradient id="paint6_linear_5_86" x1="7.25109" y1="119.119" x2="161.083" y2="178.049" gradientUnits="userSpaceOnUse">
<stop stop-color="#57009F"/>
<stop offset="1" stop-color="#B557FF"/>
</linearGradient>
<linearGradient id="paint7_linear_5_86" x1="-19.1908" y1="80.0186" x2="150.481" y2="151.553" gradientUnits="userSpaceOnUse">
<stop stop-color="#5E00AD"/>
<stop offset="1" stop-color="#C376FF"/>
</linearGradient>
<linearGradient id="paint8_linear_5_86" x1="-18.6908" y1="80.0186" x2="150.981" y2="151.553" gradientUnits="userSpaceOnUse">
<stop stop-color="#7A05DC"/>
<stop offset="1" stop-color="#BD68FF"/>
</linearGradient>
<linearGradient id="paint9_linear_5_86" x1="23.5" y1="156" x2="28.6316" y2="154.23" gradientUnits="userSpaceOnUse">
<stop stop-color="#5FC6D8"/>
<stop offset="1" stop-color="#C9F7FF"/>
</linearGradient>
<linearGradient id="paint10_linear_5_86" x1="33.5" y1="160.5" x2="38.0909" y2="158.231" gradientUnits="userSpaceOnUse">
<stop stop-color="#5FC6D8"/>
<stop offset="1" stop-color="#C9F7FF"/>
</linearGradient>
<radialGradient id="paint11_radial_5_86" cx="0" cy="0" r="1" gradientUnits="userSpaceOnUse" gradientTransform="translate(24.5 104.5) rotate(90) scale(10.5)">
<stop stop-color="#44E3FF"/>
<stop offset="1" stop-color="#44E3FF" stop-opacity="0"/>
</radialGradient>
<linearGradient id="paint12_linear_5_86" x1="22.5" y1="109" x2="27.8384" y2="105.92" gradientUnits="userSpaceOnUse">
<stop stop-color="#5FC6D8"/>
<stop offset="1" stop-color="#C9F7FF"/>
</linearGradient>
<linearGradient id="paint13_linear_5_86" x1="77.1055" y1="172.544" x2="77.1055" y2="176.544" gradientUnits="userSpaceOnUse">
<stop stop-color="#420576"/>
<stop offset="1" stop-color="#6907BB"/>
</linearGradient>
<linearGradient id="paint14_linear_5_86" x1="77.1055" y1="125.544" x2="77.1055" y2="129.544" gradientUnits="userSpaceOnUse">
<stop stop-color="#420576"/>
<stop offset="1" stop-color="#6907BB"/>
</linearGradient>
<linearGradient id="paint15_linear_5_86" x1="56.1055" y1="114.544" x2="56.1055" y2="118.544" gradientUnits="userSpaceOnUse">
<stop stop-color="#420576"/>
<stop offset="1" stop-color="#6907BB"/>
</linearGradient>
</defs>
</svg>
