<svg width="511" height="803" viewBox="0 0 511 803" fill="none" xmlns="http://www.w3.org/2000/svg">
<path d="M242.503 14.8027C243.577 13.5219 244.667 12.2616 245.772 11.022C249.474 6.86852 246.903 0.0345775 241.341 0.00392932C170.731 -0.385106 102.088 28.1167 54.8625 84.4164C-15.2427 167.992 -16.8446 287.428 42.5262 379.415C44.4075 382.33 48.299 383.081 51.3396 381.412C79.16 366.138 114.658 368.556 140.431 390.189C166.186 411.807 174.736 446.326 164.562 476.371C163.449 479.657 164.868 483.359 168.066 484.704C268.888 527.102 386.08 504.758 456.138 421.238C502.972 365.405 519.233 293.567 507.167 224.601C506.207 219.119 499.041 217.726 495.566 222.073C494.748 223.096 493.916 224.113 493.069 225.123C443.589 284.11 361.353 299.383 295.302 266.659L299.036 257.261L310.74 241.097C314.191 236.33 309.861 229.837 304.136 231.195L284.749 235.792L262.006 216.702L263.282 197.199C263.668 191.303 256.5 188.123 252.39 192.367L238.641 206.567L231.735 210.829C192.371 151.909 194.671 71.8255 242.503 14.8027Z" fill="white"/>
<path d="M99.7203 652.298C99.7203 648.857 102.605 646.068 106.164 646.068H127.756C131.315 646.068 134.2 648.857 134.2 652.298V793.401C134.2 796.842 131.315 799.631 127.756 799.631H106.164C102.605 799.631 99.7203 796.842 99.7203 793.401V784.713C93.8224 795.243 80.2118 802.483 65.0133 802.483C32.3479 802.483 13.5199 778.571 13.5199 746.761C13.5199 715.171 33.709 691.04 65.467 691.04C81.346 691.04 93.8224 698.279 99.7203 709.029V652.298ZM74.9944 774.622C92.2344 774.622 101.081 762.118 101.081 746.761C101.081 731.625 92.2344 719.12 74.9944 719.12C58.8885 719.12 48.9074 730.747 48.9074 746.761C48.9074 762.776 58.8885 774.622 74.9944 774.622Z" fill="white"/>
<path d="M195.453 802.483C169.14 802.483 155.075 786.688 155.075 759.266V700.122C155.075 696.681 157.96 693.892 161.519 693.892H183.792C187.351 693.892 190.236 696.681 190.236 700.122V751.807C190.236 766.286 195.226 774.183 208.383 774.183C223.128 774.183 229.48 764.97 229.48 750.71V700.122C229.48 696.681 232.365 693.892 235.924 693.892H257.516C261.075 693.892 263.96 696.681 263.96 700.122V793.401C263.96 796.842 261.075 799.631 257.516 799.631H235.924C232.365 799.631 229.48 796.842 229.48 793.401V784.494C223.355 795.682 212.013 802.483 195.453 802.483Z" fill="white"/>
<path d="M329.645 802.483C301.788 802.483 282.315 791.201 278.578 774.011C277.847 770.644 280.81 767.821 284.369 767.821H305.961C309.52 767.821 312.258 770.848 314.273 773.684C317.083 777.641 322.873 780.106 330.326 780.106C337.811 780.106 343.029 776.596 343.029 770.454C343.029 765.628 340.534 762.776 331.233 760.582L308.322 755.098C290.855 750.93 280.874 740.18 280.874 724.166C280.874 704.203 299.475 691.04 327.604 691.04C355.278 691.04 372.548 700.396 375.81 717.525C376.455 720.909 373.49 723.727 369.931 723.727H348.566C345.007 723.727 342.396 720.7 340.521 717.775C338.221 714.185 333.543 712.32 327.15 712.32C319.664 712.32 314.673 715.83 314.673 720.875C314.673 725.701 317.849 728.773 326.696 730.966L349.834 737.109C367.074 741.496 377.509 751.588 377.509 767.602C377.509 789.54 358.681 802.483 329.645 802.483Z" fill="white"/>
<path d="M496.136 789.608C499.389 793.706 496.367 799.631 491.024 799.631H464.939C462.886 799.631 460.956 798.685 459.742 797.084L426.739 753.562V793.401C426.739 796.842 423.854 799.631 420.295 799.631H398.703C395.144 799.631 392.259 796.842 392.259 793.401V652.298C392.259 648.857 395.144 646.068 398.703 646.068H420.295C423.854 646.068 426.739 648.857 426.739 652.298V738.425L460.645 696.296C461.866 694.779 463.743 693.892 465.731 693.892H489.564C495.042 693.892 498.022 700.082 494.493 704.134L459.858 743.91L496.136 789.608Z" fill="white"/>
</svg>
