<svg width="995" height="350" viewBox="0 0 995 350" fill="none" xmlns="http://www.w3.org/2000/svg">
<path d="M173.625 10.246C174.394 9.35945 175.175 8.48714 175.966 7.62912C178.616 4.75419 176.776 0.0239336 172.793 0.00271976C122.239 -0.26656 73.0919 19.4616 39.2799 58.4307C-10.9133 116.28 -12.0603 198.95 30.4475 262.62C31.7945 264.638 34.5806 265.158 36.7577 264.003C56.6762 253.43 82.0919 255.104 100.544 270.077C118.984 285.041 125.106 308.934 117.822 329.731C117.025 332.005 118.041 334.568 120.33 335.498C192.516 364.845 276.422 349.379 326.581 291.569C360.113 252.923 371.755 203.199 363.116 155.463C362.429 151.668 357.298 150.704 354.811 153.712C354.225 154.421 353.629 155.125 353.023 155.823C317.596 196.653 258.718 207.225 211.428 184.574L214.101 178.069L222.48 166.88C224.952 163.581 221.851 159.087 217.752 160.027L203.872 163.208L187.588 149.995L188.502 136.495C188.779 132.414 183.646 130.213 180.704 133.151L170.86 142.98L165.916 145.93C137.732 105.147 139.379 49.7156 173.625 10.246Z" fill="white"/>
<path d="M539.868 92.7642C539.868 88.8331 543.165 85.6463 547.231 85.6463H571.9C575.966 85.6463 579.263 88.8331 579.263 92.7642V253.978C579.263 257.909 575.966 261.095 571.9 261.095H547.231C543.165 261.095 539.868 257.909 539.868 253.978V244.052C533.13 256.083 517.579 264.354 500.215 264.354C462.894 264.354 441.382 237.034 441.382 200.691C441.382 164.598 464.449 137.028 500.733 137.028C518.875 137.028 533.13 145.299 539.868 157.58V92.7642ZM511.618 232.522C531.315 232.522 541.423 218.236 541.423 200.691C541.423 183.397 531.315 169.11 511.618 169.11C493.217 169.11 481.813 182.394 481.813 200.691C481.813 218.988 493.217 232.522 511.618 232.522Z" fill="white"/>
<path d="M649.246 264.354C619.181 264.354 603.113 246.308 603.113 214.977V147.404C603.113 143.473 606.409 140.286 610.475 140.286H635.922C639.988 140.286 643.285 143.473 643.285 147.404V206.456C643.285 222.998 648.986 232.021 664.018 232.021C680.865 232.021 688.122 221.494 688.122 205.202V147.404C688.122 143.473 691.418 140.286 695.484 140.286H720.153C724.22 140.286 727.516 143.473 727.516 147.404V253.978C727.516 257.909 724.22 261.095 720.153 261.095H695.484C691.418 261.095 688.122 257.909 688.122 253.978V243.801C681.124 256.584 668.165 264.354 649.246 264.354Z" fill="white"/>
<path d="M802.563 264.354C770.735 264.354 748.487 251.465 744.218 231.824C743.382 227.977 746.768 224.752 750.834 224.752H775.503C779.569 224.752 782.698 228.21 785 231.451C788.211 235.972 794.826 238.788 803.34 238.788C811.893 238.788 817.854 234.778 817.854 227.76C817.854 222.246 815.003 218.988 804.377 216.481L778.201 210.215C758.244 205.453 746.841 193.172 746.841 174.875C746.841 152.066 768.093 137.028 800.23 137.028C831.849 137.028 851.58 147.717 855.308 167.287C856.044 171.154 852.656 174.373 848.59 174.373H824.18C820.114 174.373 817.131 170.915 814.989 167.573C812.362 163.472 807.017 161.34 799.712 161.34C791.159 161.34 785.458 165.35 785.458 171.115C785.458 176.629 789.086 180.138 799.194 182.645L825.629 189.663C845.327 194.675 857.249 206.205 857.249 224.502C857.249 249.566 835.737 264.354 802.563 264.354Z" fill="white"/>
<path d="M992.783 249.644C996.5 254.326 993.047 261.095 986.942 261.095H957.14C954.794 261.095 952.589 260.015 951.202 258.186L913.495 208.461V253.978C913.495 257.909 910.199 261.095 906.133 261.095H881.464C877.397 261.095 874.101 257.909 874.101 253.978V92.7642C874.101 88.8331 877.397 85.6463 881.464 85.6463H906.133C910.199 85.6463 913.495 88.8331 913.495 92.7642V191.166L952.234 143.033C953.629 141.3 955.773 140.286 958.045 140.286H985.274C991.533 140.286 994.938 147.359 990.906 151.988L951.335 197.432L992.783 249.644Z" fill="white"/>
</svg>
