<svg width="512" height="512" viewBox="0 0 512 512" fill="none" xmlns="http://www.w3.org/2000/svg">
<g clip-path="url(#clip0_487_79)">
<mask id="mask0_487_79" style="mask-type:alpha" maskUnits="userSpaceOnUse" x="0" y="0" width="512" height="512">
<rect width="512" height="512" fill="url(#paint0_linear_487_79)"/>
</mask>
<g mask="url(#mask0_487_79)">
<rect width="512" height="512" fill="black"/>
<path d="M247.492 97.6657C248.207 96.8134 248.933 95.9748 249.668 95.1499C252.133 92.386 250.421 87.8384 246.719 87.818C199.717 87.5592 154.023 106.525 122.587 143.989C75.9209 199.604 74.8546 279.082 114.375 340.293C115.628 342.233 118.218 342.733 120.242 341.622C138.761 331.458 162.391 333.067 179.547 347.462C196.691 361.848 202.383 384.818 195.61 404.812C194.869 406.998 195.814 409.462 197.942 410.357C265.056 438.57 343.066 423.701 389.701 368.124C420.876 330.97 431.701 283.167 423.669 237.274C423.03 233.626 418.26 232.699 415.947 235.591C415.402 236.273 414.848 236.949 414.284 237.621C381.347 276.874 326.606 287.037 282.639 265.261L285.124 259.007L292.915 248.251C295.212 245.078 292.33 240.758 288.519 241.662L275.614 244.72L260.475 232.017L261.324 219.039C261.581 215.116 256.809 213 254.074 215.824L244.922 225.273L240.325 228.109C214.121 188.902 215.652 135.611 247.492 97.6657Z" fill="white"/>
</g>
</g>
<defs>
<linearGradient id="paint0_linear_487_79" x1="-46.674" y1="-93.3481" x2="512" y2="575.646" gradientUnits="userSpaceOnUse">
<stop offset="0.183169" stop-color="#4613CF"/>
<stop offset="0.766576" stop-color="#A42CEA"/>
</linearGradient>
<clipPath id="clip0_487_79">
<rect width="512" height="512" fill="white"/>
</clipPath>
</defs>
</svg>
