<svg width="400" height="396" viewBox="0 0 400 396" fill="none" xmlns="http://www.w3.org/2000/svg">
<path d="M189.826 11.5834C190.667 10.5811 191.52 9.59492 192.385 8.62492C195.283 5.37474 193.271 0.0270575 188.916 0.00307476C133.645 -0.301353 79.9122 22.0018 42.9452 66.0574C-11.9317 131.457 -13.1856 224.918 33.2886 296.899C34.7613 299.18 37.8074 299.768 40.1876 298.462C61.9648 286.509 89.752 288.401 109.926 305.329C130.087 322.246 136.78 349.258 128.816 372.769C127.945 375.34 129.055 378.237 131.558 379.289C210.48 412.467 302.215 394.982 357.055 329.627C393.716 285.936 406.445 229.722 396.999 175.754C396.248 171.465 390.639 170.374 387.919 173.776C387.278 174.577 386.627 175.372 385.964 176.162C347.232 222.321 282.86 234.273 231.156 208.666L234.079 201.311L243.24 188.662C245.942 184.932 242.553 179.852 238.071 180.914L222.895 184.511L205.093 169.573L206.092 154.312C206.394 149.698 200.783 147.209 197.566 150.531L186.803 161.642L181.398 164.977C150.584 118.872 152.384 56.2048 189.826 11.5834Z" fill="white"/>
</svg>
