<svg width="282" height="387" viewBox="0 0 282 387" fill="none" xmlns="http://www.w3.org/2000/svg">
<path fill-rule="evenodd" clip-rule="evenodd" d="M0 382.066C0 384.326 1.83205 386.158 4.09199 386.158H18.5402C20.8002 386.158 22.6322 384.326 22.6322 382.066V359.196H37.2174L51.3186 384.083C52.0451 385.365 53.405 386.158 54.8788 386.158H69.2728C72.428 386.158 74.3961 382.738 72.8107 380.01L58.4037 355.22C68.211 350.808 73.9319 342.855 73.9319 332.452C73.9319 315.621 60.2897 305 38.6005 305H4.09199C1.83204 305 0 306.832 0 309.092V382.066ZM37.0917 343.781H22.6322V321.068H37.0288C46.1446 321.068 51.8026 325.535 51.8026 332.452C51.8026 339.315 46.1446 343.781 37.0917 343.781Z" fill="white"/>
<path fill-rule="evenodd" clip-rule="evenodd" d="M250.86 386.64C232.465 386.64 219.974 373.61 219.974 355.368C219.974 337.126 232.578 324.096 250.349 324.096C268.347 324.096 280.781 336.786 280.781 354.915V356.307C280.781 358.448 279.046 360.183 276.905 360.183H239.051C239.278 367.775 243.82 372.59 251.541 372.59C256.335 372.59 259.978 370.848 261.873 367.961C262.547 366.934 263.602 366.132 264.83 366.132H276.838C278.653 366.132 280.034 367.789 279.423 369.499C275.765 379.74 264.566 386.64 250.86 386.64ZM262.556 348.513C261.704 342.225 257.389 338.486 250.86 338.486C244.274 338.486 240.016 342.225 239.164 348.513H262.556Z" fill="white"/>
<path d="M172.539 382.372V352.761C172.539 344.603 176.513 340.808 182.702 340.808C188.89 340.808 192.467 344.66 192.467 351.741V382.372C192.467 383.978 193.769 385.279 195.374 385.279H209.091C210.696 385.279 211.998 383.978 211.998 382.372V347.662C211.998 332.933 204.39 324.152 191.388 324.152C182.361 324.152 176.286 328.287 172.312 335.142V328.362C172.312 326.757 171.01 325.455 169.404 325.455H155.915C154.309 325.455 153.008 326.757 153.008 328.362V382.372C153.008 383.978 154.309 385.279 155.915 385.279H169.631C171.237 385.279 172.539 383.978 172.539 382.372Z" fill="white"/>
<path d="M83.5447 363.072C83.5447 377.801 91.1527 386.582 104.154 386.582C113.182 386.582 120.226 382.447 124.2 375.592L123.551 382.083C123.38 383.794 124.724 385.279 126.444 385.279H139.628C141.233 385.279 142.535 383.978 142.535 382.372V328.362C142.535 326.757 141.233 325.455 139.628 325.455H125.911C124.306 325.455 123.004 326.757 123.004 328.362V357.973C123.004 366.131 119.03 369.927 112.841 369.927C106.653 369.927 103.076 366.074 103.076 358.993V328.362C103.076 326.757 101.774 325.455 100.168 325.455H86.452C84.8463 325.455 83.5447 326.757 83.5447 328.362V363.072Z" fill="white"/>
<path d="M135.26 5.86352C134.652 6.52297 134.052 7.1934 133.461 7.8748C107.137 38.21 105.871 80.8132 127.535 112.158L131.335 109.89L138.902 102.336C141.164 100.078 145.109 101.77 144.897 104.906L144.194 115.282L156.711 125.437L167.38 122.992C170.531 122.27 172.914 125.723 171.015 128.259L164.574 136.859L162.519 141.858C198.87 159.267 244.128 151.142 271.359 119.761C271.825 119.224 272.283 118.684 272.733 118.139C274.646 115.827 278.59 116.568 279.118 119.484C285.758 156.173 276.809 194.389 251.034 224.092C212.478 268.523 147.982 280.409 92.4944 257.854C90.7347 257.139 89.9538 255.17 90.5662 253.422C96.1657 237.438 91.4601 219.075 77.2857 207.574C63.1018 196.065 43.5655 194.779 28.2546 202.905C26.5812 203.793 24.4395 203.393 23.4041 201.842C-9.2704 152.907 -8.38879 89.3692 30.1934 44.9081C56.1837 14.9576 93.9615 -0.20487 132.821 0.00209033C135.883 0.0183947 137.297 3.65394 135.26 5.86352Z" fill="white"/>
</svg>
