<svg width="390" height="380" viewBox="0 0 390 380" fill="none" xmlns="http://www.w3.org/2000/svg">
<path d="M190.621 84.7954C190.124 85.3348 189.634 85.8831 189.15 86.4404C167.621 111.25 166.586 146.093 184.304 171.727L187.412 169.873L193.6 163.695C195.45 161.848 198.677 163.232 198.503 165.797L197.928 174.282L208.165 182.588L216.891 180.588C219.468 179.997 221.417 182.822 219.863 184.896L214.596 191.929L212.915 196.018C242.644 210.256 279.658 203.61 301.929 177.946C302.31 177.507 302.685 177.065 303.053 176.619C304.617 174.728 307.843 175.334 308.275 177.719C313.706 207.725 306.387 238.98 285.307 263.272C253.774 299.61 201.026 309.331 155.646 290.885C154.207 290.3 153.568 288.689 154.069 287.259C158.649 274.187 154.8 259.169 143.208 249.763C131.607 240.351 115.63 239.299 103.108 245.945C101.739 246.671 99.9877 246.344 99.1409 245.075C72.4183 205.054 73.1393 153.09 104.693 116.728C125.95 92.233 156.846 79.8324 188.627 80.0017C191.131 80.015 192.288 82.9884 190.621 84.7954Z" fill="black"/>
</svg>
