<svg width="512" height="512" viewBox="0 0 512 512" fill="none" xmlns="http://www.w3.org/2000/svg">
<g clip-path="url(#clip0_780_41)">
<rect width="512" height="512" fill="url(#paint0_radial_780_41)"/>
<path d="M247.492 97.6656C248.207 96.8133 248.932 95.9747 249.668 95.1498C252.132 92.3859 250.421 87.8383 246.718 87.8179C199.716 87.559 154.023 106.525 122.586 143.989C75.9202 199.604 74.8538 279.081 114.375 340.293C115.627 342.232 118.217 342.733 120.241 341.622C138.76 331.458 162.39 333.067 179.546 347.462C196.69 361.848 202.382 384.818 195.609 404.811C194.868 406.998 195.813 409.462 197.941 410.356C265.055 438.57 343.065 423.701 389.7 368.124C420.876 330.97 431.7 283.167 423.668 237.274C423.029 233.626 418.259 232.699 415.946 235.591C415.401 236.272 414.847 236.949 414.284 237.621C381.347 276.873 326.606 287.037 282.638 265.261L285.124 259.007L292.914 248.251C295.212 245.078 292.329 240.758 288.518 241.661L275.613 244.72L260.474 232.017L261.324 219.039C261.58 215.116 256.809 213 254.073 215.824L244.921 225.273L240.324 228.109C214.121 188.902 215.652 135.611 247.492 97.6656Z" fill="white"/>
</g>
<defs>
<radialGradient id="paint0_radial_780_41" cx="0" cy="0" r="1" gradientUnits="userSpaceOnUse" gradientTransform="translate(401.067 68.2667) rotate(70.6871) scale(745.144 1310.5)">
<stop offset="0.265"/>
<stop offset="0.47" stop-color="#572ECE"/>
<stop offset="0.635" stop-color="#A52DEB"/>
<stop offset="1" stop-color="#4714D0"/>
</radialGradient>
<clipPath id="clip0_780_41">
<rect width="512" height="512" fill="white"/>
</clipPath>
</defs>
</svg>
