<svg width="777" height="220" viewBox="0 0 777 220" fill="none" xmlns="http://www.w3.org/2000/svg">
<path d="M110.621 4.79545C110.124 5.33477 109.634 5.88308 109.15 6.44036C87.6211 31.2498 86.5859 66.0926 104.304 91.7273L107.412 89.8729L113.6 83.6949C115.45 81.8483 118.677 83.2319 118.503 85.7971L117.928 94.2824L128.165 102.588L136.891 100.588C139.468 99.9975 141.417 102.822 139.863 104.896L134.596 111.929L132.915 116.018C162.644 130.256 199.658 123.61 221.929 97.9462C222.31 97.507 222.685 97.0646 223.053 96.6192C224.617 94.7281 227.843 95.3342 228.275 97.7193C233.706 127.725 226.387 158.98 205.307 183.272C173.774 219.61 121.026 229.331 75.646 210.885C74.2068 210.3 73.5681 208.689 74.069 207.259C78.6485 194.187 74.8001 179.169 63.2076 169.763C51.6074 160.351 35.6297 159.299 23.1079 165.945C21.7393 166.671 19.9877 166.344 19.1409 165.075C-7.58174 125.054 -6.86072 73.09 24.6935 36.7279C45.9495 12.233 76.8458 -0.167552 108.627 0.00170956C111.131 0.015044 112.288 2.98835 110.621 4.79545Z" fill="white"/>
<path fill-rule="evenodd" clip-rule="evenodd" d="M330 167.592C330 171.187 332.914 174.101 336.509 174.101H359.493C363.088 174.101 366.002 171.187 366.002 167.592V131.212H389.204L411.635 170.801C412.791 172.841 414.954 174.101 417.298 174.101H440.195C445.215 174.101 448.345 168.661 445.823 164.321L422.906 124.887C438.506 117.869 447.607 105.218 447.607 88.6692C447.607 61.8958 425.906 45 391.404 45H336.509C332.914 45 330 47.9143 330 51.5093V167.592ZM389.003 106.691H366.002V70.5603H388.903C403.404 70.5603 412.405 77.6653 412.405 88.6692C412.405 99.5865 403.404 106.691 389.003 106.691Z" fill="white"/>
<path fill-rule="evenodd" clip-rule="evenodd" d="M729.055 174.868C699.792 174.868 679.923 154.141 679.923 125.122C679.923 96.1042 699.973 75.3768 728.242 75.3768C756.873 75.3768 776.652 95.5635 776.652 124.401V126.616C776.652 130.022 773.891 132.783 770.485 132.783H710.269C710.63 144.858 717.856 152.519 730.139 152.519C737.764 152.519 743.559 149.748 746.574 145.154C747.646 143.521 749.325 142.245 751.278 142.245H770.379C773.267 142.245 775.464 144.881 774.492 147.601C768.673 163.892 750.857 174.868 729.055 174.868ZM747.66 114.218C746.306 104.215 739.441 98.267 729.055 98.267C718.578 98.267 711.805 104.215 710.45 114.218H747.66Z" fill="white"/>
<path d="M604.465 168.079V120.976C604.465 107.999 610.787 101.961 620.632 101.961C630.476 101.961 636.166 108.089 636.166 119.354V168.079C636.166 170.634 638.237 172.704 640.791 172.704H662.611C665.165 172.704 667.235 170.634 667.235 168.079V112.865C667.235 89.4342 655.133 75.4658 634.45 75.4658C620.09 75.4658 610.426 82.0445 604.104 92.9489V82.1633C604.104 79.6091 602.034 77.5386 599.479 77.5386H578.021C575.467 77.5386 573.396 79.6091 573.396 82.1633V168.079C573.396 170.634 575.467 172.704 578.021 172.704H599.841C602.395 172.704 604.465 170.634 604.465 168.079Z" fill="white"/>
<path d="M462.898 137.378C462.898 160.808 475.001 174.777 495.683 174.777C510.044 174.777 521.249 168.198 527.571 157.294L526.538 167.619C526.266 170.342 528.404 172.704 531.14 172.704H552.113C554.667 172.704 556.737 170.634 556.737 168.079V82.1634C556.737 79.6092 554.667 77.5386 552.113 77.5386H530.293C527.739 77.5386 525.668 79.6092 525.668 82.1634V129.267C525.668 142.244 519.346 148.282 509.502 148.282C499.657 148.282 493.967 142.154 493.967 130.889V82.1634C493.967 79.6092 491.897 77.5386 489.343 77.5386H467.523C464.969 77.5386 462.898 79.6092 462.898 82.1634V137.378Z" fill="white"/>
</svg>
