<svg width="48" height="50" viewBox="0 0 48 50" fill="none" xmlns="http://www.w3.org/2000/svg">
<path d="M29.5855 16.7296C29.5855 16.7296 28.1456 16.6724 26.8472 18.6995C25.618 16.766 23.0796 16.1027 21.0525 17.2316C20.569 17.4999 20.1591 17.8494 19.8242 18.2495L15.34 11.7645C13.9713 9.78508 11.2554 9.28969 9.2759 10.6584C7.29644 12.0272 6.80105 14.7431 8.1698 16.7226L15.7979 27.7542C15.2983 28.0996 14.8417 28.5248 14.4531 29.0332C12.4546 31.6383 12.9469 35.3706 15.5532 37.3683L20.832 41.4168C22.3792 42.604 23.7547 42.6032 26.0695 42.4204C28.2048 42.3651 30.6953 41.934 33.2667 41.1046C37.0942 39.8706 40.2579 38.0235 42.0731 36.1533C42.8418 35.5991 43.3738 34.783 43.5804 33.8756C43.5804 33.8756 43.8506 30.1757 38.8582 21.4255C35.9769 15.9797 33.8299 17.9126 33.8299 17.9126C33.248 18.3149 33.1532 18.615 32.7862 18.431C32.7862 18.431 31.4668 16.1637 29.5879 16.728" fill="#E2466B"/>
<path d="M8.94817 14.664C7.58759 9.37359 12.3234 8.7891 14.8859 11.0391L19.6358 17.914C20.5734 17.914 20.1359 17.539 22.1983 16.9765C24.3219 16.3974 25.9853 17.502 27.1335 18.8463C27.1668 18.082 27.6772 17.3997 28.8233 16.9765C30.611 16.3165 31.8944 17.6725 32.5662 18.898C32.7484 18.5426 33.1577 18.1908 33.9484 17.914C36.4484 17.039 39.4483 23.164 41.0733 27.539C42.6983 31.914 40.6983 35.664 37.5733 36.164C34.4483 36.664 34.5733 37.789 27.4483 40.414C20.3233 43.039 22.5733 41.2266 17.0733 36.9766C13.3793 34.1221 13.4712 30.4553 15.8233 29.2891C16.604 28.902 17.8551 31.2123 18.7321 32.6327L19.6358 33.6716C20.4423 33.6977 21.8134 33.4 20.8456 32C19.8778 30.6 12.5107 19.8593 8.94817 14.664Z" fill="url(#paint0_linear_151_31731)"/>
<path d="M12.5488 23.6329L12.5487 23.633L12.552 23.6374C12.6365 23.7462 12.721 23.8551 12.8055 23.964C13.6922 25.1068 14.5795 26.2504 15.4875 27.3798L15.6515 27.2664C14.9154 26.0182 14.1587 24.7842 13.4026 23.5511C13.3305 23.4336 13.2585 23.3162 13.1865 23.1987L13.1866 23.1986L13.1838 23.1946C12.6854 22.4632 12.0413 21.5376 11.3661 20.5674C10.2722 18.9955 9.09687 17.3065 8.32747 16.1364C8.20406 15.9112 8.09515 15.6415 8.00774 15.3938C7.33551 13.4182 8.35498 11.6685 9.88984 10.8084C11.4245 9.94842 13.4496 9.99179 14.7796 11.5839C15.3579 12.3337 16.4332 13.9062 17.3883 15.3031C17.9528 16.1287 18.4753 16.8929 18.8286 17.3897L18.8285 17.3897L18.831 17.3929L18.8314 17.3934C19.8003 18.6464 20.7699 19.9004 21.7691 21.1342L21.9331 21.0207C21.1303 19.6509 20.3005 18.3001 19.4701 16.951L19.4705 16.9507L19.4647 16.943C19.0318 16.3709 18.4973 15.5701 17.9261 14.714C17.7035 14.3804 17.4753 14.0384 17.2453 13.6983C16.4286 12.4906 15.5887 11.3053 14.9094 10.6293L14.9097 10.629L14.9024 10.623C13.7159 9.64633 12.4567 9.32633 11.3001 9.47143C10.1456 9.61628 9.10128 10.2236 8.33892 11.088C6.81501 12.8159 6.40708 15.5874 8.50476 17.7845L8.50539 17.7854L8.51055 17.7929L8.51573 17.8004L8.52096 17.808L8.52621 17.8156L8.53149 17.8232L8.53681 17.8309L8.54216 17.8386L8.54753 17.8464L8.55294 17.8542L8.55838 17.8621L8.56385 17.87L8.56935 17.878L8.57489 17.886L8.58045 17.894L8.58604 17.9021L8.59166 17.9102L8.59731 17.9184L8.60299 17.9266L8.60871 17.9349L8.61445 17.9432L8.62022 17.9515L8.62602 17.9599L8.63185 17.9683L8.6377 17.9768L8.64359 17.9853L8.64951 17.9939L8.65545 18.0025L8.66142 18.0111L8.66742 18.0198L8.67345 18.0285L8.67951 18.0373L8.6856 18.0461L8.69171 18.0549L8.69785 18.0638L8.70402 18.0727L8.71022 18.0817L8.71644 18.0907L8.7227 18.0997L8.72897 18.1088L8.73528 18.1179L8.74161 18.1271L8.74797 18.1363L8.75436 18.1455L8.76077 18.1548L8.76721 18.1641L8.77368 18.1734L8.78017 18.1828L8.78669 18.1923L8.79323 18.2017L8.7998 18.2112L8.8064 18.2208L8.81302 18.2303L8.81967 18.24L8.82634 18.2496L8.83304 18.2593L8.83976 18.269L8.84651 18.2788L8.85328 18.2886L8.86008 18.2984L8.8669 18.3083L8.87375 18.3182L8.88062 18.3281L8.88751 18.3381L8.89443 18.3481L8.90137 18.3581L8.90834 18.3682L8.91533 18.3783L8.92235 18.3884L8.92938 18.3986L8.93645 18.4088L8.94353 18.4191L8.95064 18.4294L8.95777 18.4397L8.96492 18.45L8.9721 18.4604L8.9793 18.4708L8.98652 18.4813L8.99376 18.4917L9.00103 18.5022L9.00832 18.5128L9.01563 18.5233L9.02296 18.534L9.03031 18.5446L9.03769 18.5553L9.04508 18.5659L9.0525 18.5767L9.05994 18.5874L9.0674 18.5982L9.07489 18.609L9.08239 18.6199L9.08991 18.6308L9.09746 18.6417L9.10502 18.6526L9.11261 18.6636L9.12021 18.6746L9.12784 18.6856L9.13548 18.6967L9.14315 18.7078L9.15083 18.7189L9.15854 18.73L9.16626 18.7412L9.17401 18.7524L9.18177 18.7636L9.18955 18.7749L9.19735 18.7862L9.20517 18.7975L9.21301 18.8088L9.22087 18.8202L9.22875 18.8316L9.23664 18.843L9.24456 18.8544L9.25249 18.8659L9.26044 18.8774L9.2684 18.8889L9.27639 18.9005L9.28439 18.912L9.29241 18.9236L9.30045 18.9353L9.30851 18.9469L9.31658 18.9586L9.32467 18.9703L9.33277 18.982L9.3409 18.9937L9.34904 19.0055L9.35719 19.0173L9.36537 19.0291L9.37356 19.041L9.38176 19.0528L9.38998 19.0647L9.39822 19.0766L9.40647 19.0886L9.41474 19.1005L9.42303 19.1125L9.43133 19.1245L9.43964 19.1366L9.44797 19.1486L9.45632 19.1607L9.46468 19.1728L9.47306 19.1849L9.48145 19.197L9.48985 19.2092L9.49827 19.2213L9.5067 19.2335L9.51515 19.2458L9.52361 19.258L9.53209 19.2702L9.54058 19.2825L9.54908 19.2948L9.5576 19.3071L9.56613 19.3195L9.57467 19.3318L9.58323 19.3442L9.5918 19.3566L9.60039 19.369L9.60898 19.3814L9.61759 19.3939L9.62621 19.4064L9.63485 19.4189L9.64349 19.4314L9.65215 19.4439L9.66082 19.4564L9.66951 19.469L9.6782 19.4816L9.68691 19.4941L9.69562 19.5068L9.70435 19.5194L9.71309 19.532L9.72185 19.5447L9.73061 19.5573L9.73938 19.57L9.74817 19.5827L9.75697 19.5955L9.76577 19.6082L9.77459 19.6209L9.78342 19.6337L9.79225 19.6465L9.8011 19.6593L9.80996 19.6721L9.81883 19.6849L9.82771 19.6978L9.83659 19.7106L9.84549 19.7235L9.8544 19.7364L9.86331 19.7493L9.87224 19.7622L9.88117 19.7751L9.89011 19.788L9.89906 19.801L9.90802 19.8139L9.91699 19.8269L9.92597 19.8399L9.93495 19.8529L9.94395 19.8659L9.95295 19.8789L9.96196 19.8919L9.97098 19.905L9.98 19.918L9.98903 19.9311L9.99807 19.9441L10.0071 19.9572L10.0162 19.9703L10.0252 19.9834L10.0343 19.9965L10.0434 20.0097L10.0525 20.0228L10.0615 20.0359L10.0706 20.0491L10.0797 20.0623L10.0889 20.0754L10.098 20.0886L10.1071 20.1018L10.1162 20.115L10.1253 20.1282L10.1345 20.1414L10.1436 20.1546L10.1528 20.1679L10.1619 20.1811L10.1711 20.1943L10.1802 20.2076L10.1894 20.2208L10.1986 20.2341L10.2078 20.2474L10.2169 20.2607L10.2261 20.2739L10.2353 20.2872L10.2445 20.3005L10.2537 20.3138L10.2629 20.3271L10.2721 20.3404L10.2813 20.3538L10.2905 20.3671L10.2997 20.3804L10.309 20.3937L10.3182 20.4071L10.3274 20.4204L10.3366 20.4338L10.3459 20.4471L10.3551 20.4605L10.3643 20.4738L10.3736 20.4872L10.3828 20.5005L10.392 20.5139L10.4013 20.5273L10.4105 20.5407L10.4198 20.554L10.429 20.5674L10.4383 20.5808L10.4475 20.5942L10.4568 20.6075L10.466 20.6209L10.4753 20.6343L10.4846 20.6477L10.4938 20.6611L10.5031 20.6745L10.5123 20.6879L10.5216 20.7012L10.5308 20.7146L10.5401 20.728L10.5494 20.7414L10.5586 20.7548L10.5679 20.7682L10.5771 20.7816L10.5864 20.795L10.5957 20.8084L10.6049 20.8217L10.6142 20.8351L10.6234 20.8485L10.6327 20.8619L10.6419 20.8753L10.6512 20.8887L10.6604 20.902L10.6697 20.9154L10.6789 20.9288L10.6882 20.9421L10.6974 20.9555L10.7066 20.9689L10.7159 20.9822L10.7251 20.9956L10.7343 21.0089L10.7436 21.0223L10.7528 21.0356L10.762 21.049L10.7713 21.0623L10.7805 21.0756L10.7897 21.089L10.7989 21.1023L10.8081 21.1156L10.8173 21.1289L10.8265 21.1422L10.8357 21.1555L10.8449 21.1688L10.8541 21.1821L10.8633 21.1954L10.8725 21.2087L10.8816 21.2219L10.8908 21.2352L10.9 21.2485L10.9091 21.2617L10.9183 21.275L10.9274 21.2882L10.9366 21.3014L10.9457 21.3146L10.9549 21.3279L10.964 21.3411L10.9731 21.3543L10.9822 21.3674L10.9914 21.3806L11.0005 21.3938L11.0096 21.407L11.0187 21.4201L11.0278 21.4333L11.0368 21.4464L11.0459 21.4595L11.055 21.4726L11.064 21.4857L11.0731 21.4988L11.0821 21.5119L11.0912 21.525L11.1002 21.538L11.1092 21.5511L11.1183 21.5641L11.1273 21.5772L11.1363 21.5902L11.1453 21.6032L11.1542 21.6162L11.1632 21.6292L11.1722 21.6421L11.1812 21.6551L11.1901 21.668L11.199 21.681L11.208 21.6939L11.2169 21.7068L11.2258 21.7197L11.2347 21.7326L11.2436 21.7454L11.2525 21.7583L11.2614 21.7711L11.2703 21.784L11.2791 21.7968L11.288 21.8096L11.2968 21.8224L11.3056 21.8351L11.3144 21.8479L11.3233 21.8606L11.332 21.8733L11.3408 21.886L11.3496 21.8987L11.3584 21.9114L11.3671 21.9241L11.3759 21.9367L11.3846 21.9493L11.3933 21.9619L11.402 21.9745L11.4107 21.9871L11.4194 21.9996L11.4281 22.0122L11.4367 22.0247L11.4454 22.0372L11.454 22.0497L11.4626 22.0622L11.4712 22.0746L11.4798 22.0871L11.4884 22.0995L11.497 22.1119L11.5055 22.1242L11.5141 22.1366L11.5226 22.1489L11.5311 22.1612L11.5396 22.1735L11.5481 22.1858L11.5566 22.1981L11.5651 22.2103L11.5735 22.2225L11.582 22.2347L11.5904 22.2469L11.5988 22.2591L11.6072 22.2712L11.6155 22.2833L11.6239 22.2954L11.6323 22.3075L11.6406 22.3195L11.6489 22.3315L11.6572 22.3436L11.6655 22.3555L11.6738 22.3675L11.682 22.3794L11.6902 22.3913L11.6985 22.4032L11.7067 22.4151L11.7149 22.4269L11.723 22.4388L11.7312 22.4506L11.7393 22.4623L11.7475 22.4741L11.7556 22.4858L11.7637 22.4975L11.7717 22.5092L11.7798 22.5208L11.7878 22.5325L11.7958 22.5441L11.8038 22.5556L11.8118 22.5672L11.8198 22.5787L11.8277 22.5902L11.8357 22.6017L11.8436 22.6131L11.8515 22.6245L11.8594 22.6359L11.8672 22.6473L11.8751 22.6586L11.8829 22.6699L11.8907 22.6812L11.8985 22.6925L11.9062 22.7037L11.914 22.7149L11.9217 22.7261L11.9294 22.7372L11.9371 22.7483L11.9448 22.7594L11.9524 22.7705L11.96 22.7815L11.9676 22.7925L11.9752 22.8035L11.9828 22.8144L11.9903 22.8253L11.9979 22.8362L12.0054 22.8471L12.0128 22.8579L12.0203 22.8687L12.0277 22.8794L12.0352 22.8902L12.0426 22.9008L12.0499 22.9115L12.0573 22.9222L12.0646 22.9328L12.0719 22.9433L12.0792 22.9539L12.0865 22.9644L12.0937 22.9749L12.1009 22.9853L12.1081 22.9957L12.1153 23.0061L12.1225 23.0164L12.1296 23.0267L12.1367 23.037L12.1438 23.0473L12.1509 23.0575L12.1579 23.0677L12.1649 23.0778L12.1719 23.0879L12.1789 23.098L12.1858 23.108L12.1927 23.118L12.1996 23.128L12.2065 23.138L12.2133 23.1479L12.2202 23.1577L12.227 23.1675L12.2337 23.1773L12.2405 23.1871L12.2472 23.1968L12.2539 23.2065L12.2606 23.2162L12.2672 23.2258L12.2739 23.2354L12.2805 23.2449L12.287 23.2544L12.2936 23.2639L12.3001 23.2733L12.3066 23.2827L12.313 23.292L12.3195 23.3013L12.3259 23.3106L12.3323 23.3199L12.3386 23.3291L12.345 23.3382L12.3513 23.3473L12.3576 23.3564L12.3638 23.3655L12.37 23.3745L12.3762 23.3834L12.3824 23.3923L12.3886 23.4012L12.3947 23.4101L12.4008 23.4189L12.4068 23.4276L12.4128 23.4364L12.4188 23.445L12.4248 23.4537L12.4308 23.4623L12.4367 23.4708L12.4426 23.4793L12.4484 23.4878L12.4543 23.4962L12.4601 23.5046L12.4658 23.513L12.4716 23.5213L12.4773 23.5295L12.483 23.5378L12.4886 23.5459L12.4942 23.5541L12.4998 23.5621L12.5054 23.5702L12.5109 23.5782L12.5164 23.5861L12.5219 23.5941L12.5273 23.6019L12.5327 23.6097L12.5381 23.6175L12.5435 23.6253L12.5488 23.6329Z" fill="#281342" stroke="#281342" stroke-width="0.2"/>
<path d="M34.6131 17.5249L34.6121 17.5235L34.547 17.5373C34.2749 17.5949 34.0208 17.6989 33.7833 17.824L33.8727 18.0028C34.3822 17.762 34.8617 17.7183 35.3025 17.8326C35.7446 17.9473 36.1563 18.2231 36.5239 18.636L36.5239 18.636L36.5254 18.6377C37.038 19.1873 37.4956 19.8992 37.9139 20.5499C38.0479 20.7584 38.1779 20.9606 38.3043 21.1491C38.6329 21.8061 39.3685 23.31 39.6782 23.9482L39.6781 23.9482L39.6793 23.9505C40.7893 26.0976 41.8153 28.2959 42.6026 30.5762C42.6685 30.8178 42.7467 31.0644 42.8251 31.3117C42.8474 31.3821 42.8697 31.4526 42.8918 31.523C42.9922 31.8433 43.0879 32.1645 43.1561 32.4852C43.2926 33.1266 43.3172 33.756 43.056 34.3555L43.0555 34.3566C42.8059 34.9504 42.3781 35.4581 41.8564 35.8392L41.8559 35.8386L41.8468 35.8471C37.6849 39.7638 31.6077 41.7277 25.9535 42.0115L25.9513 42.0116L25.8926 42.0159C24.5588 42.1122 23.1377 42.2149 21.9625 41.6105C21.2829 41.2214 20.1698 40.3811 19.0542 39.5132C18.7333 39.2636 18.4124 39.0118 18.1022 38.7684C17.3367 38.1679 16.6361 37.6183 16.1608 37.2772L16.1609 37.2771L16.1572 37.2746C13.5007 35.5424 12.8594 31.7307 14.797 29.2258L14.796 29.2249L14.8007 29.2191C14.8414 29.1699 14.8906 29.105 14.9438 29.0347C14.9814 28.9851 15.021 28.9328 15.0611 28.8814C15.1614 28.7529 15.2712 28.6214 15.3846 28.5162C15.4997 28.4092 15.6083 28.3389 15.705 28.3178C15.7896 28.2993 15.8738 28.3162 15.9618 28.4085C16.8506 29.7997 17.9832 31.0428 19.0949 32.263C19.3635 32.5577 19.6309 32.8512 19.8933 33.1451L20.0474 33.0179C19.748 32.6249 19.4424 32.2363 19.1371 31.8479C18.2131 30.6726 17.291 29.4998 16.5454 28.2158C16.45 28.0028 16.2866 27.774 16.0156 27.6888L16.0156 27.6886L16.0096 27.6871C15.6207 27.5907 15.2615 27.7569 14.9624 27.9884C14.6685 28.2159 14.4141 28.5207 14.2228 28.7499L14.2203 28.7529L14.2151 28.7565L14.2062 28.7675C12.5472 30.8022 12.4688 33.8975 13.9078 36.0663C14.3633 36.7887 15.0236 37.4086 15.6937 37.8937L19.5621 40.8605L19.5621 40.8605L19.5634 40.8615C19.7118 40.9714 19.8707 41.0951 20.0371 41.2249L20.0446 41.2308C20.2084 41.3585 20.3792 41.4917 20.5525 41.6213C20.9032 41.8836 21.2689 42.1352 21.6155 42.3013C22.9799 42.9987 24.5581 42.892 25.9971 42.7831C31.825 42.488 38.072 40.4658 42.3851 36.4001C42.605 36.2646 42.8865 35.9915 43.1411 35.6787C43.4002 35.3604 43.6411 34.989 43.7656 34.6589L43.7665 34.6592L43.7695 34.6463C44.2454 32.6045 43.4586 30.0481 42.3388 27.5704C41.6088 25.9554 40.7287 24.3567 39.9507 22.9436C39.5348 22.1882 39.1481 21.4857 38.8291 20.8621L38.8247 20.8534L38.8186 20.8458C38.6575 20.6412 38.4876 20.405 38.306 20.1524C38.2132 20.0234 38.1174 19.89 38.018 19.7544C37.726 19.356 37.4068 18.9425 37.0583 18.5802C36.3802 17.8753 35.5697 17.3427 34.6131 17.5249Z" fill="#281342" stroke="#281342" stroke-width="0.2"/>
<path d="M27.5477 19.097C26.2509 16.1193 22.215 15.3985 20.0376 17.843L19.9702 17.9187L20.0467 17.9851L20.0902 18.0228L20.1576 18.0813L20.2234 18.0209C20.7979 17.4931 21.525 17.1379 22.2741 16.9966L22.2741 16.9927L22.2748 16.9957C23.4897 16.7325 24.5469 17.0943 25.4524 17.7663C26.3602 18.44 27.1113 19.4231 27.704 20.3903L27.7459 20.4586L27.8217 20.4327L27.8765 20.4139L27.9562 20.3866L27.9428 20.3034C27.8744 19.8788 27.7274 19.4791 27.5477 19.097Z" fill="#281342" stroke="#281342" stroke-width="0.2"/>
<path d="M30.3897 17.0742L30.3897 17.0742L30.3918 17.0747C31.3899 17.2979 32.0663 17.973 32.5889 18.8218C32.9934 19.4787 33.2997 20.2285 33.5911 20.9418C33.6777 21.1539 33.7631 21.3629 33.8493 21.5652L33.8801 21.6374L33.9576 21.6246L34.0137 21.6153L34.0924 21.6023L34.0972 21.5227C34.212 19.616 33.0903 17.7678 31.6379 16.9013C30.9098 16.4669 30.0915 16.2751 29.2994 16.4543C28.5056 16.6339 27.7537 17.1825 27.1536 18.1983L27.0962 18.2955L27.1996 18.3408L27.2519 18.3637L27.3345 18.3999L27.379 18.3214C27.9687 17.2808 29.2402 16.7911 30.3897 17.0742Z" fill="#281342" stroke="#281342" stroke-width="0.2"/>
<path d="M39.913 34.2813L39.9341 34.275L40.066 34.2355L40.0871 34.2291L40.1068 34.2192C40.1903 34.1771 40.2746 34.1384 40.3596 34.1029C41.0767 33.8847 41.8999 33.966 42.6687 34.2762C43.5869 34.6466 44.3911 35.3298 44.8038 36.1488L44.9192 36.3778C45.2935 37.1205 45.3189 38.0959 45.0599 39.0273C44.5377 39.7859 43.7229 40.4464 42.8256 40.8986L42.8255 40.8984L42.8162 40.9035L34.7732 45.3937L30.9626 47.1361L30.9626 47.1359L30.9541 47.1402C29.3137 47.9669 27.3136 47.3073 26.4869 45.6668L26.3715 45.4378C25.9597 44.6205 25.8997 43.5698 26.1596 42.6118C26.4196 41.6534 26.9886 40.8258 27.7903 40.4218L27.798 40.4179L27.8054 40.4135L36.333 35.3534L39.913 34.2813ZM27.3823 40.0718C25.249 41.1522 24.3922 43.7563 25.4688 45.8928L25.5842 46.1218C26.6759 48.2879 29.4095 48.8459 31.5194 47.7826L31.5195 47.7828L31.5287 47.7776L34.9994 45.84L43.4231 41.9882L43.4231 41.9884L43.4316 41.9841C44.3892 41.5015 45.1022 40.5047 45.4627 39.42C45.4824 39.3609 45.5011 39.3013 45.5187 39.2414C45.5534 39.1891 45.5869 39.1363 45.6191 39.083C46.1933 38.1341 46.377 37.0242 45.8219 35.9229L45.7065 35.6939C44.6801 33.6571 42.2665 32.7799 40.1914 33.6314C40.0405 33.6786 39.8926 33.7374 39.7489 33.8085L36.1601 34.8832L36.1308 34.892L36.1307 34.892L36.1044 34.9076L36.1042 34.9077L27.3823 40.0718Z" fill="#281342" stroke="#281342" stroke-width="0.5"/>
<path d="M28.9483 39.5605C27.9441 40.3344 27.0587 41.0634 26.3975 41.6365C26.9261 40.985 27.8276 40.2785 28.9483 39.5605C31.8235 37.3446 35.6724 34.7612 38.02 34.4204L41.2768 33.7817C38.2055 34.9133 32.4853 37.2944 28.9483 39.5605Z" fill="#281342"/>
<path d="M25.6922 45.7804C24.6764 43.7647 25.487 41.3071 27.5026 40.2913L39.9944 33.9961C42.0101 32.9803 44.4676 33.7908 45.4834 35.8065L45.5988 36.0355C46.6146 38.0512 45.8041 40.5087 43.7884 41.5245L31.2966 47.8198C29.2809 48.8356 26.8234 48.025 25.8076 46.0093L25.6922 45.7804Z" fill="#E2466B"/>
<path d="M42.4705 34.875C40.6205 33.375 31.4913 39.0834 27.158 42.125C26.7413 42.8959 26.158 44.6 27.158 45.25C28.408 46.0625 33.5955 41.8125 38.5955 39.625C43.5955 37.4375 44.783 36.75 42.4705 34.875Z" fill="url(#paint1_linear_151_31731)" fill-opacity="0.5"/>
<defs>
<linearGradient id="paint0_linear_151_31731" x1="25.0366" y1="10.4965" x2="25.0366" y2="41.1939" gradientUnits="userSpaceOnUse">
<stop stop-color="#EDFFF1"/>
<stop offset="1" stop-color="#D9D9D9" stop-opacity="0"/>
</linearGradient>
<linearGradient id="paint1_linear_151_31731" x1="33.2206" y1="35.875" x2="35.0995" y2="45.2024" gradientUnits="userSpaceOnUse">
<stop stop-color="#EDFFF1"/>
<stop offset="1" stop-color="#D9D9D9" stop-opacity="0"/>
</linearGradient>
</defs>
</svg>
