<svg width="35" height="43" viewBox="0 0 35 43" fill="none" xmlns="http://www.w3.org/2000/svg">
<ellipse cx="14.5588" cy="28.2755" rx="11.8872" ry="11.8872" transform="rotate(15 14.5588 28.2755)" fill="#271238" fill-opacity="0.7"/>
<ellipse cx="14.5588" cy="26.047" rx="11.8872" ry="11.8872" transform="rotate(15 14.5588 26.047)" fill="#2A4C96"/>
<mask id="mask0_708_56293" style="mask-type:alpha" maskUnits="userSpaceOnUse" x="2" y="14" width="25" height="24">
<ellipse cx="14.5587" cy="26.047" rx="11.8872" ry="11.8872" transform="rotate(15 14.5587 26.047)" fill="#2A4C96"/>
</mask>
<g mask="url(#mask0_708_56293)">
<ellipse cx="13.3052" cy="23.809" rx="10.4764" ry="10.4764" transform="rotate(15 13.3052 23.809)" fill="url(#paint0_linear_708_56293)" fill-opacity="0.5"/>
</g>
<ellipse cx="17.7959" cy="15.5961" rx="3.22134" ry="0.880809" transform="rotate(17.5862 17.7959 15.5961)" fill="#17121C" fill-opacity="0.5"/>
<path d="M15.2229 12.4475C15.3559 12.2975 16.3143 12.382 18.0926 12.8585C19.8709 13.335 20.7168 13.7165 20.7979 13.8834C20.8789 14.0502 20.5414 15.9237 20.1835 16.1761C19.8256 16.4285 19.3546 16.67 17.2388 16.045C15.123 15.42 14.7358 14.9873 14.623 14.6862C14.5102 14.3851 15.0898 12.5976 15.2229 12.4475Z" fill="#2A4C96"/>
<path fill-rule="evenodd" clip-rule="evenodd" d="M17.6614 16.1644C17.5283 16.1287 17.3876 16.089 17.2388 16.045C16.9378 15.9561 16.6717 15.8711 16.4365 15.7898C16.4103 15.356 17.4021 13.1523 17.5301 13.0079C17.6404 12.8835 17.7745 12.8146 18.8305 13.0662C20.1075 13.4447 20.729 13.7416 20.7979 13.8834C20.8789 14.0502 20.5414 15.9238 20.1835 16.1762C19.8892 16.3838 19.5183 16.5839 18.2188 16.3008C18.0076 16.2448 17.823 16.2002 17.6614 16.1644Z" fill="#0B0C10" fill-opacity="0.1"/>
<ellipse cx="17.9608" cy="13.2877" rx="2.81979" ry="0.336429" transform="rotate(15 17.9608 13.2877)" fill="url(#paint1_linear_708_56293)"/>
<path d="M24.7803 8.81613C19.3901 7.01644 17.2782 10.6553 17.0409 12.7773C17.044 12.8476 17.3173 13.2747 17.9428 13.4215C18.5683 13.5683 19.111 13.5992 19.1785 13.5801C18.8889 12.1301 19.1269 10.8586 20.768 10.4561C22.4091 10.0535 24.2616 10.5723 24.5227 10.4561C24.6306 10.4081 24.7672 9.96866 24.7803 9.72621C24.799 9.38144 24.9585 8.88452 24.7803 8.81613Z" fill="#D9D9D9"/>
<path fill-rule="evenodd" clip-rule="evenodd" d="M24.7809 9.71981C19.1967 8.5766 17.9295 11.1275 17.9294 13.3923C17.9297 13.3981 17.9324 13.4075 17.9373 13.42C17.9392 13.4204 17.9411 13.4209 17.943 13.4214C18.5685 13.5682 19.1112 13.5991 19.1787 13.5799C18.8891 12.13 19.1271 10.8585 20.7682 10.4559C21.865 10.1869 23.0562 10.3294 23.8037 10.4188C24.1747 10.4632 24.4363 10.4945 24.5229 10.4559C24.6308 10.4079 24.7674 9.96853 24.7805 9.72609C24.7806 9.724 24.7808 9.72191 24.7809 9.71981Z" fill="#282832" fill-opacity="0.5"/>
<path d="M29.4428 6.53338L27.4976 9.55838L27.3841 9.7348L27.5508 9.86216L30.4083 12.0459L26.816 11.8738L26.6065 11.8638L26.5795 12.0718L26.1171 15.6384L24.47 12.4413L24.3739 12.2549L24.1803 12.3355L20.8604 13.7183L22.8055 10.6933L22.919 10.5169L22.7523 10.3896L19.8948 8.20581L23.4871 8.37789L23.6966 8.38792L23.7236 8.17992L24.186 4.61333L25.8331 7.81041L25.9292 7.99687L26.1228 7.91622L29.4428 6.53338Z" fill="#F6D049" stroke="#C5650C" stroke-width="0.454961"/>
<path d="M14.4523 39.065C13.3723 39.065 12.2623 38.925 11.1723 38.635C4.35228 36.805 0.302285 29.725 2.14229 22.855C3.59229 17.445 8.41228 13.555 13.9323 13.285C14.0233 12.9208 14.1453 12.5947 14.2523 12.345C14.3263 12.1722 14.3935 11.9967 14.5223 11.855C14.7269 11.6333 14.9938 11.5431 15.2823 11.495C15.4323 11.475 15.6223 11.475 15.8223 11.495C15.9823 11.505 16.1623 11.525 16.3823 11.565C16.6423 10.775 17.2223 9.515 18.4823 8.575L16.3023 6.915L22.7023 7.225L23.5323 0.875L26.4623 6.565L32.3723 4.105L28.9123 9.495L34.0023 13.385L27.6023 13.075L26.7823 19.425L23.8523 13.735L21.6623 14.645C21.6191 14.8753 21.5608 15.104 21.5223 15.335C26.1323 18.335 28.3423 24.105 26.9023 29.495C25.3523 35.265 20.1423 39.085 14.4823 39.085L14.4523 39.065ZM15.2723 12.405L15.1623 12.525C15.1423 12.565 15.1223 12.615 15.1023 12.665C15.0523 12.785 15.0023 12.935 14.9423 13.095C14.8723 13.315 14.7923 13.575 14.7323 13.815L14.5674 14.6548L14.3018 14.145C9.04182 14.275 4.41229 17.935 3.03229 23.065C1.32229 29.455 5.08228 36.035 11.4123 37.735C17.7423 39.435 24.2923 35.615 26.0023 29.225C27.3794 24.0886 24.7092 19.4126 20.8223 15.9534C20.4478 15.6201 20.3573 16.2089 20.2323 16.1313C20.2706 16.0049 20.5271 15.462 20.5621 15.335C20.6005 15.1956 20.6371 15.0557 20.6723 14.915C20.7371 14.6037 20.7859 14.2907 20.8223 13.975L24.2623 12.545L26.2393 16.3657L26.8023 12.105L31.1223 12.315L27.6823 9.685L30.0223 6.045L26.0323 7.705L24.0523 3.855L23.4923 8.145L19.1723 7.935L20.1923 8.67041L19.4923 8.975C17.8623 9.915 17.3085 11.6882 17.1534 12.1782C16.9982 12.6682 17.3878 13.245 17.3878 13.245L16.3174 12.485C15.9774 12.415 16.0023 12.405 15.7723 12.395C15.614 12.395 15.4249 12.3541 15.2723 12.405ZM20.6065 13.735L20.2323 13.555C20.0023 13.455 19.6418 13.355 19.3018 13.245L19.1623 13.6001L19.0623 12.835C19.0258 12.1604 19.1622 11.6036 19.4723 11.205C19.7523 10.845 20.1823 10.585 20.7523 10.445C21.1023 10.355 21.8171 10.2976 22.2471 10.2876L22.6143 10.5688L20.6065 13.735ZM19.9723 12.485C20.0623 12.515 20.1523 12.545 20.2323 12.575L21.0323 11.325C21.0323 11.325 20.9923 11.325 20.9723 11.345C20.6123 11.435 20.3523 11.575 20.1923 11.775C20.0592 11.9461 19.9934 12.1686 19.9723 12.485Z" fill="#181022"/>
<defs>
<linearGradient id="paint0_linear_708_56293" x1="4.96872" y1="10.3767" x2="19.5065" y2="31.3429" gradientUnits="userSpaceOnUse">
<stop stop-color="#AFFFFA"/>
<stop offset="1" stop-color="#D9D9D9" stop-opacity="0"/>
</linearGradient>
<linearGradient id="paint1_linear_708_56293" x1="16.5005" y1="13.0727" x2="20.4068" y2="13.6241" gradientUnits="userSpaceOnUse">
<stop stop-color="#2B2D37"/>
<stop offset="1" stop-color="#22202A"/>
</linearGradient>
</defs>
</svg>
