<svg width="35" height="43" viewBox="0 0 35 43" fill="none" xmlns="http://www.w3.org/2000/svg">
<ellipse cx="15.3511" cy="28.2755" rx="11.8872" ry="11.8872" transform="rotate(15 15.3511 28.2755)" fill="#271238" fill-opacity="0.7"/>
<ellipse cx="15.3511" cy="26.047" rx="11.8872" ry="11.8872" transform="rotate(15 15.3511 26.047)" fill="url(#paint0_linear_708_56296)"/>
<mask id="mask0_708_56296" style="mask-type:alpha" maskUnits="userSpaceOnUse" x="3" y="14" width="25" height="24">
<ellipse cx="15.3509" cy="26.047" rx="11.8872" ry="11.8872" transform="rotate(15 15.3509 26.047)" fill="#2A4C96"/>
</mask>
<g mask="url(#mask0_708_56296)">
<ellipse cx="14.0974" cy="23.809" rx="10.4764" ry="10.4764" transform="rotate(15 14.0974 23.809)" fill="url(#paint1_linear_708_56296)" fill-opacity="0.5"/>
</g>
<ellipse cx="18.5881" cy="15.5961" rx="3.22134" ry="0.880809" transform="rotate(17.5862 18.5881 15.5961)" fill="#17121C" fill-opacity="0.5"/>
<path d="M16.0151 12.4475C16.1482 12.2975 17.1066 12.382 18.8848 12.8585C20.6631 13.335 21.5091 13.7165 21.5901 13.8834C21.6712 14.0502 21.3337 15.9237 20.9758 16.1761C20.6179 16.4285 20.1469 16.67 18.031 16.045C15.9152 15.42 15.5281 14.9873 15.4153 14.6862C15.3024 14.3851 15.882 12.5976 16.0151 12.4475Z" fill="#EB5814"/>
<path fill-rule="evenodd" clip-rule="evenodd" d="M18.4537 16.1644C18.3206 16.1287 18.1799 16.089 18.031 16.045C17.73 15.9561 17.464 15.8711 17.2288 15.7898C17.2025 15.356 18.1943 13.1523 18.3224 13.0079C18.4327 12.8835 18.5667 12.8146 19.6228 13.0662C20.8997 13.4447 21.5212 13.7416 21.5901 13.8834C21.6712 14.0502 21.3336 15.9238 20.9757 16.1762C20.6814 16.3838 20.3105 16.5839 19.0111 16.3008C18.7999 16.2448 18.6152 16.2002 18.4537 16.1644Z" fill="#0B0C10" fill-opacity="0.1"/>
<ellipse cx="18.7531" cy="13.2877" rx="2.81979" ry="0.336429" transform="rotate(15 18.7531 13.2877)" fill="url(#paint2_linear_708_56296)"/>
<path d="M25.5726 8.81613C20.1823 7.01644 18.0704 10.6553 17.8332 12.7773C17.8363 12.8476 18.1096 13.2747 18.735 13.4215C19.3605 13.5683 19.9032 13.5992 19.9707 13.5801C19.6812 12.1301 19.9191 10.8586 21.5603 10.4561C23.2014 10.0535 25.0539 10.5723 25.315 10.4561C25.4228 10.4081 25.5594 9.96866 25.5726 9.72621C25.5912 9.38144 25.7508 8.88452 25.5726 8.81613Z" fill="#D9D9D9"/>
<path fill-rule="evenodd" clip-rule="evenodd" d="M25.5731 9.71981C19.9889 8.5766 18.7217 11.1275 18.7217 13.3923C18.7219 13.3981 18.7246 13.4075 18.7295 13.42C18.7314 13.4204 18.7333 13.4209 18.7353 13.4214C19.3607 13.5682 19.9034 13.5991 19.9709 13.5799C19.6814 12.13 19.9193 10.8585 21.5605 10.4559C22.6573 10.1869 23.8485 10.3294 24.5959 10.4188C24.9669 10.4632 25.2286 10.4945 25.3152 10.4559C25.423 10.4079 25.5596 9.96853 25.5728 9.72609C25.5729 9.724 25.573 9.72191 25.5731 9.71981Z" fill="#282832" fill-opacity="0.5"/>
<path d="M30.235 6.53338L28.2898 9.55838L28.1764 9.7348L28.343 9.86216L31.2006 12.0459L27.6083 11.8738L27.3987 11.8638L27.3718 12.0718L26.9094 15.6384L25.2622 12.4413L25.1662 12.2549L24.9726 12.3355L21.6526 13.7183L23.5978 10.6933L23.7112 10.5169L23.5446 10.3896L20.687 8.20581L24.2793 8.37789L24.4888 8.38792L24.5158 8.17992L24.9782 4.61333L26.6254 7.81041L26.7214 7.99687L26.915 7.91622L30.235 6.53338Z" fill="#F6D049" stroke="#C5650C" stroke-width="0.454961"/>
<path d="M15.2445 39.065C14.1645 39.065 13.0545 38.925 11.9645 38.635C5.14452 36.805 1.09452 29.725 2.93452 22.855C4.38452 17.445 9.20452 13.555 14.7245 13.285C14.8156 12.9208 14.9375 12.5947 15.0445 12.345C15.1186 12.1722 15.1857 11.9967 15.3145 11.855C15.5191 11.6333 15.786 11.5431 16.0745 11.495C16.2245 11.475 16.4145 11.475 16.6145 11.495C16.7745 11.505 16.9545 11.525 17.1745 11.565C17.4345 10.775 18.0145 9.515 19.2745 8.575L17.0945 6.915L23.4945 7.225L24.3245 0.875L27.2545 6.565L33.1645 4.105L29.7045 9.495L34.7945 13.385L28.3945 13.075L27.5745 19.425L24.6445 13.735L22.4545 14.645C22.4113 14.8753 22.353 15.104 22.3145 15.335C26.9245 18.335 29.1345 24.105 27.6945 29.495C26.1445 35.265 20.9345 39.085 15.2745 39.085L15.2445 39.065ZM16.0645 12.405L15.9545 12.525C15.9345 12.565 15.9145 12.615 15.8945 12.665C15.8445 12.785 15.7945 12.935 15.7345 13.095C15.6645 13.315 15.5845 13.575 15.5245 13.815L15.3597 14.6548L15.0941 14.145C9.83405 14.275 5.20452 17.935 3.82452 23.065C2.11452 29.455 5.87452 36.035 12.2045 37.735C18.5345 39.435 25.0845 35.615 26.7945 29.225C28.1716 24.0886 25.5014 19.4126 21.6145 15.9534C21.2401 15.6201 21.1495 16.2089 21.0245 16.1313C21.0628 16.0049 21.3193 15.462 21.3543 15.335C21.3927 15.1956 21.4293 15.0557 21.4645 14.915C21.5294 14.6037 21.5781 14.2907 21.6145 13.975L25.0545 12.545L27.0316 16.3657L27.5945 12.105L31.9145 12.315L28.4745 9.685L30.8145 6.045L26.8245 7.705L24.8445 3.855L24.2845 8.145L19.9645 7.935L20.9845 8.67041L20.2845 8.975C18.6545 9.915 18.1008 11.6882 17.9456 12.1782C17.7905 12.6682 18.18 13.245 18.18 13.245L17.1097 12.485C16.7697 12.415 16.7945 12.405 16.5645 12.395C16.4063 12.395 16.2171 12.3541 16.0645 12.405ZM21.3987 13.735L21.0245 13.555C20.7945 13.455 20.4341 13.355 20.0941 13.245L19.9545 13.6001L19.8545 12.835C19.8181 12.1604 19.9545 11.6036 20.2645 11.205C20.5445 10.845 20.9745 10.585 21.5445 10.445C21.8945 10.355 22.6094 10.2976 23.0394 10.2876L23.4066 10.5688L21.3987 13.735ZM20.7645 12.485C20.8545 12.515 20.9445 12.545 21.0245 12.575L21.8245 11.325C21.8245 11.325 21.7845 11.325 21.7645 11.345C21.4045 11.435 21.1445 11.575 20.9845 11.775C20.8514 11.9461 20.7856 12.1686 20.7645 12.485Z" fill="#181022"/>
<defs>
<linearGradient id="paint0_linear_708_56296" x1="22.319" y1="26.047" x2="-1.45434" y2="26.047" gradientUnits="userSpaceOnUse">
<stop stop-color="#F87628"/>
<stop offset="1" stop-color="#E24404"/>
</linearGradient>
<linearGradient id="paint1_linear_708_56296" x1="7.08555" y1="15.4034" x2="19.3735" y2="31.7982" gradientUnits="userSpaceOnUse">
<stop offset="0.0521636" stop-color="#FFD9C2"/>
<stop offset="1" stop-color="white" stop-opacity="0"/>
</linearGradient>
<linearGradient id="paint2_linear_708_56296" x1="17.2927" y1="13.0727" x2="21.1991" y2="13.6241" gradientUnits="userSpaceOnUse">
<stop stop-color="#2B2D37"/>
<stop offset="1" stop-color="#22202A"/>
</linearGradient>
</defs>
</svg>
