<svg width="35" height="43" viewBox="0 0 35 43" fill="none" xmlns="http://www.w3.org/2000/svg">
<ellipse cx="14.7478" cy="28.2755" rx="11.8872" ry="11.8872" transform="rotate(15 14.7478 28.2755)" fill="#271238" fill-opacity="0.7"/>
<ellipse cx="14.7478" cy="26.047" rx="11.8872" ry="11.8872" transform="rotate(15 14.7478 26.047)" fill="url(#paint0_linear_708_56298)"/>
<mask id="mask0_708_56298" style="mask-type:alpha" maskUnits="userSpaceOnUse" x="2" y="14" width="25" height="24">
<ellipse cx="14.7477" cy="26.047" rx="11.8872" ry="11.8872" transform="rotate(15 14.7477 26.047)" fill="#2A4C96"/>
</mask>
<g mask="url(#mask0_708_56298)">
<ellipse cx="13.4941" cy="23.809" rx="10.4764" ry="10.4764" transform="rotate(15 13.4941 23.809)" fill="url(#paint1_linear_708_56298)" fill-opacity="0.6"/>
</g>
<ellipse cx="17.9848" cy="15.5961" rx="3.22134" ry="0.880809" transform="rotate(17.5862 17.9848 15.5961)" fill="#17121C" fill-opacity="0.5"/>
<path d="M15.4118 12.4475C15.5449 12.2975 16.5033 12.382 18.2816 12.8585C20.0599 13.335 20.9058 13.7165 20.9869 13.8834C21.0679 14.0502 20.7304 15.9237 20.3725 16.1761C20.0146 16.4285 19.5436 16.67 17.4278 16.045C15.312 15.42 14.9248 14.9873 14.812 14.6862C14.6992 14.3851 15.2788 12.5976 15.4118 12.4475Z" fill="#BC9D2E"/>
<path fill-rule="evenodd" clip-rule="evenodd" d="M17.8504 16.1644C17.7173 16.1287 17.5766 16.089 17.4277 16.045C17.1267 15.9561 16.8607 15.8711 16.6255 15.7898C16.5992 15.356 17.591 13.1523 17.7191 13.0079C17.8294 12.8835 17.9635 12.8146 19.0195 13.0662C20.2964 13.4447 20.9179 13.7416 20.9868 13.8834C21.0679 14.0502 20.7304 15.9238 20.3725 16.1762C20.0781 16.3838 19.7073 16.5839 18.4078 16.3008C18.1966 16.2448 18.012 16.2002 17.8504 16.1644Z" fill="#0B0C10" fill-opacity="0.1"/>
<ellipse cx="18.1498" cy="13.2877" rx="2.81979" ry="0.336429" transform="rotate(15 18.1498 13.2877)" fill="url(#paint2_linear_708_56298)"/>
<path d="M24.9693 8.81613C19.5791 7.01644 17.4671 10.6553 17.2299 12.7773C17.233 12.8476 17.5063 13.2747 18.1318 13.4215C18.7573 13.5683 19.3 13.5992 19.3675 13.5801C19.0779 12.1301 19.3159 10.8586 20.957 10.4561C22.5981 10.0535 24.4506 10.5723 24.7117 10.4561C24.8195 10.4081 24.9562 9.96866 24.9693 9.72621C24.988 9.38144 25.1475 8.88452 24.9693 8.81613Z" fill="#D9D9D9"/>
<path fill-rule="evenodd" clip-rule="evenodd" d="M24.9699 9.71981C19.3856 8.5766 18.1184 11.1275 18.1184 13.3923C18.1187 13.3981 18.1213 13.4075 18.1262 13.42C18.1281 13.4204 18.1301 13.4209 18.132 13.4214C18.7575 13.5682 19.3002 13.5991 19.3677 13.5799C19.0781 12.13 19.3161 10.8585 20.9572 10.4559C22.054 10.1869 23.2452 10.3294 23.9927 10.4188C24.3636 10.4632 24.6253 10.4945 24.7119 10.4559C24.8197 10.4079 24.9564 9.96853 24.9695 9.72609C24.9696 9.724 24.9697 9.72191 24.9699 9.71981Z" fill="#282832" fill-opacity="0.5"/>
<path d="M29.6317 6.53338L27.6865 9.55838L27.5731 9.7348L27.7398 9.86216L30.5973 12.0459L27.005 11.8738L26.7955 11.8638L26.7685 12.0718L26.3061 15.6384L24.659 12.4413L24.5629 12.2549L24.3693 12.3355L21.0493 13.7183L22.9945 10.6933L23.108 10.5169L22.9413 10.3896L20.0838 8.20581L23.6761 8.37789L23.8856 8.38792L23.9125 8.17992L24.3749 4.61333L26.0221 7.81041L26.1181 7.99687L26.3118 7.91622L29.6317 6.53338Z" fill="#F6D049" stroke="#C5650C" stroke-width="0.454961"/>
<path d="M14.6412 39.065C13.5612 39.065 12.4513 38.925 11.3612 38.635C4.54125 36.805 0.49125 29.725 2.33125 22.855C3.78125 17.445 8.60125 13.555 14.1212 13.285C14.2123 12.9208 14.3342 12.5947 14.4412 12.345C14.5153 12.1722 14.5825 11.9967 14.7112 11.855C14.9159 11.6333 15.1827 11.5431 15.4712 11.495C15.6212 11.475 15.8112 11.475 16.0112 11.495C16.1712 11.505 16.3512 11.525 16.5712 11.565C16.8313 10.775 17.4113 9.515 18.6713 8.575L16.4913 6.915L22.8913 7.225L23.7213 0.875L26.6513 6.565L32.5613 4.105L29.1012 9.495L34.1912 13.385L27.7913 13.075L26.9713 19.425L24.0413 13.735L21.8512 14.645C21.8081 14.8753 21.7497 15.104 21.7113 15.335C26.3213 18.335 28.5313 24.105 27.0913 29.495C25.5413 35.265 20.3312 39.085 14.6712 39.085L14.6412 39.065ZM15.4612 12.405L15.3512 12.525C15.3312 12.565 15.3112 12.615 15.2912 12.665C15.2412 12.785 15.1912 12.935 15.1312 13.095C15.0612 13.315 14.9812 13.575 14.9212 13.815L14.7564 14.6548L14.4908 14.145C9.23078 14.275 4.60125 17.935 3.22125 23.065C1.51125 29.455 5.27125 36.035 11.6012 37.735C17.9312 39.435 24.4813 35.615 26.1912 29.225C27.5683 24.0886 24.8981 19.4126 21.0113 15.9534C20.6368 15.6201 20.5462 16.2089 20.4213 16.1313C20.4596 16.0049 20.7161 15.462 20.7511 15.335C20.7895 15.1956 20.8261 15.0557 20.8612 14.915C20.9261 14.6037 20.9748 14.2907 21.0113 13.975L24.4513 12.545L26.4283 16.3657L26.9913 12.105L31.3113 12.315L27.8713 9.685L30.2113 6.045L26.2213 7.705L24.2413 3.855L23.6813 8.145L19.3612 7.935L20.3813 8.67041L19.6813 8.975C18.0513 9.915 17.4975 11.6882 17.3423 12.1782C17.1872 12.6682 17.5767 13.245 17.5767 13.245L16.5064 12.485C16.1664 12.415 16.1912 12.405 15.9612 12.395C15.803 12.395 15.6139 12.3541 15.4612 12.405ZM20.7955 13.735L20.4213 13.555C20.1913 13.455 19.8308 13.355 19.4908 13.245L19.3512 13.6001L19.2513 12.835C19.2148 12.1604 19.3512 11.6036 19.6613 11.205C19.9413 10.845 20.3713 10.585 20.9412 10.445C21.2913 10.355 22.0061 10.2976 22.4361 10.2876L22.8033 10.5688L20.7955 13.735ZM20.1613 12.485C20.2513 12.515 20.3413 12.545 20.4213 12.575L21.2213 11.325C21.2213 11.325 21.1813 11.325 21.1613 11.345C20.8013 11.435 20.5413 11.575 20.3813 11.775C20.2482 11.9461 20.1823 12.1686 20.1613 12.485Z" fill="#181022"/>
<defs>
<linearGradient id="paint0_linear_708_56298" x1="13.4092" y1="21.0512" x2="22.209" y2="53.8927" gradientUnits="userSpaceOnUse">
<stop stop-color="#FAD44D"/>
<stop offset="1" stop-color="#A28520"/>
</linearGradient>
<linearGradient id="paint1_linear_708_56298" x1="8.01364" y1="13.9578" x2="20.3633" y2="29.4352" gradientUnits="userSpaceOnUse">
<stop stop-color="#FFF3CA"/>
<stop offset="1" stop-color="white" stop-opacity="0"/>
</linearGradient>
<linearGradient id="paint2_linear_708_56298" x1="16.6895" y1="13.0727" x2="20.5958" y2="13.6241" gradientUnits="userSpaceOnUse">
<stop stop-color="#2B2D37"/>
<stop offset="1" stop-color="#22202A"/>
</linearGradient>
</defs>
</svg>
