<svg width="24" height="24" viewBox="0 0 24 24" fill="none" xmlns="http://www.w3.org/2000/svg">
<path fill-rule="evenodd" clip-rule="evenodd" d="M9.2636 6.7636C9.61508 6.41213 10.1849 6.41213 10.5364 6.7636L12.9151 9.14228C12.9285 9.15574 12.942 9.16916 12.9553 9.18253C13.4208 9.64795 13.8322 10.0593 14.1192 10.4354C14.4303 10.8431 14.6787 11.3134 14.6787 11.9C14.6787 12.4866 14.4303 12.9569 14.1192 13.3646C13.8322 13.7407 13.4208 14.152 12.9553 14.6175C12.942 14.6308 12.9285 14.6443 12.9151 14.6577L10.5364 17.0364C10.1849 17.3879 9.61508 17.3879 9.2636 17.0364C8.91213 16.6849 8.91213 16.1151 9.2636 15.7636L11.6423 13.3849C12.1603 12.8669 12.4834 12.5411 12.6882 12.2727C12.8771 12.0251 12.8787 11.9348 12.8787 11.9C12.8787 11.8652 12.8771 11.7749 12.6882 11.5273C12.4834 11.2589 12.1603 10.9331 11.6423 10.4151L9.2636 8.0364C8.91213 7.68492 8.91213 7.11508 9.2636 6.7636Z" fill="#BCB8FF"/>
</svg>
