<svg xmlns="http://www.w3.org/2000/svg" width="1910" height="749" viewBox="0 0 1910 749"><g fill="none" fill-rule="nonzero"><path fill="#E432DD" d="M.638 128.183V749H1909.64V9.393c0-6.092-8.03-8.307-11.15-3.076l-145.11 243.011a40.023 40.023 0 0 1-26.78 18.771l-127.49 24.552-70.22 60.213a39.985 39.985 0 0 1-26.04 9.636h-67.43c-4.53 0-9.03.77-13.31 2.277l-188.55 66.498a40.006 40.006 0 0 1-31.58-2.14l-116.78-59.973a40.001 40.001 0 0 0-27.19-3.411l-148.688 34.002-197.469 36.584a40.015 40.015 0 0 1-7.286.669H589.62a39.999 39.999 0 0 1-27.935-11.37l-55.196-53.856a39.998 39.998 0 0 0-22.684-11.024l-167.447-22.169a40.004 40.004 0 0 1-22.227-10.585l-66.958-63.291L46.454 106.386C28.097 91.459.638 104.523.638 128.183Z"/><path fill="#D028D4" d="M1909.64 5.334V749H.638V112.256c0-9.755 12.538-13.738 18.167-5.771l248.65 351.903a10.001 10.001 0 0 0 8.167 4.229h252.792c1.095 0 2.183.18 3.219.533l193.558 65.828a9.999 9.999 0 0 0 6.781-.123l57.72-22 203.169-108.788a10.004 10.004 0 0 1 10.629.746l143.1 104.723a10.003 10.003 0 0 0 9.73 1.17l96.45-39.912c3.26-1.35 6.99-.881 9.82 1.234l128.21 95.959c4.11 3.071 9.87 2.543 13.34-1.223l87.64-94.93a10.004 10.004 0 0 1 7.35-3.217h141.38c2.81 0 5.49-1.185 7.39-3.265l148.37-162.87c.91-.992 1.6-2.156 2.05-3.422l101.6-289.382c1.86-5.31 9.72-3.97 9.72 1.656Z"/><path fill="#A601EE" d="M.638 319.314v427.358H1909.64V222.149c0-9.314-11.62-13.57-17.63-6.461l-113.46 134.006-124.34 146.872a39.978 39.978 0 0 1-16.51 11.617l-207.44 77.626a39.974 39.974 0 0 1-14.02 2.537h-204.02l-178.75-28.724a40.025 40.025 0 0 0-18.85 1.496l-265.803 87.446a40 40 0 0 1-29.528-1.802L495.548 541.506c-17.001-7.997-37.276-3.086-48.732 11.805l-49.215 63.975c-14.762 19.189-43.052 20.968-60.102 3.78L244.99 527.81 112.633 395.096l-95.418-83.314c-6.468-5.648-16.577-1.054-16.577 7.532Z"/><path fill="#59028B" d="M160.216 578.559.638 443.991V749H1909.64V461.962c0-7.839-8.61-12.63-15.27-8.497l-206.18 127.897-185.81 34.924-340.51 41.531c-2.06.251-4.14.18-6.18-.21l-208.769-39.97a29.999 29.999 0 0 0-13.957.641l-318.203 91.799a19.994 19.994 0 0 1-11.536-.135l-164.789-51.746-270.71-75.664a19.996 19.996 0 0 1-7.51-3.973Z"/><path fill="#59028B" stroke="#59028B" d="M445.882 689.621h.5V520.959c2.297.241 4.699.39 7.21.39 10.087 0 21.363-2.172 31.942-8.926 11.383-7.245 19.975-16.332 25.712-29.192 5.732-12.847 8.601-29.426 8.601-51.631v-90.18c0-10.102-8.11-17.497-18.073-17.497-10.023 0-18.055 8.95-18.055 18.982V431.6c0 15.161-1.56 25.837-4.506 33.618-2.938 7.761-7.259 12.657-12.827 16.257-6.182 3.965-13.859 3.797-20.008 2.705V305.685c0-10.043-8.102-18.191-18.087-18.191-9.996 0-18.054 8.149-18.054 18.191v221.603c-6.18 1.126-13.891 1.272-20.032-2.75l-.004-.003c-5.534-3.554-9.874-10.432-12.827-20.273-2.95-9.83-4.497-22.553-4.497-37.7v-82.078c0-10.158-8.111-17.497-18.073-17.497-10.024 0-18.055 8.923-18.055 19.02v80.564c0 44.388 11.448 74.392 34.303 88.963l.269-.422-.269.422c10.608 6.759 21.838 8.893 31.998 8.893 2.464 0 4.864-.149 7.182-.368v125.562h35.65Z"/><path fill="#59028B" d="M1498.27 553.699v135.422h28.21V588.298c1.99.198 4.05.337 6.17.337 8.1 0 17.03-1.701 25.47-7.076 18.17-11.583 27.34-35.485 27.34-71.067v-64.665c0-7.909-6.29-14.865-14.09-14.865-7.79 0-14.1 5.73-14.1 13.643v65.879c0 24.362-4.97 41.017-14.09 46.87-5.17 3.387-11.66 3.17-16.7 2.206V381.357c0-7.842-6.29-14.2-14.09-14.2-7.79 0-14.12 6.358-14.12 14.2V524.96c-5.01.935-11.47 1.17-16.67-2.168-9.09-5.871-14.1-15.989-14.1-40.37v-71.191c0-7.856-6.29-14.834-14.09-14.834s-14.11 5.774-14.11 13.642v72.383c0 35.586 9.2 52.977 27.36 64.534 8.41 5.371 17.38 7.102 25.42 7.102 2.16 0 4.22-.139 6.19-.359ZM1378.58 473.062l-2.97-12.818-51.76-35.204-4.6-.081 3.64-5.771 1.01-17.492-7.23 8.991.16-9.116-13.84 22.738-2.13 123.26-17.09 26.331-105.66-7.945-26.87 18.737 15.4 9.757-10.55 16.964 15.96 38.947 11.13 11.14.4 17.887 7.11 38.781 3.04 8.448 10.96.193-7.95-10.716 5.66-61.188 43.4 6.964 34.43-5.592 6.67 64.328 8 7.794 9.2.163-8.3-11.09 12.29-55.959 16.82-11.378 34.9-73.804-9.2-102.664 21.21 1.104zM849.393 459.198l-3.153-13.65-55.12-37.483-4.904-.086 3.878-6.147 1.084-18.629-7.702 9.577.17-9.709-14.749 24.218-2.291 131.275-18.203 28.046-112.532-8.443-28.613 19.961 16.398 10.389-11.242 18.068 16.99 41.477 11.854 11.862.418 19.05 7.569 41.3 3.235 8.997 11.678.204-8.466-11.412 6.039-65.166 46.221 7.409 36.662-5.962 7.094 68.509 8.516 8.299 9.801.171-8.839-11.809 13.101-59.599 17.918-12.121 37.183-78.609-9.781-109.337 22.595 1.173zM1038.67 489.263l-2.26-9.788-39.526-26.882-3.516-.062 2.78-4.406.775-13.357-5.521 6.865.121-6.96-10.572 17.362-1.627 94.121-13.047 20.106-80.683-6.067-20.513 14.308 11.759 7.45-8.058 12.954 12.186 29.739 8.5 8.507.303 13.658 5.431 29.613 2.321 6.451 8.372.148-6.071-8.184 4.322-46.722 33.14 5.318 26.285-4.27 5.094 49.12 6.108 5.952 7.026.123-6.338-8.468 9.386-42.729 12.845-8.688 26.648-56.357-7.02-78.394 16.2.844z"/></g></svg>