<svg xmlns="http://www.w3.org/2000/svg" width="99" height="101" fill="none" viewBox="0 0 99 101"><path fill="#9DEACE" stroke="#E9EEF1" stroke-width="8" d="M49.188 96.03c24.943 0 45-20.686 45-46 0-25.313-20.057-46-45-46-24.944 0-45 20.687-45 46 0 25.314 20.056 46 45 46Z"/><path fill="#7DD6B5" d="m47.69 91.532-35.5-59.5c-2.5 5.5-8.764 19.5 1.5 39 9.5 16 25 20.5 34 20.5ZM84.188 72.031l-38-64c8.5-.5 26.5 1.7 37 18.5 12.5 20 6 36 1 45.5Z"/><path fill="#D0FFE9" d="m41.188 23.03 1.35 3.65 3.65 1.35-3.65 1.35-1.35 3.65-1.351-3.65-3.65-1.35 3.65-1.35 1.35-3.65ZM55.188 33.03l.54 1.46 1.46.54-1.46.54-.54 1.46-.54-1.46-1.46-.54 1.46-.54.54-1.46ZM64.188 19.03l.54 1.46 1.46.54-1.46.54-.54 1.46-.54-1.46-1.46-.54 1.46-.54.54-1.46ZM15.688 49.868l.945 2.554 2.555.946-2.555.945-.945 2.555-.946-2.555-2.555-.945 2.555-.946.945-2.554ZM78.688 31.868l.945 2.554 2.555.946-2.555.945-.945 2.555-.946-2.555-2.555-.945 2.555-.946.945-2.554ZM49.688 80.029l.405 1.095 1.094.405-1.094.405-.406 1.095-.405-1.095-1.094-.405 1.094-.405.406-1.095ZM18.688 66.868l.405 1.095 1.095.405-1.095.405-.405 1.095-.406-1.095-1.095-.405 1.095-.405.405-1.095ZM34.688 79.868l.405 1.095 1.094.405-1.094.405-.406 1.095-.405-1.095-1.094-.405 1.094-.405.406-1.095ZM77.688 64.03l.405 1.095 1.094.405-1.094.405-.406 1.095-.405-1.095-1.094-.405 1.094-.405.406-1.095ZM37.688 42.03l.405 1.095 1.094.405-1.094.405-.406 1.095-.405-1.095-1.094-.405 1.094-.405.406-1.095ZM81.688 47.868l.405 1.094 1.094.406-1.094.405-.406 1.095-.405-1.095-1.094-.405 1.094-.406.406-1.094ZM35.688 13.97l.405 1.094 1.094.405-1.094.405-.406 1.095-.405-1.095-1.094-.405 1.094-.405.406-1.095Z"/><g clip-path="url(#a)"><path fill="#F5C800" d="M67.127 76.196H31.095v6.773h36.032v-6.773ZM63.425 69.42H34.6v6.773h28.826V69.42ZM73.838 28.52c.198-1.811.302-3.662.302-5.55H23.888c0 2.006.118 3.97.34 5.888C19.409 30.798 16 35.492 16 40.971c0 7.204 5.897 13.064 13.147 13.064 2.095 0 4.075-.492 5.832-1.362 3.143 3.02 6.79 5.055 10.722 5.793V69.42h6.816V58.427c4.003-.795 7.701-2.938 10.869-6.089a13.145 13.145 0 0 0 6.467 1.697c7.25 0 13.147-5.86 13.147-13.064 0-5.825-3.856-10.77-9.162-12.452ZM20.48 40.97c0-3.247 1.819-6.08 4.498-7.546 1.303 6.089 3.713 11.49 6.895 15.724a8.708 8.708 0 0 1-2.723.438c-4.778 0-8.666-3.864-8.666-8.612l-.004-.003Zm49.373 8.613a8.645 8.645 0 0 1-3.48-.727c3.15-4.289 5.514-9.732 6.766-15.856 3.157 1.29 5.384 4.374 5.384 7.97 0 4.749-3.888 8.613-8.666 8.613h-.004Z"/><path fill="#FFDD61" d="M57.779 22.97h-33.89c0 2.006.117 3.97.34 5.888C19.408 30.798 16 35.492 16 40.971c0 7.204 5.897 13.064 13.147 13.064 2.095 0 4.075-.492 5.832-1.362 3.143 3.02 6.79 5.055 10.722 5.793V69.42h3.311l.068-11.382s-3.379-13.78 3.634-22.685c7.013-8.901 5.065-12.384 5.065-12.384Zm-37.299 18c0-3.247 1.819-6.08 4.498-7.546 1.303 6.089 3.713 11.49 6.895 15.724a8.708 8.708 0 0 1-2.723.438c-4.778 0-8.666-3.864-8.666-8.612l-.004-.003Z"/><path fill="#E37E00" d="m49.65 28.081 3.125 7.25 7.928.703a.632.632 0 0 1 .362 1.108l-6.001 5.197 1.768 7.704a.632.632 0 0 1-.477.755.668.668 0 0 1-.488-.089l-6.808-4.038-6.826 4.056a.636.636 0 0 1-.869-.21.649.649 0 0 1-.075-.474l1.772-7.703-5.99-5.194a.636.636 0 0 1-.065-.891.659.659 0 0 1 .456-.196l7.895-.703 3.124-7.268a.646.646 0 0 1 1.18 0l-.01-.007Z"/></g><defs><clipPath id="a"><path fill="#fff" d="M16 22.97h67v60H16z"/></clipPath></defs></svg>