<svg xmlns="http://www.w3.org/2000/svg" xmlns:xlink="http://www.w3.org/1999/xlink" width="139" height="177" viewBox="0 0 139 177"><defs><linearGradient id="a" x1="50%" x2="50%" y1="0%" y2="100%"><stop offset="0%" stop-color="#88EBFE"/><stop offset="100%" stop-color="#8CFAF5"/></linearGradient><linearGradient id="b" x1="50.421%" x2="50.39%" y1="-52.048%" y2="136.882%"><stop offset="0%" stop-color="#2D0047"/><stop offset="100%" stop-color="#34312F"/></linearGradient><linearGradient id="g" x1="42.044%" x2="10.445%" y1="10.625%" y2="73.431%"><stop offset="0%" stop-color="#FFF"/><stop offset="100%" stop-color="#FFF" stop-opacity="0"/></linearGradient><linearGradient id="k" x1="50.444%" x2="50.444%" y1="10.9%" y2="98.891%"><stop offset="0%" stop-color="#394052"/><stop offset="100%" stop-color="#1C2534"/></linearGradient><linearGradient id="n" x1="11.303%" x2="31.371%" y1="44.974%" y2="55.857%"><stop offset="0%" stop-color="#FFC635" stop-opacity=".5"/><stop offset="21.354%" stop-color="#FFBA09" stop-opacity="0"/><stop offset="100%" stop-color="#FFC635" stop-opacity=".5"/></linearGradient><linearGradient id="o" x1="124.759%" x2="13.759%" y1="34.627%" y2="58.137%"><stop offset="0%" stop-color="#FFE49E"/><stop offset="79.688%" stop-color="#FFBA09"/></linearGradient><ellipse id="c" cx="80.143" cy="80" rx="79.5" ry="79.273"/><ellipse id="e" cx="80.143" cy="80" rx="79.5" ry="79.273"/><ellipse id="h" cx="80.143" cy="80" rx="79.5" ry="79.273"/><ellipse id="i" cx="80.143" cy="80" rx="79.5" ry="79.273"/><ellipse id="l" cx="80.143" cy="80" rx="79.5" ry="79.273"/></defs><g fill="none" fill-rule="evenodd"><path fill="#56E6FF" fill-rule="nonzero" d="M33.254 136.205c0 5.352-9.104 16.507-12.442 16.507-3.338 0-6.043-4.338-6.043-9.689s2.705-9.689 6.043-9.689 12.442-2.48 12.442 2.871Z"/><path fill="#56E6FF" fill-rule="nonzero" d="M33.253 150.07c0 5.352-9.104 16.507-12.442 16.507-3.337 0-6.043-4.338-6.043-9.689s2.706-9.689 6.043-9.689c3.338 0 12.442-2.48 12.442 2.871ZM33.912 174.979c1.591 5.106-3.779 18.491-6.964 19.496-3.184 1.004-7.056-2.32-8.647-7.426-1.591-5.106-.3-10.06 2.885-11.065 3.185-1.005 11.135-6.111 12.726-1.005Z"/><path fill="#56E6FF" fill-rule="nonzero" d="M34.43 163.935c0 5.351-9.104 16.507-12.441 16.507-3.338 0-6.044-4.338-6.044-9.689s2.706-9.689 6.044-9.689c3.337 0 12.442-2.48 12.442 2.871Z"/><path fill="#56E6FF" d="M22.796 110.028c-12.036-4.625-16.43-29.792-16.43-52.134 0-29.2 11.065-51.947 21.19-51.947 8.275 0 8.036 13.842 7.673 34.847-.081 4.69-.168 9.737-.168 15.066 1.192 8.835 3.088 16.738 4.728 23.575.578 2.407 1.124 4.683 1.596 6.82 6.955-3.662 15.342-5.385 24.68-5.385 10.346 0 20.338 2.116 28.689 6.641.529-2.495 1.176-5.19 1.868-8.076 1.64-6.837 3.536-14.74 4.729-23.575 0-5.33-.088-10.376-.169-15.065-.363-21.006-.602-34.848 7.674-34.848 10.124 0 21.19 22.747 21.19 51.947 0 22.062-4.285 46.877-15.981 51.95 1.879 5.245 2.915 11.257 2.915 18.08 0 3.739.122 7.83.251 12.147 1.008 33.824 2.428 81.477-51.167 81.477-51.032 0-48.349-43.205-46.278-76.537.381-6.142.742-11.948.742-17.087 0-6.743.788-12.694 2.268-17.896Z"/><path fill="#C6F5FF" d="M103.678 131.962c3.1-4.092 4.858-8.772 4.858-13.743 0-16.061-18.358-29.082-41.003-29.082s-41.003 13.02-41.003 29.082c0 5.027 1.797 9.755 4.962 13.88-3.86 5.205-3.86 12.037-3.86 19.519 0 16.313 17.91 27.012 40.004 27.012 22.093 0 40.003-10.699 40.003-27.012 0-7.548 0-14.434-3.961-19.656Z"/><path fill="#96F6FF" fill-rule="nonzero" d="M11.072 58.928c0 14.882 16.93 37.974 18.055 34.192 1.127-3.782-2.3-9.134 0-32.774 2.302-23.64 1.033-48.853-4.15-49.326-2.163-.197-12.902 23.798-13.905 47.908Z"/><path fill="url(#a)" fill-opacity=".8" fill-rule="nonzero" d="M22.178 60.139c0 14.882 16.93 37.974 18.056 34.192 1.127-3.782-2.3-9.134 0-32.774 2.301-23.64 1.033-48.853-4.15-49.326-2.163-.197-12.903 23.798-13.906 47.908Z" transform="translate(-12 5)"/><path fill="#54BDEA" fill-rule="nonzero" d="M83.334 150.158c0 5.407-6.801 9.79-15.191 9.79s-15.191-4.383-15.191-9.79c0-5.407 6.801-28.079 15.19-28.079 8.39 0 15.192 22.672 15.192 28.079Z"/><path stroke="url(#b)" stroke-width=".504" d="M80.013 138.456v7.985" transform="translate(-12 5)"/><path stroke="#000" stroke-linecap="round" stroke-linejoin="round" stroke-width=".527" d="M59.402 148.779c6.66 3.45 10.183 3.647 16.016 0"/><path fill="#0F515C" fill-rule="nonzero" d="M67.994 133.695c7.387.158 9.01 5.462 9.995 6.979.984 1.516-.225 6.596-9.995 5.483-7.512-.281-11.615-1.912-10.213-5.234 0 0 2.825-7.387 10.213-7.228Z"/><path fill="#160646" fill-rule="nonzero" d="M75.785 140.253c.47.971-3.023 3.755-4.225 4.152-1.712.564-3.657 1.268-3.751 1.073-.095-.195 1.822-1.56 3.216-2.868 1.394-1.308 4.291-3.328 4.76-2.357Z"/><path fill="#160646" fill-rule="nonzero" d="M60.215 140.253c-.47.971 3.023 3.755 4.226 4.152 1.712.564 3.656 1.268 3.75 1.073.095-.195-1.822-1.56-3.216-2.868-1.394-1.308-4.291-3.328-4.76-2.357Z"/><g transform="translate(-12 34)"><mask id="d" fill="#fff"><use xlink:href="#c"/></mask><g mask="url(#d)"><g transform="translate(43 79)"><path fill="#8C8C8C" fill-opacity=".2" fill-rule="nonzero" d="M21.005 7.152c1.175 4.792-1.607 9.617-6.212 10.776-4.605 1.16-9.29-1.785-10.464-6.577-1.175-4.792.864-4.395 5.469-5.554 4.605-1.16 10.033-3.437 11.207 1.355ZM70.123 7.152c1.174 4.792-1.607 9.617-6.212 10.776-4.605 1.16-9.29-1.785-10.465-6.577-1.174-4.792.864-4.395 5.47-5.554 4.605-1.16 10.033-3.437 11.207 1.355Z"/><ellipse cx="53.587" cy="11.738" fill="#333" fill-rule="nonzero" rx="2.02" ry="1.053" transform="rotate(-30.977 53.587 11.738)"/><ellipse cx="21.133" cy="12.83" fill="#333" fill-rule="nonzero" rx="2.02" ry="1.053" transform="scale(-1 1) rotate(-30.977 0 89.093)"/><ellipse cx="4.157" cy="3.267" fill="#333" fill-rule="nonzero" rx="2.02" ry="1.053" transform="scale(-1 1) rotate(-30.977 0 18.269)"/><ellipse cx="10.819" cy="23.677" fill="#FF7BE2" fill-opacity=".3" fill-rule="nonzero" rx="10.755" ry="2.367"/><ellipse cx="63.258" cy="23.677" fill="#FF7BE2" fill-opacity=".3" fill-rule="nonzero" rx="10.755" ry="2.367"/><path fill="#333" d="M54.666 2.878a9.226 9.226 0 0 0-1.408 3.108c-1.18 4.797 1.593 9.622 6.193 10.776s9.285-1.799 10.465-6.596c.938-3.816-.625-7.649-3.619-9.639a31.066 31.066 0 0 1-4.064 1.38c-.579.154-1.15.291-1.71.409.8.64 1.202 1.71.942 2.77a2.681 2.681 0 0 1-3.258 1.966 2.712 2.712 0 0 1-1.556-4.185c-.722.045-1.389.049-1.985.011ZM8.13.588C5.101 2.57 3.512 6.423 4.452 10.257c1.175 4.793 5.86 7.739 10.464 6.581 4.604-1.158 7.383-5.983 6.208-10.776a9.18 9.18 0 0 0-1.464-3.186c-1.957.129-4.685-.188-7.61-.969-.312-.084-.62-.171-.922-.261a2.684 2.684 0 0 1 1.511 1.814 2.713 2.713 0 0 1-1.968 3.278 2.681 2.681 0 0 1-3.258-1.967 2.712 2.712 0 0 1 1.968-3.277c.38-.096.76-.105 1.122-.041A29.649 29.649 0 0 1 8.13.588Z"/></g></g></g><g transform="translate(-12 34)"><mask id="f" fill="#fff"><use xlink:href="#e"/></mask><g fill-rule="nonzero" mask="url(#f)"><path fill="#F88" d="M32.74 51.89c-3.333.763-4.754.656-4.754.656s4.216 5.335 9.656 7.703c-3.618 7.98-3.812 17.636-3.812 17.636s.909-.943 3.4-2.519c-.084 1.332-.16 2.685-.218 4.085-.094 2.33-.097 4.33-.017 6.052.4-.128.807-.237 1.227-.305.632-4.439 1.721-8.507 3.196-12.209 2.253-1.165 5.081-2.484 8.654-3.912 2.035-.81 3.722-1.724 5.13-2.697 16.634 5.649 28.445-.259 35.411-6.2-3.297 8.027-9.454 8.829-8.26 8.949 0 0 15.84 3.971 25.802-5.508-1.664 2.578 2.779 6.879 8.336 8.408 0 0-3.473-2.294-.816-6.734 2.206 6.733 6.045 12.151 7.15 19.931.422.077.828.193 1.227.328.069-1.78.074-3.798.008-6.102-.199-6.67-.795-12.557-1.834-17.728 2.221 2.717 2.438 4.755 2.438 4.755s6.211-9.438-.675-21.18c-6.885-11.742-17.382-10.065-17.382-10.065-4.025-2.705-8.11-5.407-8.11-5.407s.164.925.457 2.329c-14.283-5.9-18.64-10.222-18.64-10.222s.087 2.428.583 6.078a55.685 55.685 0 0 0-6.503-.375c-22.356 0-32.585 13.85-37.027 6.517 0 0-1.939 4.702 4.816 11.05-9.306-.773-12.372-7.063-12.372-7.063s-2.852 6.087 2.93 13.75Z"/><path fill="url(#g)" fill-opacity=".3" d="M28.27 23.388c-21.558 1.645 9.27-14.19 17.726-12.859.473.075.946.198 1.417.362 6.168 2.152 2.817 10.286-3.682 10.978-5.898.629-12.12 1.264-15.462 1.519Z" transform="translate(27 21)"/><path fill="#EA6565" d="M107.74 63.843c-9.437 3.666-14.992 4.762-25.319 5.301 0 0 8.608 1.767 15.191 0 7.424-1.993 10.128-5.302 10.128-5.302Z"/><path fill="#FF9797" d="M31.784 42.636c-1.184-1.427-2.025-4.292-2.025-4.292s2.505 2.96 4.557 4.292c2.232 1.447 6.33 2.524 6.33 2.524s-1.973.795-3.292.758c-2.525-.072-3.958-1.342-5.57-3.282ZM37.354 34.052s.026.109.077.288c.185.43.814 1.27 2.962 1.984.469.156.76 1.01.76 1.01s-1.114.21-1.773 0c-1.093-.347-1.739-2.26-1.949-2.995-.077-.178-.077-.287-.077-.287Z"/></g></g><g transform="translate(-12 34)"><mask id="j" fill="#fff"><use xlink:href="#i"/></mask><g fill-rule="nonzero" mask="url(#j)"><g transform="translate(36 -20)"><path fill="#242633" d="M99.793 63.901c0 6.788-26.067 21.316-51.806 21.316-25.74 0-47.57-11.071-47.57-17.86 0-6.787 23.37-9.985 49.11-9.985s50.266-.259 50.266 6.53Z"/><path fill="url(#k)" d="m20.783 64.281-9.771-49.546 65.731-6.544-.88 55.322z"/><ellipse cx="43.95" cy="11.786" fill="#394052" rx="32.97" ry="7.715" transform="rotate(-5.598 43.95 11.786)"/><path fill="#FF52F0" d="M15.045 52.186c-.415-1.55 2.504-3.264 2.504-3.264s2.66 12.482 27.54 12.482c23.688 0 31.199-18.243 31.199-18.243l2.889 2.88-1.734 11.33 4.045 5.57s-7.505 12.482-36.4 12.482c-22.725 0-25.036-5.185-28.502-9.218-1.63-1.896 2.696-6.145 2.696-6.145s-3.467-4.993-4.237-7.874Z"/><path fill="#F740CB" d="m19.434 60.058-2.503-4.033c23.198 11.289 38.71 12.866 61.628-6.53l-1.156 8.643c-23.852 13.181-38.937 12.028-57.969 1.92Z"/></g></g></g><g transform="translate(-12 34)"><mask id="m" fill="#fff"><use xlink:href="#l"/></mask><g mask="url(#m)"><path fill="url(#n)" d="M69.007 43.54a.524.524 0 0 0-.473 0L45.6 55.085a.524.524 0 0 1-.642-.134L.9 1.572c-.352-.426.107-1.036.614-.816L68.56 29.881a.525.525 0 0 0 .419 0L136.027.756c.507-.22.966.39.615.816L92.583 54.951a.524.524 0 0 1-.641.134L69.007 43.54Z" transform="translate(12 53)"/><path fill="url(#o)" fill-opacity=".7" fill-rule="nonzero" d="m92.583 54.951-.101-.084.101.084Zm-.641.134.059-.117-.059.117ZM136.027.756l-.052-.12.052.12Zm.615.816-.102-.084.102.084Zm-68.08 28.309.052-.12-.053.12Zm.418 0 .052.121-.052-.121Zm-.446 13.659-.059-.118.06.118Zm.473 0-.06.117.06-.117ZM45.6 55.085l-.06-.117.06.117Zm-.642-.134.102-.084-.102.084Zm.7.252 22.936-11.546-.118-.235L45.54 54.968l.118.235ZM.799 1.656l44.06 53.378.202-.167L1 1.489l-.202.167ZM68.614 29.76 1.566.636l-.105.24L68.51 30.003l.105-.241Zm.418.241L136.08.877l-.105-.241L68.928 29.76l.104.241ZM136.54 1.488 92.482 54.867l.202.167 44.059-53.378-.203-.167Zm-44.539 53.48L69.066 43.422l-.118.235 22.935 11.546.118-.235Zm.481-.101a.394.394 0 0 1-.481.101l-.118.235a.656.656 0 0 0 .801-.169l-.202-.167ZM136.08.877c.38-.165.724.292.46.611l.203.168c.439-.533-.135-1.295-.768-1.02l.105.24ZM68.51 30.002a.66.66 0 0 0 .522 0l-.104-.241a.398.398 0 0 1-.314 0l-.105.241ZM1 1.488c-.263-.319.082-.776.462-.612l.104-.24C.933.36.36 1.123.798 1.656l.203-.167Zm67.594 42.169a.394.394 0 0 1 .354 0l.118-.235a.66.66 0 0 0-.59 0l.118.235ZM45.54 54.968a.393.393 0 0 1-.481-.101l-.203.167a.657.657 0 0 0 .802.169l-.118-.235Z" transform="translate(12 53)"/></g></g></g></svg>