<svg xmlns="http://www.w3.org/2000/svg" width="314" height="268" viewBox="0 0 314 268"><g fill="#FFF" fill-rule="nonzero" opacity=".05"><path d="m129.92 101.424 6.588 13.344 14.73 2.142-10.656 10.386 2.514 14.67-13.176-6.924-13.17 6.924 2.514-14.67-10.656-10.386 14.73-2.142zM75.536 248.898a6.576 6.576 0 1 0 0-13.152 6.576 6.576 0 0 0 0 13.152ZM95.435 231.33l-21.342-12.198a3.402 3.402 0 0 0-4.641 1.265l-.48.84a3.401 3.401 0 0 0 1.266 4.64l21.342 12.199a3.401 3.401 0 0 0 4.641-1.266l.48-.838a3.402 3.402 0 0 0-1.266-4.642Z"/><path d="m86.084 230.459-6.231-3.561-7.714 13.497 6.231 3.561zM113.192 176.736l-16.296 6.522-17.574 36.78 5.808 3.318a415.032 415.032 0 0 1 4.944-8.88c6.468-11.322 12.18-20.238 12.756-19.908.576.33-4.206 9.774-10.68 21.096a425.171 425.171 0 0 1-5.142 8.766l6.072 3.468 22.764-33.81-2.652-17.352ZM161.33 193.458l-.954-3.606 8.448-15.804 1.158-.642-1.692-.948-2.586-4.236 3.03 1.272-1.254-2.256 6.54 3.81 16.962 30.528 7.842 4.272 25.758-16.284 9.312 1.05-2.61 4.524 4.938 2.814 1.14 11.898-1.338 4.29 2.28 4.524 3.36 10.656.354 2.526-2.754 1.53.588-3.756-9.588-14.532-10.086 7.614-9.48 3.258 6.876 16.986-.99 3.03-2.316 1.284.63-3.894-10.578-12.33-5.784-.57-18.69-13.734-11.346-26.916-5.238 3.144-1.944.486zM195.164 135.486l4.332 8.784 9.69 1.41-7.008 6.834 1.65 9.648-8.664-4.554-8.664 4.554 1.65-9.648-7.008-6.834 9.69-1.41zM6.44 102.552l-1.596-2.916 3.93-15.486.864-.804-1.668-.462-3.144-3.114 2.898.45-1.566-1.686 6.48 1.902 21.21 22.8 7.704 2.022 18.81-19.602 8.286-1.08-1.29 4.47 4.878 1.38 3.528 10.056-.246 4.002 2.946 3.432 5.19 8.508.846 2.106-2.058 1.914-.294-3.378-11.406-10.53-7.104 8.748-7.512 4.848 9.588 13.23-.21 2.838-1.728 1.608-.288-3.504-11.79-8.412-5.13.744-19.116-7.89-15.576-20.868-3.858 3.846-1.578.834zM143.006 18.324l.762-3.24 13.272-8.892 1.182-.018-.936-1.458L157.028.3l1.854 2.268-.042-2.304 3.552 5.742.546 31.134 4.38 6.648 27.096-2.01 6.888 4.734-3.948 2.466 2.706 4.284-4.092 9.84-2.856 2.814-.102 4.518-1.824 9.798-.78 2.136-2.814.048 2.04-2.706-1.452-15.456-11.13 1.758-8.826-1.41-1.71 16.248-2.052 1.968-2.358.042 2.13-2.802-3.15-14.136-4.314-2.874-8.946-18.642 2.364-25.932-5.442.282-1.734-.432zM101.228 76.266a6.576 6.576 0 1 0 0-13.152 6.576 6.576 0 0 0 0 13.152ZM100.396 46.972l-20.51 13.55a3.402 3.402 0 0 0-.964 4.714l.532.806a3.402 3.402 0 0 0 4.714.964l20.51-13.55a3.402 3.402 0 0 0 .964-4.714l-.533-.806a3.402 3.402 0 0 0-4.713-.964Z"/><path d="m95.398 54.935-5.987 3.956 8.568 12.97 5.988-3.955zM59.666 6.51l-1.524 17.484 24.906 32.268 5.586-3.69a418.157 418.157 0 0 1-5.7-8.418C75.746 33.27 70.364 24.156 70.916 23.79c.552-.366 6.828 8.16 14.016 19.044a447.784 447.784 0 0 1 5.508 8.544l5.832-3.852-19.914-35.568-16.68-5.46-.012.012ZM14.276 28.464l4.302 8.706 9.612 1.398-6.96 6.78 1.644 9.576-8.598-4.518-8.598 4.518 1.644-9.576-6.96-6.78L9.98 37.17zM35.876 154.02l6.588 13.35 14.73 2.136-10.662 10.392 2.52 14.67-13.176-6.93-13.176 6.93 2.52-14.67-10.656-10.392 14.724-2.136zM235.676 94.02l6.588 13.35 14.73 2.136-10.662 10.392 2.52 14.67-13.176-6.93-13.176 6.93 2.52-14.67-10.656-10.392 14.724-2.136zM34.172 226.998l3.282 6.648 7.332 1.062-5.304 5.172 1.248 7.308-6.558-3.45-6.558 3.45 1.254-7.308-5.304-5.172 7.332-1.062zM137.846 246.672l3.282 6.642 7.332 1.068-5.31 5.172 1.254 7.302-6.558-3.45-6.558 3.45 1.254-7.302-5.31-5.172 7.338-1.068zM299.132 89.76a6.576 6.576 0 1 0 0-13.152 6.576 6.576 0 0 0 0 13.152ZM301.78 60.616 279.443 70.88a3.403 3.403 0 0 0-1.671 4.512l.404.878a3.401 3.401 0 0 0 4.511 1.67l22.337-10.264a3.401 3.401 0 0 0 1.67-4.511l-.403-.878a3.401 3.401 0 0 0-4.511-1.67Z"/><path d="m295.627 67.72-6.52 2.997 6.491 14.125 6.521-2.996zM267.686 14.406l-4.17 17.052 19.692 35.688 6.078-2.796a405.888 405.888 0 0 1-4.35-9.186c-5.448-11.85-9.372-21.678-8.772-21.954.6-.276 5.502 9.108 10.95 20.958a438.12 438.12 0 0 1 4.14 9.282l6.354-2.922-14.262-38.184-15.654-7.938h-.006ZM299.336 237.324l4.302 8.706 9.612 1.398-6.96 6.78 1.644 9.576-8.598-4.518-8.598 4.518 1.644-9.576-6.96-6.78 9.618-1.398zM225.176 41.982l3.282 6.642 7.332 1.068-5.31 5.172 1.254 7.302-6.558-3.45-6.558 3.45 1.254-7.302-5.31-5.172 7.338-1.068zM271.046 154.026l4.332 8.778 9.69 1.41-7.008 6.834 1.656 9.654-8.67-4.56-8.664 4.56 1.656-9.654-7.014-6.834 9.69-1.41z"/></g></svg>