<svg width="32" height="32" viewBox="0 0 32 32" fill="none" xmlns="http://www.w3.org/2000/svg">
<path d="M19.0312 20.5589C17.1729 22.1242 15.1083 22.7406 12.7825 22.3405C9.30058 21.743 6.62404 18.397 6.66701 14.6933C6.72116 10.128 10.0776 6.65499 14.4242 6.6667C18.537 6.67752 22.0129 10.5984 21.6587 14.8924C21.5831 15.8053 21.3055 16.7038 21.0726 17.5959C21.0038 17.859 21.0072 17.9861 21.2187 18.1528C23.1268 19.6568 23.4912 20.0128 25.3951 21.5222C26.1893 22.1521 26.3715 23.1632 25.8188 23.9274C25.2515 24.7114 24.2734 24.7934 23.4603 24.1437C21.4834 22.564 21.033 22.1521 19.0312 20.5598V20.5589ZM18.6762 15.2205C19.0415 12.626 17.3654 10.2227 14.9141 9.82705C12.4249 9.42513 10.0492 11.2788 9.67361 13.9147C9.30574 16.4965 11.0041 18.9242 13.4435 19.3018C15.9644 19.6929 18.304 17.868 18.6762 15.2205Z" fill="white"/>
</svg>
