<svg xmlns="http://www.w3.org/2000/svg" width="99" height="101" fill="none" viewBox="0 0 99 101"><path fill="#9BCFFF" stroke="#E9EEF1" stroke-width="8" d="M49.188 96.03c24.943 0 45-20.686 45-46 0-25.313-20.057-46-45-46-24.944 0-45 20.687-45 46 0 25.314 20.056 46 45 46Z"/><path fill="#70B0EC" d="m47.69 91.532-35.5-59.5c-2.5 5.5-8.764 19.5 1.5 39 9.5 16 25 20.5 34 20.5ZM84.188 72.031l-38-64c8.5-.5 26.5 1.7 37 18.5 12.5 20 6 36 1 45.5Z"/><path fill="#FEF5FF" d="m41.188 23.03 1.35 3.65 3.65 1.35-3.65 1.35-1.35 3.65-1.351-3.65-3.65-1.35 3.65-1.35 1.35-3.65ZM55.188 33.03l.54 1.46 1.46.54-1.46.54-.54 1.46-.54-1.46-1.46-.54 1.46-.54.54-1.46ZM64.188 19.03l.54 1.46 1.46.54-1.46.54-.54 1.46-.54-1.46-1.46-.54 1.46-.54.54-1.46ZM15.688 49.868l.945 2.554 2.555.946-2.555.945-.945 2.555-.946-2.555-2.555-.945 2.555-.946.945-2.554ZM78.688 31.868l.945 2.554 2.555.946-2.555.945-.945 2.555-.946-2.555-2.555-.945 2.555-.946.945-2.554ZM49.688 80.029l.405 1.095 1.094.405-1.094.405-.406 1.095-.405-1.095-1.094-.405 1.094-.405.406-1.095ZM18.688 66.868l.405 1.095 1.095.405-1.095.405-.405 1.095-.406-1.095-1.095-.405 1.095-.405.405-1.095ZM34.688 79.868l.405 1.095 1.094.405-1.094.405-.406 1.095-.405-1.095-1.094-.405 1.094-.405.406-1.095ZM77.688 64.03l.405 1.095 1.094.405-1.094.405-.406 1.095-.405-1.095-1.094-.405 1.094-.405.406-1.095ZM37.688 42.03l.405 1.095 1.094.405-1.094.405-.406 1.095-.405-1.095-1.094-.405 1.094-.405.406-1.095ZM81.688 47.868l.405 1.094 1.094.406-1.094.405-.406 1.095-.405-1.095-1.094-.405 1.094-.406.406-1.094ZM35.688 13.97l.405 1.094 1.094.405-1.094.405-.406 1.095-.405-1.095-1.094-.405 1.094-.405.406-1.095Z"/><g clip-path="url(#a)"><path fill="#6556C6" d="M50.77 20.97H25.23c-3.435 0-6.23 2.842-6.23 6.337v10.602c0 3.495 2.795 6.338 6.23 6.338h.762l1.274 6.721 5.09-6.721H50.77c3.436 0 6.23-2.843 6.23-6.338V27.307c0-3.495-2.795-6.338-6.23-6.338Z"/></g><g clip-path="url(#b)"><path fill="#182E68" d="M45.559 50.97H72.44c3.617 0 6.559 3.032 6.559 6.76v11.309c0 3.727-2.942 6.76-6.559 6.76h-.801l-1.342 7.17-5.357-7.17H45.558c-3.617 0-6.559-3.033-6.559-6.76v-11.31c.001-3.727 2.943-6.76 6.56-6.76Z"/></g><defs><clipPath id="a"><path fill="#fff" d="M19 20.97h38v30H19z"/></clipPath><clipPath id="b"><path fill="#fff" d="M79 50.97H39v32h40z"/></clipPath></defs></svg>