<svg width="9" height="18" viewBox="0 0 9 18" fill="none" xmlns="http://www.w3.org/2000/svg">
<path fill-rule="evenodd" clip-rule="evenodd" d="M8.60254 0.292893C8.99306 0.683417 8.99306 1.31658 8.60254 1.70711L4.37377 5.93587C3.4649 6.84475 2.85587 7.45678 2.46169 7.97342C2.08511 8.46698 2 8.75427 2 9C2 9.24573 2.08511 9.53302 2.46169 10.0266C2.85587 10.5432 3.46489 11.1552 4.37377 12.0641L8.60254 16.2929C8.99306 16.6834 8.99306 17.3166 8.60254 17.7071C8.21201 18.0976 7.57885 18.0976 7.18832 17.7071L2.91053 13.4293C2.06341 12.5822 1.35702 11.8759 0.871644 11.2397C0.359332 10.5683 0 9.85884 0 9C0 8.14116 0.359333 7.43172 0.871645 6.76025C1.35702 6.12409 2.06342 5.41774 2.91054 4.57067C2.92683 4.55439 2.94317 4.53805 2.95956 4.52166L7.18832 0.292893C7.57885 -0.0976311 8.21201 -0.0976311 8.60254 0.292893Z" fill="#BCB8FF"/>
</svg>
