<svg xmlns="http://www.w3.org/2000/svg" xmlns:xlink="http://www.w3.org/1999/xlink" width="100" height="100" viewBox="0 0 100 100"><defs><linearGradient id="c" x1="50%" x2="50%" y1="0%" y2="100%"><stop offset="0%" stop-color="#9F50FF"/><stop offset="100%" stop-color="#7F58FF"/></linearGradient><linearGradient id="d" x1="50%" x2="50%" y1="0%" y2="100%"><stop offset="0%" stop-color="#9F50FF"/><stop offset="100%" stop-color="#7F58FF"/></linearGradient><linearGradient id="e" x1="67.856%" x2="67.825%" y1="-52.041%" y2="136.872%"><stop offset="0%" stop-color="#2D0047"/><stop offset="100%" stop-color="#34312F"/></linearGradient><linearGradient id="j" x1="43.259%" x2="10.568%" y1="8.077%" y2="74.929%"><stop offset="0%" stop-color="#FFF"/><stop offset="100%" stop-color="#FFF" stop-opacity="0"/></linearGradient><linearGradient id="s" x1="50.001%" x2="50.001%" y1="0%" y2="100%"><stop offset="0%" stop-color="#E2ACFC"/><stop offset="100%" stop-color="#E8A1FB"/></linearGradient><linearGradient id="t" x1="50%" x2="50%" y1="0%" y2="100%"><stop offset="0%" stop-color="#E2ACFC"/><stop offset="100%" stop-color="#E99FFB"/></linearGradient><linearGradient id="u" x1="50.056%" x2="50.056%" y1="0%" y2="101.267%"><stop offset="0%" stop-color="#530379"/><stop offset="100%" stop-color="#2A0993"/></linearGradient><linearGradient id="v" x1="50%" x2="50%" y1="0%" y2="100%"><stop offset="0%" stop-color="#6355FF"/><stop offset="100%" stop-color="#4C37CC"/></linearGradient><linearGradient id="w" x1="148.549%" x2="-13.653%" y1="-28.333%" y2="99.099%"><stop offset="9.896%" stop-color="#02004B"/><stop offset="100%" stop-color="#330854"/></linearGradient><linearGradient id="x" x1="-48.548%" x2="113.653%" y1="-28.333%" y2="99.099%"><stop offset="9.896%" stop-color="#02004B"/><stop offset="100%" stop-color="#330854"/></linearGradient><circle id="f" cx="28.805" cy="28.297" r="27.985"/><circle id="h" cx="28.805" cy="28.297" r="27.985"/><circle id="k" cx="28.805" cy="28.297" r="27.985"/><circle id="o" cx="28.805" cy="28.297" r="27.985"/><circle id="q" cx="42.276" cy="42.033" r="42.033"/><ellipse id="a" cx="42.276" cy="41.098" rx="42.033" ry="41.098"/><ellipse id="m" cx="13.949" cy="4.954" rx="13.636" ry="4.634"/></defs><g fill="none" fill-rule="evenodd"><path fill="#A38BE7" fill-rule="nonzero" stroke="#E9EEF1" stroke-width="9.901" d="M49.973 94.565c24.761 0 44.834-20.073 44.834-44.834 0-24.762-20.073-44.835-44.834-44.835-24.762 0-44.835 20.073-44.835 44.835 0 24.761 20.073 44.834 44.835 44.834Z"/><path fill="#A38BE7" fill-rule="nonzero" stroke="#E9EEF1" stroke-width="5.604" d="M49.973 94.565c24.761 0 44.834-20.073 44.834-44.834 0-24.762-20.073-44.835-44.834-44.835-24.762 0-44.835 20.073-44.835 44.835 0 24.761 20.073 44.834 44.835 44.834Z"/><path fill="#917AD1" fill-rule="nonzero" d="M47.828 91.68 12.15 31.883C9.638 37.41 3.343 51.48 13.658 71.078c9.547 16.08 25.125 20.602 34.17 20.602ZM86.377 72.08 48.187 7.76C56.73 7.259 74.82 9.47 85.372 26.354c12.563 20.1 6.03 36.18 1.005 45.728Z"/><path fill="#D0FFE9" fill-rule="nonzero" d="M41.292 22.832 42.65 26.5l3.667 1.357-3.667 1.358-1.358 3.667-1.357-3.667-3.668-1.358 3.668-1.357zM55.362 32.884l.543 1.467 1.467.542-1.467.543-.543 1.468-.543-1.468-1.467-.543 1.467-.542zM64.406 18.81l.543 1.468 1.467.542-1.467.543-.543 1.468-.543-1.468-1.467-.543 1.467-.542zM15.664 49.804l.95 2.567 2.568.95-2.568.95-.95 2.568-.95-2.568-2.567-.95 2.567-.95zM78.98 31.713l.95 2.567 2.567.95-2.568.95-.95 2.568-.95-2.568-2.567-.95 2.567-.95zM49.834 80.115l.407 1.101 1.101.407-1.1.407-.408 1.1-.407-1.1-1.1-.407 1.1-.407zM18.68 66.89l.407 1.1 1.1.407-1.1.407-.407 1.101-.407-1.1-1.1-.408 1.1-.407zM34.76 79.953l.407 1.101 1.1.407-1.1.407-.408 1.101-.407-1.1-1.1-.408 1.1-.407zM77.974 64.035l.407 1.1 1.1.408-1.1.407-.407 1.1-.407-1.1-1.1-.407 1.1-.408zM37.775 41.926l.407 1.1 1.1.407-1.1.407-.407 1.101-.407-1.1-1.1-.408 1.1-.407zM81.995 47.793l.407 1.1 1.1.407-1.1.408-.407 1.1-.407-1.1-1.1-.408 1.1-.407zM35.764 13.727l.407 1.1 1.101.407-1.1.407-.408 1.101-.407-1.1-1.1-.408 1.1-.407z"/><g transform="translate(7.697 9.565)"><mask id="b" fill="#fff"><use xlink:href="#a"/></mask><g mask="url(#b)"><path fill="#E160FF" fill-rule="nonzero" d="M43.667 59.542c0 1.89-3.205 5.828-4.38 5.828-1.174 0-2.127-1.532-2.127-3.42 0-1.89.953-3.421 2.128-3.421 1.174 0 4.38-.876 4.38 1.013Z"/><path fill="#E160FF" fill-rule="nonzero" d="M43.667 64.437c0 1.89-3.205 5.827-4.38 5.827-1.175 0-2.127-1.531-2.127-3.42 0-1.89.952-3.42 2.127-3.42 1.175 0 4.38-.876 4.38 1.013ZM43.899 73.23c.56 1.803-1.33 6.528-2.452 6.883-1.12.354-2.483-.82-3.044-2.622-.56-1.802-.105-3.551 1.016-3.906 1.121-.354 3.92-2.157 4.48-.355Z"/><path fill="#5A5A5B" fill-rule="nonzero" d="M46.805 77.513c.56 1.803-1.33 6.528-2.451 6.883-1.121.354-2.484-.82-3.044-2.622s-.105-3.551 1.016-3.906c1.12-.355 3.92-2.157 4.48-.355Z"/><path fill="#E160FF" fill-rule="nonzero" d="M68.175 58.348c0 1.89 3.205 5.828 4.38 5.828 1.174 0 2.127-1.532 2.127-3.42 0-1.89-.953-3.421-2.128-3.421-1.174 0-4.38-.876-4.38 1.013Z"/><path fill="#E160FF" fill-rule="nonzero" d="M68.175 63.243c0 1.89 3.205 5.827 4.38 5.827 1.174 0 2.127-1.531 2.127-3.42 0-1.89-.953-3.42-2.127-3.42-1.175 0-4.38-.876-4.38 1.013ZM67.943 72.036c-.56 1.803 1.33 6.528 2.451 6.883 1.121.355 2.484-.82 3.044-2.622s.106-3.55-1.015-3.906c-1.121-.354-3.92-2.157-4.48-.355Z"/><path fill="#DDE8EF" fill-rule="nonzero" d="M64.502 76.32c-.56 1.802 1.33 6.527 2.451 6.882 1.121.355 2.484-.82 3.044-2.622s.105-3.551-1.016-3.906c-1.12-.354-3.92-2.157-4.48-.355Z"/><path fill="#E160FF" fill-rule="nonzero" d="M67.701 68.138c0 1.889 3.205 5.827 4.38 5.827 1.175 0 2.127-1.531 2.127-3.42 0-1.89-.952-3.421-2.127-3.421-1.175 0-4.38-.875-4.38 1.014ZM44.081 69.332c0 1.889-3.205 5.827-4.38 5.827-1.175 0-2.127-1.532-2.127-3.42 0-1.89.952-3.421 2.127-3.421 1.175 0 4.38-.875 4.38 1.014Z"/><path fill="#E160FF" d="M39.986 50.301c-4.237-1.633-5.783-10.517-5.783-18.404 0-10.309 3.895-18.339 7.458-18.339 2.914 0 2.83 4.887 2.702 12.302-.029 1.656-.06 3.437-.06 5.319.42 3.119 1.088 5.909 1.665 8.322.203.85.395 1.653.562 2.408 2.448-1.293 5.4-1.901 8.687-1.901 3.642 0 7.16.747 10.1 2.345.186-.881.413-1.833.657-2.852.577-2.413 1.245-5.203 1.664-8.322 0-1.882-.03-3.663-.059-5.319-.128-7.415-.212-12.302 2.701-12.302 3.564 0 7.46 8.03 7.46 18.339 0 7.788-1.509 16.549-5.626 18.34.661 1.851 1.026 3.973 1.026 6.382 0 1.32.043 2.764.088 4.288.355 11.94.855 28.763-18.011 28.763-17.964 0-17.02-15.252-16.29-27.019.133-2.168.26-4.218.26-6.032 0-2.38.278-4.482.799-6.318Z"/><path fill="#F3BEFF" d="M68.641 57.792c.977-1.383 1.526-2.945 1.526-4.599 0-5.67-6.462-10.267-14.433-10.267-7.972 0-14.434 4.597-14.434 10.267 0 1.685.57 3.275 1.582 4.678-1.227 1.576-1.227 3.609-1.227 5.827 0 5.011 6.33 8.297 14.138 8.297S69.93 68.71 69.93 63.698c0-2.255 0-4.318-1.29-5.906Z"/><path fill="#AC5CFF" fill-rule="nonzero" d="M75.728 32.262c0 5.253-5.96 13.405-6.356 12.07-.396-1.335.81-3.224 0-11.57-.81-8.345-.363-17.246 1.461-17.413.761-.07 4.542 8.401 4.895 16.913Z"/><path fill="url(#c)" fill-opacity=".8" fill-rule="nonzero" d="M48.882 20.751c0 5.254-5.96 13.406-6.356 12.07-.396-1.334.81-3.224 0-11.57-.81-8.345-.363-17.245 1.461-17.412.762-.07 4.542 8.4 4.895 16.912Z" transform="translate(27.144 13.077)"/><path fill="#AC5CFF" fill-rule="nonzero" d="M35.858 32.262c0 5.253 5.96 13.405 6.356 12.07.397-1.335-.81-3.224 0-11.57.81-8.345.364-17.246-1.46-17.413-.762-.07-4.543 8.401-4.896 16.913Z"/><path fill="url(#d)" fill-opacity=".8" fill-rule="nonzero" d="M8.4 21.378c0 5.253 5.96 13.405 6.356 12.07.397-1.335-.81-3.224 0-11.57.81-8.345.364-17.246-1.46-17.413-.762-.07-4.543 8.401-4.896 16.913Z" transform="translate(27.144 13.077)"/><path fill="#E36DFF" fill-rule="nonzero" d="M61.26 62.714c0 1.557-2.397 2.818-5.354 2.818-2.956 0-5.353-1.261-5.353-2.818 0-1.556 2.397-8.082 5.353-8.082 2.957 0 5.354 6.526 5.354 8.082Z"/><path stroke="url(#e)" stroke-width=".5" d="M28.883 47.778v2.818" transform="translate(27.144 13.077)"/><path stroke="#000" stroke-linecap="round" stroke-linejoin="round" stroke-width=".5" d="M52.871 62.734c2.345 1.218 3.585 1.287 5.638 0"/><path fill="#8A13A5" fill-rule="nonzero" d="M55.892 57.372c2.778.056 3.388 1.911 3.759 2.442.37.531-.085 2.309-3.76 1.919-2.824-.098-4.368-.669-3.84-1.832 0 0 1.062-2.584 3.84-2.529Z"/><path fill="#67067C" fill-rule="nonzero" d="M58.958 59.724c.184.343-1.189 1.325-1.661 1.465-.673.2-1.437.448-1.474.38-.037-.07.716-.552 1.264-1.013.548-.462 1.686-1.175 1.87-.832Z"/><path fill="#67067C" fill-rule="nonzero" d="M52.838 59.724c-.184.343 1.189 1.325 1.661 1.465.673.2 1.437.448 1.474.38.037-.07-.716-.552-1.264-1.013-.548-.462-1.686-1.175-1.87-.832Z"/><g transform="translate(27.144 23.407)"><mask id="g" fill="#fff"><use xlink:href="#f"/></mask><g fill-rule="nonzero" mask="url(#g)"><g transform="translate(14.945 27.032)"><path fill="#8C8C8C" fill-opacity=".2" d="M8.18 3.438c.413 1.691-.566 3.394-2.187 3.804-1.621.41-3.27-.63-3.684-2.322-.413-1.692.566-3.395 2.187-3.804 1.621-.41 3.27.63 3.684 2.322ZM25.47 3.438c.413 1.691-.566 3.394-2.187 3.804-1.62.41-3.27-.63-3.684-2.322-.413-1.692.566-3.395 2.187-3.804 1.621-.41 3.27.63 3.684 2.322Z"/><path fill="#333" d="M19.533 3.025c-.415 1.693.562 3.396 2.182 3.804 1.62.408 3.269-.634 3.683-2.327.415-1.693-.562-3.396-2.181-3.804-1.62-.408-3.27.634-3.684 2.327ZM8.222 3.052c.414 1.692-.566 3.395-2.187 3.804-1.62.41-3.27-.63-3.683-2.322C1.938 2.843 2.917 1.14 4.539.73c1.62-.41 3.27.63 3.683 2.322Z"/><circle cx="21.503" cy="2.477" r="1" fill="#DADADA" transform="rotate(13.787 21.503 2.477)"/><circle cx="22.993" cy="1.866" r="1" fill="#DADADA" transform="rotate(13.787 22.993 1.866)"/><circle cx="4.315" cy="2.366" r="1" fill="#DADADA" transform="rotate(-13.787 4.315 2.366)"/><circle cx="5.884" cy="1.835" r="1" fill="#DADADA" transform="rotate(-13.787 5.884 1.835)"/><circle cx="19.648" cy="5.056" r="1" fill="#333" transform="rotate(-30.943 19.648 5.056)"/><circle cx="25.267" cy="2.036" r="1" fill="#333" transform="rotate(-30.943 25.267 2.036)"/><circle cx="8.225" cy="5.442" r="1" fill="#333" transform="scale(-1 1) rotate(-30.943 0 35.156)"/><circle cx="2.248" cy="2.066" r="1" fill="#333" transform="scale(-1 1) rotate(-30.943 0 10.19)"/><ellipse cx="4.594" cy="9.271" fill="#FF7BE2" fill-opacity=".3" rx="3.786" ry="1"/><ellipse cx="23.053" cy="9.271" fill="#FF7BE2" fill-opacity=".3" rx="3.786" ry="1"/></g></g></g><g transform="translate(27.144 23.407)"><mask id="i" fill="#fff"><use xlink:href="#h"/></mask><g fill-rule="nonzero" mask="url(#i)"><path fill="#F88" d="M12.119 18.374c-1.174.27-1.674.232-1.674.232s1.484 1.883 3.4 2.719c-1.274 2.817-1.343 6.226-1.343 6.226s.32-.333 1.197-.89c-.03.47-.056.948-.076 1.442a24.875 24.875 0 0 0-.007 2.137 3.01 3.01 0 0 1 .432-.108 18.803 18.803 0 0 1 1.125-4.31 34.399 34.399 0 0 1 3.047-1.38 9.025 9.025 0 0 0 1.805-.953c5.856 1.994 10.013-.091 12.466-2.188-1.16 2.833-3.328 3.116-2.908 3.159 0 0 5.576 1.402 9.083-1.945-.586.91.978 2.429 2.934 2.968 0 0-1.223-.81-.287-2.377.776 2.377 2.128 4.29 2.517 7.036.148.027.29.068.431.116.025-.628.027-1.34.003-2.154-.07-2.355-.28-4.433-.645-6.258.782.959.858 1.678.858 1.678s2.186-3.332-.238-7.477c-2.423-4.145-6.118-3.553-6.118-3.553-1.417-.955-2.855-1.909-2.855-1.909s.058.327.16.822C30.4 9.324 28.867 7.8 28.867 7.8s.03.857.204 2.145a19.571 19.571 0 0 0-2.289-.132c-7.869 0-11.47 4.89-13.034 2.3 0 0-.682 1.66 1.696 3.901-3.276-.272-4.356-2.493-4.356-2.493s-1.003 2.15 1.032 4.854Z"/><path fill="url(#j)" fill-opacity=".3" d="M9.83 8.253c-7.588.58 3.263-5.009 6.24-4.54 2.504.396 1.211 3.791-1.31 4.059-1.916.203-3.85.398-4.93.481Z" transform="translate(10.219 7.472)"/><path fill="#EA6565" d="M38.52 22.593c-3.323 1.295-5.278 1.682-8.913 1.872 0 0 3.03.624 5.347 0 2.614-.704 3.566-1.872 3.566-1.872ZM38.52 22.772c.946 1.405 1.637 2.014 3.03 2.674 0 0-.98-.09-2.05-.98-1.07-.892-.98-1.694-.98-1.694Z"/><path fill="#FF9797" d="M11.782 15.107c-.417-.504-.713-1.515-.713-1.515s.882 1.045 1.604 1.515c.786.511 2.229.891 2.229.891s-.695.28-1.16.268c-.888-.026-1.393-.474-1.96-1.159ZM13.743 12.077s.009.038.027.101c.065.152.287.449 1.042.7.166.056.268.358.268.358s-.392.073-.624 0c-.385-.123-.612-.798-.686-1.058-.027-.063-.027-.101-.027-.101Z"/></g></g><g transform="translate(27.144 23.407)"><mask id="l" fill="#fff"><use xlink:href="#k"/></mask><g mask="url(#l)"><g transform="translate(14.945 3.736)"><mask id="n" fill="#fff"><use xlink:href="#m"/></mask><path fill="#FFD84E" fill-rule="nonzero" d="M18.292 4.954c0-3.35 2.012-5.128 2.4-5.44.474-.38.59-.313-.091-.082-1.27.432-3.622.864-6.652.864V18.88c4.502 0 8.968-.606 12.633-1.851 1.786-.607 3.899-1.538 5.752-3.028 1.769-1.421 4.544-4.418 4.544-9.048H18.292ZM13.95.296c-3.03 0-5.381-.432-6.652-.864-.681-.231-.565-.299-.091.082.388.312 2.4 2.09 2.4 5.44H-8.98c0 4.63 2.775 7.627 4.544 9.048 1.854 1.49 3.967 2.42 5.753 3.028 3.665 1.245 8.13 1.851 12.632 1.851V.296ZM9.606 4.954c0 3.35-2.012 5.128-2.4 5.44-.474.38-.59.313.091.082 1.27-.432 3.623-.863 6.652-.863V-8.973c-4.501 0-8.967.606-12.632 1.851-1.786.607-3.9 1.538-5.753 3.028C-6.205-2.674-8.98.324-8.98 4.954H9.606Zm4.343 4.659c3.03 0 5.381.43 6.652.863.681.231.565.299.092-.082-.389-.312-2.4-2.09-2.4-5.44h18.585c0-4.63-2.775-7.627-4.544-9.048-1.853-1.49-3.966-2.42-5.752-3.028-3.665-1.245-8.131-1.851-12.633-1.851V9.613Z" mask="url(#n)"/></g></g></g><g transform="translate(27.144 23.407)"><mask id="p" fill="#fff"><use xlink:href="#o"/></mask><g fill="#FFD56A" mask="url(#p)"><path d="M9.16 12.888c.676.29.943 1.693.596 3.254-.367 1.65-1.281 2.85-2.042 2.68-.762-.17-1.081-1.644-.715-3.293.097-.434.232-.838.392-1.193l-.099-.984c-.594.784-1.11 1.932-1.405 3.26-.593 2.669-.076 5.054 1.156 5.328 1.231.274 2.71-1.667 3.304-4.335.594-2.669.077-5.054-1.155-5.328a1.093 1.093 0 0 0-.143-.022l.112.633ZM48.419 12.888c-.675.29-.943 1.693-.596 3.254.367 1.65 1.282 2.85 2.043 2.68.761-.17 1.08-1.644.714-3.293a6.21 6.21 0 0 0-.391-1.193l.098-.984c.595.784 1.11 1.932 1.405 3.26.594 2.669.076 5.054-1.155 5.328-1.232.274-2.711-1.667-3.305-4.335-.593-2.669-.076-5.054 1.155-5.328.048-.01.095-.018.143-.022l-.111.633Z"/></g></g></g></g><g transform="translate(7.697 7.697)"><mask id="r" fill="#fff"><use xlink:href="#q"/></mask><g mask="url(#r)"><g transform="translate(-1.868 9.34)"><path fill="#693EEE" fill-rule="nonzero" d="M42.418 56.99c1.983-3.994.606-8.652-1.247-8.826-1.853-.174-1.013-.031-4.384-.305-3.371-.273-3.062 2.534-.225 7.26-3.528.208-3.382 1.905-.22 7.09-3.978.068-4.272 1.497-1.55 6.374-3.883-.12-2.941 10.459.414 11.239 3.06-.581 6.563-3.692 5.744-8.175 1.405-2.338 1.701-3.846.895-7.07 1.555-2.921 1.8-4.578.573-7.587ZM2.81 57.325c-1.983-3.994-.606-8.652 1.247-8.826 1.853-.173 1.013-.031 4.384-.305 3.371-.273 3.062 2.535.225 7.26 3.528.209 3.382 1.905.22 7.09 3.978.068 4.272 1.497 1.55 6.374 3.883-.12 2.941 10.46-.414 11.24-3.06-.582-6.563-3.693-5.744-8.176-1.405-2.338-1.701-3.846-.895-7.07-1.555-2.92-1.8-4.578-.573-7.587Z"/><path fill="#693FEE" fill-rule="nonzero" d="M41.531 48.584c0 12.576 3.614 35.647-19.33 35.647-22.945 0-17.288-23.07-17.288-35.647 0-12.576 7.176-17.915 17.288-17.915s19.33 5.34 19.33 17.915Z"/><path fill="#693FEE" fill-rule="nonzero" d="M47.2 20.38c0 11.118-2.85 24.072-11.301 19.004-5.34-1.689-1.062-8.868.406-19.778 0-11.117-.994-19.004 2.85-19.004 3.843 0 8.045 8.66 8.045 19.778Z"/><path fill="url(#s)" fill-rule="nonzero" d="M45.147 22.127c0 5.666-6.427 14.458-6.855 13.018-.427-1.44.874-3.478 0-12.478-.873-9.001-.392-18.6 1.576-18.78.822-.076 4.899 9.06 5.28 18.24Z"/><path fill="#693FEE" fill-rule="nonzero" d="M.243 20.38c0 11.118 2.85 24.072 11.3 19.004 5.34-1.689 1.063-8.868-.406-19.778 0-11.117.994-19.004-2.85-19.004C4.445.602.244 9.262.244 20.38Z"/><path fill="url(#t)" fill-rule="nonzero" d="M1.933 21.886c0 5.666 6.427 14.458 6.855 13.018.427-1.44-.874-3.478 0-12.478.873-9.001.391-18.6-1.576-18.78-.821-.076-4.899 9.06-5.28 18.24Z"/><ellipse cx="22.905" cy="45.116" fill="#D9C8EF" fill-rule="nonzero" rx="15.567" ry="11.073"/><path fill="#D9C8EF" fill-rule="nonzero" d="M37.74 56.427c0 5.458-6.579 9.036-14.694 9.036-8.116 0-14.695-3.578-14.695-9.036 0-5.457 0-9.881 14.695-9.881S37.74 50.97 37.74 56.427Z"/><path fill="#BD6AE3" fill-opacity=".5" fill-rule="nonzero" d="M29.59 56.035c0 2.122-2.571 3.842-5.743 3.842-3.171 0-5.743-1.72-5.743-3.842 0-2.123 2.572-11.022 5.743-11.022 3.172 0 5.743 8.9 5.743 11.022Z"/><path fill="#BD6AE3" fill-rule="nonzero" d="M29.082 55.93c0 2.132-2.6 3.86-5.806 3.86s-5.805-1.728-5.805-3.86c0-2.133 2.6-11.075 5.805-11.075 3.207 0 5.806 8.942 5.806 11.075Z"/><path stroke="#392773" stroke-width="1.868" d="M24.31 53.795v3.716"/><path stroke="#392773" stroke-linecap="round" stroke-linejoin="round" stroke-width="1.868" d="M20.336 56.499c2.528 1.313 3.866 1.388 6.08 0"/><path fill="url(#u)" fill-rule="nonzero" d="M23.593 49.364c2.996.06 3.654 2.061 4.054 2.634.4.572-.218 2.07-4.054 2.07-3.047-.107-4.712-.723-4.143-1.976 0 0 1.146-2.788 4.143-2.728Z"/><path fill="#0C022C" fill-rule="nonzero" d="M26.9 51.985c.2.37-1.28 1.43-1.79 1.58-.726.215-1.55.483-1.59.409-.04-.074.772-.594 1.363-1.092.59-.498 1.819-1.267 2.018-.897Z"/><path fill="#0C022C" fill-rule="nonzero" d="M20.192 51.985c-.199.37 1.282 1.43 1.791 1.58.726.215 1.55.483 1.59.409.04-.074-.772-.594-1.363-1.092-.59-.498-1.819-1.267-2.018-.897Z"/><path fill="#554A76" fill-opacity=".2" fill-rule="nonzero" d="M34.476 45.81c.214 1.867-1.063 3.557-2.852 3.777-1.79.22-3.415-1.115-3.63-2.98-.214-1.866 1.063-3.557 2.852-3.777 1.79-.22 3.415 1.115 3.63 2.98Z"/><path fill="#2C224E" fill-rule="nonzero" d="M34.726 45.56a3.41 3.41 0 0 1-3.404 3.377 3.347 3.347 0 0 1-3.352-3.378 3.41 3.41 0 0 1 3.404-3.378 3.347 3.347 0 0 1 3.352 3.378Z"/><path fill="#554A76" fill-opacity=".2" fill-rule="nonzero" d="M17.247 45.81c.214 1.867-1.063 3.557-2.852 3.777-1.79.22-3.415-1.115-3.63-2.98-.214-1.866 1.063-3.557 2.852-3.777 1.79-.22 3.415 1.115 3.63 2.98Z"/><path fill="#2C224E" fill-rule="nonzero" d="M17.503 45.56a3.41 3.41 0 0 1-3.404 3.377 3.347 3.347 0 0 1-3.352-3.378 3.41 3.41 0 0 1 3.404-3.378 3.347 3.347 0 0 1 3.352 3.378Z"/><circle cx="14.925" cy="43.668" r="1" fill="#FEFEFE" fill-rule="nonzero" transform="rotate(-13.787 14.925 43.668)"/><circle cx="32.153" cy="44.35" r="1" fill="#FEFEFE" fill-rule="nonzero" transform="rotate(-13.787 32.153 44.35)"/><path fill="#D9C8EF" fill-rule="nonzero" d="M17.81 49.436c0-.664-.54-1.203-1.204-1.203h-5.363c-.664 0-1.203.539-1.203 1.203 0 .561.387 1.048.939 1.151.825.156 2.033.348 2.946.348.912 0 2.12-.192 2.946-.348.551-.103.939-.59.939-1.15ZM35.376 49.101c0-.664-.54-1.203-1.204-1.203H28.81c-.664 0-1.203.539-1.203 1.203 0 .561.387 1.047.939 1.151.825.155 2.033.348 2.946.348.913 0 2.12-.193 2.946-.348.551-.104.939-.59.939-1.15ZM10.377 41.916c0-.615.498-1.113 1.113-1.113h6.22c.614 0 1.112.498 1.112 1.113 0 .53-.376.988-.9 1.074-.896.149-2.285.346-3.323.346-1.037 0-2.426-.197-3.322-.346a1.082 1.082 0 0 1-.9-1.074ZM27.269 41.238c0-.615.498-1.113 1.112-1.113h6.22c.615 0 1.113.498 1.113 1.113 0 .53-.376.988-.9 1.074-.896.149-2.285.347-3.323.347-1.037 0-2.426-.198-3.322-.347a1.082 1.082 0 0 1-.9-1.074Z"/><path fill="url(#v)" fill-rule="nonzero" d="M3.64 29.373c-.784.907-1.37 1.46-1.37 2.965L6.368 40.5c.65.57 1.458.963 2.343 1.116 7.254 1.25 16.47-2.827 20.292-4.75.066-.033.134-.058.2-.088a16.7 16.7 0 0 1 1.482-.382 4.7 4.7 0 0 1 2.1.29 6.267 6.267 0 0 0 1.809.408c.043.05.088.096.128.15.776 1.066 2.015 3.145 2.568 4.372l4.391-8.097a15.686 15.686 0 0 0-.634-1.524 5.528 5.528 0 0 0-.288-2.554c-1.576-4.448-5.804-7.102-5.804-7.102 1.386 1.118 1.85 2.85 2.006 3.979a.96.96 0 0 0-.034-.016c-.756-3.562-5.129-5.66-5.129-5.66.806.458 1.508 1.914 2.038 3.384-1.623-3.113-4.524-4.886-4.524-4.886-.168-.708-1.131-2.326-1.445-2.842.946 1.684.013 4.614-.936 6.777a35.24 35.24 0 0 0-1.183-.148c-.098-2.585-.667-5.42-.667-5.42.238 1.713-1.78 4.008-2.978 5.204-.168-.002-.33-.01-.502-.011l-.301.02c.052-2.67-1.056-5.212-1.056-5.212s1.112 2.707-4.27 5.607c-.191.008-.361.02-.481.043a28.837 28.837 0 0 0-5.106 1.455c-1.24.482-1.517 1.153-2.503 1.759-1.486.912-3.26 1.866-4.243 3Z"/><path fill="#170862" fill-opacity=".4" fill-rule="nonzero" d="M25.212 19.765c-.338 1.562-1.543 3.456-2.922 5.351-1.377 1.895 2.412-1.895 2.756-2.412.344-.516.303-1.689.166-2.94ZM20.352 20.55c-.338 1.562-4.055 5.038-3.101 4.134.953-.903 2.664-1.507 3.008-2.024.344-.517.23-.86.093-2.11Z"/><path fill="#8D83FF" fill-rule="nonzero" d="M35.542 24.987c.527.43 4.27 4.306 3.818 3.677-.474-.659-.471-.791-.907-1.292-.425-.488-1.265-1.213-1.265-1.213l-1.646-1.172a.285.285 0 0 0-.052-.037l.052.037Z"/><path fill="#8D83FF" fill-rule="nonzero" d="M32.387 22.918c.54.464 4.315 4.715 3.87 4.013-.464-.735-.45-.89-.887-1.443-.425-.539-1.282-1.324-1.282-1.324l-1.701-1.246a.26.26 0 0 0-.054-.04l.054.04ZM28.71 20.81c.322.139 6.126 6.372 5.466 5.404-.66-.967-.65-1.166-1.262-1.898-.598-.714-1.786-1.766-1.786-1.766s-1.336-1.162-2.417-1.74Z" opacity=".7"/><path fill="#8D83FF" fill-rule="nonzero" d="M28.107 19.094c.238.256 3.048 8.297 2.832 7.146-.215-1.151-.126-1.33-.393-2.246-.26-.893-.925-2.335-.925-2.335s-.756-1.6-1.514-2.565Z" opacity=".7"/><path fill="#4B339D" fill-rule="nonzero" d="M27.606 40.467c0-.25.167-.469.408-.531 2.52-.655 4.094-.639 6.612.001a.548.548 0 0 1 .412.532.562.562 0 0 1-.66.55c-2.291-.398-3.82-.406-6.11-.003a.563.563 0 0 1-.662-.55Z"/><path fill="url(#w)" fill-opacity=".99" fill-rule="nonzero" d="M3.063 44.046c0 3.438 2.187 10.319 7.205 10.319 5.018 0 11.253-7.884 11.253-11.321 0-3.892-3.437-5.602-8.455-5.602-6.014-.354-10.003 3.167-10.003 6.604Z"/><path fill="url(#x)" fill-opacity=".99" fill-rule="nonzero" d="M43.732 44.046c0 3.438-2.187 10.319-7.205 10.319-5.018 0-11.253-7.884-11.253-11.321 0-3.892 3.437-5.602 8.455-5.602 6.013-.354 10.003 3.167 10.003 6.604Z"/><path fill="#000" fill-rule="nonzero" d="M44.005 43.623c-.11-1.174-.397-2.223-.862-3.069-.771-1.404-2.401-2.403-4.846-2.97-1.865-.433-3.7-.498-4.627-.498H13.094c-.927 0-2.761.065-4.627.498-2.444.567-4.075 1.566-4.845 2.97-.48.875-.754 1.935-.857 3.069h-.833v.837h.789c-.066 3.485 1.324 7.399 3.213 8.785 1.152.846 2.574 1.711 4.384 1.711 2.62 0 5.35-1.822 8.347-5.57 1.74-2.176 2.628-3.974 3.004-5.434.203-.788.258-1.477.217-2.075.443-.19.954-.3 1.496-.3.544 0 1.054.11 1.497.3-.04.598.014 1.287.217 2.075.377 1.46 1.264 3.258 3.005 5.434 2.996 3.748 5.727 5.57 8.346 5.57 1.81 0 3.233-.865 4.385-1.711 1.286-.945 2.407-3.127 2.925-5.695.216-1.072.312-2.115.293-3.09h.784v-.837h-.83Zm-23.206.33c-.375 1.306-1.21 2.927-2.797 4.913-2.826 3.535-5.34 5.254-7.684 5.254-1.564-.001-2.84-.783-3.881-1.547-1.108-.814-2.128-2.85-2.6-5.187-.204-1.01-.294-2-.274-2.926.007-.285.024-.565.05-.837.104-1.031.356-1.948.75-2.668 1.585-2.885 7.55-3.031 8.73-3.031.253 0 1.83.052 3.94.286 1.759.194 3.15 1.12 3.72 2.476a3.785 3.785 0 0 1 .285 1.19c.015.165.02.34.016.523a6.139 6.139 0 0 1-.255 1.553Zm4.212-2.923a4.649 4.649 0 0 0-1.628-.29 4.66 4.66 0 0 0-1.628.29 4.504 4.504 0 0 0-.22-.667c-.45-1.066-1.302-1.91-2.411-2.434h8.518c-1.11.523-1.962 1.368-2.411 2.434a4.52 4.52 0 0 0-.22.667Zm17.918 6.355c-.472 2.338-1.493 4.374-2.6 5.188-1.042.764-2.317 1.546-3.882 1.546-2.345 0-4.858-1.719-7.684-5.254-1.587-1.985-2.42-3.606-2.797-4.913a6.177 6.177 0 0 1-.254-1.555 4.758 4.758 0 0 1 .078-.982 3.79 3.79 0 0 1 .221-.73c.572-1.357 1.962-2.282 3.72-2.477 2.112-.234 3.688-.285 3.94-.285 1.18 0 7.146.145 8.73 3.03.395.72.647 1.637.75 2.669.028.271.044.55.05.837.02.926-.07 1.917-.272 2.926Z"/></g></g></g></g></svg>