<svg xmlns="http://www.w3.org/2000/svg" width="377" height="218" viewBox="0 0 377 218"><g fill="none" fill-rule="nonzero" transform="translate(40 29)"><path fill="#FFF2D2" fill-opacity=".8" d="m151.412 7.715 1.096 2.961 2.96 1.095-2.96 1.096-1.096 2.961-1.095-2.961-2.961-1.096 2.961-1.095z"/><path fill="#4B22A2" d="m210.436 133.798 1.095 2.96 2.961 1.096-2.961 1.095-1.095 2.961-1.096-2.961-2.96-1.095 2.96-1.096zM241.391 84.647l1.096 2.961 2.96 1.095-2.96 1.096-1.096 2.961-1.095-2.961-2.961-1.096 2.961-1.095z"/><path fill="#FFBA09" d="m269.608 79.467 2.088 5.641 5.64 2.087-5.64 2.088-2.088 5.64-2.087-5.64-5.641-2.088 5.641-2.087zM214.693 89.303l.601 1.624 1.624.601-1.624.601-.601 1.624-.601-1.624-1.623-.601 1.623-.601zM31.755.912l.913 2.467 2.467.913-2.467.913-.913 2.467-.913-2.467-2.467-.913 2.467-.913zM248.819 125.957l.601 1.624 1.624.601-1.624.601-.601 1.624-.601-1.624-1.624-.601 1.624-.601zM63.636 136.641l.601 1.624 1.623.601-1.623.601-.601 1.623-.601-1.623-1.624-.601 1.624-.601z"/><circle cx="226.759" cy="28.487" r="1" fill="#FFF"/><circle cx="90.008" cy="21.365" r="1" fill="#FFF"/><circle cx="75.763" cy="155.267" r="1" fill="#FFF"/><circle cx="150.996" cy="152.883" r="1" fill="#FFF"/><circle cx="163.407" cy="61.084" r="1" fill="#FFF"/><circle cx="1.354" cy="120.801" r="1.054" fill="#4B22A2"/></g></svg>