<svg width="44" height="48" viewBox="0 0 44 48" fill="none" xmlns="http://www.w3.org/2000/svg">
<path d="M26.4594 15.1452C26.1411 14.2714 25.1522 11.5589 24.1499 11.1432C23.0441 21.0683 23.3679 29.4086 24.1499 37.8374C24.4105 39.2422 24.3137 42.0798 21.8412 42.1922C19.3687 42.3046 18.7506 40.4598 18.7506 39.5233C18.7507 29.9705 18.8045 21.9098 19.9816 10.3736C19.0345 11.845 17.9449 14.0311 16.7608 15.2498C15.5043 16.5428 11.9759 14.3533 13.0833 12.9658C15.4614 10.3858 17.7535 7.11815 19.9816 3.34C20.2444 2.8097 20.6198 2.61101 21.0781 2.65708C21.6766 2.71709 22.2944 3.09006 22.8948 3.63403C25.5359 6.02673 28.3886 9.51148 29.6845 12.8281C30.2466 14.2667 30.6476 15.497 30.5433 15.8295C30.2799 16.6692 27.2643 17.3308 26.4594 15.1452Z" fill="white" stroke="black" stroke-width="0.840324"/>
</svg>
