<svg width="51" height="46" viewBox="0 0 51 46" fill="none" xmlns="http://www.w3.org/2000/svg">
<path fill-rule="evenodd" clip-rule="evenodd" d="M13.2002 27.4151C15.1006 27.5983 18.4288 26.9229 19.4103 26.8961C21.8685 26.8377 22.3898 30.0551 21.6677 30.6397C21.3818 30.8712 20.0183 30.9553 18.3877 30.962C14.6285 30.9775 8.71544 30.7624 5.34096 29.0986C4.5738 28.7204 3.96776 28.2587 3.67648 27.6944C3.4533 27.2624 3.50259 26.8167 3.92117 26.3528C6.76516 22.6985 9.08312 19.1795 10.6926 15.843C11.6247 14.2172 15.1442 16.8309 14.3628 18.5665C13.6261 20.2022 12.5666 21.7185 11.4898 23.2196C22.3582 17.5847 33.6525 16.8409 43.8703 19.8518C49.1715 21.414 48.7165 21.7709 49.794 23.5578C49.3211 25.4674 48.9222 25.9058 41.0084 23.8776C32.176 21.6141 22.5146 22.4758 13.2002 27.4151Z" fill="white"/>
<path fill-rule="evenodd" clip-rule="evenodd" d="M19.4095 26.8961C19.0854 26.905 18.5054 26.9845 17.8055 27.0805C17.1268 27.1737 16.3352 27.2822 15.5548 27.3568C14.7026 27.4382 13.8637 27.4791 13.1994 27.4151C13.8946 27.0464 14.5917 26.7005 15.2902 26.3769C23.9513 22.3645 32.8344 21.783 41.0076 23.8776C48.9214 25.9058 49.3202 25.4674 49.7932 23.5578C49.6554 23.3293 49.5427 23.1243 49.4398 22.9371C48.7379 21.6599 48.493 21.2143 43.8694 19.8518C34.2355 17.0129 23.6444 17.5119 13.3557 22.3015C12.7322 22.5917 12.1099 22.8977 11.489 23.2196C11.894 22.6549 12.2966 22.0881 12.6805 21.5136C13.3172 20.5608 13.9024 19.5869 14.3619 18.5665C15.1434 16.8309 11.6239 14.2172 10.6918 15.843C9.0823 19.1795 6.76434 22.6984 3.92034 26.3528C3.50177 26.8167 3.45247 27.2624 3.67565 27.6944C3.96694 28.2586 4.57298 28.7204 5.34014 29.0986C8.71461 30.7624 14.6277 30.9775 18.3869 30.962C20.0174 30.9552 21.381 30.8712 21.6669 30.6397C22.389 30.0551 21.8676 26.8377 19.4095 26.8961ZM4.89791 29.9955C6.74547 30.9065 9.20869 31.3908 11.6103 31.6541C14.0339 31.9198 16.4944 31.9698 18.391 31.962L18.3911 31.962C19.2169 31.9586 19.9973 31.9357 20.6183 31.8813C20.9269 31.8543 21.2193 31.8177 21.4681 31.7655C21.6602 31.7253 22.0186 31.6416 22.2962 31.4168C22.8265 30.9874 22.9468 30.2939 22.9638 29.8371C22.9835 29.308 22.8823 28.7142 22.6595 28.156C22.2112 27.0331 21.1613 25.8542 19.3857 25.8964L19.3822 25.8965C19.2797 25.8993 19.1619 25.9073 19.0331 25.9191C26.4103 23.2671 33.8476 23.075 40.7593 24.8463C42.7433 25.3548 44.2785 25.7145 45.4705 25.9351C46.6465 26.1528 47.5609 26.2498 48.273 26.191C49.0217 26.1292 49.6558 25.8839 50.1076 25.332C50.4988 24.8542 50.6525 24.2476 50.7638 23.7982L50.8634 23.3961L50.6495 23.0414C50.5263 22.837 50.4241 22.6517 50.3231 22.4679C50.3191 22.4606 50.3151 22.4534 50.311 22.446C50.2169 22.2747 50.1162 22.0915 50.0084 21.9176C49.7675 21.5291 49.4777 21.1641 49.0116 20.8178C48.1602 20.1853 46.7685 19.6636 44.1521 18.8926C34.7243 16.1145 24.4047 16.4627 14.334 20.7696C14.6779 20.189 14.9967 19.5923 15.2737 18.9771L15.2738 18.977C15.6357 18.1731 15.4577 17.3535 15.1415 16.7286C14.8238 16.1007 14.3142 15.5486 13.7655 15.1413C13.2246 14.7398 12.5519 14.4099 11.8649 14.3433C11.1293 14.2719 10.3002 14.5155 9.82425 15.3456L9.80656 15.3765L9.79111 15.4085C8.2264 18.6522 5.96014 22.101 3.15135 25.7127C2.86306 26.0404 2.64398 26.4271 2.5706 26.8733C2.49341 27.3425 2.59374 27.7788 2.78708 28.1532C3.2256 29.0026 4.06477 29.5848 4.89791 29.9955Z" fill="black"/>
</svg>
