<svg width="83" height="83" viewBox="0 0 83 83" fill="none" xmlns="http://www.w3.org/2000/svg">
<circle cx="41.4209" cy="41.666" r="37.9577" fill="#CFF2E8"/>
<circle cx="41.4209" cy="41.666" r="37.9577" fill="url(#paint0_radial_1374_249921)" fill-opacity="0.2"/>
<circle cx="41.4209" cy="41.666" r="37.9577" stroke="#F8FFFC" stroke-width="5.91549"/>
<path d="M31.8558 23.2719L21.3098 27.3357L17.3857 57.0658H30.139L44.8543 60.0602L65.4557 57.0658V23.2719L46.5711 27.3357L31.8558 23.2719Z" stroke="#1E6252" stroke-width="0.854577"/>
<path d="M26.0009 32.8878C26.0048 32.8862 26.0068 32.8847 26.0068 32.8836C26.0068 32.8768 26.004 32.8806 26.0009 32.8878ZM35.955 44.5114C35.955 44.5114 35.7674 44.4724 35.7593 44.4489C35.7515 44.4255 35.4307 44.1439 35.4234 44.1518C35.415 44.1594 35.2899 44.0261 35.2742 44.0657C35.2589 44.1047 35.0162 44.1047 35.0162 44.1047L34.758 44.0417C34.758 44.0417 34.6488 44.1204 34.6721 44.0887C34.6956 44.0575 34.6799 43.8699 34.6721 43.9014C34.6644 43.9323 34.2808 43.7369 34.2808 43.7369L34.1476 43.8543V43.7056L33.9447 43.5806L33.9684 43.4162L33.8738 43.338C33.8738 43.338 33.8586 43.3613 33.8508 43.3458C33.843 43.3303 33.7881 43.0174 33.7881 43.0174L33.4906 42.7748L33.1311 42.7591L32.8024 42.5787L32.732 42.4147C32.732 42.4147 32.5442 42.329 32.5442 42.3054C32.5442 42.282 32.49 42.2978 32.4739 42.2896C32.4586 42.282 32.4665 42.204 32.4665 42.204L32.3798 42.1331L32.3489 42.1121L32.2724 42.0889L32.2255 42.0235C32.2255 42.0235 32.3957 41.9475 32.3781 41.9536C32.3609 41.9591 31.9971 42.0118 31.9971 42.0118L31.9619 42.082L31.7916 41.9943L31.5042 41.9765C31.5042 41.9765 31.2985 41.8946 31.3044 41.8712C31.3106 41.8477 31.24 41.7597 31.24 41.7597C31.24 41.7597 31.1931 41.8712 31.1813 41.8829C31.1697 41.8946 31.0232 42.0178 31.0232 42.0178L31.0345 42.2058L30.9349 42.0998L31.0055 42V41.8594C31.0055 41.8415 31.0935 41.8007 31.0935 41.8007L31.0583 41.7247C31.0583 41.7247 30.9529 41.754 30.9529 41.7717C30.9529 41.7891 30.8121 41.8712 30.8121 41.8712L30.6417 41.9356H30.5656C30.5656 41.9356 30.4895 42.0586 30.4713 42.0647C30.4539 42.0707 30.4602 42.1824 30.4602 42.1824C30.4602 42.1824 30.272 42.3931 30.2602 42.3697C30.2485 42.3463 30.0495 42.1824 30.0495 42.1824L29.8143 42.2112L29.6796 42.2819L29.5152 42.1704L29.3863 41.971L29.3984 41.7364L29.4686 41.4779L29.4979 41.3081L29.3218 41.1787C29.3218 41.1787 28.964 41.208 28.964 41.1905C28.964 41.1732 28.7701 41.1967 28.7762 41.1787C28.7818 41.1613 28.8466 41.0499 28.8466 41.032C28.8466 41.0143 28.8937 40.8796 28.8937 40.8796L28.97 40.7272L29.0697 40.4344L29.1281 40.3342L28.835 40.3167L28.6588 40.387L28.5592 40.6806L28.0604 40.8154L27.9372 40.7216C27.9372 40.7216 27.9255 40.7744 27.9317 40.7451C27.9372 40.7158 27.7791 40.5101 27.7791 40.5101L27.7027 40.223C27.7027 40.223 27.9024 39.63 27.8961 39.6421C27.8903 39.6536 27.9024 39.4246 27.9024 39.4246L28.53 39.0142L28.7703 39.0493L28.8289 39.108L28.9759 39.0841L29.1225 38.9377L29.3099 38.9613L29.4916 38.9262L29.6033 39.0495L29.7672 38.9851L29.8553 39.0792L29.9085 39.1374V39.2375L29.8675 39.3312L29.9085 39.5425L30.0257 39.7069L30.1019 39.7361L30.1958 39.478L30.178 39.2375L30.1371 39.0434V38.9026L30.3778 38.6099L30.6884 38.3867L30.9349 38.2459L31.152 38.0113L31.1403 37.7883L31.2346 37.7709L31.3276 37.5716L31.4216 37.5826L31.6038 37.354L31.9085 37.2487L32.0966 37.2137L32.1554 37.1492L32.085 37.0906L32.2315 36.8731L32.6951 36.6912L32.9769 36.6091L32.7477 36.7559L32.7947 36.8672L32.9648 36.8203L33.0882 36.7443L33.4107 36.6564C33.4107 36.6564 33.4874 36.5271 33.4753 36.5564C33.464 36.5857 33.6398 36.5271 33.6398 36.5271L33.6047 36.4565L33.6164 36.3627L33.5227 36.3979L33.3812 36.5504L33.1528 36.5392L33.0474 36.3805L33.1471 36.2455C33.1471 36.2455 33.2466 36.046 33.2408 36.0581C33.2348 36.0695 33.0827 36.011 33.0827 36.011L32.8537 36.0928C32.8303 36.0928 32.6132 36.222 32.6189 36.2045C32.6249 36.1869 32.5074 36.269 32.5074 36.269L32.8064 36.0288L32.9299 36.011L33.0708 35.8817H33.7454L33.9743 35.8346L34.2792 35.6705L34.3031 35.7L34.1738 35.8229L34.0154 35.9873L33.8625 36.1513L33.7864 36.2512L34.0269 36.2629C34.0269 36.2629 34.2145 36.2676 34.2324 36.2629C34.2558 36.257 34.2616 36.3449 34.2616 36.3449L34.3612 36.2746L34.4143 36.4095L34.5905 36.2746L34.5373 36.122L34.5846 35.9809L34.3792 35.9872V35.9108C34.3792 35.9108 34.3031 35.8228 34.2971 35.8344C34.291 35.8463 34.4143 35.735 34.4083 35.7466C34.4025 35.7584 34.3553 35.6881 34.3553 35.6881L34.4966 35.5116L34.4263 35.3124L34.4024 35.213L34.2205 35.1249L34.1561 35.0367L34.0737 34.9723L34.1385 34.8196L34.109 34.7083C34.109 34.7083 34.0565 34.3444 34.0506 34.356C34.0444 34.3679 33.8038 34.5557 33.8038 34.5557L33.5578 34.6791L33.4283 34.5676L33.4405 34.4205L33.5519 34.315L33.3697 34.2564L33.358 34.2095C33.358 34.2095 33.1938 34.0452 33.1822 34.0568C33.1705 34.069 33.1294 34.11 33.1294 34.11L32.7421 34.0743L32.6072 34.3092L32.578 34.4323C32.578 34.4323 32.3658 34.6446 32.3399 34.661C32.3554 34.6564 32.4547 34.7552 32.4547 34.7552L32.3664 34.966L32.0321 35.1597L31.8681 35.1834C31.8681 35.1834 31.7681 35.5474 31.774 35.5707C31.7798 35.5944 31.6392 35.6585 31.6392 35.6585L31.5394 35.729L31.4982 35.6001C31.4982 35.6001 31.4532 35.5016 31.4354 35.4766C31.4616 35.4874 31.5568 35.5001 31.5568 35.5001L31.5747 35.4177L31.4806 35.4238L31.5219 35.2888L31.6098 35.1424L31.3046 35.1188L31.2349 35.0365L31.0819 35.013L31.0698 34.9483L30.9643 34.884L30.835 34.8253L30.6945 34.8429L30.6885 34.72L30.7236 34.6026L30.5831 34.5793C30.5831 34.5793 30.8295 34.3267 30.8237 34.3385C30.8174 34.3502 31.5156 33.992 31.5156 33.992L31.598 33.9044L31.7327 33.8923L32.026 33.7577L32.2489 33.6052L32.2724 33.617L32.1026 33.7753L32.0557 33.8336L31.9207 33.8983L32.044 33.9158L32.026 33.9865L32.1613 33.9629L32.296 33.8514L32.402 33.8869L32.449 33.9393L32.5954 33.9334L32.5896 33.822L32.3611 33.658L32.3077 33.6052L32.2845 33.5464L32.3839 33.5586L32.4666 33.6289L32.5544 33.5405L32.7304 33.5175L32.9063 33.3937L32.8949 33.3176L33.0296 33.1887L32.9414 33.0951L33.1762 33.0892L33.3812 33.0951C33.3812 33.0951 33.4812 33.0482 33.4989 33.0775C33.5166 33.1067 33.6689 33.218 33.6689 33.218L33.6103 33.2708L33.3695 33.3005L33.3109 33.4174L33.4873 33.4412L33.6219 33.3005L33.7684 33.2886L33.792 33.4291C33.792 33.4291 33.6279 33.5231 33.6045 33.5289C33.5811 33.5352 33.4811 33.5817 33.4811 33.5817L33.4752 33.6876L33.3168 33.705L33.1527 33.6759L33.0766 33.6816L32.9532 33.7812L33.0529 33.8692C33.0529 33.8692 33.1997 33.8105 33.2231 33.7931C33.2464 33.7756 33.3227 33.7401 33.3402 33.7697C33.3578 33.799 33.4573 33.881 33.4573 33.881L33.54 34.0399L33.6162 34.0632L33.8506 34.1394C33.8506 34.1394 34.0151 34.1805 34.0151 34.192C34.0151 34.2038 33.9979 34.0924 33.9979 34.0924L33.8739 33.9457C33.8739 33.9457 33.8685 33.9046 33.909 33.916C33.9505 33.9277 34.0504 34.0155 34.0504 34.0155C34.0677 34.0214 34.1852 34.0923 34.1852 34.0923L34.2321 33.9631L34.3375 33.8985L34.2968 33.8222L34.2379 33.7579L34.1735 33.6816L34.1792 33.5937C34.1792 33.5937 34.1969 33.5816 34.2145 33.5703C34.232 33.5587 34.2848 33.5175 34.2967 33.5406C34.3081 33.5641 34.426 33.7168 34.426 33.7168L34.5369 33.74L34.5901 33.6523C34.5901 33.6523 34.7365 33.6345 34.7365 33.6405C34.7365 33.6464 34.7482 33.5702 34.7482 33.5702L34.8833 33.5351L34.6897 33.3645L34.5843 33.3115L34.5018 33.3351L34.4261 33.2471L34.508 33.1711L34.5434 33.0653L34.4495 32.9715L34.3028 32.9423L34.2672 32.8657C34.2672 32.8657 34.1443 32.8482 34.1266 32.8597C34.1088 32.8719 34.021 32.7543 34.021 32.7543L33.9447 32.6548C33.9328 32.6488 33.8918 32.6074 33.8685 32.6136C33.8446 32.6195 33.5985 32.6253 33.5985 32.6253L33.5399 32.643L33.4638 32.5841L33.1585 32.6605L33.0003 32.7838C33.0003 32.7838 32.9887 32.7133 33.0003 32.6958C33.0117 32.6782 33.1232 32.6137 33.1409 32.602C33.1585 32.5903 33.0061 32.5841 33.0061 32.5841C33.0061 32.5841 32.7243 32.6782 32.7126 32.6958C32.7009 32.7133 32.4837 32.8833 32.4837 32.8833L32.49 33.0242L32.6892 33.0538L32.7654 33.071L32.7126 33.1182L32.6716 33.2061L32.5427 33.2765L32.384 33.3936L32.249 33.4463L32.2258 33.3527L32.343 33.2823C32.343 33.2823 32.3195 33.1359 32.3078 33.1475C32.2961 33.1592 32.173 33.1417 32.1671 33.1592C32.1614 33.1769 32.173 33.048 32.173 33.048L32.1671 32.9246L32.1378 32.8304C32.1378 32.8304 32.2377 32.7484 32.2549 32.7426C32.2726 32.7367 32.4603 32.7249 32.4603 32.7249L32.7596 32.5549L32.5131 32.5434C32.5131 32.5434 32.2846 32.549 32.2726 32.5728C32.2608 32.5962 32.1086 32.7544 32.1086 32.7544L32.0147 32.8248L31.7037 33.0187L31.6918 33.1534L31.5629 33.1301L31.4692 33.1124L31.2348 33.2062V33.3352L30.8059 33.359C30.8059 33.359 30.6008 33.3293 30.6008 33.3003C30.6008 33.2707 30.5246 33.2122 30.5013 33.2122C30.4774 33.2122 30.2135 33.2943 30.2135 33.2943L30.2018 33.3762L29.8967 33.359C29.8967 33.359 29.6446 33.4055 29.6505 33.3823C29.6563 33.359 29.5154 33.3705 29.5154 33.3705L29.7266 33.2766L29.5802 33.2062L29.3157 33.1652L29.1282 33.1066L28.9174 33.136L28.8939 33.0481L28.7058 33.1241L28.6529 33.0009L28.524 33.0597C28.524 33.0597 28.043 33.1593 28.0194 33.1651C27.9962 33.1711 27.8789 33.1182 27.8789 33.1182L27.7317 33.1885L27.4505 33.2061L27.3388 33.1241L27.1101 33.0773L26.8578 33.0889L26.3881 33.0124C26.3881 33.0124 26.1185 32.9714 26.1361 32.9652C26.1537 32.9593 25.9897 32.9183 25.9897 32.9183C25.9897 32.9183 25.9963 32.8987 26.0014 32.8874C25.9438 32.9117 25.4851 32.9886 25.4851 32.9886L24.8693 33.1884L24.4643 33.2704C24.4643 33.2704 24.476 33.3759 24.4817 33.3934C24.4877 33.4114 24.5229 33.5284 24.5229 33.5284L24.4115 33.5519H24.2937L24.3529 33.4699L23.7539 33.6341L23.7661 33.6986L23.7248 33.7749L23.9125 33.7925L24.0711 33.81C24.0711 33.81 24.1591 33.7574 24.1591 33.775C24.1591 33.7926 24.1121 33.9272 24.1121 33.9272L23.9304 33.939C23.9187 33.9214 23.8247 33.9451 23.8247 33.9451C23.8247 33.9451 23.7012 34.0208 23.6954 34.0038C23.6895 33.9862 23.4494 34.0448 23.4494 34.0448L23.1733 34.2033L23.0679 34.3616L23.0562 34.4787L23.2615 34.4438L23.144 34.6024L23.279 34.5962C23.279 34.5962 23.4376 34.5962 23.4493 34.6201C23.4612 34.6436 23.5313 34.6319 23.5313 34.6436C23.5313 34.6554 22.135 35.195 22.1231 35.1775C22.1114 35.1595 21.9062 35.2712 21.9062 35.2712C21.9062 35.2712 22.1758 35.2244 22.1937 35.2244C22.2112 35.2244 22.61 35.1303 22.61 35.1303L22.7978 35.0775C22.7978 35.0775 23.2027 34.9602 23.2081 34.9425C23.2141 34.9248 23.4959 34.7782 23.5135 34.7782C23.5312 34.7782 23.625 34.7372 23.631 34.7608C23.6366 34.7842 24.0358 34.6554 24.0358 34.6554C24.0358 34.6554 24.1764 34.5554 24.165 34.5378C24.1528 34.5202 24.0709 34.4733 24.0944 34.4676C24.1178 34.4616 24.3287 34.4321 24.3287 34.4321C24.3287 34.4321 24.6457 34.3032 24.6399 34.3206C24.634 34.3384 24.3173 34.5498 24.3173 34.5498L24.7691 34.4616L24.9512 34.3851C24.9512 34.3851 25.1036 34.3148 25.0919 34.3325C25.0801 34.3501 25.2679 34.4027 25.2679 34.4203C25.2679 34.4378 25.6608 34.4968 25.6608 34.4968L25.7782 34.6728L25.7545 34.9014L25.7429 35.1892L25.954 35.1656L25.9015 35.3533L25.9135 35.6644C25.9135 35.6644 25.9248 35.7758 25.9248 35.7933C25.9248 35.8109 25.7606 35.7583 25.7606 35.7583C25.7606 35.7583 25.737 35.8931 25.7546 35.9106C25.7728 35.9282 25.9662 36.1218 25.9662 36.1218L25.9016 36.2041L25.7546 36.5678L25.4085 36.9665L25.35 37.1841L25.1798 37.3715L25.2091 37.5066C25.2091 37.5066 25.1622 37.6006 25.1744 37.6122C25.1857 37.6238 25.2563 38.2634 25.2563 38.2634L25.5028 38.4158L25.5671 38.5332L25.6024 39.0142L25.7077 39.2312L25.5906 39.3134L25.7254 39.5008L25.7783 39.507L25.8843 39.6299L25.8429 39.7944L25.9542 39.8822L26.06 40.0466L26.0777 40.1286L26.1776 40.029L26.0777 39.8237C26.0777 39.8237 26.0073 39.6708 26.0132 39.6361C26.0191 39.6007 25.9195 39.3367 25.9195 39.3367C25.9195 39.3367 25.8252 39.1371 25.8372 39.1196C25.8486 39.1018 25.7665 38.9849 25.7665 38.9849L25.8078 38.7444L25.9779 38.7796C25.9779 38.7796 26.0073 39.0021 26.0073 39.0259C26.0073 39.0493 26.0484 39.1902 26.0484 39.1902L26.2712 39.5007L26.2363 39.6593L26.6643 40.1696L26.6584 40.3751L26.5938 40.4746L26.6289 40.6157L26.987 40.8796L27.0456 40.8681L27.151 40.9737L27.5381 41.1674L27.7318 41.2145L27.961 41.1439L28.1075 41.2145L28.3305 41.4725L28.5592 41.5309L28.7936 41.6134H28.9056L28.935 41.748C28.935 41.748 29.0406 41.8831 29.064 41.9007C29.0873 41.9183 29.0699 42.071 29.0699 42.071L29.1695 42.1234L29.2869 42.2468L29.3631 42.3175L29.4455 42.4112L29.4981 42.3761L29.6038 42.4052L29.756 42.5463L29.8557 42.4873L29.827 42.3761L29.9201 42.2823H30.0025L30.0907 42.3525L30.0847 42.4347L30.1903 42.6047L30.1962 43.08L30.1024 43.2327L29.9731 43.3207L29.9676 43.4611L29.8323 43.5139L29.7796 43.7017L29.6973 43.8661L29.7149 44.0067L29.8324 44.1123L29.7266 44.2244L29.6506 44.3355L29.7204 44.558C29.7204 44.558 29.7555 44.6697 29.7555 44.6579C29.7555 44.6462 29.8675 44.7346 29.8675 44.7346L30.0727 45.1447L30.2719 45.4327C30.2719 45.4327 30.5616 46.0166 30.5675 46.0212C30.655 46.0855 31.2934 46.5454 31.2934 46.5454L31.4023 47.1163L31.4341 48.3208L31.5278 48.6655L31.4883 49.3617L31.4574 49.5023C31.4574 49.5023 31.5824 49.7213 31.5824 49.7529C31.5824 49.7841 31.6057 50.0576 31.6057 50.0576L31.6916 50.3549L31.7933 50.3473L31.7307 50.1752L31.8092 50.1831L31.8635 50.4566L31.8712 50.5659L31.8092 50.5112L31.7542 50.5659L31.715 50.6131L31.7933 50.6838L31.7543 50.7925L31.7388 50.9337L31.8483 50.9494L31.9264 51.0119L31.8483 51.1448C31.8483 51.1448 32.3329 51.9975 32.7398 52.099C33.1467 52.2011 33.264 52.2321 33.264 52.2321L33.4364 52.1381L33.4905 52.0679L33.131 51.9428L32.8573 51.6451L32.8023 51.489L32.8883 51.4267L32.8729 51.309C32.8729 51.309 32.8729 51.2231 32.9037 51.1997C32.9353 51.1764 32.9978 51.0589 32.9978 51.0589L32.9037 51.0119L32.7475 50.8557L32.7631 50.6753L32.8572 50.621C32.8572 50.621 32.8647 50.519 32.8493 50.4956C32.8333 50.4725 32.8728 50.3547 32.8962 50.3471C32.9199 50.339 32.9819 50.245 32.9819 50.245H32.8729L32.8104 50.2219L32.7319 50.0971V50.0028L32.8648 50.0419L32.9904 50.0183L33.0607 49.9167C33.0607 49.9167 33.0372 49.8543 33.0295 49.8309C33.0216 49.8075 33.0451 49.7056 33.0685 49.6977C33.0918 49.6904 33.2325 49.7056 33.2325 49.7056L33.4986 49.6354C33.4986 49.6354 33.6004 49.4552 33.5927 49.424C33.5848 49.3928 33.5848 49.291 33.5848 49.291C33.5848 49.291 33.5848 49.2208 33.5224 49.2125C33.4594 49.2049 33.4594 49.1819 33.4438 49.1185C33.4279 49.0562 33.3809 48.9858 33.3809 48.9858L33.3029 49.0015L33.3735 48.9313L33.5299 49.0482L33.7644 49.0878L33.9445 48.9076L34.0698 48.6024L34.1244 48.3755H34.2415L34.3665 48.1487L34.4137 47.9376L34.3747 47.6792L34.4294 47.5858L34.836 47.3119L35.1413 47.2101L35.2434 47.1316C35.2434 47.1316 35.3994 46.9207 35.3994 46.8972C35.3994 46.8737 35.4621 46.5685 35.4621 46.5685C35.4621 46.5685 35.5323 46.2091 35.5243 46.1857C35.5167 46.1619 35.5402 45.8491 35.5243 45.8413C35.5085 45.8336 35.5323 45.7472 35.5323 45.7472L35.8296 45.325L35.9704 45.0039C35.9704 45.0039 36.0725 44.8398 36.0567 44.8086C36.0408 44.7773 35.955 44.5114 35.955 44.5114L35.955 44.5114ZM39.0485 33.0597C39.0485 33.0597 39.0957 32.8247 39.0606 32.8013C39.0249 32.7779 39.2014 32.6371 39.2014 32.6371C39.2014 32.6371 39.4591 32.5197 39.4709 32.4848C39.4826 32.4494 39.4006 32.4607 39.4006 32.4607L39.4239 32.2849L39.5884 32.2263C39.5884 32.2263 39.4948 32.0853 39.4709 32.0148C39.4477 31.9451 39.7527 31.9095 39.7527 31.9095L40.2925 31.6632L39.6474 31.7335L39.6235 31.6516L38.9427 31.4989L37.5821 31.5461L37.4298 31.6282H36.9598L36.303 31.6869C36.303 31.6869 35.6812 31.7688 35.6459 31.7922C35.611 31.8159 35.7164 31.851 35.7164 31.851L35.7047 31.9332L34.9417 32.0273L34.8951 32.1094C34.8951 32.1094 34.9771 32.1913 34.9888 32.2031C35.0002 32.2148 35.3173 32.2851 35.3173 32.2851L35.6929 32.332C35.6929 32.332 35.9042 32.426 35.9389 32.4609C35.9745 32.496 35.9631 32.6022 35.9511 32.6608C35.9389 32.7195 35.9042 32.7311 35.8573 32.8015C35.8102 32.8721 35.9511 32.8366 35.9511 32.8366L36.1155 32.9186C36.1155 32.9186 36.0685 32.9186 35.9978 32.9308C35.9271 32.9425 35.8335 32.9656 35.8335 32.9656L35.8218 33.0951L36.0569 33.0482L36.0327 33.1301L35.8687 33.1653L35.7047 33.3645L35.6929 33.74L35.7279 34.0567L35.8218 34.315L35.9745 34.3384L36.1505 34.4441L36.3855 34.4321L36.6198 34.1155L36.866 33.8808L36.9365 33.7518L37.0542 33.6815L37.3119 33.6229L37.6406 33.5522C37.6406 33.5522 37.9453 33.3527 37.981 33.3293C38.0158 33.3059 38.8606 33.0481 38.8606 33.0481L39.0485 33.0597ZM39.2836 33.9159L39.6121 33.8105L39.6821 33.6815L39.5535 33.5761L38.9547 33.6464L38.7788 33.5405L38.5679 33.6581C38.5679 33.6581 38.6733 33.705 38.7085 33.7284C38.7436 33.7518 38.814 33.705 38.814 33.705V33.8106C38.814 33.8106 39.0018 33.916 38.978 33.9515C38.9547 33.9865 39.2836 33.9159 39.2836 33.9159ZM39.8622 35.5154L39.7957 35.5588L39.7761 35.6334L39.8348 35.6684L39.9288 35.688L40.0262 35.6645L40.1088 35.6176L40.132 35.5942L40.269 35.5857L40.2846 35.5277L40.3162 35.4688V35.3006L40.3904 35.2575L40.3666 35.1483L40.2495 35.121L40.1558 35.1053L40.0933 35.1247L40.0575 35.1755C40.0575 35.1755 39.9996 35.2381 40.011 35.2261C40.0231 35.2148 40.0539 35.2148 40.0466 35.2342C40.0384 35.2537 40.0068 35.2732 40.0068 35.2732H39.9607L39.9207 35.2497L39.8624 35.2575L39.8426 35.2927L39.8666 35.3475L39.827 35.3868L39.874 35.426L39.9207 35.4373L39.9134 35.4923L39.8622 35.5154ZM40.3274 35.0542C40.3549 35.0656 40.3664 35.0816 40.3626 35.0931C40.3591 35.1053 40.4213 35.113 40.4213 35.113L40.4723 35.1014L40.4372 35.1561C40.4372 35.1561 40.4448 35.1913 40.4564 35.207C40.4685 35.2226 40.5077 35.207 40.5077 35.207C40.5077 35.207 40.6016 35.1913 40.6134 35.1952C40.6248 35.199 40.6092 35.2343 40.6092 35.2343L40.6447 35.2889C40.6447 35.2889 40.6639 35.3673 40.6678 35.3905C40.672 35.4144 40.6365 35.406 40.6365 35.406C40.6365 35.406 40.5629 35.4177 40.5465 35.4143C40.5309 35.4104 40.4999 35.4413 40.4726 35.4724C40.445 35.5043 40.4765 35.4923 40.4765 35.4923H40.5346C40.5346 35.4923 40.5393 35.5311 40.5429 35.5473C40.5464 35.563 40.4959 35.5783 40.4805 35.5743C40.4649 35.5706 40.3943 35.6059 40.3943 35.6059L40.398 35.6646L40.4843 35.6723L40.5705 35.6841L40.5861 35.7114C40.5861 35.7114 40.5307 35.7232 40.5154 35.7114C40.4998 35.6997 40.4529 35.774 40.4529 35.774L40.4099 35.8209L40.3196 35.8912L40.3704 35.9148L40.4018 35.8755L40.4804 35.8794L40.5659 35.8677C40.5659 35.8677 40.6172 35.8052 40.629 35.8052C40.6404 35.8052 40.7618 35.8015 40.7618 35.8015C40.7618 35.8015 40.8596 35.7818 40.8713 35.7897C40.883 35.7975 40.9614 35.8133 40.9735 35.8171C40.985 35.8209 41.1375 35.7741 41.1375 35.7741C41.1375 35.7741 41.1686 35.7233 41.1764 35.7077C41.1845 35.6921 41.1337 35.6765 41.122 35.6647C41.1103 35.6529 41.1609 35.6374 41.1845 35.6257C41.2078 35.614 41.2157 35.5708 41.2276 35.5515C41.2388 35.5321 41.2117 35.4925 41.2078 35.4811C41.2041 35.469 41.1492 35.4726 41.1337 35.469C41.1181 35.465 41.0516 35.4726 41.0516 35.4726L41.0552 35.3945C41.0552 35.3945 40.8713 35.1443 40.8753 35.1326C40.8792 35.1212 40.8323 35.0466 40.8127 35.0429C40.7932 35.039 40.7696 35.0228 40.7462 34.9916C40.7229 34.9606 40.7775 34.9212 40.7775 34.9212C40.7775 34.9212 40.8438 34.8509 40.8517 34.8354C40.8596 34.8197 40.8437 34.7728 40.8322 34.7689C40.8203 34.7651 40.6838 34.7728 40.6838 34.7728C40.6838 34.7728 40.6448 34.7416 40.6485 34.7299C40.6525 34.7176 40.6916 34.714 40.7034 34.714C40.7145 34.714 40.7854 34.5774 40.801 34.5735C40.8166 34.5693 40.7892 34.5344 40.7892 34.5344L40.7347 34.5572L40.6838 34.632C40.6838 34.632 40.6365 34.6437 40.6173 34.632C40.598 34.6202 40.5585 34.632 40.5429 34.6281C40.5273 34.6237 40.4916 34.675 40.4916 34.675C40.4916 34.675 40.4374 34.7337 40.4215 34.7375C40.4059 34.7414 40.3511 34.804 40.3551 34.8078C40.3593 34.8117 40.3628 34.8628 40.3628 34.8628C40.3628 34.8628 40.3511 34.882 40.3316 34.8859C40.3122 34.8898 40.3471 34.9562 40.3471 34.9562L40.3944 34.98C40.3944 34.98 40.3667 35.0071 40.3511 35.0035C40.3352 34.9992 40.3001 35.0427 40.3274 35.0542ZM58.7251 34.2057C58.7251 34.2024 58.7234 34.2024 58.72 34.2044C58.7234 34.2069 58.7251 34.2078 58.7251 34.2057ZM53.9231 41.109C53.9309 41.0973 54.0402 41.0425 54.0441 41.0148C54.0481 40.988 54.1262 41.2696 54.1262 41.2696L54.1814 41.4649C54.1814 41.4649 54.224 41.6056 54.2397 41.633C54.2555 41.6606 54.2785 41.8404 54.2785 41.8561C54.2785 41.8716 54.33 41.9769 54.3063 41.9889C54.2824 42.0006 54.2438 41.9927 54.2512 42.0085C54.2595 42.0239 54.2784 42.1101 54.2784 42.1263C54.2784 42.1418 54.2669 42.247 54.2595 42.2667C54.2512 42.2863 54.2478 42.3372 54.2478 42.3602C54.2478 42.3839 54.2627 42.4273 54.2627 42.4386C54.2627 42.4506 54.2748 42.47 54.2748 42.47C54.2748 42.47 54.2907 42.4781 54.2982 42.4582C54.3062 42.4386 54.3647 42.4309 54.3729 42.4386C54.3805 42.4466 54.4703 42.5518 54.4783 42.5835C54.486 42.6145 54.5838 42.7674 54.5953 42.7829C54.6072 42.7987 54.6582 42.8496 54.6263 42.8924C54.5953 42.9354 54.5953 42.9432 54.5995 42.9666C54.6033 42.9899 54.6152 43.0758 54.654 43.1234C54.6936 43.17 54.7752 43.2599 54.7752 43.2599C54.7752 43.2599 54.8772 43.3308 54.8929 43.3504C54.9082 43.3697 55.0217 43.3814 55.0338 43.4282C55.045 43.4751 55.0765 43.5224 55.0765 43.5224C55.0765 43.5224 55.1663 43.5495 55.1663 43.5616C55.1663 43.5519 55.1652 43.4153 55.1549 43.3966C55.1434 43.3776 55.0496 43.1857 55.0374 43.1741C55.026 43.1622 55.0065 43.135 55.0182 43.0847C55.0299 43.0332 55.0102 42.9002 55.0102 42.9002L54.8264 42.681C54.8264 42.681 54.666 42.5245 54.6622 42.5326C54.6583 42.5402 54.5368 42.4855 54.5415 42.4386C54.5446 42.3917 54.5288 42.2746 54.4938 42.2471C54.459 42.2199 54.4277 42.1765 54.4003 42.161C54.3731 42.145 54.3926 41.9965 54.4003 41.977C54.4078 41.9575 54.4705 41.7856 54.4669 41.7741C54.4626 41.7624 54.4824 41.6021 54.4824 41.6021C54.4824 41.6021 54.533 41.5349 54.5447 41.5586C54.5568 41.582 54.6113 41.5586 54.5956 41.629C54.5801 41.6999 54.5881 41.7429 54.5881 41.7429L54.7285 41.7152L54.8266 41.8171L54.8972 41.9107L54.9871 41.9656C54.9871 41.9656 55.0104 42.0713 55.0221 42.0787C55.0341 42.0869 55.0926 42.0553 55.0926 42.0553L55.1825 42.1184C55.1825 42.1184 55.1315 42.212 55.1437 42.2358C55.1552 42.2592 55.1665 42.3411 55.1665 42.3411L55.253 42.2706L55.3627 42.1885L55.4174 42.1102L55.437 42.0517L55.5931 41.9848L55.7418 41.8481L55.7382 41.5585L55.6912 41.3788L55.5582 41.191L55.2998 40.933L55.1986 40.8079C55.1986 40.8079 55.128 40.718 55.1316 40.6947C55.1356 40.6709 55.1508 40.5461 55.1508 40.5461L55.2217 40.4794L55.3588 40.3425C55.3588 40.3425 55.4526 40.28 55.4683 40.2955C55.4838 40.3112 55.6089 40.3073 55.6129 40.3189C55.6166 40.3306 55.633 40.3269 55.6244 40.3501C55.6166 40.3735 55.6282 40.4793 55.6399 40.4911C55.652 40.5029 55.6795 40.5143 55.6912 40.5184C55.7022 40.5221 55.7418 40.5065 55.7459 40.4831C55.7499 40.4599 55.7418 40.3776 55.7459 40.3579C55.7499 40.3385 55.7576 40.3385 55.7694 40.3346C55.7811 40.3306 55.8395 40.3346 55.8395 40.3346L55.9024 40.272L56.0117 40.3111L56.129 40.2092C56.129 40.2092 56.1918 40.1978 56.1996 40.2055C56.2073 40.2136 56.3094 40.1274 56.3094 40.1274L56.4148 40.1038L56.5084 40.0647C56.5084 40.0647 56.5475 39.9746 56.5475 39.9862C56.5475 39.9981 56.7746 39.7597 56.7746 39.7597L56.8488 39.5758L56.9386 39.3138L56.9933 38.9888L56.9974 38.8951C56.9974 38.8951 56.9111 38.9653 56.8997 38.9695C56.8878 38.9732 56.8176 38.954 56.8176 38.954L56.8721 38.856C56.8721 38.856 56.9035 38.7857 56.8878 38.7818C56.8721 38.7778 56.7938 38.7545 56.7938 38.7545C56.7938 38.7545 56.8275 38.6775 56.8325 38.6725C56.8253 38.6725 56.6964 38.5394 56.6964 38.5394C56.6964 38.5394 56.5241 38.293 56.5162 38.3124C56.5084 38.332 56.3756 38.2187 56.3635 38.2187C56.3523 38.2187 56.3442 38.2225 56.3366 38.1992C56.3287 38.1757 56.4539 38.0114 56.4577 37.9992C56.4615 37.9879 56.5708 37.8664 56.5909 37.8704C56.6099 37.8743 56.6766 37.8782 56.6766 37.8782C56.6766 37.8782 56.6606 37.8001 56.6491 37.7962C56.6377 37.7924 56.3718 37.7689 56.3718 37.7689C56.3718 37.7689 56.2663 37.8314 56.2623 37.847C56.2578 37.8627 56.1726 37.855 56.1726 37.855L56.1606 37.765L56.0544 37.7142L55.9336 37.6712L55.9377 37.589C55.9377 37.589 56.0116 37.5618 56.0235 37.5534C56.0352 37.5455 56.1289 37.4991 56.1366 37.4596C56.1445 37.4204 56.2072 37.358 56.2152 37.3462C56.2229 37.3345 56.2736 37.2915 56.2851 37.2993C56.2971 37.3071 56.3719 37.3619 56.3635 37.3658C56.3561 37.3696 56.3053 37.452 56.3165 37.4751C56.3287 37.499 56.3833 37.5695 56.3757 37.5809C56.368 37.5929 56.3443 37.6359 56.3443 37.6359L56.403 37.6281C56.403 37.6281 56.4772 37.5695 56.4732 37.5617C56.4694 37.5533 56.5319 37.4873 56.5436 37.4873C56.5553 37.4873 56.6847 37.4595 56.688 37.4712C56.6923 37.4831 56.8214 37.5142 56.8214 37.5142L56.8449 37.7492C56.8449 37.7492 57.1579 37.8235 57.1579 37.8431C57.1579 37.8626 57.1225 37.8937 57.1225 37.8937C57.1225 37.8937 57.1186 37.9563 57.1343 37.9644C57.1498 37.9718 57.2006 38.0149 57.2126 38.0309C57.2247 38.0465 57.2479 38.1523 57.2479 38.1523C57.2479 38.1523 57.2051 38.246 57.2126 38.2578C57.2202 38.2696 57.2986 38.3399 57.2986 38.3399L57.5217 38.2538C57.5217 38.2538 57.6426 38.1601 57.6426 38.1484C57.6426 38.1364 57.5138 37.8236 57.5138 37.8236L57.2163 37.6197L57.0877 37.5143L57.2673 37.3385L57.2516 37.1861C57.2516 37.1861 57.2907 37.037 57.2986 37.037C57.3068 37.037 57.416 36.959 57.416 36.959L57.541 37.0455L57.7288 36.9279L57.8345 36.5489L57.8383 36.0557L57.6701 35.7546C57.6701 35.7546 57.5921 35.5708 57.5799 35.5708C57.5682 35.5708 57.4551 35.3945 57.4551 35.3945L57.193 35.2774L57.0793 35.2735L57.0092 35.3906L56.9352 35.3008L56.8335 35.1211L56.8449 35.2305C56.8449 35.2305 56.8606 35.3008 56.8559 35.3164C56.853 35.332 56.7782 35.2186 56.7782 35.2186C56.7782 35.2186 56.6531 35.1953 56.6453 35.1953C56.6378 35.1953 56.5749 35.1598 56.5749 35.1598C56.5749 35.1598 56.7594 34.9453 56.7434 34.9529C56.7279 34.9606 56.7746 34.6792 56.7746 34.6792C56.7746 34.6792 56.841 34.5459 56.8448 34.5538C56.8489 34.5617 57.1026 34.5265 57.1026 34.5265C57.1026 34.5265 57.5681 34.5189 57.5643 34.5265C57.5605 34.5346 57.7914 34.5112 57.7914 34.5112C57.7914 34.5112 57.7989 34.5776 57.8191 34.5855C57.8381 34.5932 58.0258 34.5813 58.0258 34.5813L58.1627 34.5501L58.2289 34.5421C58.2289 34.5421 58.147 34.4601 58.1352 34.4601C58.1235 34.4601 58.0454 34.4247 58.0378 34.4207C58.0296 34.4168 58.0963 34.2685 58.0922 34.245C58.0886 34.2214 58.0808 34.1394 58.1118 34.1473C58.143 34.1552 58.3547 34.1552 58.3547 34.1552C58.3547 34.1552 58.4403 34.237 58.4403 34.2606C58.4403 34.284 58.5773 34.366 58.5773 34.366C58.5773 34.366 58.6518 34.284 58.6594 34.2684C58.666 34.256 58.7055 34.2119 58.7207 34.2046C58.7018 34.1892 58.6403 34.1082 58.6403 34.1082C58.6403 34.1082 58.7065 34.0337 58.7416 34.0728C58.7772 34.1119 58.8551 34.28 58.8551 34.28C58.8551 34.28 58.7845 34.4559 58.7845 34.4718C58.7845 34.4871 58.7573 34.648 58.7573 34.6598C58.7573 34.6714 58.6789 34.7417 58.6789 34.7417C58.6789 34.7417 58.6402 34.7417 58.6402 34.7613C58.6402 34.7807 58.6944 34.8862 58.6944 34.8862C58.6944 34.8862 58.7147 35.0076 58.7257 35.015C58.7376 35.0235 59.1289 35.3633 59.1289 35.3633L59.3829 35.614L59.5476 35.7506L59.5942 35.739C59.5942 35.739 59.6336 35.5476 59.6179 35.5549C59.6021 35.5631 59.5395 35.4966 59.5476 35.4851C59.5552 35.4726 59.5708 35.4178 59.5901 35.4219C59.6101 35.4261 59.6686 35.4374 59.6686 35.4374L59.5512 35.2889L59.5901 35.207L59.6805 35.2343L59.5591 35.1054L59.4965 34.98C59.4965 34.98 59.563 34.9955 59.5674 35.0071C59.5709 35.0196 59.6416 34.9569 59.618 34.9527C59.5943 34.9484 59.4536 34.8977 59.4536 34.886C59.4536 34.8744 59.3717 34.8548 59.3672 34.839C59.3637 34.8235 59.383 34.761 59.3717 34.761C59.36 34.761 59.2388 34.7063 59.2388 34.7063L59.16 34.7176L59.117 34.632L59.1404 34.5656C59.1404 34.5656 59.0655 34.4591 59.0587 34.4524C59.0647 34.4578 59.2258 34.3962 59.2411 34.3896C59.2401 34.3922 59.3173 34.3832 59.3241 34.4126C59.3323 34.4441 59.3671 34.4754 59.3671 34.4754L59.4497 34.3973C59.4497 34.3973 59.5082 34.3462 59.5317 34.3578C59.5551 34.3695 59.6686 34.3934 59.6846 34.4088C59.6985 34.4231 59.7697 34.4433 59.7807 34.4562C59.7796 34.4398 59.7821 34.389 59.7821 34.389L59.7855 34.3461L59.8957 34.1977C59.8957 34.1977 59.9382 34.1352 59.9778 34.127C60.0169 34.1195 60.0988 34.0491 60.1144 34.061C60.1301 34.0725 60.2598 34.0688 60.2754 34.104C60.2907 34.139 60.3611 34.0922 60.3611 34.0922C60.3611 34.0922 60.2943 34.0102 60.2907 34.0178C60.2871 34.0255 60.0715 33.9315 60.0599 33.9358C60.048 33.9393 59.9038 33.8496 59.9038 33.8496C59.9038 33.8496 59.829 33.8222 59.8255 33.8222C59.8217 33.8222 59.8837 33.7908 59.9071 33.783C59.9308 33.7753 59.9856 33.701 59.9856 33.701C59.9856 33.701 59.9585 33.6502 59.9425 33.6345C59.9267 33.619 60.0287 33.6307 60.0637 33.6463C60.0988 33.6619 60.2753 33.6697 60.2711 33.6815C60.2668 33.6931 60.3884 33.6931 60.3844 33.7245C60.3804 33.7558 60.4274 33.7634 60.4431 33.7792C60.4588 33.7949 60.6074 33.8182 60.6154 33.8222C60.6226 33.826 60.7713 33.8105 60.7713 33.8338C60.7713 33.8573 60.8184 33.83 60.8184 33.83C60.8184 33.83 60.795 33.7167 60.7676 33.7245C60.7399 33.7322 60.6889 33.6932 60.7244 33.6855C60.7598 33.6777 60.8262 33.6386 60.8068 33.6307C60.787 33.623 60.7558 33.5838 60.7089 33.564C60.6622 33.5445 60.4743 33.5019 60.4548 33.5092C60.4355 33.5174 60.1418 33.4465 60.1228 33.4465C60.1028 33.4465 60.0012 33.4195 60.0012 33.4195L58.9999 33.1496C58.9999 33.1496 58.378 33.0832 58.3817 33.0711C58.3859 33.0597 58.022 33.0282 58.022 33.0282L58.2375 33.2082L58.022 33.1771C58.022 33.1771 57.7563 33.1341 57.7485 33.1223C57.7404 33.1107 57.005 33.1067 57.005 33.1067L56.8957 32.9888C56.8957 32.9888 56.5435 32.9307 56.5318 32.9268C56.5201 32.9225 56.0819 32.9268 56.0819 32.9268L55.715 32.872C55.715 32.872 55.4682 32.7662 55.4134 32.778C55.3587 32.7898 54.819 32.7429 54.7876 32.7271C54.7565 32.7114 54.5417 32.7428 54.5417 32.7428L54.7168 32.8758L54.4279 32.8678L54.1384 32.8638L54.0287 32.8092L54.0332 32.9696C54.0332 32.9696 53.9508 32.9848 53.9508 32.9654C53.9508 32.9458 53.6964 32.8561 53.6964 32.8561C53.6964 32.8561 53.4849 32.6686 53.4813 32.6803C53.4773 32.6919 53.1379 32.6138 53.1379 32.6138L52.926 32.5749C52.926 32.5749 52.8634 32.6021 52.8711 32.6178C52.8789 32.6334 52.961 32.6881 52.9493 32.6998C52.9377 32.7114 52.8089 32.6881 52.8089 32.6881L52.4764 32.6764L52.4173 32.6139L51.9792 32.6178C51.9792 32.6178 51.8151 32.4886 51.8109 32.496C51.8074 32.5039 51.686 32.5241 51.686 32.5241L51.592 32.6256L51.3263 32.6452L51.6122 32.4925L51.7138 32.4184C51.7212 32.3983 51.6427 32.2813 51.6276 32.2968C51.6122 32.3126 51.3887 32.2421 51.377 32.2421C51.3654 32.2421 51.029 32.2343 51.029 32.2343C51.0052 32.2304 50.9 32.2343 50.9 32.2343C50.9 32.2343 50.8609 32.125 50.8412 32.1288C50.8219 32.1327 50.5673 32.1249 50.5673 32.1249C50.5673 32.1249 50.3407 32.1718 50.3321 32.1952C50.3252 32.2189 50.3757 32.2421 50.3757 32.2421C50.3757 32.2421 50.2546 32.3321 50.2427 32.3242C50.2312 32.3164 49.8788 32.3164 49.8788 32.3164C49.8788 32.3164 49.39 32.4218 49.39 32.41C49.39 32.4 49.2437 32.4625 49.2096 32.4775C49.2384 32.5027 49.341 32.5611 49.3275 32.5749C49.3119 32.5904 48.9831 32.6061 48.9714 32.5825C48.9609 32.561 48.8309 32.6106 48.8103 32.6138C48.834 32.6236 48.9879 32.744 48.9986 32.7623C49.0103 32.7818 49.0386 32.8093 49.0769 32.7936C49.1159 32.7779 49.1511 32.7623 49.1592 32.7779C49.167 32.7936 49.1592 32.8287 49.1592 32.8287C49.1592 32.8287 49.0612 32.8483 49.0499 32.8483C49.0387 32.8483 48.9206 32.7818 48.9089 32.7779C48.8974 32.774 48.7409 32.7389 48.7211 32.7389C48.7011 32.7389 48.6152 32.7506 48.6152 32.7506C48.6152 32.7506 48.5488 32.8093 48.5643 32.8171C48.5805 32.8249 48.6195 32.8991 48.6314 32.8915C48.6429 32.8834 48.7135 32.8522 48.7171 32.8875C48.7211 32.9223 48.6352 32.9502 48.6352 32.9502C48.6352 32.9502 48.5174 32.9028 48.5136 32.8915C48.5097 32.8793 48.4548 32.8131 48.4548 32.7778C48.4548 32.7426 48.3846 32.6176 48.3651 32.637C48.3458 32.6567 48.2754 32.6644 48.2754 32.6644L48.3615 32.7426C48.3615 32.7426 48.4355 32.805 48.416 32.8091C48.3966 32.813 48.3417 32.8441 48.3381 32.856C48.3341 32.8677 48.2911 32.934 48.3417 32.934C48.3926 32.934 48.4748 33.0125 48.4748 33.0125C48.4748 33.0125 48.4786 33.1183 48.4862 33.1339C48.4941 33.1495 48.6151 33.2315 48.6151 33.2315C48.6151 33.2315 48.69 33.1845 48.701 33.173C48.7134 33.1612 48.8151 33.1417 48.8385 33.1651C48.8619 33.1885 48.7913 33.2471 48.772 33.2355C48.7522 33.2236 48.7094 33.2119 48.6899 33.2197L48.67 33.2275C48.67 33.2275 48.6428 33.2862 48.67 33.2979C48.6976 33.3097 48.7332 33.3488 48.7291 33.3683C48.7248 33.3877 48.6508 33.5208 48.6508 33.5208L48.541 33.5442C48.502 33.5365 48.4396 33.5091 48.4396 33.5091L48.5568 33.4193L48.5726 33.2978C48.5726 33.2978 48.5766 33.2901 48.5454 33.2627C48.5134 33.2355 48.4043 33.1378 48.4043 33.1378C48.4043 33.1378 48.3379 33.0281 48.3379 33.0164C48.3379 33.0042 48.3067 32.9457 48.3067 32.9457C48.3067 32.9457 48.2322 32.895 48.2165 32.8914C48.2012 32.8874 48.2012 32.8442 48.2131 32.8208C48.2246 32.7973 48.2012 32.6919 48.1972 32.7074C48.1927 32.7231 48.06 32.7036 48.0442 32.6997C48.0285 32.6958 47.9936 32.6527 47.9936 32.6527C47.9936 32.6527 47.9742 32.5866 47.9424 32.6138C47.9115 32.6411 47.8568 32.6527 47.8568 32.6527L47.8021 32.7973L47.8176 32.856L47.7081 32.9305C47.7081 32.9305 47.8005 33.01 47.8091 33.016C47.8024 33.0128 47.814 33.0949 47.8176 33.1143C47.8212 33.1339 47.9856 33.177 47.9856 33.177C47.9856 33.177 48.0717 33.212 48.0794 33.2472C48.0874 33.2823 48.0558 33.3254 48.0558 33.3254L47.888 33.2472L47.5161 33.13C47.5161 33.13 47.1567 33.1067 47.1642 33.095C47.1724 33.0833 47.0272 33.0009 47.0272 33.0009L46.945 33.0438C46.945 33.0438 47.023 33.0989 47.0352 33.1023C47.0469 33.1067 47.1642 33.1497 47.1642 33.1497C47.1642 33.1497 47.1996 33.1692 47.2073 33.2005C47.2154 33.2317 47.1409 33.2707 47.1409 33.2707C47.1409 33.2707 47.0902 33.2161 47.0902 33.2045C47.0902 33.1927 47.0781 33.1457 47.0626 33.1535C47.0469 33.1614 46.9023 33.2357 46.9023 33.2357C46.9023 33.2357 46.738 33.2395 46.7183 33.2551C46.6987 33.2707 46.5932 33.3453 46.5853 33.3255C46.5773 33.306 46.6008 33.2239 46.5973 33.2083C46.5932 33.1927 46.4328 33.2358 46.4328 33.2358C46.4328 33.2358 46.2259 33.3021 46.2177 33.3215C46.21 33.3413 46.1163 33.3607 46.1002 33.3646C46.0847 33.3685 46.0653 33.3685 46.0653 33.3685C46.0653 33.3685 45.9834 33.4196 45.9987 33.4466C46.0144 33.4741 45.8853 33.4895 45.8853 33.4895C45.8853 33.4895 45.8034 33.4388 45.7996 33.4274C45.7958 33.4167 45.8885 33.3545 45.8973 33.3492C45.8853 33.357 45.7996 33.2475 45.7877 33.2435C45.7774 33.2404 45.5648 33.2459 45.5269 33.2443C45.5517 33.2534 45.6274 33.3266 45.6274 33.3374C45.6274 33.3492 45.6393 33.4627 45.6393 33.4627C45.6393 33.4627 45.7013 33.5021 45.7133 33.4975C45.725 33.4939 45.7013 33.5642 45.7013 33.5642L45.5964 33.5525C45.5964 33.5525 45.5528 33.4896 45.5176 33.5252C45.4824 33.5607 45.3653 33.6505 45.3577 33.6389C45.3496 33.6271 45.2832 33.6505 45.2872 33.674C45.2912 33.6976 45.3419 33.7481 45.3419 33.7481C45.3419 33.7481 45.2678 33.8107 45.2751 33.7874C45.2832 33.7636 45.0721 33.7092 45.0563 33.7131C45.0401 33.717 44.9504 33.7444 44.9504 33.7444L44.9893 33.8108C44.9893 33.8108 45.1069 33.8185 45.1223 33.842C45.1385 33.8654 45.0954 33.9123 45.083 33.9123C45.072 33.9123 44.7981 33.7833 44.7981 33.7833C44.7981 33.7833 44.7079 33.6896 44.735 33.6623C44.7631 33.6349 44.7863 33.592 44.735 33.592C44.6845 33.592 44.6298 33.5526 44.6263 33.537C44.6222 33.5214 44.9347 33.5686 44.9347 33.5686L45.115 33.5879C45.115 33.5879 45.0917 33.6117 45.1621 33.5879C45.2322 33.5644 45.3496 33.5055 45.3653 33.5022C45.381 33.4976 45.4002 33.4234 45.4002 33.4234L45.3768 33.357L44.7045 33.1968C44.7045 33.1968 44.4812 33.1303 44.4774 33.1186C44.4736 33.107 44.2779 33.0871 44.2779 33.0871L44.1838 33.0992L44.2626 33.0012C44.2626 33.0012 43.957 32.911 43.9495 32.9227C43.9413 32.9343 43.8164 32.9938 43.8164 32.9938L43.5818 32.9544L43.2804 33.0247L42.9752 33.0992L42.5336 33.2868L42.6978 33.3024L42.627 33.4234L42.4314 33.5686L42.3223 33.7482L42.3066 33.846L42.2012 33.9592C42.2012 33.9592 42.1269 33.9203 42.1113 33.9048C42.0958 33.8888 41.8373 33.9787 41.8373 33.9787L41.6811 34.1274C41.6811 34.1274 41.642 34.202 41.6341 34.2215C41.626 34.2412 41.6458 34.4485 41.6458 34.4485C41.6458 34.4485 41.7397 34.4485 41.7122 34.4758C41.6847 34.503 41.6886 34.6285 41.6886 34.6285L41.7983 34.7023C41.7983 34.7023 41.9428 34.7497 41.963 34.7455C41.9817 34.7417 42.0526 34.6948 42.0646 34.6869C42.0755 34.6793 42.1621 34.5933 42.1894 34.5968C42.2167 34.6011 42.287 34.5224 42.2951 34.5502C42.3028 34.5776 42.3186 34.6753 42.334 34.6988C42.3496 34.7223 42.4043 34.7653 42.4277 34.8198C42.451 34.8747 42.4831 34.9297 42.4748 34.9408C42.4667 34.953 42.4121 35.0073 42.4121 35.0073C42.4121 35.0073 42.2952 35.0229 42.2792 35.0391C42.2637 35.0545 42.2442 35.0623 42.2324 35.0545C42.2203 35.0467 42.2714 34.9917 42.2832 34.9767C42.2951 34.9607 42.2559 34.898 42.2402 34.9019C42.2243 34.906 42.209 34.8667 42.2243 34.855C42.2402 34.8432 42.2362 34.769 42.2362 34.769C42.2362 34.769 42.2128 34.7571 42.2012 34.7613C42.1894 34.7652 42.0525 34.8198 42.0525 34.8198C42.0525 34.8198 41.9783 34.898 41.9744 34.9135C41.9702 34.9296 41.9388 35.0115 41.9589 35.07C41.9783 35.129 42.0251 35.2228 42.0251 35.2228C42.0251 35.2228 42.0755 35.2578 42.0564 35.2736C42.0371 35.2891 41.9975 35.3478 41.9975 35.3478L41.9041 35.3517C41.9041 35.3517 41.7359 35.3716 41.72 35.3791C41.7045 35.3871 41.5405 35.4376 41.5478 35.4535C41.5561 35.4691 41.5125 35.6375 41.5125 35.6375C41.5049 35.6414 41.3406 35.7587 41.3211 35.7587C41.3016 35.7587 41.1804 35.7898 41.1804 35.7898C41.1804 35.7898 41.1256 35.9345 41.1219 35.9266C41.118 35.9186 40.9376 36.0126 40.9376 36.0126C40.9376 36.0126 40.8009 35.9734 40.797 35.9576C40.7931 35.9421 40.746 35.9069 40.7423 35.9187C40.7382 35.9306 40.789 36.0522 40.789 36.0757C40.789 36.0986 40.797 36.1456 40.7813 36.1303C40.7656 36.1143 40.6874 36.0913 40.6719 36.0834C40.6559 36.0757 40.5231 36.0792 40.5231 36.0792H40.4683C40.4683 36.0792 40.4017 36.1382 40.3977 36.1263C40.3941 36.1144 40.3902 36.1773 40.3902 36.1773L40.4291 36.2162L40.5703 36.2748L40.7031 36.357L40.754 36.482L40.8125 36.5994C40.8125 36.5994 40.7733 36.8418 40.7661 36.8539C40.7574 36.8653 40.6756 36.9204 40.6756 36.9204L40.4212 36.9161C40.4212 36.9161 40.296 36.8889 40.2843 36.885C40.2726 36.8809 40.0965 36.9084 40.0931 36.8927C40.0892 36.8769 40.0341 36.8809 40.0341 36.8809L40.0065 36.8497H39.9362L39.8775 36.916L39.7915 36.9203V36.9903C39.7915 36.9903 39.8267 37.1511 39.8227 37.1394C39.8188 37.1273 39.8072 37.3268 39.8072 37.3268C39.8072 37.3268 39.7227 37.4968 39.7141 37.5098C39.716 37.5149 39.7095 37.6241 39.7095 37.6241L39.7605 37.7064L39.7682 37.8039C39.7682 37.8039 39.7291 37.8938 39.7448 37.886C39.7606 37.8781 39.8859 37.8899 39.8893 37.8743C39.8932 37.8588 39.9678 37.8236 39.9791 37.8508C39.9907 37.8781 40.0341 37.8508 40.0463 37.8981C40.0572 37.9449 40.1006 38.0113 40.1048 38.0229C40.1087 38.0351 40.1399 38.0464 40.1399 38.0464L40.1516 38.078L40.1278 38.0976L40.0306 38.3163L39.815 38.469L39.6862 38.5509L39.6509 38.6489L39.5963 38.7115L39.5806 38.8327C39.5806 38.8327 39.5963 38.985 39.5882 38.993C39.5806 39.0008 39.295 39.2707 39.295 39.2707L39.1385 39.3058L39.0521 39.4546C39.0521 39.4546 38.9349 39.5638 38.9273 39.5838C38.9192 39.6031 38.8607 39.6777 38.8607 39.6777C38.8607 39.6777 38.8646 39.8338 38.8607 39.8105C38.8567 39.7871 38.6927 39.9394 38.6927 39.9394C38.6927 39.9394 38.6615 40.1193 38.6537 40.1274C38.6459 40.1348 38.5678 40.2719 38.5557 40.268C38.544 40.264 38.5323 40.3618 38.5323 40.3775C38.5323 40.393 38.5712 40.4398 38.5712 40.4398C38.5712 40.4398 38.6264 40.5459 38.6301 40.5341C38.6339 40.522 38.6339 40.5694 38.6339 40.5694L38.5794 40.6238C38.5794 40.6238 38.6381 40.7141 38.6381 40.7257V40.9679L38.5752 41.1011L38.544 41.2733L38.4499 41.3475L38.4538 41.3945L38.5361 41.4608L38.5481 41.5349L38.5243 41.6173V41.6998L38.5833 41.8366C38.5833 41.8366 38.6419 41.8835 38.6536 41.8717C38.6653 41.8599 38.7822 41.9459 38.7981 41.9731C38.8138 42.0005 38.9583 42.1727 38.9583 42.1807C38.9583 42.1884 38.9818 42.2275 38.9818 42.2275L39.0522 42.4661C39.0522 42.4661 39.3925 42.7476 39.4003 42.736C39.4082 42.7246 39.7641 42.99 39.7641 42.99C39.7641 42.99 40.05 42.8496 40.0462 42.8615C40.042 42.8729 40.2882 42.8496 40.2882 42.8496L40.4371 42.8729L40.5462 42.9238L40.9455 42.7403L41.0238 42.681L41.3325 42.6697L41.4813 42.7277C41.4813 42.7277 41.579 42.8729 41.579 42.8964C41.579 42.9199 41.6378 43.0252 41.6457 43.0095C41.6533 42.9943 41.9938 42.9786 42.0058 42.9823C42.0171 42.9862 42.1658 43.1313 42.1658 43.1313L42.1581 43.2684L42.1344 43.5105L42.0874 43.6279L42.0409 43.7337L42.0292 43.808C42.0292 43.808 42.3806 44.3243 42.3806 44.3281C42.3806 44.3319 42.4707 44.5429 42.4707 44.5429L42.5767 44.8132L42.6394 44.9654L42.5767 45.0514L42.6785 45.3139L42.6431 45.5717L42.4905 45.9044L42.4242 46.1507L42.4437 46.4792L42.6269 46.8586L42.8189 47.2928L42.8384 47.7702L42.9913 48.0554L43.1011 48.2859L43.2065 48.5366L43.261 48.6109C43.261 48.6109 43.2692 48.7361 43.2568 48.7361C43.2453 48.7361 43.1869 48.7403 43.2026 48.7633C43.2181 48.7867 43.3078 48.9433 43.3078 48.9433L43.3117 49.0139L43.4367 49.0839L43.5469 49.0332C43.5469 49.0332 43.6562 49.0139 43.6681 49.0177C43.6796 49.0216 43.8319 48.9667 43.8319 48.9667L44.0667 49.0019L44.231 48.916L44.411 48.9043C44.411 48.9043 44.7199 48.603 44.7199 48.6108C44.7199 48.6187 45.0048 48.2434 45.0048 48.2434L45.1503 48.1179L45.2321 47.8717L45.2205 47.7117C45.2205 47.7117 45.248 47.6289 45.2751 47.6134C45.3028 47.5979 45.5684 47.4415 45.5684 47.4415L45.6236 47.1832L45.5724 46.9288C45.5724 46.9288 45.5331 46.8315 45.5331 46.8156C45.5331 46.8002 45.5605 46.7293 45.5605 46.7293L45.8189 46.4987C45.8189 46.4987 45.8774 46.4244 45.9049 46.3971C45.9323 46.3698 46.1744 46.2643 46.1744 46.2643L46.339 46.1043L46.3664 45.5134C46.3664 45.5134 46.3077 45.2938 46.3039 45.2747C46.3001 45.2546 46.1866 44.8836 46.1866 44.8677C46.1866 44.8523 46.1476 44.6251 46.1432 44.6053C46.14 44.5864 46.2329 44.3242 46.2329 44.3242L46.3624 44.0696L46.8907 43.4635L47.1882 43.2253L47.6378 42.4895L47.7826 42.1491L47.8135 41.8054L47.72 41.7897C47.72 41.7897 47.6728 41.8443 47.6612 41.852C47.6494 41.8601 47.3796 41.8758 47.3796 41.8758L47.0509 41.9732L46.8906 42.0319L46.7342 41.8679L46.7575 41.7507L46.5466 41.5L46.2492 41.2033C46.2492 41.2033 46.1001 41.0896 46.1081 41.0782C46.1162 41.0661 46.0257 40.7924 46.0257 40.8002C46.0257 40.8081 45.8773 40.6635 45.8773 40.6635L45.8734 40.4012L45.7131 40.1395L45.5374 39.8184C45.5374 39.8184 45.3885 39.4506 45.3728 39.4311C45.3575 39.4116 45.2987 39.314 45.3181 39.3179C45.3376 39.3219 45.4784 39.3022 45.4784 39.3022C45.4784 39.3022 45.7403 39.6114 45.7403 39.627C45.7403 39.6427 45.8971 39.9044 45.8971 39.9044C45.8971 39.9044 46.0142 40.0689 46.0142 40.0568C46.0142 40.0457 46.0416 40.2094 46.0376 40.2215C46.0338 40.2333 46.108 40.4133 46.108 40.4133L46.3311 40.6129L46.3779 40.7573L46.5813 40.9802L46.6207 41.1212L46.4835 40.9956C46.4835 40.9956 46.4405 41.0662 46.4561 41.0783C46.4716 41.0897 46.6086 41.2345 46.6086 41.2345L46.6756 41.4337L46.7265 41.6218L46.8005 41.6843L47.0198 41.6414L47.0586 41.555H47.2738L47.3676 41.4848L47.4845 41.4691C47.4845 41.4691 47.5747 41.379 47.5824 41.3751C47.5905 41.3712 47.9385 41.219 47.9385 41.219C47.9385 41.219 47.9461 41.1051 47.9619 41.1051C47.9776 41.1051 48.326 40.9956 48.326 40.9956L48.361 40.8628L48.4858 40.8549L48.5211 40.7652L48.6424 40.6909L48.6576 40.4952L48.7478 40.5223L48.7754 40.4558L48.7442 40.4133L48.8812 40.2138L48.885 40.143L48.7519 40.0219L48.6896 39.9555C48.6896 39.9555 48.4782 39.9317 48.4701 39.9161C48.4625 39.9004 48.3804 39.7126 48.3804 39.7126C48.3804 39.6543 48.3842 39.5483 48.3723 39.5564C48.361 39.5641 48.2945 39.6383 48.2945 39.6383L48.0524 39.8614L47.8407 39.9161C47.8407 39.9161 47.7706 39.8966 47.7665 39.885C47.7627 39.8732 47.7548 39.6931 47.7548 39.6931C47.7548 39.6931 47.6645 39.5876 47.661 39.5721C47.6571 39.5564 47.5904 39.7091 47.5904 39.7091C47.5904 39.7091 47.4886 39.5721 47.5001 39.5678C47.5118 39.5641 47.4533 39.4311 47.4533 39.4311L47.2502 39.1967L47.2385 39.0752C47.2385 39.0752 47.3363 38.9694 47.3518 38.9655C47.3674 38.9616 47.5082 38.9422 47.524 38.9933C47.5397 39.0436 47.657 39.2163 47.657 39.2397C47.657 39.2631 47.8366 39.4194 47.8564 39.4155C47.8757 39.4116 47.9459 39.4506 47.9697 39.4663C47.9931 39.4819 48.0397 39.5093 48.0595 39.5292C48.079 39.5483 48.1299 39.5369 48.1299 39.5369L48.259 39.5172C48.259 39.5172 48.3645 39.4155 48.3687 39.4351C48.3721 39.455 48.4935 39.4628 48.478 39.4898C48.4623 39.5173 48.4823 39.5957 48.4935 39.6191C48.5057 39.6428 49.0332 39.7249 49.0332 39.7249L49.2762 39.7561C49.2762 39.7561 49.5337 39.7324 49.5494 39.7324C49.5649 39.7324 49.7298 39.7484 49.7453 39.7439C49.7606 39.7405 49.9954 39.9983 49.9954 39.9983L50.2145 40.1083L50.265 40.1042L50.1405 40.159C50.1405 40.159 50.1829 40.2568 50.1829 40.2684C50.1829 40.2802 50.4022 40.4367 50.4022 40.4367C50.4022 40.4367 50.4802 40.3856 50.4919 40.3856C50.5039 40.3856 50.5586 40.3661 50.5626 40.3387C50.5665 40.3114 50.5507 40.2334 50.5703 40.2255C50.5902 40.2177 50.617 40.194 50.6216 40.2294C50.6251 40.2644 50.6728 40.6008 50.6647 40.6044C50.6561 40.609 50.731 40.8589 50.731 40.8706C50.731 40.8824 50.8288 41.1877 50.8325 41.1994C50.8365 41.211 50.9966 41.5551 51.0083 41.5669C51.0198 41.5787 51.1766 41.9852 51.1766 41.9852C51.1766 41.9852 51.2668 42.1535 51.2627 42.1811C51.2589 42.2085 51.2941 42.3413 51.3177 42.357C51.3411 42.3726 51.4464 42.4118 51.4464 42.4118C51.4464 42.4118 51.505 42.3607 51.5093 42.3453C51.5128 42.3298 51.5561 42.2594 51.5713 42.2361C51.5871 42.2122 51.6582 42.2048 51.6618 42.2202C51.6654 42.2361 51.748 42.275 51.748 42.275L51.7394 42.4665C51.7394 42.4665 51.7555 42.5913 51.767 42.639C51.7794 42.6859 51.8768 42.7249 51.8768 42.7249L51.9941 42.6194L52.0448 42.439L51.9279 42.2634C51.9279 42.2634 51.8381 42.1657 51.8262 42.1536C51.8144 42.1423 51.7394 42.1306 51.7394 42.1306C51.7394 42.1306 51.748 42.1698 51.7555 42.1851C51.7637 42.2008 51.7394 42.2049 51.7394 42.2049L51.6497 42.1699L51.6654 42.0673C51.6654 42.0673 51.7327 42.0558 51.7441 42.0558C51.7555 42.0558 51.7395 41.8995 51.7395 41.8995C51.7395 41.8995 51.7637 41.6221 51.7716 41.6142C51.7794 41.6061 51.7597 41.3326 51.7284 41.321C51.6974 41.3093 51.7284 41.2194 51.7442 41.2154C51.7597 41.2113 51.9122 41.1568 51.9122 41.1568L51.9979 40.9886C51.9979 40.9886 52.1509 40.8827 52.1625 40.8749C52.174 40.867 52.3499 40.6797 52.3499 40.6558C52.3499 40.6327 52.3699 40.574 52.4166 40.5657C52.4636 40.5583 52.5499 40.4957 52.5499 40.4957V40.3664C52.5499 40.3664 52.5654 40.3039 52.6006 40.2884C52.6354 40.2727 52.7256 40.2608 52.7256 40.2608C52.7256 40.2608 52.7454 40.3118 52.7334 40.3194C52.7215 40.3275 52.9327 40.2608 52.9327 40.2608C52.9327 40.2608 53.0265 40.2608 53.0422 40.2571C53.0582 40.2529 53.1051 40.1829 53.1051 40.1829C53.1051 40.1829 53.085 40.12 53.1122 40.1355C53.1401 40.1517 53.2067 40.2219 53.199 40.2337C53.1907 40.2449 53.2378 40.3233 53.2264 40.3546C53.2143 40.3858 53.4062 40.5975 53.4062 40.5975C53.4062 40.5975 53.4997 40.5542 53.4921 40.5855C53.484 40.6167 53.4649 40.7148 53.4649 40.7148C53.4649 40.7148 53.5236 40.7537 53.5468 40.7577C53.5704 40.7616 53.6369 40.8906 53.6369 40.8906C53.6369 40.8906 53.6211 41.0076 53.6211 41.0233C53.6211 41.039 53.6296 41.1526 53.625 41.1723C53.6211 41.1917 53.7853 41.2275 53.7853 41.2275C53.7853 41.2275 53.9151 41.121 53.923 41.109L53.9231 41.109ZM42.3263 35.2971L42.4556 35.1875L42.4832 35.0818C42.4832 35.0818 42.6042 35.1015 42.6078 35.1171C42.6116 35.1326 42.6395 35.0818 42.6702 35.1094C42.7018 35.1367 42.741 35.1325 42.745 35.1561C42.7485 35.1797 42.7722 35.2071 42.7761 35.1914C42.7799 35.1757 42.7799 35.1249 42.7799 35.1249C42.7799 35.1249 42.745 35.1055 42.7252 35.0933C42.7055 35.0817 42.7096 35.0464 42.7292 35.0351C42.7485 35.0235 42.8033 34.9916 42.8191 35.0035C42.8348 35.0149 42.9053 34.9879 42.9053 34.9879C42.9053 34.9879 42.917 34.9641 42.9246 34.9529C42.9328 34.9407 42.9719 34.8353 42.9719 34.8353C42.9719 34.8353 42.944 34.8237 42.9363 34.7883C42.9285 34.7533 42.9795 34.6515 42.9915 34.6478C43.0027 34.6438 43.1559 34.5536 43.1559 34.5536C43.1559 34.5536 43.2144 34.4909 43.1909 34.4716C43.1673 34.4518 42.9914 34.3659 42.9914 34.3464C42.9914 34.3268 42.9719 34.2251 42.9833 34.1862C42.9951 34.1472 43.0657 34.0726 43.0773 34.0569C43.0892 34.0417 43.1752 33.9359 43.1909 33.9395C43.2066 33.9437 43.2652 33.9316 43.2805 33.9241C43.2965 33.916 43.433 33.8535 43.4096 33.8497C43.3862 33.8458 43.4175 33.7755 43.4056 33.7793C43.3939 33.7831 43.4175 33.6895 43.4449 33.6817C43.4721 33.674 43.519 33.6387 43.5312 33.6387C43.5422 33.6387 43.6368 33.6426 43.6602 33.6465C43.6835 33.6504 43.7656 33.6114 43.7773 33.6465C43.789 33.6816 43.82 33.6895 43.793 33.7012C43.7656 33.7129 43.7031 33.7677 43.6639 33.8027C43.625 33.8377 43.5074 33.9165 43.4917 33.92C43.4764 33.9241 43.4678 33.9317 43.4368 33.9515C43.4056 33.9707 43.4056 33.9242 43.3981 33.9983C43.3899 34.0727 43.3786 34.1547 43.3939 34.1824C43.4096 34.2097 43.4211 34.2527 43.4056 34.2723C43.39 34.292 43.4015 34.3036 43.4056 34.3388C43.4096 34.3739 43.4573 34.3895 43.4606 34.4052C43.4643 34.4208 43.5268 34.452 43.5268 34.452C43.558 34.4485 43.5941 34.4444 43.6012 34.4602C43.6094 34.4758 43.6251 34.468 43.6251 34.468L43.691 34.452C43.691 34.452 43.7579 34.4129 43.7814 34.4169C43.8048 34.4208 43.8359 34.4091 43.8633 34.4169C43.8907 34.4247 44.0078 34.3856 44.0239 34.3895C44.0395 34.3938 44.1487 34.3466 44.1568 34.3623C44.1646 34.3779 44.2234 34.3739 44.2234 34.3739L44.2704 34.4091C44.2704 34.4325 44.2234 34.4872 44.2119 34.4953C44.2 34.503 44.161 34.5347 44.1376 34.5265C44.1142 34.519 44.0981 34.5305 44.0669 34.519C44.0355 34.507 43.9768 34.4911 43.961 34.4911C43.9454 34.4911 43.762 34.5347 43.762 34.5347L43.6684 34.5618L43.6522 34.6168L43.6641 34.6285L43.758 34.687C43.758 34.7067 43.7973 34.6948 43.7892 34.7418C43.7815 34.7886 43.7775 34.8081 43.7658 34.8315C43.7538 34.8551 43.7071 34.8981 43.6954 34.8706C43.6837 34.8433 43.6253 34.7924 43.6095 34.7807C43.5942 34.7691 43.5472 34.7768 43.5192 34.7768C43.492 34.7768 43.4371 34.816 43.4371 34.859C43.4371 34.9019 43.4099 34.9572 43.4214 34.9995C43.4332 35.0431 43.4843 35.0979 43.4609 35.1251C43.4371 35.1526 43.3827 35.1721 43.3593 35.1837C43.3359 35.1955 43.2808 35.2346 43.2614 35.2423C43.2419 35.2501 43.1832 35.2736 43.1713 35.2463C43.1598 35.2188 43.1362 35.1759 43.1362 35.1759C43.1362 35.1759 43.1167 35.137 43.1085 35.1487C43.1016 35.16 43.0579 35.1644 43.0579 35.1644L42.9566 35.2034C42.9566 35.2034 42.9014 35.2423 42.89 35.2502C42.8779 35.2579 42.8194 35.2579 42.7959 35.2696C42.7725 35.2815 42.702 35.3401 42.6827 35.3127C42.6628 35.2855 42.6516 35.3323 42.6274 35.2893C42.6045 35.2464 42.612 35.1993 42.5844 35.2074C42.5574 35.2152 42.4944 35.2307 42.487 35.2464C42.4788 35.262 42.4711 35.262 42.456 35.2776C42.4402 35.2931 42.3266 35.3049 42.3266 35.3049V35.2971L42.3263 35.2971ZM45.5669 38.1933C45.5376 38.2697 45.5376 38.3692 45.4963 38.4456C45.4551 38.5215 45.4375 38.5626 45.4083 38.6101C45.3789 38.6564 45.3789 38.7212 45.3321 38.7505C45.2853 38.7801 45.215 38.821 45.1738 38.7917C45.1331 38.7623 44.9686 38.7683 44.9506 38.7742C44.9332 38.78 44.734 38.7683 44.7103 38.809C44.6869 38.8503 44.5349 38.821 44.5107 38.809C44.4873 38.7974 44.2 38.6799 44.1766 38.6743C44.1533 38.6685 44.006 38.6041 43.9823 38.5865C43.959 38.5687 43.8126 38.5509 43.8069 38.5334C43.8009 38.5157 43.8185 38.4924 43.7947 38.4982C43.7717 38.5036 43.6013 38.5569 43.5779 38.574C43.554 38.5923 43.502 38.6391 43.502 38.6391C43.502 38.6391 43.431 38.7095 43.4369 38.7622C43.4432 38.815 43.5075 38.856 43.4841 38.8853C43.4607 38.9146 43.3787 38.9497 43.3787 38.9497C43.3787 38.9497 43.2901 38.8677 43.2612 38.856C43.2319 38.8443 42.9564 38.8033 42.9564 38.8033L42.8449 38.6743C42.8449 38.6743 42.6689 38.5569 42.6513 38.551C42.6335 38.5452 42.44 38.551 42.4103 38.5276C42.3809 38.5037 42.2871 38.3808 42.2404 38.3868C42.1933 38.3926 42.2111 38.3164 42.2287 38.3047C42.2461 38.293 42.299 38.1933 42.2932 38.1757C42.2871 38.1579 42.3224 38.0585 42.2639 38.0293C42.2053 37.9992 42.2461 37.8996 42.2461 37.8996C42.2461 37.8996 42.305 37.8879 42.2815 37.8879C42.258 37.8879 42.1701 37.8938 42.1464 37.8645C42.1233 37.8352 42.1167 37.8236 42.094 37.8352C42.07 37.8471 41.9233 37.8704 41.9059 37.8645C41.8882 37.8587 41.7476 37.8762 41.7242 37.8762C41.7008 37.8762 41.7301 37.8822 41.7008 37.8762C41.6711 37.8703 41.5536 37.9234 41.5479 37.9465C41.5426 37.97 41.4251 37.9411 41.4073 37.9465C41.3895 37.9524 41.2195 37.9524 41.2195 37.9524L40.9377 37.9993C40.9377 37.9993 40.75 38.0938 40.7443 38.1231C40.7383 38.1524 40.6796 38.1994 40.6622 38.2107C40.6448 38.2226 40.5392 38.2107 40.5328 38.1933C40.5272 38.1757 40.3392 38.1994 40.3392 38.1994C40.3392 38.1994 40.2631 38.158 40.2397 38.1758C40.2163 38.1934 40.2163 38.0993 40.2163 38.0993L40.2456 38.0295L40.351 37.9589L40.6036 37.9116L40.7269 37.8298L40.8028 37.8004L40.8495 37.6774C40.8495 37.6774 40.9376 37.6598 40.9317 37.6419C40.9259 37.6244 40.9028 37.5422 40.9028 37.5422L41.0726 37.2783L41.3131 37.1609L41.3542 37.0787C41.3542 37.0787 41.3311 36.9733 41.3484 36.9554C41.3659 36.9377 41.5244 36.9025 41.5244 36.9025L41.724 36.9671C41.724 36.9671 41.8295 36.8969 41.8528 36.8851C41.8762 36.8732 41.9879 36.8089 41.9879 36.8089C41.9879 36.8089 41.9993 36.7562 42.0229 36.762C42.0464 36.7678 42.1461 36.7444 42.1581 36.7913C42.1698 36.8383 42.2578 36.9851 42.2578 36.9851L42.3926 37.126L42.5219 37.2257L42.6804 37.2841C42.6804 37.2841 42.774 37.3663 42.7915 37.3722C42.8091 37.3779 42.897 37.478 42.897 37.478L42.9438 37.5598C42.9438 37.5598 42.9146 37.6246 42.8912 37.654C42.8678 37.683 42.7974 37.7596 42.7797 37.7533C42.7621 37.7479 42.6268 37.7244 42.6268 37.7244L42.4803 37.7419C42.4803 37.7419 42.4573 37.7771 42.4982 37.8064C42.5393 37.8357 42.5861 37.83 42.6269 37.8533C42.6687 37.8767 42.7741 37.9239 42.7741 37.9239C42.7741 37.9239 42.8447 37.9353 42.8447 37.9528C42.8447 37.9705 42.8679 37.9059 42.862 37.8649C42.8562 37.824 42.8501 37.7714 42.8913 37.7595C42.9326 37.7478 42.9968 37.7595 42.9968 37.7417C42.9968 37.7242 43.0148 37.7005 43.0148 37.7005L43.0675 37.6364L43.0616 37.5955L43.1147 37.5538C43.1147 37.5538 43.0855 37.5193 43.0616 37.4895C43.0384 37.4601 43.0148 37.4425 43.0318 37.4132C43.0497 37.384 43.1082 37.3428 43.1381 37.3663C43.1673 37.3897 43.2551 37.4014 43.2492 37.4309C43.2436 37.46 43.2492 37.5009 43.2611 37.4779C43.2724 37.4542 43.267 37.3603 43.267 37.3603C43.267 37.3603 43.22 37.296 43.1789 37.2901C43.1382 37.284 43.0318 37.2314 43.0027 37.2197C42.9736 37.2079 42.9209 37.1788 42.9209 37.1788C42.9209 37.1788 42.9441 37.1143 42.9094 37.1202C42.8739 37.126 42.7684 37.1081 42.7684 37.0908C42.7684 37.0728 42.6627 36.9906 42.6573 36.9734C42.6514 36.9554 42.5572 36.8265 42.5572 36.8265C42.5572 36.8265 42.5041 36.7738 42.4985 36.7562C42.4924 36.7385 42.4868 36.7091 42.475 36.6624C42.463 36.6155 42.5922 36.4981 42.5864 36.5156C42.5804 36.5329 42.6159 36.5567 42.6396 36.6094C42.6627 36.6624 42.7567 36.7503 42.7684 36.7854C42.78 36.8205 42.9094 36.9206 42.9383 36.9319C42.9682 36.9435 42.9851 36.9791 43.0441 37.0024C43.103 37.026 43.0973 37.0373 43.1734 37.0727C43.2493 37.108 43.2613 37.1201 43.2725 37.1373C43.2847 37.1551 43.3313 37.1493 43.3492 37.1786C43.3667 37.2078 43.3902 37.2137 43.3902 37.243C43.3902 37.2722 43.414 37.2722 43.4017 37.3309C43.3902 37.3895 43.3727 37.4071 43.3787 37.4188C43.3846 37.4307 43.4902 37.6479 43.5314 37.6479C43.5723 37.6479 43.6953 37.6949 43.6778 37.765C43.6603 37.8353 43.7539 37.9293 43.7539 37.9293C43.7539 37.9293 43.8323 37.9343 43.8865 37.9433C43.8888 37.9023 43.8801 37.8367 43.9246 37.8118C43.9768 37.7825 44.0532 37.7529 44.0413 37.7239C44.0294 37.6947 44.0177 37.6417 43.9709 37.6067C43.9246 37.5716 43.8771 37.5534 43.8654 37.4953C43.8539 37.4365 43.836 37.3599 43.8888 37.3836C43.9415 37.4069 43.9885 37.5189 44.0125 37.4421C44.0356 37.366 44.0941 37.3131 44.135 37.3308C44.1766 37.3484 44.2528 37.3776 44.247 37.4011C44.241 37.4246 44.2997 37.6126 44.2997 37.6126C44.2997 37.6126 44.3231 37.6304 44.3347 37.7181C44.3464 37.8059 44.4226 37.8295 44.4111 37.8588C44.3993 37.8879 44.3639 37.9055 44.4582 37.9175C44.5515 37.9293 44.64 37.9466 44.64 37.9701C44.64 37.9937 44.7162 38.0058 44.728 38.0231C44.7395 38.0408 44.8099 38.0758 44.8218 38.0408C44.8334 38.0059 44.857 37.9349 44.8746 37.9467C44.8922 37.9589 45.0388 37.9589 45.0506 38.006C45.0628 38.0523 45.1623 38.0523 45.1623 38.0648C45.1623 38.076 45.2503 38.0354 45.2503 38.0354C45.2503 38.0354 45.3733 37.9413 45.4085 37.9589C45.4436 37.9765 45.543 37.894 45.5314 37.9703C45.5199 38.0466 45.5964 38.1172 45.5669 38.1933ZM46.1534 37.1607C46.1361 37.1785 46.0243 37.2897 46.0243 37.2897L45.8013 37.2603H45.6489L45.5199 37.2136C45.5199 37.2136 45.4317 37.1843 45.4142 37.1665C45.3963 37.1489 45.2853 37.1077 45.2853 37.1077L45.0504 37.1606L44.8684 37.2136L44.8043 37.272L44.5871 37.2193L44.4581 37.1549L44.3874 37.0784H44.452L44.429 36.9847L44.4403 36.9203L44.4987 36.8848L44.54 36.7148L44.6106 36.6855L44.628 36.5977C44.628 36.5977 44.6868 36.5446 44.7046 36.527C44.7222 36.5096 44.7808 36.4272 44.7808 36.4272L44.9212 36.486C44.9212 36.486 45.0679 36.5037 45.0445 36.5097C45.0207 36.5154 44.9505 36.5978 44.9505 36.5978C44.9505 36.5978 45.0033 36.6267 45.0275 36.6446C45.0504 36.6622 45.1035 36.6913 45.0917 36.7267C45.0798 36.7618 45.1796 36.756 45.1796 36.756L45.2149 36.6974L45.3789 36.6564L45.4376 36.6268L45.3436 36.5979C45.3436 36.5979 45.2615 36.5683 45.2734 36.5506C45.2853 36.5328 45.3614 36.4156 45.3614 36.4156C45.3614 36.4156 45.5551 36.3571 45.5725 36.3571C45.5897 36.3571 45.7078 36.3337 45.7078 36.3337C45.7078 36.3337 45.6139 36.4274 45.6019 36.4452C45.5897 36.463 45.608 36.5212 45.5785 36.545C45.5494 36.5683 45.5078 36.5921 45.4905 36.5981C45.4725 36.6035 45.4843 36.6624 45.502 36.6684C45.5201 36.6744 45.5785 36.6977 45.5785 36.6977L45.8367 36.8324L45.995 36.9907L46.1186 37.0909C46.1186 37.0905 46.1709 37.1433 46.1534 37.1607ZM47.6439 37.9349L47.4966 37.9524C47.4966 37.9524 47.3678 37.8996 47.3623 37.8763C47.3559 37.853 47.3267 37.8001 47.309 37.8118C47.2916 37.8237 47.2329 37.8295 47.2155 37.8237C47.198 37.8177 47.1329 37.765 47.1329 37.7415C47.1329 37.7182 47.115 37.6655 47.1446 37.6418C47.1742 37.6184 47.2328 37.5775 47.221 37.5595C47.2097 37.5421 47.2032 37.4664 47.2032 37.454C47.2032 37.4422 47.2032 37.4307 47.2387 37.4248C47.2738 37.4188 47.2738 37.4188 47.2738 37.4188C47.2738 37.4188 47.2855 37.3838 47.2678 37.3661C47.2503 37.3485 47.1444 37.2722 47.1327 37.2547C47.1217 37.2372 46.9919 37.1141 46.9744 37.0959C46.957 37.0787 46.8807 37.026 46.8807 37.026L46.8396 36.9377L46.8747 36.8264L46.7694 36.8029L46.746 36.7269V36.7092L46.8571 36.5803C46.8571 36.5803 46.9337 36.5394 46.9511 36.5506C46.9686 36.5628 47.0095 36.5155 47.0163 36.498C47.0214 36.48 47.1328 36.4038 47.1567 36.3921C47.1799 36.3805 47.2209 36.3277 47.2446 36.3571C47.2678 36.3862 47.4144 36.4334 47.4144 36.4334C47.4144 36.4334 47.4676 36.445 47.4612 36.4682C47.4555 36.4921 47.4085 36.6447 47.4085 36.6447C47.4085 36.6447 47.3033 36.6153 47.2916 36.6212C47.2802 36.6268 47.198 36.6564 47.2155 36.7033C47.233 36.7502 47.1511 36.7209 47.1568 36.7443C47.1623 36.7676 47.1742 36.8028 47.192 36.8146C47.2097 36.8263 47.309 36.879 47.3208 36.9143C47.3323 36.9497 47.4965 37.0553 47.4965 37.0553C47.4965 37.0553 47.5143 37.0669 47.5084 37.0907C47.5029 37.1141 47.4908 37.2372 47.5084 37.2372C47.526 37.2372 47.5668 37.2312 47.5668 37.2312C47.5668 37.2312 47.6201 37.12 47.6378 37.1318C47.6553 37.1434 47.7258 37.1961 47.7433 37.2371C47.7605 37.2782 47.7961 37.319 47.7784 37.3308C47.7604 37.3424 47.6785 37.3367 47.6552 37.3367C47.6321 37.3367 47.5906 37.3073 47.5789 37.319C47.5668 37.3308 47.5438 37.3601 47.5612 37.3951C47.5789 37.4307 47.6143 37.4833 47.6321 37.4954C47.6494 37.5068 47.6668 37.5007 47.72 37.5482C47.7727 37.5951 47.7902 37.6183 47.7727 37.6712C47.755 37.7239 47.7667 37.771 47.7727 37.7884C47.7785 37.8059 47.7902 37.847 47.8022 37.8646C47.8136 37.8822 47.8136 37.9055 47.8136 37.9055L47.6439 37.9349ZM45.5273 33.2438C45.5252 33.243 45.523 33.243 45.5222 33.243C45.5203 33.2438 45.5222 33.2438 45.5273 33.2438ZM59.7822 34.4596C59.7822 34.4587 59.7822 34.4571 59.7807 34.4559C59.7817 34.46 59.7817 34.4619 59.7822 34.4596ZM49.2031 32.4802C49.2031 32.4802 49.2056 32.4796 49.2102 32.4774C49.2062 32.4737 49.2035 32.471 49.2031 32.4692C49.1992 32.4532 49.2031 32.4802 49.2031 32.4802ZM47.5408 45.5826C47.5408 45.5826 47.4153 45.7238 47.4079 45.7476C47.3996 45.7707 47.2984 45.8958 47.2822 45.9348C47.2665 45.9739 47.1418 46.0598 47.1418 46.0598L46.9148 46.1538C46.9148 46.1538 46.8368 46.1616 46.8601 46.1934C46.8833 46.2251 46.8444 46.2555 46.79 46.3261C46.735 46.3963 46.79 46.4901 46.79 46.4901L46.8209 46.6465V46.7954C46.8209 46.7954 46.7738 46.9596 46.7505 46.9673C46.7273 46.9753 46.6881 47.0222 46.6648 47.1005C46.641 47.1786 46.649 47.2334 46.649 47.2334C46.649 47.2334 46.6648 47.3507 46.641 47.3744C46.6171 47.3977 46.6801 47.5149 46.7039 47.5545C46.7273 47.5932 46.79 47.6166 46.79 47.6166C46.79 47.6166 46.8443 47.6637 46.868 47.6792C46.8914 47.6949 47.0086 47.6485 47.0086 47.6485C47.0086 47.6485 47.0949 47.6094 47.1181 47.5934C47.1417 47.5774 47.1575 47.5701 47.204 47.4918C47.2512 47.4135 47.22 47.4369 47.2274 47.4135C47.2357 47.3902 47.2821 47.2882 47.3059 47.1553C47.3293 47.0223 47.3374 47.0301 47.3685 46.9129C47.3995 46.7954 47.4387 46.7639 47.4465 46.6706C47.4544 46.5766 47.4621 46.5372 47.4697 46.5057C47.4778 46.4747 47.5563 46.3574 47.5638 46.279C47.5714 46.2011 47.5714 46.1617 47.5563 46.1307C47.5408 46.099 47.6502 46.1224 47.6655 46.0755C47.6815 46.0285 47.6655 46.0755 47.6736 46.0525C47.6815 46.0286 47.6896 45.8802 47.6896 45.7943C47.6896 45.7083 47.6034 45.5748 47.5948 45.5518C47.5876 45.5282 47.5408 45.5826 47.5408 45.5826ZM55.3551 44.4486C55.379 44.3861 55.3551 44.3782 55.3397 44.347C55.3242 44.3158 55.3707 44.1752 55.4335 44.1202C55.496 44.0653 55.4023 44.0572 55.4023 44.0572L55.3084 44.0729L55.2223 43.9087C55.2223 43.9087 55.0736 43.7917 55.0269 43.7602C54.9799 43.7292 55.0968 43.6662 55.0968 43.6662C55.0968 43.6662 54.8315 43.416 54.8001 43.416C54.7689 43.416 54.612 43.291 54.5887 43.2828C54.5653 43.2752 54.4402 43.0638 54.4402 43.0638L53.908 42.798C53.908 42.798 53.8378 42.8609 53.8378 42.8918C53.8378 42.9231 53.9318 42.9388 53.9318 42.9388C53.9318 42.9388 53.9628 42.9621 53.9941 42.9779C54.0254 42.9936 54.1191 43.0717 54.1271 43.1268C54.1347 43.1813 54.1507 43.2127 54.2053 43.2593C54.2604 43.3064 54.3538 43.3302 54.3538 43.3302C54.3538 43.3302 54.3934 43.463 54.4247 43.4787C54.4557 43.4944 54.4794 43.5645 54.4946 43.6039C54.5104 43.643 54.6593 43.8854 54.6508 43.9714C54.6434 44.0575 54.761 44.2611 54.761 44.2611C54.761 44.2611 55.027 44.472 55.0348 44.5035C55.0425 44.5345 55.2374 44.5895 55.2374 44.5895C55.2374 44.5895 55.3318 44.5111 55.3551 44.4486ZM57.17 42.8449C57.17 42.8137 57.0839 42.7434 57.0603 42.7119C57.0369 42.6804 56.8963 42.5553 56.8651 42.532C56.834 42.5086 56.8651 42.532 56.8182 42.6184C56.7714 42.7043 56.7164 42.8059 56.6927 42.8136C56.6692 42.8214 56.4975 42.9308 56.4503 42.9855C56.4035 43.0402 56.3099 43.1812 56.2787 43.1583C56.2475 43.1344 56.1138 43.2592 56.1138 43.2592L56.0436 43.4314L55.8245 43.3847L55.84 43.4553C55.84 43.4553 55.77 43.5643 55.7857 43.5883C55.8014 43.6117 55.7857 43.6979 55.809 43.7444C55.8322 43.7917 55.8559 43.8228 55.895 43.8541C55.934 43.8853 55.9418 43.987 55.9183 44.0653C55.8949 44.1435 55.9498 44.159 55.9809 44.1908C56.0121 44.2218 56.0824 44.2298 56.1138 44.206C56.1451 44.1824 56.2078 44.175 56.2474 44.1984C56.2857 44.2218 56.388 44.2218 56.419 44.261C56.4502 44.3 56.5755 44.2765 56.5987 44.3C56.6225 44.3234 56.7476 44.2765 56.7787 44.2448C56.8096 44.2141 56.7787 44.1517 56.7787 44.0496C56.7787 43.9479 56.7944 43.9558 56.8495 43.9166C56.9042 43.8775 56.9432 43.8462 56.9509 43.7918C56.959 43.7367 56.9746 43.643 56.9746 43.5959C56.9746 43.5489 57.0997 43.5569 57.1229 43.5411C57.1471 43.5254 57.1072 43.4943 57.1072 43.4709C57.1072 43.4472 57.0056 43.3379 56.9824 43.2987C56.959 43.2593 57.0213 43.0638 57.0602 43.0326C57.0998 43.0013 57.17 42.8762 57.17 42.8449ZM56.0749 44.9491C56.0982 44.9569 56.1529 44.9569 56.2698 44.9881C56.3879 45.0194 56.4973 45.0274 56.5128 45.0585C56.5285 45.0896 56.6297 45.0585 56.6772 45.0509C56.7241 45.0428 56.8339 44.9411 56.9041 45.0195C56.9746 45.0977 57.1151 45.0428 57.1387 45.0585C57.1621 45.0738 57.2331 45.0195 57.3186 45.0275C57.4048 45.035 57.4127 45.0585 57.436 45.0585C57.4594 45.0585 57.5376 45.0821 57.5768 45.0738C57.616 45.0662 57.6627 45.0194 57.7332 45.0274C57.804 45.0349 57.9912 44.9722 57.9912 44.9722C57.9912 44.9722 57.9912 44.9802 57.9448 45.0114C57.8976 45.0426 57.7411 45.1598 57.7411 45.1598C57.7411 45.1598 57.7175 45.1444 57.7096 45.1915C57.702 45.2383 57.6552 45.3324 57.702 45.2928C57.7492 45.2542 57.9134 45.1132 57.9526 45.082C57.9913 45.0508 58.007 45.0349 58.0462 45.0114C58.0853 44.988 58.1712 44.9644 58.1712 44.9644L58.2262 44.9253C58.2262 44.9253 58.1791 44.8943 58.1555 44.9019C58.1325 44.9101 58.0929 44.8709 58.0385 44.8943C57.9835 44.9176 57.8352 44.9411 57.8352 44.9411C57.8352 44.9411 57.7412 44.9569 57.6865 44.9335C57.6318 44.9102 57.5689 44.8709 57.5456 44.902C57.5222 44.9335 57.3893 44.9724 57.3654 44.9724C57.3424 44.9724 57.2561 44.9646 57.1936 44.9492C57.1309 44.9336 57.1152 44.9336 57.084 44.9336C57.0528 44.9336 57.0528 44.9103 56.9668 44.9021C56.8805 44.8945 56.8566 44.8711 56.834 44.8788C56.8098 44.8869 56.7715 44.8945 56.7403 44.9103C56.7086 44.9255 56.6144 44.9255 56.5916 44.9021C56.5677 44.8788 56.3329 44.8319 56.3329 44.8319C56.3329 44.8319 56.3018 44.7928 56.3724 44.7694C56.4426 44.746 56.4273 44.746 56.4191 44.7149C56.4114 44.6831 56.2938 44.6831 56.263 44.6915C56.2317 44.6988 56.153 44.7149 56.1218 44.6831C56.0907 44.6524 55.9968 44.5733 55.9657 44.6204C55.9342 44.6675 55.95 44.7302 55.9185 44.7225C55.8875 44.7149 55.6758 44.7381 55.6758 44.7149C55.6758 44.6915 55.6211 44.6286 55.5975 44.6204C55.5742 44.6129 55.582 44.5895 55.543 44.5733C55.5038 44.5585 55.4257 44.5813 55.4257 44.5813L55.3476 44.5895L55.2536 44.6988C55.2536 44.6988 55.4726 44.7225 55.4961 44.7537C55.5195 44.7851 55.6369 44.8787 55.6369 44.8787C55.6369 44.8787 55.793 44.9177 55.8324 44.9255C55.8716 44.9335 56.0516 44.9411 56.0749 44.9491ZM55.8171 40.5609C55.7928 40.5454 55.7308 40.5454 55.7308 40.5454L55.6524 40.5765L55.6134 40.5609L55.527 40.6784C55.527 40.6784 55.5506 40.8112 55.5741 40.8112H55.6836L55.77 40.7487L55.8171 40.6316C55.8171 40.6316 55.84 40.5766 55.8171 40.5609ZM57.0839 40.248L57.1309 40.154C57.1309 40.154 57.1545 40.0601 57.1621 40.0367C57.17 40.0129 57.201 39.9427 57.1781 39.9036C57.1545 39.8645 57.17 39.8099 57.1545 39.7786C57.1387 39.7476 57.1309 39.7004 57.1309 39.7004L57.0527 39.7316C57.0215 39.7628 56.9746 39.9036 56.9746 39.9036C56.9746 39.9036 56.9433 40.0449 56.9667 40.0754C56.99 40.1073 57.0527 40.1931 57.0527 40.1931L57.0839 40.248ZM58.0694 42.6024C58.1398 42.626 58.1634 42.6107 58.1554 42.5786C58.1477 42.5474 58.1241 42.3834 58.1085 42.321C58.0928 42.2585 58.2023 42.2113 58.0852 42.1177C57.968 42.0234 57.9759 42.0318 57.968 42.0234C57.9601 42.0156 57.9601 41.9375 57.9601 41.9375C57.9601 41.9375 57.9834 41.8595 57.968 41.8361C57.9525 41.8127 57.9367 41.7657 57.921 41.7423C57.9053 41.7188 57.9053 41.7111 57.8582 41.7111C57.8114 41.7111 57.8114 41.6562 57.7802 41.6638C57.7492 41.6716 57.6707 41.7341 57.7253 41.6408C57.7802 41.5463 57.7491 41.5308 57.7491 41.5151C57.7491 41.4996 57.7095 41.4762 57.6706 41.4685C57.6317 41.4604 57.6001 41.4136 57.5455 41.4292C57.4908 41.4453 57.4674 41.406 57.436 41.406C57.4048 41.406 57.3892 41.3666 57.3815 41.3201C57.3735 41.2731 57.3892 41.1791 57.3892 41.1558C57.3892 41.1321 57.436 41.0618 57.436 41.0618C57.436 41.0618 57.4517 41.0301 57.436 40.9757C57.4205 40.9211 57.3892 40.8271 57.3892 40.7881C57.3892 40.749 57.3028 40.7098 57.3028 40.7098L57.201 40.7489L57.1621 41.0932C57.1621 41.0932 57.0918 41.1164 57.0998 41.1476C57.1072 41.1791 57.1072 41.3278 57.1466 41.359C57.1854 41.3899 57.2484 41.4292 57.2484 41.4292C57.2637 41.4685 57.2252 41.5463 57.2252 41.5463C57.2252 41.5463 57.3186 41.6563 57.3269 41.6877C57.3344 41.7187 57.3816 41.7029 57.3816 41.7029C57.3816 41.7029 57.3583 41.4918 57.4048 41.5307C57.4518 41.57 57.5768 41.5626 57.5845 41.6092C57.5926 41.6562 57.6785 41.7029 57.6938 41.7502C57.7095 41.7971 57.8114 41.8128 57.8039 41.8515C57.7959 41.8908 57.7331 41.8908 57.6938 41.8985C57.6551 41.9064 57.5298 41.8128 57.5298 41.8128C57.5298 41.8128 57.4986 41.805 57.4909 41.8516C57.4832 41.8986 57.5064 42.0158 57.5377 42.0548C57.5688 42.0942 57.6003 42.0548 57.6161 42.0782C57.6318 42.1021 57.6161 42.1568 57.6397 42.1882C57.6627 42.2194 57.7254 42.2271 57.7491 42.2114C57.7725 42.196 57.8508 42.1567 57.8508 42.1567C57.8508 42.1567 57.8425 42.0629 57.8115 42.0469C57.7803 42.0314 57.7332 41.9844 57.757 41.9613C57.7802 41.9376 57.827 41.8908 57.8508 41.8984C57.8737 41.9063 57.9291 42.008 57.921 42.0314C57.9134 42.0547 57.921 42.0629 57.9525 42.1486C57.9834 42.2352 57.9993 42.2194 57.9601 42.2352C57.921 42.2504 57.882 42.2978 57.8582 42.3133C57.8531 42.3169 57.8523 42.3192 57.8531 42.3206C57.8474 42.3188 57.8324 42.316 57.7959 42.3133C57.6938 42.3054 57.7175 42.2586 57.6938 42.3054C57.6707 42.3523 57.647 42.3913 57.647 42.3913L57.5926 42.4147C57.5926 42.4147 57.5532 42.5397 57.5611 42.5787L57.5687 42.6184C57.5687 42.6184 57.647 42.4695 57.6706 42.4695C57.6937 42.4695 57.6937 42.5086 57.7253 42.485C57.7569 42.4616 57.7883 42.4776 57.7883 42.4776C57.7883 42.4776 57.8351 42.4538 57.8271 42.5161C57.8199 42.5787 57.8199 42.5865 57.8426 42.6499C57.8666 42.712 57.9292 42.7435 57.9525 42.7668C57.9759 42.7902 58.0069 42.8059 58.0227 42.8215C58.0385 42.837 58.0461 42.7511 58.0385 42.6886C58.0303 42.626 57.9992 42.5786 58.0694 42.6024ZM57.5221 43.5489C57.6087 43.596 57.6627 43.6196 57.7331 43.643C57.8039 43.6664 57.8738 43.596 57.8897 43.6119C57.9052 43.6273 57.9759 43.5569 57.9759 43.5569C57.9759 43.5569 58.0303 43.4786 58.0227 43.4554C58.0149 43.4315 58.0069 43.3613 57.9912 43.3848C57.976 43.408 57.827 43.4943 57.796 43.5019C57.765 43.5097 57.6865 43.4786 57.6161 43.4786C57.5456 43.4786 57.3736 43.4237 57.3497 43.4472C57.327 43.471 57.2561 43.5644 57.2638 43.6039C57.2719 43.643 57.2638 43.6664 57.2638 43.6902C57.2638 43.7136 57.2404 43.823 57.2404 43.7918L57.131 44.0807C57.131 44.0807 57.2169 44.3002 57.2094 44.3393C57.2012 44.3782 57.1856 44.5976 57.2094 44.5737C57.2332 44.55 57.3498 44.5346 57.3498 44.5346C57.3498 44.5346 57.3894 44.3938 57.3817 44.3314C57.3737 44.2688 57.303 44.0732 57.3655 44.0889C57.4286 44.1046 57.491 44.1826 57.491 44.1826C57.491 44.1826 57.4439 44.2301 57.4596 44.2612C57.4753 44.2923 57.53 44.3314 57.5223 44.4018C57.5145 44.4722 57.5457 44.5036 57.5457 44.4798C57.5457 44.4565 57.6241 44.4956 57.6319 44.5113C57.6386 44.5253 57.7126 44.4598 57.7241 44.4604C57.7251 44.437 57.7367 44.3411 57.7176 44.3158C57.6939 44.2845 57.6939 44.2377 57.6397 44.1752C57.5845 44.1119 57.6552 44.0968 57.6004 44.0258C57.5457 43.9559 57.5223 43.9793 57.5457 43.9559C57.5688 43.9322 57.6162 43.9167 57.6552 43.8933C57.6939 43.8697 57.7254 43.8073 57.7254 43.8073C57.7333 43.784 57.7492 43.7918 57.6866 43.7761C57.624 43.7604 57.5689 43.7445 57.5299 43.7918C57.4911 43.8385 57.4519 43.8463 57.4519 43.8463L57.4207 43.8542C57.3894 43.862 57.3971 43.8073 57.3736 43.7995C57.3498 43.7918 57.3498 43.784 57.3346 43.7293C57.3187 43.6744 57.3346 43.5883 57.3583 43.5723C57.3815 43.5569 57.436 43.5019 57.5221 43.5489ZM57.7253 44.4641C57.7263 44.4615 57.7253 44.4605 57.7239 44.4603C57.7239 44.4656 57.7239 44.4687 57.7253 44.4641ZM60.7915 44.4641C60.784 44.4171 60.7758 44.3625 60.753 44.3235C60.729 44.2845 60.2203 44.0181 60.1578 43.9947C60.0952 43.9713 59.7675 43.8696 59.7675 43.8696C59.7675 43.8696 59.6105 43.9322 59.6105 43.9558C59.6105 43.9792 59.5321 44.0653 59.5007 44.0968C59.4698 44.1278 59.4774 44.1592 59.4306 44.1515C59.3835 44.1437 59.3761 44.1515 59.3519 44.1279C59.3292 44.1046 59.3053 44.0258 59.2741 44.0028C59.2426 43.9794 59.1802 43.9481 59.1954 43.8855C59.2115 43.823 59.2344 43.7371 59.1877 43.7371C59.141 43.7371 59.0707 43.7686 59.0549 43.7445C59.0392 43.7215 58.9457 43.7294 58.9457 43.7294L58.7504 43.7841L58.7261 43.7919C58.7261 43.7919 58.8125 43.956 58.8676 43.9402C58.9223 43.9248 59.0237 44.0498 59.0237 44.0498C59.0237 44.0498 58.9927 44.1204 59.0082 44.1438C59.0237 44.1671 59.0865 44.2847 59.0865 44.2847L59.2114 44.2768L59.3365 44.3315L59.6731 44.441L59.7674 44.5501L59.8221 44.7853C59.8221 44.7853 59.6809 44.8789 59.6889 44.9181C59.6966 44.9573 59.8689 44.9105 59.8689 44.9105L60.0095 44.9807L60.1812 45.0666L60.3772 45.0742L60.4942 44.9415C60.4942 44.9415 60.666 44.793 60.666 44.8243C60.666 44.8556 60.8228 44.9181 60.8464 44.9886C60.8703 45.059 61.0108 45.1845 61.0108 45.1845C61.0108 45.1845 61.206 45.247 61.2296 45.2549C61.2528 45.2621 61.308 45.2704 61.363 45.2859C61.4177 45.3015 61.3079 45.1448 61.3079 45.1448C61.3079 45.1448 61.1356 45.0432 61.1279 45.004C61.1203 44.9648 60.9795 44.8479 60.9873 44.8087C60.995 44.7696 60.9243 44.7228 60.956 44.7228C60.9873 44.7228 61.1122 44.7073 61.0967 44.6833C61.0812 44.6603 60.9951 44.5114 60.956 44.5114C60.917 44.5111 60.7998 44.5111 60.7915 44.4641ZM61.0577 47.108C61.0577 47.108 60.9718 47.0692 60.9639 47.0848C60.9562 47.1005 60.9246 46.9362 60.9246 46.9362L60.9403 46.8502C60.9403 46.8502 60.7053 46.5526 60.6981 46.5765C60.6896 46.5999 60.6117 46.334 60.6117 46.334L60.5885 46.0446L60.5337 45.8724L60.3931 45.8881L60.3616 45.6063L60.2829 45.3404L60.2442 45.3249L60.1659 45.5045C60.1659 45.5045 60.1268 45.7551 60.111 45.8411C60.0953 45.9271 60.0876 46.0524 60.0408 46.1307C59.9937 46.209 59.8841 46.3963 59.8841 46.3963C59.8841 46.3963 59.759 46.3963 59.7431 46.3729C59.7276 46.3496 59.587 46.279 59.587 46.279L59.5006 46.1461L59.3603 46.0368C59.3603 46.0368 59.2657 45.9192 59.2582 45.9271C59.2506 45.9348 59.3291 45.8178 59.3518 45.802C59.376 45.7865 59.3833 45.7084 59.3833 45.7084L59.5085 45.6064C59.5085 45.6064 59.532 45.5672 59.5085 45.544C59.4849 45.5204 59.4849 45.4812 59.4538 45.4731C59.4224 45.4655 59.2424 45.5519 59.2424 45.5519L59.0939 45.4812C59.0939 45.4812 58.9842 45.4263 58.9612 45.3872C58.9376 45.3483 58.8748 45.3249 58.8593 45.3404C58.8435 45.3561 58.8593 45.4342 58.8593 45.4342C58.8593 45.4342 58.8914 45.5031 58.9027 45.5246C58.8883 45.5124 58.8358 45.5518 58.8358 45.5518L58.6871 45.567L58.5931 45.653L58.5227 45.7863L58.4759 45.8801C58.4759 45.8801 58.5148 45.9427 58.4993 45.9347C58.4836 45.927 58.2723 45.9896 58.2723 45.9896C58.2723 45.9896 58.2172 45.8724 58.1938 45.8489C58.1705 45.8252 58.1003 45.7863 58.0688 45.7863C58.0378 45.7863 57.9595 45.8568 57.9595 45.8568L57.9285 46.0208L57.8109 45.9896L57.709 46.1616L57.6082 46.201L57.5528 46.3182L57.5217 46.1934L57.4044 46.3026L57.365 46.4821C57.365 46.4821 57.2164 46.6232 57.2007 46.6545C57.1851 46.6855 56.8561 46.8034 56.8561 46.8034L56.6455 46.8736C56.6455 46.8736 56.536 46.897 56.5124 46.897C56.4891 46.897 56.2853 47.0458 56.2853 47.0458L56.2155 47.116L56.192 47.0535L56.1059 47.1473V47.343L56.0197 47.46L56.0668 47.6398L55.9964 47.6635L55.9338 47.7108L56.0043 47.8516L56.0277 48.1091C56.0277 48.1091 56.0667 48.1877 56.059 48.2348C56.0513 48.2812 56.0197 48.3284 56.0197 48.3596C56.0197 48.3908 56.0433 48.5081 56.0433 48.5393C56.0433 48.5707 55.9726 48.7746 55.9726 48.7746L55.887 48.9152L55.8168 48.923C55.8168 48.923 55.8319 49.0718 55.8556 49.0718C55.8789 49.0718 55.9496 49.1027 56.0119 49.1267C56.0747 49.1495 56.1763 49.1109 56.1998 49.1028C56.2232 49.0949 56.3955 49.0012 56.3955 49.0012C56.3955 49.0012 56.4971 48.931 56.5283 48.9386C56.5595 48.9465 56.7008 48.9231 56.7237 48.9386C56.7473 48.9543 56.9272 48.9465 56.9272 48.9465L57.0365 48.8293L57.334 48.6962L57.4828 48.6805L57.8421 48.579L58.1473 48.6101C58.1473 48.6101 58.4057 48.7981 58.4057 48.7824C58.4057 48.7669 58.4604 48.8842 58.4604 48.8842L58.4449 49.0325C58.4449 49.0325 58.5307 49.1029 58.5384 49.0795C58.5464 49.056 58.6326 48.9622 58.6562 48.9387C58.6791 48.9154 58.7502 48.8842 58.805 48.8451C58.8594 48.8059 58.8749 48.7824 58.8749 48.7824C58.8749 48.7824 58.8204 48.9387 58.7966 48.9387C58.7732 48.9387 58.7259 48.9856 58.7025 49.017C58.6792 49.048 58.6405 49.072 58.6405 49.0877C58.6405 49.1029 58.6873 49.1029 58.7102 49.0877C58.7341 49.072 58.7732 49.0246 58.805 49.0089C58.8359 48.9934 58.852 49.0013 58.8436 49.0404C58.836 49.0794 58.836 49.1182 58.805 49.1339C58.7732 49.1496 58.7341 49.173 58.6792 49.2046C58.625 49.2361 58.5857 49.2122 58.562 49.2361C58.5385 49.2596 58.5775 49.2833 58.5933 49.2986C58.609 49.3143 58.6484 49.3614 58.6792 49.3067C58.7102 49.2518 58.7503 49.2122 58.7732 49.197C58.7966 49.1817 58.8436 49.1339 58.8436 49.1731C58.8436 49.2123 58.8675 49.2519 58.8749 49.2834C58.883 49.3143 58.8204 49.3769 58.8278 49.3924C58.8359 49.4081 58.9144 49.5802 58.9144 49.5802C58.9144 49.5802 58.9613 49.6424 59.0157 49.6424C59.0706 49.6424 59.1875 49.6818 59.2113 49.69C59.2342 49.6973 59.3444 49.69 59.3602 49.6585C59.3759 49.627 59.4695 49.5645 59.4618 49.5879C59.4538 49.6114 59.4695 49.6585 59.4929 49.6818C59.5162 49.7052 59.5554 49.7682 59.5554 49.7682L59.845 49.5409C59.845 49.5409 60.0638 49.4939 60.0716 49.5176C60.0796 49.5409 60.2201 49.3614 60.2201 49.3614L60.6658 48.8139L60.8386 48.6963L60.9635 48.5163L61.1354 48.203L61.2293 47.8519L61.2998 47.5858L61.1277 47.3272L61.0577 47.108ZM59.3209 50.026C59.3209 50.026 59.2116 49.9556 59.1955 49.9322V49.9086L59.1177 50.1509L59.0475 50.4094C59.0475 50.4094 59.1879 50.4251 59.2036 50.4328C59.2193 50.4403 59.4542 50.2999 59.4622 50.2685C59.4699 50.2371 59.6264 49.979 59.6264 49.979C59.6264 49.979 59.3763 50.0337 59.3209 50.026ZM63.5609 49.5724L63.4826 49.4937C63.4826 49.4937 63.4907 49.3844 63.4668 49.3844C63.4438 49.3844 63.4043 49.3923 63.4043 49.3923L63.4437 49.1181L63.3022 49.0324L63.2714 49.4548L63.1694 49.69L62.9666 49.7682C62.9666 49.7682 63.0525 49.8539 63.0837 49.8539C63.1147 49.8539 63.0602 49.9478 63.0602 49.9478L62.9272 50.0653C62.9272 50.0653 62.8806 50.0416 62.8806 49.979C62.8806 49.9163 62.7551 50.0416 62.7551 50.0416L62.6692 49.9867L62.4343 50.1898L62.1137 50.3544L61.3629 50.8162L61.4644 50.8709C61.4644 50.8709 61.5582 50.91 61.5661 50.9258C61.5737 50.9411 61.8007 50.824 61.8007 50.824L62.059 50.6359L62.1837 50.5266C62.1837 50.5266 62.411 50.4641 62.403 50.4954C62.3955 50.5266 62.4734 50.3469 62.4734 50.3469L62.6924 50.2295L62.8256 50.0968L62.9349 50.1275L63.0914 50.0728L63.3574 49.9009L63.4042 49.7598L63.4906 49.7681L63.6544 49.6505L63.7639 49.4628L63.5609 49.5724ZM32.0371 32.418C32.0996 32.441 32.1386 32.4492 32.2718 32.457C32.4049 32.4645 32.4206 32.4492 32.483 32.4724C32.5451 32.4956 32.6001 32.5356 32.6237 32.48C32.6471 32.4256 32.6784 32.4256 32.7018 32.3942C32.7252 32.3629 32.7018 32.3316 32.7408 32.316C32.7799 32.3005 32.8505 32.3788 32.8505 32.3788C32.8505 32.3788 32.7643 32.4335 32.8033 32.441C32.8423 32.4492 32.9519 32.4724 33.007 32.48C33.0618 32.4881 33.0148 32.5035 33.1087 32.5121C33.2024 32.5195 33.2415 32.5035 33.3587 32.5035C33.4761 32.5035 33.5469 32.4492 33.5859 32.4645C33.6249 32.48 33.7577 32.48 33.7967 32.4724C33.8358 32.4645 33.9302 32.3788 33.8908 32.3788C33.8514 32.3788 33.7029 32.3394 33.6405 32.3317C33.578 32.324 33.382 32.3161 33.3356 32.3395C33.2883 32.363 33.2336 32.3789 33.2024 32.363C33.1711 32.3474 33.3356 32.2224 33.4449 32.238C33.5546 32.2536 33.7186 32.2224 33.7733 32.2302C33.828 32.238 33.9615 32.2614 33.9615 32.2614C33.9615 32.2614 33.9924 32.2458 34.0002 32.2224C34.0081 32.199 34.016 32.1755 34.016 32.1755L34.0943 32.2458C34.0943 32.2458 34.6103 32.0348 34.6341 31.9954C34.6575 31.956 34.9856 31.8545 35.0332 31.8627C35.08 31.8701 35.4004 31.7295 35.4556 31.7529C35.5096 31.7764 35.7994 31.6829 35.7994 31.6829C35.7994 31.6829 36.0109 31.6358 36.0578 31.6358C36.1048 31.6358 36.1281 31.5812 36.0578 31.5889C35.9872 31.5967 35.4003 31.5967 35.2599 31.5889C35.1187 31.5812 34.7747 31.5887 34.7201 31.5967C34.6653 31.6045 34.352 31.6906 34.2193 31.6829C34.0861 31.6749 33.6562 31.7373 33.6328 31.7295C33.609 31.7217 33.4374 31.7139 33.4531 31.7139C33.4683 31.7139 33.2258 31.9095 33.1867 31.8545C33.1478 31.7998 33.1867 31.7608 33.1478 31.7998C33.1088 31.8389 33.1164 32.019 33.1164 32.019C33.1633 32.0504 33.265 32.1598 33.3356 32.113C33.4056 32.0659 33.4449 32.0895 33.4683 32.0971C33.4915 32.105 33.3591 32.2067 33.2805 32.2067C33.2023 32.2067 32.9519 32.3006 32.9519 32.3006C32.9519 32.3006 32.8423 32.1989 32.8188 32.1911C32.7954 32.1833 32.6627 32.1755 32.6392 32.1755C32.6159 32.1755 32.5844 32.1521 32.5767 32.2224C32.5689 32.2927 32.5844 32.4021 32.5064 32.3865C32.428 32.3708 32.4048 32.402 32.3655 32.3789C32.3264 32.3553 32.4205 32.238 32.3104 32.2302C32.2009 32.2224 32.1385 32.1443 32.0759 32.2692C32.0133 32.3942 31.9747 32.3942 32.0371 32.418ZM29.2055 32.9026C29.1817 32.9421 29.4084 32.9576 29.424 32.9265C29.4404 32.8948 29.5809 32.9183 29.612 32.8717C29.6432 32.8246 29.7994 32.7307 29.8229 32.7463C29.8464 32.7621 29.7761 32.8401 29.7526 32.8481C29.7291 32.8559 29.8313 32.8635 29.7291 32.9422C29.6277 33.0202 29.6512 33.0908 29.6512 33.0908C29.6512 33.0908 29.5652 33.1298 29.6277 33.1455C29.6903 33.1612 29.8075 33.2158 29.8075 33.2158C29.8075 33.2158 29.8152 33.2705 29.8152 33.2862C29.8152 33.3018 29.8546 33.3488 29.9402 33.2941C30.0268 33.2393 30.1987 33.1769 30.2221 33.2003C30.2455 33.2237 30.3005 33.1924 30.3789 33.1846C30.4568 33.1769 30.5197 33.1534 30.5197 33.1534L30.6212 33.1691C30.6682 33.1924 30.7075 33.1379 30.786 33.1846C30.8638 33.2315 30.9731 33.2315 30.9731 33.2315C30.9731 33.2315 31.0829 33.1456 31.1061 33.1379C31.1297 33.13 31.1765 33.1222 31.1531 33.0674C31.1297 33.0126 31.0437 32.9266 31.0672 32.9105C31.0905 32.895 31.1452 32.8793 31.1375 32.7309C31.1297 32.5824 31.1531 32.6061 31.114 32.6137C31.075 32.6216 30.9809 32.6685 30.9809 32.6685L30.9499 32.6607C30.9344 32.7075 30.8638 32.7388 30.8477 32.7857C30.8322 32.8326 30.786 32.856 30.786 32.817C30.786 32.7779 30.7311 32.7699 30.7227 32.7387C30.7154 32.7074 30.6447 32.7153 30.6057 32.7231C30.5665 32.7309 30.4568 32.6527 30.4176 32.684C30.3789 32.7153 30.3394 32.6685 30.3082 32.5981C30.2772 32.5278 30.2379 32.4727 30.1909 32.4803C30.144 32.4884 29.8546 32.4803 29.8546 32.4803L29.6825 32.4959C29.6825 32.4959 29.5888 32.5197 29.5888 32.5669C29.5888 32.6138 29.5731 32.6451 29.5263 32.6606C29.479 32.6763 29.135 32.8013 29.135 32.8013C29.135 32.8013 29.229 32.8634 29.2055 32.9026ZM31.6616 32.7152L31.5755 32.6994C31.5755 32.6994 31.5678 32.6369 31.5444 32.6369C31.5202 32.6369 31.4504 32.7229 31.4504 32.7229C31.4504 32.7229 31.5523 32.762 31.5679 32.7933C31.5835 32.8246 31.6225 32.8635 31.6225 32.8873C31.6225 32.9104 31.8805 32.8089 31.8805 32.8089L32.0217 32.7385C32.0217 32.7385 32.029 32.7541 32.0373 32.7151C32.0452 32.6761 32.0217 32.6448 32.0373 32.6369C32.0527 32.6291 32.1154 32.5276 32.0527 32.5432C31.9901 32.5585 31.857 32.5432 31.7945 32.5666C31.732 32.59 31.654 32.5356 31.6618 32.5978C31.6693 32.6604 31.6616 32.7152 31.6616 32.7152ZM30.4099 32.3552C30.4099 32.3552 30.4411 32.4882 30.5039 32.4493C30.5664 32.4098 30.7461 32.5433 30.7461 32.5585C30.7461 32.5746 30.8085 32.5667 30.8085 32.5667L31.0827 32.4725L31.2356 32.4493C31.2356 32.4493 31.38 32.4411 31.4032 32.4571C31.4264 32.4725 31.5443 32.4181 31.5443 32.4181L31.5911 32.3395L31.4893 32.3083L31.513 32.2301C31.513 32.2301 31.4815 32.1832 31.4114 32.2379C31.3405 32.2926 31.1452 32.4019 31.1607 32.3788C31.1764 32.3552 31.0828 32.3864 31.0436 32.3394C31.0042 32.2926 30.9497 32.2847 30.9497 32.2847C30.9497 32.2847 30.8397 32.2457 30.801 32.2613C30.7618 32.2769 30.8714 32.1832 30.8714 32.1832C30.8714 32.1832 30.8948 32.097 30.8475 32.105C30.801 32.113 30.4175 32.1989 30.4175 32.1989C30.4175 32.1989 30.2533 32.2926 30.2221 32.2691C30.1909 32.2457 30.0737 32.2847 30.0737 32.2847L30.1518 32.3316C30.1752 32.3082 30.4099 32.3552 30.4099 32.3552ZM32.1543 32.0346C32.1776 32.0422 32.3656 32.097 32.389 32.1049C32.4124 32.1129 32.4831 32.1284 32.5138 32.1206C32.5451 32.1129 32.6703 32.0504 32.6237 32.0268C32.5767 32.0035 32.428 31.9716 32.3967 31.9558C32.3655 31.9402 32.2479 31.9329 32.2479 31.9329L32.1775 31.9481C32.1621 31.9716 32.1309 32.0269 32.1543 32.0346ZM31.4032 32.1676C31.435 32.152 31.5443 32.105 31.5443 32.105L31.6377 32.027L31.6693 31.9874C31.6693 31.9874 31.599 31.9252 31.5677 31.9482C31.5364 31.9717 31.3717 32.0423 31.3717 32.0423L31.3639 32.0971L31.2356 32.152C31.2356 32.152 31.3717 32.1832 31.4032 32.1676ZM32.8115 32.1442C32.8424 32.152 32.9363 32.152 32.9442 32.1285C32.952 32.105 32.9364 31.9403 32.9364 31.9403C32.9364 31.9403 32.9048 31.8938 32.8659 31.9016C32.8269 31.9093 32.7019 31.9716 32.7019 31.9716C32.6939 31.9953 32.7799 32.1363 32.8115 32.1442ZM30.8359 40.4805C30.8305 40.4631 30.7422 40.4344 30.6954 40.4344C30.6484 40.4344 30.4782 40.2696 30.4668 40.2344C30.4546 40.1991 30.0736 40.1055 30.0736 40.1055C30.0736 40.1055 29.657 40.082 29.657 40.0705C29.657 40.0582 29.4574 40.2288 29.4574 40.2288V40.2462C29.4574 40.2462 29.4746 40.3282 29.4812 40.3459C29.4867 40.3634 29.616 40.2518 29.6276 40.2051C29.6393 40.1584 29.7331 40.1463 29.7565 40.1345C29.7803 40.1231 29.7916 40.1819 29.8152 40.1819C29.839 40.1819 29.9445 40.2169 29.9445 40.2169L30.1557 40.2873L30.2378 40.3634C30.2378 40.3634 30.2729 40.5507 30.2729 40.5746C30.2729 40.5983 30.4313 40.586 30.4313 40.586L30.7422 40.5573C30.7421 40.5572 30.8421 40.4982 30.8359 40.4805ZM30.8246 40.8738C30.8535 40.8855 30.9004 40.868 30.9241 40.868C30.9479 40.868 31.0241 40.8504 31.0241 40.8504C31.0241 40.8504 31.0475 40.9032 31.0475 40.9209C31.0475 40.9382 31.1705 40.9148 31.1705 40.8971C31.1705 40.8795 31.1998 40.8327 31.1998 40.8327L31.3462 40.8035C31.3462 40.8035 31.5461 40.8094 31.5635 40.8094C31.5812 40.8094 31.593 40.7742 31.5574 40.7097C31.5226 40.645 31.4224 40.6329 31.399 40.5859C31.3755 40.5393 31.2643 40.5691 31.2348 40.5859C31.2055 40.6036 31.0416 40.5454 30.9943 40.5454C30.9478 40.5454 30.9943 40.5981 30.9943 40.5981L30.9767 40.7682H30.7832L30.7772 40.7857C30.7772 40.7857 30.7243 40.8034 30.7243 40.8386C30.7245 40.8738 30.7949 40.8621 30.8246 40.8738Z" fill="#1E6252"/>
<line x1="46.6482" y1="27.1676" x2="44.64" y2="60.0838" stroke="#1E6252" stroke-width="0.760709"/>
<line x1="31.9089" y1="23.2962" x2="29.7218" y2="57.5018" stroke="#1E6252" stroke-width="0.760709"/>
<rect x="50.5195" y="28.9961" width="1.26122" height="11.1084" fill="#FBFBFB"/>
<rect x="50.5195" y="28.9961" width="0.630609" height="11.1084" fill="#ABABAB"/>
<ellipse cx="51.1498" cy="26.328" rx="3.05603" ry="3.05602" fill="#E30808"/>
<ellipse cx="50.6177" cy="25.6976" rx="1.84332" ry="1.84332" fill="url(#paint1_linear_1374_249921)"/>
<defs>
<radialGradient id="paint0_radial_1374_249921" cx="0" cy="0" r="1" gradientUnits="userSpaceOnUse" gradientTransform="translate(41.4209 41.666) rotate(90) scale(35)">
<stop/>
<stop offset="1" stop-opacity="0"/>
</radialGradient>
<linearGradient id="paint1_linear_1374_249921" x1="48.7744" y1="23.8542" x2="50.6177" y2="27.5409" gradientUnits="userSpaceOnUse">
<stop stop-color="#FFB4B4"/>
<stop offset="1" stop-color="#FFB4B4" stop-opacity="0"/>
</linearGradient>
</defs>
</svg>
