<svg width="83" height="83" viewBox="0 0 83 83" fill="none" xmlns="http://www.w3.org/2000/svg">
<circle cx="41.4209" cy="41.666" r="37.9577" fill="#CFF2E8"/>
<circle cx="41.4209" cy="41.666" r="37.9577" fill="url(#paint0_radial_850_81314)" fill-opacity="0.2"/>
<circle cx="41.4209" cy="41.666" r="37.9577" stroke="#F8FFFC" stroke-width="5.91549"/>
<path d="M29.8654 24.6417L18.3395 28.3894L14.0508 55.8068H27.9891L44.0717 58.5682L66.5875 55.8068V24.6417L45.948 28.3894L29.8654 24.6417Z" stroke="#1E6252" stroke-width="0.857946"/>
<path d="M23.4673 33.5095C23.4716 33.508 23.4737 33.5066 23.4737 33.5056C23.4737 33.4993 23.4707 33.5028 23.4673 33.5095ZM34.3463 44.2289C34.3463 44.2289 34.1413 44.1929 34.1324 44.1712C34.1239 44.1497 33.7734 43.89 33.7653 43.8972C33.7562 43.9043 33.6195 43.7813 33.6023 43.8178C33.5856 43.8538 33.3203 43.8538 33.3203 43.8538L33.0382 43.7957C33.0382 43.7957 32.9188 43.8683 32.9443 43.8391C32.9699 43.8103 32.9527 43.6372 32.9443 43.6663C32.9358 43.6948 32.5166 43.5146 32.5166 43.5146L32.371 43.6228V43.4857L32.1493 43.3705L32.1751 43.2189L32.0718 43.1467C32.0718 43.1467 32.0552 43.1683 32.0466 43.154C32.0381 43.1397 31.9781 42.8511 31.9781 42.8511L31.653 42.6273L31.2601 42.6128L30.9008 42.4465L30.8239 42.2953C30.8239 42.2953 30.6186 42.2162 30.6186 42.1945C30.6186 42.1729 30.5593 42.1874 30.5417 42.1799C30.5251 42.1729 30.5337 42.1009 30.5337 42.1009L30.4389 42.0356L30.4051 42.0162L30.3215 41.9948L30.2703 41.9345C30.2703 41.9345 30.4563 41.8644 30.4371 41.87C30.4183 41.8751 30.0206 41.9237 30.0206 41.9237L29.9822 41.9885L29.7961 41.9075L29.482 41.8911C29.482 41.8911 29.2572 41.8156 29.2636 41.7941C29.2704 41.7723 29.1932 41.6912 29.1932 41.6912C29.1932 41.6912 29.142 41.7941 29.1291 41.8048C29.1164 41.8156 28.9563 41.9293 28.9563 41.9293L28.9686 42.1027L28.8598 42.0049L28.937 41.9129V41.7832C28.937 41.7666 29.0331 41.729 29.0331 41.729L28.9946 41.659C28.9946 41.659 28.8795 41.6859 28.8795 41.7022C28.8795 41.7184 28.7256 41.7941 28.7256 41.7941L28.5394 41.8535H28.4561C28.4561 41.8535 28.373 41.9668 28.3531 41.9725C28.3341 41.9781 28.341 42.081 28.341 42.081C28.341 42.081 28.1353 42.2753 28.1224 42.2538C28.1096 42.2322 27.8921 42.081 27.8921 42.081L27.6351 42.1076L27.4878 42.1728L27.3082 42.07L27.1673 41.8861L27.1805 41.6697L27.2572 41.4313L27.2892 41.2747L27.0968 41.1554C27.0968 41.1554 26.7057 41.1825 26.7057 41.1663C26.7057 41.1503 26.4938 41.172 26.5005 41.1554C26.5066 41.1394 26.5774 41.0366 26.5774 41.0201C26.5774 41.0038 26.6289 40.8796 26.6289 40.8796L26.7123 40.739L26.8212 40.469L26.8851 40.3766L26.5647 40.3605L26.3722 40.4253L26.2633 40.696L25.7181 40.8204L25.5836 40.7339C25.5836 40.7339 25.5707 40.7826 25.5776 40.7555C25.5836 40.7285 25.4107 40.5388 25.4107 40.5388L25.3272 40.2741C25.3272 40.2741 25.5455 39.7272 25.5386 39.7384C25.5323 39.749 25.5455 39.5378 25.5455 39.5378L26.2314 39.1593L26.494 39.1917L26.5581 39.2458L26.7187 39.2238L26.879 39.0888L27.0838 39.1105L27.2824 39.0782L27.4045 39.1919L27.5836 39.1325L27.6798 39.2192L27.738 39.2729V39.3652L27.6932 39.4516L27.738 39.6465L27.8661 39.7981L27.9494 39.825L28.052 39.5871L28.0326 39.3652L27.9878 39.1862V39.0564L28.251 38.7865L28.5904 38.5806L28.8597 38.4507L29.097 38.2344L29.0842 38.0288L29.1874 38.0127L29.289 37.8289L29.3917 37.8391L29.5909 37.6283L29.9239 37.5312L30.1295 37.4989L30.1936 37.4394L30.1167 37.3853L30.2768 37.1847L30.7835 37.017L31.0915 36.9413L30.8411 37.0767L30.8924 37.1793L31.0783 37.1361L31.2131 37.0659L31.5656 36.9849C31.5656 36.9849 31.6494 36.8656 31.6362 36.8927C31.6239 36.9197 31.816 36.8656 31.816 36.8656L31.7777 36.8005L31.7905 36.7141L31.6881 36.7466L31.5334 36.8872L31.2837 36.8769L31.1686 36.7304L31.2775 36.606C31.2775 36.606 31.3863 36.422 31.38 36.4332C31.3734 36.4437 31.2071 36.3897 31.2071 36.3897L30.9568 36.4651C30.9313 36.4651 30.694 36.5843 30.7003 36.5682C30.7068 36.552 30.5784 36.6277 30.5784 36.6277L30.9052 36.4062L31.0401 36.3897L31.1941 36.2704H31.9315L32.1816 36.2271L32.5148 36.0758L32.5409 36.1029L32.3997 36.2163L32.2265 36.3679L32.0594 36.5191L31.9762 36.6113L32.2391 36.6221C32.2391 36.6221 32.4441 36.6264 32.4636 36.6221C32.4893 36.6166 32.4956 36.6977 32.4956 36.6977L32.6044 36.6328L32.6625 36.7572L32.855 36.6328L32.797 36.4921L32.8486 36.362L32.6241 36.3678V36.2973C32.6241 36.2973 32.5409 36.2162 32.5344 36.2269C32.5277 36.2378 32.6625 36.1352 32.6559 36.1459C32.6496 36.1568 32.598 36.092 32.598 36.092L32.7524 35.9292L32.6756 35.7455L32.6495 35.6538L32.4507 35.5726L32.3803 35.4912L32.2902 35.4318L32.361 35.291L32.3289 35.1884C32.3289 35.1884 32.2714 34.8528 32.265 34.8635C32.2582 34.8744 31.9952 35.0476 31.9952 35.0476L31.7264 35.1615L31.5849 35.0586L31.5982 34.923L31.72 34.8257L31.5208 34.7716L31.508 34.7284C31.508 34.7284 31.3286 34.5769 31.3159 34.5876C31.3031 34.5988 31.2582 34.6366 31.2582 34.6366L30.8349 34.6037L30.6875 34.8203L30.6555 34.9338C30.6555 34.9338 30.4236 35.1296 30.3953 35.1447C30.4123 35.1406 30.5207 35.2316 30.5207 35.2316L30.4243 35.4261L30.0589 35.6046L29.8797 35.6265C29.8797 35.6265 29.7704 35.9622 29.7769 35.9837C29.7832 36.0055 29.6295 36.0646 29.6295 36.0646L29.5205 36.1296L29.4754 36.0108C29.4754 36.0108 29.4263 35.9199 29.4067 35.8969C29.4354 35.9069 29.5395 35.9186 29.5395 35.9186L29.559 35.8426L29.4562 35.8482L29.5013 35.7237L29.5974 35.5887L29.2638 35.567L29.1876 35.4911L29.0204 35.4693L29.0072 35.4097L28.8919 35.3504L28.7506 35.2963L28.5971 35.3125L28.5905 35.1991L28.6288 35.0909L28.4753 35.0694C28.4753 35.0694 28.7446 34.8365 28.7382 34.8473C28.7313 34.8581 29.4944 34.5278 29.4944 34.5278L29.5844 34.447L29.7317 34.4359L30.0522 34.3117L30.2959 34.1711L30.3216 34.182L30.136 34.328L30.0847 34.3817L29.9372 34.4414L30.072 34.4575L30.0523 34.5227L30.2001 34.501L30.3473 34.3981L30.4632 34.4309L30.5146 34.4792L30.6746 34.4737L30.6682 34.3711L30.4185 34.2197L30.3601 34.1711L30.3348 34.1169L30.4434 34.1281L30.5338 34.1929L30.6298 34.1114L30.8221 34.0902L31.0144 33.9761L31.0019 33.9059L31.1492 33.787L31.0527 33.7006L31.3094 33.6952L31.5333 33.7006C31.5333 33.7006 31.6427 33.6574 31.662 33.6844C31.6813 33.7114 31.8479 33.814 31.8479 33.814L31.7838 33.8627L31.5206 33.89L31.4565 33.9979L31.6493 34.0198L31.7965 33.89L31.9566 33.8791L31.9823 34.0087C31.9823 34.0087 31.803 34.0954 31.7775 34.1008C31.7518 34.1066 31.6426 34.1494 31.6426 34.1494L31.6361 34.2471L31.4631 34.2631L31.2836 34.2363L31.2005 34.2416L31.0656 34.3334L31.1746 34.4145C31.1746 34.4145 31.335 34.3605 31.3606 34.3443C31.3861 34.3282 31.4695 34.2955 31.4886 34.3228C31.5078 34.3498 31.6165 34.4255 31.6165 34.4255L31.707 34.572L31.7902 34.5934L32.0464 34.6637C32.0464 34.6637 32.2261 34.7016 32.2261 34.7122C32.2261 34.7231 32.2074 34.6204 32.2074 34.6204L32.0718 34.485C32.0718 34.485 32.0659 34.4472 32.1102 34.4577C32.1556 34.4685 32.2648 34.5494 32.2648 34.5494C32.2837 34.5549 32.4121 34.6203 32.4121 34.6203L32.4633 34.5012L32.5786 34.4416L32.534 34.3712L32.4697 34.3119L32.3993 34.2416L32.4056 34.1605C32.4056 34.1605 32.4249 34.1493 32.4441 34.1389C32.4632 34.1282 32.5209 34.0902 32.5339 34.1115C32.5465 34.1332 32.6752 34.274 32.6752 34.274L32.7965 34.2954L32.8546 34.2145C32.8546 34.2145 33.0146 34.1981 33.0146 34.2036C33.0146 34.209 33.0275 34.1388 33.0275 34.1388L33.1751 34.1065L32.9635 33.9491L32.8482 33.9003L32.7581 33.922L32.6754 33.8409L32.7649 33.7708L32.8036 33.6732L32.7009 33.5867L32.5406 33.5597L32.5017 33.4891C32.5017 33.4891 32.3674 33.473 32.3481 33.4836C32.3286 33.4948 32.2326 33.3864 32.2326 33.3864L32.1492 33.2946C32.1362 33.289 32.0915 33.2509 32.0659 33.2566C32.0399 33.2621 31.7709 33.2674 31.7709 33.2674L31.7069 33.2837L31.6237 33.2294L31.29 33.2999L31.1171 33.4136C31.1171 33.4136 31.1044 33.3485 31.1171 33.3324C31.1295 33.3162 31.2514 33.2567 31.2707 33.2459C31.29 33.2352 31.1234 33.2295 31.1234 33.2295C31.1234 33.2295 30.8154 33.3162 30.8026 33.3324C30.7899 33.3485 30.5525 33.5054 30.5525 33.5054L30.5594 33.6353L30.7771 33.6626L30.8604 33.6784L30.8027 33.722L30.7579 33.803L30.617 33.8679L30.4435 33.976L30.296 34.0246L30.2706 33.9382L30.3987 33.8733C30.3987 33.8733 30.3731 33.7383 30.3602 33.7489C30.3474 33.7598 30.213 33.7436 30.2064 33.7598C30.2002 33.7761 30.213 33.6572 30.213 33.6572L30.2064 33.5434L30.1744 33.4566C30.1744 33.4566 30.2836 33.3809 30.3025 33.3756C30.3218 33.3702 30.527 33.3593 30.527 33.3593L30.8541 33.2025L30.5846 33.1919C30.5846 33.1919 30.3349 33.197 30.3218 33.219C30.3089 33.2406 30.1426 33.3865 30.1426 33.3865L30.0399 33.4514L29.7 33.6302L29.687 33.7545L29.5461 33.7329L29.4437 33.7166L29.1876 33.8031V33.9221L28.7187 33.944C28.7187 33.944 28.4947 33.9166 28.4947 33.8899C28.4947 33.8626 28.4114 33.8086 28.3859 33.8086C28.3598 33.8086 28.0713 33.8843 28.0713 33.8843L28.0586 33.9599L27.7251 33.944C27.7251 33.944 27.4496 33.9869 27.456 33.9656C27.4624 33.944 27.3083 33.9546 27.3083 33.9546L27.5392 33.868L27.3792 33.8031L27.0902 33.7653L26.8852 33.7113L26.6548 33.7384L26.6291 33.6573L26.4235 33.7274L26.3658 33.6138L26.2249 33.668C26.2249 33.668 25.6992 33.7599 25.6734 33.7652C25.648 33.7708 25.5198 33.722 25.5198 33.722L25.359 33.7868L25.0516 33.803L24.9295 33.7274L24.6796 33.6842L24.4038 33.695L23.8905 33.6244C23.8905 33.6244 23.5959 33.5866 23.6151 33.5809C23.6343 33.5754 23.4551 33.5376 23.4551 33.5376C23.4551 33.5376 23.4622 33.5196 23.4678 33.5091C23.4049 33.5315 22.9036 33.6024 22.9036 33.6024L22.2305 33.7867L21.788 33.8623C21.788 33.8623 21.8007 33.9597 21.807 33.9758C21.8135 33.9923 21.8519 34.1003 21.8519 34.1003L21.7302 34.1219H21.6015L21.6662 34.0463L21.0115 34.1977L21.0249 34.2572L20.9797 34.3276L21.1849 34.3438L21.3582 34.36C21.3582 34.36 21.4544 34.3114 21.4544 34.3277C21.4544 34.3439 21.4031 34.468 21.4031 34.468L21.2044 34.4789C21.1917 34.4627 21.0888 34.4846 21.0888 34.4846C21.0888 34.4846 20.954 34.5544 20.9476 34.5386C20.9412 34.5224 20.6787 34.5765 20.6787 34.5765L20.3769 34.7226L20.2618 34.8686L20.249 34.9766L20.4734 34.9445L20.345 35.0907L20.4925 35.085C20.4925 35.085 20.6658 35.085 20.6786 35.107C20.6916 35.1287 20.7682 35.1179 20.7682 35.1287C20.7682 35.1396 19.2422 35.6372 19.2292 35.6211C19.2164 35.6045 18.9922 35.7075 18.9922 35.7075C18.9922 35.7075 19.2868 35.6643 19.3064 35.6643C19.3255 35.6643 19.7613 35.5775 19.7613 35.5775L19.9666 35.5288C19.9666 35.5288 20.4091 35.4207 20.4151 35.4044C20.4216 35.388 20.7296 35.2528 20.7488 35.2528C20.7681 35.2528 20.8706 35.215 20.8772 35.2368C20.8834 35.2583 21.3196 35.1396 21.3196 35.1396C21.3196 35.1396 21.4733 35.0474 21.4608 35.0311C21.4475 35.0149 21.358 34.9716 21.3837 34.9664C21.4092 34.9609 21.6397 34.9336 21.6397 34.9336C21.6397 34.9336 21.9862 34.8148 21.9799 34.8308C21.9734 34.8472 21.6273 35.0422 21.6273 35.0422L22.1211 34.9609L22.3201 34.8903C22.3201 34.8903 22.4866 34.8255 22.4738 34.8418C22.461 34.858 22.6663 34.9065 22.6663 34.9227C22.6663 34.939 23.0956 34.9933 23.0956 34.9933L23.224 35.1556L23.198 35.3664L23.1853 35.6318L23.416 35.6101L23.3586 35.7832L23.3718 36.0701C23.3718 36.0701 23.3842 36.1728 23.3842 36.189C23.3842 36.2052 23.2046 36.1567 23.2046 36.1567C23.2046 36.1567 23.1789 36.281 23.1981 36.2971C23.2181 36.3133 23.4294 36.4919 23.4294 36.4919L23.3588 36.5678L23.1981 36.9032L22.8198 37.2709L22.756 37.4716L22.5699 37.6444L22.602 37.7689C22.602 37.7689 22.5507 37.8557 22.564 37.8664C22.5763 37.8771 22.6535 38.4669 22.6535 38.4669L22.923 38.6074L22.9932 38.7157L23.0318 39.1593L23.1469 39.3595L23.0189 39.4353L23.1662 39.608L23.2241 39.6137L23.3399 39.7271L23.2947 39.8788L23.4163 39.9598L23.5319 40.1114L23.5513 40.187L23.6604 40.0952L23.5513 39.9058C23.5513 39.9058 23.4743 39.7649 23.4808 39.7328C23.4872 39.7002 23.3784 39.4567 23.3784 39.4567C23.3784 39.4567 23.2753 39.2726 23.2885 39.2565C23.3009 39.2401 23.2111 39.1323 23.2111 39.1323L23.2563 38.9105L23.4422 38.9429C23.4422 38.9429 23.4743 39.1481 23.4743 39.1701C23.4743 39.1917 23.5193 39.3216 23.5193 39.3216L23.7628 39.6079L23.7246 39.7543L24.1923 40.2249L24.1859 40.4144L24.1153 40.5061L24.1537 40.6362L24.5451 40.8796L24.609 40.8689L24.7243 40.9664L25.1473 41.145L25.3591 41.1884L25.6095 41.1233L25.7696 41.1884L26.0133 41.4264L26.2634 41.4803L26.5195 41.5563H26.642L26.6741 41.6805C26.6741 41.6805 26.7894 41.8051 26.8151 41.8213C26.8405 41.8375 26.8215 41.9783 26.8215 41.9783L26.9303 42.0266L27.0587 42.1405L27.1419 42.2057L27.232 42.292L27.2895 42.2596L27.405 42.2865L27.5713 42.4166L27.6803 42.3622L27.649 42.2596L27.7507 42.1731H27.8408L27.9371 42.2379L27.9306 42.3137L28.0459 42.4705L28.0525 42.9088L27.9499 43.0497L27.8086 43.1308L27.8025 43.2603L27.6548 43.3089L27.5972 43.4821L27.5072 43.6337L27.5264 43.7634L27.6549 43.8608L27.5392 43.9642L27.4561 44.0667L27.5324 44.2718C27.5324 44.2718 27.5708 44.3749 27.5708 44.3639C27.5708 44.3532 27.6932 44.4347 27.6932 44.4347L27.9175 44.8129L28.1351 45.0785C28.1351 45.0785 28.4518 45.617 28.4582 45.6212C28.5539 45.6805 29.2516 46.1046 29.2516 46.1046L29.3706 46.6311L29.4054 47.7419L29.5077 48.0598L29.4646 48.7019L29.4308 48.8315C29.4308 48.8315 29.5674 49.0335 29.5674 49.0626C29.5674 49.0914 29.5929 49.3436 29.5929 49.3436L29.6868 49.6178L29.7979 49.6107L29.7296 49.4521L29.8153 49.4593L29.8746 49.7116L29.8831 49.8124L29.8153 49.7619L29.7552 49.8124L29.7124 49.8558L29.7979 49.921L29.7553 50.0214L29.7384 50.1516L29.858 50.1661L29.9434 50.2237L29.858 50.3463C29.858 50.3463 30.3877 51.1326 30.8324 51.2262C31.2771 51.3203 31.4052 51.349 31.4052 51.349L31.5937 51.2623L31.6528 51.1976L31.2599 51.0822L30.9608 50.8076L30.9007 50.6637L30.9947 50.6062L30.9778 50.4977C30.9778 50.4977 30.9778 50.4184 31.0115 50.3969C31.0461 50.3753 31.1143 50.267 31.1143 50.267L31.0115 50.2237L30.8408 50.0796L30.8578 49.9133L30.9606 49.8632C30.9606 49.8632 30.9689 49.7691 30.9521 49.7476C30.9346 49.7262 30.9777 49.6176 31.0034 49.6105C31.0292 49.6031 31.0969 49.5165 31.0969 49.5165H30.9778L30.9096 49.4951L30.8237 49.38V49.2931L30.969 49.3291L31.1063 49.3074L31.1831 49.2137C31.1831 49.2137 31.1575 49.1561 31.149 49.1345C31.1404 49.113 31.166 49.019 31.1916 49.0117C31.2171 49.0049 31.3709 49.019 31.3709 49.019L31.6617 48.9542C31.6617 48.9542 31.773 48.7881 31.7645 48.7593C31.7559 48.7305 31.7559 48.6367 31.7559 48.6367C31.7559 48.6367 31.7559 48.5719 31.6877 48.5642C31.6189 48.5573 31.6189 48.536 31.6018 48.4776C31.5845 48.4201 31.533 48.3552 31.533 48.3552L31.4478 48.3696L31.525 48.3049L31.696 48.4127L31.9522 48.4492L32.149 48.2831L32.286 48.0016L32.3456 47.7924H32.4736L32.6103 47.5832L32.6619 47.3885L32.6192 47.1502L32.6789 47.0641L33.1233 46.8115L33.4571 46.7176L33.5687 46.6452C33.5687 46.6452 33.7391 46.4507 33.7391 46.4291C33.7391 46.4074 33.8076 46.1259 33.8076 46.1259C33.8076 46.1259 33.8844 45.7945 33.8756 45.7729C33.8673 45.7509 33.893 45.4625 33.8756 45.4553C33.8584 45.4482 33.8844 45.3685 33.8844 45.3685L34.2093 44.9792L34.3632 44.6831C34.3632 44.6831 34.4748 44.5317 34.4575 44.5029C34.4402 44.4741 34.3464 44.2288 34.3464 44.2288L34.3463 44.2289ZM37.7273 33.668C37.7273 33.668 37.7789 33.4513 37.7405 33.4297C37.7015 33.4082 37.8944 33.2783 37.8944 33.2783C37.8944 33.2783 38.1761 33.17 38.1889 33.1379C38.2017 33.1052 38.1121 33.1156 38.1121 33.1156L38.1375 32.9535L38.3174 32.8994C38.3174 32.8994 38.215 32.7694 38.1889 32.7044C38.1636 32.6401 38.4969 32.6073 38.4969 32.6073L39.0868 32.3801L38.3818 32.445L38.3557 32.3694L37.6117 32.2286L36.1247 32.2722L35.9582 32.3479H35.4445L34.7267 32.402C34.7267 32.402 34.0471 32.4776 34.0085 32.4991C33.9703 32.5209 34.0856 32.5534 34.0856 32.5534L34.0728 32.6292L33.2389 32.7159L33.1879 32.7916C33.1879 32.7916 33.2775 32.8672 33.2903 32.8781C33.3029 32.8889 33.6494 32.9537 33.6494 32.9537L34.0599 32.997C34.0599 32.997 34.2908 33.0836 34.3288 33.1158C34.3676 33.1482 34.3552 33.2461 34.3421 33.3001C34.3288 33.3543 34.2908 33.365 34.2396 33.4299C34.1881 33.495 34.3421 33.4623 34.3421 33.4623L34.5217 33.5379C34.5217 33.5379 34.4704 33.5379 34.3932 33.5492C34.3159 33.5599 34.2135 33.5812 34.2135 33.5812L34.2008 33.7006L34.4577 33.6574L34.4313 33.733L34.252 33.7654L34.0728 33.9491L34.0599 34.2954L34.0982 34.5875L34.2008 34.8256L34.3676 34.8473L34.56 34.9447L34.8168 34.9337L35.0729 34.6416L35.342 34.4252L35.4191 34.3062L35.5476 34.2414L35.8293 34.1874L36.1886 34.1222C36.1886 34.1222 36.5216 33.9383 36.5606 33.9166C36.5987 33.8951 37.522 33.6574 37.522 33.6574L37.7273 33.668ZM37.9842 34.4576L38.3433 34.3604L38.4198 34.2415L38.2792 34.1442L37.6248 34.2091L37.4325 34.1114L37.202 34.2198C37.202 34.2198 37.3172 34.2631 37.3557 34.2847C37.3941 34.3063 37.471 34.2631 37.471 34.2631V34.3605C37.471 34.3605 37.6762 34.4577 37.6502 34.4904C37.6248 34.5227 37.9842 34.4576 37.9842 34.4576ZM38.6166 35.9327L38.5439 35.9727L38.5225 36.0415L38.5866 36.0738L38.6893 36.0918L38.7958 36.0702L38.8862 36.0269L38.9115 36.0053L39.0612 35.9975L39.0782 35.944L39.1128 35.8897V35.7346L39.1939 35.6948L39.1678 35.5941L39.0399 35.569L38.9375 35.5545L38.8692 35.5724L38.83 35.6192C38.83 35.6192 38.7667 35.677 38.7793 35.6659C38.7925 35.6554 38.8262 35.6554 38.8181 35.6734C38.8092 35.6913 38.7747 35.7093 38.7747 35.7093H38.7242L38.6805 35.6877L38.6168 35.6948L38.5952 35.7273L38.6214 35.7779L38.5782 35.8141L38.6295 35.8502L38.6805 35.8606L38.6726 35.9113L38.6166 35.9327ZM39.125 35.5074C39.1551 35.5179 39.1676 35.5327 39.1635 35.5433C39.1597 35.5545 39.2276 35.5615 39.2276 35.5615L39.2834 35.5509L39.245 35.6013C39.245 35.6013 39.2534 35.6338 39.266 35.6483C39.2792 35.6627 39.3221 35.6483 39.3221 35.6483C39.3221 35.6483 39.4248 35.6338 39.4376 35.6374C39.4501 35.6409 39.433 35.6735 39.433 35.6735L39.4719 35.7238C39.4719 35.7238 39.4928 35.7961 39.4971 35.8175C39.5017 35.8395 39.4629 35.8318 39.4629 35.8318C39.4629 35.8318 39.3824 35.8426 39.3644 35.8394C39.3474 35.8358 39.3136 35.8643 39.2837 35.893C39.2536 35.9225 39.288 35.9113 39.288 35.9113H39.3515C39.3515 35.9113 39.3566 35.9472 39.3605 35.9621C39.3644 35.9765 39.3091 35.9907 39.2924 35.987C39.2753 35.9836 39.1982 36.0161 39.1982 36.0161L39.2021 36.0703L39.2965 36.0774L39.3907 36.0883L39.4078 36.1135C39.4078 36.1135 39.3472 36.1243 39.3305 36.1135C39.3134 36.1027 39.2621 36.1711 39.2621 36.1711L39.2152 36.2144L39.1165 36.2792L39.172 36.301L39.2063 36.2648L39.2923 36.2684L39.3856 36.2576C39.3856 36.2576 39.4418 36.1999 39.4547 36.1999C39.4671 36.1999 39.5998 36.1965 39.5998 36.1965C39.5998 36.1965 39.7067 36.1784 39.7195 36.1856C39.7323 36.1929 39.8179 36.2074 39.8312 36.2109C39.8438 36.2144 40.0104 36.1712 40.0104 36.1712C40.0104 36.1712 40.0444 36.1244 40.0529 36.11C40.0618 36.0956 40.0062 36.0812 39.9935 36.0703C39.9807 36.0595 40.036 36.0452 40.0618 36.0344C40.0873 36.0236 40.0958 35.9838 40.1088 35.9659C40.1212 35.9481 40.0915 35.9115 40.0873 35.901C40.0831 35.8899 40.0232 35.8932 40.0062 35.8899C39.9892 35.8862 39.9165 35.8932 39.9165 35.8932L39.9204 35.8211C39.9204 35.8211 39.7195 35.5904 39.7238 35.5796C39.7281 35.5691 39.6768 35.5003 39.6555 35.497C39.6341 35.4934 39.6083 35.4784 39.5827 35.4496C39.5573 35.421 39.6169 35.3847 39.6169 35.3847C39.6169 35.3847 39.6894 35.3199 39.6981 35.3056C39.7066 35.2911 39.6893 35.2479 39.6767 35.2443C39.6637 35.2407 39.5146 35.2479 39.5146 35.2479C39.5146 35.2479 39.4719 35.2191 39.4759 35.2083C39.4803 35.197 39.523 35.1936 39.536 35.1936C39.5481 35.1936 39.6256 35.0677 39.6427 35.0641C39.6596 35.0602 39.6297 35.028 39.6297 35.028L39.5701 35.049L39.5146 35.118C39.5146 35.118 39.4628 35.1288 39.4419 35.118C39.4208 35.1072 39.3776 35.118 39.3606 35.1144C39.3435 35.1103 39.3044 35.1577 39.3044 35.1577C39.3044 35.1577 39.2452 35.2118 39.2279 35.2153C39.2109 35.2189 39.151 35.2766 39.1553 35.2801C39.1599 35.2837 39.1638 35.3308 39.1638 35.3308C39.1638 35.3308 39.151 35.3486 39.1296 35.3522C39.1084 35.3557 39.1466 35.417 39.1466 35.417L39.1983 35.4389C39.1983 35.4389 39.1679 35.4639 39.151 35.4606C39.1336 35.4566 39.0952 35.4968 39.125 35.5074ZM59.2323 34.7248C59.2323 34.7218 59.2303 34.7218 59.2267 34.7237C59.2304 34.726 59.2323 34.7268 59.2323 34.7248ZM53.984 41.0912C53.9926 41.0804 54.112 41.0299 54.1162 41.0043C54.1207 40.9796 54.2061 41.2392 54.2061 41.2392L54.2664 41.4194C54.2664 41.4194 54.3129 41.5491 54.3301 41.5744C54.3473 41.5999 54.3725 41.7657 54.3725 41.7801C54.3725 41.7945 54.4287 41.8915 54.4029 41.9026C54.3767 41.9133 54.3345 41.9061 54.3427 41.9207C54.3517 41.9349 54.3724 42.0144 54.3724 42.0293C54.3724 42.0436 54.3598 42.1406 54.3517 42.1587C54.3427 42.1769 54.3389 42.2238 54.3389 42.245C54.3389 42.2669 54.3552 42.3069 54.3552 42.3173C54.3552 42.3283 54.3684 42.3463 54.3684 42.3463C54.3684 42.3463 54.3858 42.3537 54.394 42.3354C54.4028 42.3173 54.4667 42.3102 54.4756 42.3173C54.4839 42.3247 54.5821 42.4217 54.5909 42.451C54.5993 42.4796 54.7061 42.6206 54.7187 42.6349C54.7317 42.6494 54.7875 42.6963 54.7526 42.7358C54.7187 42.7755 54.7187 42.7826 54.7233 42.8042C54.7275 42.8257 54.7405 42.905 54.7829 42.9488C54.8261 42.9918 54.9153 43.0748 54.9153 43.0748C54.9153 43.0748 55.0268 43.1401 55.0439 43.1581C55.0607 43.176 55.1847 43.1868 55.1979 43.23C55.2102 43.2731 55.2446 43.3168 55.2446 43.3168C55.2446 43.3168 55.3427 43.3418 55.3427 43.3529C55.3427 43.344 55.3416 43.218 55.3303 43.2008C55.3177 43.1832 55.2152 43.0063 55.2019 42.9956C55.1895 42.9846 55.1681 42.9596 55.1809 42.9131C55.1936 42.8657 55.1722 42.743 55.1722 42.743L54.9713 42.5409C54.9713 42.5409 54.796 42.3965 54.7918 42.4039C54.7876 42.411 54.6547 42.3606 54.6599 42.3173C54.6633 42.2741 54.646 42.1661 54.6077 42.1407C54.5697 42.1156 54.5355 42.0756 54.5056 42.0613C54.4758 42.0465 54.4972 41.9096 54.5056 41.8916C54.5138 41.8736 54.5823 41.7151 54.5783 41.7045C54.5736 41.6938 54.5953 41.5459 54.5953 41.5459C54.5953 41.5459 54.6507 41.4839 54.6634 41.5058C54.6766 41.5273 54.7362 41.5058 54.719 41.5707C54.702 41.6361 54.7108 41.6757 54.7108 41.6757L54.8643 41.6502L54.9715 41.7442L55.0487 41.8305L55.1469 41.8811C55.1469 41.8811 55.1724 41.9786 55.1852 41.9854C55.1983 41.9929 55.2622 41.9639 55.2622 41.9639L55.3605 42.022C55.3605 42.022 55.3047 42.1083 55.318 42.1303C55.3306 42.1518 55.343 42.2274 55.343 42.2274L55.4375 42.1623L55.5574 42.0866L55.6172 42.0145L55.6386 41.9605L55.8092 41.8988L55.9718 41.7727L55.9678 41.5057L55.9164 41.34L55.7711 41.1667L55.4887 40.9289L55.378 40.8135C55.378 40.8135 55.3009 40.7306 55.3048 40.7091C55.3092 40.6871 55.3259 40.572 55.3259 40.572L55.4033 40.5105L55.5532 40.3843C55.5532 40.3843 55.6556 40.3266 55.6728 40.3409C55.6898 40.3554 55.8265 40.3518 55.8309 40.3625C55.8348 40.3733 55.8528 40.3699 55.8434 40.3913C55.8349 40.4128 55.8476 40.5104 55.8604 40.5213C55.8736 40.5322 55.9036 40.5427 55.9164 40.5465C55.9284 40.5499 55.9718 40.5355 55.9762 40.514C55.9806 40.4925 55.9718 40.4166 55.9762 40.3985C55.9806 40.3806 55.989 40.3806 56.0019 40.377C56.0147 40.3733 56.0785 40.377 56.0785 40.377L56.1472 40.3193L56.2667 40.3553L56.3949 40.2613C56.3949 40.2613 56.4635 40.2508 56.4721 40.2579C56.4804 40.2654 56.5921 40.1859 56.5921 40.1859L56.7073 40.1642L56.8096 40.128C56.8096 40.128 56.8523 40.045 56.8523 40.0557C56.8523 40.0666 57.1005 39.8468 57.1005 39.8468L57.1816 39.6772L57.2797 39.4356L57.3395 39.1359L57.344 39.0495C57.344 39.0495 57.2497 39.1142 57.2372 39.1181C57.2242 39.1215 57.1475 39.1038 57.1475 39.1038L57.207 39.0134C57.207 39.0134 57.2414 38.9486 57.2242 38.945C57.207 38.9413 57.1215 38.9198 57.1215 38.9198C57.1215 38.9198 57.1583 38.8488 57.1638 38.8442C57.156 38.8442 57.015 38.7214 57.015 38.7214C57.015 38.7214 56.8267 38.4942 56.8181 38.5121C56.8095 38.5302 56.6645 38.4257 56.6511 38.4257C56.6389 38.4257 56.6301 38.4292 56.6217 38.4077C56.6132 38.386 56.75 38.2345 56.7542 38.2233C56.7584 38.2129 56.8778 38.1008 56.8997 38.1045C56.9205 38.1081 56.9934 38.1116 56.9934 38.1116C56.9934 38.1116 56.9759 38.0397 56.9633 38.036C56.9509 38.0325 56.6603 38.0109 56.6603 38.0109C56.6603 38.0109 56.545 38.0685 56.5406 38.0829C56.5357 38.0973 56.4425 38.0903 56.4425 38.0903L56.4294 38.0072L56.3134 37.9604L56.1813 37.9208L56.1858 37.845C56.1858 37.845 56.2666 37.8199 56.2796 37.8121C56.2924 37.8049 56.3948 37.762 56.4032 37.7256C56.4118 37.6895 56.4804 37.6319 56.4892 37.621C56.4975 37.6103 56.5529 37.5706 56.5655 37.5779C56.5787 37.585 56.6603 37.6355 56.6512 37.6392C56.6432 37.6427 56.5876 37.7187 56.5998 37.7399C56.6131 37.7619 56.6729 37.827 56.6645 37.8375C56.6562 37.8486 56.6302 37.8883 56.6302 37.8883L56.6944 37.881C56.6944 37.881 56.7755 37.827 56.7711 37.8198C56.7669 37.812 56.8353 37.7512 56.848 37.7512C56.8608 37.7512 57.0022 37.7255 57.0059 37.7363C57.0105 37.7473 57.1516 37.776 57.1516 37.776L57.1774 37.9928C57.1774 37.9928 57.5194 38.0612 57.5194 38.0793C57.5194 38.0972 57.4808 38.126 57.4808 38.126C57.4808 38.126 57.4765 38.1837 57.4936 38.1912C57.5106 38.198 57.5661 38.2378 57.5792 38.2525C57.5925 38.2668 57.6178 38.3645 57.6178 38.3645C57.6178 38.3645 57.571 38.4508 57.5792 38.4617C57.5875 38.4727 57.6732 38.5374 57.6732 38.5374L57.917 38.4581C57.917 38.4581 58.0492 38.3716 58.0492 38.3608C58.0492 38.3498 57.9084 38.0613 57.9084 38.0613L57.5832 37.8733L57.4426 37.7761L57.639 37.614L57.6219 37.4734C57.6219 37.4734 57.6646 37.3359 57.6732 37.3359C57.6822 37.3359 57.8015 37.264 57.8015 37.264L57.9381 37.3438L58.1434 37.2353L58.2589 36.8858L58.2631 36.4309L58.0792 36.1533C58.0792 36.1533 57.9939 35.9838 57.9806 35.9838C57.9678 35.9838 57.8442 35.8212 57.8442 35.8212L57.5578 35.7132L57.4335 35.7096L57.3569 35.8176L57.276 35.7348L57.1648 35.5691L57.1774 35.6699C57.1774 35.6699 57.1945 35.7348 57.1894 35.7492C57.1862 35.7636 57.1044 35.659 57.1044 35.659C57.1044 35.659 56.9677 35.6375 56.9592 35.6375C56.951 35.6375 56.8823 35.6047 56.8823 35.6047C56.8823 35.6047 57.0839 35.4069 57.0664 35.414C57.0495 35.421 57.1005 35.1615 57.1005 35.1615C57.1005 35.1615 57.1731 35.0386 57.1773 35.0459C57.1817 35.0532 57.459 35.0207 57.459 35.0207C57.459 35.0207 57.9677 35.0137 57.9636 35.0207C57.9594 35.0282 58.2118 35.0066 58.2118 35.0066C58.2118 35.0066 58.2199 35.0679 58.242 35.0751C58.2629 35.0822 58.4679 35.0712 58.4679 35.0712L58.6176 35.0425L58.69 35.0351C58.69 35.0351 58.6005 34.9595 58.5875 34.9595C58.5747 34.9595 58.4894 34.9268 58.481 34.9232C58.4721 34.9196 58.545 34.7828 58.5406 34.7611C58.5366 34.7394 58.528 34.6637 58.5619 34.671C58.5961 34.6783 58.8274 34.6783 58.8274 34.6783C58.8274 34.6783 58.921 34.7538 58.921 34.7755C58.921 34.797 59.0707 34.8727 59.0707 34.8727C59.0707 34.8727 59.1522 34.797 59.1604 34.7827C59.1676 34.7712 59.2109 34.7306 59.2274 34.7239C59.2068 34.7097 59.1396 34.635 59.1396 34.635C59.1396 34.635 59.2119 34.5662 59.2502 34.6023C59.2892 34.6384 59.3743 34.7934 59.3743 34.7934C59.3743 34.7934 59.2971 34.9556 59.2971 34.9703C59.2971 34.9844 59.2674 35.1327 59.2674 35.1437C59.2674 35.1544 59.1818 35.2192 59.1818 35.2192C59.1818 35.2192 59.1395 35.2192 59.1395 35.2372C59.1395 35.2551 59.1987 35.3524 59.1987 35.3524C59.1987 35.3524 59.2208 35.4644 59.2329 35.4712C59.2459 35.4791 59.6736 35.7924 59.6736 35.7924L59.9512 36.0236L60.1312 36.1496L60.1821 36.1389C60.1821 36.1389 60.2252 35.9623 60.208 35.9691C60.1907 35.9766 60.1223 35.9153 60.1312 35.9047C60.1394 35.8932 60.1565 35.8427 60.1776 35.8464C60.1994 35.8503 60.2634 35.8607 60.2634 35.8607L60.1351 35.7238L60.1776 35.6483L60.2764 35.6735L60.1437 35.5546L60.0754 35.439C60.0754 35.439 60.148 35.4533 60.1528 35.4639C60.1566 35.4754 60.2339 35.4177 60.2081 35.4138C60.1823 35.4098 60.0285 35.3631 60.0285 35.3522C60.0285 35.3415 59.939 35.3235 59.934 35.3089C59.9301 35.2946 59.9513 35.2369 59.939 35.2369C59.9262 35.2369 59.7936 35.1865 59.7936 35.1865L59.7076 35.1969L59.6606 35.118L59.6861 35.0567C59.6861 35.0567 59.6042 34.9586 59.5968 34.9523C59.6034 34.9573 59.7795 34.9005 59.7962 34.8945C59.7951 34.8968 59.8795 34.8886 59.8869 34.9157C59.8958 34.9447 59.9339 34.9736 59.9339 34.9736L60.0242 34.9015C60.0242 34.9015 60.0881 34.8544 60.1138 34.8651C60.1394 34.8759 60.2634 34.898 60.2809 34.9121C60.2961 34.9254 60.3739 34.944 60.3859 34.9559C60.3847 34.9407 60.3875 34.8939 60.3875 34.8939L60.3911 34.8544L60.5116 34.7174C60.5116 34.7174 60.5581 34.6599 60.6013 34.6522C60.6441 34.6454 60.7336 34.5804 60.7506 34.5914C60.7678 34.602 60.9095 34.5986 60.9266 34.6311C60.9433 34.6634 61.0203 34.6202 61.0203 34.6202C61.0203 34.6202 60.9472 34.5446 60.9433 34.5516C60.9394 34.5587 60.7037 34.472 60.6911 34.4759C60.6781 34.4792 60.5204 34.3964 60.5204 34.3964C60.5204 34.3964 60.4388 34.3712 60.4349 34.3712C60.4307 34.3712 60.4985 34.3423 60.5241 34.335C60.5499 34.328 60.6099 34.2594 60.6099 34.2594C60.6099 34.2594 60.5802 34.2126 60.5628 34.1981C60.5455 34.1838 60.6569 34.1946 60.6952 34.209C60.7335 34.2234 60.9265 34.2306 60.9219 34.2414C60.9172 34.2521 61.0501 34.2521 61.0457 34.2811C61.0413 34.31 61.0927 34.3169 61.1099 34.3315C61.1271 34.346 61.2894 34.3676 61.2982 34.3712C61.3061 34.3747 61.4685 34.3604 61.4685 34.3819C61.4685 34.4036 61.52 34.3784 61.52 34.3784C61.52 34.3784 61.4945 34.2739 61.4646 34.2811C61.4343 34.2882 61.3785 34.2522 61.4173 34.2451C61.456 34.238 61.5286 34.2018 61.5074 34.1946C61.4857 34.1875 61.4517 34.1513 61.4004 34.1331C61.3493 34.1151 61.144 34.0758 61.1227 34.0826C61.1015 34.0901 60.7805 34.0247 60.7598 34.0247C60.7379 34.0247 60.6269 33.9998 60.6269 33.9998L59.5326 33.7509C59.5326 33.7509 58.8529 33.6897 58.8569 33.6786C58.8616 33.6681 58.4639 33.639 58.4639 33.639L58.6993 33.805L58.4639 33.7763C58.4639 33.7763 58.1735 33.7366 58.1649 33.7257C58.1561 33.715 57.3523 33.7113 57.3523 33.7113L57.2329 33.6027C57.2329 33.6027 56.8479 33.5491 56.8352 33.5454C56.8224 33.5415 56.3434 33.5454 56.3434 33.5454L55.9424 33.4949C55.9424 33.4949 55.6727 33.3973 55.6129 33.4083C55.5531 33.4191 54.9632 33.3758 54.9288 33.3613C54.8949 33.3468 54.6601 33.3758 54.6601 33.3758L54.8514 33.4984L54.5357 33.491L54.2194 33.4873L54.0994 33.437L54.1043 33.5849C54.1043 33.5849 54.0143 33.599 54.0143 33.581C54.0143 33.563 53.7362 33.4803 53.7362 33.4803C53.7362 33.4803 53.5051 33.3073 53.5012 33.3182C53.4968 33.3289 53.1259 33.2568 53.1259 33.2568L52.8943 33.2209C52.8943 33.2209 52.8259 33.246 52.8343 33.2605C52.8429 33.2749 52.9326 33.3253 52.9198 33.3361C52.907 33.3468 52.7664 33.3253 52.7664 33.3253L52.4029 33.3145L52.3383 33.2569L51.8596 33.2605C51.8596 33.2605 51.6801 33.1413 51.6756 33.1482C51.6717 33.1555 51.539 33.1741 51.539 33.1741L51.4363 33.2676L51.1459 33.2858L51.4584 33.1449L51.5695 33.0766C51.5775 33.0581 51.4918 32.9502 51.4753 32.9645C51.4584 32.9791 51.2142 32.914 51.2014 32.914C51.1886 32.914 50.821 32.9068 50.821 32.9068C50.795 32.9033 50.68 32.9068 50.68 32.9068C50.68 32.9068 50.6373 32.806 50.6158 32.8095C50.5947 32.8132 50.3164 32.8059 50.3164 32.8059C50.3164 32.8059 50.0687 32.8492 50.0594 32.8708C50.0518 32.8926 50.107 32.914 50.107 32.914C50.107 32.914 49.9746 32.997 49.9616 32.9897C49.9491 32.9825 49.5639 32.9825 49.5639 32.9825C49.5639 32.9825 49.0297 33.0798 49.0297 33.0689C49.0297 33.0597 48.8698 33.1172 48.8326 33.1311C48.864 33.1544 48.9762 33.2082 48.9614 33.2209C48.9444 33.2352 48.585 33.2497 48.5722 33.228C48.5608 33.2082 48.4187 33.2539 48.3961 33.2568C48.422 33.2658 48.5903 33.3768 48.602 33.3938C48.6147 33.4117 48.6456 33.4371 48.6875 33.4226C48.7302 33.4082 48.7686 33.3938 48.7774 33.4082C48.786 33.4226 48.7774 33.455 48.7774 33.455C48.7774 33.455 48.6703 33.4731 48.658 33.4731C48.6458 33.4731 48.5168 33.4117 48.5039 33.4082C48.4913 33.4046 48.3203 33.3721 48.2987 33.3721C48.2768 33.3721 48.1829 33.3829 48.1829 33.3829C48.1829 33.3829 48.1104 33.4371 48.1273 33.4443C48.145 33.4515 48.1876 33.5199 48.2006 33.5129C48.2132 33.5054 48.2903 33.4766 48.2943 33.5092C48.2987 33.5413 48.2048 33.567 48.2048 33.567C48.2048 33.567 48.076 33.5234 48.0718 33.5129C48.0677 33.5016 48.0077 33.4406 48.0077 33.4081C48.0077 33.3756 47.9309 33.2603 47.9096 33.2782C47.8885 33.2963 47.8115 33.3035 47.8115 33.3035L47.9056 33.3756C47.9056 33.3756 47.9865 33.4331 47.9652 33.4369C47.944 33.4405 47.884 33.4692 47.8801 33.4802C47.8757 33.4909 47.8287 33.5521 47.884 33.5521C47.9396 33.5521 48.0294 33.6245 48.0294 33.6245C48.0294 33.6245 48.0336 33.722 48.042 33.7364C48.0506 33.7508 48.1828 33.8264 48.1828 33.8264C48.1828 33.8264 48.2647 33.7832 48.2767 33.7725C48.2902 33.7616 48.4014 33.7437 48.4269 33.7652C48.4526 33.7868 48.3754 33.8408 48.3543 33.8301C48.3327 33.8192 48.2859 33.8084 48.2646 33.8156L48.2428 33.8227C48.2428 33.8227 48.2131 33.8769 48.2428 33.8876C48.2729 33.8986 48.3119 33.9346 48.3074 33.9526C48.3028 33.9705 48.2219 34.0933 48.2219 34.0933L48.1019 34.1148C48.0592 34.1077 47.991 34.0824 47.991 34.0824L48.1192 33.9997L48.1363 33.8876C48.1363 33.8876 48.1407 33.8805 48.1066 33.8552C48.0717 33.8301 47.9524 33.74 47.9524 33.74C47.9524 33.74 47.8798 33.6389 47.8798 33.6281C47.8798 33.6168 47.8457 33.5629 47.8457 33.5629C47.8457 33.5629 47.7644 33.5161 47.7472 33.5128C47.7305 33.5091 47.7305 33.4693 47.7435 33.4477C47.756 33.426 47.7305 33.3288 47.7261 33.3432C47.7212 33.3576 47.5762 33.3396 47.5589 33.336C47.5417 33.3325 47.5035 33.2927 47.5035 33.2927C47.5035 33.2927 47.4824 33.2317 47.4476 33.2568C47.4138 33.2819 47.354 33.2927 47.354 33.2927L47.2943 33.426L47.3112 33.4802L47.1916 33.5489C47.1916 33.5489 47.2925 33.6221 47.3019 33.6278C47.2946 33.6248 47.3072 33.7005 47.3112 33.7184C47.3151 33.7364 47.4948 33.7762 47.4948 33.7762C47.4948 33.7762 47.5889 33.8085 47.5973 33.8409C47.6061 33.8733 47.5716 33.9131 47.5716 33.9131L47.3881 33.8409L46.9816 33.7329C46.9816 33.7329 46.5889 33.7113 46.5971 33.7006C46.6061 33.6898 46.4473 33.6138 46.4473 33.6138L46.3575 33.6534C46.3575 33.6534 46.4428 33.7042 46.4561 33.7073C46.4689 33.7113 46.5971 33.751 46.5971 33.751C46.5971 33.751 46.6358 33.769 46.6442 33.7979C46.6531 33.8266 46.5716 33.8626 46.5716 33.8626C46.5716 33.8626 46.5162 33.8122 46.5162 33.8015C46.5162 33.7907 46.503 33.7474 46.4861 33.7545C46.4689 33.7618 46.3108 33.8303 46.3108 33.8303C46.3108 33.8303 46.1313 33.8338 46.1097 33.8482C46.0884 33.8626 45.973 33.9314 45.9644 33.9132C45.9556 33.8952 45.9814 33.8194 45.9775 33.8051C45.9731 33.7907 45.7978 33.8304 45.7978 33.8304C45.7978 33.8304 45.5716 33.8915 45.5627 33.9095C45.5543 33.9278 45.4518 33.9456 45.4342 33.9492C45.4172 33.9528 45.3961 33.9528 45.3961 33.9528C45.3961 33.9528 45.3066 33.9999 45.3233 34.0248C45.3405 34.0502 45.1994 34.0644 45.1994 34.0644C45.1994 34.0644 45.1099 34.0177 45.1057 34.0072C45.1016 33.9973 45.2028 33.9399 45.2125 33.935C45.1994 33.9421 45.1057 33.8412 45.0927 33.8376C45.0815 33.8347 44.8491 33.8397 44.8077 33.8383C44.8347 33.8466 44.9175 33.9142 44.9175 33.9241C44.9175 33.935 44.9305 34.0397 44.9305 34.0397C44.9305 34.0397 44.9983 34.076 45.0114 34.0717C45.0242 34.0685 44.9983 34.1333 44.9983 34.1333L44.8836 34.1225C44.8836 34.1225 44.8359 34.0645 44.7975 34.0973C44.759 34.13 44.6311 34.2129 44.6227 34.2021C44.6139 34.1912 44.5414 34.2129 44.5456 34.2345C44.55 34.2563 44.6055 34.3029 44.6055 34.3029C44.6055 34.3029 44.5245 34.3606 44.5324 34.3391C44.5414 34.3172 44.3106 34.2669 44.2934 34.2706C44.2757 34.2742 44.1776 34.2995 44.1776 34.2995L44.2201 34.3607C44.2201 34.3607 44.3486 34.3678 44.3655 34.3895C44.3832 34.411 44.3361 34.4543 44.3226 34.4543C44.3105 34.4543 44.0111 34.3353 44.0111 34.3353C44.0111 34.3353 43.9126 34.2489 43.9422 34.2238C43.9729 34.1985 43.9982 34.1589 43.9422 34.1589C43.887 34.1589 43.8272 34.1226 43.8233 34.1082C43.8189 34.0938 44.1604 34.1374 44.1604 34.1374L44.3575 34.1551C44.3575 34.1551 44.332 34.177 44.4089 34.1551C44.4856 34.1335 44.6139 34.0791 44.6311 34.0761C44.6482 34.0718 44.6692 34.0034 44.6692 34.0034L44.6436 33.9422L43.9089 33.7945C43.9089 33.7945 43.6649 33.7332 43.6607 33.7224C43.6565 33.7116 43.4426 33.6933 43.4426 33.6933L43.3398 33.7045L43.4259 33.6141C43.4259 33.6141 43.0919 33.5309 43.0837 33.5416C43.0747 33.5524 42.9382 33.6072 42.9382 33.6072L42.6819 33.5709L42.3524 33.6357L42.0189 33.7045L41.5362 33.8774L41.7157 33.8918L41.6383 34.0035L41.4246 34.1374L41.3053 34.303L41.2882 34.3932L41.1729 34.4976C41.1729 34.4976 41.0918 34.4616 41.0747 34.4474C41.0578 34.4327 40.7752 34.5155 40.7752 34.5155L40.6045 34.6527C40.6045 34.6527 40.5618 34.7214 40.5532 34.7394C40.5443 34.7576 40.566 34.9488 40.566 34.9488C40.566 34.9488 40.6686 34.9488 40.6385 34.974C40.6085 34.9991 40.6128 35.1148 40.6128 35.1148L40.7326 35.1829C40.7326 35.1829 40.8906 35.2265 40.9126 35.2227C40.9331 35.2192 41.0106 35.1759 41.0237 35.1687C41.0356 35.1616 41.1302 35.0823 41.16 35.0855C41.1899 35.0895 41.2667 35.0169 41.2756 35.0426C41.284 35.0679 41.3013 35.158 41.3181 35.1796C41.3352 35.2013 41.395 35.2409 41.4205 35.2912C41.4459 35.3418 41.481 35.3925 41.472 35.4028C41.4631 35.414 41.4034 35.4641 41.4034 35.4641C41.4034 35.4641 41.2756 35.4785 41.2582 35.4935C41.2413 35.5077 41.2199 35.5148 41.2071 35.5077C41.1939 35.5004 41.2497 35.4497 41.2625 35.4359C41.2755 35.4211 41.2327 35.3633 41.2155 35.3669C41.1981 35.3707 41.1815 35.3345 41.1981 35.3237C41.2155 35.3128 41.2112 35.2444 41.2112 35.2444C41.2112 35.2444 41.1856 35.2334 41.1729 35.2372C41.1601 35.2408 41.0105 35.2912 41.0105 35.2912C41.0105 35.2912 40.9293 35.3633 40.925 35.3776C40.9204 35.3925 40.8862 35.468 40.9081 35.5219C40.9293 35.5763 40.9805 35.6629 40.9805 35.6629C40.9805 35.6629 41.0356 35.6951 41.0146 35.7097C40.9936 35.724 40.9503 35.7782 40.9503 35.7782L40.8482 35.7817C40.8482 35.7817 40.6644 35.8001 40.647 35.8069C40.6301 35.8144 40.4508 35.8609 40.4589 35.8756C40.4679 35.89 40.4202 36.0453 40.4202 36.0453C40.412 36.0489 40.2323 36.157 40.2111 36.157C40.1897 36.157 40.0573 36.1857 40.0573 36.1857C40.0573 36.1857 39.9974 36.3192 39.9934 36.3119C39.9891 36.3045 39.7919 36.3912 39.7919 36.3912C39.7919 36.3912 39.6425 36.3551 39.6383 36.3405C39.634 36.3262 39.5826 36.2937 39.5785 36.3046C39.574 36.3156 39.6296 36.4278 39.6296 36.4494C39.6296 36.4705 39.6383 36.5139 39.6211 36.4998C39.6039 36.485 39.5185 36.4638 39.5015 36.4565C39.484 36.4494 39.339 36.4527 39.339 36.4527H39.2791C39.2791 36.4527 39.2062 36.507 39.2019 36.496C39.198 36.4851 39.1937 36.5431 39.1937 36.5431L39.2361 36.579L39.3905 36.633L39.5357 36.7088L39.5912 36.8241L39.6552 36.9323C39.6552 36.9323 39.6124 37.1559 39.6044 37.167C39.595 37.1776 39.5056 37.2284 39.5056 37.2284L39.2276 37.2244C39.2276 37.2244 39.0907 37.1993 39.078 37.1957C39.0652 37.1919 38.8727 37.2173 38.8689 37.2029C38.8647 37.1883 38.8045 37.1919 38.8045 37.1919L38.7743 37.1632H38.6974L38.6334 37.2243L38.5394 37.2283V37.2929C38.5394 37.2929 38.5778 37.4411 38.5735 37.4303C38.5692 37.4192 38.5565 37.6032 38.5565 37.6032C38.5565 37.6032 38.4641 37.7599 38.4548 37.7719C38.4569 37.7766 38.4497 37.8774 38.4497 37.8774L38.5054 37.9533L38.5139 38.0432C38.5139 38.0432 38.4711 38.126 38.4883 38.1189C38.5055 38.1116 38.6425 38.1224 38.6462 38.1081C38.6505 38.0938 38.732 38.0613 38.7444 38.0864C38.7571 38.1116 38.8045 38.0864 38.8178 38.13C38.8297 38.1732 38.8772 38.2344 38.8818 38.2451C38.886 38.2563 38.9201 38.2668 38.9201 38.2668L38.9329 38.2959L38.9069 38.314L38.8006 38.5157L38.565 38.6565L38.4242 38.732L38.3857 38.8225L38.326 38.8801L38.3088 38.9919C38.3088 38.9919 38.326 39.1323 38.3171 39.1398C38.3088 39.1469 37.9967 39.3958 37.9967 39.3958L37.8257 39.4282L37.7313 39.5654C37.7313 39.5654 37.6031 39.6661 37.5949 39.6846C37.586 39.7023 37.522 39.7712 37.522 39.7712C37.522 39.7712 37.5263 39.9151 37.522 39.8937C37.5176 39.872 37.3384 40.0125 37.3384 40.0125C37.3384 40.0125 37.3043 40.1785 37.2958 40.1859C37.2873 40.1928 37.2019 40.3192 37.1887 40.3156C37.1759 40.3118 37.1632 40.402 37.1632 40.4165C37.1632 40.4308 37.2057 40.474 37.2057 40.474C37.2057 40.474 37.266 40.5718 37.2701 40.5609C37.2741 40.5498 37.2741 40.5935 37.2741 40.5935L37.2146 40.6437C37.2146 40.6437 37.2787 40.7269 37.2787 40.7377V40.961L37.2101 41.0839L37.1759 41.2427L37.073 41.3111L37.0773 41.3544L37.1672 41.4156L37.1804 41.4839L37.1544 41.5599V41.636L37.2189 41.7622C37.2189 41.7622 37.2829 41.8054 37.2957 41.7945C37.3085 41.7836 37.4363 41.863 37.4537 41.8881C37.4708 41.9133 37.6287 42.0721 37.6287 42.0795C37.6287 42.0865 37.6544 42.1227 37.6544 42.1227L37.7313 42.3427C37.7313 42.3427 38.1032 42.6022 38.1118 42.5915C38.1204 42.581 38.5094 42.8258 38.5094 42.8258C38.5094 42.8258 38.8219 42.6963 38.8177 42.7073C38.8131 42.7179 39.0822 42.6963 39.0822 42.6963L39.2449 42.7179L39.3641 42.7648L39.8006 42.5955L39.8861 42.5408L40.2235 42.5304L40.3862 42.5839C40.3862 42.5839 40.493 42.7179 40.493 42.7395C40.493 42.7611 40.5571 42.8583 40.5658 42.8438C40.5741 42.8298 40.9463 42.8153 40.9593 42.8187C40.9717 42.8223 41.1343 42.9561 41.1343 42.9561L41.1258 43.0825L41.0999 43.3058L41.0485 43.4141L40.9978 43.5116L40.985 43.5802C40.985 43.5802 41.3691 44.0563 41.3691 44.0598C41.3691 44.0634 41.4675 44.2579 41.4675 44.2579L41.5834 44.5071L41.6518 44.6475L41.5834 44.7268L41.6945 44.969L41.6559 45.2067L41.4892 45.5135L41.4166 45.7406L41.438 46.0436L41.6382 46.3935L41.848 46.7939L41.8694 47.2342L42.0365 47.4971L42.1564 47.7098L42.2717 47.9409L42.3312 48.0095C42.3312 48.0095 42.3401 48.1249 42.3266 48.1249C42.3141 48.1249 42.2502 48.1288 42.2674 48.15C42.2843 48.1716 42.3824 48.316 42.3824 48.316L42.3866 48.3811L42.5232 48.4457L42.6437 48.3989C42.6437 48.3989 42.7632 48.3811 42.7762 48.3846C42.7887 48.3882 42.9552 48.3375 42.9552 48.3375L43.2117 48.3701L43.3914 48.2908L43.5881 48.28C43.5881 48.28 43.9257 48.0021 43.9257 48.0094C43.9257 48.0166 44.2371 47.6705 44.2371 47.6705L44.396 47.5548L44.4854 47.3277L44.4728 47.1802C44.4728 47.1802 44.5028 47.1039 44.5324 47.0896C44.5627 47.0753 44.853 46.931 44.853 46.931L44.9134 46.6928L44.8574 46.4582C44.8574 46.4582 44.8144 46.3684 44.8144 46.3538C44.8144 46.3396 44.8444 46.2742 44.8444 46.2742L45.1268 46.0615C45.1268 46.0615 45.1908 45.993 45.2207 45.9678C45.2508 45.9427 45.5153 45.8454 45.5153 45.8454L45.6953 45.6978L45.7252 45.1529C45.7252 45.1529 45.661 44.9504 45.6568 44.9327C45.6527 44.9143 45.5287 44.5721 45.5287 44.5574C45.5287 44.5432 45.486 44.3337 45.4812 44.3155C45.4777 44.2981 45.5793 44.0562 45.5793 44.0562L45.7208 43.8214L46.2982 43.2624L46.6233 43.0428L47.1147 42.3643L47.273 42.0504L47.3068 41.7333L47.2045 41.7188C47.2045 41.7188 47.153 41.7693 47.1402 41.7763C47.1274 41.7838 46.8325 41.7983 46.8325 41.7983L46.4733 41.8881L46.298 41.9422L46.1271 41.791L46.1526 41.6829L45.9221 41.4517L45.5971 41.1781C45.5971 41.1781 45.4341 41.0732 45.4429 41.0627C45.4517 41.0516 45.3528 40.7991 45.3528 40.8064C45.3528 40.8136 45.1906 40.6803 45.1906 40.6803L45.1864 40.4384L45.0112 40.1971L44.8192 39.901C44.8192 39.901 44.6564 39.5618 44.6392 39.5437C44.6225 39.5258 44.5583 39.4358 44.5794 39.4393C44.6008 39.443 44.7547 39.4249 44.7547 39.4249C44.7547 39.4249 45.0409 39.7101 45.0409 39.7245C45.0409 39.7389 45.2123 39.9803 45.2123 39.9803C45.2123 39.9803 45.3403 40.132 45.3403 40.1208C45.3403 40.1106 45.3702 40.2615 45.3658 40.2727C45.3616 40.2835 45.4428 40.4495 45.4428 40.4495L45.6866 40.6336L45.7378 40.7668L45.96 40.9724L46.003 41.1024L45.8531 40.9866C45.8531 40.9866 45.8061 41.0517 45.8232 41.0628C45.8402 41.0733 45.9899 41.2069 45.9899 41.2069L46.0631 41.3906L46.1187 41.564L46.1996 41.6217L46.4393 41.5821L46.4817 41.5024H46.7169L46.8194 41.4377L46.9472 41.4232C46.9472 41.4232 47.0457 41.3402 47.0542 41.3366C47.063 41.3329 47.4434 41.1926 47.4434 41.1926C47.4434 41.1926 47.4517 41.0875 47.4689 41.0875C47.4861 41.0875 47.8669 40.9866 47.8669 40.9866L47.9052 40.8641L48.0416 40.8568L48.0801 40.7741L48.2126 40.7056L48.2293 40.5251L48.3279 40.5501L48.358 40.4887L48.3239 40.4495L48.4736 40.2656L48.4778 40.2003L48.3324 40.0886L48.2642 40.0274C48.2642 40.0274 48.0332 40.0055 48.0244 39.9911C48.016 39.9766 47.9263 39.8034 47.9263 39.8034C47.9263 39.7496 47.9305 39.6519 47.9175 39.6593C47.9052 39.6664 47.8324 39.7349 47.8324 39.7349L47.5679 39.9406L47.3365 39.9911C47.3365 39.9911 47.2599 39.973 47.2554 39.9624C47.2512 39.9515 47.2426 39.7854 47.2426 39.7854C47.2426 39.7854 47.1439 39.6881 47.14 39.6738C47.1358 39.6593 47.0629 39.8002 47.0629 39.8002C47.0629 39.8002 46.9517 39.6738 46.9642 39.6698C46.977 39.6664 46.913 39.5437 46.913 39.5437L46.6911 39.3276L46.6784 39.2156C46.6784 39.2156 46.7852 39.118 46.8022 39.1144C46.8191 39.1108 46.973 39.0929 46.9903 39.14C47.0075 39.1864 47.1357 39.3457 47.1357 39.3673C47.1357 39.3888 47.332 39.533 47.3537 39.5294C47.3747 39.5258 47.4514 39.5618 47.4775 39.5763C47.503 39.5907 47.554 39.6159 47.5756 39.6342C47.5969 39.6519 47.6525 39.6414 47.6525 39.6414L47.7936 39.6232C47.7936 39.6232 47.9089 39.5294 47.9135 39.5475C47.9173 39.5658 48.0499 39.573 48.033 39.5979C48.0158 39.6233 48.0377 39.6956 48.0499 39.7172C48.0632 39.739 48.6398 39.8147 48.6398 39.8147L48.9053 39.8435C48.9053 39.8435 49.1868 39.8216 49.204 39.8216C49.2209 39.8216 49.4011 39.8364 49.418 39.8322C49.4348 39.8291 49.6914 40.0669 49.6914 40.0669L49.9308 40.1683L49.9861 40.1645L49.85 40.2151C49.85 40.2151 49.8963 40.3053 49.8963 40.316C49.8963 40.3268 50.136 40.4712 50.136 40.4712C50.136 40.4712 50.2213 40.424 50.2341 40.424C50.2471 40.424 50.3069 40.4061 50.3113 40.3808C50.3155 40.3556 50.2982 40.2836 50.3197 40.2764C50.3415 40.2691 50.3708 40.2473 50.3758 40.28C50.3796 40.3122 50.4317 40.6225 50.4228 40.6258C50.4135 40.6301 50.4954 40.8605 50.4954 40.8713C50.4954 40.8822 50.6022 41.1637 50.6062 41.1745C50.6106 41.1852 50.7856 41.5025 50.7984 41.5134C50.811 41.5243 50.9823 41.8992 50.9823 41.8992C50.9823 41.8992 51.0809 42.0544 51.0765 42.0798C51.0723 42.1051 51.1108 42.2276 51.1366 42.2421C51.1621 42.2565 51.2772 42.2926 51.2772 42.2926C51.2772 42.2926 51.3412 42.2454 51.3459 42.2313C51.3498 42.217 51.3971 42.1521 51.4137 42.1305C51.431 42.1085 51.5087 42.1017 51.5126 42.1159C51.5165 42.1305 51.6068 42.1665 51.6068 42.1665L51.5975 42.343C51.5975 42.343 51.6151 42.4581 51.6276 42.5021C51.6411 42.5453 51.7476 42.5814 51.7476 42.5814L51.8758 42.484L51.9312 42.3177L51.8034 42.1557C51.8034 42.1557 51.7053 42.0656 51.6923 42.0545C51.6793 42.0441 51.5975 42.0333 51.5975 42.0333C51.5975 42.0333 51.6068 42.0694 51.6151 42.0835C51.624 42.098 51.5975 42.1018 51.5975 42.1018L51.4994 42.0695L51.5166 41.9749C51.5166 41.9749 51.5901 41.9643 51.6026 41.9643C51.6151 41.9643 51.5975 41.8201 51.5975 41.8201C51.5975 41.8201 51.624 41.5643 51.6326 41.5571C51.6412 41.5496 51.6196 41.2974 51.5854 41.2867C51.5516 41.2758 51.5854 41.193 51.6026 41.1892C51.6196 41.1854 51.7862 41.1352 51.7862 41.1352L51.8799 40.9801C51.8799 40.9801 52.0471 40.8825 52.0599 40.8752C52.0724 40.868 52.2646 40.6952 52.2646 40.6732C52.2646 40.6519 52.2865 40.5978 52.3375 40.5901C52.3889 40.5833 52.4832 40.5255 52.4832 40.5255V40.4064C52.4832 40.4064 52.5002 40.3487 52.5386 40.3344C52.5767 40.3199 52.6752 40.3089 52.6752 40.3089C52.6752 40.3089 52.6969 40.3559 52.6838 40.363C52.6708 40.3704 52.9017 40.3089 52.9017 40.3089C52.9017 40.3089 53.0041 40.3089 53.0213 40.3055C53.0388 40.3017 53.09 40.2371 53.09 40.2371C53.09 40.2371 53.0681 40.1791 53.0978 40.1934C53.1283 40.2083 53.2011 40.2731 53.1927 40.2839C53.1836 40.2942 53.2351 40.3666 53.2226 40.3954C53.2094 40.4242 53.4191 40.6194 53.4191 40.6194C53.4191 40.6194 53.5213 40.5795 53.513 40.6084C53.5041 40.6372 53.4833 40.7276 53.4833 40.7276C53.4833 40.7276 53.5475 40.7635 53.5728 40.7672C53.5985 40.7707 53.6712 40.8897 53.6712 40.8897C53.6712 40.8897 53.654 40.9976 53.654 41.0121C53.654 41.0266 53.6633 41.1314 53.6582 41.1495C53.654 41.1674 53.8335 41.2004 53.8335 41.2004C53.8335 41.2004 53.9753 41.1022 53.9839 41.0912L53.984 41.0912ZM41.3096 35.7314L41.451 35.6303L41.4811 35.5328C41.4811 35.5328 41.6133 35.551 41.6173 35.5654C41.6215 35.5796 41.652 35.5328 41.6856 35.5582C41.7201 35.5834 41.7629 35.5795 41.7673 35.6013C41.7711 35.6231 41.797 35.6483 41.8012 35.6339C41.8054 35.6194 41.8054 35.5726 41.8054 35.5726C41.8054 35.5726 41.7673 35.5546 41.7456 35.5434C41.7241 35.5327 41.7286 35.5002 41.75 35.4898C41.7711 35.479 41.831 35.4496 41.8482 35.4606C41.8654 35.4711 41.9425 35.4462 41.9425 35.4462C41.9425 35.4462 41.9552 35.4242 41.9636 35.4139C41.9725 35.4027 42.0152 35.3055 42.0152 35.3055C42.0152 35.3055 41.9847 35.2947 41.9764 35.2621C41.9678 35.2299 42.0236 35.136 42.0367 35.1326C42.0489 35.1289 42.2163 35.0457 42.2163 35.0457C42.2163 35.0457 42.2803 34.9879 42.2546 34.9701C42.2288 34.9518 42.0366 34.8726 42.0366 34.8546C42.0366 34.8366 42.0152 34.7428 42.0277 34.7069C42.0406 34.6709 42.1178 34.6021 42.1305 34.5876C42.1434 34.5736 42.2375 34.4761 42.2546 34.4793C42.2718 34.4832 42.3358 34.4721 42.3525 34.4652C42.37 34.4577 42.5192 34.4001 42.4936 34.3966C42.4681 34.393 42.5023 34.3281 42.4892 34.3317C42.4764 34.3352 42.5023 34.2488 42.5322 34.2416C42.562 34.2345 42.6132 34.202 42.6266 34.202C42.6386 34.202 42.7419 34.2056 42.7675 34.2091C42.793 34.2128 42.8827 34.1768 42.8955 34.2091C42.9083 34.2416 42.9422 34.2488 42.9127 34.2596C42.8827 34.2704 42.8144 34.321 42.7716 34.3532C42.7291 34.3855 42.6005 34.4582 42.5833 34.4614C42.5666 34.4652 42.5573 34.4722 42.5233 34.4905C42.4892 34.5081 42.4892 34.4653 42.4811 34.5336C42.4721 34.6022 42.4597 34.6778 42.4764 34.7034C42.4936 34.7285 42.5062 34.7682 42.4892 34.7863C42.4723 34.8044 42.4848 34.8152 42.4892 34.8476C42.4936 34.88 42.5458 34.8943 42.5494 34.9088C42.5534 34.9232 42.6217 34.952 42.6217 34.952C42.6559 34.9488 42.6952 34.945 42.7031 34.9595C42.712 34.9739 42.7292 34.9668 42.7292 34.9668L42.8012 34.952C42.8012 34.952 42.8742 34.916 42.9 34.9196C42.9255 34.9232 42.9596 34.9124 42.9895 34.9196C43.0194 34.9268 43.1475 34.8908 43.1651 34.8943C43.182 34.8983 43.3014 34.8548 43.3102 34.8693C43.3188 34.8836 43.383 34.88 43.383 34.88L43.4344 34.9124C43.4344 34.934 43.383 34.9844 43.3705 34.9919C43.3575 34.999 43.3149 35.0283 43.2892 35.0207C43.2637 35.0138 43.2461 35.0244 43.212 35.0138C43.1777 35.0027 43.1136 34.9881 43.0963 34.9881C43.0792 34.9881 42.8787 35.0283 42.8787 35.0283L42.7765 35.0533L42.7588 35.104L42.7718 35.1147L42.8743 35.1687C42.8743 35.1869 42.9174 35.1759 42.9085 35.2192C42.9001 35.2624 42.8957 35.2804 42.8829 35.302C42.8698 35.3237 42.8188 35.3634 42.806 35.338C42.7932 35.3129 42.7294 35.266 42.7121 35.2552C42.6953 35.2444 42.6441 35.2516 42.6134 35.2516C42.5836 35.2516 42.5237 35.2877 42.5237 35.3274C42.5237 35.3669 42.4939 35.4179 42.5065 35.4569C42.5195 35.4971 42.5753 35.5477 42.5497 35.5727C42.5236 35.5981 42.4642 35.6161 42.4387 35.6268C42.4131 35.6377 42.3528 35.6737 42.3317 35.6809C42.3103 35.688 42.2461 35.7097 42.2331 35.6845C42.2206 35.6591 42.1948 35.6196 42.1948 35.6196C42.1948 35.6196 42.1735 35.5837 42.1646 35.5945C42.157 35.6049 42.1092 35.609 42.1092 35.609L41.9986 35.6449C41.9986 35.6449 41.9383 35.6809 41.9257 35.6881C41.9125 35.6953 41.8485 35.6953 41.8229 35.706C41.7973 35.717 41.7203 35.771 41.6992 35.7458C41.6775 35.7207 41.6651 35.7638 41.6387 35.7241C41.6137 35.6846 41.6219 35.6412 41.5917 35.6486C41.5622 35.6559 41.4933 35.6702 41.4853 35.6846C41.4764 35.699 41.4679 35.699 41.4514 35.7134C41.4342 35.7277 41.31 35.7385 41.31 35.7385V35.7314L41.3096 35.7314ZM44.8514 38.4022C44.8194 38.4727 44.8194 38.5645 44.7742 38.635C44.7292 38.7049 44.7099 38.7428 44.6781 38.7866C44.6459 38.8294 44.6459 38.8891 44.5948 38.9161C44.5436 38.9434 44.4668 38.9811 44.4218 38.9541C44.3773 38.927 44.1975 38.9325 44.1778 38.9379C44.1588 38.9434 43.941 38.9325 43.9152 38.9701C43.8896 39.0081 43.7235 38.9811 43.697 38.9701C43.6715 38.9594 43.3575 38.851 43.3319 38.8458C43.3064 38.8405 43.1454 38.7811 43.1196 38.7649C43.094 38.7485 42.934 38.732 42.9278 38.7159C42.9213 38.6996 42.9406 38.6781 42.9145 38.6835C42.8894 38.6885 42.7031 38.7375 42.6775 38.7534C42.6515 38.7702 42.5946 38.8134 42.5946 38.8134C42.5946 38.8134 42.517 38.8783 42.5234 38.9269C42.5303 38.9756 42.6006 39.0135 42.5751 39.0404C42.5495 39.0674 42.4598 39.0998 42.4598 39.0998C42.4598 39.0998 42.363 39.0242 42.3315 39.0134C42.2994 39.0026 41.9984 38.9648 41.9984 38.9648L41.8765 38.8458C41.8765 38.8458 41.6842 38.7375 41.6648 38.7321C41.6454 38.7268 41.4339 38.7321 41.4015 38.7106C41.3693 38.6885 41.2668 38.5752 41.2157 38.5807C41.1643 38.586 41.1838 38.5158 41.203 38.505C41.2221 38.4942 41.2798 38.4022 41.2735 38.386C41.2668 38.3696 41.3055 38.278 41.2415 38.251C41.1774 38.2233 41.2221 38.1314 41.2221 38.1314C41.2221 38.1314 41.2864 38.1206 41.2607 38.1206C41.2351 38.1206 41.1389 38.1261 41.113 38.0991C41.0878 38.072 41.0806 38.0613 41.0557 38.072C41.0296 38.0829 40.8692 38.1045 40.8502 38.0991C40.8308 38.0937 40.6772 38.1098 40.6516 38.1098C40.6261 38.1098 40.6581 38.1154 40.6261 38.1098C40.5935 38.1044 40.4652 38.1534 40.459 38.1747C40.4531 38.1963 40.3247 38.1697 40.3053 38.1747C40.2858 38.1801 40.1 38.1801 40.1 38.1801L39.792 38.2234C39.792 38.2234 39.5869 38.3105 39.5806 38.3375C39.5742 38.3646 39.51 38.4079 39.4909 38.4183C39.4719 38.4293 39.3565 38.4183 39.3495 38.4022C39.3434 38.386 39.1379 38.4079 39.1379 38.4079C39.1379 38.4079 39.0548 38.3697 39.0291 38.3861C39.0036 38.4023 39.0036 38.3156 39.0036 38.3156L39.0356 38.2512L39.1508 38.1861L39.4269 38.1424L39.5616 38.067L39.6446 38.0399L39.6957 37.9265C39.6957 37.9265 39.7919 37.9103 39.7855 37.8938C39.7792 37.8776 39.7539 37.8018 39.7539 37.8018L39.9395 37.5585L40.2023 37.4502L40.2472 37.3744C40.2472 37.3744 40.222 37.2771 40.2409 37.2607C40.26 37.2444 40.4332 37.2119 40.4332 37.2119L40.6514 37.2714C40.6514 37.2714 40.7667 37.2067 40.7922 37.1958C40.8177 37.1849 40.9399 37.1256 40.9399 37.1256C40.9399 37.1256 40.9523 37.0769 40.9781 37.0823C41.0037 37.0876 41.1127 37.0661 41.1258 37.1093C41.1386 37.1526 41.2348 37.288 41.2348 37.288L41.3821 37.4179L41.5234 37.5099L41.6966 37.5638C41.6966 37.5638 41.799 37.6396 41.8181 37.6451C41.8373 37.6503 41.9334 37.7426 41.9334 37.7426L41.9845 37.818C41.9845 37.818 41.9527 37.8778 41.927 37.9049C41.9015 37.9316 41.8245 38.0023 41.8052 37.9965C41.7859 37.9915 41.6381 37.9699 41.6381 37.9699L41.478 37.986C41.478 37.986 41.4528 38.0185 41.4976 38.0455C41.5424 38.0724 41.5936 38.0672 41.6383 38.0887C41.6839 38.1103 41.7991 38.1539 41.7991 38.1539C41.7991 38.1539 41.8763 38.1644 41.8763 38.1805C41.8763 38.1968 41.9016 38.1372 41.8952 38.0994C41.8888 38.0617 41.8822 38.0131 41.9271 38.0022C41.9723 37.9914 42.0425 38.0022 42.0425 37.9858C42.0425 37.9697 42.0621 37.9478 42.0621 37.9478L42.1198 37.8887L42.1133 37.851L42.1714 37.8125C42.1714 37.8125 42.1394 37.7807 42.1133 37.7533C42.088 37.7261 42.0621 37.7099 42.0807 37.6828C42.1003 37.6559 42.1642 37.6179 42.1969 37.6396C42.2288 37.6612 42.3247 37.6719 42.3183 37.6992C42.3122 37.726 42.3183 37.7638 42.3314 37.7425C42.3437 37.7207 42.3378 37.6341 42.3378 37.6341C42.3378 37.6341 42.2864 37.5748 42.2415 37.5693C42.197 37.5637 42.0807 37.5152 42.0489 37.5044C42.0171 37.4936 41.9596 37.4667 41.9596 37.4667C41.9596 37.4667 41.9849 37.4072 41.947 37.4126C41.9081 37.4179 41.7929 37.4015 41.7929 37.3855C41.7929 37.369 41.6773 37.2931 41.6714 37.2772C41.665 37.2607 41.5621 37.1418 41.5621 37.1418C41.5621 37.1418 41.504 37.0931 41.4979 37.0769C41.4912 37.0606 41.4851 37.0336 41.4722 36.9905C41.459 36.9472 41.6003 36.839 41.5939 36.8551C41.5874 36.871 41.6261 36.8929 41.6521 36.9416C41.6773 36.9905 41.78 37.0715 41.7929 37.1039C41.8056 37.1363 41.947 37.2285 41.9785 37.239C42.0112 37.2497 42.0297 37.2825 42.0941 37.304C42.1585 37.3258 42.1523 37.3362 42.2354 37.3689C42.3184 37.4014 42.3315 37.4125 42.3438 37.4284C42.3571 37.4448 42.408 37.4395 42.4276 37.4665C42.4467 37.4934 42.4724 37.4989 42.4724 37.5259C42.4724 37.5528 42.4985 37.5528 42.4849 37.6069C42.4724 37.661 42.4533 37.6772 42.4598 37.688C42.4663 37.699 42.5817 37.8993 42.6267 37.8993C42.6715 37.8993 42.8059 37.9426 42.7867 38.0073C42.7676 38.0721 42.8699 38.1588 42.8699 38.1588C42.8699 38.1588 42.9556 38.1634 43.0148 38.1717C43.0173 38.1339 43.0079 38.0734 43.0565 38.0505C43.1136 38.0234 43.1971 37.9961 43.1841 37.9694C43.171 37.9424 43.1582 37.8935 43.1071 37.8613C43.0565 37.829 43.0045 37.8121 42.9918 37.7586C42.9792 37.7044 42.9597 37.6337 43.0173 37.6556C43.0749 37.677 43.1263 37.7803 43.1525 37.7095C43.1778 37.6394 43.2417 37.5905 43.2865 37.6068C43.3319 37.6231 43.4152 37.65 43.4088 37.6717C43.4023 37.6933 43.4664 37.8667 43.4664 37.8667C43.4664 37.8667 43.492 37.8831 43.5047 37.9641C43.5175 38.045 43.6008 38.0668 43.5882 38.0938C43.5752 38.1206 43.5366 38.1368 43.6396 38.1479C43.7417 38.1588 43.8384 38.1748 43.8384 38.1964C43.8384 38.2182 43.9216 38.2294 43.9345 38.2453C43.9471 38.2616 44.024 38.2939 44.037 38.2616C44.0498 38.2295 44.0755 38.164 44.0947 38.1749C44.114 38.1861 44.2742 38.1861 44.2871 38.2296C44.3005 38.2722 44.4092 38.2722 44.4092 38.2837C44.4092 38.2941 44.5053 38.2566 44.5053 38.2566C44.5053 38.2566 44.6398 38.1699 44.6783 38.1861C44.7166 38.2023 44.8253 38.1262 44.8126 38.1966C44.8 38.267 44.8836 38.3321 44.8514 38.4022ZM45.4923 37.45C45.4735 37.4664 45.3512 37.569 45.3512 37.569L45.1075 37.5418H44.941L44.8 37.4987C44.8 37.4987 44.7036 37.4717 44.6845 37.4554C44.665 37.4391 44.5436 37.4011 44.5436 37.4011L44.2869 37.4499L44.088 37.4987L44.0179 37.5526L43.7805 37.5041L43.6396 37.4447L43.5622 37.3741H43.6328L43.6077 37.2877L43.6201 37.2283L43.6839 37.1956L43.7291 37.0388L43.8063 37.0117L43.8253 36.9308C43.8253 36.9308 43.8895 36.8818 43.909 36.8656C43.9282 36.8496 43.9922 36.7735 43.9922 36.7735L44.1457 36.8277C44.1457 36.8277 44.306 36.8441 44.2805 36.8497C44.2544 36.8549 44.1777 36.9309 44.1777 36.9309C44.1777 36.9309 44.2354 36.9575 44.2619 36.9741C44.2869 36.9903 44.345 37.0171 44.332 37.0498C44.319 37.0821 44.4281 37.0768 44.4281 37.0768L44.4667 37.0227L44.6459 36.9849L44.71 36.9576L44.6073 36.931C44.6073 36.931 44.5176 36.9036 44.5306 36.8873C44.5436 36.8709 44.6268 36.7628 44.6268 36.7628C44.6268 36.7628 44.8385 36.7089 44.8575 36.7089C44.8763 36.7089 45.0054 36.6873 45.0054 36.6873C45.0054 36.6873 44.9028 36.7738 44.8896 36.7902C44.8763 36.8066 44.8963 36.8603 44.864 36.8822C44.8323 36.9037 44.7868 36.9256 44.7679 36.9312C44.7482 36.9361 44.7611 36.9905 44.7804 36.996C44.8002 37.0015 44.864 37.023 44.864 37.023L45.1463 37.1472L45.3193 37.2932L45.4544 37.3856C45.4544 37.3852 45.5116 37.4339 45.4923 37.45ZM47.1213 38.1639L46.9604 38.1801C46.9604 38.1801 46.8196 38.1314 46.8136 38.1099C46.8066 38.0884 46.7747 38.0397 46.7554 38.0505C46.7363 38.0614 46.6722 38.0668 46.6531 38.0614C46.634 38.0559 46.5629 38.0073 46.5629 37.9856C46.5629 37.9642 46.5433 37.9155 46.5756 37.8936C46.6081 37.8721 46.6721 37.8344 46.6591 37.8177C46.6468 37.8017 46.6397 37.7319 46.6397 37.7205C46.6397 37.7096 46.6397 37.699 46.6786 37.6935C46.7169 37.688 46.7169 37.688 46.7169 37.688C46.7169 37.688 46.7296 37.6557 46.7103 37.6394C46.6912 37.6231 46.5754 37.5528 46.5627 37.5367C46.5507 37.5206 46.4088 37.407 46.3897 37.3903C46.3707 37.3744 46.2872 37.3258 46.2872 37.3258L46.2424 37.2444L46.2807 37.1417L46.1656 37.12L46.1401 37.05V37.0336L46.2615 36.9148C46.2615 36.9148 46.3452 36.877 46.3642 36.8873C46.3834 36.8986 46.428 36.855 46.4354 36.8388C46.4411 36.8222 46.5628 36.752 46.5889 36.7412C46.6143 36.7305 46.659 36.6818 46.685 36.7089C46.7103 36.7358 46.8706 36.7793 46.8706 36.7793C46.8706 36.7793 46.9287 36.79 46.9217 36.8114C46.9155 36.8334 46.8641 36.9741 46.8641 36.9741C46.8641 36.9741 46.7491 36.947 46.7363 36.9524C46.7239 36.9576 46.634 36.985 46.6531 37.0281C46.6722 37.0714 46.5827 37.0444 46.589 37.066C46.5951 37.0875 46.6081 37.12 46.6275 37.1308C46.6468 37.1416 46.7553 37.1902 46.7683 37.2227C46.7808 37.2554 46.9603 37.3528 46.9603 37.3528C46.9603 37.3528 46.9797 37.3635 46.9733 37.3855C46.9672 37.407 46.954 37.5206 46.9733 37.5206C46.9925 37.5206 47.0371 37.515 47.0371 37.515C47.0371 37.515 47.0954 37.4124 47.1147 37.4233C47.1338 37.434 47.2108 37.4826 47.2301 37.5205C47.2488 37.5583 47.2877 37.596 47.2684 37.6069C47.2487 37.6175 47.1592 37.6123 47.1337 37.6123C47.1085 37.6123 47.0631 37.5852 47.0503 37.596C47.0371 37.6069 47.012 37.6338 47.031 37.6662C47.0503 37.6989 47.0891 37.7475 47.1085 37.7586C47.1274 37.7692 47.1464 37.7635 47.2045 37.8073C47.2622 37.8506 47.2813 37.872 47.2622 37.9208C47.2428 37.9694 47.2556 38.0128 47.2622 38.0288C47.2685 38.045 47.2813 38.0829 47.2943 38.0991C47.3068 38.1154 47.3068 38.1368 47.3068 38.1368L47.1213 38.1639ZM44.8081 33.8378C44.8058 33.8371 44.8034 33.8371 44.8025 33.8371C44.8005 33.8378 44.8025 33.8378 44.8081 33.8378ZM60.3875 34.959C60.3875 34.9582 60.3875 34.9567 60.386 34.9556C60.3871 34.9594 60.3871 34.9612 60.3875 34.959ZM48.8254 33.1336C48.8254 33.1336 48.8281 33.1331 48.8333 33.131C48.8289 33.1276 48.8259 33.1251 48.8254 33.1235C48.8212 33.1087 48.8254 33.1336 48.8254 33.1336ZM47.0087 45.2167C47.0087 45.2167 46.8716 45.347 46.8634 45.3689C46.8544 45.3902 46.7437 45.5056 46.726 45.5416C46.7089 45.5776 46.5726 45.6568 46.5726 45.6568L46.3246 45.7435C46.3246 45.7435 46.2393 45.7507 46.2647 45.78C46.2901 45.8092 46.2475 45.8373 46.1881 45.9024C46.128 45.9671 46.1881 46.0536 46.1881 46.0536L46.2219 46.1979V46.3351C46.2219 46.3351 46.1705 46.4866 46.1449 46.4937C46.1196 46.5011 46.0768 46.5443 46.0513 46.6166C46.0253 46.6886 46.0341 46.7391 46.0341 46.7391C46.0341 46.7391 46.0513 46.8473 46.0253 46.8691C45.9992 46.8907 46.068 46.9987 46.0941 47.0352C46.1196 47.071 46.1881 47.0925 46.1881 47.0925C46.1881 47.0925 46.2475 47.136 46.2734 47.1502C46.2989 47.1647 46.4271 47.1219 46.4271 47.1219C46.4271 47.1219 46.5214 47.0859 46.5467 47.0711C46.5725 47.0564 46.5898 47.0496 46.6406 46.9774C46.6922 46.9052 46.6581 46.9268 46.6662 46.9052C46.6753 46.8837 46.7259 46.7896 46.752 46.6671C46.7775 46.5444 46.7863 46.5516 46.8204 46.4435C46.8543 46.3352 46.8971 46.3062 46.9057 46.22C46.9143 46.1334 46.9226 46.0971 46.931 46.068C46.9398 46.0394 47.0257 45.9313 47.0338 45.8589C47.0422 45.7871 47.0422 45.7508 47.0257 45.7222C47.0087 45.693 47.1282 45.7145 47.145 45.6713C47.1625 45.6279 47.145 45.6713 47.1538 45.65C47.1625 45.628 47.1713 45.4912 47.1713 45.412C47.1713 45.3326 47.0772 45.2095 47.0677 45.1883C47.0599 45.1666 47.0087 45.2167 47.0087 45.2167ZM55.5492 44.171C55.5752 44.1133 55.5492 44.106 55.5323 44.0772C55.5154 44.0484 55.5661 43.9188 55.6348 43.8681C55.7031 43.8174 55.6007 43.81 55.6007 43.81L55.4981 43.8245L55.404 43.673C55.404 43.673 55.2415 43.5652 55.1904 43.5361C55.139 43.5075 55.2668 43.4494 55.2668 43.4494C55.2668 43.4494 54.9768 43.2186 54.9425 43.2186C54.9084 43.2186 54.737 43.1034 54.7115 43.0958C54.6859 43.0889 54.5492 42.8939 54.5492 42.8939L53.9676 42.6488C53.9676 42.6488 53.8908 42.7067 53.8908 42.7353C53.8908 42.7642 53.9935 42.7786 53.9935 42.7786C53.9935 42.7786 54.0275 42.8001 54.0617 42.8147C54.0958 42.8292 54.1983 42.9012 54.207 42.952C54.2153 43.0022 54.2327 43.0312 54.2925 43.0742C54.3527 43.1176 54.4548 43.1396 54.4548 43.1396C54.4548 43.1396 54.498 43.262 54.5322 43.2765C54.5662 43.291 54.592 43.3556 54.6087 43.3919C54.6259 43.428 54.7886 43.6515 54.7794 43.7309C54.7712 43.8103 54.8998 43.998 54.8998 43.998C54.8998 43.998 55.1905 44.1925 55.1991 44.2216C55.2075 44.2502 55.4205 44.3009 55.4205 44.3009C55.4205 44.3009 55.5236 44.2285 55.5492 44.171ZM57.5327 42.692C57.5327 42.6632 57.4386 42.5984 57.4127 42.5694C57.3872 42.5403 57.2335 42.425 57.1994 42.4034C57.1655 42.3818 57.1994 42.4034 57.1482 42.4831C57.097 42.5623 57.0369 42.656 57.011 42.6631C56.9853 42.6703 56.7977 42.7712 56.7461 42.8216C56.6949 42.8721 56.5926 43.0021 56.5585 42.981C56.5244 42.959 56.3783 43.0741 56.3783 43.0741L56.3016 43.2328L56.0621 43.1898L56.079 43.2549C56.079 43.2549 56.0025 43.3554 56.0197 43.3775C56.0369 43.3992 56.0197 43.4787 56.0452 43.5215C56.0706 43.5652 56.0964 43.5939 56.1391 43.6227C56.1818 43.6515 56.1903 43.7453 56.1647 43.8174C56.139 43.8896 56.1991 43.9039 56.233 43.9332C56.2671 43.9618 56.344 43.9692 56.3783 43.9472C56.4125 43.9255 56.481 43.9187 56.5243 43.9402C56.5661 43.9618 56.6779 43.9618 56.7119 43.9979C56.746 44.0339 56.8829 44.0122 56.9082 44.0339C56.9343 44.0555 57.071 44.0122 57.1049 43.983C57.1387 43.9547 57.1049 43.8971 57.1049 43.8029C57.1049 43.7092 57.1221 43.7165 57.1823 43.6803C57.2421 43.6443 57.2848 43.6154 57.2932 43.5652C57.3021 43.5144 57.319 43.428 57.319 43.3846C57.319 43.3412 57.4559 43.3486 57.4812 43.3341C57.5076 43.3196 57.464 43.2909 57.464 43.2693C57.464 43.2474 57.3529 43.1466 57.3276 43.1105C57.3021 43.0742 57.3701 42.8939 57.4126 42.8651C57.456 42.8362 57.5327 42.7209 57.5327 42.692ZM56.3358 44.6325C56.3613 44.6397 56.421 44.6397 56.5488 44.6685C56.6778 44.6973 56.7975 44.7047 56.8143 44.7334C56.8315 44.762 56.9421 44.7334 56.9941 44.7264C57.0453 44.7189 57.1653 44.6251 57.2421 44.6974C57.3191 44.7696 57.4727 44.7189 57.4984 44.7334C57.524 44.7475 57.6016 44.6974 57.695 44.7048C57.7893 44.7117 57.7978 44.7334 57.8234 44.7334C57.8489 44.7334 57.9344 44.7552 57.9773 44.7475C58.0201 44.7405 58.0712 44.6973 58.1482 44.7047C58.2256 44.7116 58.4301 44.6538 58.4301 44.6538C58.4301 44.6538 58.4301 44.6612 58.3795 44.69C58.3279 44.7188 58.1568 44.8268 58.1568 44.8268C58.1568 44.8268 58.131 44.8126 58.1224 44.856C58.1141 44.8992 58.0629 44.986 58.1141 44.9495C58.1656 44.9139 58.3451 44.7839 58.388 44.7551C58.4302 44.7263 58.4474 44.7116 58.4902 44.69C58.5329 44.6684 58.6268 44.6466 58.6268 44.6466L58.687 44.6106C58.687 44.6106 58.6355 44.5819 58.6097 44.589C58.5845 44.5965 58.5413 44.5604 58.4819 44.5819C58.4218 44.6035 58.2596 44.6251 58.2596 44.6251C58.2596 44.6251 58.1569 44.6397 58.0971 44.6182C58.0374 44.5966 57.9686 44.5604 57.9431 44.5891C57.9176 44.6182 57.7723 44.654 57.7462 44.654C57.721 44.654 57.6268 44.6468 57.5584 44.6326C57.49 44.6183 57.4728 44.6183 57.4387 44.6183C57.4045 44.6183 57.4045 44.5967 57.3105 44.5892C57.2162 44.5821 57.1901 44.5606 57.1655 44.5676C57.1389 44.5752 57.0971 44.5821 57.063 44.5967C57.0284 44.6107 56.9254 44.6107 56.9005 44.5892C56.8744 44.5676 56.6177 44.5244 56.6177 44.5244C56.6177 44.5244 56.5838 44.4884 56.661 44.4668C56.7377 44.4452 56.721 44.4452 56.7119 44.4165C56.7036 44.3872 56.575 44.3872 56.5413 44.395C56.5072 44.4017 56.4211 44.4165 56.387 44.3872C56.3531 44.3589 56.2504 44.2859 56.2165 44.3294C56.182 44.3728 56.1993 44.4306 56.1649 44.4236C56.131 44.4165 55.8996 44.4379 55.8996 44.4165C55.8996 44.395 55.8398 44.3369 55.8141 44.3294C55.7885 44.3224 55.7971 44.3009 55.7545 44.2859C55.7116 44.2723 55.6263 44.2934 55.6263 44.2934L55.5409 44.3009L55.4381 44.4017C55.4381 44.4017 55.6775 44.4236 55.7032 44.4523C55.7287 44.4813 55.8571 44.5675 55.8571 44.5675C55.8571 44.5675 56.0277 44.6036 56.0707 44.6107C56.1136 44.6182 56.3103 44.6251 56.3358 44.6325ZM56.054 40.5857C56.0275 40.5714 55.9597 40.5714 55.9597 40.5714L55.8741 40.6001L55.8314 40.5857L55.737 40.694C55.737 40.694 55.7628 40.8165 55.7884 40.8165H55.9081L56.0025 40.7589L56.054 40.6509C56.054 40.6509 56.079 40.6001 56.054 40.5857ZM57.4386 40.2972L57.49 40.2104C57.49 40.2104 57.5157 40.1238 57.524 40.1023C57.5327 40.0803 57.5665 40.0156 57.5415 39.9795C57.5157 39.9435 57.5327 39.8931 57.5157 39.8642C57.4984 39.8356 57.49 39.7922 57.49 39.7922L57.4044 39.8209C57.3703 39.8497 57.3191 39.9795 57.3191 39.9795C57.3191 39.9795 57.2849 40.1098 57.3104 40.138C57.336 40.1674 57.4044 40.2465 57.4044 40.2465L57.4386 40.2972ZM58.5157 42.4683C58.5926 42.4901 58.6184 42.476 58.6096 42.4464C58.6012 42.4176 58.5754 42.2664 58.5584 42.2089C58.5412 42.1512 58.6609 42.1077 58.5328 42.0214C58.4048 41.9344 58.4134 41.9421 58.4048 41.9344C58.3961 41.9272 58.3961 41.8552 58.3961 41.8552C58.3961 41.8552 58.4217 41.7832 58.4048 41.7617C58.3878 41.7401 58.3706 41.6967 58.3534 41.6752C58.3362 41.6535 58.3362 41.6464 58.2848 41.6464C58.2336 41.6464 58.2336 41.5958 58.1995 41.6027C58.1656 41.61 58.0799 41.6676 58.1395 41.5816C58.1995 41.4945 58.1655 41.4801 58.1655 41.4657C58.1655 41.4513 58.1222 41.4298 58.0798 41.4226C58.0373 41.4152 58.0027 41.372 57.943 41.3864C57.8833 41.4013 57.8577 41.3651 57.8234 41.3651C57.7892 41.3651 57.7722 41.3287 57.7638 41.2858C57.755 41.2424 57.7722 41.1558 57.7722 41.1343C57.7722 41.1124 57.8234 41.0476 57.8234 41.0476C57.8234 41.0476 57.8405 41.0184 57.8234 40.9682C57.8064 40.9178 57.7722 40.8312 57.7722 40.7952C57.7722 40.7592 57.6778 40.723 57.6778 40.723L57.5665 40.7591L57.524 41.0766C57.524 41.0766 57.4471 41.0979 57.4559 41.1267C57.464 41.1558 57.464 41.2929 57.507 41.3217C57.5495 41.3502 57.6183 41.3864 57.6183 41.3864C57.635 41.4226 57.593 41.4944 57.593 41.4944C57.593 41.4944 57.695 41.5959 57.7042 41.6248C57.7123 41.6534 57.7639 41.6389 57.7639 41.6389C57.7639 41.6389 57.7384 41.4442 57.7893 41.48C57.8407 41.5163 57.9773 41.5095 57.9856 41.5524C57.9945 41.5958 58.0884 41.6389 58.1051 41.6824C58.1222 41.7257 58.2336 41.7402 58.2255 41.7759C58.2167 41.8121 58.1481 41.8121 58.1051 41.8192C58.0628 41.8265 57.9259 41.7402 57.9259 41.7402C57.9259 41.7402 57.8917 41.733 57.8834 41.776C57.875 41.8193 57.9003 41.9274 57.9346 41.9634C57.9685 41.9997 58.0029 41.9634 58.0202 41.985C58.0374 42.007 58.0202 42.0574 58.0459 42.0864C58.0712 42.1152 58.1396 42.1222 58.1656 42.1077C58.1911 42.0936 58.2767 42.0573 58.2767 42.0573C58.2767 42.0573 58.2677 41.9708 58.2337 41.9561C58.1996 41.9418 58.1482 41.8984 58.1742 41.8771C58.1995 41.8553 58.2507 41.8121 58.2767 41.8192C58.3018 41.8264 58.3623 41.9202 58.3534 41.9418C58.3451 41.9633 58.3534 41.9708 58.3878 42.0499C58.4217 42.1297 58.439 42.1152 58.3961 42.1297C58.3534 42.1438 58.3108 42.1874 58.2848 42.2017C58.2792 42.2051 58.2783 42.2072 58.2792 42.2085C58.2729 42.2068 58.2565 42.2043 58.2167 42.2017C58.1051 42.1945 58.131 42.1513 58.1051 42.1945C58.0799 42.2377 58.0539 42.2737 58.0539 42.2737L57.9945 42.2953C57.9945 42.2953 57.9515 42.4105 57.96 42.4465L57.9684 42.4832C57.9684 42.4832 58.0539 42.3458 58.0798 42.3458C58.105 42.3458 58.105 42.3818 58.1396 42.3601C58.1741 42.3386 58.2084 42.3532 58.2084 42.3532C58.2084 42.3532 58.2595 42.3313 58.2507 42.3888C58.2429 42.4465 58.2429 42.4537 58.2677 42.5121C58.294 42.5695 58.3624 42.5984 58.3879 42.62C58.4134 42.6415 58.4473 42.656 58.4646 42.6704C58.4818 42.6847 58.4902 42.6055 58.4818 42.5478C58.4729 42.4901 58.4389 42.4464 58.5157 42.4683ZM57.9175 43.3413C58.0121 43.3846 58.0712 43.4065 58.1481 43.428C58.2255 43.4496 58.3018 43.3846 58.3192 43.3993C58.3361 43.4135 58.4134 43.3486 58.4134 43.3486C58.4134 43.3486 58.4728 43.2764 58.4646 43.255C58.456 43.233 58.4473 43.1682 58.4301 43.1899C58.4135 43.2113 58.2507 43.2909 58.2168 43.2979C58.1829 43.3051 58.0971 43.2764 58.0202 43.2764C57.9431 43.2764 57.7551 43.2258 57.7291 43.2474C57.7043 43.2694 57.6268 43.3556 57.6352 43.392C57.644 43.428 57.6352 43.4496 57.6352 43.4716C57.6352 43.4931 57.6096 43.594 57.6096 43.5653L57.4901 43.8317C57.4901 43.8317 57.5839 44.0341 57.5757 44.0702C57.5667 44.106 57.5497 44.3083 57.5757 44.2863C57.6017 44.2644 57.7292 44.2503 57.7292 44.2503C57.7292 44.2503 57.7724 44.1204 57.764 44.0628C57.7552 44.0052 57.678 43.8247 57.7463 43.8392C57.8152 43.8537 57.8835 43.9257 57.8835 43.9257C57.8835 43.9257 57.832 43.9694 57.8491 43.9981C57.8663 44.0268 57.9261 44.0628 57.9177 44.1278C57.9091 44.1927 57.9432 44.2217 57.9432 44.1998C57.9432 44.1782 58.0289 44.2142 58.0375 44.2287C58.0447 44.2417 58.1257 44.1813 58.1382 44.1818C58.1393 44.1603 58.152 44.0718 58.1311 44.0484C58.1053 44.0197 58.1053 43.9765 58.046 43.9188C57.9857 43.8605 58.063 43.8465 58.003 43.7811C57.9432 43.7166 57.9177 43.7381 57.9432 43.7166C57.9685 43.6948 58.0203 43.6804 58.063 43.6588C58.1053 43.6371 58.1397 43.5796 58.1397 43.5796C58.1483 43.558 58.1657 43.5653 58.0972 43.5508C58.0288 43.5363 57.9686 43.5216 57.926 43.5653C57.8835 43.6083 57.8407 43.6155 57.8407 43.6155L57.8066 43.6228C57.7725 43.63 57.7808 43.5796 57.7552 43.5723C57.7291 43.5653 57.7291 43.558 57.7125 43.5076C57.6952 43.457 57.7125 43.3776 57.7384 43.3628C57.7638 43.3486 57.8234 43.2979 57.9175 43.3413ZM58.1395 44.1853C58.1406 44.1828 58.1395 44.1819 58.138 44.1817C58.138 44.1866 58.138 44.1894 58.1395 44.1853ZM61.4907 44.1853C61.4825 44.1419 61.4735 44.0916 61.4486 44.0556C61.4223 44.0196 60.8664 43.7739 60.7981 43.7524C60.7297 43.7308 60.3715 43.637 60.3715 43.637C60.3715 43.637 60.1999 43.6947 60.1999 43.7165C60.1999 43.738 60.1143 43.8175 60.0799 43.8465C60.0461 43.8751 60.0545 43.904 60.0033 43.897C59.9518 43.8897 59.9437 43.897 59.9172 43.8752C59.8924 43.8537 59.8664 43.7811 59.8322 43.7598C59.7978 43.7382 59.7297 43.7093 59.7462 43.6517C59.7638 43.594 59.7889 43.5148 59.7378 43.5148C59.6867 43.5148 59.61 43.5438 59.5927 43.5216C59.5756 43.5004 59.4733 43.5077 59.4733 43.5077L59.2598 43.5581L59.2333 43.5654C59.2333 43.5654 59.3278 43.7167 59.388 43.7021C59.4478 43.6879 59.5586 43.8032 59.5586 43.8032C59.5586 43.8032 59.5247 43.8683 59.5416 43.8898C59.5586 43.9114 59.6272 44.0198 59.6272 44.0198L59.7638 44.0125L59.9005 44.0629L60.2684 44.1639L60.3714 44.2645L60.4312 44.4815C60.4312 44.4815 60.2768 44.5678 60.2856 44.6039C60.294 44.64 60.4824 44.5969 60.4824 44.5969L60.636 44.6617L60.8236 44.7409L61.0379 44.7479L61.1657 44.6255C61.1657 44.6255 61.3535 44.4885 61.3535 44.5174C61.3535 44.5463 61.5249 44.6039 61.5507 44.6689C61.5767 44.7338 61.7303 44.8496 61.7303 44.8496C61.7303 44.8496 61.9436 44.9072 61.9695 44.9145C61.9948 44.9212 62.0551 44.9288 62.1152 44.9431C62.175 44.9575 62.055 44.813 62.055 44.813C62.055 44.813 61.8667 44.7193 61.8583 44.6831C61.85 44.647 61.6961 44.5392 61.7046 44.503C61.713 44.467 61.6358 44.4238 61.6704 44.4238C61.7047 44.4238 61.8412 44.4095 61.8242 44.3874C61.8072 44.3662 61.7131 44.2288 61.6704 44.2288C61.6278 44.2286 61.4997 44.2286 61.4907 44.1853ZM61.7816 46.6234C61.7816 46.6234 61.6877 46.5877 61.6791 46.6021C61.6706 46.6166 61.6361 46.465 61.6361 46.465L61.6532 46.3857C61.6532 46.3857 61.3964 46.1113 61.3886 46.1333C61.3793 46.1548 61.2942 45.9096 61.2942 45.9096L61.2687 45.6428L61.2089 45.484L61.0552 45.4984L61.0208 45.2386L60.9348 44.9933L60.8925 44.979L60.8069 45.1447C60.8069 45.1447 60.7642 45.3758 60.7469 45.4552C60.7297 45.5344 60.7213 45.65 60.6702 45.7222C60.6188 45.7944 60.499 45.9671 60.499 45.9671C60.499 45.9671 60.3622 45.9671 60.3449 45.9456C60.3279 45.924 60.1743 45.8589 60.1743 45.8589L60.0798 45.7364L59.9265 45.6356C59.9265 45.6356 59.823 45.5271 59.8149 45.5344C59.8066 45.5415 59.8924 45.4336 59.9171 45.419C59.9436 45.4047 59.9516 45.3327 59.9516 45.3327L60.0884 45.2387C60.0884 45.2387 60.1141 45.2025 60.0884 45.1812C60.0627 45.1593 60.0627 45.1232 60.0286 45.1158C59.9943 45.1087 59.7976 45.1884 59.7976 45.1884L59.6353 45.1232C59.6353 45.1232 59.5154 45.0726 59.4903 45.0365C59.4645 45.0007 59.3958 44.979 59.3789 44.9934C59.3617 45.0078 59.3789 45.0798 59.3789 45.0798C59.3789 45.0798 59.414 45.1434 59.4263 45.1632C59.4106 45.152 59.3532 45.1883 59.3532 45.1883L59.1908 45.2023L59.0879 45.2817L59.011 45.4045L58.9599 45.4911C58.9599 45.4911 59.0024 45.5488 58.9855 45.5415C58.9683 45.5343 58.7374 45.5921 58.7374 45.5921C58.7374 45.5921 58.6772 45.484 58.6516 45.4623C58.6261 45.4405 58.5493 45.4045 58.515 45.4045C58.4811 45.4045 58.3955 45.4696 58.3955 45.4696L58.3617 45.6209L58.2331 45.5921L58.1217 45.7507L58.0116 45.787L57.951 45.8951L57.9171 45.78L57.7888 45.8808L57.7458 46.0463C57.7458 46.0463 57.5833 46.1764 57.5661 46.2052C57.5492 46.2338 57.1896 46.3426 57.1896 46.3426L56.9594 46.4073C56.9594 46.4073 56.8397 46.4289 56.814 46.4289C56.7885 46.4289 56.5658 46.5661 56.5658 46.5661L56.4895 46.6309L56.4637 46.5732L56.3696 46.6597V46.8401L56.2755 46.9481L56.3269 47.1139L56.25 47.1358L56.1816 47.1793L56.2586 47.3092L56.2842 47.5467C56.2842 47.5467 56.3268 47.6191 56.3184 47.6626C56.3099 47.7054 56.2755 47.7489 56.2755 47.7777C56.2755 47.8065 56.3012 47.9146 56.3012 47.9434C56.3012 47.9724 56.224 48.1604 56.224 48.1604L56.1304 48.29L56.0537 48.2973C56.0537 48.2973 56.0702 48.4345 56.0961 48.4345C56.1216 48.4345 56.1989 48.463 56.2669 48.4851C56.3356 48.5062 56.4466 48.4706 56.4723 48.4631C56.4978 48.4558 56.6862 48.3694 56.6862 48.3694C56.6862 48.3694 56.7972 48.3046 56.8313 48.3117C56.8654 48.3189 57.0198 48.2974 57.0449 48.3117C57.0707 48.3262 57.2673 48.3189 57.2673 48.3189L57.3867 48.2109L57.7119 48.0881L57.8746 48.0736L58.2672 47.98L58.6007 48.0087C58.6007 48.0087 58.8832 48.1821 58.8832 48.1676C58.8832 48.1533 58.943 48.2615 58.943 48.2615L58.926 48.3982C58.926 48.3982 59.0198 48.4632 59.0282 48.4416C59.037 48.4199 59.1312 48.3334 59.1569 48.3118C59.1819 48.2902 59.2596 48.2615 59.3195 48.2255C59.379 48.1893 59.3959 48.1676 59.3959 48.1676C59.3959 48.1676 59.3364 48.3118 59.3104 48.3118C59.2849 48.3118 59.2331 48.355 59.2076 48.3839C59.182 48.4126 59.1398 48.4347 59.1398 48.4491C59.1398 48.4632 59.191 48.4632 59.216 48.4491C59.242 48.4347 59.2849 48.391 59.3195 48.3765C59.3533 48.3622 59.3709 48.3695 59.3618 48.4055C59.3534 48.4415 59.3534 48.4773 59.3195 48.4918C59.2848 48.5063 59.242 48.5278 59.182 48.557C59.1228 48.586 59.0799 48.564 59.054 48.586C59.0283 48.6077 59.071 48.6295 59.0881 48.6436C59.1053 48.6581 59.1484 48.7016 59.182 48.6511C59.216 48.6005 59.2597 48.564 59.2848 48.5499C59.3104 48.5358 59.3618 48.4918 59.3618 48.5279C59.3618 48.5641 59.3879 48.6005 59.3959 48.6296C59.4048 48.6581 59.3364 48.7158 59.3445 48.7301C59.3533 48.7446 59.4392 48.9033 59.4392 48.9033C59.4392 48.9033 59.4904 48.9607 59.5498 48.9607C59.6098 48.9607 59.7376 48.9971 59.7636 49.0046C59.7887 49.0114 59.9091 49.0046 59.9264 48.9755C59.9435 48.9465 60.0458 48.8889 60.0374 48.9104C60.0286 48.9321 60.0458 48.9755 60.0714 48.9971C60.0969 49.0186 60.1397 49.0768 60.1397 49.0768L60.4562 48.8671C60.4562 48.8671 60.6954 48.8238 60.7038 48.8456C60.7127 48.8671 60.8661 48.7016 60.8661 48.7016L61.3533 48.1967L61.5422 48.0882L61.6787 47.9222L61.8665 47.6333L61.9692 47.3095L62.0462 47.0641L61.8581 46.8256L61.7816 46.6234ZM59.8834 49.3144C59.8834 49.3144 59.764 49.2495 59.7464 49.228V49.2062L59.6613 49.4296L59.5846 49.668C59.5846 49.668 59.738 49.6825 59.7552 49.6896C59.7724 49.6966 60.029 49.5671 60.0378 49.5381C60.0462 49.5091 60.2173 49.2712 60.2173 49.2712C60.2173 49.2712 59.9439 49.3216 59.8834 49.3144ZM64.5174 48.8962L64.4318 48.8236C64.4318 48.8236 64.4407 48.7228 64.4146 48.7228C64.3894 48.7228 64.3462 48.73 64.3462 48.73L64.3893 48.4772L64.2346 48.3982L64.2009 48.7877L64.0895 49.0046L63.8678 49.0767C63.8678 49.0767 63.9617 49.1558 63.9959 49.1558C64.0298 49.1558 63.9701 49.2424 63.9701 49.2424L63.8248 49.3507C63.8248 49.3507 63.7738 49.3288 63.7738 49.2712C63.7738 49.2133 63.6367 49.3288 63.6367 49.3288L63.5428 49.2782L63.2861 49.4655L62.9357 49.6173L62.1152 50.0432L62.226 50.0936C62.226 50.0936 62.3286 50.1297 62.3372 50.1442C62.3455 50.1584 62.5936 50.0503 62.5936 50.0503L62.8759 49.8769L63.0122 49.7762C63.0122 49.7762 63.2607 49.7185 63.2519 49.7474C63.2437 49.7762 63.3288 49.6104 63.3288 49.6104L63.5682 49.5022L63.7137 49.3797L63.8332 49.4081L64.0042 49.3576L64.2949 49.1991L64.3461 49.069L64.4406 49.0767L64.6196 48.9682L64.7392 48.795L64.5174 48.8962ZM30.0644 33.0763C30.1327 33.0975 30.1753 33.105 30.3209 33.1122C30.4664 33.1191 30.4835 33.105 30.5518 33.1264C30.6196 33.1478 30.6797 33.1847 30.7056 33.1334C30.7311 33.0832 30.7653 33.0832 30.7909 33.0543C30.8164 33.0255 30.7909 32.9966 30.8335 32.9822C30.8762 32.9679 30.9533 33.04 30.9533 33.04C30.9533 33.04 30.8591 33.0906 30.9018 33.0975C30.9444 33.105 31.0642 33.1264 31.1244 33.1334C31.1843 33.1409 31.133 33.155 31.2356 33.163C31.3379 33.1698 31.3808 33.155 31.5088 33.155C31.6371 33.155 31.7145 33.105 31.7571 33.1191C31.7997 33.1334 31.9449 33.1334 31.9875 33.1264C32.0302 33.1191 32.1333 33.04 32.0903 33.04C32.0473 33.04 31.885 33.0037 31.8168 32.9967C31.7485 32.9895 31.5342 32.9823 31.4836 33.0038C31.4318 33.0256 31.3721 33.0401 31.3379 33.0256C31.3038 33.0112 31.4836 32.8959 31.603 32.9102C31.7229 32.9246 31.9022 32.8959 31.962 32.903C32.0217 32.9102 32.1676 32.9318 32.1676 32.9318C32.1676 32.9318 32.2014 32.9174 32.2099 32.8959C32.2186 32.8742 32.2271 32.8526 32.2271 32.8526L32.3128 32.9174C32.3128 32.9174 32.8767 32.7228 32.9027 32.6865C32.9283 32.6501 33.2868 32.5566 33.3389 32.5641C33.3901 32.571 33.7402 32.4413 33.8006 32.4629C33.8596 32.4845 34.1763 32.3983 34.1763 32.3983C34.1763 32.3983 34.4074 32.3549 34.4587 32.3549C34.5101 32.3549 34.5355 32.3045 34.4587 32.3117C34.3815 32.3188 33.7401 32.3188 33.5867 32.3117C33.4323 32.3045 33.0564 32.3114 32.9966 32.3188C32.9368 32.3261 32.5944 32.4054 32.4494 32.3983C32.3038 32.391 31.8339 32.4485 31.8084 32.4413C31.7824 32.4341 31.5948 32.4269 31.612 32.4269C31.6286 32.4269 31.3636 32.6073 31.3209 32.5566C31.2783 32.5062 31.3209 32.4701 31.2783 32.5062C31.2356 32.5422 31.244 32.7083 31.244 32.7083C31.2952 32.7372 31.4064 32.8381 31.4835 32.7949C31.5601 32.7516 31.603 32.7733 31.6286 32.7803C31.6539 32.7876 31.5092 32.8814 31.4233 32.8814C31.3379 32.8814 31.0642 32.968 31.0642 32.968C31.0642 32.968 30.9444 32.8742 30.9187 32.867C30.8932 32.8598 30.7481 32.8526 30.7225 32.8526C30.6969 32.8526 30.6626 32.8311 30.6541 32.8959C30.6456 32.9607 30.6626 33.0616 30.5773 33.0472C30.4916 33.0327 30.4662 33.0615 30.4233 33.0401C30.3806 33.0184 30.4834 32.9102 30.3631 32.903C30.2434 32.8959 30.1752 32.8238 30.1068 32.939C30.0384 33.0543 29.9962 33.0543 30.0644 33.0763ZM26.9697 33.5231C26.9437 33.5595 27.1915 33.5738 27.2084 33.5451C27.2264 33.516 27.3799 33.5376 27.4139 33.4946C27.4481 33.4512 27.6188 33.3646 27.6445 33.379C27.6701 33.3936 27.5933 33.4655 27.5676 33.4729C27.542 33.48 27.6536 33.4871 27.542 33.5596C27.4311 33.6316 27.4568 33.6967 27.4568 33.6967C27.4568 33.6967 27.3628 33.7327 27.4311 33.7472C27.4995 33.7616 27.6276 33.812 27.6276 33.812C27.6276 33.812 27.6361 33.8624 27.6361 33.8769C27.6361 33.8913 27.6791 33.9346 27.7727 33.8842C27.8673 33.8336 28.0551 33.7761 28.0808 33.7977C28.1063 33.8192 28.1664 33.7904 28.2522 33.7832C28.3373 33.7761 28.4059 33.7544 28.4059 33.7544L28.5169 33.7689C28.5683 33.7904 28.6112 33.7401 28.6971 33.7832C28.7821 33.8265 28.9015 33.8265 28.9015 33.8265C28.9015 33.8265 29.0215 33.7472 29.0469 33.7401C29.0727 33.7328 29.1239 33.7257 29.0982 33.6752C29.0727 33.6245 28.9787 33.5453 29.0043 33.5305C29.0299 33.5162 29.0896 33.5017 29.0812 33.3648C29.0727 33.2278 29.0982 33.2497 29.0555 33.2567C29.0129 33.264 28.9101 33.3073 28.9101 33.3073L28.8762 33.3C28.8592 33.3432 28.7821 33.3721 28.7645 33.4154C28.7475 33.4586 28.6971 33.4802 28.6971 33.4442C28.6971 33.4081 28.637 33.4008 28.6279 33.372C28.6199 33.3431 28.5426 33.3504 28.5 33.3576C28.4571 33.3648 28.3373 33.2927 28.2944 33.3216C28.2522 33.3504 28.2089 33.3073 28.1748 33.2423C28.141 33.1775 28.098 33.1267 28.0467 33.1337C27.9954 33.1412 27.6791 33.1337 27.6791 33.1337L27.491 33.1481C27.491 33.1481 27.3886 33.1701 27.3886 33.2135C27.3886 33.2568 27.3715 33.2857 27.3203 33.3C27.2686 33.3144 26.8926 33.4298 26.8926 33.4298C26.8926 33.4298 26.9953 33.487 26.9697 33.5231ZM29.654 33.3503L29.56 33.3358C29.56 33.3358 29.5515 33.2781 29.5259 33.2781C29.4994 33.2781 29.4231 33.3574 29.4231 33.3574C29.4231 33.3574 29.5345 33.3935 29.5516 33.4224C29.5686 33.4512 29.6112 33.4871 29.6112 33.509C29.6112 33.5303 29.8933 33.4367 29.8933 33.4367L30.0476 33.3718C30.0476 33.3718 30.0555 33.3862 30.0646 33.3503C30.0732 33.3142 30.0476 33.2854 30.0646 33.2781C30.0815 33.2709 30.15 33.1773 30.0815 33.1917C30.013 33.2058 29.8675 33.1917 29.7993 33.2133C29.7309 33.2349 29.6457 33.1846 29.6542 33.2421C29.6624 33.2997 29.654 33.3503 29.654 33.3503ZM28.286 33.0183C28.286 33.0183 28.3201 33.141 28.3888 33.1051C28.457 33.0687 28.6534 33.1918 28.6534 33.2058C28.6534 33.2207 28.7216 33.2134 28.7216 33.2134L29.0213 33.1265L29.1885 33.1051C29.1885 33.1051 29.3462 33.0975 29.3716 33.1123C29.397 33.1265 29.5258 33.0764 29.5258 33.0764L29.5769 33.0038L29.4656 32.975L29.4916 32.903C29.4916 32.903 29.4572 32.8597 29.3805 32.9101C29.3031 32.9606 29.0896 33.0614 29.1066 33.04C29.1237 33.0183 29.0214 33.0471 28.9786 33.0037C28.9355 32.9606 28.876 32.9533 28.876 32.9533C28.876 32.9533 28.7558 32.9173 28.7135 32.9317C28.6706 32.9461 28.7903 32.8597 28.7903 32.8597C28.7903 32.8597 28.816 32.7803 28.7642 32.7876C28.7135 32.7949 28.2943 32.8742 28.2943 32.8742C28.2943 32.8742 28.1148 32.9606 28.0808 32.9389C28.0466 32.9173 27.9185 32.9533 27.9185 32.9533L28.0039 32.9966C28.0295 32.9749 28.286 33.0183 28.286 33.0183ZM30.1924 32.7227C30.218 32.7296 30.4234 32.7802 30.449 32.7875C30.4746 32.7948 30.5518 32.8091 30.5854 32.802C30.6196 32.7948 30.7565 32.7372 30.7055 32.7155C30.6541 32.694 30.4916 32.6645 30.4574 32.65C30.4233 32.6356 30.2948 32.6289 30.2948 32.6289L30.2179 32.6429C30.201 32.6645 30.1669 32.7156 30.1924 32.7227ZM29.3716 32.8453C29.4064 32.831 29.5258 32.7876 29.5258 32.7876L29.6279 32.7156L29.6624 32.6791C29.6624 32.6791 29.5856 32.6218 29.5513 32.643C29.5172 32.6646 29.3371 32.7297 29.3371 32.7297L29.3287 32.7803L29.1884 32.831C29.1884 32.831 29.3372 32.8597 29.3716 32.8453ZM30.9108 32.8237C30.9445 32.831 31.0472 32.831 31.0558 32.8092C31.0643 32.7876 31.0473 32.6357 31.0473 32.6357C31.0473 32.6357 31.0128 32.5928 30.9703 32.6C30.9275 32.6071 30.7909 32.6645 30.7909 32.6645C30.7822 32.6864 30.8763 32.8165 30.9108 32.8237ZM28.7515 40.5116C28.7456 40.4955 28.6492 40.469 28.598 40.469C28.5467 40.469 28.3606 40.3171 28.3482 40.2845C28.3348 40.252 27.9185 40.1657 27.9185 40.1657C27.9185 40.1657 27.4631 40.144 27.4631 40.1334C27.4631 40.1221 27.245 40.2794 27.245 40.2794V40.2955C27.245 40.2955 27.2638 40.3711 27.2711 40.3874C27.2771 40.4035 27.4183 40.3007 27.4311 40.2576C27.4438 40.2145 27.5463 40.2033 27.5719 40.1925C27.5979 40.1819 27.6103 40.2362 27.636 40.2362C27.662 40.2362 27.7774 40.2684 27.7774 40.2684L28.0082 40.3334L28.0979 40.4035C28.0979 40.4035 28.1362 40.5763 28.1362 40.5983C28.1362 40.6201 28.3094 40.6088 28.3094 40.6088L28.6492 40.5824C28.6491 40.5823 28.7584 40.5279 28.7515 40.5116ZM28.7392 40.8742C28.7709 40.885 28.822 40.8689 28.848 40.8689C28.874 40.8689 28.9573 40.8527 28.9573 40.8527C28.9573 40.8527 28.9828 40.9014 28.9828 40.9177C28.9828 40.9336 29.1173 40.9121 29.1173 40.8958C29.1173 40.8795 29.1493 40.8364 29.1493 40.8364L29.3093 40.8094C29.3093 40.8094 29.5277 40.8148 29.5468 40.8148C29.5661 40.8148 29.579 40.7824 29.5402 40.7229C29.5021 40.6632 29.3926 40.6521 29.367 40.6087C29.3413 40.5658 29.2197 40.5932 29.1875 40.6087C29.1556 40.6251 28.9763 40.5714 28.9247 40.5714C28.8739 40.5714 28.9247 40.62 28.9247 40.62L28.9054 40.7769H28.694L28.6875 40.793C28.6875 40.793 28.6296 40.8093 28.6296 40.8418C28.6298 40.8742 28.7068 40.8634 28.7392 40.8742Z" fill="#1E6252"/>
<path fill-rule="evenodd" clip-rule="evenodd" d="M52.5737 38.2264C52.5737 38.2264 59.5272 27.306 59.5272 24.0656C59.5272 20.8251 56.414 18.1981 52.5737 18.1981C48.7333 18.1981 45.6201 20.8251 45.6201 24.0656C45.6201 27.306 52.5737 38.2264 52.5737 38.2264ZM52.5738 28.2127C55.0571 28.2127 57.0702 26.514 57.0702 24.4186C57.0702 22.3232 55.0571 20.6245 52.5738 20.6245C50.0905 20.6245 48.0774 22.3232 48.0774 24.4186C48.0774 26.514 50.0905 28.2127 52.5738 28.2127Z" fill="#E10E00"/>
<line y1="-0.381895" x2="30.4349" y2="-0.381895" transform="matrix(-0.0721145 0.997396 -0.998678 -0.0514113 45.6201 28.2126)" stroke="#1E6252" stroke-width="0.76379"/>
<line y1="-0.381899" x2="31.635" y2="-0.381899" transform="matrix(-0.0755575 0.997141 -0.998548 -0.0538726 29.5107 24.6417)" stroke="#1E6252" stroke-width="0.763798"/>
<defs>
<radialGradient id="paint0_radial_850_81314" cx="0" cy="0" r="1" gradientUnits="userSpaceOnUse" gradientTransform="translate(41.4209 41.666) rotate(90) scale(35)">
<stop/>
<stop offset="1" stop-opacity="0"/>
</radialGradient>
</defs>
</svg>
