<svg width="90" height="90" viewBox="0 0 90 90" fill="none" xmlns="http://www.w3.org/2000/svg">
<g filter="url(#filter0_d_222_809)">
<ellipse cx="45.204" cy="44.9997" rx="34.204" ry="34.2039" fill="url(#paint0_linear_222_809)"/>
<path d="M77.7144 44.9997C77.7144 62.9547 63.159 77.5101 45.204 77.5101C27.249 77.5101 12.6935 62.9547 12.6935 44.9997C12.6935 27.0447 27.249 12.4893 45.204 12.4893C63.159 12.4893 77.7144 27.0447 77.7144 44.9997Z" stroke="#F8FFFC" stroke-width="3.3871"/>
</g>
<circle cx="45.4351" cy="42.5948" r="26.8707" fill="url(#paint1_linear_222_809)" fill-opacity="0.7"/>
<path d="M35.5077 27.3156L26.4965 30.788L23.1436 56.1913H34.0408L46.6145 58.7499L64.2177 56.1913V27.3156L48.0814 30.788L35.5077 27.3156Z" stroke="#1E6252" stroke-width="0.730206"/>
<path d="M30.5054 35.5319C30.5088 35.5306 30.5105 35.5293 30.5105 35.5284C30.5105 35.5225 30.5081 35.5258 30.5054 35.5319ZM39.0108 45.464C39.0108 45.464 38.8506 45.4306 38.8436 45.4105C38.837 45.3906 38.5629 45.1499 38.5566 45.1566C38.5495 45.1632 38.4426 45.0493 38.4292 45.0831C38.4161 45.1165 38.2087 45.1165 38.2087 45.1165L37.9881 45.0626C37.9881 45.0626 37.8948 45.1299 37.9147 45.1028C37.9347 45.0761 37.9213 44.9158 37.9147 44.9427C37.9081 44.9691 37.5804 44.8022 37.5804 44.8022L37.4665 44.9024V44.7754L37.2932 44.6686L37.3134 44.5282L37.2326 44.4613C37.2326 44.4613 37.2196 44.4813 37.2129 44.468C37.2062 44.4547 37.1593 44.1874 37.1593 44.1874L36.9051 43.98L36.598 43.9666L36.3171 43.8125L36.2569 43.6724C36.2569 43.6724 36.0964 43.5991 36.0964 43.579C36.0964 43.559 36.0501 43.5725 36.0364 43.5655C36.0234 43.559 36.0301 43.4923 36.0301 43.4923L35.956 43.4318L35.9296 43.4138L35.8642 43.394L35.8242 43.3381C35.8242 43.3381 35.9696 43.2732 35.9546 43.2784C35.9399 43.2831 35.6289 43.3282 35.6289 43.3282L35.5989 43.3881L35.4534 43.3131L35.2079 43.2979C35.2079 43.2979 35.0321 43.228 35.0371 43.208C35.0424 43.1879 34.9821 43.1127 34.9821 43.1127C34.9821 43.1127 34.942 43.208 34.9319 43.218C34.922 43.228 34.7968 43.3333 34.7968 43.3333L34.8065 43.4939L34.7214 43.4033L34.7817 43.3181V43.1979C34.7817 43.1826 34.8569 43.1478 34.8569 43.1478L34.8268 43.0828C34.8268 43.0828 34.7368 43.1078 34.7368 43.1229C34.7368 43.1379 34.6165 43.208 34.6165 43.208L34.4709 43.263H34.4058C34.4058 43.263 34.3408 43.3681 34.3252 43.3734C34.3104 43.3785 34.3158 43.4739 34.3158 43.4739C34.3158 43.4739 34.1549 43.6539 34.1449 43.6339C34.1349 43.614 33.9648 43.4739 33.9648 43.4739L33.7639 43.4985L33.6488 43.5589L33.5083 43.4636L33.3982 43.2932L33.4085 43.0928L33.4685 42.8719L33.4935 42.7268L33.343 42.6163C33.343 42.6163 33.0373 42.6413 33.0373 42.6263C33.0373 42.6116 32.8716 42.6316 32.8768 42.6163C32.8816 42.6014 32.937 42.5062 32.937 42.4909C32.937 42.4758 32.9772 42.3607 32.9772 42.3607L33.0424 42.2305L33.1276 41.9803L33.1775 41.8946L32.9271 41.8797L32.7766 41.9398L32.6914 42.1906L32.2652 42.3058L32.16 42.2257C32.16 42.2257 32.1499 42.2708 32.1553 42.2457C32.16 42.2207 32.0248 42.045 32.0248 42.045L31.9595 41.7997C31.9595 41.7997 32.1302 41.293 32.1248 41.3033C32.1199 41.3131 32.1302 41.1175 32.1302 41.1175L32.6665 40.7668L32.8718 40.7968L32.9219 40.8469L33.0475 40.8265L33.1727 40.7014L33.3329 40.7215L33.4881 40.6916L33.5836 40.797L33.7236 40.7419L33.7989 40.8223L33.8444 40.8721V40.9576L33.8093 41.0376L33.8444 41.2182L33.9445 41.3587L34.0096 41.3836L34.0898 41.1631L34.0747 40.9576L34.0397 40.7917V40.6715L34.2454 40.4214L34.5108 40.2306L34.7214 40.1103L34.9069 39.9098L34.8969 39.7193L34.9775 39.7044L35.0569 39.5341L35.1372 39.5435L35.293 39.3482L35.5533 39.2583L35.714 39.2283L35.7642 39.1732L35.7041 39.1231L35.8292 38.9373L36.2254 38.7819L36.4662 38.7117L36.2704 38.8372L36.3105 38.9322L36.4559 38.8922L36.5613 38.8272L36.8369 38.7521C36.8369 38.7521 36.9024 38.6416 36.8921 38.6667C36.8824 38.6917 37.0326 38.6416 37.0326 38.6416L37.0026 38.5813L37.0126 38.5011L36.9326 38.5313L36.8117 38.6616L36.6165 38.652L36.5264 38.5163L36.6116 38.4011C36.6116 38.4011 36.6967 38.2306 36.6917 38.2409C36.6866 38.2506 36.5566 38.2006 36.5566 38.2006L36.3609 38.2705C36.3409 38.2705 36.1554 38.3809 36.1603 38.366C36.1654 38.351 36.065 38.4211 36.065 38.4211L36.3205 38.2159L36.426 38.2006L36.5464 38.0901H37.1229L37.3184 38.0499L37.579 37.9097L37.5993 37.9349L37.4889 38.04L37.3535 38.1804L37.2229 38.3205L37.1579 38.4059L37.3634 38.4159C37.3634 38.4159 37.5237 38.4199 37.5389 38.4159C37.559 38.4109 37.5639 38.486 37.5639 38.486L37.649 38.4259L37.6944 38.5412L37.8449 38.4259L37.7995 38.2955L37.8399 38.1749L37.6644 38.1803V38.115C37.6644 38.115 37.5994 38.0399 37.5942 38.0498C37.589 38.0599 37.6944 37.9648 37.6893 37.9748C37.6843 37.9848 37.644 37.9248 37.644 37.9248L37.7647 37.7739L37.7046 37.6038L37.6843 37.5188L37.5288 37.4435L37.4737 37.3682L37.4034 37.3131L37.4587 37.1827L37.4336 37.0875C37.4336 37.0875 37.3887 36.7766 37.3836 36.7865C37.3784 36.7966 37.1727 36.9571 37.1727 36.9571L36.9626 37.0626L36.8519 36.9673L36.8623 36.8416L36.9575 36.7515L36.8018 36.7014L36.7918 36.6613C36.7918 36.6613 36.6515 36.521 36.6416 36.5309C36.6316 36.5413 36.5965 36.5763 36.5965 36.5763L36.2655 36.5458L36.1503 36.7465L36.1253 36.8517C36.1253 36.8517 35.944 37.0331 35.9219 37.0471C35.9351 37.0432 36.02 37.1276 36.02 37.1276L35.9445 37.3078L35.6589 37.4732L35.5187 37.4935C35.5187 37.4935 35.4333 37.8045 35.4384 37.8244C35.4433 37.8446 35.3232 37.8994 35.3232 37.8994L35.2379 37.9597L35.2027 37.8496C35.2027 37.8496 35.1643 37.7654 35.149 37.744C35.1714 37.7533 35.2528 37.7641 35.2528 37.7641L35.2681 37.6937L35.1877 37.6989L35.2229 37.5835L35.2981 37.4584L35.0373 37.4383L34.9777 37.368L34.847 37.3479L34.8366 37.2926L34.7465 37.2376L34.636 37.1875L34.516 37.2026L34.5109 37.0975L34.5408 36.9973L34.4208 36.9773C34.4208 36.9773 34.6314 36.7615 34.6263 36.7716C34.6209 36.7816 35.2175 36.4755 35.2175 36.4755L35.2879 36.4006L35.403 36.3903L35.6536 36.2753L35.8442 36.145L35.8642 36.1551L35.7192 36.2903L35.6791 36.3402L35.5637 36.3954L35.6691 36.4104L35.6537 36.4708L35.7693 36.4507L35.8844 36.3553L35.975 36.3857L36.0152 36.4304L36.1402 36.4254L36.1352 36.3303L35.94 36.1901L35.8943 36.145L35.8745 36.0948L35.9595 36.1052L36.0302 36.1652L36.1052 36.0897L36.2555 36.07L36.4059 35.9643L36.3961 35.8993L36.5113 35.7891L36.4358 35.7091L36.6365 35.704L36.8116 35.7091C36.8116 35.7091 36.8971 35.669 36.9122 35.694C36.9273 35.7191 37.0575 35.8141 37.0575 35.8141L37.0074 35.8592L36.8016 35.8846L36.7515 35.9845L36.9023 36.0048L37.0173 35.8846L37.1425 35.8744L37.1626 35.9945C37.1626 35.9945 37.0225 36.0749 37.0025 36.0798C36.9824 36.0852 36.897 36.1249 36.897 36.1249L36.892 36.2154L36.7567 36.2302L36.6164 36.2054L36.5514 36.2103L36.4459 36.2953L36.5311 36.3705C36.5311 36.3705 36.6566 36.3204 36.6765 36.3055C36.6965 36.2906 36.7617 36.2603 36.7766 36.2855C36.7916 36.3105 36.8766 36.3807 36.8766 36.3807L36.9474 36.5164L37.0125 36.5363L37.2127 36.6014C37.2127 36.6014 37.3533 36.6366 37.3533 36.6464C37.3533 36.6564 37.3386 36.5613 37.3386 36.5613L37.2326 36.4359C37.2326 36.4359 37.228 36.4008 37.2627 36.4105C37.2981 36.4205 37.3835 36.4955 37.3835 36.4955C37.3982 36.5006 37.4987 36.5612 37.4987 36.5612L37.5387 36.4508L37.6288 36.3956L37.594 36.3304L37.5437 36.2755L37.4887 36.2103L37.4935 36.1352C37.4935 36.1352 37.5086 36.1248 37.5237 36.1151C37.5386 36.1052 37.5837 36.0701 37.5939 36.0898C37.6037 36.1098 37.7044 36.2403 37.7044 36.2403L37.7992 36.2602L37.8446 36.1852C37.8446 36.1852 37.9697 36.17 37.9697 36.1751C37.9697 36.1802 37.9797 36.115 37.9797 36.115L38.0952 36.0851L37.9297 35.9393L37.8396 35.8941L37.7692 35.9142L37.7045 35.839L37.7744 35.7741L37.8047 35.6836L37.7244 35.6035L37.5991 35.5785L37.5687 35.5131C37.5687 35.5131 37.4637 35.4981 37.4486 35.5079C37.4334 35.5184 37.3583 35.4179 37.3583 35.4179L37.2931 35.3328C37.283 35.3277 37.248 35.2924 37.228 35.2977C37.2076 35.3027 36.9974 35.3077 36.9974 35.3077L36.9473 35.3228L36.8823 35.2724L36.6213 35.3378L36.4862 35.4431C36.4862 35.4431 36.4763 35.3828 36.4862 35.3679C36.4959 35.3529 36.5912 35.2978 36.6063 35.2878C36.6213 35.2778 36.4911 35.2725 36.4911 35.2725C36.4911 35.2725 36.2503 35.3529 36.2403 35.3679C36.2304 35.3828 36.0448 35.5282 36.0448 35.5282L36.0502 35.6486L36.2204 35.6738L36.2855 35.6885L36.2403 35.7289L36.2054 35.8039L36.0952 35.8641L35.9595 35.9642L35.8443 36.0092L35.8244 35.9292L35.9246 35.869C35.9246 35.869 35.9045 35.7439 35.8944 35.7538C35.8845 35.7639 35.7793 35.7489 35.7742 35.7639C35.7693 35.779 35.7793 35.6689 35.7793 35.6689L35.7742 35.5634L35.7492 35.4829C35.7492 35.4829 35.8345 35.4129 35.8493 35.4079C35.8644 35.4029 36.0248 35.3928 36.0248 35.3928L36.2805 35.2475L36.0699 35.2377C36.0699 35.2377 35.8746 35.2425 35.8644 35.2628C35.8543 35.2828 35.7243 35.418 35.7243 35.418L35.644 35.4782L35.3783 35.6439L35.3681 35.759L35.258 35.739L35.1779 35.7239L34.9777 35.804V35.9143L34.6111 35.9346C34.6111 35.9346 34.4359 35.9092 34.4359 35.8845C34.4359 35.8591 34.3708 35.8091 34.3509 35.8091C34.3305 35.8091 34.1049 35.8793 34.1049 35.8793L34.095 35.9493L33.8343 35.9346C33.8343 35.9346 33.6188 35.9743 33.6239 35.9545C33.6289 35.9346 33.5084 35.9444 33.5084 35.9444L33.6889 35.8642L33.5638 35.804L33.3379 35.769L33.1776 35.7189L32.9975 35.744L32.9774 35.6689L32.8167 35.7339L32.7715 35.6286L32.6614 35.6788C32.6614 35.6788 32.2504 35.764 32.2302 35.769C32.2103 35.7741 32.1102 35.7288 32.1102 35.7288L31.9844 35.7889L31.7441 35.8039L31.6486 35.7339L31.4532 35.6939L31.2376 35.7038L30.8363 35.6385C30.8363 35.6385 30.6059 35.6034 30.621 35.5981C30.636 35.5931 30.4959 35.558 30.4959 35.558C30.4959 35.558 30.5015 35.5413 30.5058 35.5316C30.4567 35.5524 30.0647 35.6181 30.0647 35.6181L29.5385 35.7888L29.1925 35.8589C29.1925 35.8589 29.2025 35.9491 29.2074 35.964C29.2125 35.9794 29.2425 36.0794 29.2425 36.0794L29.1474 36.0994H29.0467L29.0973 36.0294L28.5854 36.1697L28.5959 36.2248L28.5606 36.29L28.721 36.305L28.8565 36.32C28.8565 36.32 28.9317 36.275 28.9317 36.29C28.9317 36.3051 28.8916 36.4201 28.8916 36.4201L28.7363 36.4302C28.7263 36.4151 28.6459 36.4354 28.6459 36.4354C28.6459 36.4354 28.5405 36.5001 28.5355 36.4855C28.5305 36.4705 28.3253 36.5206 28.3253 36.5206L28.0893 36.656L27.9993 36.7913L27.9893 36.8913L28.1648 36.8616L28.0643 36.9971L28.1797 36.9918C28.1797 36.9918 28.3152 36.9918 28.3252 37.0122C28.3353 37.0322 28.3952 37.0222 28.3952 37.0322C28.3952 37.0424 27.2022 37.5034 27.192 37.4885C27.182 37.4731 27.0067 37.5685 27.0067 37.5685C27.0067 37.5685 27.237 37.5285 27.2524 37.5285C27.2673 37.5285 27.608 37.4481 27.608 37.4481L27.7685 37.403C27.7685 37.403 28.1145 37.3028 28.1191 37.2877C28.1243 37.2725 28.365 37.1472 28.3801 37.1472C28.3952 37.1472 28.4753 37.1123 28.4805 37.1324C28.4853 37.1524 28.8263 37.0424 28.8263 37.0424C28.8263 37.0424 28.9465 36.9569 28.9367 36.9419C28.9263 36.9268 28.8564 36.8867 28.8764 36.8819C28.8964 36.8768 29.0766 36.8515 29.0766 36.8515C29.0766 36.8515 29.3475 36.7414 29.3425 36.7563C29.3375 36.7715 29.0669 36.9521 29.0669 36.9521L29.453 36.8767L29.6085 36.8114C29.6085 36.8114 29.7387 36.7513 29.7287 36.7664C29.7187 36.7814 29.8792 36.8264 29.8792 36.8414C29.8792 36.8564 30.2148 36.9068 30.2148 36.9068L30.3152 37.0572L30.2949 37.2525L30.285 37.4984L30.4654 37.4783L30.4205 37.6386L30.4308 37.9045C30.4308 37.9045 30.4405 37.9997 30.4405 38.0147C30.4405 38.0297 30.3001 37.9847 30.3001 37.9847C30.3001 37.9847 30.28 38.0999 30.295 38.1148C30.3106 38.1299 30.4758 38.2953 30.4758 38.2953L30.4206 38.3656L30.295 38.6764L29.9992 39.0171L29.9493 39.203L29.8038 39.3632L29.8289 39.4785C29.8289 39.4785 29.7888 39.5589 29.7992 39.5688C29.8089 39.5787 29.8692 40.1252 29.8692 40.1252L30.0799 40.2555L30.1348 40.3558L30.1649 40.7668L30.255 40.9522L30.1549 41.0225L30.2701 41.1825L30.3153 41.1878L30.4058 41.2929L30.3705 41.4334L30.4655 41.5085L30.556 41.6489L30.5711 41.719L30.6564 41.6339L30.5711 41.4585C30.5711 41.4585 30.5109 41.3278 30.516 41.2981C30.521 41.2679 30.4359 41.0423 30.4359 41.0423C30.4359 41.0423 30.3553 40.8718 30.3656 40.8568C30.3753 40.8416 30.3051 40.7417 30.3051 40.7417L30.3404 40.5363L30.4858 40.5663C30.4858 40.5663 30.5109 40.7564 30.5109 40.7768C30.5109 40.7968 30.5461 40.9172 30.5461 40.9172L30.7364 41.1824L30.7066 41.318L31.0723 41.7541L31.0673 41.9297L31.0121 42.0147L31.0421 42.1352L31.3481 42.3607L31.3981 42.3508L31.4882 42.4411L31.8189 42.6066L31.9844 42.6468L32.1803 42.5865L32.3054 42.6468L32.496 42.8673L32.6915 42.9172L32.8917 42.9877H32.9875L33.0125 43.1027C33.0125 43.1027 33.1027 43.2182 33.1228 43.2332C33.1427 43.2482 33.1278 43.3787 33.1278 43.3787L33.2129 43.4235L33.3132 43.5289L33.3783 43.5894L33.4487 43.6694L33.4937 43.6394L33.584 43.6643L33.714 43.7848L33.7993 43.7344L33.7748 43.6394L33.8543 43.5592H33.9247L34 43.6192L33.9949 43.6894L34.0851 43.8348L34.0902 44.2408L34.01 44.3714L33.8995 44.4466L33.8948 44.5665L33.7793 44.6116L33.7342 44.7721L33.6639 44.9125L33.6789 45.0327L33.7794 45.123L33.6889 45.2187L33.624 45.3137L33.6836 45.5038C33.6836 45.5038 33.7136 45.5992 33.7136 45.5891C33.7136 45.5791 33.8093 45.6546 33.8093 45.6546L33.9847 46.0051L34.1548 46.2511C34.1548 46.2511 34.4024 46.7501 34.4074 46.754C34.4822 46.809 35.0277 47.2019 35.0277 47.2019L35.1207 47.6898L35.1479 48.719L35.228 49.0135L35.1942 49.6084L35.1678 49.7285C35.1678 49.7285 35.2746 49.9156 35.2746 49.9426C35.2746 49.9693 35.2946 50.203 35.2946 50.203L35.368 50.457L35.4548 50.4505L35.4014 50.3035L35.4684 50.3102L35.5148 50.5439L35.5214 50.6373L35.4684 50.5906L35.4214 50.6373L35.388 50.6776L35.4548 50.738L35.4215 50.831L35.4083 50.9516L35.5018 50.965L35.5686 51.0184L35.5018 51.132C35.5018 51.132 35.9159 51.8606 36.2636 51.9473C36.6113 52.0345 36.7115 52.061 36.7115 52.061L36.8588 51.9807L36.905 51.9207L36.5979 51.8139L36.364 51.5595L36.317 51.4261L36.3905 51.3728L36.3773 51.2723C36.3773 51.2723 36.3773 51.1989 36.4036 51.1789C36.4307 51.1589 36.484 51.0586 36.484 51.0586L36.4036 51.0184L36.2702 50.8849L36.2835 50.7308L36.3639 50.6844C36.3639 50.6844 36.3703 50.5972 36.3572 50.5773C36.3435 50.5575 36.3772 50.4569 36.3973 50.4503C36.4175 50.4434 36.4704 50.3631 36.4704 50.3631H36.3773L36.3239 50.3433L36.2568 50.2367V50.1562L36.3704 50.1896L36.4777 50.1694L36.5378 50.0826C36.5378 50.0826 36.5177 50.0292 36.5111 50.0093C36.5044 49.9893 36.5245 49.9022 36.5444 49.8955C36.5644 49.8892 36.6846 49.9022 36.6846 49.9022L36.912 49.8422C36.912 49.8422 36.999 49.6883 36.9924 49.6616C36.9856 49.6349 36.9856 49.548 36.9856 49.548C36.9856 49.548 36.9856 49.488 36.9323 49.4809C36.8785 49.4744 36.8785 49.4547 36.8652 49.4006C36.8516 49.3473 36.8114 49.2871 36.8114 49.2871L36.7448 49.3006L36.8051 49.2406L36.9387 49.3405L37.1391 49.3743L37.293 49.2204L37.4 48.9596L37.4467 48.7657H37.5468L37.6536 48.5719L37.6939 48.3915L37.6605 48.1707L37.7073 48.0909L38.0547 47.8569L38.3156 47.7699L38.4029 47.7028C38.4029 47.7028 38.5361 47.5226 38.5361 47.5025C38.5361 47.4825 38.5897 47.2216 38.5897 47.2216C38.5897 47.2216 38.6497 46.9146 38.6428 46.8946C38.6364 46.8742 38.6564 46.607 38.6428 46.6003C38.6294 46.5937 38.6497 46.5199 38.6497 46.5199L38.9037 46.1591L39.0241 45.8848C39.0241 45.8848 39.1113 45.7446 39.0978 45.7179C39.0842 45.6911 39.0109 45.4639 39.0109 45.4639L39.0108 45.464ZM41.6542 35.6789C41.6542 35.6789 41.6945 35.4781 41.6645 35.4581C41.634 35.4381 41.7848 35.3178 41.7848 35.3178C41.7848 35.3178 42.005 35.2174 42.0151 35.1876C42.0251 35.1574 41.955 35.167 41.955 35.167L41.9749 35.0168L42.1155 34.9667C42.1155 34.9667 42.0355 34.8463 42.0151 34.786C41.9953 34.7265 42.2559 34.6961 42.2559 34.6961L42.7171 34.4856L42.1659 34.5456L42.1455 34.4757L41.5638 34.3452L40.4012 34.3856L40.2711 34.4557H39.8695L39.3082 34.5059C39.3082 34.5059 38.7769 34.5759 38.7468 34.5958C38.7169 34.616 38.807 34.6461 38.807 34.6461L38.797 34.7163L38.1451 34.7967L38.1052 34.8668C38.1052 34.8668 38.1753 34.9369 38.1853 34.947C38.1951 34.9569 38.466 35.017 38.466 35.017L38.7869 35.0571C38.7869 35.0571 38.9674 35.1374 38.9971 35.1672C39.0275 35.1972 39.0178 35.2879 39.0075 35.338C38.9971 35.3882 38.9674 35.3981 38.9274 35.4582C38.8871 35.5186 39.0075 35.4883 39.0075 35.4883L39.148 35.5583C39.148 35.5583 39.1079 35.5583 39.0475 35.5687C38.9871 35.5787 38.907 35.5984 38.907 35.5984L38.897 35.7091L39.0979 35.6691L39.0773 35.739L38.9372 35.7691L38.797 35.9393L38.7869 36.2601L38.8168 36.5308L38.897 36.7515L39.0275 36.7715L39.1779 36.8618L39.3787 36.8516L39.5789 36.581L39.7893 36.3805L39.8496 36.2702L39.9501 36.2101L40.1703 36.1601L40.4512 36.0997C40.4512 36.0997 40.7115 35.9292 40.742 35.9092C40.7718 35.8892 41.4936 35.669 41.4936 35.669L41.6542 35.6789ZM41.855 36.4105L42.1357 36.3204L42.1955 36.2102L42.0856 36.1201L41.574 36.1802L41.4237 36.0897L41.2435 36.1901C41.2435 36.1901 41.3336 36.2303 41.3636 36.2502C41.3936 36.2703 41.4538 36.2302 41.4538 36.2302V36.3204C41.4538 36.3204 41.6142 36.4105 41.5939 36.4408C41.574 36.4708 41.855 36.4105 41.855 36.4105ZM42.3494 37.7772L42.2926 37.8143L42.2758 37.878L42.326 37.9079L42.4063 37.9246L42.4895 37.9046L42.5602 37.8645L42.58 37.8445L42.697 37.8373L42.7104 37.7877L42.7374 37.7374V37.5936L42.8008 37.5568L42.7804 37.4635L42.6804 37.4402L42.6003 37.4268L42.5469 37.4434L42.5163 37.4867C42.5163 37.4867 42.4668 37.5403 42.4766 37.53C42.4869 37.5203 42.5133 37.5203 42.507 37.5369C42.5 37.5535 42.473 37.5702 42.473 37.5702H42.4336L42.3994 37.5502L42.3496 37.5568L42.3327 37.5869L42.3532 37.6337L42.3194 37.6673L42.3595 37.7008L42.3994 37.7104L42.3932 37.7574L42.3494 37.7772ZM42.7469 37.3831C42.7704 37.3929 42.7803 37.4065 42.777 37.4163C42.7741 37.4268 42.8271 37.4333 42.8271 37.4333L42.8708 37.4234L42.8407 37.4701C42.8407 37.4701 42.8473 37.5002 42.8572 37.5137C42.8675 37.527 42.901 37.5137 42.901 37.5137C42.901 37.5137 42.9813 37.5002 42.9913 37.5036C43.0011 37.5068 42.9877 37.537 42.9877 37.537L43.0181 37.5836C43.0181 37.5836 43.0345 37.6506 43.0378 37.6705C43.0414 37.6909 43.011 37.6837 43.011 37.6837C43.011 37.6837 42.9481 37.6937 42.9341 37.6908C42.9208 37.6874 42.8943 37.7139 42.871 37.7405C42.8474 37.7677 42.8744 37.7574 42.8744 37.7574H42.924C42.924 37.7574 42.928 37.7906 42.9311 37.8045C42.9341 37.8178 42.8909 37.8309 42.8778 37.8275C42.8644 37.8244 42.8041 37.8545 42.8041 37.8545L42.8072 37.9046L42.881 37.9113L42.9546 37.9213L42.968 37.9447C42.968 37.9447 42.9207 37.9547 42.9076 37.9447C42.8942 37.9347 42.8541 37.9981 42.8541 37.9981L42.8175 38.0382L42.7403 38.0983L42.7837 38.1184L42.8105 38.0849L42.8777 38.0882L42.9507 38.0782C42.9507 38.0782 42.9946 38.0248 43.0046 38.0248C43.0144 38.0248 43.1182 38.0216 43.1182 38.0216C43.1182 38.0216 43.2017 38.0048 43.2117 38.0115C43.2217 38.0182 43.2886 38.0317 43.299 38.0349C43.3089 38.0382 43.4392 37.9982 43.4392 37.9982C43.4392 37.9982 43.4657 37.9548 43.4724 37.9415C43.4793 37.9281 43.4359 37.9148 43.4259 37.9047C43.4159 37.8947 43.4591 37.8814 43.4793 37.8714C43.4992 37.8614 43.5059 37.8245 43.5161 37.808C43.5257 37.7915 43.5026 37.7576 43.4992 37.7478C43.496 37.7375 43.4491 37.7406 43.4359 37.7375C43.4225 37.7341 43.3657 37.7406 43.3657 37.7406L43.3688 37.6738C43.3688 37.6738 43.2117 37.4601 43.2151 37.4501C43.2184 37.4403 43.1783 37.3766 43.1616 37.3735C43.1449 37.3701 43.1248 37.3563 43.1047 37.3296C43.0849 37.3031 43.1315 37.2694 43.1315 37.2694C43.1315 37.2694 43.1881 37.2094 43.1949 37.1961C43.2017 37.1827 43.1881 37.1427 43.1782 37.1393C43.1681 37.136 43.0515 37.1427 43.0515 37.1427C43.0515 37.1427 43.0182 37.116 43.0213 37.106C43.0247 37.0955 43.0581 37.0924 43.0683 37.0924C43.0777 37.0924 43.1383 36.9757 43.1516 36.9724C43.1649 36.9688 43.1415 36.939 43.1415 36.939L43.0949 36.9584L43.0515 37.0224C43.0515 37.0224 43.011 37.0323 42.9947 37.0224C42.9781 37.0123 42.9444 37.0224 42.9311 37.019C42.9177 37.0152 42.8872 37.0591 42.8872 37.0591C42.8872 37.0591 42.8409 37.1092 42.8274 37.1125C42.814 37.1158 42.7672 37.1693 42.7706 37.1725C42.7742 37.1759 42.7772 37.2195 42.7772 37.2195C42.7772 37.2195 42.7672 37.236 42.7505 37.2393C42.7339 37.2426 42.7638 37.2994 42.7638 37.2994L42.8042 37.3197C42.8042 37.3197 42.7805 37.3429 42.7672 37.3398C42.7536 37.3361 42.7236 37.3733 42.7469 37.3831ZM58.4671 36.658C58.4671 36.6553 58.4656 36.6553 58.4628 36.657C58.4657 36.6591 58.4671 36.6599 58.4671 36.658ZM54.364 42.5567C54.3707 42.5467 54.4641 42.4999 54.4673 42.4763C54.4708 42.4534 54.5376 42.6939 54.5376 42.6939L54.5847 42.8609C54.5847 42.8609 54.6211 42.981 54.6345 43.0045C54.648 43.0281 54.6677 43.1817 54.6677 43.1951C54.6677 43.2084 54.7116 43.2983 54.6914 43.3085C54.6709 43.3185 54.638 43.3118 54.6444 43.3253C54.6514 43.3385 54.6676 43.4122 54.6676 43.426C54.6676 43.4392 54.6578 43.5291 54.6514 43.5459C54.6444 43.5627 54.6414 43.6061 54.6414 43.6258C54.6414 43.6461 54.6542 43.6832 54.6542 43.6928C54.6542 43.703 54.6645 43.7196 54.6645 43.7196C54.6645 43.7196 54.6781 43.7265 54.6845 43.7096C54.6913 43.6928 54.7413 43.6863 54.7483 43.6928C54.7548 43.6997 54.8315 43.7895 54.8384 43.8166C54.845 43.8431 54.9285 43.9738 54.9383 43.987C54.9485 44.0005 54.9921 44.044 54.9649 44.0806C54.9383 44.1173 54.9383 44.124 54.942 44.1439C54.9452 44.1639 54.9554 44.2373 54.9885 44.2779C55.0223 44.3178 55.092 44.3946 55.092 44.3946C55.092 44.3946 55.1792 44.4552 55.1926 44.4719C55.2057 44.4884 55.3027 44.4984 55.313 44.5384C55.3226 44.5784 55.3495 44.6189 55.3495 44.6189C55.3495 44.6189 55.4262 44.642 55.4262 44.6523C55.4262 44.644 55.4253 44.5273 55.4165 44.5114C55.4067 44.4951 55.3265 44.3312 55.3161 44.3213C55.3064 44.3111 55.2897 44.2879 55.2997 44.2449C55.3097 44.2009 55.2929 44.0872 55.2929 44.0872L55.1358 43.8999C55.1358 43.8999 54.9987 43.7662 54.9955 43.7731C54.9922 43.7796 54.8883 43.7329 54.8924 43.6928C54.8951 43.6528 54.8815 43.5527 54.8516 43.5292C54.8219 43.5059 54.7951 43.4689 54.7717 43.4556C54.7485 43.4419 54.7652 43.3151 54.7717 43.2984C54.7782 43.2817 54.8317 43.1349 54.8286 43.125C54.8249 43.1151 54.8419 42.978 54.8419 42.978C54.8419 42.978 54.8851 42.9207 54.8951 42.9409C54.9054 42.9608 54.952 42.9409 54.9386 43.001C54.9253 43.0616 54.9322 43.0984 54.9322 43.0984L55.0522 43.0747L55.136 43.1618L55.1963 43.2417L55.2731 43.2886C55.2731 43.2886 55.2931 43.379 55.303 43.3853C55.3133 43.3923 55.3633 43.3653 55.3633 43.3653L55.4401 43.4192C55.4401 43.4192 55.3965 43.4991 55.4069 43.5195C55.4167 43.5395 55.4265 43.6095 55.4265 43.6095L55.5003 43.5492L55.5941 43.4791L55.6408 43.4122L55.6575 43.3622L55.7909 43.3051L55.918 43.1882L55.9149 42.9408L55.8747 42.7873L55.7611 42.6268L55.5403 42.4063L55.4538 42.2995C55.4538 42.2995 55.3935 42.2226 55.3966 42.2027C55.4 42.1823 55.413 42.0757 55.413 42.0757L55.4736 42.0187L55.5907 41.9018C55.5907 41.9018 55.6709 41.8483 55.6843 41.8616C55.6975 41.875 55.8044 41.8717 55.8079 41.8816C55.811 41.8916 55.825 41.8884 55.8177 41.9082C55.811 41.9282 55.821 42.0187 55.8309 42.0287C55.8413 42.0388 55.8648 42.0485 55.8747 42.052C55.8841 42.0552 55.918 42.0419 55.9215 42.0219C55.9249 42.002 55.918 41.9317 55.9215 41.915C55.9249 41.8983 55.9315 41.8983 55.9416 41.895C55.9516 41.8916 56.0014 41.895 56.0014 41.895L56.0552 41.8415L56.1486 41.8749L56.2489 41.7879C56.2489 41.7879 56.3025 41.7781 56.3092 41.7847C56.3157 41.7916 56.403 41.718 56.403 41.718L56.4931 41.6978L56.573 41.6644C56.573 41.6644 56.6064 41.5874 56.6064 41.5973C56.6064 41.6075 56.8005 41.4038 56.8005 41.4038L56.8639 41.2466L56.9406 41.0228L56.9873 40.7451L56.9908 40.665C56.9908 40.665 56.9172 40.725 56.9073 40.7286C56.8972 40.7317 56.8372 40.7154 56.8372 40.7154L56.8838 40.6316C56.8838 40.6316 56.9106 40.5716 56.8972 40.5682C56.8838 40.5648 56.8169 40.5449 56.8169 40.5449C56.8169 40.5449 56.8457 40.4791 56.85 40.4748C56.8438 40.4748 56.7337 40.3611 56.7337 40.3611C56.7337 40.3611 56.5864 40.1505 56.5797 40.1671C56.573 40.1839 56.4596 40.087 56.4492 40.087C56.4396 40.087 56.4327 40.0903 56.4262 40.0704C56.4195 40.0503 56.5264 39.9099 56.5297 39.8995C56.533 39.8899 56.6264 39.786 56.6435 39.7894C56.6598 39.7928 56.7167 39.7961 56.7167 39.7961C56.7167 39.7961 56.7031 39.7294 56.6932 39.726C56.6835 39.7228 56.4563 39.7027 56.4563 39.7027C56.4563 39.7027 56.3662 39.7561 56.3628 39.7695C56.3589 39.7828 56.2861 39.7763 56.2861 39.7763L56.2758 39.6993L56.1851 39.656L56.0819 39.6192L56.0854 39.549C56.0854 39.549 56.1485 39.5258 56.1587 39.5185C56.1687 39.5118 56.2488 39.4721 56.2553 39.4384C56.262 39.4049 56.3157 39.3516 56.3225 39.3415C56.3291 39.3315 56.3724 39.2948 56.3822 39.3015C56.3925 39.3081 56.4564 39.3549 56.4492 39.3583C56.4429 39.3616 56.3995 39.432 56.409 39.4517C56.4194 39.4721 56.4662 39.5323 56.4596 39.5421C56.4531 39.5524 56.4328 39.5891 56.4328 39.5891L56.483 39.5824C56.483 39.5824 56.5464 39.5323 56.5429 39.5257C56.5397 39.5185 56.5931 39.4621 56.6031 39.4621C56.6131 39.4621 56.7237 39.4383 56.7265 39.4483C56.7301 39.4585 56.8405 39.4851 56.8405 39.4851L56.8606 39.6859C56.8606 39.6859 57.128 39.7493 57.128 39.7661C57.128 39.7827 57.0978 39.8093 57.0978 39.8093C57.0978 39.8093 57.0944 39.8629 57.1078 39.8697C57.1211 39.8761 57.1645 39.913 57.1747 39.9265C57.1851 39.9399 57.2049 40.0303 57.2049 40.0303C57.2049 40.0303 57.1683 40.1104 57.1747 40.1204C57.1813 40.1306 57.2482 40.1906 57.2482 40.1906L57.4388 40.1171C57.4388 40.1171 57.5422 40.0369 57.5422 40.027C57.5422 40.0167 57.4321 39.7494 57.4321 39.7494L57.1779 39.5753L57.068 39.4851L57.2215 39.335L57.2081 39.2048C57.2081 39.2048 57.2415 39.0773 57.2482 39.0773C57.2552 39.0773 57.3485 39.0107 57.3485 39.0107L57.4553 39.0846L57.6158 38.9841L57.7061 38.6603L57.7094 38.2388L57.5657 37.9816C57.5657 37.9816 57.499 37.8245 57.4886 37.8245C57.4786 37.8245 57.3819 37.6738 57.3819 37.6738L57.158 37.5738L57.0609 37.5705L57.0009 37.6706L56.9377 37.5938L56.8508 37.4403L56.8606 37.5337C56.8606 37.5337 56.874 37.5938 56.87 37.6071C56.8675 37.6205 56.8035 37.5236 56.8035 37.5236C56.8035 37.5236 56.6966 37.5037 56.69 37.5037C56.6836 37.5037 56.6299 37.4733 56.6299 37.4733C56.6299 37.4733 56.7875 37.29 56.7738 37.2965C56.7606 37.3031 56.8005 37.0626 56.8005 37.0626C56.8005 37.0626 56.8572 36.9488 56.8605 36.9555C56.8639 36.9623 57.0807 36.9322 57.0807 36.9322C57.0807 36.9322 57.4785 36.9257 57.4752 36.9322C57.472 36.9391 57.6693 36.9191 57.6693 36.9191C57.6693 36.9191 57.6757 36.9759 57.693 36.9826C57.7092 36.9891 57.8696 36.979 57.8696 36.979L57.9866 36.9524L58.0432 36.9455C58.0432 36.9455 57.9732 36.8755 57.963 36.8755C57.953 36.8755 57.8863 36.8452 57.8798 36.8418C57.8728 36.8385 57.9298 36.7118 57.9264 36.6916C57.9233 36.6715 57.9165 36.6015 57.9431 36.6082C57.9697 36.615 58.1506 36.615 58.1506 36.615C58.1506 36.615 58.2238 36.6848 58.2238 36.705C58.2238 36.7249 58.3408 36.7951 58.3408 36.7951C58.3408 36.7951 58.4045 36.7249 58.411 36.7117C58.4166 36.701 58.4504 36.6634 58.4633 36.6572C58.4472 36.644 58.3947 36.5748 58.3947 36.5748C58.3947 36.5748 58.4512 36.5111 58.4812 36.5445C58.5116 36.578 58.5782 36.7216 58.5782 36.7216C58.5782 36.7216 58.5179 36.8719 58.5179 36.8855C58.5179 36.8985 58.4946 37.036 58.4946 37.0461C58.4946 37.056 58.4277 37.1161 58.4277 37.1161C58.4277 37.1161 58.3946 37.1161 58.3946 37.1328C58.3946 37.1494 58.4409 37.2395 58.4409 37.2395C58.4409 37.2395 58.4582 37.3433 58.4676 37.3496C58.4778 37.3569 58.8122 37.6472 58.8122 37.6472L59.0292 37.8615L59.1699 37.9782L59.2098 37.9683C59.2098 37.9683 59.2434 37.8046 59.23 37.8109C59.2165 37.8179 59.163 37.7611 59.1699 37.7513C59.1764 37.7406 59.1897 37.6938 59.2062 37.6973C59.2233 37.7009 59.2733 37.7105 59.2733 37.7105L59.173 37.5837L59.2062 37.5137L59.2834 37.537L59.1797 37.4269L59.1263 37.3197C59.1263 37.3197 59.1831 37.333 59.1869 37.3429C59.1898 37.3535 59.2502 37.3 59.2301 37.2964C59.2099 37.2927 59.0896 37.2494 59.0896 37.2393C59.0896 37.2294 59.0197 37.2127 59.0158 37.1992C59.0128 37.186 59.0293 37.1325 59.0196 37.1325C59.0097 37.1325 58.906 37.0858 58.906 37.0858L58.8388 37.0954L58.802 37.0224L58.822 36.9656C58.822 36.9656 58.758 36.8746 58.7522 36.8688C58.7573 36.8734 58.895 36.8208 58.908 36.8152C58.9072 36.8174 58.9732 36.8098 58.9789 36.8349C58.9859 36.8618 59.0157 36.8886 59.0157 36.8886L59.0863 36.8218C59.0863 36.8218 59.1363 36.7781 59.1563 36.788C59.1764 36.798 59.2733 36.8185 59.2869 36.8316C59.2989 36.8438 59.3597 36.8611 59.3691 36.8721C59.3682 36.8581 59.3703 36.8147 59.3703 36.8147L59.3732 36.7781L59.4674 36.6512C59.4674 36.6512 59.5037 36.5978 59.5375 36.5908C59.5709 36.5844 59.6409 36.5243 59.6542 36.5344C59.6676 36.5442 59.7785 36.5411 59.7918 36.5712C59.8049 36.6011 59.865 36.5611 59.865 36.5611C59.865 36.5611 59.8079 36.491 59.8049 36.4975C59.8018 36.5041 59.6175 36.4238 59.6076 36.4274C59.5975 36.4305 59.4742 36.3538 59.4742 36.3538C59.4742 36.3538 59.4104 36.3304 59.4074 36.3304C59.4041 36.3304 59.4571 36.3036 59.4771 36.2969C59.4973 36.2903 59.5442 36.2268 59.5442 36.2268C59.5442 36.2268 59.521 36.1835 59.5074 36.17C59.4939 36.1568 59.581 36.1668 59.6109 36.1801C59.6409 36.1934 59.7917 36.2001 59.7881 36.2101C59.7844 36.22 59.8884 36.22 59.8849 36.2469C59.8815 36.2737 59.9217 36.2801 59.9351 36.2936C59.9485 36.307 60.0755 36.327 60.0823 36.3304C60.0885 36.3336 60.2155 36.3204 60.2155 36.3403C60.2155 36.3604 60.2558 36.3371 60.2558 36.3371C60.2558 36.3371 60.2358 36.2403 60.2124 36.2469C60.1887 36.2535 60.1451 36.2201 60.1755 36.2136C60.2057 36.207 60.2625 36.1735 60.2459 36.1668C60.2289 36.1602 60.2023 36.1267 60.1622 36.1098C60.1223 36.0931 59.9618 36.0567 59.9451 36.063C59.9286 36.0699 59.6776 36.0094 59.6614 36.0094C59.6443 36.0094 59.5575 35.9863 59.5575 35.9863L58.7019 35.7557C58.7019 35.7557 58.1706 35.6989 58.1737 35.6886C58.1773 35.6789 57.8664 35.652 57.8664 35.652L58.0505 35.8058L57.8664 35.7792C57.8664 35.7792 57.6393 35.7424 57.6326 35.7323C57.6258 35.7224 56.9973 35.719 56.9973 35.719L56.904 35.6183C56.904 35.6183 56.603 35.5687 56.593 35.5653C56.583 35.5616 56.2086 35.5653 56.2086 35.5653L55.8951 35.5185C55.8951 35.5185 55.6842 35.428 55.6374 35.4382C55.5907 35.4483 55.1295 35.4081 55.1026 35.3946C55.0761 35.3812 54.8925 35.4081 54.8925 35.4081L55.0421 35.5218L54.7953 35.5149L54.548 35.5114L54.4542 35.4648L54.458 35.6019C54.458 35.6019 54.3876 35.6149 54.3876 35.5983C54.3876 35.5816 54.1702 35.5049 54.1702 35.5049C54.1702 35.5049 53.9895 35.3446 53.9865 35.3547C53.9831 35.3646 53.693 35.2978 53.693 35.2978L53.512 35.2646C53.512 35.2646 53.4585 35.2878 53.4651 35.3013C53.4718 35.3146 53.5419 35.3613 53.5319 35.3713C53.522 35.3812 53.412 35.3613 53.412 35.3613L53.1278 35.3514L53.0773 35.2979L52.703 35.3013C52.703 35.3013 52.5627 35.1909 52.5592 35.1972C52.5562 35.2039 52.4524 35.2212 52.4524 35.2212L52.3721 35.3079L52.1451 35.3247L52.3894 35.1942L52.4762 35.1309C52.4825 35.1138 52.4155 35.0138 52.4026 35.027C52.3894 35.0405 52.1985 34.9803 52.1885 34.9803C52.1785 34.9803 51.8911 34.9736 51.8911 34.9736C51.8707 34.9703 51.7808 34.9736 51.7808 34.9736C51.7808 34.9736 51.7474 34.8802 51.7306 34.8835C51.7141 34.8868 51.4966 34.8801 51.4966 34.8801C51.4966 34.8801 51.3029 34.9202 51.2956 34.9402C51.2897 34.9604 51.3329 34.9803 51.3329 34.9803C51.3329 34.9803 51.2293 35.0571 51.2192 35.0504C51.2094 35.0437 50.9083 35.0437 50.9083 35.0437C50.9083 35.0437 50.4906 35.1338 50.4906 35.1237C50.4906 35.1152 50.3656 35.1685 50.3365 35.1814C50.3611 35.2029 50.4487 35.2529 50.4372 35.2646C50.4239 35.2779 50.1429 35.2913 50.1329 35.2711C50.124 35.2528 50.0129 35.2951 49.9953 35.2978C50.0155 35.3062 50.147 35.4091 50.1562 35.4248C50.1662 35.4414 50.1903 35.4649 50.223 35.4515C50.2564 35.4381 50.2865 35.4248 50.2934 35.4381C50.3001 35.4515 50.2934 35.4815 50.2934 35.4815C50.2934 35.4815 50.2096 35.4983 50.2 35.4983C50.1904 35.4983 50.0896 35.4414 50.0795 35.4381C50.0697 35.4348 49.9359 35.4047 49.9191 35.4047C49.902 35.4047 49.8286 35.4147 49.8286 35.4147C49.8286 35.4147 49.7718 35.4649 49.7851 35.4716C49.7989 35.4782 49.8322 35.5416 49.8424 35.5352C49.8522 35.5282 49.9125 35.5015 49.9156 35.5317C49.9191 35.5614 49.8457 35.5853 49.8457 35.5853C49.8457 35.5853 49.745 35.5448 49.7417 35.5351C49.7384 35.5247 49.6916 35.4681 49.6916 35.438C49.6916 35.4079 49.6316 35.3011 49.6149 35.3177C49.5983 35.3345 49.5382 35.3411 49.5382 35.3411L49.6118 35.4079C49.6118 35.4079 49.675 35.4612 49.6583 35.4647C49.6418 35.4681 49.5949 35.4947 49.5918 35.5048C49.5883 35.5148 49.5516 35.5714 49.5949 35.5714C49.6383 35.5714 49.7086 35.6385 49.7086 35.6385C49.7086 35.6385 49.7118 35.7289 49.7184 35.7422C49.7251 35.7556 49.8285 35.8256 49.8285 35.8256C49.8285 35.8256 49.8925 35.7855 49.9019 35.7756C49.9124 35.7656 49.9994 35.749 50.0193 35.7689C50.0394 35.7889 49.9791 35.839 49.9625 35.8291C49.9457 35.8189 49.9091 35.8089 49.8924 35.8156L49.8754 35.8222C49.8754 35.8222 49.8521 35.8724 49.8754 35.8824C49.8989 35.8925 49.9294 35.9259 49.9259 35.9425C49.9223 35.9591 49.859 36.0729 49.859 36.0729L49.7652 36.0929C49.7318 36.0862 49.6785 36.0628 49.6785 36.0628L49.7787 35.9861L49.7921 35.8824C49.7921 35.8824 49.7956 35.8757 49.7689 35.8523C49.7416 35.8291 49.6483 35.7456 49.6483 35.7456C49.6483 35.7456 49.5916 35.6519 49.5916 35.6419C49.5916 35.6314 49.5649 35.5815 49.5649 35.5815C49.5649 35.5815 49.5013 35.5381 49.4879 35.5351C49.4748 35.5317 49.4748 35.4947 49.485 35.4748C49.4948 35.4546 49.4748 35.3646 49.4714 35.3779C49.4675 35.3913 49.3542 35.3746 49.3407 35.3712C49.3273 35.368 49.2974 35.3311 49.2974 35.3311C49.2974 35.3311 49.2809 35.2746 49.2537 35.2978C49.2273 35.3211 49.1805 35.3311 49.1805 35.3311L49.1338 35.4546L49.147 35.5048L49.0535 35.5685C49.0535 35.5685 49.1324 35.6364 49.1397 35.6416C49.1341 35.6388 49.1439 35.7089 49.147 35.7255C49.1501 35.7422 49.2906 35.7791 49.2906 35.7791C49.2906 35.7791 49.3642 35.809 49.3707 35.8391C49.3776 35.8691 49.3506 35.9059 49.3506 35.9059L49.2072 35.8391L48.8894 35.739C48.8894 35.739 48.5823 35.719 48.5888 35.709C48.5957 35.699 48.4716 35.6286 48.4716 35.6286L48.4014 35.6653C48.4014 35.6653 48.4681 35.7124 48.4785 35.7153C48.4885 35.719 48.5888 35.7557 48.5888 35.7557C48.5888 35.7557 48.619 35.7724 48.6255 35.7992C48.6325 35.8258 48.5688 35.8592 48.5688 35.8592C48.5688 35.8592 48.5255 35.8125 48.5255 35.8026C48.5255 35.7925 48.5152 35.7524 48.5019 35.759C48.4885 35.7657 48.3649 35.8292 48.3649 35.8292C48.3649 35.8292 48.2246 35.8325 48.2077 35.8459C48.191 35.8592 48.1008 35.9229 48.0941 35.906C48.0872 35.8893 48.1074 35.8192 48.1043 35.8058C48.1008 35.7925 47.9638 35.8293 47.9638 35.8293C47.9638 35.8293 47.787 35.886 47.78 35.9026C47.7734 35.9195 47.6933 35.936 47.6796 35.9394C47.6663 35.9428 47.6498 35.9428 47.6498 35.9428C47.6498 35.9428 47.5798 35.9864 47.5929 36.0095C47.6063 36.0329 47.496 36.0461 47.496 36.0461C47.496 36.0461 47.426 36.0028 47.4227 35.9931C47.4195 35.9839 47.4987 35.9308 47.5062 35.9262C47.496 35.9329 47.4227 35.8393 47.4126 35.836C47.4038 35.8333 47.2221 35.838 47.1897 35.8366C47.2109 35.8443 47.2756 35.9069 47.2756 35.9162C47.2756 35.9262 47.2857 36.0232 47.2857 36.0232C47.2857 36.0232 47.3388 36.0569 47.349 36.0529C47.359 36.0499 47.3388 36.11 47.3388 36.11L47.2491 36.1C47.2491 36.1 47.2118 36.0462 47.1818 36.0766C47.1517 36.1069 47.0517 36.1837 47.0451 36.1737C47.0382 36.1637 46.9815 36.1837 46.9849 36.2038C46.9883 36.2239 47.0317 36.2671 47.0317 36.2671C47.0317 36.2671 46.9683 36.3205 46.9746 36.3007C46.9815 36.2804 46.8011 36.2338 46.7876 36.2372C46.7738 36.2405 46.6971 36.2639 46.6971 36.2639L46.7303 36.3206C46.7303 36.3206 46.8308 36.3273 46.844 36.3473C46.8578 36.3673 46.821 36.4074 46.8105 36.4074C46.8011 36.4074 46.567 36.2971 46.567 36.2971C46.567 36.2971 46.49 36.2171 46.5131 36.1938C46.5371 36.1704 46.5569 36.1337 46.5131 36.1337C46.4699 36.1337 46.4232 36.1001 46.4202 36.0867C46.4167 36.0734 46.6837 36.1137 46.6837 36.1137L46.8378 36.1302C46.8378 36.1302 46.8178 36.1505 46.878 36.1302C46.9379 36.1101 47.0382 36.0598 47.0517 36.0569C47.0651 36.053 47.0814 35.9897 47.0814 35.9897L47.0615 35.9329L46.487 35.796C46.487 35.796 46.2963 35.7392 46.293 35.7292C46.2897 35.7192 46.1225 35.7023 46.1225 35.7023L46.0421 35.7126L46.1094 35.6289C46.1094 35.6289 45.8483 35.5518 45.8419 35.5618C45.8349 35.5718 45.7282 35.6225 45.7282 35.6225L45.5277 35.5889L45.2702 35.6489L45.0094 35.7126L44.632 35.8729L44.7724 35.8862L44.7119 35.9897L44.5448 36.1137L44.4515 36.2672L44.4381 36.3508L44.348 36.4475C44.348 36.4475 44.2846 36.4142 44.2712 36.401C44.258 36.3873 44.0371 36.4641 44.0371 36.4641L43.9036 36.5912C43.9036 36.5912 43.8702 36.6549 43.8635 36.6716C43.8565 36.6885 43.8735 36.8656 43.8735 36.8656C43.8735 36.8656 43.9537 36.8656 43.9302 36.8889C43.9067 36.9121 43.9101 37.0194 43.9101 37.0194L44.0038 37.0824C44.0038 37.0824 44.1273 37.1229 44.1445 37.1194C44.1605 37.1161 44.2211 37.076 44.2313 37.0693C44.2406 37.0627 44.3146 36.9892 44.3379 36.9923C44.3613 36.9959 44.4213 36.9287 44.4283 36.9525C44.4349 36.9759 44.4484 37.0594 44.4615 37.0794C44.4749 37.0995 44.5216 37.1362 44.5416 37.1828C44.5615 37.2297 44.5889 37.2767 44.5818 37.2862C44.5749 37.2966 44.5282 37.343 44.5282 37.343C44.5282 37.343 44.4283 37.3564 44.4147 37.3702C44.4015 37.3834 44.3848 37.39 44.3747 37.3834C44.3644 37.3767 44.408 37.3297 44.4181 37.3169C44.4282 37.3032 44.3948 37.2497 44.3813 37.2529C44.3677 37.2565 44.3547 37.2229 44.3677 37.2129C44.3813 37.2028 44.378 37.1394 44.378 37.1394C44.378 37.1394 44.3579 37.1293 44.348 37.1328C44.338 37.1361 44.221 37.1828 44.221 37.1828C44.221 37.1828 44.1576 37.2497 44.1542 37.2629C44.1506 37.2767 44.1238 37.3466 44.141 37.3966C44.1576 37.447 44.1976 37.5272 44.1976 37.5272C44.1976 37.5272 44.2406 37.5571 44.2243 37.5706C44.2078 37.5838 44.1739 37.634 44.1739 37.634L44.0941 37.6373C44.0941 37.6373 43.9504 37.6543 43.9368 37.6607C43.9237 37.6676 43.7835 37.7107 43.7898 37.7243C43.7968 37.7376 43.7596 37.8815 43.7596 37.8815C43.7531 37.8849 43.6127 37.985 43.596 37.985C43.5793 37.985 43.4758 38.0116 43.4758 38.0116C43.4758 38.0116 43.429 38.1353 43.4258 38.1285C43.4225 38.1217 43.2683 38.202 43.2683 38.202C43.2683 38.202 43.1515 38.1685 43.1482 38.155C43.1449 38.1418 43.1046 38.1117 43.1015 38.1218C43.098 38.1319 43.1414 38.2359 43.1414 38.2559C43.1414 38.2755 43.1482 38.3157 43.1348 38.3026C43.1213 38.2889 43.0545 38.2693 43.0413 38.2625C43.0276 38.2559 42.9142 38.259 42.9142 38.259H42.8674C42.8674 38.259 42.8104 38.3093 42.807 38.2991C42.8039 38.289 42.8006 38.3428 42.8006 38.3428L42.8338 38.376L42.9545 38.4261L43.068 38.4963L43.1114 38.6031L43.1614 38.7034C43.1614 38.7034 43.128 38.9105 43.1217 38.9208C43.1144 38.9307 43.0445 38.9777 43.0445 38.9777L42.8271 38.974C42.8271 38.974 42.7201 38.9508 42.7101 38.9474C42.7002 38.9439 42.5496 38.9674 42.5467 38.9541C42.5434 38.9406 42.4964 38.9439 42.4964 38.9439L42.4727 38.9173H42.4126L42.3625 38.9739L42.2891 38.9776V39.0375C42.2891 39.0375 42.3191 39.1748 42.3157 39.1648C42.3124 39.1545 42.3025 39.325 42.3025 39.325C42.3025 39.325 42.2302 39.4702 42.2229 39.4813C42.2245 39.4856 42.219 39.579 42.219 39.579L42.2625 39.6493L42.2692 39.7326C42.2692 39.7326 42.2357 39.8094 42.2491 39.8028C42.2626 39.796 42.3697 39.8061 42.3726 39.7928C42.3759 39.7795 42.4396 39.7494 42.4494 39.7727C42.4593 39.796 42.4963 39.7727 42.5068 39.8131C42.5161 39.8531 42.5531 39.9098 42.5568 39.9197C42.56 39.9301 42.5867 39.9398 42.5867 39.9398L42.5967 39.9668L42.5764 39.9836L42.4933 40.1704L42.3091 40.3009L42.199 40.3709L42.1689 40.4547L42.1222 40.5081L42.1088 40.6117C42.1088 40.6117 42.1222 40.7418 42.1153 40.7487C42.1088 40.7553 41.8648 40.9859 41.8648 40.9859L41.7311 41.016L41.6573 41.1431C41.6573 41.1431 41.5571 41.2364 41.5506 41.2535C41.5437 41.2699 41.4937 41.3337 41.4937 41.3337C41.4937 41.3337 41.497 41.4671 41.4937 41.4472C41.4902 41.4272 41.3501 41.5573 41.3501 41.5573C41.3501 41.5573 41.3234 41.7111 41.3168 41.718C41.3102 41.7243 41.2434 41.8414 41.2331 41.8381C41.2231 41.8347 41.2131 41.9182 41.2131 41.9316C41.2131 41.9449 41.2463 41.9849 41.2463 41.9849C41.2463 41.9849 41.2935 42.0755 41.2967 42.0655C41.2999 42.0551 41.2999 42.0957 41.2999 42.0957L41.2533 42.1421C41.2533 42.1421 41.3035 42.2192 41.3035 42.2292V42.4361L41.2498 42.55L41.2231 42.6971L41.1426 42.7605L41.146 42.8007L41.2163 42.8573L41.2266 42.9206L41.2062 42.991V43.0615L41.2567 43.1785C41.2567 43.1785 41.3068 43.2185 41.3167 43.2084C41.3267 43.1983 41.4266 43.2718 41.4402 43.2951C41.4537 43.3185 41.5771 43.4656 41.5771 43.4724C41.5771 43.479 41.5972 43.5125 41.5972 43.5125L41.6573 43.7163C41.6573 43.7163 41.9481 43.9568 41.9548 43.9469C41.9615 43.9372 42.2656 44.1639 42.2656 44.1639C42.2656 44.1639 42.5099 44.044 42.5067 44.0541C42.5031 44.0639 42.7135 44.044 42.7135 44.044L42.8407 44.0639L42.9339 44.1074L43.2751 43.9506L43.342 43.8999L43.6057 43.8903L43.7329 43.9399C43.7329 43.9399 43.8164 44.0639 43.8164 44.084C43.8164 44.104 43.8666 44.1941 43.8734 44.1806C43.8798 44.1676 44.1708 44.1542 44.181 44.1574C44.1907 44.1607 44.3178 44.2847 44.3178 44.2847L44.3112 44.4018L44.2909 44.6087L44.2508 44.709L44.2111 44.7994L44.2011 44.8629C44.2011 44.8629 44.5014 45.3041 44.5014 45.3073C44.5014 45.3106 44.5783 45.4909 44.5783 45.4909L44.6689 45.7218L44.7224 45.8518L44.6689 45.9253L44.7558 46.1497L44.7256 46.3699L44.5952 46.6543L44.5385 46.8647L44.5552 47.1454L44.7118 47.4696L44.8758 47.8406L44.8925 48.2485L45.0231 48.4922L45.1169 48.6891L45.207 48.9033L45.2536 48.9669C45.2536 48.9669 45.2606 49.0738 45.25 49.0738C45.2402 49.0738 45.1903 49.0774 45.2037 49.0971C45.2169 49.117 45.2936 49.2508 45.2936 49.2508L45.2969 49.3112L45.4037 49.371L45.4979 49.3277C45.4979 49.3277 45.5913 49.3112 45.6014 49.3144C45.6113 49.3177 45.7414 49.2708 45.7414 49.2708L45.942 49.3009L46.0824 49.2275L46.2362 49.2175C46.2362 49.2175 46.5002 48.9601 46.5002 48.9668C46.5002 48.9735 46.7436 48.6528 46.7436 48.6528L46.8679 48.5456L46.9378 48.3352L46.9279 48.1985C46.9279 48.1985 46.9514 48.1278 46.9745 48.1145C46.9982 48.1013 47.2251 47.9676 47.2251 47.9676L47.2724 47.7469L47.2286 47.5295C47.2286 47.5295 47.195 47.4463 47.195 47.4328C47.195 47.4197 47.2184 47.3591 47.2184 47.3591L47.4393 47.162C47.4393 47.162 47.4893 47.0985 47.5127 47.0752C47.5362 47.0519 47.743 46.9617 47.743 46.9617L47.8837 46.825L47.9071 46.3201C47.9071 46.3201 47.8569 46.1325 47.8536 46.1161C47.8504 46.099 47.7535 45.7819 47.7535 45.7684C47.7535 45.7552 47.7201 45.5611 47.7163 45.5442C47.7136 45.5281 47.793 45.304 47.793 45.304L47.9036 45.0864L48.355 44.5685L48.6092 44.365L48.9934 43.7363L49.1171 43.4455L49.1436 43.1517L49.0636 43.1383C49.0636 43.1383 49.0234 43.185 49.0134 43.1916C49.0033 43.1985 48.7727 43.2119 48.7727 43.2119L48.4919 43.2951L48.3549 43.3453L48.2213 43.2052L48.2412 43.105L48.061 42.8908L47.8069 42.6373C47.8069 42.6373 47.6795 42.5401 47.6863 42.5304C47.6932 42.5201 47.616 42.2861 47.616 42.2929C47.616 42.2996 47.4891 42.1761 47.4891 42.1761L47.4858 41.9519L47.3488 41.7283L47.1987 41.454C47.1987 41.454 47.0714 41.1397 47.058 41.123C47.0449 41.1064 46.9948 41.023 47.0113 41.0262C47.028 41.0297 47.1483 41.0129 47.1483 41.0129C47.1483 41.0129 47.3721 41.2771 47.3721 41.2904C47.3721 41.3038 47.506 41.5274 47.506 41.5274C47.506 41.5274 47.6061 41.668 47.6061 41.6577C47.6061 41.6482 47.6295 41.788 47.6261 41.7984C47.6228 41.8084 47.6863 41.9622 47.6863 41.9622L47.8769 42.1328L47.9169 42.2562L48.0907 42.4467L48.1243 42.5671L48.0071 42.4598C48.0071 42.4598 47.9703 42.5202 47.9837 42.5305C47.9969 42.5402 48.114 42.664 48.114 42.664L48.1713 42.8342L48.2147 42.9949L48.278 43.0483L48.4653 43.0116L48.4985 42.9378H48.6824L48.7625 42.8778L48.8624 42.8644C48.8624 42.8644 48.9395 42.7875 48.9461 42.7841C48.953 42.7807 49.2504 42.6507 49.2504 42.6507C49.2504 42.6507 49.2569 42.5534 49.2704 42.5534C49.2838 42.5534 49.5814 42.4598 49.5814 42.4598L49.6114 42.3463L49.718 42.3396L49.7482 42.2629L49.8518 42.1995L49.8648 42.0323L49.9419 42.0554L49.9655 41.9986L49.9388 41.9622L50.0558 41.7918L50.0591 41.7313L49.9454 41.6278L49.8921 41.5711C49.8921 41.5711 49.7115 41.5508 49.7046 41.5374C49.6981 41.524 49.6279 41.3635 49.6279 41.3635C49.6279 41.3137 49.6312 41.2232 49.6211 41.23C49.6114 41.2367 49.5545 41.3001 49.5545 41.3001L49.3477 41.4907L49.1668 41.5374C49.1668 41.5374 49.1069 41.5207 49.1034 41.5108C49.1001 41.5008 49.0934 41.3469 49.0934 41.3469C49.0934 41.3469 49.0162 41.2567 49.0132 41.2435C49.0099 41.23 48.9529 41.3606 48.9529 41.3606C48.9529 41.3606 48.8659 41.2435 48.8758 41.2398C48.8858 41.2367 48.8357 41.123 48.8357 41.123L48.6622 40.9227L48.6523 40.8189C48.6523 40.8189 48.7358 40.7285 48.7491 40.7251C48.7623 40.7219 48.8826 40.7053 48.8961 40.7489C48.9096 40.7919 49.0098 40.9395 49.0098 40.9595C49.0098 40.9794 49.1633 41.113 49.1802 41.1096C49.1967 41.1064 49.2567 41.1397 49.277 41.1531C49.297 41.1664 49.3369 41.1899 49.3537 41.2068C49.3704 41.2232 49.4139 41.2134 49.4139 41.2134L49.5242 41.1966C49.5242 41.1966 49.6143 41.1096 49.6179 41.1264C49.6209 41.1435 49.7246 41.1501 49.7113 41.1732C49.6979 41.1966 49.715 41.2637 49.7246 41.2837C49.735 41.3039 50.1858 41.374 50.1858 41.374L50.3933 41.4007C50.3933 41.4007 50.6134 41.3805 50.6268 41.3805C50.6401 41.3805 50.7809 41.3941 50.7942 41.3903C50.8073 41.3873 51.0079 41.6077 51.0079 41.6077L51.1951 41.7016L51.2383 41.6981L51.1319 41.745C51.1319 41.745 51.1681 41.8286 51.1681 41.8385C51.1681 41.8485 51.3555 41.9823 51.3555 41.9823C51.3555 41.9823 51.4222 41.9386 51.4322 41.9386C51.4424 41.9386 51.4891 41.922 51.4926 41.8985C51.4958 41.8752 51.4823 41.8085 51.4991 41.8018C51.5162 41.7951 51.5391 41.7749 51.543 41.8052C51.5459 41.835 51.5867 42.1225 51.5797 42.1256C51.5725 42.1295 51.6365 42.343 51.6365 42.353C51.6365 42.3631 51.72 42.6239 51.7231 42.6339C51.7266 42.6438 51.8634 42.9379 51.8734 42.948C51.8832 42.958 52.0172 43.3054 52.0172 43.3054C52.0172 43.3054 52.0942 43.4492 52.0908 43.4728C52.0875 43.4962 52.1176 43.6097 52.1378 43.6231C52.1577 43.6364 52.2478 43.6699 52.2478 43.6699C52.2478 43.6699 52.2978 43.6262 52.3014 43.6131C52.3045 43.5999 52.3415 43.5397 52.3545 43.5197C52.368 43.4994 52.4287 43.4931 52.4317 43.5062C52.4348 43.5197 52.5054 43.553 52.5054 43.553L52.4981 43.7167C52.4981 43.7167 52.5119 43.8233 52.5217 43.8641C52.5323 43.9041 52.6155 43.9375 52.6155 43.9375L52.7157 43.8473L52.759 43.6932L52.6591 43.5431C52.6591 43.5431 52.5824 43.4596 52.5723 43.4493C52.5621 43.4396 52.4981 43.4296 52.4981 43.4296C52.4981 43.4296 52.5054 43.4631 52.5119 43.4762C52.5188 43.4896 52.4981 43.4932 52.4981 43.4932L52.4214 43.4632L52.4349 43.3755C52.4349 43.3755 52.4923 43.3657 52.5021 43.3657C52.5119 43.3657 52.4981 43.2321 52.4981 43.2321C52.4981 43.2321 52.5189 42.9951 52.5256 42.9884C52.5323 42.9815 52.5154 42.7478 52.4886 42.7379C52.4622 42.7278 52.4886 42.6511 52.5022 42.6476C52.5154 42.6441 52.6457 42.5975 52.6457 42.5975L52.7189 42.4538C52.7189 42.4538 52.8497 42.3634 52.8596 42.3567C52.8695 42.3499 53.0197 42.1899 53.0197 42.1695C53.0197 42.1498 53.0368 42.0996 53.0767 42.0925C53.1169 42.0862 53.1906 42.0326 53.1906 42.0326V41.9222C53.1906 41.9222 53.2039 41.8688 53.2339 41.8555C53.2637 41.8421 53.3407 41.8319 53.3407 41.8319C53.3407 41.8319 53.3577 41.8755 53.3474 41.882C53.3373 41.8889 53.5178 41.8319 53.5178 41.8319C53.5178 41.8319 53.5979 41.8319 53.6113 41.8288C53.625 41.8252 53.665 41.7654 53.665 41.7654C53.665 41.7654 53.6479 41.7116 53.6711 41.7249C53.695 41.7387 53.7518 41.7987 53.7453 41.8088C53.7382 41.8184 53.7784 41.8854 53.7687 41.9121C53.7584 41.9388 53.9223 42.1196 53.9223 42.1196C53.9223 42.1196 54.0022 42.0826 53.9957 42.1094C53.9888 42.1361 53.9725 42.2199 53.9725 42.2199C53.9725 42.2199 54.0227 42.2531 54.0425 42.2566C54.0626 42.2598 54.1194 42.3701 54.1194 42.3701C54.1194 42.3701 54.106 42.4701 54.106 42.4835C54.106 42.4969 54.1132 42.594 54.1092 42.6108C54.106 42.6274 54.2463 42.6579 54.2463 42.6579C54.2463 42.6579 54.3572 42.567 54.3639 42.5568L54.364 42.5567ZM44.4549 37.5907L44.5654 37.497L44.589 37.4067C44.589 37.4067 44.6923 37.4235 44.6954 37.4369C44.6987 37.45 44.7225 37.4067 44.7488 37.4302C44.7758 37.4536 44.8093 37.45 44.8127 37.4702C44.8156 37.4903 44.836 37.5137 44.8392 37.5003C44.8425 37.4869 44.8425 37.4435 44.8425 37.4435C44.8425 37.4435 44.8127 37.4269 44.7958 37.4165C44.7789 37.4066 44.7824 37.3765 44.7992 37.3668C44.8157 37.3568 44.8625 37.3296 44.876 37.3398C44.8894 37.3495 44.9496 37.3265 44.9496 37.3265C44.9496 37.3265 44.9596 37.3061 44.9662 37.2965C44.9731 37.2861 45.0065 37.1961 45.0065 37.1961C45.0065 37.1961 44.9827 37.1861 44.9762 37.1559C44.9694 37.126 45.0131 37.039 45.0233 37.0358C45.0329 37.0324 45.1638 36.9554 45.1638 36.9554C45.1638 36.9554 45.2138 36.9018 45.1937 36.8853C45.1735 36.8684 45.0232 36.795 45.0232 36.7783C45.0232 36.7616 45.0065 36.6747 45.0163 36.6414C45.0264 36.6081 45.0867 36.5444 45.0966 36.5309C45.1068 36.5179 45.1803 36.4276 45.1937 36.4306C45.2071 36.4342 45.2571 36.4239 45.2702 36.4175C45.2839 36.4105 45.4005 36.3572 45.3806 36.3539C45.3606 36.3505 45.3873 36.2905 45.3771 36.2937C45.3671 36.297 45.3873 36.217 45.4108 36.2104C45.434 36.2037 45.474 36.1736 45.4845 36.1736C45.4939 36.1736 45.5747 36.177 45.5947 36.1802C45.6146 36.1836 45.6848 36.1503 45.6948 36.1802C45.7047 36.2103 45.7313 36.217 45.7082 36.227C45.6848 36.237 45.6313 36.2838 45.5979 36.3137C45.5646 36.3437 45.4641 36.411 45.4507 36.414C45.4376 36.4175 45.4303 36.424 45.4038 36.4409C45.3771 36.4573 45.3771 36.4176 45.3707 36.4808C45.3638 36.5444 45.354 36.6145 45.3671 36.6382C45.3805 36.6615 45.3904 36.6982 45.3771 36.715C45.3639 36.7318 45.3737 36.7418 45.3771 36.7718C45.3805 36.8018 45.4213 36.8151 45.4242 36.8285C45.4273 36.8419 45.4807 36.8685 45.4807 36.8685C45.5074 36.8655 45.5382 36.8621 45.5443 36.8755C45.5513 36.8888 45.5647 36.8822 45.5647 36.8822L45.621 36.8685C45.621 36.8685 45.6781 36.8352 45.6983 36.8385C45.7182 36.8419 45.7448 36.8319 45.7682 36.8385C45.7917 36.8452 45.8917 36.8118 45.9055 36.8151C45.9188 36.8188 46.0121 36.7784 46.019 36.7919C46.0257 36.8052 46.0759 36.8018 46.0759 36.8018L46.1161 36.8319C46.1161 36.8518 46.0759 36.8986 46.0661 36.9055C46.0559 36.9121 46.0226 36.9392 46.0026 36.9322C45.9826 36.9258 45.9688 36.9356 45.9422 36.9258C45.9154 36.9155 45.8652 36.9019 45.8517 36.9019C45.8384 36.9019 45.6817 36.9392 45.6817 36.9392L45.6017 36.9623L45.5879 37.0093L45.598 37.0193L45.6782 37.0693C45.6782 37.0862 45.7119 37.076 45.7049 37.1161C45.6984 37.1562 45.6949 37.1728 45.6849 37.1928C45.6747 37.213 45.6348 37.2497 45.6248 37.2262C45.6148 37.2029 45.5649 37.1594 45.5514 37.1494C45.5383 37.1395 45.4982 37.1461 45.4742 37.1461C45.4509 37.1461 45.404 37.1796 45.404 37.2163C45.404 37.253 45.3808 37.3002 45.3906 37.3364C45.4008 37.3736 45.4444 37.4204 45.4244 37.4437C45.404 37.4672 45.3576 37.4839 45.3376 37.4938C45.3176 37.5038 45.2705 37.5372 45.2539 37.5439C45.2372 37.5505 45.1871 37.5705 45.1769 37.5472C45.1671 37.5237 45.147 37.487 45.147 37.487C45.147 37.487 45.1303 37.4538 45.1233 37.4638C45.1174 37.4735 45.08 37.4772 45.08 37.4772L44.9935 37.5105C44.9935 37.5105 44.9464 37.5438 44.9366 37.5506C44.9262 37.5572 44.8762 37.5572 44.8562 37.5672C44.8362 37.5773 44.776 37.6274 44.7594 37.604C44.7425 37.5808 44.7328 37.6207 44.7122 37.584C44.6927 37.5473 44.699 37.5071 44.6755 37.514C44.6524 37.5207 44.5985 37.5339 44.5922 37.5473C44.5853 37.5606 44.5786 37.5606 44.5657 37.574C44.5523 37.5872 44.4552 37.5973 44.4552 37.5973V37.5907L44.4549 37.5907ZM47.2239 40.0653C47.1989 40.1306 47.1989 40.2157 47.1636 40.2809C47.1283 40.3458 47.1133 40.3809 47.0884 40.4215C47.0632 40.4611 47.0632 40.5165 47.0233 40.5415C46.9833 40.5667 46.9232 40.6017 46.888 40.5767C46.8532 40.5515 46.7127 40.5566 46.6973 40.5617C46.6824 40.5667 46.5122 40.5566 46.492 40.5915C46.472 40.6267 46.3421 40.6017 46.3214 40.5915C46.3014 40.5816 46.0559 40.4811 46.036 40.4763C46.016 40.4714 45.8902 40.4164 45.8699 40.4013C45.85 40.3862 45.7249 40.3709 45.72 40.3559C45.7149 40.3408 45.73 40.3209 45.7096 40.3259C45.69 40.3305 45.5443 40.376 45.5244 40.3907C45.504 40.4063 45.4595 40.4463 45.4595 40.4463C45.4595 40.4463 45.3988 40.5064 45.4039 40.5514C45.4093 40.5966 45.4642 40.6316 45.4442 40.6566C45.4243 40.6816 45.3541 40.7117 45.3541 40.7117C45.3541 40.7117 45.2784 40.6416 45.2538 40.6316C45.2287 40.6216 44.9934 40.5866 44.9934 40.5866L44.898 40.4763C44.898 40.4763 44.7477 40.376 44.7326 40.371C44.7174 40.366 44.552 40.371 44.5267 40.351C44.5015 40.3306 44.4214 40.2256 44.3815 40.2307C44.3413 40.2356 44.3565 40.1705 44.3715 40.1605C44.3864 40.1506 44.4316 40.0653 44.4266 40.0503C44.4214 40.0351 44.4516 39.9502 44.4016 39.9252C44.3515 39.8995 44.3864 39.8144 44.3864 39.8144C44.3864 39.8144 44.4367 39.8044 44.4166 39.8044C44.3966 39.8044 44.3214 39.8094 44.3012 39.7844C44.2815 39.7593 44.2759 39.7494 44.2564 39.7593C44.2359 39.7695 44.1106 39.7895 44.0957 39.7844C44.0805 39.7795 43.9605 39.7944 43.9404 39.7944C43.9205 39.7944 43.9455 39.7995 43.9205 39.7944C43.895 39.7894 43.7947 39.8348 43.7898 39.8545C43.7852 39.8745 43.6849 39.8499 43.6697 39.8545C43.6544 39.8595 43.5092 39.8595 43.5092 39.8595L43.2684 39.8996C43.2684 39.8996 43.1081 39.9803 43.1031 40.0053C43.0981 40.0304 43.0479 40.0705 43.033 40.0803C43.0181 40.0904 42.9279 40.0803 42.9224 40.0653C42.9177 40.0503 42.757 40.0705 42.757 40.0705C42.757 40.0705 42.692 40.0352 42.672 40.0504C42.652 40.0654 42.652 39.985 42.652 39.985L42.677 39.9254L42.7671 39.8651L42.983 39.8246L43.0883 39.7547L43.1531 39.7296L43.1931 39.6245C43.1931 39.6245 43.2683 39.6095 43.2633 39.5942C43.2584 39.5792 43.2386 39.509 43.2386 39.509L43.3837 39.2835L43.5891 39.1832L43.6243 39.113C43.6243 39.113 43.6046 39.0229 43.6194 39.0076C43.6343 38.9925 43.7697 38.9624 43.7697 38.9624L43.9403 39.0176C43.9403 39.0176 44.0304 38.9576 44.0504 38.9475C44.0703 38.9374 44.1658 38.8824 44.1658 38.8824C44.1658 38.8824 44.1755 38.8374 44.1957 38.8423C44.2157 38.8473 44.301 38.8273 44.3112 38.8674C44.3212 38.9075 44.3964 39.0329 44.3964 39.0329L44.5116 39.1533L44.622 39.2386L44.7575 39.2885C44.7575 39.2885 44.8375 39.3587 44.8524 39.3638C44.8674 39.3686 44.9425 39.4541 44.9425 39.4541L44.9826 39.524C44.9826 39.524 44.9576 39.5794 44.9376 39.6045C44.9176 39.6293 44.8575 39.6947 44.8424 39.6894C44.8273 39.6848 44.7117 39.6647 44.7117 39.6647L44.5866 39.6796C44.5866 39.6796 44.5668 39.7098 44.6018 39.7348C44.6369 39.7598 44.6769 39.7549 44.7118 39.7749C44.7475 39.7948 44.8376 39.8352 44.8376 39.8352C44.8376 39.8352 44.8979 39.8449 44.8979 39.8599C44.8979 39.875 44.9177 39.8198 44.9127 39.7848C44.9077 39.7498 44.9025 39.7048 44.9377 39.6947C44.973 39.6847 45.0279 39.6947 45.0279 39.6795C45.0279 39.6645 45.0432 39.6442 45.0432 39.6442L45.0883 39.5895L45.0832 39.5545L45.1286 39.5189C45.1286 39.5189 45.1036 39.4894 45.0832 39.464C45.0634 39.4388 45.0432 39.4238 45.0577 39.3987C45.0731 39.3738 45.123 39.3386 45.1486 39.3587C45.1735 39.3787 45.2485 39.3887 45.2435 39.4139C45.2387 39.4388 45.2435 39.4737 45.2537 39.454C45.2634 39.4338 45.2588 39.3536 45.2588 39.3536C45.2588 39.3536 45.2186 39.2986 45.1834 39.2936C45.1487 39.2884 45.0577 39.2434 45.0329 39.2335C45.008 39.2234 44.963 39.1985 44.963 39.1985C44.963 39.1985 44.9828 39.1434 44.9532 39.1484C44.9228 39.1533 44.8327 39.1381 44.8327 39.1233C44.8327 39.1079 44.7424 39.0376 44.7377 39.023C44.7327 39.0076 44.6522 38.8974 44.6522 38.8974C44.6522 38.8974 44.6069 38.8524 44.6021 38.8374C44.5969 38.8223 44.5921 38.7972 44.582 38.7573C44.5717 38.7171 44.6821 38.6169 44.6772 38.6318C44.6721 38.6466 44.7023 38.6669 44.7226 38.7119C44.7424 38.7573 44.8226 38.8323 44.8327 38.8624C44.8426 38.8923 44.9532 38.9778 44.9779 38.9876C45.0034 38.9975 45.0179 39.0278 45.0682 39.0478C45.1186 39.0679 45.1137 39.0776 45.1787 39.1079C45.2436 39.138 45.2538 39.1483 45.2634 39.163C45.2739 39.1783 45.3136 39.1733 45.329 39.1983C45.3439 39.2232 45.364 39.2283 45.364 39.2533C45.364 39.2783 45.3843 39.2783 45.3738 39.3284C45.364 39.3785 45.349 39.3935 45.3541 39.4035C45.3592 39.4138 45.4495 39.5994 45.4846 39.5994C45.5196 39.5994 45.6247 39.6395 45.6097 39.6994C45.5948 39.7594 45.6747 39.8397 45.6747 39.8397C45.6747 39.8397 45.7418 39.844 45.7881 39.8517C45.79 39.8167 45.7826 39.7606 45.8206 39.7394C45.8653 39.7143 45.9305 39.689 45.9204 39.6643C45.9101 39.6393 45.9002 39.594 45.8602 39.5641C45.8206 39.5342 45.78 39.5186 45.77 39.469C45.7602 39.4187 45.7449 39.3533 45.79 39.3735C45.835 39.3934 45.8752 39.4891 45.8957 39.4235C45.9154 39.3585 45.9654 39.3133 46.0004 39.3284C46.0359 39.3434 46.1011 39.3684 46.0961 39.3884C46.091 39.4085 46.1411 39.5691 46.1411 39.5691C46.1411 39.5691 46.1611 39.5843 46.1711 39.6593C46.181 39.7343 46.2462 39.7545 46.2363 39.7796C46.2262 39.8044 46.196 39.8194 46.2765 39.8297C46.3563 39.8397 46.4319 39.8546 46.4319 39.8746C46.4319 39.8948 46.497 39.9052 46.5071 39.9199C46.5169 39.935 46.5771 39.965 46.5872 39.935C46.5972 39.9052 46.6173 39.8446 46.6323 39.8547C46.6474 39.8651 46.7726 39.8651 46.7828 39.9053C46.7932 39.9448 46.8782 39.9448 46.8782 39.9555C46.8782 39.9652 46.9533 39.9304 46.9533 39.9304C46.9533 39.9304 47.0585 39.85 47.0886 39.8651C47.1185 39.8801 47.2035 39.8096 47.1935 39.8748C47.1837 39.94 47.2491 40.0003 47.2239 40.0653ZM47.725 39.1831C47.7103 39.1982 47.6147 39.2933 47.6147 39.2933L47.4242 39.2681H47.294L47.1837 39.2282C47.1837 39.2282 47.1084 39.2032 47.0934 39.188C47.0782 39.173 46.9833 39.1377 46.9833 39.1377L46.7826 39.183L46.627 39.2282L46.5722 39.2781L46.3867 39.2331L46.2765 39.1781L46.216 39.1127H46.2712L46.2516 39.0326L46.2612 38.9776L46.3112 38.9473L46.3465 38.8021L46.4068 38.777L46.4217 38.702C46.4217 38.702 46.4719 38.6566 46.4871 38.6416C46.5021 38.6267 46.5522 38.5562 46.5522 38.5562L46.6722 38.6065C46.6722 38.6065 46.7975 38.6217 46.7776 38.6268C46.7572 38.6317 46.6972 38.7021 46.6972 38.7021C46.6972 38.7021 46.7423 38.7267 46.763 38.7421C46.7826 38.7571 46.828 38.7819 46.8178 38.8122C46.8077 38.8422 46.893 38.8372 46.893 38.8372L46.9231 38.7871L47.0632 38.7521L47.1134 38.7268L47.0331 38.7021C47.0331 38.7021 46.963 38.6768 46.9731 38.6617C46.9833 38.6465 47.0483 38.5463 47.0483 38.5463C47.0483 38.5463 47.2138 38.4964 47.2287 38.4964C47.2434 38.4964 47.3443 38.4764 47.3443 38.4764C47.3443 38.4764 47.2641 38.5565 47.2538 38.5717C47.2434 38.5869 47.259 38.6366 47.2338 38.6569C47.209 38.6769 47.1734 38.6972 47.1586 38.7023C47.1433 38.7069 47.1533 38.7573 47.1684 38.7624C47.1839 38.7675 47.2338 38.7874 47.2338 38.7874L47.4544 38.9025L47.5897 39.0377L47.6953 39.1234C47.6953 39.123 47.74 39.1681 47.725 39.1831ZM48.9986 39.8445L48.8727 39.8595C48.8727 39.8595 48.7627 39.8144 48.758 39.7945C48.7525 39.7745 48.7276 39.7294 48.7125 39.7394C48.6976 39.7495 48.6475 39.7545 48.6325 39.7495C48.6176 39.7444 48.562 39.6994 48.562 39.6793C48.562 39.6594 48.5467 39.6144 48.572 39.5941C48.5973 39.5741 48.6474 39.5392 48.6372 39.5238C48.6276 39.5089 48.6221 39.4442 48.6221 39.4337C48.6221 39.4236 48.6221 39.4138 48.6524 39.4087C48.6824 39.4035 48.6824 39.4035 48.6824 39.4035C48.6824 39.4035 48.6924 39.3737 48.6773 39.3586C48.6623 39.3435 48.5718 39.2783 48.5618 39.2633C48.5524 39.2484 48.4415 39.1432 48.4266 39.1277C48.4117 39.113 48.3465 39.0679 48.3465 39.0679L48.3114 38.9925L48.3413 38.8974L48.2514 38.8773L48.2314 38.8124V38.7972L48.3263 38.6871C48.3263 38.6871 48.3918 38.6521 48.4066 38.6617C48.4216 38.6721 48.4565 38.6318 48.4623 38.6167C48.4667 38.6014 48.5619 38.5363 48.5823 38.5263C48.6022 38.5164 48.6372 38.4713 48.6575 38.4963C48.6773 38.5213 48.8025 38.5616 48.8025 38.5616C48.8025 38.5616 48.848 38.5715 48.8425 38.5913C48.8377 38.6117 48.7975 38.7421 48.7975 38.7421C48.7975 38.7421 48.7076 38.717 48.6976 38.722C48.6878 38.7268 48.6176 38.7521 48.6325 38.7922C48.6475 38.8323 48.5775 38.8072 48.5824 38.8272C48.5871 38.8471 48.5973 38.8772 48.6125 38.8873C48.6276 38.8973 48.7124 38.9423 48.7226 38.9725C48.7324 39.0028 48.8727 39.093 48.8727 39.093C48.8727 39.093 48.8879 39.1029 48.8828 39.1232C48.8781 39.1432 48.8678 39.2484 48.8828 39.2484C48.8978 39.2484 48.9327 39.2433 48.9327 39.2433C48.9327 39.2433 48.9783 39.1482 48.9934 39.1583C49.0083 39.1682 49.0686 39.2133 49.0836 39.2483C49.0983 39.2834 49.1286 39.3183 49.1135 39.3284C49.0982 39.3383 49.0282 39.3334 49.0083 39.3334C48.9885 39.3334 48.953 39.3083 48.9431 39.3183C48.9327 39.3284 48.9131 39.3534 48.928 39.3833C48.9431 39.4137 48.9734 39.4587 48.9885 39.469C49.0033 39.4788 49.0182 39.4735 49.0636 39.5141C49.1087 39.5542 49.1236 39.574 49.1087 39.6192C49.0936 39.6643 49.1036 39.7045 49.1087 39.7193C49.1136 39.7344 49.1236 39.7694 49.1339 39.7844C49.1436 39.7995 49.1436 39.8194 49.1436 39.8194L48.9986 39.8445ZM47.1901 35.8362C47.1883 35.8355 47.1864 35.8355 47.1857 35.8355C47.1841 35.8362 47.1857 35.8362 47.1901 35.8362ZM59.3703 36.875C59.3703 36.8743 59.3703 36.8729 59.3691 36.8719C59.37 36.8753 59.37 36.877 59.3703 36.875ZM50.3309 35.1837C50.3309 35.1837 50.333 35.1832 50.337 35.1813C50.3336 35.1782 50.3312 35.1758 50.3309 35.1743C50.3276 35.1606 50.3309 35.1837 50.3309 35.1837ZM48.9105 46.3793C48.9105 46.3793 48.8033 46.4999 48.7969 46.5202C48.7899 46.5399 48.7034 46.6469 48.6895 46.6802C48.6761 46.7136 48.5696 46.787 48.5696 46.787L48.3757 46.8673C48.3757 46.8673 48.309 46.874 48.3289 46.9011C48.3487 46.9282 48.3154 46.9542 48.269 47.0145C48.222 47.0745 48.269 47.1547 48.269 47.1547L48.2954 47.2883V47.4155C48.2954 47.4155 48.2552 47.5559 48.2352 47.5624C48.2154 47.5693 48.182 47.6093 48.162 47.6763C48.1417 47.743 48.1486 47.7898 48.1486 47.7898C48.1486 47.7898 48.162 47.89 48.1417 47.9103C48.1213 47.9302 48.1751 48.0303 48.1955 48.0641C48.2154 48.0973 48.269 48.1172 48.269 48.1172C48.269 48.1172 48.3154 48.1575 48.3357 48.1707C48.3556 48.1841 48.4558 48.1445 48.4558 48.1445C48.4558 48.1445 48.5295 48.1111 48.5493 48.0974C48.5695 48.0838 48.583 48.0775 48.6228 48.0106C48.6631 47.9437 48.6364 47.9637 48.6427 47.9437C48.6499 47.9238 48.6895 47.8366 48.7098 47.7231C48.7298 47.6094 48.7367 47.6161 48.7633 47.5159C48.7898 47.4156 48.8233 47.3886 48.83 47.3089C48.8367 47.2286 48.8432 47.1949 48.8498 47.168C48.8567 47.1415 48.9238 47.0413 48.9302 46.9743C48.9367 46.9077 48.9367 46.8741 48.9238 46.8476C48.9105 46.8205 49.004 46.8405 49.0171 46.8004C49.0308 46.7602 49.0171 46.8004 49.024 46.7807C49.0308 46.7603 49.0376 46.6336 49.0376 46.5602C49.0376 46.4867 48.9641 46.3726 48.9567 46.3529C48.9505 46.3328 48.9105 46.3793 48.9105 46.3793ZM55.5876 45.4103C55.608 45.3568 55.5876 45.3501 55.5744 45.3235C55.5612 45.2968 55.6009 45.1766 55.6546 45.1296C55.708 45.0827 55.6279 45.0759 55.6279 45.0759L55.5477 45.0893L55.4741 44.9489C55.4741 44.9489 55.3471 44.849 55.3071 44.8221C55.2669 44.7956 55.3669 44.7418 55.3669 44.7418C55.3669 44.7418 55.1402 44.5279 55.1133 44.5279C55.0866 44.5279 54.9527 44.4211 54.9327 44.4141C54.9127 44.4077 54.8058 44.2271 54.8058 44.2271L54.3511 43.9999C54.3511 43.9999 54.2911 44.0536 54.2911 44.0801C54.2911 44.1068 54.3714 44.1202 54.3714 44.1202C54.3714 44.1202 54.3979 44.1401 54.4247 44.1536C54.4514 44.1671 54.5315 44.2338 54.5383 44.2808C54.5447 44.3274 54.5584 44.3542 54.6051 44.3941C54.6522 44.4343 54.732 44.4547 54.732 44.4547C54.732 44.4547 54.7658 44.5681 54.7926 44.5815C54.8191 44.595 54.8393 44.6549 54.8523 44.6885C54.8658 44.7219 54.993 44.929 54.9858 45.0025C54.9794 45.0761 55.0799 45.25 55.0799 45.25C55.0799 45.25 55.3072 45.4303 55.3139 45.4572C55.3205 45.4837 55.487 45.5307 55.487 45.5307C55.487 45.5307 55.5676 45.4637 55.5876 45.4103ZM57.1384 44.04C57.1384 44.0133 57.0648 43.9533 57.0446 43.9264C57.0246 43.8994 56.9045 43.7925 56.8778 43.7726C56.8513 43.7526 56.8778 43.7726 56.8378 43.8464C56.7977 43.9198 56.7508 44.0067 56.7305 44.0132C56.7104 44.0199 56.5637 44.1134 56.5234 44.1601C56.4834 44.2068 56.4034 44.3273 56.3767 44.3078C56.3501 44.2874 56.2359 44.394 56.2359 44.394L56.1759 44.5411L55.9886 44.5012L56.0019 44.5616C56.0019 44.5616 55.9421 44.6547 55.9555 44.6752C55.9689 44.6952 55.9555 44.7689 55.9755 44.8086C55.9953 44.849 56.0155 44.8756 56.0489 44.9023C56.0823 44.929 56.0889 45.0159 56.0688 45.0827C56.0488 45.1496 56.0958 45.1629 56.1223 45.19C56.149 45.2165 56.209 45.2234 56.2359 45.203C56.2626 45.1828 56.3162 45.1765 56.35 45.1965C56.3827 45.2165 56.4701 45.2165 56.4966 45.2499C56.5233 45.2833 56.6304 45.2632 56.6502 45.2833C56.6706 45.3033 56.7774 45.2632 56.804 45.2361C56.8304 45.2099 56.804 45.1566 56.804 45.0693C56.804 44.9825 56.8174 44.9892 56.8644 44.9557C56.9112 44.9223 56.9446 44.8956 56.9511 44.8491C56.9581 44.802 56.9713 44.7219 56.9713 44.6817C56.9713 44.6415 57.0783 44.6484 57.0981 44.6349C57.1187 44.6215 57.0847 44.5949 57.0847 44.5749C57.0847 44.5546 56.9978 44.4612 56.9781 44.4277C56.9581 44.3941 57.0113 44.227 57.0445 44.2004C57.0784 44.1736 57.1384 44.0667 57.1384 44.04ZM56.2026 45.8379C56.2225 45.8446 56.2693 45.8446 56.3692 45.8713C56.47 45.898 56.5636 45.9049 56.5767 45.9315C56.5902 45.958 56.6767 45.9315 56.7173 45.9249C56.7573 45.918 56.8512 45.8311 56.9112 45.8981C56.9714 45.9649 57.0915 45.918 57.1116 45.9315C57.1316 45.9445 57.1922 45.8981 57.2653 45.9049C57.339 45.9113 57.3457 45.9315 57.3656 45.9315C57.3856 45.9315 57.4525 45.9516 57.486 45.9445C57.5194 45.938 57.5594 45.898 57.6196 45.9049C57.6801 45.9112 57.84 45.8577 57.84 45.8577C57.84 45.8577 57.84 45.8645 57.8004 45.8912C57.7601 45.9179 57.6263 46.018 57.6263 46.018C57.6263 46.018 57.6062 46.0048 57.5994 46.0451C57.5929 46.0851 57.5529 46.1655 57.5929 46.1316C57.6332 46.0987 57.7736 45.9782 57.807 45.9515C57.8401 45.9248 57.8535 45.9112 57.887 45.8912C57.9204 45.8712 57.9938 45.851 57.9938 45.851L58.0409 45.8176C58.0409 45.8176 58.0006 45.7911 57.9804 45.7976C57.9607 45.8046 57.9269 45.7711 57.8804 45.7911C57.8335 45.8111 57.7067 45.8311 57.7067 45.8311C57.7067 45.8311 57.6264 45.8446 57.5797 45.8247C57.5329 45.8047 57.4792 45.7711 57.4593 45.7977C57.4393 45.8247 57.3257 45.8579 57.3053 45.8579C57.2856 45.8579 57.2119 45.8512 57.1585 45.838C57.105 45.8247 57.0915 45.8247 57.0649 45.8247C57.0382 45.8247 57.0382 45.8048 56.9647 45.7978C56.8909 45.7913 56.8706 45.7713 56.8513 45.7778C56.8305 45.7848 56.7978 45.7913 56.7711 45.8048C56.7441 45.8178 56.6636 45.8178 56.6441 45.7978C56.6237 45.7778 56.423 45.7378 56.423 45.7378C56.423 45.7378 56.3965 45.7044 56.4569 45.6844C56.5168 45.6644 56.5038 45.6644 56.4967 45.6378C56.4902 45.6106 56.3896 45.6106 56.3633 45.6178C56.3366 45.6241 56.2693 45.6378 56.2427 45.6106C56.2161 45.5844 56.1359 45.5168 56.1093 45.5571C56.0824 45.5973 56.0959 45.6509 56.069 45.6444C56.0425 45.6378 55.8616 45.6576 55.8616 45.6378C55.8616 45.6178 55.8149 45.5641 55.7947 45.5571C55.7747 45.5506 55.7815 45.5307 55.7482 45.5168C55.7146 45.5042 55.6479 45.5237 55.6479 45.5237L55.5812 45.5307L55.5008 45.6241C55.5008 45.6241 55.688 45.6444 55.708 45.671C55.728 45.6978 55.8284 45.7778 55.8284 45.7778C55.8284 45.7778 55.9618 45.8111 55.9954 45.8178C56.0289 45.8247 56.1827 45.8311 56.2026 45.8379ZM55.9823 42.0884C55.9616 42.0751 55.9086 42.0751 55.9086 42.0751L55.8416 42.1017L55.8082 42.0884L55.7345 42.1888C55.7345 42.1888 55.7546 42.3022 55.7747 42.3022H55.8682L55.9421 42.2489L55.9823 42.1488C55.9823 42.1488 56.0019 42.1018 55.9823 42.0884ZM57.0648 41.8211L57.105 41.7407C57.105 41.7407 57.1251 41.6605 57.1316 41.6405C57.1384 41.6201 57.1648 41.5601 57.1452 41.5267C57.1251 41.4933 57.1384 41.4467 57.1251 41.4199C57.1116 41.3934 57.105 41.3531 57.105 41.3531L57.0381 41.3797C57.0114 41.4064 56.9714 41.5267 56.9714 41.5267C56.9714 41.5267 56.9446 41.6475 56.9646 41.6736C56.9846 41.7008 57.0381 41.7741 57.0381 41.7741L57.0648 41.8211ZM57.9069 43.8327C57.967 43.853 57.9872 43.8399 57.9803 43.8124C57.9737 43.7857 57.9536 43.6456 57.9403 43.5924C57.9269 43.5389 58.0204 43.4986 57.9203 43.4186C57.8202 43.3381 57.8269 43.3452 57.8202 43.3381C57.8134 43.3314 57.8134 43.2647 57.8134 43.2647C57.8134 43.2647 57.8334 43.198 57.8202 43.178C57.807 43.158 57.7935 43.1178 57.78 43.0979C57.7666 43.0777 57.7666 43.0712 57.7264 43.0712C57.6864 43.0712 57.6864 43.0243 57.6597 43.0307C57.6332 43.0374 57.5662 43.0908 57.6128 43.0111C57.6597 42.9304 57.6331 42.9171 57.6331 42.9037C57.6331 42.8905 57.5993 42.8705 57.5661 42.8639C57.5329 42.857 57.5058 42.817 57.4592 42.8303C57.4125 42.8441 57.3925 42.8105 57.3656 42.8105C57.339 42.8105 57.3256 42.7769 57.3191 42.7371C57.3122 42.6969 57.3256 42.6166 57.3256 42.5967C57.3256 42.5764 57.3656 42.5164 57.3656 42.5164C57.3656 42.5164 57.3791 42.4893 57.3656 42.4428C57.3524 42.3961 57.3256 42.3158 57.3256 42.2825C57.3256 42.2491 57.2518 42.2156 57.2518 42.2156L57.1648 42.249L57.1316 42.5432C57.1316 42.5432 57.0715 42.563 57.0784 42.5897C57.0847 42.6166 57.0847 42.7436 57.1183 42.7703C57.1515 42.7967 57.2053 42.8303 57.2053 42.8303C57.2184 42.8639 57.1855 42.9304 57.1855 42.9304C57.1855 42.9304 57.2653 43.0244 57.2724 43.0512C57.2788 43.0777 57.3192 43.0642 57.3192 43.0642C57.3192 43.0642 57.2992 42.8838 57.339 42.917C57.3792 42.9506 57.486 42.9443 57.4925 42.9841C57.4995 43.0243 57.5729 43.0642 57.5859 43.1046C57.5993 43.1447 57.6864 43.1581 57.68 43.1911C57.6731 43.2247 57.6195 43.2247 57.5859 43.2313C57.5528 43.238 57.4458 43.1581 57.4458 43.1581C57.4458 43.1581 57.4191 43.1514 57.4125 43.1912C57.406 43.2314 57.4258 43.3315 57.4526 43.3649C57.4791 43.3985 57.506 43.3649 57.5195 43.3849C57.5329 43.4053 57.5195 43.452 57.5396 43.4788C57.5594 43.5055 57.6129 43.5121 57.6332 43.4986C57.6532 43.4856 57.72 43.4519 57.72 43.4519C57.72 43.4519 57.713 43.3718 57.6865 43.3581C57.6598 43.3449 57.6196 43.3047 57.6399 43.285C57.6597 43.2647 57.6997 43.2247 57.72 43.2313C57.7397 43.238 57.787 43.3249 57.78 43.3449C57.7736 43.3648 57.78 43.3718 57.807 43.445C57.8334 43.519 57.847 43.5055 57.8134 43.519C57.78 43.532 57.7467 43.5725 57.7264 43.5857C57.722 43.5888 57.7213 43.5907 57.722 43.592C57.7171 43.5904 57.7043 43.5881 57.6732 43.5857C57.5859 43.579 57.6061 43.539 57.5859 43.579C57.5662 43.619 57.5459 43.6524 57.5459 43.6524L57.4994 43.6724C57.4994 43.6724 57.4658 43.7792 57.4725 43.8125L57.479 43.8465C57.479 43.8465 57.5459 43.7192 57.5661 43.7192C57.5858 43.7192 57.5858 43.7526 57.6128 43.7325C57.6399 43.7125 57.6666 43.7261 57.6666 43.7261C57.6666 43.7261 57.7066 43.7058 57.6998 43.7591C57.6936 43.8125 57.6936 43.8192 57.713 43.8733C57.7336 43.9264 57.787 43.9533 57.807 43.9733C57.827 43.9932 57.8535 44.0067 57.867 44.02C57.8804 44.0332 57.8869 43.9598 57.8804 43.9064C57.8734 43.8529 57.8469 43.8124 57.9069 43.8327ZM57.4392 44.6415C57.5132 44.6817 57.5594 44.702 57.6195 44.7219C57.68 44.7419 57.7397 44.6817 57.7533 44.6953C57.7665 44.7085 57.8269 44.6483 57.8269 44.6483C57.8269 44.6483 57.8734 44.5815 57.8669 44.5617C57.8602 44.5412 57.8534 44.4812 57.84 44.5013C57.827 44.5211 57.6997 44.5949 57.6732 44.6013C57.6467 44.6081 57.5797 44.5815 57.5195 44.5815C57.4593 44.5815 57.3123 44.5346 57.2919 44.5546C57.2725 44.5749 57.2119 44.6548 57.2185 44.6885C57.2254 44.7219 57.2185 44.742 57.2185 44.7623C57.2185 44.7822 57.1985 44.8757 57.1985 44.8491L57.1051 45.0959C57.1051 45.0959 57.1784 45.2834 57.172 45.3169C57.165 45.3501 57.1517 45.5376 57.172 45.5172C57.1923 45.4969 57.292 45.4838 57.292 45.4838C57.292 45.4838 57.3258 45.3635 57.3193 45.3101C57.3124 45.2567 57.252 45.0895 57.3054 45.1029C57.3593 45.1163 57.4126 45.183 57.4126 45.183C57.4126 45.183 57.3724 45.2235 57.3858 45.2501C57.3992 45.2767 57.4459 45.3101 57.4394 45.3703C57.4327 45.4304 57.4594 45.4573 57.4594 45.437C57.4594 45.417 57.5263 45.4504 57.533 45.4638C57.5387 45.4758 57.602 45.4199 57.6118 45.4204C57.6127 45.4004 57.6225 45.3184 57.6062 45.2968C57.586 45.2701 57.586 45.2301 57.5397 45.1766C57.4926 45.1226 57.553 45.1097 57.5061 45.049C57.4593 44.9893 57.4394 45.0093 57.4593 44.9893C57.4791 44.9691 57.5196 44.9558 57.553 44.9358C57.586 44.9156 57.6129 44.8624 57.6129 44.8624C57.6197 44.8424 57.6332 44.8491 57.5797 44.8357C57.5263 44.8222 57.4792 44.8087 57.4459 44.8491C57.4127 44.8889 57.3792 44.8957 57.3792 44.8957L57.3525 44.9024C57.3258 44.9091 57.3324 44.8624 57.3123 44.8556C57.2919 44.8491 57.2919 44.8424 57.2789 44.7957C57.2654 44.7488 57.2789 44.6752 57.2992 44.6615C57.319 44.6483 57.3656 44.6014 57.4392 44.6415ZM57.6128 45.4236C57.6137 45.4213 57.6128 45.4205 57.6116 45.4203C57.6116 45.4248 57.6116 45.4274 57.6128 45.4236ZM60.2328 45.4236C60.2264 45.3834 60.2194 45.3367 60.1999 45.3034C60.1793 45.27 59.7447 45.0424 59.6913 45.0224C59.6379 45.0025 59.3578 44.9156 59.3578 44.9156C59.3578 44.9156 59.2237 44.969 59.2237 44.9892C59.2237 45.0092 59.1567 45.0828 59.1298 45.1097C59.1034 45.1362 59.11 45.163 59.0699 45.1564C59.0297 45.1497 59.0234 45.1564 59.0027 45.1363C58.9833 45.1163 58.9629 45.049 58.9362 45.0293C58.9093 45.0094 58.856 44.9826 58.8689 44.9292C58.8827 44.8757 58.9023 44.8023 58.8624 44.8023C58.8225 44.8023 58.7625 44.8292 58.7489 44.8087C58.7355 44.789 58.6556 44.7958 58.6556 44.7958L58.4887 44.8425L58.468 44.8492C58.468 44.8492 58.5418 44.9894 58.5889 44.9759C58.6356 44.9627 58.7223 45.0695 58.7223 45.0695C58.7223 45.0695 58.6958 45.1298 58.709 45.1498C58.7223 45.1698 58.7759 45.2702 58.7759 45.2702L58.8827 45.2635L58.9896 45.3102L59.2772 45.4038L59.3577 45.497L59.4045 45.698C59.4045 45.698 59.2838 45.778 59.2907 45.8114C59.2972 45.8449 59.4445 45.805 59.4445 45.805L59.5646 45.865L59.7113 45.9384L59.8788 45.9448L59.9787 45.8314C59.9787 45.8314 60.1256 45.7045 60.1256 45.7313C60.1256 45.7581 60.2596 45.8114 60.2797 45.8717C60.3001 45.9318 60.4201 46.0391 60.4201 46.0391C60.4201 46.0391 60.5869 46.0925 60.6072 46.0992C60.627 46.1054 60.6741 46.1125 60.7211 46.1257C60.7678 46.1391 60.674 46.0052 60.674 46.0052C60.674 46.0052 60.5268 45.9183 60.5202 45.8848C60.5137 45.8514 60.3934 45.7514 60.4001 45.718C60.4066 45.6846 60.3462 45.6446 60.3733 45.6446C60.4001 45.6446 60.5068 45.6313 60.4936 45.6108C60.4803 45.5912 60.4067 45.4639 60.3733 45.4639C60.34 45.4637 60.2398 45.4637 60.2328 45.4236ZM60.4602 47.6826C60.4602 47.6826 60.3868 47.6495 60.3801 47.6628C60.3735 47.6763 60.3465 47.5358 60.3465 47.5358L60.3599 47.4624C60.3599 47.4624 60.1591 47.2081 60.153 47.2285C60.1457 47.2485 60.0792 47.0213 60.0792 47.0213L60.0593 46.774L60.0125 46.6268L59.8923 46.6403L59.8655 46.3995L59.7982 46.1723L59.7651 46.159L59.6982 46.3126C59.6982 46.3126 59.6648 46.5267 59.6513 46.6002C59.6379 46.6736 59.6313 46.7807 59.5913 46.8476C59.5511 46.9144 59.4575 47.0745 59.4575 47.0745C59.4575 47.0745 59.3505 47.0745 59.337 47.0546C59.3238 47.0346 59.2036 46.9743 59.2036 46.9743L59.1298 46.8608L59.0099 46.7674C59.0099 46.7674 58.929 46.6669 58.9226 46.6736C58.9162 46.6802 58.9832 46.5802 59.0026 46.5667C59.0233 46.5534 59.0295 46.4867 59.0295 46.4867L59.1365 46.3996C59.1365 46.3996 59.1565 46.3661 59.1365 46.3463C59.1164 46.3261 59.1164 46.2926 59.0898 46.2857C59.0629 46.2792 58.9091 46.353 58.9091 46.353L58.7823 46.2926C58.7823 46.2926 58.6885 46.2457 58.6688 46.2123C58.6487 46.1791 58.595 46.159 58.5818 46.1723C58.5683 46.1857 58.5818 46.2524 58.5818 46.2524C58.5818 46.2524 58.6092 46.3113 58.6188 46.3297C58.6066 46.3193 58.5617 46.3529 58.5617 46.3529L58.4347 46.3659L58.3543 46.4394L58.2941 46.5533L58.2542 46.6335C58.2542 46.6335 58.2874 46.6869 58.2742 46.6801C58.2608 46.6735 58.0802 46.727 58.0802 46.727C58.0802 46.727 58.0331 46.6269 58.0132 46.6068C57.9932 46.5866 57.9332 46.5533 57.9064 46.5533C57.8799 46.5533 57.8129 46.6135 57.8129 46.6135L57.7865 46.7537L57.686 46.727L57.5989 46.874L57.5128 46.9077L57.4654 47.0078L57.4389 46.9011L57.3386 46.9945L57.305 47.1479C57.305 47.1479 57.178 47.2684 57.1645 47.2951C57.1513 47.3216 56.8701 47.4224 56.8701 47.4224L56.6902 47.4824C56.6902 47.4824 56.5966 47.5023 56.5765 47.5023C56.5565 47.5023 56.3824 47.6295 56.3824 47.6295L56.3228 47.6895L56.3026 47.6361L56.2291 47.7162V47.8834L56.1555 47.9834L56.1957 48.137L56.1355 48.1573L56.0821 48.1977L56.1423 48.318L56.1623 48.5381C56.1623 48.5381 56.1956 48.6052 56.189 48.6455C56.1824 48.6851 56.1555 48.7254 56.1555 48.7521C56.1555 48.7788 56.1756 48.879 56.1756 48.9056C56.1756 48.9325 56.1152 49.1067 56.1152 49.1067L56.042 49.2268L55.9821 49.2335C55.9821 49.2335 55.995 49.3606 56.0152 49.3606C56.0352 49.3606 56.0956 49.387 56.1488 49.4075C56.2025 49.4271 56.2892 49.3941 56.3093 49.3871C56.3293 49.3804 56.4766 49.3003 56.4766 49.3003C56.4766 49.3003 56.5634 49.2403 56.59 49.2468C56.6167 49.2536 56.7374 49.2336 56.757 49.2468C56.7772 49.2603 56.9309 49.2536 56.9309 49.2536L57.0243 49.1535L57.2785 49.0397L57.4057 49.0263L57.7126 48.9395L57.9734 48.9661C57.9734 48.9661 58.1942 49.1268 58.1942 49.1134C58.1942 49.1001 58.2409 49.2004 58.2409 49.2004L58.2277 49.3271C58.2277 49.3271 58.301 49.3872 58.3076 49.3672C58.3144 49.3471 58.3881 49.267 58.4082 49.2469C58.4278 49.227 58.4885 49.2004 58.5354 49.167C58.5818 49.1334 58.5951 49.1134 58.5951 49.1134C58.5951 49.1134 58.5485 49.2469 58.5282 49.2469C58.5083 49.2469 58.4678 49.287 58.4478 49.3138C58.4279 49.3403 58.3948 49.3608 58.3948 49.3742C58.3948 49.3872 58.4348 49.3872 58.4544 49.3742C58.4748 49.3608 58.5082 49.3204 58.5353 49.3069C58.5618 49.2937 58.5755 49.3004 58.5684 49.3338C58.5619 49.3672 58.5619 49.4003 58.5353 49.4137C58.5082 49.4272 58.4748 49.4471 58.4279 49.4741C58.3816 49.501 58.348 49.4806 58.3278 49.501C58.3076 49.5211 58.341 49.5413 58.3545 49.5544C58.3679 49.5679 58.4016 49.6081 58.4279 49.5613C58.4544 49.5144 58.4886 49.4806 58.5082 49.4676C58.5282 49.4545 58.5684 49.4137 58.5684 49.4472C58.5684 49.4807 58.5888 49.5145 58.5951 49.5414C58.6021 49.5679 58.5485 49.6213 58.5549 49.6346C58.5618 49.648 58.6289 49.7951 58.6289 49.7951C58.6289 49.7951 58.6689 49.8482 58.7154 49.8482C58.7623 49.8482 58.8622 49.8819 58.8825 49.8889C58.9022 49.8952 58.9963 49.8889 59.0098 49.8619C59.0232 49.8351 59.1032 49.7816 59.0966 49.8016C59.0898 49.8217 59.1032 49.8619 59.1231 49.8819C59.1431 49.9019 59.1766 49.9557 59.1766 49.9557L59.424 49.7615C59.424 49.7615 59.611 49.7213 59.6176 49.7415C59.6245 49.7615 59.7445 49.6081 59.7445 49.6081L60.1254 49.1403L60.2731 49.0398L60.3798 48.886L60.5266 48.6183L60.6069 48.3183L60.6671 48.0909L60.5201 47.87L60.4602 47.6826ZM58.9762 50.176C58.9762 50.176 58.8828 50.1158 58.8691 50.0958V50.0757L58.8026 50.2827L58.7426 50.5036C58.7426 50.5036 58.8625 50.517 58.876 50.5236C58.8894 50.53 59.0901 50.41 59.0969 50.3832C59.1035 50.3563 59.2372 50.1359 59.2372 50.1359C59.2372 50.1359 59.0235 50.1826 58.9762 50.176ZM62.5991 49.7884L62.5322 49.7211C62.5322 49.7211 62.5392 49.6278 62.5188 49.6278C62.4991 49.6278 62.4653 49.6345 62.4653 49.6345L62.499 49.4002L62.3781 49.327L62.3517 49.6879L62.2646 49.8889L62.0913 49.9557C62.0913 49.9557 62.1647 50.029 62.1914 50.029C62.2179 50.029 62.1713 50.1092 62.1713 50.1092L62.0577 50.2095C62.0577 50.2095 62.0178 50.1893 62.0178 50.1359C62.0178 50.0822 61.9106 50.1893 61.9106 50.1893L61.8372 50.1424L61.6365 50.3159L61.3626 50.4566L60.7211 50.8512L60.8077 50.8979C60.8077 50.8979 60.8879 50.9313 60.8946 50.9448C60.9011 50.9579 61.0951 50.8578 61.0951 50.8578L61.3158 50.6971L61.4224 50.6038C61.4224 50.6038 61.6166 50.5503 61.6097 50.5771C61.6033 50.6038 61.6699 50.4501 61.6699 50.4501L61.8571 50.3499L61.9708 50.2364L62.0642 50.2627L62.1979 50.216L62.4252 50.0691L62.4652 49.9485L62.5391 49.9556L62.679 49.8551L62.7726 49.6947L62.5991 49.7884ZM35.6631 35.1306C35.7166 35.1502 35.7499 35.1572 35.8637 35.1639C35.9774 35.1703 35.9908 35.1572 36.0442 35.1771C36.0972 35.1969 36.1442 35.231 36.1644 35.1835C36.1844 35.137 36.2112 35.137 36.2311 35.1102C36.2511 35.0835 36.2311 35.0567 36.2644 35.0434C36.2978 35.0301 36.3582 35.097 36.3582 35.097C36.3582 35.097 36.2845 35.1438 36.3179 35.1502C36.3512 35.1572 36.4448 35.1771 36.4919 35.1835C36.5387 35.1905 36.4986 35.2036 36.5788 35.211C36.6588 35.2172 36.6923 35.2036 36.7924 35.2036C36.8928 35.2036 36.9533 35.1572 36.9866 35.1703C37.0199 35.1835 37.1334 35.1835 37.1667 35.1771C37.2001 35.1703 37.2807 35.097 37.2471 35.097C37.2134 35.097 37.0866 35.0634 37.0332 35.0568C36.9798 35.0502 36.8123 35.0435 36.7727 35.0635C36.7323 35.0836 36.6855 35.0971 36.6589 35.0836C36.6322 35.0703 36.7727 34.9635 36.8661 34.9767C36.9598 34.9901 37.1 34.9635 37.1467 34.9701C37.1935 34.9767 37.3075 34.9968 37.3075 34.9968C37.3075 34.9968 37.3339 34.9834 37.3405 34.9635C37.3473 34.9434 37.354 34.9234 37.354 34.9234L37.421 34.9834C37.421 34.9834 37.8619 34.8031 37.8822 34.7695C37.9022 34.7358 38.1825 34.6491 38.2232 34.656C38.2632 34.6624 38.537 34.5423 38.5842 34.5623C38.6303 34.5823 38.8779 34.5024 38.8779 34.5024C38.8779 34.5024 39.0586 34.4622 39.0987 34.4622C39.1389 34.4622 39.1588 34.4155 39.0987 34.4221C39.0384 34.4288 38.5369 34.4288 38.4169 34.4221C38.2963 34.4155 38.0024 34.4219 37.9557 34.4288C37.9088 34.4355 37.6412 34.509 37.5278 34.5024C37.414 34.4956 37.0466 34.5489 37.0266 34.5423C37.0063 34.5356 36.8597 34.5289 36.8731 34.5289C36.8861 34.5289 36.6789 34.6961 36.6455 34.6491C36.6122 34.6024 36.6455 34.569 36.6122 34.6024C36.5789 34.6357 36.5854 34.7896 36.5854 34.7896C36.6254 34.8165 36.7124 34.9099 36.7727 34.8699C36.8325 34.8297 36.8661 34.8499 36.8861 34.8563C36.9059 34.8631 36.7927 34.95 36.7256 34.95C36.6588 34.95 36.4448 35.0302 36.4448 35.0302C36.4448 35.0302 36.3512 34.9433 36.3311 34.9367C36.3111 34.93 36.1977 34.9234 36.1777 34.9234C36.1577 34.9234 36.1308 34.9034 36.1242 34.9635C36.1176 35.0235 36.1308 35.117 36.0642 35.1037C35.9972 35.0902 35.9773 35.1169 35.9438 35.0971C35.9104 35.077 35.9907 34.9767 35.8967 34.9701C35.8031 34.9635 35.7498 34.8967 35.6963 35.0034C35.6428 35.1102 35.6099 35.1102 35.6631 35.1306ZM33.2437 35.5446C33.2233 35.5784 33.4171 35.5916 33.4303 35.565C33.4443 35.538 33.5644 35.558 33.591 35.5182C33.6177 35.478 33.7512 35.3977 33.7712 35.4111C33.7913 35.4246 33.7312 35.4913 33.7111 35.4981C33.6911 35.5047 33.7783 35.5112 33.6911 35.5784C33.6044 35.6451 33.6245 35.7055 33.6245 35.7055C33.6245 35.7055 33.551 35.7388 33.6044 35.7522C33.6579 35.7656 33.758 35.8123 33.758 35.8123C33.758 35.8123 33.7647 35.859 33.7647 35.8724C33.7647 35.8858 33.7983 35.9259 33.8715 35.8791C33.9455 35.8323 34.0923 35.779 34.1123 35.799C34.1323 35.819 34.1793 35.7923 34.2463 35.7856C34.3129 35.779 34.3666 35.7589 34.3666 35.7589L34.4533 35.7723C34.4935 35.7923 34.5271 35.7456 34.5942 35.7856C34.6606 35.8257 34.754 35.8257 34.754 35.8257C34.754 35.8257 34.8478 35.7523 34.8677 35.7456C34.8878 35.7389 34.9278 35.7323 34.9078 35.6855C34.8878 35.6386 34.8143 35.5652 34.8344 35.5514C34.8544 35.5382 34.9011 35.5247 34.8945 35.3979C34.8878 35.271 34.9078 35.2912 34.8744 35.2978C34.8411 35.3045 34.7607 35.3446 34.7607 35.3446L34.7342 35.3379C34.7209 35.3779 34.6606 35.4047 34.6469 35.4448C34.6336 35.4848 34.5942 35.5048 34.5942 35.4715C34.5942 35.4381 34.5472 35.4313 34.5401 35.4046C34.5339 35.3778 34.4734 35.3846 34.4401 35.3912C34.4066 35.3979 34.3129 35.3311 34.2794 35.3579C34.2463 35.3846 34.2125 35.3446 34.1858 35.2844C34.1594 35.2244 34.1258 35.1773 34.0857 35.1838C34.0456 35.1907 33.7983 35.1838 33.7983 35.1838L33.6512 35.1971C33.6512 35.1971 33.5712 35.2175 33.5712 35.2578C33.5712 35.2979 33.5578 35.3246 33.5178 35.3379C33.4774 35.3512 33.1834 35.4581 33.1834 35.4581C33.1834 35.4581 33.2637 35.5111 33.2437 35.5446ZM35.3423 35.3845L35.2688 35.371C35.2688 35.371 35.2622 35.3176 35.2422 35.3176C35.2215 35.3176 35.1618 35.3911 35.1618 35.3911C35.1618 35.3911 35.2489 35.4245 35.2622 35.4512C35.2756 35.478 35.3089 35.5112 35.3089 35.5315C35.3089 35.5513 35.5294 35.4646 35.5294 35.4646L35.65 35.4044C35.65 35.4044 35.6562 35.4178 35.6634 35.3845C35.6701 35.3511 35.65 35.3244 35.6634 35.3176C35.6765 35.311 35.7301 35.2242 35.6765 35.2375C35.623 35.2506 35.5092 35.2375 35.4559 35.2575C35.4024 35.2776 35.3358 35.231 35.3424 35.2842C35.3489 35.3376 35.3423 35.3845 35.3423 35.3845ZM34.2728 35.0769C34.2728 35.0769 34.2994 35.1906 34.3531 35.1573C34.4065 35.1235 34.56 35.2376 34.56 35.2506C34.56 35.2644 34.6134 35.2576 34.6134 35.2576L34.8476 35.1771L34.9783 35.1573C34.9783 35.1573 35.1017 35.1503 35.1216 35.164C35.1414 35.1771 35.2421 35.1307 35.2421 35.1307L35.2821 35.0635L35.1951 35.0368L35.2154 34.97C35.2154 34.97 35.1884 34.9299 35.1285 34.9766C35.0679 35.0234 34.9011 35.1168 34.9143 35.097C34.9278 35.0769 34.8477 35.1036 34.8142 35.0634C34.7806 35.0234 34.734 35.0166 34.734 35.0166C34.734 35.0166 34.6401 34.9833 34.607 34.9967C34.5734 35.01 34.6671 34.9299 34.6671 34.9299C34.6671 34.9299 34.6871 34.8563 34.6467 34.8631C34.607 34.8699 34.2793 34.9433 34.2793 34.9433C34.2793 34.9433 34.1389 35.0234 34.1123 35.0033C34.0857 34.9833 33.9855 35.0166 33.9855 35.0166L34.0523 35.0567C34.0722 35.0367 34.2728 35.0769 34.2728 35.0769ZM35.7633 34.803C35.7832 34.8094 35.9438 34.8562 35.9639 34.863C35.9839 34.8698 36.0443 34.8831 36.0705 34.8764C36.0972 34.8698 36.2043 34.8165 36.1644 34.7963C36.1242 34.7764 35.9972 34.7491 35.9704 34.7356C35.9437 34.7223 35.8433 34.716 35.8433 34.716L35.7832 34.729C35.77 34.7491 35.7433 34.7964 35.7633 34.803ZM35.1215 34.9166C35.1487 34.9033 35.2421 34.8631 35.2421 34.8631L35.3219 34.7964L35.3489 34.7626C35.3489 34.7626 35.2888 34.7095 35.262 34.7291C35.2354 34.7492 35.0946 34.8095 35.0946 34.8095L35.088 34.8563L34.9783 34.9033C34.9783 34.9033 35.0946 34.9299 35.1215 34.9166ZM36.3249 34.8966C36.3512 34.9033 36.4315 34.9033 36.4383 34.8832C36.4449 34.8631 36.4316 34.7224 36.4316 34.7224C36.4316 34.7224 36.4046 34.6826 36.3714 34.6893C36.338 34.6959 36.2312 34.7491 36.2312 34.7491C36.2244 34.7694 36.2979 34.8899 36.3249 34.8966ZM34.6367 42.0197C34.6321 42.0049 34.5567 41.9803 34.5167 41.9803C34.4766 41.9803 34.3311 41.8395 34.3214 41.8094C34.311 41.7792 33.9854 41.6993 33.9854 41.6993C33.9854 41.6993 33.6295 41.6792 33.6295 41.6693C33.6295 41.6588 33.4589 41.8046 33.4589 41.8046V41.8195C33.4589 41.8195 33.4736 41.8896 33.4793 41.9047C33.484 41.9196 33.5944 41.8243 33.6044 41.7844C33.6144 41.7444 33.6945 41.7341 33.7145 41.724C33.7348 41.7143 33.7445 41.7646 33.7646 41.7646C33.7849 41.7646 33.8751 41.7944 33.8751 41.7944L34.0556 41.8546L34.1257 41.9196C34.1257 41.9196 34.1557 42.0797 34.1557 42.1001C34.1557 42.1203 34.2911 42.1098 34.2911 42.1098L34.5567 42.0853C34.5567 42.0853 34.6421 42.0348 34.6367 42.0197ZM34.6271 42.3557C34.6518 42.3657 34.6919 42.3508 34.7122 42.3508C34.7325 42.3508 34.7976 42.3358 34.7976 42.3358C34.7976 42.3358 34.8176 42.3809 34.8176 42.396C34.8176 42.4108 34.9227 42.3908 34.9227 42.3757C34.9227 42.3606 34.9478 42.3206 34.9478 42.3206L35.0729 42.2956C35.0729 42.2956 35.2436 42.3007 35.2585 42.3007C35.2736 42.3007 35.2837 42.2706 35.2533 42.2155C35.2235 42.1602 35.138 42.1499 35.1179 42.1097C35.0979 42.0699 35.0028 42.0954 34.9776 42.1097C34.9526 42.1249 34.8125 42.0752 34.7722 42.0752C34.7324 42.0752 34.7722 42.1202 34.7722 42.1202L34.7571 42.2655H34.5918L34.5867 42.2805C34.5867 42.2805 34.5414 42.2956 34.5414 42.3257C34.5416 42.3557 34.6018 42.3457 34.6271 42.3557Z" fill="#1E6252"/>
<line x1="48.1487" y1="30.6441" x2="46.4328" y2="58.7699" stroke="#1E6252" stroke-width="0.65"/>
<line x1="35.5549" y1="27.3363" x2="33.6862" y2="56.5637" stroke="#1E6252" stroke-width="0.65"/>
<rect x="51.4543" y="32.2065" width="1.07767" height="9.49175" fill="#FBFBFB"/>
<rect x="51.4543" y="32.2065" width="0.538833" height="9.49175" fill="#ABABAB"/>
<circle cx="51.9932" cy="29.9268" r="2.61127" fill="#E30808"/>
<circle cx="51.5372" cy="29.388" r="1.57505" fill="url(#paint2_linear_222_809)"/>
<defs>
<filter id="filter0_d_222_809" x="6.76178" y="10.7958" width="76.8844" height="76.8843" filterUnits="userSpaceOnUse" color-interpolation-filters="sRGB">
<feFlood flood-opacity="0" result="BackgroundImageFix"/>
<feColorMatrix in="SourceAlpha" type="matrix" values="0 0 0 0 0 0 0 0 0 0 0 0 0 0 0 0 0 0 127 0" result="hardAlpha"/>
<feOffset dy="4.23822"/>
<feGaussianBlur stdDeviation="2.11911"/>
<feComposite in2="hardAlpha" operator="out"/>
<feColorMatrix type="matrix" values="0 0 0 0 0 0 0 0 0 0 0 0 0 0 0 0 0 0 0.25 0"/>
<feBlend mode="normal" in2="BackgroundImageFix" result="effect1_dropShadow_222_809"/>
<feBlend mode="normal" in="SourceGraphic" in2="effect1_dropShadow_222_809" result="shape"/>
</filter>
<linearGradient id="paint0_linear_222_809" x1="45.204" y1="10.7958" x2="45.204" y2="79.2037" gradientUnits="userSpaceOnUse">
<stop stop-color="#01A491"/>
<stop offset="1" stop-color="#05BBA6"/>
</linearGradient>
<linearGradient id="paint1_linear_222_809" x1="45.4351" y1="6.95175" x2="39.6076" y2="62.5784" gradientUnits="userSpaceOnUse">
<stop stop-color="white"/>
<stop offset="1" stop-color="white" stop-opacity="0"/>
</linearGradient>
<linearGradient id="paint2_linear_222_809" x1="49.9622" y1="27.8129" x2="51.5372" y2="30.963" gradientUnits="userSpaceOnUse">
<stop stop-color="#FFB4B4"/>
<stop offset="1" stop-color="#FFB4B4" stop-opacity="0"/>
</linearGradient>
</defs>
</svg>
