<svg width="73" height="74" viewBox="0 0 73 74" fill="none" xmlns="http://www.w3.org/2000/svg">
<g filter="url(#filter0_d_897_92182)">
<ellipse cx="36.2815" cy="33.0327" rx="32.2815" ry="32.2814" fill="url(#paint0_linear_897_92182)"/>
<path d="M66.9646 33.0327C66.9646 49.9785 53.2273 63.7157 36.2815 63.7157C19.3357 63.7157 5.59836 49.9785 5.59836 33.0327C5.59836 16.0869 19.3357 2.34958 36.2815 2.34958C53.2273 2.34958 66.9646 16.0869 66.9646 33.0327Z" stroke="#F8FFFC" stroke-width="3.19672"/>
</g>
<circle cx="36.5" cy="30.7627" r="25.3604" fill="url(#paint1_linear_897_92182)" fill-opacity="0.7"/>
<path d="M28.327 17.3156L19.3159 20.788L15.9629 46.1913H26.8601L39.4338 48.7499L57.037 46.1913V17.3156L40.9008 20.788L28.327 17.3156Z" stroke="#1E6252" stroke-width="0.730206"/>
<path d="M23.3249 25.5319C23.3283 25.5306 23.3299 25.5293 23.3299 25.5284C23.3299 25.5225 23.3276 25.5258 23.3249 25.5319ZM31.8303 35.464C31.8303 35.464 31.67 35.4306 31.6631 35.4105C31.6565 35.3906 31.3824 35.1499 31.3761 35.1566C31.3689 35.1632 31.262 35.0493 31.2486 35.0831C31.2355 35.1165 31.0281 35.1165 31.0281 35.1165L30.8076 35.0626C30.8076 35.0626 30.7143 35.1299 30.7341 35.1028C30.7542 35.0761 30.7408 34.9158 30.7341 34.9427C30.7275 34.9691 30.3998 34.8022 30.3998 34.8022L30.286 34.9024V34.7754L30.1126 34.6686L30.1328 34.5282L30.052 34.4613C30.052 34.4613 30.039 34.4813 30.0323 34.468C30.0257 34.4547 29.9788 34.1874 29.9788 34.1874L29.7246 33.98L29.4174 33.9666L29.1365 33.8125L29.0764 33.6724C29.0764 33.6724 28.9159 33.5991 28.9159 33.579C28.9159 33.559 28.8696 33.5725 28.8558 33.5655C28.8428 33.559 28.8495 33.4923 28.8495 33.4923L28.7754 33.4318L28.749 33.4138L28.6837 33.394L28.6436 33.3381C28.6436 33.3381 28.789 33.2732 28.774 33.2784C28.7593 33.2831 28.4484 33.3282 28.4484 33.3282L28.4184 33.3881L28.2729 33.3131L28.0273 33.2979C28.0273 33.2979 27.8516 33.228 27.8566 33.208C27.8619 33.1879 27.8015 33.1127 27.8015 33.1127C27.8015 33.1127 27.7614 33.208 27.7514 33.218C27.7415 33.228 27.6163 33.3333 27.6163 33.3333L27.6259 33.4939L27.5409 33.4033L27.6012 33.3181V33.1979C27.6012 33.1826 27.6764 33.1478 27.6764 33.1478L27.6463 33.0828C27.6463 33.0828 27.5562 33.1078 27.5562 33.1229C27.5562 33.1379 27.4359 33.208 27.4359 33.208L27.2903 33.263H27.2252C27.2252 33.263 27.1602 33.3681 27.1447 33.3734C27.1299 33.3785 27.1352 33.4739 27.1352 33.4739C27.1352 33.4739 26.9744 33.6539 26.9643 33.6339C26.9543 33.614 26.7843 33.4739 26.7843 33.4739L26.5833 33.4985L26.4682 33.5589L26.3278 33.4636L26.2176 33.2932L26.2279 33.0928L26.2879 32.8719L26.3129 32.7268L26.1625 32.6163C26.1625 32.6163 25.8568 32.6413 25.8568 32.6263C25.8568 32.6116 25.6911 32.6316 25.6963 32.6163C25.7011 32.6014 25.7564 32.5062 25.7564 32.4909C25.7564 32.4758 25.7967 32.3607 25.7967 32.3607L25.8619 32.2305L25.947 31.9803L25.997 31.8946L25.7465 31.8797L25.596 31.9398L25.5109 32.1906L25.0846 32.3058L24.9794 32.2257C24.9794 32.2257 24.9694 32.2708 24.9747 32.2457C24.9794 32.2207 24.8443 32.045 24.8443 32.045L24.779 31.7997C24.779 31.7997 24.9497 31.293 24.9443 31.3033C24.9393 31.3131 24.9497 31.1175 24.9497 31.1175L25.486 30.7668L25.6913 30.7968L25.7413 30.8469L25.8669 30.8265L25.9922 30.7014L26.1524 30.7215L26.3076 30.6916L26.4031 30.797L26.5431 30.7419L26.6183 30.8223L26.6638 30.8721V30.9576L26.6287 31.0376L26.6638 31.2182L26.764 31.3587L26.8291 31.3836L26.9093 31.1631L26.8941 30.9576L26.8591 30.7917V30.6715L27.0648 30.4214L27.3302 30.2306L27.5408 30.1103L27.7263 29.9098L27.7163 29.7193L27.797 29.7044L27.8764 29.5341L27.9567 29.5435L28.1124 29.3482L28.3728 29.2583L28.5335 29.2283L28.5837 29.1732L28.5235 29.1231L28.6487 28.9373L29.0449 28.7819L29.2857 28.7117L29.0898 28.8372L29.1299 28.9322L29.2753 28.8922L29.3807 28.8272L29.6563 28.7521C29.6563 28.7521 29.7218 28.6416 29.7115 28.6667C29.7019 28.6917 29.8521 28.6416 29.8521 28.6416L29.8221 28.5813L29.8321 28.5011L29.752 28.5313L29.6311 28.6616L29.4359 28.652L29.3459 28.5163L29.4311 28.4011C29.4311 28.4011 29.5161 28.2306 29.5112 28.2409C29.5061 28.2506 29.376 28.2006 29.376 28.2006L29.1804 28.2705C29.1604 28.2705 28.9749 28.3809 28.9798 28.366C28.9849 28.351 28.8844 28.4211 28.8844 28.4211L29.14 28.2159L29.2455 28.2006L29.3659 28.0901H29.9423L30.1379 28.0499L30.3984 27.9097L30.4188 27.9349L30.3084 28.04L30.173 28.1804L30.0423 28.3205L29.9773 28.4059L30.1829 28.4159C30.1829 28.4159 30.3431 28.4199 30.3584 28.4159C30.3784 28.4109 30.3834 28.486 30.3834 28.486L30.4685 28.4259L30.5139 28.5412L30.6644 28.4259L30.619 28.2955L30.6593 28.1749L30.4838 28.1803V28.115C30.4838 28.115 30.4188 28.0399 30.4137 28.0498C30.4085 28.0599 30.5139 27.9648 30.5087 27.9748C30.5038 27.9848 30.4634 27.9248 30.4634 27.9248L30.5842 27.7739L30.5241 27.6038L30.5037 27.5188L30.3482 27.4435L30.2932 27.3682L30.2228 27.3131L30.2782 27.1827L30.253 27.0875C30.253 27.0875 30.2081 26.7766 30.2031 26.7865C30.1978 26.7966 29.9922 26.9571 29.9922 26.9571L29.782 27.0626L29.6714 26.9673L29.6818 26.8416L29.777 26.7515L29.6213 26.7014L29.6113 26.6613C29.6113 26.6613 29.471 26.521 29.4611 26.5309C29.451 26.5413 29.416 26.5763 29.416 26.5763L29.085 26.5458L28.9698 26.7465L28.9448 26.8517C28.9448 26.8517 28.7635 27.0331 28.7413 27.0471C28.7546 27.0432 28.8394 27.1276 28.8394 27.1276L28.764 27.3078L28.4783 27.4732L28.3382 27.4935C28.3382 27.4935 28.2528 27.8045 28.2578 27.8244C28.2628 27.8446 28.1426 27.8994 28.1426 27.8994L28.0574 27.9597L28.0222 27.8496C28.0222 27.8496 27.9837 27.7654 27.9685 27.744C27.9909 27.7533 28.0722 27.7641 28.0722 27.7641L28.0875 27.6937L28.0071 27.6989L28.0424 27.5835L28.1175 27.4584L27.8567 27.4383L27.7971 27.368L27.6664 27.3479L27.6561 27.2926L27.5659 27.2376L27.4555 27.1875L27.3354 27.2026L27.3303 27.0975L27.3603 26.9973L27.2402 26.9773C27.2402 26.9773 27.4508 26.7615 27.4458 26.7716C27.4404 26.7816 28.037 26.4755 28.037 26.4755L28.1074 26.4006L28.2225 26.3903L28.4731 26.2753L28.6636 26.145L28.6837 26.1551L28.5386 26.2903L28.4985 26.3402L28.3832 26.3954L28.4885 26.4104L28.4732 26.4708L28.5887 26.4507L28.7038 26.3553L28.7944 26.3857L28.8346 26.4304L28.9597 26.4254L28.9547 26.3303L28.7594 26.1901L28.7138 26.145L28.694 26.0948L28.7789 26.1052L28.8496 26.1652L28.9246 26.0897L29.075 26.07L29.2253 25.9643L29.2156 25.8993L29.3307 25.7891L29.2553 25.7091L29.456 25.704L29.6311 25.7091C29.6311 25.7091 29.7166 25.669 29.7317 25.694C29.7468 25.7191 29.877 25.8141 29.877 25.8141L29.8269 25.8592L29.6211 25.8846L29.571 25.9845L29.7218 26.0048L29.8368 25.8846L29.962 25.8744L29.9821 25.9945C29.9821 25.9945 29.8419 26.0749 29.8219 26.0798C29.8019 26.0852 29.7165 26.1249 29.7165 26.1249L29.7114 26.2154L29.5761 26.2302L29.4358 26.2054L29.3708 26.2103L29.2654 26.2953L29.3506 26.3705C29.3506 26.3705 29.476 26.3204 29.496 26.3055C29.516 26.2906 29.5812 26.2603 29.5961 26.2855C29.6111 26.3105 29.6961 26.3807 29.6961 26.3807L29.7668 26.5164L29.8319 26.5363L30.0322 26.6014C30.0322 26.6014 30.1727 26.6366 30.1727 26.6464C30.1727 26.6564 30.158 26.5613 30.158 26.5613L30.0521 26.4359C30.0521 26.4359 30.0475 26.4008 30.0821 26.4105C30.1176 26.4205 30.2029 26.4955 30.2029 26.4955C30.2177 26.5006 30.3181 26.5612 30.3181 26.5612L30.3581 26.4508L30.4482 26.3956L30.4134 26.3304L30.3632 26.2755L30.3081 26.2103L30.313 26.1352C30.313 26.1352 30.3281 26.1248 30.3431 26.1151C30.358 26.1052 30.4032 26.0701 30.4133 26.0898C30.4232 26.1098 30.5238 26.2403 30.5238 26.2403L30.6186 26.2602L30.664 26.1852C30.664 26.1852 30.7891 26.17 30.7891 26.1751C30.7891 26.1802 30.7992 26.115 30.7992 26.115L30.9146 26.0851L30.7492 25.9393L30.6591 25.8941L30.5886 25.9142L30.5239 25.839L30.5939 25.7741L30.6242 25.6836L30.5439 25.6035L30.4185 25.5785L30.3882 25.5131C30.3882 25.5131 30.2831 25.4981 30.268 25.5079C30.2528 25.5184 30.1778 25.4179 30.1778 25.4179L30.1126 25.3328C30.1024 25.3277 30.0674 25.2924 30.0475 25.2977C30.0271 25.3027 29.8168 25.3077 29.8168 25.3077L29.7667 25.3228L29.7017 25.2724L29.4408 25.3378L29.3056 25.4431C29.3056 25.4431 29.2957 25.3828 29.3056 25.3679C29.3154 25.3529 29.4107 25.2978 29.4258 25.2878C29.4408 25.2778 29.3106 25.2725 29.3106 25.2725C29.3106 25.2725 29.0698 25.3529 29.0598 25.3679C29.0498 25.3828 28.8642 25.5282 28.8642 25.5282L28.8696 25.6486L29.0398 25.6738L29.1049 25.6885L29.0598 25.7289L29.0248 25.8039L28.9147 25.8641L28.779 25.9642L28.6637 26.0092L28.6438 25.9292L28.744 25.869C28.744 25.869 28.724 25.7439 28.7139 25.7538C28.7039 25.7639 28.5988 25.7489 28.5937 25.7639C28.5888 25.779 28.5988 25.6689 28.5988 25.6689L28.5937 25.5634L28.5687 25.4829C28.5687 25.4829 28.654 25.4129 28.6688 25.4079C28.6839 25.4029 28.8443 25.3928 28.8443 25.3928L29.1 25.2475L28.8893 25.2377C28.8893 25.2377 28.6941 25.2425 28.6839 25.2628C28.6738 25.2828 28.5437 25.418 28.5437 25.418L28.4635 25.4782L28.1977 25.6439L28.1876 25.759L28.0774 25.739L27.9974 25.7239L27.7971 25.804V25.9143L27.4306 25.9346C27.4306 25.9346 27.2554 25.9092 27.2554 25.8845C27.2554 25.8591 27.1903 25.8091 27.1703 25.8091C27.1499 25.8091 26.9244 25.8793 26.9244 25.8793L26.9144 25.9493L26.6537 25.9346C26.6537 25.9346 26.4383 25.9743 26.4433 25.9545C26.4484 25.9346 26.3279 25.9444 26.3279 25.9444L26.5083 25.8642L26.3833 25.804L26.1573 25.769L25.9971 25.7189L25.8169 25.744L25.7969 25.6689L25.6361 25.7339L25.591 25.6286L25.4808 25.6788C25.4808 25.6788 25.0698 25.764 25.0497 25.769C25.0298 25.7741 24.9296 25.7288 24.9296 25.7288L24.8039 25.7889L24.5636 25.8039L24.4681 25.7339L24.2727 25.6939L24.0571 25.7038L23.6558 25.6385C23.6558 25.6385 23.4254 25.6034 23.4404 25.5981C23.4554 25.5931 23.3153 25.558 23.3153 25.558C23.3153 25.558 23.3209 25.5413 23.3253 25.5316C23.2761 25.5524 22.8842 25.6181 22.8842 25.6181L22.358 25.7888L22.012 25.8589C22.012 25.8589 22.022 25.9491 22.0268 25.964C22.0319 25.9794 22.062 26.0794 22.062 26.0794L21.9668 26.0994H21.8662L21.9167 26.0294L21.4049 26.1697L21.4154 26.2248L21.38 26.29L21.5405 26.305L21.676 26.32C21.676 26.32 21.7511 26.275 21.7511 26.29C21.7511 26.3051 21.711 26.4201 21.711 26.4201L21.5557 26.4302C21.5458 26.4151 21.4654 26.4354 21.4654 26.4354C21.4654 26.4354 21.3599 26.5001 21.355 26.4855C21.3499 26.4705 21.1447 26.5206 21.1447 26.5206L20.9088 26.656L20.8188 26.7913L20.8088 26.8913L20.9842 26.8616L20.8838 26.9971L20.9991 26.9918C20.9991 26.9918 21.1346 26.9918 21.1446 27.0122C21.1548 27.0322 21.2147 27.0222 21.2147 27.0322C21.2147 27.0424 20.0216 27.5034 20.0115 27.4885C20.0014 27.4731 19.8262 27.5685 19.8262 27.5685C19.8262 27.5685 20.0565 27.5285 20.0718 27.5285C20.0868 27.5285 20.4275 27.4481 20.4275 27.4481L20.588 27.403C20.588 27.403 20.934 27.3028 20.9386 27.2877C20.9437 27.2725 21.1845 27.1472 21.1995 27.1472C21.2146 27.1472 21.2947 27.1123 21.2999 27.1324C21.3047 27.1524 21.6458 27.0424 21.6458 27.0424C21.6458 27.0424 21.7659 26.9569 21.7562 26.9419C21.7458 26.9268 21.6758 26.8867 21.6959 26.8819C21.7158 26.8767 21.896 26.8515 21.896 26.8515C21.896 26.8515 22.167 26.7414 22.162 26.7563C22.157 26.7715 21.8863 26.9521 21.8863 26.9521L22.2724 26.8767L22.428 26.8114C22.428 26.8114 22.5582 26.7513 22.5482 26.7664C22.5381 26.7814 22.6986 26.8264 22.6986 26.8414C22.6986 26.8564 23.0343 26.9068 23.0343 26.9068L23.1346 27.0572L23.1143 27.2525L23.1044 27.4984L23.2848 27.4783L23.2399 27.6386L23.2503 27.9045C23.2503 27.9045 23.2599 27.9997 23.2599 28.0147C23.2599 28.0297 23.1195 27.9847 23.1195 27.9847C23.1195 27.9847 23.0994 28.0999 23.1144 28.1148C23.13 28.1299 23.2952 28.2953 23.2952 28.2953L23.24 28.3656L23.1144 28.6764L22.8187 29.0171L22.7688 29.203L22.6233 29.3632L22.6484 29.4785C22.6484 29.4785 22.6083 29.5589 22.6187 29.5688C22.6283 29.5787 22.6886 30.1252 22.6886 30.1252L22.8993 30.2555L22.9543 30.3558L22.9844 30.7668L23.0744 30.9522L22.9743 31.0225L23.0895 31.1825L23.1347 31.1878L23.2253 31.2929L23.1899 31.4334L23.285 31.5085L23.3754 31.6489L23.3905 31.719L23.4759 31.6339L23.3905 31.4585C23.3905 31.4585 23.3304 31.3278 23.3354 31.2981C23.3404 31.2679 23.2554 31.0423 23.2554 31.0423C23.2554 31.0423 23.1748 30.8718 23.1851 30.8568C23.1948 30.8416 23.1246 30.7417 23.1246 30.7417L23.1599 30.5363L23.3053 30.5663C23.3053 30.5663 23.3304 30.7564 23.3304 30.7768C23.3304 30.7968 23.3655 30.9172 23.3655 30.9172L23.5559 31.1824L23.526 31.318L23.8917 31.7541L23.8867 31.9297L23.8315 32.0147L23.8616 32.1352L24.1675 32.3607L24.2175 32.3508L24.3076 32.4411L24.6384 32.6066L24.8039 32.6468L24.9997 32.5865L25.1249 32.6468L25.3154 32.8673L25.5109 32.9172L25.7112 32.9877H25.8069L25.832 33.1027C25.832 33.1027 25.9222 33.2182 25.9422 33.2332C25.9621 33.2482 25.9473 33.3787 25.9473 33.3787L26.0323 33.4235L26.1327 33.5289L26.1978 33.5894L26.2682 33.6694L26.3132 33.6394L26.4034 33.6643L26.5335 33.7848L26.6187 33.7344L26.5942 33.6394L26.6738 33.5592H26.7441L26.8195 33.6192L26.8144 33.6894L26.9046 33.8348L26.9097 34.2408L26.8295 34.3714L26.719 34.4466L26.7143 34.5665L26.5987 34.6116L26.5537 34.7721L26.4834 34.9125L26.4984 35.0327L26.5988 35.123L26.5084 35.2187L26.4434 35.3137L26.5031 35.5038C26.5031 35.5038 26.5331 35.5992 26.5331 35.5891C26.5331 35.5791 26.6288 35.6546 26.6288 35.6546L26.8041 36.0051L26.9743 36.2511C26.9743 36.2511 27.2219 36.7501 27.2269 36.754C27.3017 36.809 27.8471 37.2019 27.8471 37.2019L27.9402 37.6898L27.9674 38.719L28.0474 39.0135L28.0137 39.6084L27.9873 39.7285C27.9873 39.7285 28.0941 39.9156 28.0941 39.9426C28.0941 39.9693 28.114 40.203 28.114 40.203L28.1874 40.457L28.2743 40.4505L28.2208 40.3035L28.2879 40.3102L28.3343 40.5439L28.3409 40.6373L28.2879 40.5906L28.2409 40.6373L28.2074 40.6776L28.2743 40.738L28.241 40.831L28.2277 40.9516L28.3213 40.965L28.388 41.0184L28.3213 41.132C28.3213 41.132 28.7354 41.8606 29.0831 41.9473C29.4307 42.0345 29.5309 42.061 29.5309 42.061L29.6783 41.9807L29.7245 41.9207L29.4173 41.8139L29.1834 41.5595L29.1364 41.4261L29.2099 41.3728L29.1968 41.2723C29.1968 41.2723 29.1968 41.1989 29.2231 41.1789C29.2501 41.1589 29.3035 41.0586 29.3035 41.0586L29.2231 41.0184L29.0896 40.8849L29.103 40.7308L29.1833 40.6844C29.1833 40.6844 29.1898 40.5972 29.1766 40.5773C29.1629 40.5575 29.1967 40.4569 29.2167 40.4503C29.2369 40.4434 29.2899 40.3631 29.2899 40.3631H29.1968L29.1434 40.3433L29.0763 40.2367V40.1562L29.1899 40.1896L29.2972 40.1694L29.3573 40.0826C29.3573 40.0826 29.3372 40.0292 29.3306 40.0093C29.3239 39.9893 29.3439 39.9022 29.3639 39.8955C29.3838 39.8892 29.5041 39.9022 29.5041 39.9022L29.7314 39.8422C29.7314 39.8422 29.8184 39.6883 29.8118 39.6616C29.8051 39.6349 29.8051 39.548 29.8051 39.548C29.8051 39.548 29.8051 39.488 29.7517 39.4809C29.698 39.4744 29.698 39.4547 29.6846 39.4006C29.671 39.3473 29.6308 39.2871 29.6308 39.2871L29.5642 39.3006L29.6246 39.2406L29.7582 39.3405L29.9586 39.3743L30.1124 39.2204L30.2195 38.9596L30.2661 38.7657H30.3662L30.473 38.5719L30.5134 38.3915L30.48 38.1707L30.5267 38.0909L30.8741 37.8569L31.1351 37.7699L31.2223 37.7028C31.2223 37.7028 31.3556 37.5226 31.3556 37.5025C31.3556 37.4825 31.4092 37.2216 31.4092 37.2216C31.4092 37.2216 31.4692 36.9146 31.4623 36.8946C31.4558 36.8742 31.4759 36.607 31.4623 36.6003C31.4489 36.5937 31.4692 36.5199 31.4692 36.5199L31.7232 36.1591L31.8435 35.8848C31.8435 35.8848 31.9308 35.7446 31.9173 35.7179C31.9037 35.6911 31.8303 35.4639 31.8303 35.4639L31.8303 35.464ZM34.4736 25.6789C34.4736 25.6789 34.514 25.4781 34.4839 25.4581C34.4535 25.4381 34.6042 25.3178 34.6042 25.3178C34.6042 25.3178 34.8245 25.2174 34.8345 25.1876C34.8445 25.1574 34.7745 25.167 34.7745 25.167L34.7944 25.0168L34.935 24.9667C34.935 24.9667 34.8549 24.8463 34.8345 24.786C34.8147 24.7265 35.0753 24.6961 35.0753 24.6961L35.5365 24.4856L34.9853 24.5456L34.9649 24.4757L34.3833 24.3452L33.2207 24.3856L33.0905 24.4557H32.6889L32.1277 24.5059C32.1277 24.5059 31.5963 24.5759 31.5662 24.5958C31.5364 24.616 31.6265 24.6461 31.6265 24.6461L31.6165 24.7163L30.9645 24.7967L30.9247 24.8668C30.9247 24.8668 30.9947 24.9369 31.0047 24.947C31.0145 24.9569 31.2854 25.017 31.2854 25.017L31.6063 25.0571C31.6063 25.0571 31.7869 25.1374 31.8166 25.1672C31.847 25.1972 31.8372 25.2879 31.827 25.338C31.8166 25.3882 31.7869 25.3981 31.7469 25.4582C31.7066 25.5186 31.827 25.4883 31.827 25.4883L31.9674 25.5583C31.9674 25.5583 31.9273 25.5583 31.8669 25.5687C31.8065 25.5787 31.7265 25.5984 31.7265 25.5984L31.7165 25.7091L31.9174 25.6691L31.8967 25.739L31.7566 25.7691L31.6165 25.9393L31.6063 26.2601L31.6363 26.5308L31.7165 26.7515L31.847 26.7715L31.9974 26.8618L32.1982 26.8516L32.3984 26.581L32.6088 26.3805L32.669 26.2702L32.7695 26.2101L32.9898 26.1601L33.2707 26.0997C33.2707 26.0997 33.531 25.9292 33.5614 25.9092C33.5912 25.8892 34.3131 25.669 34.3131 25.669L34.4736 25.6789ZM34.6745 26.4105L34.9552 26.3204L35.015 26.2102L34.9051 26.1201L34.3935 26.1802L34.2431 26.0897L34.0629 26.1901C34.0629 26.1901 34.153 26.2303 34.1831 26.2502C34.2131 26.2703 34.2733 26.2302 34.2733 26.2302V26.3204C34.2733 26.3204 34.4337 26.4105 34.4134 26.4408C34.3935 26.4708 34.6745 26.4105 34.6745 26.4105ZM35.1689 27.7772L35.1121 27.8143L35.0953 27.878L35.1455 27.9079L35.2258 27.9246L35.309 27.9046L35.3796 27.8645L35.3994 27.8445L35.5165 27.8373L35.5298 27.7877L35.5568 27.7374V27.5936L35.6203 27.5568L35.5999 27.4635L35.4999 27.4402L35.4197 27.4268L35.3664 27.4434L35.3358 27.4867C35.3358 27.4867 35.2863 27.5403 35.2961 27.53C35.3064 27.5203 35.3327 27.5203 35.3264 27.5369C35.3195 27.5535 35.2925 27.5702 35.2925 27.5702H35.253L35.2189 27.5502L35.169 27.5568L35.1522 27.5869L35.1727 27.6337L35.1388 27.6673L35.179 27.7008L35.2189 27.7104L35.2127 27.7574L35.1689 27.7772ZM35.5664 27.3831C35.5899 27.3929 35.5997 27.4065 35.5964 27.4163C35.5935 27.4268 35.6466 27.4333 35.6466 27.4333L35.6902 27.4234L35.6602 27.4701C35.6602 27.4701 35.6667 27.5002 35.6766 27.5137C35.687 27.527 35.7204 27.5137 35.7204 27.5137C35.7204 27.5137 35.8007 27.5002 35.8108 27.5036C35.8205 27.5068 35.8072 27.537 35.8072 27.537L35.8376 27.5836C35.8376 27.5836 35.8539 27.6506 35.8573 27.6705C35.8609 27.6909 35.8305 27.6837 35.8305 27.6837C35.8305 27.6837 35.7676 27.6937 35.7536 27.6908C35.7402 27.6874 35.7138 27.7139 35.6905 27.7405C35.6669 27.7677 35.6938 27.7574 35.6938 27.7574H35.7435C35.7435 27.7574 35.7474 27.7906 35.7505 27.8045C35.7536 27.8178 35.7103 27.8309 35.6973 27.8275C35.6839 27.8244 35.6236 27.8545 35.6236 27.8545L35.6267 27.9046L35.7004 27.9113L35.7741 27.9213L35.7874 27.9447C35.7874 27.9447 35.7401 27.9547 35.727 27.9447C35.7137 27.9347 35.6736 27.9981 35.6736 27.9981L35.6369 28.0382L35.5597 28.0983L35.6031 28.1184L35.63 28.0849L35.6972 28.0882L35.7701 28.0782C35.7701 28.0782 35.814 28.0248 35.8241 28.0248C35.8338 28.0248 35.9376 28.0216 35.9376 28.0216C35.9376 28.0216 36.0212 28.0048 36.0312 28.0115C36.0411 28.0182 36.1081 28.0317 36.1185 28.0349C36.1283 28.0382 36.2586 27.9982 36.2586 27.9982C36.2586 27.9982 36.2852 27.9548 36.2918 27.9415C36.2988 27.9281 36.2553 27.9148 36.2454 27.9047C36.2354 27.8947 36.2786 27.8814 36.2988 27.8714C36.3187 27.8614 36.3254 27.8245 36.3355 27.808C36.3452 27.7915 36.322 27.7576 36.3187 27.7478C36.3155 27.7375 36.2686 27.7406 36.2553 27.7375C36.242 27.7341 36.1852 27.7406 36.1852 27.7406L36.1882 27.6738C36.1882 27.6738 36.0312 27.4601 36.0345 27.4501C36.0379 27.4403 35.9978 27.3766 35.9811 27.3735C35.9644 27.3701 35.9443 27.3563 35.9242 27.3296C35.9043 27.3031 35.951 27.2694 35.951 27.2694C35.951 27.2694 36.0076 27.2094 36.0144 27.1961C36.0211 27.1827 36.0075 27.1427 35.9977 27.1393C35.9875 27.136 35.8709 27.1427 35.8709 27.1427C35.8709 27.1427 35.8376 27.116 35.8407 27.106C35.8442 27.0955 35.8776 27.0924 35.8877 27.0924C35.8972 27.0924 35.9578 26.9757 35.9711 26.9724C35.9844 26.9688 35.961 26.939 35.961 26.939L35.9144 26.9584L35.8709 27.0224C35.8709 27.0224 35.8305 27.0323 35.8141 27.0224C35.7976 27.0123 35.7639 27.0224 35.7505 27.019C35.7372 27.0152 35.7067 27.0591 35.7067 27.0591C35.7067 27.0591 35.6603 27.1092 35.6468 27.1125C35.6335 27.1158 35.5867 27.1693 35.59 27.1725C35.5937 27.1759 35.5967 27.2195 35.5967 27.2195C35.5967 27.2195 35.5867 27.236 35.57 27.2393C35.5534 27.2426 35.5832 27.2994 35.5832 27.2994L35.6237 27.3197C35.6237 27.3197 35.5999 27.3429 35.5867 27.3398C35.5731 27.3361 35.5431 27.3733 35.5664 27.3831ZM51.2866 26.658C51.2866 26.6553 51.2851 26.6553 51.2822 26.657C51.2851 26.6591 51.2866 26.6599 51.2866 26.658ZM47.1834 32.5567C47.1901 32.5467 47.2835 32.4999 47.2868 32.4763C47.2903 32.4534 47.357 32.6939 47.357 32.6939L47.4042 32.8609C47.4042 32.8609 47.4406 32.981 47.454 33.0045C47.4674 33.0281 47.4871 33.1817 47.4871 33.1951C47.4871 33.2084 47.5311 33.2983 47.5109 33.3085C47.4904 33.3185 47.4574 33.3118 47.4638 33.3253C47.4709 33.3385 47.4871 33.4122 47.4871 33.426C47.4871 33.4392 47.4772 33.5291 47.4709 33.5459C47.4638 33.5627 47.4609 33.6061 47.4609 33.6258C47.4609 33.6461 47.4736 33.6832 47.4736 33.6928C47.4736 33.703 47.4839 33.7196 47.4839 33.7196C47.4839 33.7196 47.4975 33.7265 47.5039 33.7096C47.5108 33.6928 47.5608 33.6863 47.5678 33.6928C47.5742 33.6997 47.651 33.7895 47.6579 33.8166C47.6644 33.8431 47.748 33.9738 47.7578 33.987C47.7679 34.0005 47.8116 34.044 47.7843 34.0806C47.7578 34.1173 47.7578 34.124 47.7614 34.1439C47.7647 34.1639 47.7748 34.2373 47.808 34.2779C47.8418 34.3178 47.9115 34.3946 47.9115 34.3946C47.9115 34.3946 47.9987 34.4552 48.0121 34.4719C48.0252 34.4884 48.1222 34.4984 48.1325 34.5384C48.1421 34.5784 48.169 34.6189 48.169 34.6189C48.169 34.6189 48.2457 34.642 48.2457 34.6523C48.2457 34.644 48.2448 34.5273 48.2359 34.5114C48.2261 34.4951 48.146 34.3312 48.1356 34.3213C48.1259 34.3111 48.1092 34.2879 48.1191 34.2449C48.1291 34.2009 48.1123 34.0872 48.1123 34.0872L47.9553 33.8999C47.9553 33.8999 47.8182 33.7662 47.8149 33.7731C47.8117 33.7796 47.7078 33.7329 47.7118 33.6928C47.7145 33.6528 47.701 33.5527 47.671 33.5292C47.6413 33.5059 47.6146 33.4689 47.5912 33.4556C47.5679 33.4419 47.5846 33.3151 47.5912 33.2984C47.5976 33.2817 47.6512 33.1349 47.6481 33.125C47.6444 33.1151 47.6613 32.978 47.6613 32.978C47.6613 32.978 47.7046 32.9207 47.7146 32.9409C47.7249 32.9608 47.7715 32.9409 47.758 33.001C47.7448 33.0616 47.7517 33.0984 47.7517 33.0984L47.8716 33.0747L47.9555 33.1618L48.0158 33.2417L48.0925 33.2886C48.0925 33.2886 48.1125 33.379 48.1225 33.3853C48.1327 33.3923 48.1827 33.3653 48.1827 33.3653L48.2596 33.4192C48.2596 33.4192 48.216 33.4992 48.2264 33.5195C48.2362 33.5395 48.2459 33.6095 48.2459 33.6095L48.3197 33.5492L48.4135 33.4791L48.4603 33.4122L48.477 33.3622L48.6104 33.3051L48.7375 33.1882L48.7344 32.9408L48.6942 32.7873L48.5806 32.6268L48.3598 32.4064L48.2733 32.2995C48.2733 32.2995 48.2129 32.2226 48.2161 32.2027C48.2195 32.1823 48.2325 32.0757 48.2325 32.0757L48.2931 32.0187L48.4102 31.9018C48.4102 31.9018 48.4903 31.8483 48.5037 31.8616C48.517 31.875 48.6239 31.8717 48.6273 31.8816C48.6304 31.8916 48.6444 31.8884 48.6372 31.9082C48.6304 31.9282 48.6404 32.0187 48.6504 32.0287C48.6607 32.0388 48.6842 32.0485 48.6942 32.052C48.7036 32.0552 48.7375 32.0419 48.7409 32.0219C48.7444 32.002 48.7375 31.9317 48.7409 31.915C48.7444 31.8983 48.7509 31.8983 48.7611 31.895C48.7711 31.8916 48.8209 31.895 48.8209 31.895L48.8747 31.8415L48.968 31.8749L49.0683 31.7879C49.0683 31.7879 49.1219 31.7781 49.1286 31.7847C49.1352 31.7916 49.2224 31.718 49.2224 31.718L49.3125 31.6978L49.3925 31.6644C49.3925 31.6644 49.4259 31.5874 49.4259 31.5973C49.4259 31.6075 49.6199 31.4038 49.6199 31.4038L49.6834 31.2466L49.7601 31.0228L49.8068 30.7451L49.8103 30.665C49.8103 30.665 49.7366 30.725 49.7268 30.7286C49.7166 30.7317 49.6567 30.7154 49.6567 30.7154L49.7032 30.6316C49.7032 30.6316 49.7301 30.5716 49.7166 30.5682C49.7032 30.5648 49.6364 30.5449 49.6364 30.5449C49.6364 30.5449 49.6651 30.4791 49.6694 30.4748C49.6633 30.4748 49.5531 30.3611 49.5531 30.3611C49.5531 30.3611 49.4059 30.1505 49.3992 30.1671C49.3925 30.1839 49.279 30.087 49.2686 30.087C49.2591 30.087 49.2522 30.0903 49.2456 30.0704C49.2389 30.0503 49.3459 29.9099 49.3492 29.8995C49.3524 29.8899 49.4458 29.786 49.4629 29.7894C49.4792 29.7928 49.5362 29.7961 49.5362 29.7961C49.5362 29.7961 49.5225 29.7294 49.5127 29.726C49.503 29.7228 49.2758 29.7027 49.2758 29.7027C49.2758 29.7027 49.1857 29.7561 49.1822 29.7695C49.1784 29.7828 49.1055 29.7763 49.1055 29.7763L49.0953 29.6993L49.0046 29.656L48.9013 29.6192L48.9048 29.549C48.9048 29.549 48.968 29.5258 48.9781 29.5185C48.9881 29.5118 49.0682 29.4721 49.0748 29.4384C49.0815 29.4049 49.1351 29.3516 49.142 29.3415C49.1485 29.3315 49.1918 29.2948 49.2016 29.3015C49.212 29.3081 49.2758 29.3549 49.2687 29.3583C49.2624 29.3616 49.2189 29.432 49.2285 29.4517C49.2389 29.4721 49.2856 29.5323 49.2791 29.5421C49.2725 29.5524 49.2522 29.5891 49.2522 29.5891L49.3024 29.5824C49.3024 29.5824 49.3658 29.5323 49.3624 29.5257C49.3591 29.5185 49.4126 29.4621 49.4226 29.4621C49.4325 29.4621 49.5431 29.4383 49.546 29.4483C49.5496 29.4585 49.6599 29.4851 49.6599 29.4851L49.6801 29.6859C49.6801 29.6859 49.9474 29.7493 49.9474 29.7661C49.9474 29.7827 49.9172 29.8093 49.9172 29.8093C49.9172 29.8093 49.9139 29.8629 49.9273 29.8697C49.9406 29.8761 49.9839 29.913 49.9942 29.9265C50.0046 29.9399 50.0244 30.0303 50.0244 30.0303C50.0244 30.0303 49.9878 30.1104 49.9942 30.1204C50.0007 30.1306 50.0677 30.1906 50.0677 30.1906L50.2583 30.1171C50.2583 30.1171 50.3616 30.0369 50.3616 30.027C50.3616 30.0167 50.2516 29.7494 50.2516 29.7494L49.9974 29.5753L49.8874 29.4851L50.041 29.335L50.0275 29.2048C50.0275 29.2048 50.0609 29.0773 50.0677 29.0773C50.0747 29.0773 50.168 29.0107 50.168 29.0107L50.2748 29.0846L50.4353 28.9841L50.5256 28.6603L50.5288 28.2388L50.3851 27.9816C50.3851 27.9816 50.3184 27.8245 50.308 27.8245C50.298 27.8245 50.2014 27.6738 50.2014 27.6738L49.9775 27.5738L49.8803 27.5705L49.8204 27.6706L49.7572 27.5938L49.6702 27.4403L49.68 27.5337C49.68 27.5337 49.6935 27.5938 49.6894 27.6071C49.6869 27.6205 49.623 27.5236 49.623 27.5236C49.623 27.5236 49.5161 27.5037 49.5095 27.5037C49.503 27.5037 49.4493 27.4733 49.4493 27.4733C49.4493 27.4733 49.607 27.29 49.5933 27.2965C49.58 27.3031 49.62 27.0626 49.62 27.0626C49.62 27.0626 49.6767 26.9488 49.68 26.9555C49.6834 26.9623 49.9002 26.9322 49.9002 26.9322C49.9002 26.9322 50.298 26.9257 50.2947 26.9322C50.2914 26.9391 50.4888 26.9191 50.4888 26.9191C50.4888 26.9191 50.4951 26.9759 50.5124 26.9826C50.5287 26.9891 50.689 26.979 50.689 26.979L50.8061 26.9524L50.8626 26.9455C50.8626 26.9455 50.7926 26.8755 50.7825 26.8755C50.7725 26.8755 50.7058 26.8452 50.6993 26.8418C50.6923 26.8385 50.7493 26.7118 50.7458 26.6916C50.7427 26.6715 50.736 26.6014 50.7625 26.6082C50.7892 26.615 50.9701 26.615 50.9701 26.615C50.9701 26.615 51.0432 26.6848 51.0432 26.705C51.0432 26.7249 51.1603 26.7951 51.1603 26.7951C51.1603 26.7951 51.224 26.7249 51.2304 26.7117C51.236 26.701 51.2699 26.6634 51.2828 26.6572C51.2667 26.644 51.2141 26.5748 51.2141 26.5748C51.2141 26.5748 51.2707 26.5111 51.3006 26.5445C51.3311 26.578 51.3976 26.7216 51.3976 26.7216C51.3976 26.7216 51.3373 26.8719 51.3373 26.8855C51.3373 26.8985 51.3141 27.036 51.3141 27.0461C51.3141 27.056 51.2471 27.1161 51.2471 27.1161C51.2471 27.1161 51.2141 27.1161 51.2141 27.1328C51.2141 27.1494 51.2604 27.2395 51.2604 27.2395C51.2604 27.2395 51.2777 27.3433 51.2871 27.3496C51.2973 27.3569 51.6316 27.6472 51.6316 27.6472L51.8487 27.8615L51.9894 27.9782L52.0292 27.9683C52.0292 27.9683 52.0629 27.8046 52.0494 27.8109C52.0359 27.8179 51.9824 27.7611 51.9894 27.7513C51.9958 27.7406 52.0092 27.6938 52.0257 27.6973C52.0427 27.7009 52.0927 27.7105 52.0927 27.7105L51.9925 27.5837L52.0257 27.5137L52.1029 27.537L51.9992 27.4269L51.9457 27.3197C51.9457 27.3197 52.0025 27.333 52.0063 27.3429C52.0092 27.3535 52.0697 27.3 52.0495 27.2964C52.0293 27.2927 51.9091 27.2494 51.9091 27.2393C51.9091 27.2294 51.8391 27.2127 51.8353 27.1992C51.8322 27.186 51.8488 27.1325 51.8391 27.1325C51.8291 27.1325 51.7255 27.0858 51.7255 27.0858L51.6582 27.0954L51.6215 27.0224L51.6414 26.9656C51.6414 26.9656 51.5774 26.8746 51.5716 26.8688C51.5767 26.8734 51.7144 26.8208 51.7275 26.8152C51.7266 26.8174 51.7926 26.8098 51.7984 26.8349C51.8054 26.8618 51.8352 26.8886 51.8352 26.8886L51.9057 26.8218C51.9057 26.8218 51.9557 26.7781 51.9758 26.788C51.9958 26.798 52.0927 26.8185 52.1064 26.8316C52.1183 26.8438 52.1791 26.8611 52.1885 26.8721C52.1876 26.8581 52.1897 26.8147 52.1897 26.8147L52.1926 26.7781L52.2868 26.6512C52.2868 26.6512 52.3232 26.5978 52.357 26.5908C52.3904 26.5844 52.4603 26.5243 52.4737 26.5344C52.4871 26.5442 52.5979 26.5411 52.6113 26.5712C52.6244 26.6011 52.6845 26.5611 52.6845 26.5611C52.6845 26.5611 52.6274 26.491 52.6243 26.4975C52.6213 26.5041 52.437 26.4238 52.4271 26.4274C52.417 26.4305 52.2937 26.3538 52.2937 26.3538C52.2937 26.3538 52.2299 26.3304 52.2268 26.3304C52.2236 26.3304 52.2766 26.3036 52.2966 26.2969C52.3168 26.2903 52.3637 26.2268 52.3637 26.2268C52.3637 26.2268 52.3404 26.1835 52.3268 26.17C52.3133 26.1568 52.4004 26.1668 52.4304 26.1801C52.4603 26.1934 52.6112 26.2001 52.6076 26.2101C52.6039 26.22 52.7078 26.22 52.7044 26.2469C52.7009 26.2737 52.7411 26.2801 52.7546 26.2936C52.768 26.307 52.8949 26.327 52.9018 26.3304C52.9079 26.3336 53.0349 26.3204 53.0349 26.3403C53.0349 26.3604 53.0752 26.3371 53.0752 26.3371C53.0752 26.3371 53.0552 26.2403 53.0318 26.2469C53.0082 26.2535 52.9646 26.2201 52.9949 26.2136C53.0251 26.207 53.0819 26.1735 53.0653 26.1668C53.0484 26.1602 53.0218 26.1267 52.9817 26.1098C52.9417 26.0931 52.7812 26.0567 52.7645 26.063C52.748 26.0699 52.4971 26.0094 52.4809 26.0094C52.4638 26.0094 52.3769 25.9863 52.3769 25.9863L51.5214 25.7557C51.5214 25.7557 50.99 25.6989 50.9932 25.6886C50.9968 25.6789 50.6858 25.652 50.6858 25.652L50.8699 25.8058L50.6858 25.7792C50.6858 25.7792 50.4588 25.7424 50.4521 25.7323C50.4452 25.7224 49.8168 25.719 49.8168 25.719L49.7234 25.6183C49.7234 25.6183 49.4225 25.5687 49.4125 25.5653C49.4025 25.5616 49.0281 25.5653 49.0281 25.5653L48.7145 25.5185C48.7145 25.5185 48.5037 25.428 48.4569 25.4382C48.4101 25.4483 47.949 25.4081 47.9221 25.3946C47.8956 25.3812 47.712 25.4081 47.712 25.4081L47.8616 25.5218L47.6148 25.5149L47.3674 25.5114L47.2736 25.4648L47.2775 25.6019C47.2775 25.6019 47.2071 25.6149 47.2071 25.5983C47.2071 25.5816 46.9897 25.5049 46.9897 25.5049C46.9897 25.5049 46.809 25.3446 46.806 25.3547C46.8025 25.3646 46.5125 25.2978 46.5125 25.2978L46.3314 25.2646C46.3314 25.2646 46.278 25.2878 46.2845 25.3013C46.2912 25.3146 46.3614 25.3613 46.3514 25.3713C46.3414 25.3812 46.2314 25.3613 46.2314 25.3613L45.9473 25.3514L45.8968 25.2979L45.5225 25.3013C45.5225 25.3013 45.3822 25.1909 45.3787 25.1972C45.3756 25.2039 45.2719 25.2212 45.2719 25.2212L45.1916 25.3079L44.9646 25.3247L45.2089 25.1942L45.2957 25.1309C45.302 25.1138 45.235 25.0138 45.222 25.027C45.2089 25.0405 45.0179 24.9803 45.0079 24.9803C44.9979 24.9803 44.7105 24.9736 44.7105 24.9736C44.6902 24.9703 44.6003 24.9736 44.6003 24.9736C44.6003 24.9736 44.5669 24.8802 44.5501 24.8835C44.5336 24.8868 44.316 24.8801 44.316 24.8801C44.316 24.8801 44.1224 24.9202 44.1151 24.9402C44.1091 24.9604 44.1523 24.9803 44.1523 24.9803C44.1523 24.9803 44.0488 25.0571 44.0386 25.0504C44.0288 25.0437 43.7277 25.0437 43.7277 25.0437C43.7277 25.0437 43.3101 25.1338 43.3101 25.1237C43.3101 25.1152 43.1851 25.1685 43.1559 25.1814C43.1805 25.2029 43.2682 25.2529 43.2566 25.2646C43.2434 25.2779 42.9624 25.2913 42.9524 25.2711C42.9434 25.2528 42.8323 25.2951 42.8147 25.2978C42.8349 25.3062 42.9665 25.4091 42.9756 25.4248C42.9856 25.4414 43.0098 25.4649 43.0425 25.4515C43.0759 25.4381 43.1059 25.4248 43.1128 25.4381C43.1195 25.4515 43.1128 25.4815 43.1128 25.4815C43.1128 25.4815 43.0291 25.4983 43.0194 25.4983C43.0099 25.4983 42.909 25.4414 42.899 25.4381C42.8891 25.4348 42.7554 25.4047 42.7385 25.4047C42.7214 25.4047 42.648 25.4147 42.648 25.4147C42.648 25.4147 42.5913 25.4649 42.6046 25.4716C42.6184 25.4782 42.6517 25.5416 42.6619 25.5352C42.6717 25.5282 42.732 25.5015 42.7351 25.5317C42.7385 25.5614 42.6651 25.5853 42.6651 25.5853C42.6651 25.5853 42.5644 25.5448 42.5612 25.5351C42.5579 25.5247 42.511 25.4681 42.511 25.438C42.511 25.4079 42.451 25.3011 42.4343 25.3177C42.4178 25.3345 42.3576 25.3411 42.3576 25.3411L42.4312 25.4079C42.4312 25.4079 42.4945 25.4612 42.4778 25.4647C42.4613 25.4681 42.4144 25.4947 42.4112 25.5048C42.4078 25.5148 42.3711 25.5714 42.4143 25.5714C42.4578 25.5714 42.528 25.6385 42.528 25.6385C42.528 25.6385 42.5313 25.7289 42.5378 25.7422C42.5445 25.7556 42.6479 25.8256 42.6479 25.8256C42.6479 25.8256 42.7119 25.7855 42.7213 25.7756C42.7319 25.7656 42.8188 25.749 42.8388 25.7689C42.8588 25.7889 42.7985 25.839 42.782 25.8291C42.7651 25.8189 42.7285 25.8089 42.7119 25.8156L42.6948 25.8222C42.6948 25.8222 42.6716 25.8724 42.6948 25.8824C42.7184 25.8925 42.7488 25.9259 42.7453 25.9425C42.7417 25.9591 42.6785 26.0729 42.6785 26.0729L42.5847 26.0929C42.5513 26.0862 42.498 26.0628 42.498 26.0628L42.5982 25.9861L42.6116 25.8824C42.6116 25.8824 42.615 25.8757 42.5883 25.8523C42.5611 25.8291 42.4678 25.7456 42.4678 25.7456C42.4678 25.7456 42.4111 25.6519 42.4111 25.6419C42.4111 25.6314 42.3844 25.5815 42.3844 25.5815C42.3844 25.5815 42.3208 25.5381 42.3074 25.5351C42.2943 25.5317 42.2943 25.4947 42.3044 25.4748C42.3143 25.4546 42.2943 25.3646 42.2909 25.3779C42.287 25.3913 42.1737 25.3746 42.1601 25.3712C42.1467 25.368 42.1168 25.3311 42.1168 25.3311C42.1168 25.3311 42.1003 25.2746 42.0731 25.2978C42.0467 25.3211 42 25.3311 42 25.3311L41.9532 25.4546L41.9665 25.5048L41.873 25.5685C41.873 25.5685 41.9519 25.6364 41.9592 25.6416C41.9535 25.6388 41.9634 25.7089 41.9665 25.7255C41.9695 25.7422 42.1101 25.7791 42.1101 25.7791C42.1101 25.7791 42.1836 25.809 42.1902 25.8391C42.1971 25.8691 42.17 25.9059 42.17 25.9059L42.0266 25.8391L41.7088 25.739C41.7088 25.739 41.4018 25.719 41.4082 25.709C41.4152 25.699 41.2911 25.6286 41.2911 25.6286L41.2209 25.6653C41.2209 25.6653 41.2876 25.7124 41.298 25.7153C41.308 25.719 41.4082 25.7557 41.4082 25.7557C41.4082 25.7557 41.4384 25.7724 41.445 25.7992C41.4519 25.8258 41.3883 25.8592 41.3883 25.8592C41.3883 25.8592 41.345 25.8125 41.345 25.8026C41.345 25.7925 41.3347 25.7524 41.3214 25.759C41.308 25.7657 41.1844 25.8292 41.1844 25.8292C41.1844 25.8292 41.044 25.8325 41.0272 25.8459C41.0105 25.8592 40.9203 25.9229 40.9136 25.906C40.9067 25.8893 40.9268 25.8192 40.9238 25.8058C40.9203 25.7925 40.7833 25.8293 40.7833 25.8293C40.7833 25.8293 40.6064 25.886 40.5994 25.9026C40.5929 25.9195 40.5128 25.936 40.499 25.9394C40.4858 25.9428 40.4692 25.9428 40.4692 25.9428C40.4692 25.9428 40.3993 25.9864 40.4123 26.0095C40.4258 26.0329 40.3154 26.0461 40.3154 26.0461C40.3154 26.0461 40.2455 26.0028 40.2422 25.9931C40.239 25.9839 40.3181 25.9308 40.3257 25.9262C40.3154 25.9329 40.2422 25.8393 40.232 25.836C40.2232 25.8333 40.0416 25.838 40.0092 25.8366C40.0304 25.8443 40.095 25.9069 40.095 25.9162C40.095 25.9262 40.1052 26.0232 40.1052 26.0232C40.1052 26.0232 40.1582 26.0569 40.1685 26.0529C40.1784 26.0499 40.1582 26.11 40.1582 26.11L40.0685 26.1C40.0685 26.1 40.0313 26.0462 40.0012 26.0766C39.9711 26.1069 39.8711 26.1837 39.8646 26.1737C39.8577 26.1637 39.801 26.1837 39.8043 26.2038C39.8078 26.2239 39.8511 26.2671 39.8511 26.2671C39.8511 26.2671 39.7878 26.3205 39.794 26.3007C39.801 26.2804 39.6206 26.2338 39.6071 26.2372C39.5932 26.2405 39.5166 26.2639 39.5166 26.2639L39.5498 26.3206C39.5498 26.3206 39.6503 26.3273 39.6635 26.3473C39.6773 26.3673 39.6405 26.4074 39.6299 26.4074C39.6205 26.4074 39.3864 26.2971 39.3864 26.2971C39.3864 26.2971 39.3094 26.2171 39.3326 26.1938C39.3566 26.1704 39.3764 26.1337 39.3326 26.1337C39.2894 26.1337 39.2426 26.1001 39.2396 26.0867C39.2361 26.0734 39.5031 26.1137 39.5031 26.1137L39.6573 26.1302C39.6573 26.1302 39.6373 26.1505 39.6975 26.1302C39.7574 26.1101 39.8577 26.0598 39.8711 26.0569C39.8845 26.053 39.9009 25.9897 39.9009 25.9897L39.8809 25.9329L39.3065 25.796C39.3065 25.796 39.1157 25.7392 39.1124 25.7292C39.1092 25.7192 38.942 25.7023 38.942 25.7023L38.8616 25.7126L38.9289 25.6289C38.9289 25.6289 38.6678 25.5518 38.6614 25.5618C38.6543 25.5718 38.5476 25.6225 38.5476 25.6225L38.3472 25.5889L38.0896 25.6489L37.8289 25.7126L37.4515 25.8729L37.5918 25.8862L37.5313 25.9897L37.3642 26.1137L37.271 26.2672L37.2576 26.3508L37.1675 26.4475C37.1675 26.4475 37.104 26.4142 37.0907 26.401C37.0774 26.3873 36.8565 26.4641 36.8565 26.4641L36.7231 26.5912C36.7231 26.5912 36.6897 26.6549 36.683 26.6716C36.676 26.6885 36.6929 26.8656 36.6929 26.8656C36.6929 26.8656 36.7731 26.8656 36.7497 26.8889C36.7262 26.9121 36.7295 27.0194 36.7295 27.0194L36.8232 27.0824C36.8232 27.0824 36.9467 27.1229 36.9639 27.1194C36.98 27.1161 37.0405 27.076 37.0508 27.0693C37.0601 27.0627 37.1341 26.9892 37.1574 26.9923C37.1807 26.9959 37.2408 26.9287 37.2478 26.9525C37.2543 26.9759 37.2678 27.0594 37.281 27.0794C37.2943 27.0995 37.3411 27.1362 37.361 27.1828C37.3809 27.2297 37.4083 27.2767 37.4013 27.2862C37.3943 27.2966 37.3477 27.343 37.3477 27.343C37.3477 27.343 37.2478 27.3564 37.2342 27.3702C37.2209 27.3834 37.2042 27.39 37.1942 27.3834C37.1838 27.3767 37.2275 27.3297 37.2375 27.3169C37.2477 27.3032 37.2142 27.2497 37.2008 27.2529C37.1872 27.2565 37.1742 27.2229 37.1872 27.2129C37.2008 27.2028 37.1974 27.1394 37.1974 27.1394C37.1974 27.1394 37.1774 27.1293 37.1675 27.1328C37.1574 27.1361 37.0405 27.1828 37.0405 27.1828C37.0405 27.1828 36.977 27.2497 36.9737 27.2629C36.9701 27.2767 36.9433 27.3466 36.9604 27.3966C36.977 27.447 37.017 27.5272 37.017 27.5272C37.017 27.5272 37.0601 27.5571 37.0437 27.5706C37.0273 27.5838 36.9934 27.634 36.9934 27.634L36.9136 27.6373C36.9136 27.6373 36.7699 27.6543 36.7563 27.6607C36.7431 27.6676 36.6029 27.7107 36.6092 27.7243C36.6163 27.7376 36.579 27.8815 36.579 27.8815C36.5726 27.8849 36.4321 27.985 36.4155 27.985C36.3988 27.985 36.2953 28.0116 36.2953 28.0116C36.2953 28.0116 36.2484 28.1353 36.2453 28.1285C36.2419 28.1217 36.0878 28.202 36.0878 28.202C36.0878 28.202 35.971 28.1685 35.9676 28.155C35.9643 28.1418 35.9241 28.1117 35.9209 28.1218C35.9174 28.1319 35.9608 28.2359 35.9608 28.2559C35.9608 28.2755 35.9676 28.3157 35.9542 28.3026C35.9408 28.2889 35.874 28.2693 35.8608 28.2625C35.8471 28.2559 35.7336 28.259 35.7336 28.259H35.6868C35.6868 28.259 35.6299 28.3093 35.6265 28.2991C35.6234 28.289 35.62 28.3428 35.62 28.3428L35.6533 28.376L35.7739 28.4261L35.8874 28.4963L35.9309 28.6031L35.9809 28.7034C35.9809 28.7034 35.9474 28.9105 35.9412 28.9208C35.9338 28.9307 35.8639 28.9777 35.8639 28.9777L35.6465 28.974C35.6465 28.974 35.5396 28.9508 35.5296 28.9474C35.5196 28.9439 35.3691 28.9674 35.3662 28.9541C35.3628 28.9406 35.3158 28.9439 35.3158 28.9439L35.2922 28.9173H35.2321L35.182 28.9739L35.1085 28.9776V29.0375C35.1085 29.0375 35.1385 29.1748 35.1352 29.1648C35.1319 29.1545 35.1219 29.325 35.1219 29.325C35.1219 29.325 35.0497 29.4702 35.0424 29.4813C35.044 29.4856 35.0384 29.579 35.0384 29.579L35.082 29.6493L35.0886 29.7326C35.0886 29.7326 35.0551 29.8094 35.0686 29.8028C35.0821 29.796 35.1891 29.8061 35.1921 29.7928C35.1954 29.7795 35.2591 29.7494 35.2688 29.7727C35.2787 29.796 35.3158 29.7727 35.3262 29.8131C35.3355 29.8531 35.3726 29.9098 35.3762 29.9197C35.3795 29.9301 35.4062 29.9398 35.4062 29.9398L35.4162 29.9668L35.3958 29.9836L35.3128 30.1704L35.1285 30.3009L35.0185 30.3709L34.9883 30.4547L34.9417 30.5081L34.9283 30.6117C34.9283 30.6117 34.9417 30.7418 34.9347 30.7487C34.9283 30.7553 34.6842 30.9859 34.6842 30.9859L34.5506 31.016L34.4767 31.1431C34.4767 31.1431 34.3766 31.2364 34.3701 31.2535C34.3631 31.2699 34.3131 31.3337 34.3131 31.3337C34.3131 31.3337 34.3165 31.4671 34.3131 31.4472C34.3097 31.4272 34.1696 31.5573 34.1696 31.5573C34.1696 31.5573 34.1429 31.7111 34.1363 31.718C34.1296 31.7243 34.0629 31.8414 34.0525 31.8381C34.0426 31.8347 34.0326 31.9182 34.0326 31.9316C34.0326 31.9449 34.0658 31.9849 34.0658 31.9849C34.0658 31.9849 34.1129 32.0755 34.1161 32.0655C34.1193 32.0551 34.1193 32.0957 34.1193 32.0957L34.0728 32.1421C34.0728 32.1421 34.1229 32.2192 34.1229 32.2292V32.4361L34.0692 32.55L34.0426 32.6971L33.9621 32.7605L33.9655 32.8007L34.0358 32.8573L34.0461 32.9206L34.0257 32.991V33.0615L34.0761 33.1785C34.0761 33.1785 34.1262 33.2185 34.1362 33.2084C34.1462 33.1983 34.2461 33.2718 34.2597 33.2951C34.2731 33.3185 34.3965 33.4656 34.3965 33.4724C34.3965 33.479 34.4167 33.5125 34.4167 33.5125L34.4767 33.7163C34.4767 33.7163 34.7675 33.9568 34.7742 33.9469C34.781 33.9372 35.0851 34.1639 35.0851 34.1639C35.0851 34.1639 35.3294 34.044 35.3261 34.0541C35.3225 34.0639 35.5329 34.044 35.5329 34.044L35.6601 34.0639L35.7533 34.1074L36.0946 33.9506L36.1614 33.8999L36.4252 33.8903L36.5524 33.9399C36.5524 33.9399 36.6359 34.0639 36.6359 34.084C36.6359 34.104 36.686 34.1941 36.6928 34.1806C36.6993 34.1676 36.9903 34.1542 37.0005 34.1574C37.0101 34.1607 37.1372 34.2847 37.1372 34.2847L37.1306 34.4018L37.1104 34.6087L37.0702 34.709L37.0305 34.7994L37.0205 34.8629C37.0205 34.8629 37.3208 35.3041 37.3208 35.3073C37.3208 35.3106 37.3978 35.4909 37.3978 35.4909L37.4884 35.7218L37.5419 35.8518L37.4884 35.9253L37.5753 36.1497L37.5451 36.3699L37.4147 36.6543L37.358 36.8647L37.3747 37.1454L37.5312 37.4696L37.6953 37.8406L37.712 38.2485L37.8426 38.4922L37.9364 38.6891L38.0265 38.9033L38.0731 38.9669C38.0731 38.9669 38.08 39.0738 38.0695 39.0738C38.0596 39.0738 38.0097 39.0774 38.0231 39.0971C38.0364 39.117 38.1131 39.2508 38.1131 39.2508L38.1164 39.3112L38.2232 39.371L38.3174 39.3277C38.3174 39.3277 38.4108 39.3112 38.4209 39.3144C38.4307 39.3177 38.5609 39.2708 38.5609 39.2708L38.7614 39.3009L38.9019 39.2275L39.0557 39.2175C39.0557 39.2175 39.3196 38.9601 39.3196 38.9668C39.3196 38.9735 39.5631 38.6528 39.5631 38.6528L39.6874 38.5456L39.7572 38.3352L39.7473 38.1985C39.7473 38.1985 39.7708 38.1278 39.794 38.1145C39.8177 38.1013 40.0446 37.9676 40.0446 37.9676L40.0918 37.7469L40.048 37.5295C40.048 37.5295 40.0145 37.4463 40.0145 37.4328C40.0145 37.4197 40.0379 37.3591 40.0379 37.3591L40.2587 37.162C40.2587 37.162 40.3087 37.0985 40.3321 37.0752C40.3556 37.0519 40.5624 36.9617 40.5624 36.9617L40.7031 36.825L40.7265 36.3201C40.7265 36.3201 40.6764 36.1325 40.6731 36.1161C40.6698 36.099 40.5729 35.7819 40.5729 35.7684C40.5729 35.7552 40.5395 35.5611 40.5357 35.5442C40.5331 35.5281 40.6124 35.304 40.6124 35.304L40.7231 35.0864L41.1745 34.5685L41.4287 34.365L41.8129 33.7363L41.9366 33.4455L41.963 33.1517L41.8831 33.1383C41.8831 33.1383 41.8428 33.185 41.8328 33.1916C41.8228 33.1985 41.5922 33.2119 41.5922 33.2119L41.3114 33.2951L41.1744 33.3453L41.0407 33.2052L41.0607 33.105L40.8805 32.8908L40.6264 32.6373C40.6264 32.6373 40.4989 32.5401 40.5058 32.5304C40.5127 32.5201 40.4354 32.2861 40.4354 32.2929C40.4354 32.2996 40.3086 32.1761 40.3086 32.1761L40.3053 31.9519L40.1683 31.7283L40.0182 31.454C40.0182 31.454 39.8909 31.1397 39.8775 31.123C39.8644 31.1064 39.8142 31.023 39.8307 31.0262C39.8474 31.0297 39.9678 31.0129 39.9678 31.0129C39.9678 31.0129 40.1915 31.2771 40.1915 31.2904C40.1915 31.3038 40.3255 31.5274 40.3255 31.5274C40.3255 31.5274 40.4256 31.668 40.4256 31.6577C40.4256 31.6482 40.449 31.788 40.4456 31.7984C40.4423 31.8084 40.5057 31.9622 40.5057 31.9622L40.6963 32.1328L40.7364 32.2562L40.9101 32.4467L40.9438 32.5671L40.8265 32.4598C40.8265 32.4598 40.7898 32.5202 40.8031 32.5305C40.8164 32.5402 40.9334 32.664 40.9334 32.664L40.9907 32.8342L41.0342 32.9949L41.0975 33.0483L41.2848 33.0116L41.3179 32.9378H41.5019L41.582 32.8778L41.6819 32.8644C41.6819 32.8644 41.7589 32.7875 41.7655 32.7841C41.7724 32.7807 42.0698 32.6507 42.0698 32.6507C42.0698 32.6507 42.0763 32.5534 42.0898 32.5534C42.1032 32.5534 42.4009 32.4598 42.4009 32.4598L42.4309 32.3463L42.5375 32.3396L42.5676 32.2629L42.6712 32.1995L42.6842 32.0323L42.7613 32.0554L42.7849 31.9986L42.7582 31.9622L42.8753 31.7918L42.8785 31.7313L42.7649 31.6278L42.7116 31.5711C42.7116 31.5711 42.531 31.5508 42.5241 31.5374C42.5175 31.524 42.4474 31.3635 42.4474 31.3635C42.4474 31.3137 42.4507 31.2232 42.4405 31.23C42.4309 31.2367 42.374 31.3001 42.374 31.3001L42.1672 31.4907L41.9863 31.5374C41.9863 31.5374 41.9264 31.5207 41.9228 31.5108C41.9196 31.5008 41.9129 31.3469 41.9129 31.3469C41.9129 31.3469 41.8357 31.2567 41.8327 31.2435C41.8294 31.23 41.7723 31.3606 41.7723 31.3606C41.7723 31.3606 41.6854 31.2435 41.6952 31.2398C41.7052 31.2367 41.6552 31.123 41.6552 31.123L41.4817 30.9227L41.4717 30.8189C41.4717 30.8189 41.5553 30.7285 41.5685 30.7251C41.5818 30.7219 41.7021 30.7053 41.7156 30.7489C41.729 30.7919 41.8293 30.9395 41.8293 30.9595C41.8293 30.9794 41.9827 31.113 41.9997 31.1096C42.0161 31.1064 42.0761 31.1397 42.0965 31.1531C42.1165 31.1664 42.1563 31.1899 42.1732 31.2068C42.1899 31.2232 42.2334 31.2134 42.2334 31.2134L42.3437 31.1966C42.3437 31.1966 42.4338 31.1096 42.4374 31.1264C42.4403 31.1435 42.544 31.1501 42.5308 31.1732C42.5173 31.1966 42.5344 31.2637 42.544 31.2837C42.5544 31.3039 43.0052 31.374 43.0052 31.374L43.2128 31.4007C43.2128 31.4007 43.4329 31.3805 43.4463 31.3805C43.4595 31.3805 43.6004 31.3941 43.6137 31.3903C43.6267 31.3873 43.8273 31.6077 43.8273 31.6077L44.0145 31.7016L44.0577 31.6981L43.9514 31.745C43.9514 31.745 43.9876 31.8286 43.9876 31.8385C43.9876 31.8485 44.1749 31.9823 44.1749 31.9823C44.1749 31.9823 44.2416 31.9386 44.2516 31.9386C44.2619 31.9386 44.3086 31.922 44.312 31.8985C44.3153 31.8752 44.3018 31.8085 44.3186 31.8018C44.3356 31.7951 44.3585 31.7749 44.3625 31.8052C44.3654 31.835 44.4062 32.1225 44.3992 32.1256C44.3919 32.1295 44.4559 32.343 44.4559 32.353C44.4559 32.3631 44.5395 32.6239 44.5426 32.6339C44.546 32.6438 44.6829 32.9379 44.6929 32.948C44.7027 32.958 44.8367 33.3054 44.8367 33.3054C44.8367 33.3054 44.9137 33.4492 44.9102 33.4728C44.907 33.4962 44.9371 33.6097 44.9572 33.6231C44.9772 33.6364 45.0672 33.6699 45.0672 33.6699C45.0672 33.6699 45.1172 33.6262 45.1209 33.6131C45.1239 33.5999 45.1609 33.5397 45.1739 33.5197C45.1874 33.4994 45.2482 33.4931 45.2512 33.5062C45.2543 33.5197 45.3249 33.553 45.3249 33.553L45.3176 33.7167C45.3176 33.7167 45.3313 33.8233 45.3411 33.8641C45.3517 33.9041 45.4349 33.9375 45.4349 33.9375L45.5352 33.8473L45.5785 33.6932L45.4786 33.5431C45.4786 33.5431 45.4019 33.4596 45.3917 33.4493C45.3816 33.4396 45.3176 33.4296 45.3176 33.4296C45.3176 33.4296 45.3249 33.4631 45.3313 33.4762C45.3383 33.4896 45.3176 33.4932 45.3176 33.4932L45.2409 33.4632L45.2543 33.3755C45.2543 33.3755 45.3118 33.3657 45.3216 33.3657C45.3313 33.3657 45.3176 33.2321 45.3176 33.2321C45.3176 33.2321 45.3383 32.9951 45.345 32.9884C45.3517 32.9815 45.3349 32.7478 45.3081 32.7379C45.2817 32.7278 45.3081 32.6511 45.3216 32.6476C45.3349 32.6441 45.4652 32.5975 45.4652 32.5975L45.5384 32.4538C45.5384 32.4538 45.6691 32.3634 45.6791 32.3567C45.6889 32.3499 45.8392 32.1899 45.8392 32.1695C45.8392 32.1498 45.8563 32.0996 45.8962 32.0925C45.9363 32.0862 46.0101 32.0326 46.0101 32.0326V31.9222C46.0101 31.9222 46.0233 31.8688 46.0534 31.8555C46.0832 31.8421 46.1602 31.8319 46.1602 31.8319C46.1602 31.8319 46.1771 31.8755 46.1669 31.882C46.1567 31.8889 46.3372 31.8319 46.3372 31.8319C46.3372 31.8319 46.4173 31.8319 46.4308 31.8288C46.4444 31.8252 46.4845 31.7654 46.4845 31.7654C46.4845 31.7654 46.4673 31.7116 46.4906 31.7249C46.5144 31.7387 46.5713 31.7987 46.5647 31.8088C46.5576 31.8184 46.5979 31.8854 46.5882 31.9121C46.5778 31.9388 46.7418 32.1196 46.7418 32.1196C46.7418 32.1196 46.8216 32.0826 46.8152 32.1094C46.8082 32.1361 46.7919 32.2199 46.7919 32.2199C46.7919 32.2199 46.8421 32.2531 46.8619 32.2566C46.8821 32.2598 46.9389 32.3701 46.9389 32.3701C46.9389 32.3701 46.9254 32.4701 46.9254 32.4835C46.9254 32.4969 46.9326 32.594 46.9287 32.6108C46.9254 32.6274 47.0657 32.6579 47.0657 32.6579C47.0657 32.6579 47.1766 32.567 47.1833 32.5568L47.1834 32.5567ZM37.2744 27.5907L37.3849 27.497L37.4084 27.4067C37.4084 27.4067 37.5118 27.4235 37.5149 27.4369C37.5182 27.45 37.542 27.4067 37.5683 27.4302C37.5953 27.4536 37.6287 27.45 37.6322 27.4702C37.6351 27.4903 37.6554 27.5137 37.6587 27.5003C37.662 27.4869 37.662 27.4435 37.662 27.4435C37.662 27.4435 37.6322 27.4269 37.6152 27.4165C37.5984 27.4066 37.6019 27.3765 37.6187 27.3668C37.6351 27.3568 37.6819 27.3296 37.6954 27.3398C37.7089 27.3495 37.7691 27.3265 37.7691 27.3265C37.7691 27.3265 37.7791 27.3061 37.7856 27.2965C37.7926 27.2861 37.826 27.1961 37.826 27.1961C37.826 27.1961 37.8022 27.1861 37.7956 27.1559C37.7889 27.126 37.8325 27.039 37.8428 27.0358C37.8523 27.0324 37.9832 26.9554 37.9832 26.9554C37.9832 26.9554 38.0332 26.9018 38.0132 26.8853C37.993 26.8684 37.8427 26.795 37.8427 26.7783C37.8427 26.7616 37.826 26.6747 37.8357 26.6414C37.8459 26.6081 37.9062 26.5444 37.9161 26.5309C37.9262 26.5179 37.9997 26.4276 38.0132 26.4306C38.0266 26.4342 38.0766 26.4239 38.0897 26.4175C38.1034 26.4105 38.22 26.3572 38.2 26.3539C38.18 26.3505 38.2068 26.2905 38.1966 26.2937C38.1866 26.297 38.2068 26.217 38.2302 26.2104C38.2535 26.2037 38.2935 26.1736 38.304 26.1736C38.3134 26.1736 38.3942 26.177 38.4141 26.1802C38.4341 26.1836 38.5042 26.1503 38.5142 26.1802C38.5242 26.2103 38.5507 26.217 38.5276 26.227C38.5042 26.237 38.4508 26.2838 38.4173 26.3137C38.3841 26.3437 38.2836 26.411 38.2701 26.414C38.2571 26.4175 38.2498 26.424 38.2233 26.4409C38.1966 26.4573 38.1966 26.4176 38.1902 26.4808C38.1832 26.5444 38.1735 26.6145 38.1866 26.6382C38.2 26.6615 38.2098 26.6982 38.1966 26.715C38.1833 26.7318 38.1931 26.7418 38.1966 26.7718C38.2 26.8018 38.2408 26.8151 38.2436 26.8285C38.2467 26.8419 38.3002 26.8685 38.3002 26.8685C38.3269 26.8655 38.3577 26.8621 38.3638 26.8755C38.3707 26.8888 38.3842 26.8822 38.3842 26.8822L38.4405 26.8685C38.4405 26.8685 38.4976 26.8352 38.5177 26.8385C38.5377 26.8419 38.5643 26.8319 38.5877 26.8385C38.6111 26.8452 38.7112 26.8118 38.725 26.8151C38.7382 26.8188 38.8315 26.7784 38.8385 26.7919C38.8452 26.8052 38.8954 26.8018 38.8954 26.8018L38.9355 26.8319C38.9355 26.8518 38.8954 26.8986 38.8855 26.9055C38.8754 26.9121 38.8421 26.9392 38.822 26.9322C38.8021 26.9258 38.7883 26.9356 38.7616 26.9258C38.7349 26.9155 38.6847 26.9019 38.6712 26.9019C38.6578 26.9019 38.5011 26.9392 38.5011 26.9392L38.4212 26.9623L38.4073 27.0093L38.4175 27.0193L38.4977 27.0693C38.4977 27.0862 38.5313 27.076 38.5244 27.1161C38.5178 27.1562 38.5144 27.1728 38.5044 27.1928C38.4942 27.213 38.4542 27.2497 38.4442 27.2262C38.4342 27.2029 38.3843 27.1594 38.3708 27.1494C38.3577 27.1395 38.3176 27.1461 38.2936 27.1461C38.2704 27.1461 38.2235 27.1796 38.2235 27.2163C38.2235 27.253 38.2003 27.3002 38.2101 27.3364C38.2202 27.3736 38.2638 27.4204 38.2439 27.4437C38.2235 27.4672 38.177 27.4839 38.157 27.4938C38.1371 27.5038 38.0899 27.5372 38.0734 27.5439C38.0567 27.5505 38.0065 27.5705 37.9964 27.5472C37.9866 27.5237 37.9664 27.487 37.9664 27.487C37.9664 27.487 37.9497 27.4538 37.9428 27.4638C37.9368 27.4735 37.8995 27.4772 37.8995 27.4772L37.813 27.5105C37.813 27.5105 37.7658 27.5438 37.756 27.5506C37.7457 27.5572 37.6957 27.5572 37.6756 27.5672C37.6557 27.5773 37.5954 27.6274 37.5789 27.604C37.5619 27.5808 37.5523 27.6207 37.5317 27.584C37.5121 27.5473 37.5185 27.5071 37.4949 27.514C37.4718 27.5207 37.418 27.5339 37.4117 27.5473C37.4047 27.5606 37.3981 27.5606 37.3852 27.574C37.3717 27.5872 37.2747 27.5973 37.2747 27.5973V27.5907L37.2744 27.5907ZM40.0434 30.0653C40.0184 30.1306 40.0184 30.2157 39.983 30.2809C39.9478 30.3458 39.9328 30.3809 39.9079 30.4215C39.8827 30.4611 39.8827 30.5165 39.8428 30.5415C39.8027 30.5667 39.7427 30.6017 39.7075 30.5767C39.6727 30.5515 39.5322 30.5566 39.5167 30.5617C39.5019 30.5667 39.3316 30.5566 39.3114 30.5915C39.2915 30.6267 39.1616 30.6017 39.1409 30.5915C39.1209 30.5816 38.8754 30.4811 38.8554 30.4763C38.8355 30.4714 38.7096 30.4164 38.6894 30.4013C38.6694 30.3862 38.5443 30.3709 38.5395 30.3559C38.5344 30.3408 38.5494 30.3209 38.5291 30.3259C38.5094 30.3305 38.3638 30.376 38.3438 30.3907C38.3234 30.4063 38.279 30.4463 38.279 30.4463C38.279 30.4463 38.2183 30.5064 38.2233 30.5514C38.2287 30.5966 38.2837 30.6316 38.2637 30.6566C38.2437 30.6816 38.1736 30.7117 38.1736 30.7117C38.1736 30.7117 38.0979 30.6416 38.0732 30.6316C38.0482 30.6216 37.8128 30.5866 37.8128 30.5866L37.7175 30.4763C37.7175 30.4763 37.5672 30.376 37.5521 30.371C37.5369 30.366 37.3715 30.371 37.3462 30.351C37.321 30.3306 37.2409 30.2256 37.2009 30.2307C37.1608 30.2356 37.1759 30.1705 37.191 30.1605C37.2059 30.1506 37.251 30.0653 37.2461 30.0503C37.2409 30.0351 37.2711 29.9502 37.2211 29.9252C37.171 29.8995 37.2059 29.8144 37.2059 29.8144C37.2059 29.8144 37.2562 29.8044 37.2361 29.8044C37.216 29.8044 37.1409 29.8094 37.1207 29.7844C37.1009 29.7593 37.0953 29.7494 37.0759 29.7593C37.0554 29.7695 36.93 29.7895 36.9152 29.7844C36.9 29.7795 36.7799 29.7944 36.7599 29.7944C36.7399 29.7944 36.7649 29.7995 36.7399 29.7944C36.7145 29.7894 36.6142 29.8348 36.6093 29.8545C36.6047 29.8745 36.5043 29.8499 36.4891 29.8545C36.4739 29.8595 36.3286 29.8595 36.3286 29.8595L36.0879 29.8996C36.0879 29.8996 35.9275 29.9803 35.9226 30.0053C35.9175 30.0304 35.8674 30.0705 35.8524 30.0803C35.8376 30.0904 35.7474 30.0803 35.7419 30.0653C35.7372 30.0503 35.5765 30.0705 35.5765 30.0705C35.5765 30.0705 35.5115 30.0352 35.4914 30.0504C35.4714 30.0654 35.4714 29.985 35.4714 29.985L35.4965 29.9254L35.5866 29.8651L35.8024 29.8246L35.9077 29.7547L35.9726 29.7296L36.0125 29.6245C36.0125 29.6245 36.0878 29.6095 36.0827 29.5942C36.0778 29.5792 36.0581 29.509 36.0581 29.509L36.2031 29.2835L36.4086 29.1832L36.4438 29.113C36.4438 29.113 36.424 29.0229 36.4388 29.0076C36.4538 28.9925 36.5892 28.9624 36.5892 28.9624L36.7597 29.0176C36.7597 29.0176 36.8498 28.9576 36.8698 28.9475C36.8898 28.9374 36.9853 28.8824 36.9853 28.8824C36.9853 28.8824 36.995 28.8374 37.0151 28.8423C37.0352 28.8473 37.1204 28.8273 37.1307 28.8674C37.1406 28.9075 37.2158 29.0329 37.2158 29.0329L37.331 29.1533L37.4415 29.2386L37.5769 29.2885C37.5769 29.2885 37.657 29.3587 37.6719 29.3638C37.6869 29.3686 37.762 29.4541 37.762 29.4541L37.802 29.524C37.802 29.524 37.7771 29.5794 37.757 29.6045C37.7371 29.6293 37.6769 29.6947 37.6618 29.6894C37.6467 29.6848 37.5312 29.6647 37.5312 29.6647L37.406 29.6796C37.406 29.6796 37.3863 29.7098 37.4213 29.7348C37.4564 29.7598 37.4964 29.7549 37.5313 29.7749C37.5669 29.7948 37.657 29.8352 37.657 29.8352C37.657 29.8352 37.7174 29.8449 37.7174 29.8599C37.7174 29.875 37.7372 29.8198 37.7321 29.7848C37.7272 29.7498 37.722 29.7048 37.7571 29.6947C37.7925 29.6847 37.8473 29.6947 37.8473 29.6795C37.8473 29.6645 37.8627 29.6442 37.8627 29.6442L37.9077 29.5895L37.9027 29.5545L37.9481 29.5189C37.9481 29.5189 37.9231 29.4894 37.9027 29.464C37.8829 29.4388 37.8627 29.4238 37.8772 29.3987C37.8925 29.3738 37.9424 29.3386 37.968 29.3587C37.993 29.3787 38.068 29.3887 38.0629 29.4139C38.0582 29.4388 38.0629 29.4737 38.0732 29.454C38.0828 29.4338 38.0782 29.3536 38.0782 29.3536C38.0782 29.3536 38.038 29.2986 38.0029 29.2936C37.9681 29.2884 37.8772 29.2434 37.8524 29.2335C37.8274 29.2234 37.7825 29.1985 37.7825 29.1985C37.7825 29.1985 37.8023 29.1434 37.7727 29.1484C37.7423 29.1533 37.6522 29.1381 37.6522 29.1233C37.6522 29.1079 37.5618 29.0376 37.5572 29.023C37.5522 29.0076 37.4717 28.8974 37.4717 28.8974C37.4717 28.8974 37.4263 28.8524 37.4215 28.8374C37.4163 28.8223 37.4116 28.7972 37.4015 28.7573C37.3912 28.7171 37.5016 28.6169 37.4966 28.6318C37.4915 28.6466 37.5218 28.6669 37.5421 28.7119C37.5618 28.7573 37.6421 28.8323 37.6522 28.8624C37.6621 28.8923 37.7727 28.9778 37.7973 28.9876C37.8228 28.9975 37.8373 29.0278 37.8877 29.0478C37.938 29.0679 37.9332 29.0776 37.9982 29.1079C38.063 29.138 38.0733 29.1483 38.0829 29.163C38.0933 29.1783 38.1331 29.1733 38.1484 29.1983C38.1634 29.2232 38.1834 29.2283 38.1834 29.2533C38.1834 29.2783 38.2038 29.2783 38.1932 29.3284C38.1834 29.3785 38.1685 29.3935 38.1736 29.4035C38.1786 29.4138 38.2689 29.5994 38.3041 29.5994C38.3391 29.5994 38.4442 29.6395 38.4292 29.6994C38.4142 29.7594 38.4942 29.8397 38.4942 29.8397C38.4942 29.8397 38.5612 29.844 38.6075 29.8517C38.6095 29.8167 38.6021 29.7606 38.6401 29.7394C38.6847 29.7143 38.75 29.689 38.7398 29.6643C38.7296 29.6393 38.7196 29.594 38.6797 29.5641C38.6401 29.5342 38.5995 29.5186 38.5895 29.469C38.5797 29.4187 38.5644 29.3533 38.6095 29.3735C38.6545 29.3934 38.6947 29.4891 38.7152 29.4235C38.7349 29.3585 38.7849 29.3133 38.8199 29.3284C38.8554 29.3434 38.9205 29.3684 38.9155 29.3884C38.9104 29.4085 38.9606 29.5691 38.9606 29.5691C38.9606 29.5691 38.9805 29.5843 38.9905 29.6593C39.0005 29.7343 39.0656 29.7545 39.0558 29.7796C39.0456 29.8044 39.0154 29.8194 39.096 29.8297C39.1758 29.8397 39.2514 29.8546 39.2514 29.8746C39.2514 29.8948 39.3165 29.9052 39.3265 29.9199C39.3364 29.935 39.3965 29.965 39.4067 29.935C39.4166 29.9052 39.4368 29.8446 39.4518 29.8547C39.4668 29.8651 39.5921 29.8651 39.6022 29.9053C39.6126 29.9448 39.6976 29.9448 39.6976 29.9555C39.6976 29.9652 39.7728 29.9304 39.7728 29.9304C39.7728 29.9304 39.8779 29.85 39.908 29.8651C39.938 29.8801 40.023 29.8096 40.013 29.8748C40.0032 29.94 40.0685 30.0003 40.0434 30.0653ZM40.5445 29.1831C40.5297 29.1982 40.4342 29.2933 40.4342 29.2933L40.2436 29.2681H40.1134L40.0032 29.2282C40.0032 29.2282 39.9278 29.2032 39.9129 29.188C39.8976 29.173 39.8027 29.1377 39.8027 29.1377L39.602 29.183L39.4465 29.2282L39.3917 29.2781L39.2061 29.2331L39.096 29.1781L39.0355 29.1127H39.0907L39.071 29.0326L39.0807 28.9776L39.1306 28.9473L39.1659 28.8021L39.2263 28.777L39.2411 28.702C39.2411 28.702 39.2914 28.6566 39.3066 28.6416C39.3216 28.6267 39.3717 28.5562 39.3717 28.5562L39.4916 28.6065C39.4916 28.6065 39.617 28.6217 39.597 28.6268C39.5766 28.6317 39.5166 28.7021 39.5166 28.7021C39.5166 28.7021 39.5618 28.7267 39.5825 28.7421C39.602 28.7571 39.6474 28.7819 39.6373 28.8122C39.6271 28.8422 39.7125 28.8372 39.7125 28.8372L39.7426 28.7871L39.8827 28.7521L39.9329 28.7268L39.8526 28.7021C39.8526 28.7021 39.7824 28.6768 39.7926 28.6617C39.8027 28.6465 39.8678 28.5463 39.8678 28.5463C39.8678 28.5463 40.0333 28.4964 40.0481 28.4964C40.0628 28.4964 40.1637 28.4764 40.1637 28.4764C40.1637 28.4764 40.0835 28.5565 40.0732 28.5717C40.0628 28.5869 40.0784 28.6366 40.0533 28.6569C40.0284 28.6769 39.9928 28.6972 39.9781 28.7023C39.9627 28.7069 39.9728 28.7573 39.9879 28.7624C40.0033 28.7675 40.0533 28.7874 40.0533 28.7874L40.2739 28.9025L40.4092 29.0377L40.5148 29.1234C40.5148 29.123 40.5595 29.1681 40.5445 29.1831ZM41.818 29.8445L41.6922 29.8595C41.6922 29.8595 41.5821 29.8144 41.5774 29.7945C41.572 29.7745 41.5471 29.7294 41.5319 29.7394C41.517 29.7495 41.4669 29.7545 41.452 29.7495C41.4371 29.7444 41.3814 29.6994 41.3814 29.6793C41.3814 29.6594 41.3662 29.6144 41.3914 29.5941C41.4168 29.5741 41.4668 29.5392 41.4567 29.5238C41.447 29.5089 41.4415 29.4442 41.4415 29.4337C41.4415 29.4236 41.4415 29.4138 41.4719 29.4087C41.5018 29.4035 41.5018 29.4035 41.5018 29.4035C41.5018 29.4035 41.5118 29.3737 41.4967 29.3586C41.4818 29.3435 41.3913 29.2783 41.3813 29.2633C41.3719 29.2484 41.261 29.1432 41.246 29.1277C41.2312 29.113 41.1659 29.0679 41.1659 29.0679L41.1308 28.9925L41.1608 28.8974L41.0709 28.8773L41.0509 28.8124V28.7972L41.1458 28.6871C41.1458 28.6871 41.2112 28.6521 41.2261 28.6617C41.2411 28.6721 41.276 28.6318 41.2818 28.6167C41.2862 28.6014 41.3814 28.5363 41.4018 28.5263C41.4216 28.5164 41.4566 28.4713 41.4769 28.4963C41.4967 28.5213 41.622 28.5616 41.622 28.5616C41.622 28.5616 41.6675 28.5715 41.662 28.5913C41.6571 28.6117 41.617 28.7421 41.617 28.7421C41.617 28.7421 41.527 28.717 41.517 28.722C41.5073 28.7268 41.4371 28.7521 41.452 28.7922C41.4669 28.8323 41.397 28.8072 41.4018 28.8272C41.4066 28.8471 41.4168 28.8772 41.432 28.8873C41.4471 28.8973 41.5319 28.9423 41.542 28.9725C41.5518 29.0028 41.6921 29.093 41.6921 29.093C41.6921 29.093 41.7073 29.1029 41.7023 29.1232C41.6976 29.1432 41.6873 29.2484 41.7023 29.2484C41.7173 29.2484 41.7522 29.2433 41.7522 29.2433C41.7522 29.2433 41.7978 29.1482 41.8129 29.1583C41.8278 29.1682 41.888 29.2133 41.903 29.2483C41.9177 29.2834 41.9481 29.3183 41.933 29.3284C41.9177 29.3383 41.8477 29.3334 41.8277 29.3334C41.808 29.3334 41.7725 29.3083 41.7625 29.3183C41.7522 29.3284 41.7326 29.3534 41.7474 29.3833C41.7625 29.4137 41.7928 29.4587 41.808 29.469C41.8228 29.4788 41.8376 29.4735 41.8831 29.5141C41.9281 29.5542 41.9431 29.574 41.9281 29.6192C41.913 29.6643 41.923 29.7045 41.9281 29.7193C41.9331 29.7344 41.9431 29.7694 41.9533 29.7844C41.963 29.7995 41.963 29.8194 41.963 29.8194L41.818 29.8445ZM40.0095 25.8362C40.0078 25.8355 40.0059 25.8355 40.0052 25.8355C40.0036 25.8362 40.0052 25.8362 40.0095 25.8362ZM52.1898 26.875C52.1898 26.8743 52.1898 26.8729 52.1886 26.8719C52.1894 26.8753 52.1894 26.877 52.1898 26.875ZM43.1503 25.1837C43.1503 25.1837 43.1525 25.1832 43.1565 25.1813C43.153 25.1782 43.1507 25.1758 43.1503 25.1743C43.1471 25.1606 43.1503 25.1837 43.1503 25.1837ZM41.73 36.3793C41.73 36.3793 41.6228 36.4999 41.6164 36.5202C41.6093 36.5399 41.5228 36.6469 41.509 36.6802C41.4956 36.7136 41.389 36.787 41.389 36.787L41.1951 36.8673C41.1951 36.8673 41.1284 36.874 41.1483 36.9011C41.1682 36.9282 41.1349 36.9542 41.0884 37.0145C41.0414 37.0745 41.0884 37.1547 41.0884 37.1547L41.1148 37.2883V37.4155C41.1148 37.4155 41.0747 37.5559 41.0547 37.5624C41.0349 37.5693 41.0014 37.6093 40.9814 37.6763C40.9611 37.743 40.968 37.7898 40.968 37.7898C40.968 37.7898 40.9814 37.89 40.9611 37.9103C40.9408 37.9302 40.9945 38.0303 41.0149 38.0641C41.0349 38.0973 41.0884 38.1172 41.0884 38.1172C41.0884 38.1172 41.1349 38.1575 41.1551 38.1707C41.1751 38.1841 41.2753 38.1445 41.2753 38.1445C41.2753 38.1445 41.349 38.1111 41.3688 38.0974C41.3889 38.0838 41.4024 38.0775 41.4422 38.0106C41.4826 37.9437 41.4559 37.9637 41.4622 37.9437C41.4693 37.9238 41.5089 37.8366 41.5293 37.7231C41.5493 37.6094 41.5561 37.6161 41.5827 37.5159C41.6093 37.4156 41.6427 37.3886 41.6494 37.3089C41.6562 37.2286 41.6627 37.1949 41.6692 37.168C41.6761 37.1415 41.7432 37.0413 41.7496 36.9743C41.7562 36.9077 41.7562 36.8741 41.7432 36.8476C41.73 36.8205 41.8235 36.8405 41.8365 36.8004C41.8502 36.7602 41.8365 36.8004 41.8434 36.7807C41.8502 36.7603 41.8571 36.6336 41.8571 36.5602C41.8571 36.4867 41.7835 36.3726 41.7761 36.3529C41.77 36.3328 41.73 36.3793 41.73 36.3793ZM48.4071 35.4103C48.4275 35.3568 48.4071 35.3501 48.3939 35.3235C48.3806 35.2968 48.4203 35.1766 48.474 35.1296C48.5275 35.0827 48.4473 35.0759 48.4473 35.0759L48.3671 35.0893L48.2936 34.9489C48.2936 34.9489 48.1665 34.849 48.1266 34.8221C48.0864 34.7956 48.1863 34.7418 48.1863 34.7418C48.1863 34.7418 47.9596 34.5279 47.9328 34.5279C47.9061 34.5279 47.7721 34.4211 47.7522 34.4141C47.7322 34.4077 47.6253 34.2271 47.6253 34.2271L47.1706 33.9999C47.1706 33.9999 47.1106 34.0536 47.1106 34.0801C47.1106 34.1068 47.1909 34.1202 47.1909 34.1202C47.1909 34.1202 47.2174 34.1401 47.2441 34.1536C47.2708 34.1671 47.3509 34.2338 47.3577 34.2808C47.3642 34.3274 47.3779 34.3542 47.4246 34.3941C47.4717 34.4343 47.5515 34.4547 47.5515 34.4547C47.5515 34.4547 47.5853 34.5681 47.612 34.5815C47.6385 34.595 47.6588 34.6549 47.6718 34.6885C47.6853 34.7219 47.8125 34.929 47.8053 35.0025C47.7989 35.0761 47.8994 35.25 47.8994 35.25C47.8994 35.25 48.1267 35.4303 48.1334 35.4572C48.1399 35.4837 48.3065 35.5307 48.3065 35.5307C48.3065 35.5307 48.3871 35.4637 48.4071 35.4103ZM49.9578 34.04C49.9578 34.0133 49.8843 33.9533 49.864 33.9264C49.8441 33.8994 49.7239 33.7925 49.6972 33.7726C49.6707 33.7526 49.6972 33.7726 49.6572 33.8464C49.6172 33.9198 49.5702 34.0066 49.55 34.0132C49.5299 34.0199 49.3832 34.1134 49.3429 34.1601C49.3028 34.2068 49.2229 34.3273 49.1962 34.3078C49.1695 34.2874 49.0553 34.394 49.0553 34.394L48.9953 34.5411L48.8081 34.5012L48.8213 34.5616C48.8213 34.5616 48.7615 34.6547 48.7749 34.6752C48.7884 34.6952 48.7749 34.7689 48.7949 34.8086C48.8147 34.849 48.8349 34.8756 48.8683 34.9023C48.9017 34.929 48.9083 35.0159 48.8883 35.0827C48.8682 35.1496 48.9152 35.1629 48.9417 35.19C48.9684 35.2165 49.0285 35.2234 49.0553 35.203C49.082 35.1828 49.1356 35.1765 49.1694 35.1965C49.2022 35.2165 49.2896 35.2165 49.3161 35.2499C49.3428 35.2833 49.4498 35.2632 49.4696 35.2833C49.49 35.3033 49.5969 35.2632 49.6234 35.2361C49.6498 35.2099 49.6234 35.1566 49.6234 35.0693C49.6234 34.9825 49.6368 34.9892 49.6839 34.9557C49.7306 34.9223 49.764 34.8956 49.7706 34.8491C49.7775 34.802 49.7908 34.7219 49.7908 34.6817C49.7908 34.6415 49.8978 34.6484 49.9176 34.6349C49.9382 34.6215 49.9041 34.5949 49.9041 34.5749C49.9041 34.5546 49.8173 34.4612 49.7975 34.4277C49.7775 34.3941 49.8307 34.227 49.864 34.2004C49.8979 34.1736 49.9578 34.0667 49.9578 34.04ZM49.0221 35.8379C49.042 35.8446 49.0887 35.8446 49.1886 35.8713C49.2895 35.898 49.383 35.9049 49.3962 35.9315C49.4096 35.958 49.4961 35.9315 49.5367 35.9249C49.5768 35.918 49.6706 35.8311 49.7306 35.8981C49.7909 35.9649 49.9109 35.918 49.9311 35.9315C49.951 35.9445 50.0117 35.8981 50.0848 35.9049C50.1584 35.9113 50.1651 35.9315 50.1851 35.9315C50.2051 35.9315 50.2719 35.9516 50.3054 35.9445C50.3389 35.938 50.3788 35.898 50.4391 35.9049C50.4996 35.9112 50.6595 35.8577 50.6595 35.8577C50.6595 35.8577 50.6595 35.8645 50.6199 35.8912C50.5795 35.9179 50.4458 36.018 50.4458 36.018C50.4458 36.018 50.4256 36.0048 50.4188 36.0451C50.4124 36.0851 50.3724 36.1655 50.4124 36.1316C50.4527 36.0987 50.593 35.9782 50.6265 35.9515C50.6596 35.9248 50.673 35.9112 50.7065 35.8912C50.7398 35.8712 50.8133 35.851 50.8133 35.851L50.8603 35.8176C50.8603 35.8176 50.8201 35.7911 50.7998 35.7976C50.7802 35.8046 50.7464 35.7711 50.6999 35.7911C50.6529 35.8111 50.5262 35.8311 50.5262 35.8311C50.5262 35.8311 50.4459 35.8446 50.3991 35.8247C50.3524 35.8047 50.2986 35.7711 50.2787 35.7977C50.2588 35.8247 50.1452 35.8579 50.1248 35.8579C50.1051 35.8579 50.0314 35.8512 49.978 35.838C49.9244 35.8247 49.911 35.8247 49.8843 35.8247C49.8576 35.8247 49.8576 35.8048 49.7842 35.7978C49.7104 35.7913 49.69 35.7713 49.6707 35.7778C49.65 35.7848 49.6173 35.7913 49.5906 35.8048C49.5636 35.8178 49.483 35.8178 49.4636 35.7978C49.4432 35.7778 49.2425 35.7378 49.2425 35.7378C49.2425 35.7378 49.216 35.7044 49.2763 35.6844C49.3363 35.6644 49.3232 35.6644 49.3162 35.6378C49.3096 35.6106 49.2091 35.6106 49.1828 35.6178C49.1561 35.6241 49.0888 35.6378 49.0621 35.6106C49.0356 35.5844 48.9553 35.5168 48.9288 35.5571C48.9019 35.5973 48.9154 35.6509 48.8884 35.6444C48.8619 35.6378 48.681 35.6576 48.681 35.6378C48.681 35.6178 48.6343 35.5641 48.6142 35.5571C48.5942 35.5506 48.6009 35.5307 48.5676 35.5168C48.5341 35.5042 48.4674 35.5237 48.4674 35.5237L48.4007 35.5307L48.3203 35.6241C48.3203 35.6241 48.5075 35.6444 48.5275 35.671C48.5475 35.6978 48.6478 35.7778 48.6478 35.7778C48.6478 35.7778 48.7812 35.8111 48.8149 35.8178C48.8483 35.8247 49.0021 35.8311 49.0221 35.8379ZM48.8018 32.0884C48.7811 32.0751 48.728 32.0751 48.728 32.0751L48.6611 32.1017L48.6277 32.0884L48.5539 32.1888C48.5539 32.1888 48.5741 32.3022 48.5941 32.3022H48.6877L48.7615 32.2489L48.8018 32.1488C48.8018 32.1488 48.8213 32.1018 48.8018 32.0884ZM49.8842 31.8211L49.9244 31.7407C49.9244 31.7407 49.9446 31.6605 49.951 31.6405C49.9578 31.6201 49.9842 31.5601 49.9647 31.5267C49.9446 31.4933 49.9578 31.4467 49.9446 31.4199C49.931 31.3934 49.9244 31.3531 49.9244 31.3531L49.8576 31.3797C49.8309 31.4064 49.7909 31.5267 49.7909 31.5267C49.7909 31.5267 49.7641 31.6475 49.7841 31.6736C49.804 31.7008 49.8576 31.7741 49.8576 31.7741L49.8842 31.8211ZM50.7263 33.8327C50.7865 33.853 50.8066 33.8399 50.7998 33.8124C50.7932 33.7857 50.7731 33.6456 50.7597 33.5924C50.7463 33.5389 50.8399 33.4986 50.7398 33.4186C50.6397 33.3381 50.6464 33.3452 50.6397 33.3381C50.6329 33.3314 50.6329 33.2647 50.6329 33.2647C50.6329 33.2647 50.6528 33.198 50.6397 33.178C50.6264 33.158 50.6129 33.1178 50.5995 33.0979C50.5861 33.0777 50.5861 33.0712 50.5459 33.0712C50.5059 33.0712 50.5059 33.0243 50.4792 33.0307C50.4527 33.0374 50.3856 33.0908 50.4323 33.0111C50.4792 32.9304 50.4526 32.9171 50.4526 32.9037C50.4526 32.8905 50.4188 32.8705 50.3855 32.8639C50.3523 32.857 50.3253 32.817 50.2786 32.8303C50.2319 32.8441 50.2119 32.8105 50.1851 32.8105C50.1584 32.8105 50.1451 32.7769 50.1385 32.7371C50.1317 32.6969 50.1451 32.6166 50.1451 32.5967C50.1451 32.5764 50.1851 32.5164 50.1851 32.5164C50.1851 32.5164 50.1985 32.4893 50.1851 32.4428C50.1718 32.3961 50.1451 32.3158 50.1451 32.2825C50.1451 32.2491 50.0713 32.2156 50.0713 32.2156L49.9842 32.249L49.951 32.5432C49.951 32.5432 49.891 32.563 49.8978 32.5897C49.9041 32.6166 49.9041 32.7436 49.9378 32.7703C49.971 32.7967 50.0248 32.8303 50.0248 32.8303C50.0379 32.8639 50.005 32.9304 50.005 32.9304C50.005 32.9304 50.0848 33.0244 50.0919 33.0512C50.0983 33.0777 50.1386 33.0642 50.1386 33.0642C50.1386 33.0642 50.1187 32.8838 50.1584 32.917C50.1986 32.9506 50.3054 32.9443 50.312 32.9841C50.3189 33.0243 50.3923 33.0642 50.4053 33.1046C50.4188 33.1447 50.5059 33.1581 50.4995 33.1911C50.4926 33.2247 50.439 33.2247 50.4053 33.2313C50.3723 33.238 50.2652 33.1581 50.2652 33.1581C50.2652 33.1581 50.2385 33.1514 50.232 33.1912C50.2255 33.2314 50.2453 33.3315 50.272 33.3649C50.2985 33.3985 50.3255 33.3649 50.339 33.3849C50.3524 33.4053 50.339 33.452 50.3591 33.4788C50.3788 33.5055 50.4323 33.5121 50.4527 33.4986C50.4726 33.4856 50.5395 33.4519 50.5395 33.4519C50.5395 33.4519 50.5324 33.3718 50.5059 33.3581C50.4793 33.3449 50.4391 33.3047 50.4594 33.285C50.4792 33.2647 50.5192 33.2247 50.5395 33.2313C50.5591 33.238 50.6064 33.3249 50.5995 33.3449C50.593 33.3648 50.5995 33.3718 50.6264 33.445C50.6528 33.519 50.6664 33.5055 50.6329 33.519C50.5995 33.532 50.5662 33.5725 50.5459 33.5857C50.5415 33.5888 50.5408 33.5907 50.5415 33.592C50.5366 33.5904 50.5238 33.5881 50.4926 33.5857C50.4054 33.579 50.4256 33.539 50.4054 33.579C50.3857 33.619 50.3654 33.6524 50.3654 33.6524L50.3189 33.6724C50.3189 33.6724 50.2852 33.7792 50.2919 33.8125L50.2985 33.8465C50.2985 33.8465 50.3654 33.7192 50.3856 33.7192C50.4053 33.7192 50.4053 33.7526 50.4323 33.7325C50.4593 33.7125 50.4861 33.7261 50.4861 33.7261C50.4861 33.7261 50.5261 33.7058 50.5192 33.7591C50.5131 33.8125 50.5131 33.8192 50.5325 33.8733C50.553 33.9264 50.6065 33.9533 50.6264 33.9733C50.6464 33.9932 50.6729 34.0067 50.6864 34.02C50.6999 34.0332 50.7064 33.9598 50.6999 33.9064C50.6929 33.8529 50.6664 33.8124 50.7263 33.8327ZM50.2587 34.6415C50.3327 34.6817 50.3788 34.702 50.439 34.7219C50.4995 34.7419 50.5591 34.6817 50.5727 34.6953C50.586 34.7085 50.6464 34.6483 50.6464 34.6483C50.6464 34.6483 50.6929 34.5815 50.6864 34.5617C50.6797 34.5412 50.6729 34.4812 50.6595 34.5013C50.6465 34.5211 50.5192 34.5949 50.4927 34.6013C50.4662 34.6081 50.3991 34.5815 50.339 34.5815C50.2787 34.5815 50.1317 34.5346 50.1114 34.5546C50.092 34.5749 50.0314 34.6548 50.0379 34.6885C50.0448 34.7219 50.0379 34.742 50.0379 34.7623C50.0379 34.7822 50.018 34.8757 50.018 34.8491L49.9245 35.0959C49.9245 35.0959 49.9978 35.2834 49.9915 35.3169C49.9844 35.3502 49.9712 35.5376 49.9915 35.5172C50.0118 35.4969 50.1114 35.4838 50.1114 35.4838C50.1114 35.4838 50.1453 35.3635 50.1387 35.3101C50.1318 35.2567 50.0714 35.0895 50.1249 35.1029C50.1787 35.1163 50.2321 35.183 50.2321 35.183C50.2321 35.183 50.1918 35.2235 50.2052 35.2501C50.2187 35.2767 50.2654 35.3101 50.2588 35.3703C50.2521 35.4304 50.2788 35.4573 50.2788 35.437C50.2788 35.417 50.3458 35.4504 50.3525 35.4638C50.3582 35.4758 50.4214 35.4199 50.4313 35.4204C50.4321 35.4004 50.442 35.3184 50.4257 35.2968C50.4055 35.2701 50.4055 35.2301 50.3592 35.1766C50.312 35.1226 50.3724 35.1097 50.3255 35.049C50.2788 34.9893 50.2588 35.0093 50.2788 34.9893C50.2986 34.9691 50.339 34.9558 50.3724 34.9358C50.4055 34.9156 50.4324 34.8624 50.4324 34.8624C50.4391 34.8424 50.4527 34.8491 50.3992 34.8357C50.3457 34.8222 50.2987 34.8087 50.2654 34.8491C50.2321 34.8889 50.1987 34.8957 50.1987 34.8957L50.172 34.9024C50.1453 34.9091 50.1518 34.8624 50.1318 34.8556C50.1114 34.8491 50.1114 34.8424 50.0984 34.7957C50.0849 34.7488 50.0984 34.6752 50.1187 34.6615C50.1385 34.6483 50.1851 34.6013 50.2587 34.6415ZM50.4323 35.4236C50.4331 35.4213 50.4323 35.4205 50.4311 35.4203C50.4311 35.4248 50.4311 35.4274 50.4323 35.4236ZM53.0522 35.4236C53.0459 35.3834 53.0388 35.3367 53.0194 35.3034C52.9988 35.27 52.5642 35.0424 52.5108 35.0224C52.4573 35.0025 52.1773 34.9156 52.1773 34.9156C52.1773 34.9156 52.0431 34.969 52.0431 34.9892C52.0431 35.0092 51.9762 35.0828 51.9493 35.1097C51.9229 35.1362 51.9294 35.163 51.8894 35.1564C51.8491 35.1497 51.8428 35.1564 51.8221 35.1363C51.8027 35.1163 51.7823 35.049 51.7557 35.0293C51.7287 35.0094 51.6755 34.9826 51.6884 34.9292C51.7021 34.8757 51.7218 34.8023 51.6818 34.8023C51.6419 34.8023 51.5819 34.8292 51.5684 34.8087C51.555 34.789 51.475 34.7958 51.475 34.7958L51.3082 34.8425L51.2874 34.8492C51.2874 34.8492 51.3613 34.9894 51.4083 34.9759C51.4551 34.9627 51.5417 35.0695 51.5417 35.0695C51.5417 35.0695 51.5152 35.1298 51.5285 35.1498C51.5417 35.1698 51.5953 35.2702 51.5953 35.2702L51.7021 35.2635L51.809 35.3102L52.0966 35.4038L52.1772 35.497L52.2239 35.698C52.2239 35.698 52.1033 35.778 52.1101 35.8114C52.1167 35.8449 52.2639 35.805 52.2639 35.805L52.3841 35.865L52.5307 35.9384L52.6983 35.9448L52.7982 35.8314C52.7982 35.8314 52.945 35.7045 52.945 35.7313C52.945 35.7581 53.079 35.8114 53.0992 35.8717C53.1195 35.9318 53.2396 36.0391 53.2396 36.0391C53.2396 36.0391 53.4064 36.0925 53.4266 36.0992C53.4464 36.1054 53.4936 36.1125 53.5406 36.1257C53.5873 36.1391 53.4935 36.0052 53.4935 36.0052C53.4935 36.0052 53.3462 35.9183 53.3397 35.8848C53.3331 35.8514 53.2128 35.7514 53.2195 35.718C53.2261 35.6846 53.1657 35.6446 53.1928 35.6446C53.2196 35.6446 53.3263 35.6313 53.313 35.6108C53.2998 35.5912 53.2262 35.4639 53.1928 35.4639C53.1595 35.4637 53.0593 35.4637 53.0522 35.4236ZM53.2797 37.6826C53.2797 37.6826 53.2063 37.6495 53.1996 37.6628C53.1929 37.6763 53.1659 37.5358 53.1659 37.5358L53.1794 37.4624C53.1794 37.4624 52.9786 37.2081 52.9725 37.2285C52.9652 37.2485 52.8986 37.0213 52.8986 37.0213L52.8787 36.774L52.8319 36.6268L52.7118 36.6403L52.6849 36.3995L52.6177 36.1723L52.5846 36.159L52.5177 36.3126C52.5177 36.3126 52.4843 36.5267 52.4707 36.6002C52.4573 36.6736 52.4508 36.7807 52.4108 36.8476C52.3706 36.9144 52.2769 37.0745 52.2769 37.0745C52.2769 37.0745 52.17 37.0745 52.1565 37.0546C52.1432 37.0346 52.0231 36.9743 52.0231 36.9743L51.9492 36.8608L51.8293 36.7674C51.8293 36.7674 51.7485 36.6669 51.7421 36.6736C51.7356 36.6802 51.8027 36.5802 51.822 36.5667C51.8428 36.5534 51.849 36.4867 51.849 36.4867L51.956 36.3996C51.956 36.3996 51.976 36.3661 51.956 36.3463C51.9358 36.3261 51.9358 36.2926 51.9092 36.2857C51.8824 36.2792 51.7286 36.353 51.7286 36.353L51.6017 36.2926C51.6017 36.2926 51.5079 36.2457 51.4883 36.2123C51.4682 36.1791 51.4145 36.159 51.4012 36.1723C51.3878 36.1857 51.4012 36.2524 51.4012 36.2524C51.4012 36.2524 51.4286 36.3113 51.4383 36.3297C51.426 36.3193 51.3812 36.3529 51.3812 36.3529L51.2541 36.3659L51.1738 36.4394L51.1136 36.5533L51.0737 36.6335C51.0737 36.6335 51.1069 36.6869 51.0936 36.6801C51.0802 36.6735 50.8997 36.727 50.8997 36.727C50.8997 36.727 50.8526 36.6269 50.8326 36.6068C50.8127 36.5866 50.7527 36.5533 50.7258 36.5533C50.6993 36.5533 50.6324 36.6135 50.6324 36.6135L50.6059 36.7537L50.5054 36.727L50.4183 36.874L50.3323 36.9077L50.2849 37.0078L50.2583 36.9011L50.1581 36.9945L50.1244 37.1479C50.1244 37.1479 49.9974 37.2684 49.984 37.2951C49.9707 37.3216 49.6896 37.4224 49.6896 37.4224L49.5096 37.4824C49.5096 37.4824 49.4161 37.5023 49.3959 37.5023C49.376 37.5023 49.2019 37.6295 49.2019 37.6295L49.1422 37.6895L49.1221 37.6361L49.0485 37.7162V37.8834L48.9749 37.9834L49.0151 38.137L48.955 38.1573L48.9015 38.1977L48.9618 38.318L48.9817 38.5381C48.9817 38.5381 49.015 38.6052 49.0085 38.6455C49.0019 38.6851 48.9749 38.7254 48.9749 38.7521C48.9749 38.7788 48.9951 38.879 48.9951 38.9056C48.9951 38.9325 48.9347 39.1067 48.9347 39.1067L48.8615 39.2268L48.8015 39.2335C48.8015 39.2335 48.8144 39.3606 48.8347 39.3606C48.8546 39.3606 48.915 39.387 48.9682 39.4075C49.0219 39.4271 49.1087 39.3941 49.1288 39.3871C49.1488 39.3804 49.296 39.3003 49.296 39.3003C49.296 39.3003 49.3828 39.2403 49.4094 39.2468C49.4361 39.2536 49.5569 39.2336 49.5765 39.2468C49.5966 39.2603 49.7503 39.2536 49.7503 39.2536L49.8437 39.1535L50.0979 39.0397L50.2251 39.0263L50.5321 38.9395L50.7929 38.9661C50.7929 38.9661 51.0137 39.1268 51.0137 39.1134C51.0137 39.1001 51.0604 39.2004 51.0604 39.2004L51.0472 39.3271C51.0472 39.3271 51.1205 39.3872 51.127 39.3672C51.1339 39.3471 51.2076 39.267 51.2277 39.2469C51.2472 39.227 51.308 39.2004 51.3548 39.167C51.4013 39.1334 51.4145 39.1134 51.4145 39.1134C51.4145 39.1134 51.368 39.2469 51.3477 39.2469C51.3277 39.2469 51.2873 39.287 51.2673 39.3138C51.2473 39.3403 51.2143 39.3608 51.2143 39.3742C51.2143 39.3872 51.2543 39.3872 51.2738 39.3742C51.2942 39.3608 51.3277 39.3204 51.3548 39.3069C51.3812 39.2937 51.395 39.3004 51.3879 39.3338C51.3813 39.3672 51.3813 39.4003 51.3548 39.4137C51.3277 39.4272 51.2942 39.4471 51.2473 39.4741C51.201 39.501 51.1675 39.4806 51.1472 39.501C51.1271 39.5211 51.1605 39.5413 51.1739 39.5544C51.1873 39.5679 51.2211 39.6081 51.2473 39.5613C51.2738 39.5144 51.3081 39.4806 51.3277 39.4676C51.3477 39.4545 51.3879 39.4137 51.3879 39.4472C51.3879 39.4807 51.4083 39.5145 51.4145 39.5414C51.4215 39.5679 51.368 39.6213 51.3744 39.6346C51.3812 39.648 51.4484 39.7951 51.4484 39.7951C51.4484 39.7951 51.4884 39.8482 51.5349 39.8482C51.5818 39.8482 51.6817 39.8819 51.702 39.8889C51.7216 39.8952 51.8158 39.8889 51.8293 39.8619C51.8427 39.8351 51.9226 39.7816 51.9161 39.8016C51.9092 39.8217 51.9226 39.8619 51.9426 39.8819C51.9626 39.9019 51.996 39.9557 51.996 39.9557L52.2435 39.7615C52.2435 39.7615 52.4305 39.7213 52.4371 39.7415C52.444 39.7615 52.564 39.6081 52.564 39.6081L52.9449 39.1403L53.0925 39.0398L53.1992 38.886L53.3461 38.6183L53.4264 38.3183L53.4866 38.0909L53.3395 37.87L53.2797 37.6826ZM51.7957 40.176C51.7957 40.176 51.7023 40.1158 51.6885 40.0958V40.0757L51.622 40.2827L51.562 40.5036C51.562 40.5036 51.682 40.517 51.6954 40.5236C51.7088 40.53 51.9095 40.41 51.9164 40.3832C51.923 40.3563 52.0567 40.1359 52.0567 40.1359C52.0567 40.1359 51.843 40.1826 51.7957 40.176ZM55.4186 39.7884L55.3517 39.7211C55.3517 39.7211 55.3586 39.6278 55.3382 39.6278C55.3185 39.6278 55.2848 39.6345 55.2848 39.6345L55.3184 39.4002L55.1975 39.327L55.1712 39.6879L55.0841 39.8889L54.9108 39.9557C54.9108 39.9557 54.9842 40.029 55.0109 40.029C55.0374 40.029 54.9907 40.1092 54.9907 40.1092L54.8771 40.2095C54.8771 40.2095 54.8373 40.1893 54.8373 40.1359C54.8373 40.0822 54.7301 40.1893 54.7301 40.1893L54.6566 40.1424L54.456 40.3159L54.182 40.4566L53.5405 40.8512L53.6272 40.8979C53.6272 40.8979 53.7074 40.9313 53.7141 40.9448C53.7206 40.9579 53.9145 40.8578 53.9145 40.8578L54.1353 40.6971L54.2418 40.6038C54.2418 40.6038 54.4361 40.5503 54.4292 40.5771C54.4228 40.6038 54.4893 40.4501 54.4893 40.4501L54.6765 40.3499L54.7903 40.2364L54.8837 40.2627L55.0174 40.216L55.2447 40.0691L55.2847 39.9485L55.3585 39.9556L55.4985 39.8551L55.592 39.6947L55.4186 39.7884ZM28.4826 25.1306C28.536 25.1502 28.5693 25.1572 28.6832 25.1639C28.7969 25.1703 28.8103 25.1572 28.8637 25.1771C28.9167 25.1969 28.9637 25.231 28.9839 25.1835C29.0039 25.137 29.0306 25.137 29.0506 25.1102C29.0706 25.0835 29.0506 25.0567 29.0839 25.0434C29.1173 25.0301 29.1776 25.097 29.1776 25.097C29.1776 25.097 29.104 25.1438 29.1373 25.1502C29.1706 25.1572 29.2643 25.1771 29.3113 25.1835C29.3582 25.1905 29.3181 25.2036 29.3983 25.211C29.4783 25.2172 29.5118 25.2036 29.6119 25.2036C29.7122 25.2036 29.7727 25.1572 29.806 25.1703C29.8393 25.1835 29.9528 25.1835 29.9862 25.1771C30.0195 25.1703 30.1002 25.097 30.0665 25.097C30.0329 25.097 29.906 25.0634 29.8527 25.0568C29.7993 25.0502 29.6318 25.0435 29.5922 25.0635C29.5517 25.0836 29.505 25.0971 29.4783 25.0836C29.4516 25.0703 29.5922 24.9635 29.6855 24.9767C29.7793 24.9901 29.9194 24.9635 29.9662 24.9701C30.0129 24.9767 30.1269 24.9968 30.1269 24.9968C30.1269 24.9968 30.1534 24.9834 30.16 24.9635C30.1668 24.9434 30.1735 24.9234 30.1735 24.9234L30.2404 24.9834C30.2404 24.9834 30.6813 24.8031 30.7016 24.7695C30.7217 24.7358 31.002 24.6491 31.0427 24.656C31.0827 24.6624 31.3565 24.5423 31.4036 24.5623C31.4498 24.5823 31.6973 24.5024 31.6973 24.5024C31.6973 24.5024 31.8781 24.4622 31.9182 24.4622C31.9584 24.4622 31.9782 24.4155 31.9182 24.4221C31.8578 24.4288 31.3564 24.4288 31.2364 24.4221C31.1157 24.4155 30.8218 24.4219 30.7751 24.4288C30.7283 24.4355 30.4607 24.509 30.3472 24.5024C30.2335 24.4956 29.8661 24.5489 29.8461 24.5423C29.8258 24.5356 29.6791 24.5289 29.6926 24.5289C29.7056 24.5289 29.4983 24.6961 29.4649 24.6491C29.4316 24.6024 29.4649 24.569 29.4316 24.6024C29.3983 24.6357 29.4049 24.7896 29.4049 24.7896C29.4449 24.8165 29.5318 24.9099 29.5921 24.8699C29.652 24.8297 29.6855 24.8499 29.7056 24.8563C29.7254 24.8631 29.6122 24.95 29.5451 24.95C29.4783 24.95 29.2643 25.0302 29.2643 25.0302C29.2643 25.0302 29.1706 24.9433 29.1506 24.9367C29.1306 24.93 29.0172 24.9234 28.9971 24.9234C28.9772 24.9234 28.9503 24.9034 28.9437 24.9635C28.9371 25.0235 28.9503 25.117 28.8836 25.1037C28.8167 25.0902 28.7968 25.1169 28.7632 25.0971C28.7298 25.077 28.8102 24.9767 28.7161 24.9701C28.6226 24.9635 28.5692 24.8967 28.5158 25.0034C28.4623 25.1102 28.4293 25.1102 28.4826 25.1306ZM26.0631 25.5446C26.0428 25.5784 26.2365 25.5916 26.2498 25.565C26.2638 25.538 26.3839 25.558 26.4105 25.5182C26.4371 25.478 26.5706 25.3977 26.5907 25.4111C26.6107 25.4246 26.5507 25.4913 26.5306 25.4981C26.5105 25.5047 26.5978 25.5112 26.5105 25.5784C26.4239 25.6451 26.4439 25.7055 26.4439 25.7055C26.4439 25.7055 26.3704 25.7388 26.4239 25.7522C26.4773 25.7656 26.5775 25.8123 26.5775 25.8123C26.5775 25.8123 26.5841 25.859 26.5841 25.8724C26.5841 25.8858 26.6178 25.9259 26.6909 25.8791C26.7649 25.8323 26.9117 25.779 26.9318 25.799C26.9518 25.819 26.9988 25.7923 27.0658 25.7856C27.1323 25.779 27.186 25.7589 27.186 25.7589L27.2728 25.7723C27.313 25.7923 27.3465 25.7456 27.4136 25.7856C27.4801 25.8257 27.5735 25.8257 27.5735 25.8257C27.5735 25.8257 27.6673 25.7523 27.6872 25.7456C27.7073 25.7389 27.7473 25.7323 27.7273 25.6855C27.7073 25.6386 27.6338 25.5652 27.6538 25.5514C27.6738 25.5382 27.7205 25.5247 27.7139 25.3979C27.7073 25.271 27.7273 25.2912 27.6939 25.2978C27.6606 25.3045 27.5802 25.3446 27.5802 25.3446L27.5537 25.3379C27.5404 25.3779 27.4801 25.4047 27.4663 25.4448C27.4531 25.4848 27.4136 25.5048 27.4136 25.4715C27.4136 25.4381 27.3667 25.4313 27.3595 25.4046C27.3533 25.3778 27.2928 25.3846 27.2595 25.3912C27.226 25.3979 27.1323 25.3311 27.0988 25.3579C27.0658 25.3846 27.032 25.3446 27.0053 25.2844C26.9789 25.2244 26.9452 25.1773 26.9051 25.1838C26.865 25.1907 26.6178 25.1838 26.6178 25.1838L26.4707 25.1971C26.4707 25.1971 26.3907 25.2175 26.3907 25.2578C26.3907 25.2979 26.3772 25.3246 26.3372 25.3379C26.2969 25.3512 26.0029 25.4581 26.0029 25.4581C26.0029 25.4581 26.0832 25.5111 26.0631 25.5446ZM28.1617 25.3845L28.0882 25.371C28.0882 25.371 28.0816 25.3176 28.0616 25.3176C28.0409 25.3176 27.9813 25.3911 27.9813 25.3911C27.9813 25.3911 28.0684 25.4245 28.0817 25.4512C28.095 25.478 28.1283 25.5112 28.1283 25.5315C28.1283 25.5513 28.3488 25.4646 28.3488 25.4646L28.4695 25.4044C28.4695 25.4044 28.4757 25.4178 28.4828 25.3845C28.4895 25.3511 28.4695 25.3244 28.4828 25.3176C28.496 25.311 28.5495 25.2242 28.496 25.2375C28.4425 25.2506 28.3287 25.2375 28.2753 25.2575C28.2219 25.2776 28.1553 25.231 28.1619 25.2842C28.1684 25.3376 28.1617 25.3845 28.1617 25.3845ZM27.0922 25.0769C27.0922 25.0769 27.1189 25.1906 27.1726 25.1573C27.2259 25.1235 27.3795 25.2376 27.3795 25.2506C27.3795 25.2644 27.4328 25.2576 27.4328 25.2576L27.6671 25.1771L27.7978 25.1573C27.7978 25.1573 27.9211 25.1503 27.941 25.164C27.9608 25.1771 28.0616 25.1307 28.0616 25.1307L28.1015 25.0635L28.0145 25.0368L28.0348 24.97C28.0348 24.97 28.0079 24.9299 27.948 24.9766C27.8874 25.0234 27.7205 25.1168 27.7338 25.097C27.7472 25.0769 27.6672 25.1036 27.6337 25.0634C27.6001 25.0234 27.5535 25.0166 27.5535 25.0166C27.5535 25.0166 27.4595 24.9833 27.4265 24.9967C27.3929 25.01 27.4865 24.9299 27.4865 24.9299C27.4865 24.9299 27.5066 24.8563 27.4661 24.8631C27.4265 24.8699 27.0988 24.9433 27.0988 24.9433C27.0988 24.9433 26.9584 25.0234 26.9318 25.0033C26.9051 24.9833 26.8049 25.0166 26.8049 25.0166L26.8717 25.0567C26.8917 25.0367 27.0922 25.0769 27.0922 25.0769ZM28.5827 24.803C28.6027 24.8094 28.7633 24.8562 28.7833 24.863C28.8033 24.8698 28.8637 24.8831 28.89 24.8764C28.9167 24.8698 29.0237 24.8165 28.9839 24.7963C28.9437 24.7764 28.8166 24.7491 28.7899 24.7356C28.7632 24.7223 28.6628 24.716 28.6628 24.716L28.6026 24.729C28.5894 24.7491 28.5628 24.7964 28.5827 24.803ZM27.941 24.9166C27.9682 24.9033 28.0615 24.8631 28.0615 24.8631L28.1413 24.7964L28.1683 24.7626C28.1683 24.7626 28.1083 24.7095 28.0815 24.7291C28.0548 24.7492 27.914 24.8095 27.914 24.8095L27.9074 24.8563L27.7978 24.9033C27.7978 24.9033 27.9141 24.9299 27.941 24.9166ZM29.1444 24.8966C29.1707 24.9033 29.251 24.9033 29.2577 24.8832C29.2643 24.8631 29.2511 24.7224 29.2511 24.7224C29.2511 24.7224 29.2241 24.6826 29.1908 24.6893C29.1574 24.6959 29.0506 24.7491 29.0506 24.7491C29.0438 24.7694 29.1173 24.8899 29.1444 24.8966ZM27.4562 32.0197C27.4516 32.0049 27.3762 31.9803 27.3361 31.9803C27.296 31.9803 27.1506 31.8395 27.1408 31.8094C27.1304 31.7792 26.8049 31.6993 26.8049 31.6993C26.8049 31.6993 26.4489 31.6792 26.4489 31.6693C26.4489 31.6588 26.2784 31.8046 26.2784 31.8046V31.8195C26.2784 31.8195 26.293 31.8896 26.2987 31.9047C26.3034 31.9196 26.4138 31.8243 26.4238 31.7844C26.4338 31.7444 26.5139 31.7341 26.5339 31.724C26.5543 31.7143 26.5639 31.7646 26.5841 31.7646C26.6044 31.7646 26.6946 31.7944 26.6946 31.7944L26.875 31.8546L26.9452 31.9196C26.9452 31.9196 26.9751 32.0797 26.9751 32.1001C26.9751 32.1203 27.1105 32.1098 27.1105 32.1098L27.3762 32.0853C27.3761 32.0853 27.4616 32.0348 27.4562 32.0197ZM27.4466 32.3557C27.4713 32.3657 27.5113 32.3508 27.5316 32.3508C27.5519 32.3508 27.617 32.3358 27.617 32.3358C27.617 32.3358 27.637 32.3809 27.637 32.396C27.637 32.4108 27.7421 32.3908 27.7421 32.3757C27.7421 32.3606 27.7672 32.3206 27.7672 32.3206L27.8923 32.2956C27.8923 32.2956 28.063 32.3007 28.078 32.3007C28.0931 32.3007 28.1031 32.2706 28.0728 32.2155C28.043 32.1602 27.9574 32.1499 27.9374 32.1097C27.9173 32.0699 27.8223 32.0954 27.7971 32.1097C27.7721 32.1249 27.632 32.0752 27.5916 32.0752C27.5518 32.0752 27.5916 32.1202 27.5916 32.1202L27.5765 32.2655H27.4112L27.4061 32.2805C27.4061 32.2805 27.3609 32.2956 27.3609 32.3257C27.361 32.3557 27.4212 32.3457 27.4466 32.3557Z" fill="#1E6252"/>
<line x1="40.968" y1="20.6441" x2="39.252" y2="48.7699" stroke="#1E6252" stroke-width="0.65"/>
<line x1="28.3741" y1="17.3363" x2="26.5054" y2="46.5637" stroke="#1E6252" stroke-width="0.65"/>
<rect x="44.2734" y="22.2065" width="1.07767" height="9.49175" fill="#FBFBFB"/>
<rect x="44.2734" y="22.2065" width="0.538833" height="9.49175" fill="#ABABAB"/>
<circle cx="44.8124" cy="19.9268" r="2.61127" fill="#E30808"/>
<circle cx="44.3563" cy="19.388" r="1.57505" fill="url(#paint2_linear_897_92182)"/>
<defs>
<filter id="filter0_d_897_92182" x="0" y="0.751221" width="72.5625" height="72.5629" filterUnits="userSpaceOnUse" color-interpolation-filters="sRGB">
<feFlood flood-opacity="0" result="BackgroundImageFix"/>
<feColorMatrix in="SourceAlpha" type="matrix" values="0 0 0 0 0 0 0 0 0 0 0 0 0 0 0 0 0 0 127 0" result="hardAlpha"/>
<feOffset dy="4"/>
<feGaussianBlur stdDeviation="2"/>
<feComposite in2="hardAlpha" operator="out"/>
<feColorMatrix type="matrix" values="0 0 0 0 0 0 0 0 0 0 0 0 0 0 0 0 0 0 0.25 0"/>
<feBlend mode="normal" in2="BackgroundImageFix" result="effect1_dropShadow_897_92182"/>
<feBlend mode="normal" in="SourceGraphic" in2="effect1_dropShadow_897_92182" result="shape"/>
</filter>
<linearGradient id="paint0_linear_897_92182" x1="36.2815" y1="0.751221" x2="36.2815" y2="65.3141" gradientUnits="userSpaceOnUse">
<stop stop-color="#01A491"/>
<stop offset="1" stop-color="#05BBA6"/>
</linearGradient>
<linearGradient id="paint1_linear_897_92182" x1="36.5" y1="-2.87695" x2="31" y2="49.623" gradientUnits="userSpaceOnUse">
<stop stop-color="white"/>
<stop offset="1" stop-color="white" stop-opacity="0"/>
</linearGradient>
<linearGradient id="paint2_linear_897_92182" x1="42.7812" y1="17.813" x2="44.3563" y2="20.9631" gradientUnits="userSpaceOnUse">
<stop stop-color="#FFB4B4"/>
<stop offset="1" stop-color="#FFB4B4" stop-opacity="0"/>
</linearGradient>
</defs>
</svg>
