<svg width="14" height="15" viewBox="0 0 14 15" fill="none" xmlns="http://www.w3.org/2000/svg">
<path d="M2.35468 13.5967C1.83115 14.1244 0.965058 14.1412 0.420213 13.6341C-0.124633 13.1271 -0.141913 12.2882 0.381616 11.7605L5.10262 7.00185L0.381645 2.24322C-0.141884 1.71551 -0.124604 0.87667 0.420242 0.369611C0.965087 -0.137449 1.83118 -0.120712 2.35471 0.406993L7 5.08934L11.6453 0.406993C12.1688 -0.120712 13.0349 -0.137449 13.5798 0.369611C14.1246 0.87667 14.1419 1.71551 13.6184 2.24322L8.89738 7.00185L13.6184 11.7605C14.1419 12.2882 14.1246 13.1271 13.5798 13.6341C13.0349 14.1412 12.1689 14.1244 11.6453 13.5967L7 8.91436L2.35468 13.5967Z" fill="#0B1C24"/>
</svg>
