<svg width="24" height="28" viewBox="0 0 24 28" fill="none" xmlns="http://www.w3.org/2000/svg">
<path fill-rule="evenodd" clip-rule="evenodd" d="M4.50753 5.36755V22.486L3.56871 24.2793L2.62989 22.486V5.36755C2.24842 5.08168 2.00171 4.62643 2.00171 4.11301C2.00171 3.2475 2.70309 2.5459 3.56864 2.5459C4.43415 2.5459 5.13575 3.2475 5.13575 4.11301C5.13575 4.62643 4.88904 5.08168 4.50753 5.36755Z" fill="#656565"/>
<mask id="mask0_880_91702" style="mask-type:alpha" maskUnits="userSpaceOnUse" x="2" y="2" width="4" height="23">
<path fill-rule="evenodd" clip-rule="evenodd" d="M4.50753 5.36755V22.486L3.56871 24.2793L2.62989 22.486V5.36755C2.24842 5.08168 2.00171 4.62643 2.00171 4.11301C2.00171 3.2475 2.70309 2.5459 3.56864 2.5459C4.43415 2.5459 5.13575 3.2475 5.13575 4.11301C5.13575 4.62643 4.88904 5.08168 4.50753 5.36755Z" fill="#656565"/>
</mask>
<g mask="url(#mask0_880_91702)">
<path fill-rule="evenodd" clip-rule="evenodd" d="M5.4233 5.36755V22.486L4.48448 24.2793L3.54566 22.486V5.36755C3.16419 5.08168 2.91748 4.62643 2.91748 4.11301C2.91748 3.2475 3.61886 2.5459 4.48441 2.5459C5.34993 2.5459 6.05152 3.2475 6.05152 4.11301C6.05152 4.62643 5.80481 5.08168 5.4233 5.36755Z" fill="#474545"/>
</g>
<path fill-rule="evenodd" clip-rule="evenodd" d="M4.4845 5.34401C12.967 -0.519731 13.6713 11.0666 22.0017 3.82072V15.6455C14.0564 22.7898 12.2717 11.2654 4.4845 17.1318V5.34401Z" fill="url(#paint0_linear_880_91702)"/>
<path d="M5.74654 3.862C5.62201 2.76953 4.69445 1.9209 3.56864 1.9209C2.3578 1.9209 1.37671 2.90242 1.37671 4.11301C1.37671 4.71169 1.61702 5.25391 2.00489 5.64879V22.486V22.6397L2.07617 22.7758L3.015 24.5691L3.56871 25.6268L4.12242 24.5691L5.06124 22.7758L5.13253 22.6397V22.486V17.4318C6.79786 16.2453 8.10391 15.9521 9.21403 16.0408C10.4171 16.137 11.4782 16.6823 12.6624 17.3008L12.7152 17.3284C13.9245 17.9602 15.2757 18.6661 16.8632 18.6914C18.5105 18.7176 20.2966 18.0193 22.4197 16.1102L22.6268 15.924V15.6455V3.82072V2.44873L21.5916 3.34915C19.5112 5.15873 18.0155 5.67581 16.8296 5.66663C15.6175 5.65725 14.6004 5.10692 13.4053 4.44445L13.3638 4.42145C12.3019 3.83269 11.0997 3.16612 9.6391 3.024C8.48164 2.91137 7.2128 3.12907 5.74654 3.862Z" stroke="white" stroke-width="1.25"/>
<defs>
<linearGradient id="paint0_linear_880_91702" x1="13.2431" y1="3.62109" x2="17.5576" y2="22.1686" gradientUnits="userSpaceOnUse">
<stop stop-color="#FF7235"/>
<stop offset="1" stop-color="#D00D01"/>
</linearGradient>
</defs>
</svg>
