<svg height="38" viewBox="0 0 38 38" width="38" xmlns="http://www.w3.org/2000/svg"><g fill="none" fill-rule="nonzero"><path d="m18.2139 7.88118c.4003-.50918 1.1718-.50919 1.5722 0l7.568 9.62462c.5159.6561.0485 1.6181-.7861 1.6181h-5.501v5.752h5.501c.8346 0 1.302.962.7861 1.6181l-7.5679 9.6246c-.4004.5092-1.1718.5092-1.5722 0l-7.56802-9.6246c-.51588-.6561-.04852-1.6181.78609-1.6181h5.26473v-5.752h-5.26476c-.8346 0-1.30197-.962-.78609-1.6181z" fill="#271238" fill-opacity=".7"/><path d="m18.2139 3.88118c.4003-.50918 1.1718-.50919 1.5722 0l7.568 9.62462c.5159.6561.0485 1.6181-.7861 1.6181h-5.501v5.752h5.501c.8346 0 1.302.962.7861 1.6181l-7.5679 9.6246c-.4004.5092-1.1718.5092-1.5722 0l-7.56802-9.6246c-.51588-.6561-.04852-1.6181.78609-1.6181h5.26473v-5.752h-5.26476c-.8346 0-1.30197-.962-.78609-1.6181z" fill="#FF4C00" stroke="#F8752B" stroke-width="2"/></g></svg>