<svg width="32" height="33" viewBox="0 0 32 33" fill="none" xmlns="http://www.w3.org/2000/svg">
<path d="M30.1187 19.7139C30.6279 20.1142 30.6279 20.8857 30.1187 21.2861L20.4941 28.8541C19.838 29.37 18.876 28.9026 18.876 28.068V22.567H13.124V28.068C13.124 28.9026 12.162 29.37 11.5059 28.8541L1.88128 21.2862C1.3721 20.8858 1.37209 20.1144 1.88127 19.714L11.5059 12.146C12.162 11.6301 13.124 12.0975 13.124 12.9321V18.1968H18.876V12.932C18.876 12.0974 19.838 11.6301 20.4941 12.1459L30.1187 19.7139Z" fill="#271238" fill-opacity="0.7"/>
<path d="M30.1187 15.7139C30.6279 16.1142 30.6279 16.8857 30.1187 17.2861L20.4941 24.8541C19.838 25.37 18.876 24.9026 18.876 24.068V18.567H13.124V24.068C13.124 24.9026 12.162 25.37 11.5059 24.8541L1.88128 17.2862C1.3721 16.8858 1.37209 16.1144 1.88127 15.714L11.5059 8.14598C12.162 7.6301 13.124 8.09746 13.124 8.93207V14.1968H18.876V8.93204C18.876 8.09744 19.838 7.63007 20.4941 8.14595L30.1187 15.7139Z" fill="url(#paint0_linear_708_53266)"/>
<path fill-rule="evenodd" clip-rule="evenodd" d="M21.1122 7.35976C19.8 6.32801 17.876 7.26275 17.876 8.93195V13.1967H14.124V8.93198C14.124 7.26276 12.1999 6.32804 10.8878 7.3598L1.26316 14.9278C0.244793 15.7286 0.244803 17.2714 1.26317 18.0722L10.8878 25.6401C12.1999 26.6719 14.124 25.7371 14.124 24.0679V19.5669H17.876V24.0679C17.876 25.7371 19.8 26.6718 21.1122 25.6401L30.7368 18.072C31.7552 17.2713 31.7552 15.7284 30.7368 14.9277L21.1122 7.35976ZM21.1122 8.93198C19.9375 8.15625 18.9688 8.93195 18.9688 10.7815V13.8438L20.6562 14.246H19.1406H13.2031H11.2188L13.0391 13.6797V9.5445C13.0391 8.76788 12.1142 8.22787 11.2188 8.93198L2.56249 15.4272C1.86753 15.9737 1.86753 17.0266 2.5625 17.5731L10.8878 23.625C12 24.6875 13.3203 23.8125 13.0391 21.6649L13.0391 19.0078L11.2188 18.4844H13.2031H19.1797H20.6562L18.9688 19.0078V21.6649C18.9688 24.0679 20.1296 24.755 21.5256 23.6491L29.5625 17.5312C30.5625 16.7812 30.2575 15.859 29.5625 15.3125L21.1122 8.93198Z" fill="#181022"/>
<defs>
<linearGradient id="paint0_linear_708_53266" x1="16" y1="7.93018" x2="16" y2="25.0699" gradientUnits="userSpaceOnUse">
<stop stop-color="#3F78CC"/>
<stop offset="1" stop-color="#0D2F76"/>
</linearGradient>
</defs>
</svg>
