<svg width="304" height="304" viewBox="0 0 304 304" fill="none" xmlns="http://www.w3.org/2000/svg">
<g clip-path="url(#clip0_537_8067)">
<path d="M152 304C235.947 304 304 235.947 304 152C304 68.0527 235.947 0 152 0C68.0527 0 0 68.0527 0 152C0 235.947 68.0527 304 152 304Z" fill="url(#paint0_radial_537_8067)"/>
</g>
<g clip-path="url(#clip1_537_8067)">
<path d="M85.9602 174.201C91.7602 181.201 100.16 194.301 107.16 217.101C108.56 221.701 112.76 224.901 117.66 225.001C117.76 225.001 117.86 225.001 117.96 225.001C122.66 225.001 126.96 222.001 128.56 217.601C128.86 216.801 158.06 137.001 225.56 117.101C231.56 115.301 235.16 109.001 233.36 103.001C231.56 97.1008 225.36 93.8008 219.46 95.5008C201.06 100.901 183.76 110.301 167.86 123.601C155.26 134.001 143.66 146.901 133.26 161.701C127.46 170.001 122.66 178.001 118.86 185.101C113.86 174.501 108.66 166.601 103.76 160.601C95.7602 150.801 80.2602 153.101 75.4602 164.701C75.4602 164.701 75.3602 164.701 75.1602 164.601C75.3602 164.601 79.8602 166.801 85.9602 174.201Z" fill="url(#paint1_linear_537_8067)"/>
<path fill-rule="evenodd" clip-rule="evenodd" d="M107.86 216.899C109.16 221.199 113.16 224.199 117.66 224.299H117.96C122.36 224.299 126.36 221.499 127.86 217.299C128.06 216.899 135.46 196.599 151.26 173.999C166.96 151.399 191.26 126.399 225.26 116.299C230.86 114.599 234.26 108.699 232.56 103.099C230.86 97.5992 225.06 94.4992 219.56 96.0992C201.26 101.399 184.06 110.899 168.26 124.099L167.76 123.499C183.66 110.199 200.96 100.799 219.36 95.3992C225.26 93.6992 231.46 96.9992 233.26 102.899C235.06 108.899 231.46 115.199 225.46 116.999C157.96 136.899 128.76 216.699 128.46 217.499C126.86 221.999 122.66 224.899 117.86 224.899H117.56C112.76 224.799 108.46 221.599 107.06 216.999C100.06 194.299 91.6602 181.199 85.8602 174.099C81.3602 168.599 77.6602 165.999 76.0602 164.999C75.7602 164.799 75.5602 164.699 75.4602 164.599C75.3602 164.499 75.2602 164.499 75.2602 164.499C75.2602 164.499 75.2602 164.499 75.1602 164.499H75.2602C75.3602 164.599 75.4602 164.599 75.4602 164.599C75.5602 164.399 75.6602 164.199 75.7602 163.999C80.9602 152.999 95.9602 150.999 103.76 160.599C108.46 166.399 113.56 174.099 118.46 184.299C118.56 184.599 118.76 184.799 118.86 185.099C118.96 184.799 119.16 184.599 119.26 184.299C122.96 177.499 127.66 169.699 133.26 161.699C143.66 146.899 155.26 133.999 167.76 123.599L168.26 124.199C155.86 134.599 144.26 147.399 133.86 162.199C128.06 170.499 123.26 178.499 119.46 185.499L118.76 186.799L118.26 185.399C113.26 174.899 108.06 166.899 103.26 160.999C95.7602 151.799 81.2602 153.799 76.4602 164.399C77.0602 164.699 77.7602 165.299 78.7602 165.999C80.7602 167.499 83.4602 169.999 86.5602 173.699C92.4602 180.899 100.86 194.099 107.86 216.899Z" fill="url(#paint2_linear_537_8067)"/>
</g>
<defs>
<radialGradient id="paint0_radial_537_8067" cx="0" cy="0" r="1" gradientUnits="userSpaceOnUse" gradientTransform="translate(155.009 150.005) rotate(90) scale(162.74)">
<stop stop-color="#FFCB13" stop-opacity="0.5"/>
<stop offset="0.74" stop-color="#A53C94" stop-opacity="0"/>
</radialGradient>
<linearGradient id="paint1_linear_537_8067" x1="154.504" y1="95.0008" x2="154.504" y2="268.825" gradientUnits="userSpaceOnUse">
<stop stop-color="#88FF68"/>
<stop offset="1" stop-color="#1F5F0E"/>
</linearGradient>
<linearGradient id="paint2_linear_537_8067" x1="205.682" y1="201.007" x2="112.198" y2="92.9169" gradientUnits="userSpaceOnUse">
<stop/>
<stop offset="1" stop-opacity="0"/>
</linearGradient>
<clipPath id="clip0_537_8067">
<rect width="304" height="304" fill="white"/>
</clipPath>
<clipPath id="clip1_537_8067">
<rect width="165" height="136" fill="white" transform="translate(72.2617 95)"/>
</clipPath>
</defs>
</svg>
