<svg width="305" height="305" viewBox="0 0 305 305" fill="none" xmlns="http://www.w3.org/2000/svg">
<circle cx="152.527" cy="152.285" r="152" fill="url(#paint0_radial_529_8081)"/>
<g filter="url(#filter0_d_529_8081)">
<path d="M83.5103 174.512C89.321 181.522 97.7111 194.644 104.682 217.362C106.098 221.981 110.319 225.176 115.155 225.285C115.241 225.285 115.329 225.285 115.414 225.285C120.147 225.285 124.383 222.316 125.979 217.846C126.265 217.043 155.495 137.253 223.012 117.318C229.002 115.551 232.624 109.177 230.79 103.21C228.993 97.3503 222.808 94.0127 216.903 95.7408C198.548 101.12 181.192 110.576 165.317 123.851C152.812 134.305 141.203 147.138 130.812 161.989C124.986 170.316 120.208 178.327 116.407 185.349C111.4 174.776 106.171 166.814 101.326 160.857C93.3744 151.078 77.858 153.336 73.0645 164.989C73.0645 164.989 72.967 164.955 72.7812 164.867C72.8361 164.894 77.389 167.127 83.5103 174.512Z" fill="url(#paint1_linear_529_8081)"/>
<path d="M105.031 217.255L105.031 217.255C106.401 221.722 110.482 224.812 115.16 224.92H115.16H115.16H115.161H115.161H115.162H115.162H115.163H115.163H115.164H115.164H115.165H115.165H115.166H115.166H115.167H115.167H115.168H115.168H115.169H115.169H115.17H115.17H115.171H115.171H115.172H115.172H115.173H115.173H115.174H115.174H115.175H115.175H115.176H115.176H115.177H115.177H115.178H115.178H115.179H115.179H115.18H115.18H115.181H115.181H115.182H115.182H115.183H115.183H115.184H115.184H115.185H115.185H115.186H115.186H115.187H115.187H115.188H115.188H115.189H115.189H115.19H115.19H115.191H115.191H115.192H115.192H115.193H115.193H115.194H115.194H115.195H115.195H115.196H115.196H115.197H115.198H115.198H115.199H115.199H115.2H115.2H115.201H115.201H115.202H115.202H115.203H115.203H115.204H115.204H115.205H115.205H115.206H115.206H115.207H115.207H115.208H115.208H115.209H115.209H115.21H115.21H115.211H115.211H115.212H115.212H115.213H115.213H115.214H115.214H115.215H115.215H115.216H115.216H115.217H115.217H115.218H115.218H115.219H115.219H115.22H115.22H115.221H115.221H115.222H115.222H115.223H115.223H115.224H115.224H115.225H115.225H115.226H115.226H115.227H115.227H115.228H115.228H115.229H115.229H115.23H115.23H115.231H115.231H115.232H115.232H115.233H115.233H115.234H115.234H115.235H115.235H115.236H115.236H115.237H115.237H115.238H115.239H115.239H115.24H115.24H115.241H115.241H115.242H115.242H115.243H115.243H115.244H115.244H115.245H115.245H115.246H115.246H115.247H115.247H115.248H115.248H115.249H115.249H115.25H115.25H115.251H115.251H115.252H115.252H115.253H115.253H115.254H115.254H115.255H115.255H115.256H115.256H115.257H115.257H115.258H115.258H115.259H115.259H115.26H115.26H115.261H115.261H115.262H115.262H115.263H115.263H115.264H115.264H115.265H115.265H115.266H115.266H115.267H115.267H115.268H115.268H115.269H115.269H115.27H115.271H115.271H115.272H115.272H115.273H115.273H115.274H115.274H115.275H115.275H115.276H115.276H115.277H115.277H115.278H115.278H115.279H115.279H115.28H115.28H115.281H115.281H115.282H115.282H115.283H115.283H115.284H115.284H115.285H115.285H115.286H115.286H115.287H115.287H115.288H115.288H115.289H115.289H115.29H115.29H115.291H115.291H115.292H115.292H115.293H115.293H115.294H115.294H115.295H115.295H115.296H115.296H115.297H115.297H115.298H115.298H115.299H115.299H115.3H115.301H115.301H115.302H115.302H115.303H115.303H115.304H115.304H115.305H115.305H115.306H115.306H115.307H115.307H115.308H115.308H115.309H115.309H115.31H115.31H115.311H115.311H115.312H115.312H115.313H115.313H115.314H115.314H115.315H115.315H115.316H115.316H115.317H115.317H115.318H115.318H115.319H115.319H115.32H115.32H115.321H115.321H115.322H115.322H115.323H115.323H115.324H115.324H115.325H115.325H115.326H115.326H115.327H115.327H115.328H115.328H115.329H115.329H115.33H115.33H115.331H115.332H115.332H115.333H115.333H115.334H115.334H115.335H115.335H115.336H115.336H115.337H115.337H115.338H115.338H115.339H115.339H115.34H115.34H115.341H115.341H115.342H115.342H115.343H115.343H115.344H115.344H115.345H115.345H115.346H115.346H115.347H115.347H115.348H115.348H115.349H115.349H115.35H115.35H115.351H115.351H115.352H115.352H115.353H115.353H115.354H115.354H115.355H115.355H115.356H115.356H115.357H115.357H115.358H115.358H115.359H115.359H115.36H115.36H115.361H115.361H115.362H115.362H115.363H115.363H115.364H115.364H115.365H115.365H115.366H115.366H115.367H115.367H115.368H115.368H115.369H115.369H115.37H115.37H115.371H115.371H115.372H115.372H115.373H115.374H115.374H115.375H115.375H115.376H115.376H115.377H115.377H115.378H115.378H115.379H115.379H115.38H115.38H115.381H115.381H115.382H115.382H115.383H115.383H115.384H115.384H115.385H115.385H115.386H115.386H115.387H115.387H115.388H115.388H115.389H115.389H115.39H115.39H115.391H115.391H115.392H115.392H115.393H115.393H115.394H115.394H115.395H115.395H115.396H115.396H115.397H115.397H115.398H115.398H115.399H115.399H115.4H115.4H115.401H115.401H115.402H115.402H115.403H115.403H115.404H115.404H115.405H115.405H115.406H115.406H115.407H115.407H115.408H115.408H115.409H115.409H115.41H115.41H115.411H115.411H115.412H115.412H115.413H115.413H115.414H115.414C119.993 224.92 124.091 222.047 125.635 217.724L105.031 217.255ZM105.031 217.255C98.0474 194.495 89.6356 181.329 83.7914 174.279L83.5103 174.512M105.031 217.255L83.5103 174.512M83.5103 174.512L83.7914 174.279C80.7138 170.566 78.0261 168.143 76.0949 166.642C75.1294 165.892 74.3533 165.372 73.8123 165.037C73.7041 164.969 73.6052 164.91 73.5161 164.857M83.5103 174.512L73.5161 164.857M73.5161 164.857C78.331 153.697 93.327 151.599 101.043 161.087L101.326 160.857L101.043 161.087C105.868 167.02 111.082 174.958 116.077 185.505L116.385 186.156L116.728 185.523C120.523 178.511 125.294 170.512 131.111 162.198C141.486 147.371 153.074 134.562 165.551 124.131L165.338 123.877L165.551 124.131C181.391 110.886 198.703 101.455 217.006 96.0913C222.719 94.4192 228.703 97.6487 230.441 103.317L230.441 103.317C232.212 109.08 228.714 115.255 222.909 116.968L223.012 117.318L73.5161 164.857Z" stroke="url(#paint2_linear_529_8081)" stroke-width="0.730341"/>
</g>
<defs>
<filter id="filter0_d_529_8081" x="69.8599" y="95.2852" width="164.331" height="135.843" filterUnits="userSpaceOnUse" color-interpolation-filters="sRGB">
<feFlood flood-opacity="0" result="BackgroundImageFix"/>
<feColorMatrix in="SourceAlpha" type="matrix" values="0 0 0 0 0 0 0 0 0 0 0 0 0 0 0 0 0 0 127 0" result="hardAlpha"/>
<feOffset dy="2.92136"/>
<feGaussianBlur stdDeviation="1.46068"/>
<feComposite in2="hardAlpha" operator="out"/>
<feColorMatrix type="matrix" values="0 0 0 0 0 0 0 0 0 0 0 0 0 0 0 0 0 0 0.25 0"/>
<feBlend mode="normal" in2="BackgroundImageFix" result="effect1_dropShadow_529_8081"/>
<feBlend mode="normal" in="SourceGraphic" in2="effect1_dropShadow_529_8081" result="shape"/>
</filter>
<radialGradient id="paint0_radial_529_8081" cx="0" cy="0" r="1" gradientUnits="userSpaceOnUse" gradientTransform="translate(152.527 152.285) rotate(93.4682) scale(165.303)">
<stop stop-color="#FFCB13" stop-opacity="0.5"/>
<stop offset="1" stop-color="#AC5B9F" stop-opacity="0"/>
</radialGradient>
<linearGradient id="paint1_linear_529_8081" x1="152.025" y1="95.2852" x2="152.025" y2="269.109" gradientUnits="userSpaceOnUse">
<stop stop-color="#88FF68"/>
<stop offset="1" stop-color="#1F5F0E"/>
</linearGradient>
<linearGradient id="paint2_linear_529_8081" x1="217.681" y1="188.771" x2="124.197" y2="80.6808" gradientUnits="userSpaceOnUse">
<stop/>
<stop offset="1" stop-opacity="0"/>
</linearGradient>
</defs>
</svg>
