<svg width="44" height="48" viewBox="0 0 44 48" fill="none" xmlns="http://www.w3.org/2000/svg">
<path d="M17.6119 32.8323C17.9302 33.7062 18.9191 36.4187 19.9214 36.8344C21.0272 26.9092 20.7033 18.5689 19.9214 10.1401C19.6608 8.73536 19.7576 5.89773 22.2301 5.78535C24.7026 5.67296 25.3207 7.51778 25.3207 8.45424C25.3206 18.007 25.2668 26.0677 24.0897 37.604C25.0368 36.1326 26.1264 33.9465 27.3105 32.7277C28.567 31.4347 32.0953 33.6243 30.988 35.0117C28.6098 37.5917 26.3178 40.8594 24.0897 44.6375C23.8269 45.1678 23.4515 45.3665 22.9932 45.3205C22.3947 45.2604 21.7769 44.8875 21.1765 44.3435C18.5354 41.9508 15.6827 38.4661 14.3868 35.1495C13.8247 33.7109 13.4237 32.4806 13.528 32.1481C13.7914 31.3084 16.807 30.6467 17.6119 32.8323Z" fill="white" stroke="black" stroke-width="0.840324"/>
</svg>
