<svg width="51" height="46" viewBox="0 0 51 46" fill="none" xmlns="http://www.w3.org/2000/svg">
<path fill-rule="evenodd" clip-rule="evenodd" d="M37.7988 27.4151C35.8985 27.5983 32.5702 26.9229 31.5887 26.8961C29.1306 26.8377 28.6092 30.0551 29.3313 30.6397C29.6172 30.8712 30.9808 30.9553 32.6113 30.962C36.3705 30.9775 42.2836 30.7624 45.6581 29.0986C46.4252 28.7204 47.0313 28.2587 47.3225 27.6944C47.5457 27.2624 47.4964 26.8167 47.0779 26.3528C44.2339 22.6985 41.9159 19.1795 40.3064 15.843C39.3743 14.2172 35.8548 16.8309 36.6363 18.5665C37.373 20.2022 38.4324 21.7185 39.5092 23.2196C28.6408 17.5847 17.3465 16.8409 7.12876 19.8518C1.82752 21.414 2.28255 21.7709 1.20503 23.5578C1.67796 25.4674 2.0768 25.9058 9.99063 23.8776C18.8231 21.6141 28.4844 22.4758 37.7988 27.4151Z" fill="white"/>
<path fill-rule="evenodd" clip-rule="evenodd" d="M31.5896 26.8961C31.9137 26.905 32.4936 26.9845 33.1935 27.0805C33.8723 27.1737 34.6638 27.2822 35.4443 27.3568C36.2964 27.4382 37.1353 27.4791 37.7997 27.4151C37.1045 27.0464 36.4074 26.7005 35.7088 26.3769C27.0477 22.3645 18.1647 21.783 9.99146 23.8776C2.07762 25.9058 1.67879 25.4674 1.20585 23.5578C1.3436 23.3293 1.45631 23.1243 1.55919 22.9371C2.26111 21.6599 2.50606 21.2143 7.12958 19.8518C16.7636 17.0129 27.3546 17.5119 37.6433 22.3015C38.2668 22.5917 38.8891 22.8977 39.5101 23.2196C39.105 22.6549 38.7024 22.0881 38.3185 21.5136C37.6819 20.5608 37.0967 19.5869 36.6371 18.5665C35.8556 16.8309 39.3751 14.2172 40.3072 15.843C41.9167 19.1795 44.2347 22.6984 47.0787 26.3528C47.4973 26.8167 47.5465 27.2624 47.3234 27.6944C47.0321 28.2586 46.426 28.7204 45.6589 29.0986C42.2844 30.7624 36.3713 30.9775 32.6121 30.962C30.9816 30.9552 29.618 30.8712 29.3322 30.6397C28.6101 30.0551 29.1314 26.8377 31.5896 26.8961ZM46.1011 29.9955C44.2536 30.9065 41.7903 31.3908 39.3887 31.6541C36.9651 31.9198 34.5047 31.9698 32.608 31.962L32.608 31.962C31.7821 31.9586 31.0018 31.9357 30.3807 31.8813C30.0721 31.8543 29.7797 31.8177 29.5309 31.7655C29.3389 31.7253 28.9804 31.6416 28.7028 31.4168C28.1725 30.9874 28.0523 30.2939 28.0353 29.8371C28.0155 29.308 28.1167 28.7142 28.3395 28.156C28.7878 27.0331 29.8377 25.8542 31.6133 25.8964L31.6168 25.8965C31.7193 25.8993 31.8371 25.9073 31.9659 25.9191C24.5887 23.2671 17.1515 23.075 10.2397 24.8463C8.25574 25.3548 6.7205 25.7145 5.52856 25.9351C4.35248 26.1528 3.43808 26.2498 2.72604 26.191C1.97736 26.1292 1.34325 25.8839 0.891472 25.332C0.500242 24.8542 0.346485 24.2476 0.235178 23.7982L0.135597 23.3961L0.349501 23.0414C0.472758 22.837 0.574927 22.6517 0.675967 22.4679C0.679963 22.4606 0.683971 22.4534 0.687991 22.446C0.782159 22.2747 0.882821 22.0915 0.990654 21.9176C1.23156 21.5291 1.52132 21.1641 1.98745 20.8178C2.83881 20.1853 4.23048 19.6636 6.84693 18.8926C16.2748 16.1145 26.5943 16.4627 36.665 20.7696C36.3212 20.189 36.0024 19.5923 35.7253 18.9771L35.7253 18.977C35.3633 18.1731 35.5413 17.3535 35.8575 16.7286C36.1752 16.1007 36.6848 15.5486 37.2335 15.1413C37.7744 14.7398 38.4471 14.4099 39.1341 14.3433C39.8697 14.2719 40.6988 14.5155 41.1748 15.3456L41.1925 15.3765L41.2079 15.4085C42.7726 18.6522 45.0389 22.101 47.8477 25.7127C48.136 26.0404 48.355 26.4271 48.4284 26.8733C48.5056 27.3425 48.4053 27.7788 48.2119 28.1532C47.7734 29.0026 46.9343 29.5848 46.1011 29.9955Z" fill="black"/>
</svg>
