<svg xmlns="http://www.w3.org/2000/svg" xmlns:xlink="http://www.w3.org/1999/xlink" width="50" height="50"><defs><linearGradient id="b" x1="50.903%" x2="51.042%" y1="26.296%" y2="76.481%"><stop offset="0%" stop-color="#6A69BE"/><stop offset="64.583%" stop-color="#A298E2"/><stop offset="100%" stop-color="#D898E2"/></linearGradient><linearGradient id="c" x1="49.975%" x2="50%" y1="49.608%" y2="52.722%"><stop offset="0%" stop-color="#2A2748"/><stop offset="100%" stop-color="#2A2748" stop-opacity="0"/></linearGradient><linearGradient id="d" x1="49.317%" x2="49.07%" y1="49.2%" y2="54.134%"><stop offset="0%" stop-color="#5E88A0"/><stop offset="100%" stop-color="#5E88A0" stop-opacity="0"/></linearGradient><linearGradient id="e" x1="49.975%" x2="50%" y1="49.608%" y2="52.722%"><stop offset="0%" stop-color="#2A2748"/><stop offset="100%" stop-color="#2A2748" stop-opacity="0"/></linearGradient><linearGradient id="f" x1="50.001%" x2="50.001%" y1="0%" y2="100%"><stop offset="0%" stop-color="#88EBFE"/><stop offset="100%" stop-color="#8CFAF5"/></linearGradient><linearGradient id="g" x1="49.999%" x2="49.999%" y1="0%" y2="100%"><stop offset="0%" stop-color="#88EBFE"/><stop offset="100%" stop-color="#8CFAF5"/></linearGradient><linearGradient id="h" x1="55.104%" x2="55.073%" y1="-52.043%" y2="136.874%"><stop offset="0%" stop-color="#2D0047"/><stop offset="100%" stop-color="#34312F"/></linearGradient><linearGradient id="m" x1="2.801%" x2="27.454%" y1="-30.834%" y2="111.119%"><stop offset="0%" stop-color="#FFF"/><stop offset="100%" stop-color="#FFF" stop-opacity="0"/></linearGradient><linearGradient id="r" x1="50%" x2="50%" y1="0%" y2="100%"><stop offset="0%" stop-color="#02005F"/><stop offset="100%" stop-color="#250854"/></linearGradient><circle id="a" cx="25.92" cy="25" r="25"/><circle id="i" cx="25" cy="25" r="25"/><circle id="k" cx="25" cy="25" r="25"/><circle id="n" cx="25" cy="25" r="25"/><circle id="p" cx="25" cy="25" r="25"/></defs><g fill="none" fill-rule="evenodd"><g fill-rule="nonzero"><path fill="url(#b)" d="M49 25h125.625v83.75H49z" transform="translate(-104 -25)"/><path fill="url(#c)" d="M166.875 20.975c-1.756 0-3.444.3-5.016.844-2.77-3.984-7.38-6.594-12.6-6.594-5.518 0-10.357 2.914-13.058 7.289a15.268 15.268 0 0 0-6.695-1.534c-.077 0-.155 0-.232.005a15.298 15.298 0 0 0-10.694-4.346c-5.9 0-11.017 3.333-13.584 8.214a15.348 15.348 0 0 0-4.563-.69c-3.227 0-6.218.999-8.688 2.697-2.108-5.957-7.785-10.221-14.461-10.221-5.543 0-10.395 2.942-13.092 7.346a15.265 15.265 0 0 0-9.768-3.512c-1.587 0-3.12.242-4.563.69-2.47-5.16-7.737-8.726-13.84-8.726a15.297 15.297 0 0 0-11.2 4.863 15.279 15.279 0 0 0-8.987-2.909C7.364 14.391.495 21.26.495 29.73s6.869 15.338 15.34 15.338c4.418 0 8.402-1.871 11.2-4.862a15.278 15.278 0 0 0 8.987 2.909c1.587 0 3.12-.241 4.563-.69 2.47 5.156 7.742 8.721 13.84 8.721 5.542 0 10.394-2.942 13.09-7.346a15.265 15.265 0 0 0 9.769 3.511c3.227 0 6.218-.998 8.688-2.696 2.108 5.957 7.785 10.22 14.461 10.22 5.9 0 11.017-3.332 13.584-8.214 1.442.45 2.976.69 4.563.69.077 0 .154 0 .231-.005a15.299 15.299 0 0 0 10.695 4.346c5.518 0 10.356-2.913 13.058-7.288a15.268 15.268 0 0 0 6.695 1.534c1.756 0 3.444-.299 5.017-.844 2.768 3.984 7.38 6.594 12.6 6.594 8.47 0 15.339-6.869 15.339-15.34 0-8.47-6.87-15.338-15.34-15.338v.005Z" transform="translate(-104 -25)"/><path fill="#C0BECA" fill-opacity=".4" d="M-56.047-.436H71.759v84.622H-56.047z"/><g fill-opacity=".71" opacity=".6"><path fill="#8EDFF9" d="M18.683 27.491a2.04 2.04 0 0 0-.086.096L8.222 38.306a1.678 1.678 0 0 0-.178.184l-.001.002c-.376.453-.446 1.023-.144 1.315.302.291.868.203 1.31-.188l.003.004 10.643-10.997c.451-.466.555-1.098.23-1.412-.323-.313-.951-.19-1.402.277Z"/><path fill="#8EDFF9" d="M18.683 27.491a2.04 2.04 0 0 0-.086.096L8.222 38.306a1.678 1.678 0 0 0-.178.184l-.001.002c-.376.453-.446 1.023-.144 1.315.302.291.868.203 1.31-.188l.003.004 10.643-10.997c.451-.466.555-1.098.23-1.412-.323-.313-.951-.19-1.402.277ZM59.312 26.493c-.03.031-.058.063-.085.095l-10.375 10.72a1.678 1.678 0 0 0-.178.184l-.001.001c-.376.454-.446 1.023-.144 1.315.302.292.868.204 1.309-.187l.004.004 10.643-10.997c.451-.467.554-1.099.23-1.412-.323-.313-.951-.19-1.403.277Z"/><path fill="#8EDFF9" d="M59.312 26.493c-.03.031-.058.063-.085.095l-10.375 10.72a1.678 1.678 0 0 0-.178.184l-.001.001c-.376.454-.446 1.023-.144 1.315.302.292.868.204 1.309-.187l.004.004 10.643-10.997c.451-.467.554-1.099.23-1.412-.323-.313-.951-.19-1.403.277ZM5.451 24.692a.64.64 0 0 0-.027.03L2.166 28.09a.55.55 0 0 0-.056.058c-.119.143-.14.322-.046.413.095.092.273.064.411-.058h.002l3.342-3.453c.142-.147.174-.345.073-.444-.102-.098-.3-.06-.441.087Z"/><path fill="#72A0AE" d="M5.451 24.692a.64.64 0 0 0-.027.03L2.166 28.09a.55.55 0 0 0-.056.058c-.119.143-.14.322-.046.413.095.092.273.064.411-.058h.002l3.342-3.453c.142-.147.174-.345.073-.444-.102-.098-.3-.06-.441.087Z"/><path fill="#8EDFF9" d="M27.959 13.962a.675.675 0 0 0-.027.03l-3.258 3.366a.543.543 0 0 0-.056.058c-.119.143-.14.322-.046.414.095.092.273.064.411-.059l.001.001 3.343-3.454c.142-.146.174-.345.072-.443-.101-.098-.299-.06-.44.087Z"/><path fill="#72A0AE" d="M27.959 13.962a.675.675 0 0 0-.027.03l-3.258 3.366a.543.543 0 0 0-.056.058c-.119.143-.14.322-.046.414.095.092.273.064.411-.059l.001.001 3.343-3.454c.142-.146.174-.345.072-.443-.101-.098-.299-.06-.44.087Z"/><path fill="#8EDFF9" d="M34.066 42.576a.62.62 0 0 0-.027.03l-3.259 3.367a.543.543 0 0 0-.056.058c-.118.143-.14.322-.045.413.095.092.273.064.41-.058h.002l3.343-3.453c.142-.147.174-.345.072-.444-.101-.098-.299-.059-.44.087Z"/><path fill="#72A0AE" d="M34.066 42.576a.62.62 0 0 0-.027.03l-3.259 3.367a.543.543 0 0 0-.056.058c-.118.143-.14.322-.045.413.095.092.273.064.41-.058h.002l3.343-3.453c.142-.147.174-.345.072-.444-.101-.098-.299-.059-.44.087Z"/><path fill="#8EDFF9" d="M54.34 11.575c-.03.031-.059.063-.086.095L43.88 22.39a1.672 1.672 0 0 0-.179.184l-.001.001c-.376.454-.446 1.023-.144 1.315.302.292.869.204 1.31-.187l.003.004L55.512 12.71c.452-.467.555-1.099.231-1.412-.324-.313-.952-.19-1.403.277Z"/><path fill="#8EDFF9" d="M54.34 11.575c-.03.031-.059.063-.086.095L43.88 22.39a1.672 1.672 0 0 0-.179.184l-.001.001c-.376.454-.446 1.023-.144 1.315.302.292.869.204 1.31-.187l.003.004L55.512 12.71c.452-.467.555-1.099.231-1.412-.324-.313-.952-.19-1.403.277Z"/></g><path fill="url(#d)" d="M166.476 15.962c-.746 0-1.473.07-2.184.2a12.135 12.135 0 0 0-9.034-4.022c-5.137 0-9.523 3.183-11.306 7.687a9.977 9.977 0 0 0-4.287-.964 9.89 9.89 0 0 0-4.242.945c-2.203-3.111-5.825-5.143-9.924-5.143a12.136 12.136 0 0 0-9.482 4.55 12.114 12.114 0 0 0-5.913-1.535c-3.549 0-6.746 1.523-8.969 3.953a9.765 9.765 0 0 0-6.6-2.56 9.798 9.798 0 0 0-3.447.624c-1.683-4.703-6.173-8.066-11.45-8.066-4.732 0-8.828 2.705-10.84 6.65a9.571 9.571 0 0 0-4.448-1.09c-1.45 0-2.826.32-4.062.899-2.015-3.926-6.1-6.612-10.816-6.612-6.716 0-12.162 5.448-12.162 12.167 0 6.72 5.446 12.168 12.162 12.168 2.876 0 5.515-.999 7.596-2.667a9.605 9.605 0 0 0 7.282 3.329 9.692 9.692 0 0 0 7.378-3.44 12.105 12.105 0 0 0 7.913 2.931c2.421 0 4.677-.712 6.575-1.932a9.793 9.793 0 0 0 8.326 4.637c2.103 0 4.05-.665 5.645-1.794 2.203 3.107 5.825 5.139 9.925 5.139 3.832 0 7.251-1.776 9.481-4.55A12.114 12.114 0 0 0 125.506 39c2.853 0 5.473-.983 7.55-2.632a9.95 9.95 0 0 0 6.62 2.506 9.988 9.988 0 0 0 8.48-4.702c2 1.446 4.455 2.3 7.113 2.3.746 0 1.473-.07 2.184-.2a12.136 12.136 0 0 0 9.034 4.022c6.716 0 12.162-5.449 12.162-12.168 0-6.719-5.446-12.168-12.162-12.168l-.011.004Z" transform="translate(-104 -25)"/><path fill="url(#e)" d="M171.035 7.814a13.75 13.75 0 0 0-4.51.758 13.773 13.773 0 0 0-11.33-5.928c-4.962 0-9.312 2.62-11.741 6.553a13.728 13.728 0 0 0-6.02-1.38c-.07 0-.139 0-.208.005a13.756 13.756 0 0 0-9.616-3.908c-5.305 0-9.907 2.997-12.214 7.387a13.798 13.798 0 0 0-4.103-.62c-2.902 0-5.591.897-7.812 2.424-1.895-5.357-7-9.19-13.003-9.19-4.984 0-9.347 2.645-11.771 6.605a13.725 13.725 0 0 0-8.783-3.158c-1.428 0-2.807.217-4.104.62C63.6 3.343 58.863.138 53.377.138a13.755 13.755 0 0 0-10.072 4.372 13.737 13.737 0 0 0-8.08-2.616c-7.616 0-13.793 6.176-13.793 13.792 0 7.617 6.177 13.793 13.793 13.793 3.973 0 7.556-1.683 10.071-4.372a13.737 13.737 0 0 0 8.08 2.615 13.8 13.8 0 0 0 4.104-.62c2.22 4.636 6.961 7.842 12.444 7.842 4.983 0 9.346-2.646 11.77-6.606a13.725 13.725 0 0 0 8.784 3.157c2.902 0 5.59-.897 7.812-2.424 1.895 5.356 7 9.19 13.003 9.19 5.304 0 9.906-2.997 12.214-7.386 1.296.404 2.676.62 4.103.62.07 0 .139 0 .208-.004a13.755 13.755 0 0 0 9.616 3.908 13.78 13.78 0 0 0 11.74-6.554c1.823.885 3.861 1.38 6.021 1.38 1.579 0 3.097-.27 4.51-.76a13.773 13.773 0 0 0 11.33 5.93c7.616 0 13.793-6.177 13.793-13.793S178.65 7.81 171.035 7.81v.005Z" transform="translate(-104 -25)"/></g><path fill="#56E6FF" fill-rule="nonzero" d="M14.029 32.003c0 1.688-2.863 5.206-3.913 5.206-1.05 0-1.9-1.369-1.9-3.056 0-1.688.85-3.056 1.9-3.056 1.05 0 3.913-.782 3.913.906Z"/><path fill="#56E6FF" fill-rule="nonzero" d="M14.028 36.375c0 1.688-2.863 5.206-3.912 5.206-1.05 0-1.9-1.368-1.9-3.056 0-1.687.85-3.055 1.9-3.055 1.05 0 3.912-.782 3.912.905ZM14.236 44.23c.5 1.61-1.189 5.832-2.19 6.15-1.002.316-2.22-.733-2.72-2.343-.5-1.61-.094-3.172.908-3.49 1.001-.316 3.501-1.927 4.002-.316Z"/><path fill="#56E6FF" fill-rule="nonzero" d="M14.236 48.6c.5 1.61-1.189 5.832-2.19 6.149-1.002.316-2.22-.732-2.72-2.343-.5-1.61-.094-3.172.908-3.489 1.001-.317 3.501-1.927 4.002-.317Z"/><path fill="#5A5A5B" fill-rule="nonzero" d="M16.832 48.057c.5 1.61-1.188 5.831-2.19 6.148-1.001.317-2.219-.732-2.72-2.342-.5-1.61-.093-3.172.908-3.49 1.002-.316 3.502-1.927 4.002-.316Z"/><path fill="#56E6FF" fill-rule="nonzero" d="M35.923 30.936c0 1.688 2.863 5.206 3.912 5.206 1.05 0 1.9-1.368 1.9-3.056 0-1.687-.85-3.055-1.9-3.055-1.05 0-3.912-.782-3.912.905Z"/><path fill="#56E6FF" fill-rule="nonzero" d="M35.923 35.309c0 1.687 2.863 5.206 3.912 5.206 1.05 0 1.9-1.369 1.9-3.056 0-1.688-.85-3.056-1.9-3.056-1.05 0-3.912-.782-3.912.906ZM35.715 43.164c-.5 1.61 1.189 5.832 2.19 6.149 1.002.316 2.22-.732 2.72-2.342s.094-3.173-.908-3.49c-1.001-.317-3.501-1.927-4.002-.317Z"/><path fill="#56E6FF" fill-rule="nonzero" d="M35.715 47.534c-.5 1.61 1.189 5.831 2.19 6.148 1.002.317 2.22-.732 2.72-2.342s.094-3.172-.908-3.49c-1.001-.316-3.501-1.927-4.002-.316Z"/><path fill="#DDE8EF" fill-rule="nonzero" d="M32.642 46.99c-.5 1.61 1.188 5.832 2.19 6.149 1 .316 2.218-.732 2.719-2.342.5-1.61.094-3.173-.908-3.49-1.001-.317-3.501-1.927-4.001-.317Z"/><path fill="#56E6FF" fill-rule="nonzero" d="M35.5 39.681c0 1.688 2.863 5.206 3.912 5.206 1.05 0 1.9-1.368 1.9-3.055 0-1.688-.85-3.056-1.9-3.056-1.05 0-3.912-.782-3.912.905ZM14.399 40.748c0 1.688-2.863 5.206-3.913 5.206-1.05 0-1.9-1.369-1.9-3.056 0-1.688.85-3.056 1.9-3.056 1.05 0 3.913-.782 3.913.906Z"/><path fill="#56E6FF" d="M10.74 23.748c-3.785-1.46-5.167-9.396-5.167-16.442 0-9.209 3.48-16.382 6.664-16.382 2.602 0 2.527 4.365 2.413 10.99-.026 1.478-.053 3.07-.053 4.75.375 2.787.971 5.28 1.487 7.435.182.76.353 1.477.502 2.151 2.187-1.155 4.824-1.698 7.76-1.698 3.254 0 6.396.667 9.023 2.094.166-.787.37-1.637.587-2.547.516-2.156 1.112-4.648 1.487-7.434 0-1.681-.028-3.273-.053-4.752-.114-6.624-.19-10.99 2.413-10.99 3.184 0 6.663 7.174 6.663 16.383 0 6.957-1.347 14.783-5.025 16.383.591 1.654.917 3.55.917 5.702 0 1.18.038 2.47.079 3.831.317 10.667.763 25.695-16.09 25.695-16.048 0-15.205-13.625-14.554-24.137.12-1.937.234-3.768.234-5.389 0-2.126.248-4.003.713-5.643Z"/><path fill="#C6F5FF" d="M36.175 30.665c.974-1.29 1.527-2.767 1.527-4.334 0-5.066-5.773-9.172-12.894-9.172s-12.894 4.106-12.894 9.172c0 1.585.566 3.076 1.56 4.377-1.213 1.641-1.213 3.796-1.213 6.155 0 5.145 5.632 8.52 12.58 8.52 6.947 0 12.58-3.375 12.58-8.52 0-2.38 0-4.552-1.246-6.198Z"/><path fill="#96F6FF" fill-rule="nonzero" d="M42.67 7.632c0 4.693-5.324 11.976-5.678 10.783-.354-1.193.723-2.88 0-10.336-.724-7.455-.325-15.406 1.305-15.555.68-.063 4.057 7.505 4.373 15.108Z"/><path fill="url(#f)" fill-opacity=".8" fill-rule="nonzero" d="M146.936 34.031c0 4.693-5.324 11.976-5.678 10.783-.354-1.193.724-2.88 0-10.336-.724-7.455-.325-15.406 1.305-15.555.68-.063 4.058 7.505 4.373 15.108Z" transform="translate(-104 -25)"/><path fill="#96F6FF" fill-rule="nonzero" d="M7.053 7.632c0 4.693 5.324 11.976 5.678 10.783.354-1.193-.724-2.88 0-10.336.724-7.455.325-15.406-1.305-15.555-.68-.063-4.057 7.505-4.373 15.108Z"/><path fill="url(#g)" fill-opacity=".8" fill-rule="nonzero" d="M110.772 34.59c0 4.694 5.324 11.976 5.678 10.784.355-1.193-.723-2.88 0-10.336.724-7.455.325-15.407-1.305-15.556-.68-.062-4.057 7.505-4.373 15.109Z" transform="translate(-104 -25)"/><path fill="#54BDEA" fill-rule="nonzero" d="M29.777 36.403c0 1.705-2.139 3.087-4.777 3.087-2.638 0-4.777-1.382-4.777-3.087 0-1.705 2.139-8.855 4.777-8.855 2.638 0 4.777 7.15 4.777 8.855Z"/><path stroke="url(#h)" stroke-width=".394" d="M129.077 59.29v2.518" transform="translate(-104 -25)"/><path stroke="#000" stroke-linecap="round" stroke-linejoin="round" stroke-width=".412" d="M22.251 35.968c2.094 1.088 3.203 1.15 5.037 0"/><path fill="#0F515C" fill-rule="nonzero" d="M24.953 31.211c2.323.05 2.833 1.723 3.143 2.2.31.48-.07 2.081-3.143 1.73-2.362-.088-3.652-.603-3.211-1.65 0 0 .888-2.33 3.211-2.28Z"/><path fill="#160646" fill-rule="nonzero" d="M27.404 33.28c.147.306-.951 1.184-1.33 1.309-.538.178-1.15.4-1.179.338-.03-.062.573-.492 1.011-.904.439-.413 1.35-1.05 1.498-.744Z"/><path fill="#160646" fill-rule="nonzero" d="M22.507 33.28c-.148.306.95 1.184 1.329 1.309.538.178 1.15.4 1.18.338.029-.062-.574-.492-1.012-.904-.438-.413-1.35-1.05-1.497-.744Z"/><g><mask id="j" fill="#fff"><use xlink:href="#i"/></mask><g fill-rule="nonzero" mask="url(#j)"><g transform="translate(13 24)"><path fill="#8C8C8C" fill-opacity=".2" d="M6.926 2.94c.369 1.511-.506 3.033-1.954 3.398-1.448.366-2.921-.563-3.29-2.074-.37-1.51.505-3.032 1.953-3.398C5.083.5 6.556 1.429 6.925 2.94ZM22.372 2.94c.369 1.511-.506 3.033-1.954 3.398-1.448.366-2.921-.563-3.29-2.074-.37-1.51.505-3.032 1.953-3.398 1.448-.366 2.921.563 3.29 2.074Z"/><path fill="#333" d="M17.068 2.572c-.37 1.512.502 3.034 1.949 3.398 1.447.365 2.92-.566 3.29-2.079.371-1.512-.501-3.034-1.948-3.398-1.447-.364-2.92.566-3.291 2.079ZM6.963 2.596c.37 1.51-.505 3.032-1.953 3.398-1.448.366-2.922-.563-3.29-2.074C1.35 2.409 2.223.887 3.672.522c1.448-.366 2.921.563 3.29 2.074Z"/><circle cx="18.827" cy="2.082" r="1" fill="#DADADA" transform="rotate(13.787 18.827 2.082)"/><circle cx="20.159" cy="1.537" r="1" fill="#DADADA" transform="rotate(13.786 20.16 1.537)"/><circle cx="3.473" cy="1.983" r="1" fill="#DADADA" transform="rotate(-13.787 3.473 1.983)"/><circle cx="4.875" cy="1.509" r="1" fill="#DADADA" transform="rotate(-13.787 4.875 1.509)"/><circle cx="17.171" cy="4.386" r="1" fill="#333" transform="rotate(-30.943 17.171 4.386)"/><circle cx="22.191" cy="1.688" r="1" fill="#333" transform="rotate(-30.943 22.19 1.688)"/><circle cx="6.966" cy="4.731" r="1" fill="#333" transform="scale(-1 1) rotate(-30.943 0 29.897)"/><circle cx="1.627" cy="1.715" r="1" fill="#333" transform="scale(-1 1) rotate(-30.943 0 7.593)"/><ellipse cx="3.722" cy="8.152" fill="#FF7BE2" fill-opacity=".3" rx="3.382" ry="1"/><ellipse cx="20.212" cy="8.152" fill="#FF7BE2" fill-opacity=".3" rx="3.382" ry="1"/></g></g></g><g><mask id="l" fill="#fff"><use xlink:href="#k"/></mask><g fill-rule="nonzero" mask="url(#l)"><path fill="#56E6FF" d="M36.28 10.544c1.132.712 2.483 1.458 3.232 2.343 3.36 5.58 2.36 7.616-3.863 9.566-5.526.977-12.545-2.208-15.458-3.711-.05-.025-.101-.045-.152-.068l-1.432.531c-.461.183-.841.504-1.296.538-1.87.163-2.909-.05-4.731-1.001-1.153-1.29-1.53-2.111-1.563-3.805a4.421 4.421 0 0 1 .22-1.995c1.2-3.475 4.42-5.549 4.42-5.549-1.055.874-1.41 2.228-1.528 3.109a.694.694 0 0 1 .026-.013c.576-2.782 3.907-4.422 3.907-4.422-.613.358-1.148 1.495-1.552 2.644l3.681-3.817c-.784 1.2 1.543 1.518 2.474 2.96l.006-.001c.075-2.02.418-2.36.418-2.36-.181 1.338 1.446 1.257 2.359 2.191.128-.002.252-.008.382-.009l.23.017c-.04-2.087 0-2.517 0-2.517s-.043.56 4.056 2.825c.147.006.276.015.367.033a21.54 21.54 0 0 1 3.89 1.137c.944.376 1.156.9 1.907 1.374Z"/><path fill="#9BF0FF" d="M15.532 7.542c-.527.468-3.474 3.568-3.13 3.088.369-.514.367-.617.706-1.007.331-.38.984-.946.984-.946l1.44-1.135a.445.445 0 0 1 .073-.058l-.073.058ZM17.828 6.147c-.413.357-3.407 3.778-3.179 3.168.24-.637.378-.763.717-1.194.33-.42 1.135-1 1.135-1l1.327-.974a.195.195 0 0 1 .039-.028l-.04.028ZM20.136 4.94c.118.328-1.267 2.544-3.576 3.738.797-.97.879-.801 1.274-1.353l2.302-2.385Z"/><path fill="#2BDBFA" d="M23.09 5.494c.262 1.218 1.512 1.114 2.627 2.547-.956-.398-1.672-.796-1.672-.796-.319-.239-1.063-.776-.956-1.751Z"/><path fill="url(#m)" fill-opacity=".3" d="M4.795 10.084c-4.594 2.129.87-3.888 2.835-4.287 1.653-.336 1.638 2.084.129 2.838-1.148.573-2.31 1.146-2.964 1.45Z" transform="translate(10 4)"/></g></g><g><mask id="o" fill="#fff"><use xlink:href="#n"/></mask><g mask="url(#o)"><g transform="translate(9 4)"><path fill="#C3D2EE" fill-rule="nonzero" d="M7.631 14.718c6.23-.501 9.86-.501 15.823-.072.555.04.985.502.985 1.058 0 .626-.538 1.116-1.162 1.063-5.752-.49-9.312-.46-15.375.103l-.27-2.152Z"/><path fill="#E7F3FF" fill-rule="nonzero" d="M16.033.482C6.886.077-.052 7.232.245 17.828c2.962-.46 5.597-.817 8.056-1.07C6.553 5.39 16.033.483 16.033.483Z"/><path fill="#E7F3FF" fill-rule="nonzero" d="M15.967.482c9.147-.405 16.085 6.75 15.788 17.346-2.962-.46-5.597-.817-8.056-1.069C25.447 5.389 15.967.482 15.967.482Z"/><path fill="#FBFBFB" fill-rule="nonzero" d="M6.605 16.939c-2.142.185-4.283.415-6.369.738v-3.969C.181 7.108 5.946 1.663 13.413.601c-7.961 4.57-7.138 14.03-6.808 16.338ZM18.656.6c7.39 1.062 13.043 6.554 13.043 13.107v3.97a97.643 97.643 0 0 0-6.304-.74C25.72 14.63 26.482 5.17 18.656.6Z"/><path fill="#FBFBFB" d="M7.818 16.87C7.49 14.606 6.566 4.209 16.035.466c9.468 3.743 8.543 14.14 8.217 16.404-.3-.023-.601-.044-.901-.065.036-.929.092-4.874-1.421-6.766-2.889-3.612-8.84-3.63-11.705 0-1.494 1.892-1.41 5.812-1.365 6.757-.347.023-.694.047-1.042.074Z"/><path fill="#E7F3FF" fill-rule="nonzero" d="M7.631 14.704c4.338-.296 6.505-.434 10.45-.348.582.012 1.046.49 1.046 1.072 0 .63-.54 1.125-1.17 1.084-3.915-.257-6.015.045-10.326.29v-2.098Z"/><circle cx="9.11" cy="15.66" r="1" fill="#FBFBFB" fill-rule="nonzero"/><circle cx="11.799" cy="15.525" r="1" fill="#FBFBFB" fill-rule="nonzero"/><circle cx="14.489" cy="15.391" r="1" fill="#FBFBFB" fill-rule="nonzero"/><circle cx="17.177" cy="15.391" r="1" fill="#FBFBFB" fill-rule="nonzero"/><circle cx="19.867" cy="15.525" r="1" fill="#FBFBFB" fill-rule="nonzero"/><circle cx="22.556" cy="15.66" r="1" fill="#FBFBFB" fill-rule="nonzero"/></g></g></g><g><mask id="q" fill="#fff"><use xlink:href="#p"/></mask><g fill-rule="nonzero" mask="url(#q)"><path fill="#000" d="M41.081 27.06c-.085-.925-.31-1.751-.675-2.417-.604-1.106-1.881-1.893-3.797-2.34-1.461-.341-2.898-.392-3.625-.392H16.862c-.726 0-2.163.051-3.625.392-1.915.447-3.192 1.234-3.796 2.34-.377.69-.591 1.524-.672 2.417h-.652v.66h.618c-.051 2.745 1.038 5.828 2.517 6.92.903.666 2.017 1.347 3.436 1.347 2.052 0 4.192-1.435 6.54-4.388 1.362-1.714 2.058-3.13 2.353-4.28.16-.62.202-1.163.17-1.634.348-.15.747-.236 1.173-.236.425 0 .825.085 1.172.236-.032.47.01 1.014.17 1.634.295 1.15.99 2.566 2.354 4.28 2.348 2.953 4.488 4.388 6.54 4.388 1.418 0 2.533-.681 3.436-1.348 1.007-.744 1.886-2.462 2.292-4.486.169-.844.244-1.665.23-2.434h.613v-.66h-.65Zm-18.181.26c-.295 1.029-.948 2.306-2.192 3.87-2.214 2.784-4.184 4.138-6.02 4.138-1.226 0-2.226-.616-3.042-1.218-.868-.641-1.667-2.245-2.037-4.086-.16-.795-.23-1.576-.214-2.305.005-.224.018-.445.04-.659.08-.812.278-1.535.587-2.102 1.242-2.272 5.916-2.387 6.84-2.387.198 0 1.433.041 3.087.225 1.378.153 2.467.882 2.915 1.95a2.985 2.985 0 0 1 .223.938c.011.13.016.267.012.412a4.854 4.854 0 0 1-.2 1.223Zm3.3-2.302a3.629 3.629 0 0 0-1.276-.229c-.455 0-.887.083-1.276.229a3.557 3.557 0 0 0-.172-.526c-.352-.84-1.02-1.505-1.89-1.918h6.675c-.87.413-1.538 1.078-1.89 1.918a3.57 3.57 0 0 0-.172.526Zm14.038 5.005c-.37 1.842-1.17 3.446-2.037 4.087-.816.602-1.815 1.218-3.041 1.218-1.837 0-3.806-1.354-6.02-4.138-1.244-1.564-1.897-2.841-2.192-3.871a4.892 4.892 0 0 1-.2-1.224 3.778 3.778 0 0 1 .062-.774c.042-.213.102-.405.173-.576.448-1.068 1.538-1.797 2.915-1.95a35.918 35.918 0 0 1 3.087-.225c.925 0 5.598.115 6.84 2.387.31.567.507 1.29.588 2.102.021.214.034.434.039.66.016.729-.055 1.51-.214 2.304Z"/><path fill="url(#r)" fill-opacity=".95" d="M1.003 6.391c0 2.708 1.714 8.129 5.645 8.129 3.932 0 8.817-6.21 8.817-8.918 0-3.066-2.693-4.413-6.624-4.413C4.129.911 1.003 3.684 1.003 6.391ZM32.866 6.391c0 2.708-1.714 8.129-5.645 8.129-3.932 0-8.817-6.21-8.817-8.918 0-3.066 2.693-4.413 6.624-4.413 4.712-.278 7.838 2.495 7.838 5.202Z" transform="translate(8 21)"/></g></g></g></svg>