<svg xmlns="http://www.w3.org/2000/svg" width="558" height="558" viewBox="0 0 558 558" ><defs><linearGradient id="a" x1="48.819%" x2="49.236%" y1="29.259%" y2="79.537%"><stop offset="0%" stop-color="#002332"/><stop offset="99.479%" stop-color="#5C9B90"/></linearGradient></defs><g fill="none" fill-rule="nonzero"><path fill="url(#a)" d="M247 0h853v568.667H247z" transform="translate(-418 -23)"/><path fill="#14133F" d="M30.777 398.988c-138.445 7.402-352.949 72.309-442.896 103.837l-5.5 50.188L759.899 823.137l133.782-191.323 20.287-313.808c-43.662-4.784-157.656-2.604-264.34 44.397-133.355 58.75-71.811 11.882-291.023 4.79-219.212-7.093-154.771 22.543-327.828 31.795Z"/><path fill="#FFF2D2" fill-opacity=".8" d="m334.598 137.53 2.324 6.282 6.282 2.325-6.282 2.324-2.324 6.282-2.325-6.282-6.282-2.324 6.282-2.325zM65.944 71.185l1.6 4.324 4.324 1.6-4.324 1.6-1.6 4.324-1.599-4.324-4.324-1.6 4.324-1.6zM106.924 165l1.6 4.324 4.323 1.6-4.323 1.6-1.6 4.323-1.6-4.323-4.324-1.6 4.324-1.6zM371.924 59l1.6 4.324 4.323 1.6-4.323 1.6-1.6 4.323-1.6-4.323-4.324-1.6 4.324-1.6z"/><path fill="#1D1C51" d="M84.348 334.24c3.994-23.796 19.068-67.589 44.593-66.977 28.76.69 25.167 50.445 53.238 70.503 7.639 5.457 9.91-1.508 20.632 12.338 9.861 12.735-1.217 24.922 4.658 41.421 3.463 9.725 15.755 9.086 17.082 25.56 1.327 16.473-12.147 23.302-5.764 37.895 3.593 8.216 9.617 8.607 13.31 16.745 2.799 6.168 1.721 29.621 0 41.006-3.331 22.032-9.43 27.31-24.628 45.36-14.624 17.369-25.29 25.558-43.255 30.847-13.733 4.044-21.22-10.547-35.273-9.694-11.523.699-17.475 13.652-28.617 9.694-27.29-9.694-35.08-14.282-49.918-38.779-14.206-23.454-26.417-26.453-22.23-56.004 1.998-14.103 16.184-31.567 18.24-45.344 1.85-12.382-6.712-19.401-4.658-31.726 2.084-12.503 10.695-14.751 14.642-26.439 5.04-14.931-7.914-21.266 0-33.821 7.33-11.63 25.466-7.798 27.948-22.585Z"/><path fill="#262560" d="M83.856 334.246c3.993-23.797 19.068-67.589 44.593-66.977 0 0 31.907 89.807 35.272 149.821 2.923 52.127-46.824 82.16-35.272 133.075a7962.927 7962.927 0 0 1 6.539 29.085c-.599.176-1.131.335-1.603.479-6.847 2.084-.903.841 0 0 .461-.43-.393-.755-4.936-.479-11.524.699-17.476 13.652-28.618 9.694-27.29-9.694-35.08-14.283-49.917-38.779-14.206-23.455-26.418-26.453-22.23-56.005 1.997-14.102 16.184-31.566 18.24-45.343 1.849-12.382-6.713-19.401-4.658-31.727 2.084-12.503 10.695-14.75 14.641-26.439 5.04-14.93-7.913-21.265 0-33.821 7.33-11.629 25.467-7.797 27.949-22.584Z"/><path fill="#11152B" d="M125.034 448.267a5.912 5.912 0 0 1 11.824-.026l2.847 214.425h-16.569l1.898-214.399Z"/><path fill="#11152B" d="M158.167 505.739a4.807 4.807 0 0 1 6.689 6.895l-28.804 30.358-9.022-9.454 31.137-27.799ZM112.606 489.849a3.516 3.516 0 0 1 4.828-5.105l18.446 15.753-6.58 6.819-16.694-17.467ZM95.007 542.884a3.44 3.44 0 0 1 4.747-4.976l34.174 30.807-6.58 6.818-32.341-32.649Z"/><path fill="#C0BECA" fill-opacity=".4" d="M-5-2h867.809v574.59H-5z"/></g></svg>