<svg xmlns="http://www.w3.org/2000/svg" width="41" height="37" fill="none"><g clip-path="url(#a)"><path fill="#7F58FF" d="M24.287 9.184s-1.152-.046-2.19 1.576a3.486 3.486 0 0 0-5.619-.36l-3.587-5.188a3.488 3.488 0 0 0-5.736 3.966l6.102 8.825a4.755 4.755 0 0 0-.196 7.691l4.224 3.24c1.237.95 2.338.949 4.19.802 1.708-.044 3.7-.389 5.757-1.052 3.062-.987 5.593-2.465 7.045-3.961a3.097 3.097 0 0 0 1.206-1.822s.216-2.96-3.777-9.96c-2.305-4.357-4.023-2.81-4.023-2.81-.466.321-.541.561-.835.414 0 0-1.055-1.814-2.559-1.362"/><path fill="url(#b)" d="M7.777 7.531c-1.088-4.232 2.7-4.7 4.75-2.9l3.8 5.5c.75 0 .4-.3 2.05-.75 1.7-.463 3.03.42 3.949 1.496.026-.611.435-1.157 1.352-1.496 1.43-.528 2.456.557 2.994 1.537.146-.284.473-.565 1.106-.787 2-.7 4.4 4.2 5.7 7.7 1.3 3.5-.3 6.5-2.8 6.9-2.5.4-2.4 1.3-8.1 3.4-5.7 2.1-3.9.65-8.3-2.75-2.956-2.283-2.882-5.217-1-6.15.624-.31 1.625 1.539 2.327 2.675l.723.831c.645.021 1.742-.217.967-1.337-.774-1.12-6.668-9.712-9.518-13.869Z"/><path fill="#281342" stroke="#281342" stroke-width=".16" d="m10.658 14.707.002.003.203.261c.71.915 1.42 1.83 2.146 2.733l.13-.09a202.536 202.536 0 0 0-1.798-2.973l-.173-.282-.002-.003c-.4-.585-.914-1.326-1.454-2.102-.876-1.258-1.816-2.609-2.431-3.545a4.162 4.162 0 0 1-.256-.594c-.538-1.58.278-2.98 1.505-3.668 1.228-.688 2.848-.653 3.912.62.463.6 1.323 1.858 2.087 2.976.452.66.87 1.271 1.152 1.669l.002.002c.776 1.003 1.552 2.006 2.35 2.993l.132-.09a176.387 176.387 0 0 0-1.97-3.256l-.005-.006c-.346-.458-.774-1.099-1.23-1.784-.179-.267-.361-.54-.545-.812-.653-.966-1.325-1.915-1.869-2.455l-.005-.005c-.95-.782-1.957-1.038-2.882-.922-.924.116-1.76.602-2.37 1.294-1.218 1.382-1.545 3.6.133 5.357l.005.006.004.006.004.007.005.006.004.006.004.006.004.006.005.006.004.007.004.006.005.006.004.006.005.007.004.006.004.007.005.006.004.007.005.006.005.007.004.007.005.006.004.007.005.007.005.007.004.006.005.007.005.007.005.007.005.007.004.007.005.007.005.007.005.007.005.007.005.007.005.008.005.007.005.007.005.007.005.007.005.008.005.007.005.008.005.007.005.007.006.008.005.007.005.008.005.008.005.007.006.008.005.007.005.008.006.008.005.008.005.007.006.008.005.008.006.008.005.008.006.008.005.008.006.008.005.008.006.008.005.008.006.008.005.008.006.008.006.008.005.008.006.009.006.008.006.008.005.008.006.009.006.008.006.008.005.009.006.008.006.009.006.008.006.009.006.008.006.009.006.008.006.01.006.008.006.008.006.01.006.008.006.008.006.01.006.008.006.009.006.009.006.008.006.01.006.008.006.01.007.008.006.01.006.008.006.009.006.01.007.008.006.01.006.008.007.01.006.008.006.01.007.009.006.01.006.008.007.01.006.009.007.01.006.008.006.01.007.009.006.01.007.009.006.01.007.009.006.009.007.01.006.009.007.01.007.009.006.01.007.009.006.01.007.01.007.009.006.01.007.009.007.01.006.01.007.009.007.01.006.01.007.01.007.009.007.01.007.01.006.01.007.01.007.009.007.01.007.01.006.01.007.01.007.01.007.01.007.01.007.01.007.01.006.01.007.01.007.01.007.01.007.01.007.01.007.01.007.01.007.01.007.01.007.01.007.01.007.01.007.01.007.01.007.01.007.01.007.011.007.01.008.01.007.01.007.011.007.01.007.01.007.01.007.011.007.01.007.01.008.011.007.01.007.01.007.011.007.01.007.011.008.01.007.01.007.011.007.01.007.011.008.01.007.011.007.01.007.01.008.011.007.01.007.011.007.01.008.011.007.01.007.011.007.011.008.01.007.011.007.01.008.011.007.01.007.011.008.01.007.011.007.011.007.01.008.011.007.01.007.011.008.011.007.01.008.011.007.01.007.012.008.01.007.01.007.011.008.011.007.01.007.011.008.011.007.01.008.011.007.011.007.01.008.011.007.011.007.01.008.012.007.01.008.011.007.01.007.011.008.011.007.01.008.011.007.011.007.01.008.012.007.01.008.011.007.01.007.011.008.011.007.01.008.012.007.01.008.011.007.01.007.011.008.011.007.01.008.011.007.011.007.011.008.01.007.011.008.011.007.01.007.011.008.011.007.01.008.012.007.01.007.01.008.012.007.01.007.011.008.01.007.011.008.011.007.01.007.011.008.011.007.01.007.011.008.01.007.012.008.01.007.01.007.012.008.01.007.01.007.011.008.01.007.011.007.011.008.01.007.011.007.01.008.011.007.011.007.01.007.011.008.01.007.011.007.01.008.011.007.01.007.011.007.01.008.011.007.01.007.011.007.01.008.011.007.01.007.011.007.01.007.01.008.011.007.01.007.011.007.01.007.01.008.011.007.01.007.01.007.011.007.01.007.01.007.011.008.01.007.01.007.011.007.01.007.01.007.01.007.011.007.01.007.01.007.01.007.01.007.011.007.01.007.01.007.01.007.01.007.01.007.01.007.01.007.01.007.01.007.01.007.01.007.01.007.01.007.01.007.01.006.01.007.01.007.01.007.01.007.01.007.01.007.01.006.01.007.01.007.01.007.01.006.01.007.009.007.01.007.01.006.01.007.009.007.01.006.01.007.009.007.01.006.009.007.01.007.01.006.009.007.01.006.009.007.01.007.009.006.01.007.009.006.009.007.01.006.009.007.01.006.008.006.01.007.01.006.008.007.01.006.009.007.01.006.008.006.01.007.009.006.009.006.009.006.009.007.009.006.01.006.008.006.01.007.008.006.01.006.008.006.009.006.009.006.009.007.009.006.008.006.01.006.008.006.009.006.008.006.01.006.008.006.008.006.01.006.008.006.008.006.009.006.008.005.009.006.008.006.009.006.008.006.009.006.008.005.008.006.009.006.008.006.008.005.009.006.008.006.008.005.008.006.008.005.008.006.008.006.008.005.009.006.008.005.008.006.007.005.008.006.008.005.008.006.008.005.008.005.008.006.007.005.008.005.008.006.007.005.008.005.008.005.007.006.008.005.007.005.008.005.007.005.008.005.007.005.007.006.008.005.007.005.007.005.008.005.007.005.007.005.007.005.007.004.007.005.007.005.007.005.007.005.007.005.007.004.007.005.007.005.007.004.006.005.007.005.007.004.007.005.006.004.007.005.006.005.007.004.006.004.007.005.006.004.007.005.006.004.006.005.007.004.006.004.006.004.006.005.007ZM28.31 9.82h-.002l-.052.01c-.217.046-.42.13-.61.23l.07.143c.409-.193.792-.228 1.145-.136.353.091.683.312.977.642l.001.002c.41.44.776 1.009 1.11 1.53.108.166.212.328.313.479.263.525.852 1.728 1.1 2.239v.002c.888 1.717 1.709 3.476 2.339 5.3a15.523 15.523 0 0 0 .231.758c.08.256.157.513.212.77.109.513.129 1.016-.08 1.496a2.86 2.86 0 0 1-.96 1.187l-.008.006c-3.33 3.133-8.191 4.705-12.714 4.932h-.002l-.047.003c-1.067.077-2.204.16-3.144-.324-.544-.311-1.434-.984-2.327-1.678-.257-.2-.513-.401-.761-.596-.613-.48-1.173-.92-1.554-1.193l-.003-.002c-2.125-1.386-2.638-4.435-1.088-6.439l.003-.005c.033-.04.072-.092.115-.148l.094-.122c.08-.103.168-.208.258-.293a.6.6 0 0 1 .257-.158c.067-.015.135-.002.205.072.711 1.113 1.617 2.108 2.507 3.084.215.236.428.47.638.705l.124-.101c-.24-.315-.484-.626-.729-.936-.739-.94-1.477-1.879-2.073-2.906-.076-.17-.207-.353-.424-.422h-.005c-.31-.078-.598.055-.837.24-.235.182-.439.426-.592.61l-.002.002-.004.003-.007.008c-1.328 1.628-1.39 4.104-.24 5.84.365.577.894 1.073 1.43 1.461l3.094 2.374h.002c.118.088.245.188.378.291l.006.005c.131.102.268.209.407.312.28.21.573.412.85.544 1.092.558 2.354.473 3.505.386 4.663-.236 9.66-1.854 13.11-5.107.177-.108.402-.326.606-.577.207-.254.4-.551.5-.816l.002-.01c.381-1.633-.248-3.678-1.144-5.66-.584-1.292-1.288-2.571-1.91-3.702-.333-.604-.643-1.166-.898-1.665l-.003-.007-.005-.006a16.322 16.322 0 0 1-.41-.555l-.23-.318a9.23 9.23 0 0 0-.769-.94c-.542-.563-1.19-.99-1.956-.844Z"/><path fill="#281342" stroke="#281342" stroke-width=".16" d="M22.657 11.078c-1.038-2.382-4.266-2.959-6.008-1.003l-.054.06.061.053.035.03.054.047.052-.048a3.37 3.37 0 0 1 1.64-.82v-.003l.001.003c.972-.21 1.818.079 2.543.616.726.54 1.327 1.326 1.8 2.1l.034.054.061-.02.044-.016.064-.021-.011-.067a3.628 3.628 0 0 0-.316-.965ZM25.15 9.246h.002c.798.179 1.34.719 1.758 1.398.323.525.568 1.125.801 1.696.07.17.138.337.207.498l.024.058.062-.01.045-.007.063-.01.004-.065c.092-1.525-.805-3.004-1.967-3.697-.583-.347-1.237-.5-1.871-.357-.635.143-1.237.582-1.717 1.395l-.046.078.083.036.042.018.066.03.035-.064c.472-.832 1.49-1.224 2.41-.997Z"/><path fill="#281342" stroke="#281342" stroke-width=".4" d="m32.55 23.225.016-.005.106-.031.017-.006.015-.008c.067-.033.135-.064.203-.093.573-.174 1.232-.11 1.847.139.735.296 1.378.843 1.708 1.498l.092.183c.3.595.32 1.375.113 2.12-.418.607-1.07 1.135-1.788 1.497l-.007.004-6.434 3.592-3.049 1.394-.007.003a2.661 2.661 0 0 1-3.574-1.178l-.092-.184c-.33-.653-.377-1.494-.17-2.26.209-.767.664-1.43 1.305-1.753l.012-.006 6.822-4.048 2.864-.858Zm-10.025 4.633a3.47 3.47 0 0 0-1.531 4.656l.092.183c.874 1.733 3.06 2.18 4.748 1.33l.008-.005 2.777-1.55 6.738-3.081.007-.004c.766-.386 1.337-1.183 1.625-2.05l.045-.144c.028-.042.055-.084.08-.127.46-.759.607-1.646.163-2.528l-.093-.183a3.47 3.47 0 0 0-4.412-1.65 2.44 2.44 0 0 0-.354.142l-2.871.86-.023.007-.021.012-6.978 4.132Z"/><path fill="#281342" d="M23.777 27.449a47.067 47.067 0 0 0-2.04 1.66c.423-.52 1.144-1.086 2.04-1.66 2.3-1.773 5.38-3.84 7.258-4.112l2.605-.511c-2.457.905-7.033 2.81-9.863 4.623Z"/><path fill="#7F58FF" d="M21.172 32.424a3.27 3.27 0 0 1 1.449-4.39l9.993-5.037a3.27 3.27 0 0 1 4.392 1.448l.092.184a3.27 3.27 0 0 1-1.448 4.39l-9.994 5.037a3.27 3.27 0 0 1-4.391-1.448l-.093-.184Z"/><path fill="url(#c)" fill-opacity=".5" d="M34.595 23.7c-1.48-1.2-8.783 3.367-12.25 5.8-.333.617-.8 1.98 0 2.5 1 .65 5.15-2.75 9.15-4.5s4.95-2.3 3.1-3.8Z"/><mask id="d" fill="#fff"><path fill-rule="evenodd" d="M10.769 21.562a2.16 2.16 0 0 0-1.917 2.447l.314 2.342-3.063.333a1.947 1.947 0 0 0-1.73 2.207 2.07 2.07 0 0 0 2.264 1.773l3.064-.333.314 2.342a2.296 2.296 0 0 0 2.51 1.967 2.16 2.16 0 0 0 1.918-2.447l-.315-2.342 3.064-.333a1.947 1.947 0 0 0 1.729-2.207 2.07 2.07 0 0 0-2.264-1.773l-3.063.333-.315-2.342a2.296 2.296 0 0 0-2.51-1.967Z" clip-rule="evenodd"/></mask><path fill="#B6FF6D" fill-rule="evenodd" d="M10.769 21.562a2.16 2.16 0 0 0-1.917 2.447l.314 2.342-3.063.333a1.947 1.947 0 0 0-1.73 2.207 2.07 2.07 0 0 0 2.264 1.773l3.064-.333.314 2.342a2.296 2.296 0 0 0 2.51 1.967 2.16 2.16 0 0 0 1.918-2.447l-.315-2.342 3.064-.333a1.947 1.947 0 0 0 1.729-2.207 2.07 2.07 0 0 0-2.264-1.773l-3.063.333-.315-2.342a2.296 2.296 0 0 0-2.51-1.967Z" clip-rule="evenodd"/><path fill="#281342" d="m8.852 24.01.793-.107-.793.107Zm1.917-2.448.086.796-.086-.796Zm-1.603 4.79.087.795.816-.089-.11-.813-.793.106Zm-3.063.332-.087-.795.087.795Zm-1.73 2.207.794-.107-.793.107Zm2.264 1.773.087.795-.087-.795Zm3.064-.333.793-.106-.104-.773-.775.084.086.795Zm.314 2.342.793-.106-.793.106Zm2.51 1.967-.086-.796.087.796Zm1.918-2.447.793-.107-.793.107Zm-.315-2.342-.086-.796-.816.089.11.813.792-.106Zm3.064-.333-.087-.795.087.795Zm-.535-3.98-.086-.795.086.795Zm-3.063.333-.793.106.104.773.775-.084-.086-.795Zm-.315-2.342.793-.107-.793.107Zm-3.634.374a1.36 1.36 0 0 1 1.21-1.545l-.172-1.59a2.96 2.96 0 0 0-2.624 3.348l1.586-.213Zm.314 2.342-.314-2.342-1.586.213.314 2.342 1.586-.213Zm-3.77 1.234 3.064-.332-.173-1.591-3.064.333.173 1.59Zm-1.022 1.305a1.147 1.147 0 0 1 1.022-1.305l-.173-1.59a2.747 2.747 0 0 0-2.435 3.108l1.586-.213ZM6.55 29.87a1.27 1.27 0 0 1-1.384-1.085l-1.586.213a2.87 2.87 0 0 0 3.143 2.462l-.173-1.59Zm3.064-.333-3.064.333.173 1.59 3.063-.332-.172-1.591Zm1.193 3.03-.314-2.341-1.586.213.315 2.342 1.585-.213Zm1.631 1.278a1.496 1.496 0 0 1-1.63-1.277l-1.586.213a3.096 3.096 0 0 0 3.389 2.655l-.173-1.59Zm1.21-1.545a1.36 1.36 0 0 1-1.21 1.545l.173 1.591a2.96 2.96 0 0 0 2.624-3.349l-1.586.213Zm-.314-2.342.315 2.342 1.586-.213-.315-2.342-1.586.213Zm3.77-1.234-3.063.332.173 1.591 3.063-.332-.173-1.591Zm1.023-1.305a1.147 1.147 0 0 1-1.023 1.305l.173 1.59a2.747 2.747 0 0 0 2.435-3.108l-1.585.213Zm-1.385-1.084a1.27 1.27 0 0 1 1.385 1.084l1.585-.213a2.87 2.87 0 0 0-3.142-2.462l.172 1.59Zm-3.063.332 3.063-.332-.172-1.591-3.064.332.173 1.591Zm-1.194-3.03.315 2.341 1.585-.213-.314-2.342-1.586.213Zm-1.63-1.278a1.496 1.496 0 0 1 1.63 1.277l1.586-.213a3.096 3.096 0 0 0-3.39-2.655l.173 1.59Z" mask="url(#d)"/></g><defs><linearGradient id="b" x1="20.648" x2="20.648" y1="4.197" y2="28.755" gradientUnits="userSpaceOnUse"><stop stop-color="#EDFFF1"/><stop offset="1" stop-color="#D9D9D9" stop-opacity="0"/></linearGradient><linearGradient id="c" x1="27.195" x2="28.698" y1="24.5" y2="31.962" gradientUnits="userSpaceOnUse"><stop stop-color="#EDFFF1"/><stop offset="1" stop-color="#D9D9D9" stop-opacity="0"/></linearGradient><clipPath id="a"><path fill="#fff" d="M.042 4.423 36.424.325 40.05 32.5 3.666 36.6z"/></clipPath></defs></svg>