<svg width="42" height="37" viewBox="0 0 42 37" fill="none" xmlns="http://www.w3.org/2000/svg">
<g clip-path="url(#clip0_180_28168)">
<path d="M25.2423 9.18339C25.2423 9.18339 24.0904 9.13762 23.0517 10.7593C22.0683 9.21255 20.0376 8.6819 18.4159 9.58504C18.0291 9.79964 17.7012 10.0792 17.4333 10.3993L13.8459 5.21135C12.7509 3.62778 10.5782 3.23147 8.99462 4.32646C7.41106 5.42146 7.01474 7.59421 8.10974 9.17777L14.2122 18.0031C13.8125 18.2794 13.4473 18.6195 13.1364 19.0263C11.5376 21.1104 11.9314 24.0962 14.0165 25.6943L18.2395 28.9332C19.4773 29.8829 20.5777 29.8823 22.4295 29.7361C24.1378 29.6918 26.1302 29.3469 28.1873 28.6834C31.2492 27.6962 33.7802 26.2185 35.2324 24.7223C35.8474 24.279 36.273 23.6261 36.4382 22.9002C36.4382 22.9002 36.6544 19.9402 32.6605 12.9401C30.3554 8.58345 28.6378 10.1298 28.6378 10.1298C28.1723 10.4516 28.0965 10.6917 27.8028 10.5445C27.8028 10.5445 26.7474 8.73066 25.2442 9.18209" fill="#7F58FF"/>
<path d="M8.73254 7.53095C7.64407 3.2986 11.4327 2.83101 13.4827 4.63098L17.2827 10.131C18.0327 10.131 17.6827 9.83093 19.3327 9.38097C21.0315 8.91767 22.3623 9.80132 23.2808 10.8768C23.3075 10.2654 23.7158 9.71951 24.6327 9.38097C26.0628 8.85292 27.0895 9.93772 27.6269 10.9182C27.7727 10.6338 28.1002 10.3524 28.7327 10.131C30.7327 9.43097 33.1327 14.331 34.4327 17.831C35.7327 21.331 34.1327 24.331 31.6327 24.731C29.1327 25.131 29.2327 26.031 23.5327 28.131C17.8327 30.231 19.6327 28.781 15.2327 25.381C12.2774 23.0974 12.3509 20.164 14.2326 19.231C14.8572 18.9213 15.8581 20.7696 16.5597 21.9059L17.2827 22.737C17.9279 22.7579 19.0247 22.5197 18.2505 21.3997C17.4762 20.2797 11.5826 11.6872 8.73254 7.53095Z" fill="url(#paint0_linear_180_28168)"/>
<path d="M11.6127 14.7063L11.6126 14.7064L11.6153 14.7099C11.6828 14.797 11.7504 14.8841 11.818 14.9712C12.5274 15.8854 13.2372 16.8003 13.9636 17.7038L14.0949 17.6131C13.506 16.6145 12.9006 15.6273 12.2957 14.6409C12.238 14.5469 12.1804 14.4529 12.1228 14.3589L12.1229 14.3589L12.1207 14.3557C11.7219 13.7705 11.2066 13.03 10.6665 12.2539C9.79141 10.9963 8.85113 9.64512 8.23561 8.70912C8.13688 8.52895 8.04976 8.31318 7.97982 8.11502C7.44204 6.5345 8.25762 5.13475 9.48551 4.44669C10.7133 3.7587 12.3333 3.7934 13.3973 5.06707C13.86 5.66696 14.7202 6.92495 15.4843 8.04245C15.9359 8.7029 16.3539 9.31427 16.6365 9.71171L16.6365 9.71175L16.6384 9.71429L16.6387 9.71468C17.4138 10.7171 18.1896 11.7202 18.9889 12.7073L19.1201 12.6165C18.4779 11.5207 17.814 10.44 17.1497 9.36072L17.1501 9.36053L17.1454 9.35438C16.799 8.89672 16.3715 8.25602 15.9145 7.57118C15.7364 7.30428 15.5538 7.03068 15.3699 6.7586C14.7165 5.79242 14.0446 4.84417 13.5012 4.30344L13.5014 4.30318L13.4956 4.29838C12.5464 3.51703 11.539 3.26103 10.6137 3.37711C9.69013 3.49299 8.85465 3.97881 8.24477 4.67033C7.02564 6.05264 6.6993 8.26988 8.37744 10.0276L8.37794 10.0283L8.38207 10.0343L8.38622 10.0403L8.3904 10.0463L8.3946 10.0524L8.39883 10.0585L8.40308 10.0647L8.40736 10.0709L8.41166 10.0771L8.41599 10.0833L8.42034 10.0896L8.42472 10.096L8.42912 10.1023L8.43354 10.1087L8.43799 10.1152L8.44246 10.1216L8.44696 10.1281L8.45148 10.1347L8.45603 10.1412L8.4606 10.1479L8.46519 10.1545L8.46981 10.1612L8.47445 10.1679L8.47911 10.1746L8.4838 10.1814L8.4885 10.1882L8.49324 10.1951L8.49799 10.2019L8.50277 10.2088L8.50757 10.2158L8.5124 10.2228L8.51724 10.2298L8.52211 10.2368L8.527 10.2439L8.53192 10.251L8.53685 10.2581L8.54181 10.2653L8.54679 10.2725L8.55179 10.2797L8.55681 10.287L8.56186 10.2943L8.56692 10.3016L8.57201 10.309L8.57712 10.3164L8.58225 10.3238L8.5874 10.3312L8.59258 10.3387L8.59777 10.3462L8.60298 10.3538L8.60822 10.3613L8.61348 10.3689L8.61875 10.3766L8.62405 10.3842L8.62937 10.3919L8.63471 10.3996L8.64006 10.4074L8.64544 10.4152L8.65084 10.423L8.65626 10.4308L8.6617 10.4387L8.66715 10.4466L8.67263 10.4545L8.67813 10.4624L8.68364 10.4704L8.68918 10.4784L8.69473 10.4865L8.70031 10.4945L8.7059 10.5026L8.71151 10.5107L8.71714 10.5189L8.72279 10.527L8.72846 10.5352L8.73414 10.5435L8.73985 10.5517L8.74557 10.56L8.75131 10.5683L8.75707 10.5766L8.76285 10.585L8.76864 10.5933L8.77446 10.6018L8.78029 10.6102L8.78613 10.6186L8.792 10.6271L8.79788 10.6356L8.80378 10.6442L8.8097 10.6527L8.81564 10.6613L8.82159 10.6699L8.82756 10.6785L8.83354 10.6872L8.83954 10.6959L8.84556 10.7046L8.8516 10.7133L8.85765 10.7221L8.86372 10.7308L8.8698 10.7396L8.8759 10.7485L8.88202 10.7573L8.88815 10.7662L8.8943 10.7751L8.90046 10.784L8.90664 10.7929L8.91284 10.8019L8.91905 10.8109L8.92528 10.8199L8.93152 10.8289L8.93777 10.8379L8.94404 10.847L8.95033 10.8561L8.95663 10.8652L8.96295 10.8743L8.96928 10.8835L8.97562 10.8927L8.98198 10.9019L8.98836 10.9111L8.99474 10.9203L9.00115 10.9296L9.00756 10.9389L9.01399 10.9482L9.02044 10.9575L9.0269 10.9668L9.03337 10.9762L9.03985 10.9856L9.04635 10.995L9.05286 11.0044L9.05939 11.0138L9.06593 11.0233L9.07248 11.0327L9.07904 11.0422L9.08562 11.0518L9.09221 11.0613L9.09881 11.0708L9.10543 11.0804L9.11205 11.09L9.11869 11.0996L9.12535 11.1092L9.13201 11.1188L9.13869 11.1285L9.14538 11.1382L9.15208 11.1479L9.15879 11.1576L9.16551 11.1673L9.17225 11.177L9.179 11.1868L9.18575 11.1966L9.19252 11.2064L9.1993 11.2162L9.2061 11.226L9.2129 11.2358L9.21971 11.2457L9.22654 11.2555L9.23337 11.2654L9.24022 11.2753L9.24707 11.2852L9.25394 11.2952L9.26082 11.3051L9.26771 11.3151L9.2746 11.3251L9.28151 11.335L9.28843 11.3451L9.29535 11.3551L9.30229 11.3651L9.30924 11.3751L9.31619 11.3852L9.32316 11.3953L9.33013 11.4054L9.33712 11.4155L9.34411 11.4256L9.35111 11.4357L9.35812 11.4458L9.36514 11.456L9.37217 11.4662L9.37921 11.4763L9.38625 11.4865L9.3933 11.4967L9.40037 11.5069L9.40744 11.5172L9.41451 11.5274L9.4216 11.5376L9.4287 11.5479L9.4358 11.5582L9.44291 11.5685L9.45002 11.5788L9.45715 11.5891L9.46428 11.5994L9.47142 11.6097L9.47857 11.62L9.48572 11.6304L9.49288 11.6407L9.50005 11.6511L9.50723 11.6615L9.51441 11.6719L9.5216 11.6823L9.52879 11.6927L9.53599 11.7031L9.5432 11.7135L9.55041 11.7239L9.55763 11.7344L9.56486 11.7448L9.57209 11.7553L9.57933 11.7657L9.58657 11.7762L9.59382 11.7867L9.60108 11.7972L9.60834 11.8077L9.6156 11.8182L9.62287 11.8287L9.63015 11.8392L9.63743 11.8498L9.64471 11.8603L9.652 11.8709L9.6593 11.8814L9.6666 11.892L9.6739 11.9025L9.68121 11.9131L9.68853 11.9237L9.69584 11.9343L9.70317 11.9448L9.71049 11.9554L9.71782 11.966L9.72516 11.9766L9.73249 11.9873L9.73983 11.9979L9.74718 12.0085L9.75453 12.0191L9.76188 12.0297L9.76923 12.0404L9.77659 12.051L9.78395 12.0617L9.79132 12.0723L9.79868 12.083L9.80605 12.0936L9.81342 12.1043L9.8208 12.115L9.82818 12.1256L9.83556 12.1363L9.84294 12.147L9.85032 12.1577L9.85771 12.1683L9.8651 12.179L9.87249 12.1897L9.87988 12.2004L9.88727 12.2111L9.89467 12.2218L9.90206 12.2325L9.90946 12.2432L9.91686 12.2539L9.92426 12.2646L9.93166 12.2753L9.93907 12.286L9.94647 12.2967L9.95387 12.3074L9.96128 12.3181L9.96868 12.3288L9.97609 12.3395L9.9835 12.3503L9.9909 12.361L9.99831 12.3717L10.0057 12.3824L10.0131 12.3931L10.0205 12.4038L10.0279 12.4145L10.0353 12.4252L10.0427 12.4359L10.0502 12.4467L10.0576 12.4574L10.065 12.4681L10.0724 12.4788L10.0798 12.4895L10.0872 12.5002L10.0946 12.5109L10.102 12.5216L10.1094 12.5323L10.1168 12.543L10.1242 12.5537L10.1316 12.5644L10.1389 12.5751L10.1463 12.5857L10.1537 12.5964L10.1611 12.6071L10.1685 12.6178L10.1759 12.6285L10.1833 12.6391L10.1906 12.6498L10.198 12.6605L10.2054 12.6711L10.2128 12.6818L10.2201 12.6925L10.2275 12.7031L10.2348 12.7137L10.2422 12.7244L10.2496 12.735L10.2569 12.7457L10.2643 12.7563L10.2716 12.7669L10.2789 12.7775L10.2863 12.7881L10.2936 12.7987L10.3009 12.8093L10.3083 12.8199L10.3156 12.8305L10.3229 12.8411L10.3302 12.8517L10.3375 12.8623L10.3448 12.8728L10.3521 12.8834L10.3594 12.8939L10.3667 12.9045L10.374 12.915L10.3813 12.9255L10.3886 12.9361L10.3958 12.9466L10.4031 12.9571L10.4104 12.9676L10.4176 12.9781L10.4249 12.9886L10.4321 12.999L10.4393 13.0095L10.4466 13.02L10.4538 13.0304L10.461 13.0408L10.4682 13.0513L10.4754 13.0617L10.4826 13.0721L10.4898 13.0825L10.497 13.0929L10.5042 13.1033L10.5114 13.1137L10.5186 13.124L10.5257 13.1344L10.5329 13.1447L10.54 13.1551L10.5472 13.1654L10.5543 13.1757L10.5614 13.186L10.5685 13.1963L10.5756 13.2066L10.5827 13.2169L10.5898 13.2271L10.5969 13.2374L10.604 13.2476L10.6111 13.2578L10.6181 13.2681L10.6252 13.2783L10.6322 13.2884L10.6393 13.2986L10.6463 13.3088L10.6533 13.3189L10.6603 13.3291L10.6673 13.3392L10.6743 13.3493L10.6813 13.3594L10.6883 13.3695L10.6952 13.3796L10.7022 13.3896L10.7092 13.3997L10.7161 13.4097L10.723 13.4197L10.7299 13.4297L10.7368 13.4397L10.7437 13.4497L10.7506 13.4597L10.7575 13.4696L10.7644 13.4795L10.7712 13.4895L10.7781 13.4994L10.7849 13.5092L10.7917 13.5191L10.7985 13.529L10.8053 13.5388L10.8121 13.5486L10.8189 13.5584L10.8257 13.5682L10.8324 13.578L10.8392 13.5878L10.8459 13.5975L10.8527 13.6072L10.8594 13.6169L10.8661 13.6266L10.8728 13.6363L10.8794 13.6459L10.8861 13.6556L10.8928 13.6652L10.8994 13.6748L10.906 13.6844L10.9126 13.694L10.9192 13.7035L10.9258 13.713L10.9324 13.7226L10.939 13.732L10.9455 13.7415L10.9521 13.751L10.9586 13.7604L10.9651 13.7698L10.9716 13.7792L10.9781 13.7886L10.9846 13.798L10.991 13.8073L10.9975 13.8166L11.0039 13.8259L11.0103 13.8352L11.0167 13.8445L11.0231 13.8537L11.0295 13.8629L11.0358 13.8721L11.0422 13.8813L11.0485 13.8905L11.0548 13.8996L11.0611 13.9087L11.0674 13.9178L11.0737 13.9269L11.0799 13.9359L11.0862 13.9449L11.0924 13.9539L11.0986 13.9629L11.1048 13.9719L11.111 13.9808L11.1172 13.9897L11.1233 13.9986L11.1294 14.0075L11.1356 14.0163L11.1417 14.0252L11.1477 14.034L11.1538 14.0427L11.1599 14.0515L11.1659 14.0602L11.1719 14.0689L11.1779 14.0776L11.1839 14.0863L11.1899 14.0949L11.1958 14.1035L11.2018 14.1121L11.2077 14.1206L11.2136 14.1292L11.2195 14.1377L11.2253 14.1462L11.2312 14.1546L11.237 14.1631L11.2428 14.1715L11.2486 14.1798L11.2544 14.1882L11.2601 14.1965L11.2659 14.2048L11.2716 14.2131L11.2773 14.2214L11.283 14.2296L11.2887 14.2378L11.2943 14.2459L11.3 14.2541L11.3056 14.2622L11.3112 14.2703L11.3167 14.2784L11.3223 14.2864L11.3278 14.2944L11.3333 14.3024L11.3388 14.3103L11.3443 14.3182L11.3498 14.3261L11.3552 14.334L11.3606 14.3418L11.366 14.3496L11.3714 14.3574L11.3768 14.3652L11.3821 14.3729L11.3874 14.3806L11.3927 14.3882L11.398 14.3959L11.4032 14.4035L11.4085 14.411L11.4137 14.4186L11.4189 14.4261L11.4241 14.4336L11.4292 14.441L11.4344 14.4485L11.4395 14.4558L11.4445 14.4632L11.4496 14.4705L11.4547 14.4778L11.4597 14.4851L11.4647 14.4923L11.4697 14.4995L11.4746 14.5067L11.4796 14.5138L11.4845 14.5209L11.4894 14.528L11.4942 14.5351L11.4991 14.5421L11.5039 14.549L11.5087 14.556L11.5135 14.5629L11.5182 14.5698L11.523 14.5766L11.5277 14.5834L11.5324 14.5902L11.537 14.597L11.5417 14.6037L11.5463 14.6103L11.5509 14.617L11.5555 14.6236L11.56 14.6302L11.5645 14.6367L11.569 14.6432L11.5735 14.6497L11.5779 14.6561L11.5824 14.6625L11.5868 14.6689L11.5911 14.6752L11.5955 14.6815L11.5998 14.6878L11.6041 14.694L11.6084 14.7002L11.6127 14.7063Z" fill="#281342" stroke="#281342" stroke-width="0.16"/>
<path d="M29.2642 9.81998L29.2634 9.81882L29.2113 9.82984C28.9936 9.87592 28.7903 9.95918 28.6004 10.0592L28.6718 10.2023C29.0794 10.0096 29.4631 9.9747 29.8157 10.0661C30.1693 10.1578 30.4987 10.3785 30.7928 10.7088L30.7928 10.7088L30.794 10.7102C31.2041 11.1499 31.5702 11.7194 31.9048 12.2399C32.012 12.4067 32.116 12.5685 32.2171 12.7193C32.48 13.2449 33.0685 14.448 33.3162 14.9586L33.3171 14.9604C34.2051 16.6781 35.0259 18.4368 35.6558 20.261C35.7085 20.4542 35.771 20.6516 35.8338 20.8494C35.8516 20.9057 35.8695 20.9621 35.8871 21.0184C35.9675 21.2747 36.044 21.5316 36.0986 21.7882C36.2078 22.3013 36.2274 22.8048 36.0185 23.2844L36.0181 23.2853C35.8184 23.7603 35.4761 24.1665 35.0588 24.4714L35.0584 24.4709L35.0512 24.4777C31.7216 27.611 26.8599 29.1822 22.3365 29.4092L22.3365 29.4092L22.3347 29.4093L22.2877 29.4127C21.2208 29.4898 20.0838 29.572 19.1437 29.0884C18.6 28.7772 17.7095 28.1049 16.817 27.4106C16.5603 27.2109 16.3036 27.0095 16.0554 26.8148C15.443 26.3344 14.8825 25.8946 14.5024 25.6218L14.5024 25.6217L14.4994 25.6197C12.3743 24.234 11.8612 21.1846 13.4113 19.1806L13.4104 19.1799L13.4142 19.1753C13.4468 19.1359 13.4861 19.084 13.5287 19.0277C13.5588 18.9881 13.5904 18.9462 13.6225 18.9051C13.7028 18.8023 13.7907 18.6972 13.8813 18.613C13.9734 18.5274 14.0603 18.4711 14.1377 18.4543C14.2053 18.4395 14.2727 18.453 14.3431 18.5268C15.0542 19.6398 15.9602 20.6343 16.8496 21.6104C17.0645 21.8462 17.2784 22.081 17.4883 22.3161L17.6116 22.2143C17.3721 21.8999 17.1276 21.589 16.8834 21.2784C16.1441 20.3381 15.4065 19.3998 14.81 18.3726C14.7336 18.2022 14.603 18.0192 14.3861 17.951L14.3862 17.9509L14.3814 17.9497C14.0702 17.8726 13.7829 18.0056 13.5436 18.1907C13.3085 18.3727 13.105 18.6166 12.9519 18.7999L12.9499 18.8023L12.9458 18.8052L12.9386 18.814C11.6114 20.4418 11.5488 22.9181 12.6999 24.653C13.0643 25.231 13.5926 25.7269 14.1287 26.115L17.2234 28.4884L17.2234 28.4884L17.2244 28.4892C17.3431 28.5771 17.4702 28.6761 17.6034 28.78L17.6093 28.7846C17.7404 28.8868 17.8771 28.9933 18.0157 29.0971C18.2962 29.3069 18.5888 29.5082 18.8661 29.6411C19.9576 30.199 21.2201 30.1136 22.3713 30.0265C27.0337 29.7904 32.0313 28.1726 35.4818 24.9201C35.6577 24.8117 35.8829 24.5932 36.0866 24.3429C36.2938 24.0883 36.4865 23.7913 36.5862 23.5271L36.5869 23.5274L36.5893 23.517C36.97 21.8837 36.3405 19.8385 35.4447 17.8564C34.8607 16.5643 34.1566 15.2854 33.5343 14.1549C33.2015 13.5505 32.8921 12.9886 32.637 12.4897L32.6334 12.4828L32.6286 12.4766C32.4996 12.313 32.3638 12.124 32.2185 11.9219C32.1442 11.8187 32.0676 11.712 31.9881 11.6036C31.7545 11.2848 31.4991 10.954 31.2203 10.6642C30.6778 10.1002 30.0294 9.67423 29.2642 9.81998Z" fill="#281342" stroke="#281342" stroke-width="0.16"/>
<path d="M23.6118 11.0775C22.5744 8.69537 19.3457 8.11871 17.6037 10.0744L17.5499 10.1349L17.611 10.188L17.6458 10.2182L17.6998 10.265L17.7524 10.2167C18.212 9.79442 18.7936 9.51027 19.393 9.39725L19.3929 9.39407L19.3935 9.39653C20.3654 9.18595 21.2112 9.47534 21.9355 10.013C22.6618 10.552 23.2627 11.3385 23.7369 12.1122L23.7704 12.1669L23.831 12.1461L23.8749 12.1311L23.9386 12.1092L23.9279 12.0427C23.8732 11.703 23.7556 11.3832 23.6118 11.0775Z" fill="#281342" stroke="#281342" stroke-width="0.16"/>
<path d="M25.8856 9.45928L25.8856 9.4593L25.8873 9.45967C26.6858 9.63821 27.2269 10.1783 27.645 10.8573C27.9686 11.3829 28.2136 11.9827 28.4467 12.5533C28.516 12.7231 28.5843 12.8902 28.6532 13.052L28.6779 13.1099L28.7399 13.0996L28.7848 13.0922L28.8478 13.0818L28.8516 13.0181C28.9435 11.4927 28.0461 10.0141 26.8841 9.32095C26.3017 8.97346 25.6471 8.82002 25.0133 8.96339C24.3783 9.10705 23.7768 9.5459 23.2967 10.3586L23.2508 10.4363L23.3335 10.4726L23.3754 10.4909L23.4415 10.5198L23.477 10.457C23.9488 9.62452 24.966 9.23277 25.8856 9.45928Z" fill="#281342" stroke="#281342" stroke-width="0.16"/>
<path d="M33.5043 23.2248L33.5212 23.2197L33.6267 23.1881L33.6436 23.183L33.6594 23.1751C33.7262 23.1414 33.7936 23.1104 33.8616 23.0821C34.4353 22.9075 35.0938 22.9725 35.7089 23.2207C36.4435 23.517 37.0868 24.0636 37.417 24.7188L37.5093 24.902C37.8087 25.4961 37.8291 26.2764 37.6219 27.0216C37.2041 27.6284 36.5522 28.1568 35.8344 28.5186L35.8343 28.5184L35.8269 28.5226L29.3926 32.1147L26.3441 33.5086L26.344 33.5085L26.3372 33.5119C25.0249 34.1733 23.4249 33.6455 22.7635 32.3332L22.6712 32.15C22.3417 31.4962 22.2937 30.6556 22.5016 29.8892C22.7096 29.1225 23.1648 28.4604 23.8062 28.1372L23.8064 28.1376L23.8182 28.1305L30.6403 24.0824L33.5043 23.2248ZM23.4798 27.8572C21.7731 28.7215 21.0877 30.8048 21.949 32.5139L22.0413 32.6971C22.9147 34.4301 25.1015 34.8764 26.7894 34.0258L26.7895 34.026L26.7969 34.0218L29.5735 32.4718L36.3124 29.3903L36.3125 29.3905L36.3192 29.387C37.0853 29.001 37.6557 28.2035 37.9441 27.3358C37.9599 27.2884 37.9748 27.2408 37.9889 27.1929C38.0167 27.151 38.0434 27.1088 38.0692 27.0661C38.5286 26.307 38.6755 25.4191 38.2315 24.538L38.1392 24.3549C37.318 22.7254 35.3871 22.0236 33.7271 22.7048C33.6063 22.7426 33.488 22.7897 33.3731 22.8465L30.502 23.7063L30.4786 23.7133L30.4785 23.7134L30.4575 23.7258L30.4573 23.7259L23.4798 27.8572Z" fill="#281342" stroke="#281342" stroke-width="0.4"/>
<path d="M24.7324 27.4484C23.9291 28.0675 23.2207 28.6508 22.6918 29.1092C23.1146 28.588 23.8358 28.0228 24.7324 27.4484C27.0326 25.6757 30.1117 23.609 31.9897 23.3364L34.5952 22.8254C32.1382 23.7307 27.562 25.6356 24.7324 27.4484Z" fill="#281342"/>
<path d="M22.1276 32.4243C21.3149 30.8118 21.9634 28.8457 23.5759 28.0331L33.5693 22.9969C35.1819 22.1842 37.1479 22.8327 37.9605 24.4452L38.0529 24.6284C38.8655 26.241 38.2171 28.207 36.6045 29.0197L26.6111 34.0559C24.9986 34.8685 23.0325 34.2201 22.2199 32.6075L22.1276 32.4243Z" fill="#7F58FF"/>
<path d="M35.5501 23.7C34.0701 22.5 26.7668 27.0667 23.3001 29.5C22.9668 30.1167 22.5001 31.48 23.3001 32C24.3001 32.65 28.4501 29.25 32.4501 27.5C36.4501 25.75 37.4001 25.2 35.5501 23.7Z" fill="url(#paint1_linear_180_28168)" fill-opacity="0.5"/>
<g filter="url(#filter0_d_180_28168)">
<mask id="path-11-inside-1_180_28168" fill="white">
<path fill-rule="evenodd" clip-rule="evenodd" d="M11.724 21.5622C10.5014 21.6949 9.64305 22.7905 9.80676 24.0093L10.1213 26.3511L7.05768 26.6837C5.95523 26.8034 5.1812 27.7914 5.32883 28.8904C5.47645 29.9895 6.48984 30.7834 7.59229 30.6637L10.6559 30.3312L10.9705 32.673C11.1342 33.8917 12.258 34.7722 13.4805 34.6395C14.7031 34.5068 15.5614 33.4111 15.3977 32.1924L15.0832 29.8506L18.1466 29.518C19.2491 29.3983 20.0231 28.4103 19.8755 27.3113C19.7279 26.2122 18.7145 25.4183 17.612 25.538L14.5486 25.8705L14.234 23.5287C14.0703 22.3099 12.9465 21.4295 11.724 21.5622Z"/>
</mask>
<path fill-rule="evenodd" clip-rule="evenodd" d="M11.724 21.5622C10.5014 21.6949 9.64305 22.7905 9.80676 24.0093L10.1213 26.3511L7.05768 26.6837C5.95523 26.8034 5.1812 27.7914 5.32883 28.8904C5.47645 29.9895 6.48984 30.7834 7.59229 30.6637L10.6559 30.3312L10.9705 32.673C11.1342 33.8917 12.258 34.7722 13.4805 34.6395C14.7031 34.5068 15.5614 33.4111 15.3977 32.1924L15.0832 29.8506L18.1466 29.518C19.2491 29.3983 20.0231 28.4103 19.8755 27.3113C19.7279 26.2122 18.7145 25.4183 17.612 25.538L14.5486 25.8705L14.234 23.5287C14.0703 22.3099 12.9465 21.4295 11.724 21.5622Z" fill="#B6FF6D"/>
<path d="M9.80676 24.0093L10.5996 23.9028L10.5996 23.9028L9.80676 24.0093ZM11.724 21.5622L11.8103 22.3575L11.724 21.5622ZM10.1213 26.3511L10.2077 27.1464L11.0234 27.0579L10.9142 26.2446L10.1213 26.3511ZM7.05768 26.6837L6.97134 25.8884L7.05768 26.6837ZM5.32883 28.8904L6.1217 28.7839L5.32883 28.8904ZM7.59229 30.6637L7.67863 31.4591L7.67863 31.4591L7.59229 30.6637ZM10.6559 30.3312L11.4488 30.2247L11.345 29.4517L10.5696 29.5358L10.6559 30.3312ZM10.9705 32.673L11.7634 32.5665L10.9705 32.673ZM13.4805 34.6395L13.3942 33.8441L13.4805 34.6395ZM15.3977 32.1924L16.1906 32.0859L15.3977 32.1924ZM15.0832 29.8506L14.9968 29.0552L14.1811 29.1438L14.2903 29.9571L15.0832 29.8506ZM18.1466 29.518L18.0603 28.7227L18.1466 29.518ZM17.612 25.538L17.5257 24.7426L17.612 25.538ZM14.5486 25.8705L13.7557 25.977L13.8595 26.75L14.6349 26.6658L14.5486 25.8705ZM14.234 23.5287L15.0269 23.4222L15.0269 23.4222L14.234 23.5287ZM10.5996 23.9028C10.4958 23.1298 11.0349 22.4417 11.8103 22.3575L11.6376 20.7669C9.96792 20.9481 8.79029 22.4513 9.01388 24.1158L10.5996 23.9028ZM10.9142 26.2446L10.5996 23.9028L9.01388 24.1158L9.32844 26.4576L10.9142 26.2446ZM7.14402 27.479L10.2077 27.1464L10.035 25.5558L6.97134 25.8884L7.14402 27.479ZM6.1217 28.7839C6.03395 28.1306 6.48873 27.5502 7.14402 27.479L6.97134 25.8884C5.42174 26.0566 4.32844 27.4521 4.53595 28.9969L6.1217 28.7839ZM7.50595 29.8684C6.83489 29.9413 6.21157 29.4529 6.1217 28.7839L4.53595 28.9969C4.74134 30.526 6.1448 31.6256 7.67863 31.4591L7.50595 29.8684ZM10.5696 29.5358L7.50595 29.8684L7.67863 31.4591L10.7423 31.1265L10.5696 29.5358ZM11.7634 32.5665L11.4488 30.2247L9.86305 30.4377L10.1776 32.7795L11.7634 32.5665ZM13.3942 33.8441C12.603 33.93 11.8693 33.3552 11.7634 32.5665L10.1776 32.7795C10.3991 34.4283 11.9129 35.6143 13.5669 35.4348L13.3942 33.8441ZM14.6049 32.2989C14.7087 33.0719 14.1696 33.76 13.3942 33.8441L13.5669 35.4348C15.2366 35.2535 16.4142 33.7504 16.1906 32.0859L14.6049 32.2989ZM14.2903 29.9571L14.6049 32.2989L16.1906 32.0859L15.8761 29.744L14.2903 29.9571ZM18.0603 28.7227L14.9968 29.0552L15.1695 30.6459L18.233 30.3133L18.0603 28.7227ZM19.0826 27.4178C19.1704 28.0711 18.7156 28.6515 18.0603 28.7227L18.233 30.3133C19.7826 30.1451 20.8759 28.7496 20.6684 27.2048L19.0826 27.4178ZM17.6984 26.3333C18.3694 26.2604 18.9928 26.7488 19.0826 27.4178L20.6684 27.2048C20.463 25.6757 19.0595 24.5761 17.5257 24.7426L17.6984 26.3333ZM14.6349 26.6658L17.6984 26.3333L17.5257 24.7426L14.4622 25.0752L14.6349 26.6658ZM13.4411 23.6352L13.7557 25.977L15.3414 25.764L15.0269 23.4222L13.4411 23.6352ZM11.8103 22.3575C12.6015 22.2716 13.3352 22.8465 13.4411 23.6352L15.0269 23.4222C14.8054 21.7734 13.2916 20.5873 11.6376 20.7669L11.8103 22.3575Z" fill="#281342" mask="url(#path-11-inside-1_180_28168)"/>
</g>
</g>
<defs>
<filter id="filter0_d_180_28168" x="5.31079" y="21.549" width="14.5828" height="13.924" filterUnits="userSpaceOnUse" color-interpolation-filters="sRGB">
<feFlood flood-opacity="0" result="BackgroundImageFix"/>
<feColorMatrix in="SourceAlpha" type="matrix" values="0 0 0 0 0 0 0 0 0 0 0 0 0 0 0 0 0 0 127 0" result="hardAlpha"/>
<feOffset dy="0.820209"/>
<feComposite in2="hardAlpha" operator="out"/>
<feColorMatrix type="matrix" values="0 0 0 0 0 0 0 0 0 0 0 0 0 0 0 0 0 0 0.31 0"/>
<feBlend mode="normal" in2="BackgroundImageFix" result="effect1_dropShadow_180_28168"/>
<feBlend mode="normal" in="SourceGraphic" in2="effect1_dropShadow_180_28168" result="shape"/>
</filter>
<linearGradient id="paint0_linear_180_28168" x1="21.6033" y1="4.1969" x2="21.6033" y2="28.7548" gradientUnits="userSpaceOnUse">
<stop stop-color="#EDFFF1"/>
<stop offset="1" stop-color="#D9D9D9" stop-opacity="0"/>
</linearGradient>
<linearGradient id="paint1_linear_180_28168" x1="28.1502" y1="24.5" x2="29.6533" y2="31.962" gradientUnits="userSpaceOnUse">
<stop stop-color="#EDFFF1"/>
<stop offset="1" stop-color="#D9D9D9" stop-opacity="0"/>
</linearGradient>
<clipPath id="clip0_180_28168">
<rect width="36.6126" height="32.38" fill="white" transform="translate(0.996582 4.42303) rotate(-6.42687)"/>
</clipPath>
</defs>
</svg>
