<svg width="48" height="50" viewBox="0 0 48 50" fill="none" xmlns="http://www.w3.org/2000/svg">
<path d="M29.8208 16.7296C29.8208 16.7296 28.3809 16.6724 27.0825 18.6995C25.8533 16.766 23.3149 16.1027 21.2878 17.2316C20.8043 17.4999 20.3944 17.8494 20.0595 18.2495L15.5753 11.7645C14.2066 9.78508 11.4906 9.28969 9.51119 10.6584C7.53173 12.0272 7.03634 14.7431 8.40509 16.7226L16.0331 27.7542C15.5336 28.0996 15.077 28.5248 14.6884 29.0332C12.6899 31.6383 13.1822 35.3706 15.7885 37.3683L21.0673 41.4168C22.6145 42.604 23.99 42.6032 26.3048 42.4204C28.4401 42.3651 30.9306 41.934 33.502 41.1046C37.3294 39.8706 40.4932 38.0235 42.3084 36.1533C43.0771 35.5991 43.6091 34.783 43.8157 33.8756C43.8157 33.8756 44.0859 30.1757 39.0935 21.4255C36.2122 15.9797 34.0651 17.9126 34.0651 17.9126C33.4833 18.3149 33.3885 18.615 33.0215 18.431C33.0215 18.431 31.7021 16.1637 29.8232 16.728" fill="#1EC593"/>
<path d="M9.18346 14.664C7.82288 9.37359 12.5587 8.7891 15.1212 11.0391L19.8711 17.914C20.8087 17.914 20.3712 17.539 22.4336 16.9765C24.5572 16.3974 26.2206 17.502 27.3688 18.8463C27.4021 18.082 27.9125 17.3997 29.0586 16.9765C30.8463 16.3165 32.1297 17.6725 32.8014 18.898C32.9837 18.5426 33.393 18.1908 34.1837 17.914C36.6837 17.039 39.6836 23.164 41.3086 27.539C42.9336 31.914 40.9336 35.664 37.8086 36.164C34.6836 36.664 34.8086 37.789 27.6836 40.414C20.5586 43.039 22.8086 41.2266 17.3086 36.9766C13.6145 34.1221 13.7065 30.4553 16.0586 29.2891C16.8393 28.902 18.0904 31.2123 18.9674 32.6327L19.8711 33.6716C20.6776 33.6977 22.0487 33.4 21.0809 32C20.1131 30.6 12.746 19.8593 9.18346 14.664Z" fill="url(#paint0_linear_151_31719)"/>
<path d="M12.7841 23.6329L12.7839 23.633L12.7873 23.6374C12.8718 23.7462 12.9563 23.8551 13.0408 23.964C13.9275 25.1068 14.8148 26.2504 15.7228 27.3798L15.8868 27.2664C15.1507 26.0182 14.394 24.7842 13.6379 23.5511C13.5658 23.4336 13.4938 23.3162 13.4218 23.1987L13.4219 23.1986L13.4191 23.1946C12.9206 22.4632 12.2765 21.5376 11.6014 20.5674C10.5075 18.9955 9.33216 17.3065 8.56276 16.1364C8.43935 15.9112 8.33044 15.6415 8.24303 15.3938C7.5708 13.4182 8.59027 11.6685 10.1251 10.8084C11.6598 9.94842 13.6849 9.99179 15.0149 11.5839C15.5932 12.3337 16.6685 13.9062 17.6236 15.3031C18.1881 16.1287 18.7106 16.8929 19.0639 17.3897L19.0638 17.3897L19.0663 17.3929L19.0667 17.3934C20.0355 18.6464 21.0052 19.9004 22.0044 21.1342L22.1684 21.0207C21.3656 19.6509 20.5358 18.3001 19.7054 16.951L19.7058 16.9507L19.7 16.943C19.2671 16.3709 18.7326 15.5701 18.1614 14.714C17.9388 14.3804 17.7106 14.0384 17.4806 13.6983C16.6639 12.4906 15.824 11.3053 15.1447 10.6293L15.145 10.629L15.1377 10.623C13.9512 9.64633 12.692 9.32633 11.5354 9.47143C10.3809 9.61628 9.33657 10.2236 8.57421 11.088C7.0503 12.8159 6.64237 15.5874 8.74005 17.7845L8.74068 17.7854L8.74584 17.7929L8.75103 17.8004L8.75625 17.808L8.7615 17.8156L8.76678 17.8232L8.7721 17.8309L8.77745 17.8386L8.78283 17.8464L8.78823 17.8542L8.79367 17.8621L8.79914 17.87L8.80464 17.878L8.81018 17.886L8.81574 17.894L8.82133 17.9021L8.82695 17.9102L8.8326 17.9184L8.83828 17.9266L8.844 17.9349L8.84974 17.9432L8.85551 17.9515L8.86131 17.9599L8.86714 17.9683L8.87299 17.9768L8.87888 17.9853L8.8848 17.9939L8.89074 18.0025L8.89671 18.0111L8.90271 18.0198L8.90874 18.0285L8.9148 18.0373L8.92089 18.0461L8.927 18.0549L8.93314 18.0638L8.93931 18.0727L8.94551 18.0817L8.95173 18.0907L8.95799 18.0997L8.96426 18.1088L8.97057 18.1179L8.9769 18.1271L8.98326 18.1363L8.98965 18.1455L8.99606 18.1548L9.0025 18.1641L9.00897 18.1734L9.01546 18.1828L9.02198 18.1923L9.02852 18.2017L9.03509 18.2112L9.04169 18.2208L9.04831 18.2303L9.05496 18.24L9.06163 18.2496L9.06833 18.2593L9.07505 18.269L9.0818 18.2788L9.08857 18.2886L9.09537 18.2984L9.10219 18.3083L9.10904 18.3182L9.11591 18.3281L9.1228 18.3381L9.12972 18.3481L9.13667 18.3581L9.14363 18.3682L9.15062 18.3783L9.15764 18.3884L9.16467 18.3986L9.17174 18.4088L9.17882 18.4191L9.18593 18.4294L9.19306 18.4397L9.20021 18.45L9.20739 18.4604L9.21459 18.4708L9.22181 18.4813L9.22905 18.4917L9.23632 18.5022L9.24361 18.5128L9.25092 18.5233L9.25825 18.534L9.2656 18.5446L9.27298 18.5553L9.28038 18.5659L9.28779 18.5767L9.29523 18.5874L9.30269 18.5982L9.31018 18.609L9.31768 18.6199L9.3252 18.6308L9.33275 18.6417L9.34031 18.6526L9.3479 18.6636L9.3555 18.6746L9.36313 18.6856L9.37077 18.6967L9.37844 18.7078L9.38612 18.7189L9.39383 18.73L9.40155 18.7412L9.4093 18.7524L9.41706 18.7636L9.42484 18.7749L9.43265 18.7862L9.44047 18.7975L9.4483 18.8088L9.45616 18.8202L9.46404 18.8316L9.47193 18.843L9.47985 18.8544L9.48778 18.8659L9.49573 18.8774L9.5037 18.8889L9.51168 18.9005L9.51968 18.912L9.5277 18.9236L9.53574 18.9353L9.5438 18.9469L9.55187 18.9586L9.55996 18.9703L9.56806 18.982L9.57619 18.9937L9.58433 19.0055L9.59248 19.0173L9.60066 19.0291L9.60885 19.041L9.61705 19.0528L9.62527 19.0647L9.63351 19.0766L9.64176 19.0886L9.65003 19.1005L9.65832 19.1125L9.66662 19.1245L9.67493 19.1366L9.68326 19.1486L9.69161 19.1607L9.69997 19.1728L9.70835 19.1849L9.71674 19.197L9.72514 19.2092L9.73356 19.2213L9.74199 19.2335L9.75044 19.2458L9.7589 19.258L9.76738 19.2702L9.77587 19.2825L9.78437 19.2948L9.79289 19.3071L9.80142 19.3195L9.80997 19.3318L9.81852 19.3442L9.82709 19.3566L9.83568 19.369L9.84427 19.3814L9.85288 19.3939L9.8615 19.4064L9.87014 19.4189L9.87878 19.4314L9.88744 19.4439L9.89611 19.4564L9.9048 19.469L9.91349 19.4816L9.9222 19.4941L9.93091 19.5068L9.93964 19.5194L9.94839 19.532L9.95714 19.5447L9.9659 19.5573L9.97468 19.57L9.98346 19.5827L9.99226 19.5955L10.0011 19.6082L10.0099 19.6209L10.0187 19.6337L10.0275 19.6465L10.0364 19.6593L10.0453 19.6721L10.0541 19.6849L10.063 19.6978L10.0719 19.7106L10.0808 19.7235L10.0897 19.7364L10.0986 19.7493L10.1075 19.7622L10.1165 19.7751L10.1254 19.788L10.1344 19.801L10.1433 19.8139L10.1523 19.8269L10.1613 19.8399L10.1702 19.8529L10.1792 19.8659L10.1882 19.8789L10.1972 19.8919L10.2063 19.905L10.2153 19.918L10.2243 19.9311L10.2334 19.9441L10.2424 19.9572L10.2515 19.9703L10.2605 19.9834L10.2696 19.9965L10.2787 20.0097L10.2878 20.0228L10.2968 20.0359L10.3059 20.0491L10.315 20.0623L10.3241 20.0754L10.3333 20.0886L10.3424 20.1018L10.3515 20.115L10.3606 20.1282L10.3698 20.1414L10.3789 20.1546L10.3881 20.1679L10.3972 20.1811L10.4064 20.1943L10.4155 20.2076L10.4247 20.2208L10.4339 20.2341L10.443 20.2474L10.4522 20.2607L10.4614 20.2739L10.4706 20.2872L10.4798 20.3005L10.489 20.3138L10.4982 20.3271L10.5074 20.3404L10.5166 20.3538L10.5258 20.3671L10.535 20.3804L10.5442 20.3937L10.5535 20.4071L10.5627 20.4204L10.5719 20.4338L10.5812 20.4471L10.5904 20.4605L10.5996 20.4738L10.6089 20.4872L10.6181 20.5005L10.6273 20.5139L10.6366 20.5273L10.6458 20.5407L10.6551 20.554L10.6643 20.5674L10.6736 20.5808L10.6828 20.5942L10.6921 20.6075L10.7013 20.6209L10.7106 20.6343L10.7198 20.6477L10.7291 20.6611L10.7384 20.6745L10.7476 20.6879L10.7569 20.7012L10.7661 20.7146L10.7754 20.728L10.7847 20.7414L10.7939 20.7548L10.8032 20.7682L10.8124 20.7816L10.8217 20.795L10.8309 20.8084L10.8402 20.8217L10.8495 20.8351L10.8587 20.8485L10.868 20.8619L10.8772 20.8753L10.8865 20.8887L10.8957 20.902L10.905 20.9154L10.9142 20.9288L10.9235 20.9421L10.9327 20.9555L10.9419 20.9689L10.9512 20.9822L10.9604 20.9956L10.9696 21.0089L10.9789 21.0223L10.9881 21.0356L10.9973 21.049L11.0065 21.0623L11.0158 21.0756L11.025 21.089L11.0342 21.1023L11.0434 21.1156L11.0526 21.1289L11.0618 21.1422L11.071 21.1555L11.0802 21.1688L11.0894 21.1821L11.0986 21.1954L11.1078 21.2087L11.1169 21.2219L11.1261 21.2352L11.1353 21.2485L11.1444 21.2617L11.1536 21.275L11.1627 21.2882L11.1719 21.3014L11.181 21.3146L11.1902 21.3279L11.1993 21.3411L11.2084 21.3543L11.2175 21.3674L11.2267 21.3806L11.2358 21.3938L11.2449 21.407L11.254 21.4201L11.263 21.4333L11.2721 21.4464L11.2812 21.4595L11.2903 21.4726L11.2993 21.4857L11.3084 21.4988L11.3174 21.5119L11.3265 21.525L11.3355 21.538L11.3445 21.5511L11.3535 21.5641L11.3626 21.5772L11.3716 21.5902L11.3806 21.6032L11.3895 21.6162L11.3985 21.6292L11.4075 21.6421L11.4164 21.6551L11.4254 21.668L11.4343 21.681L11.4433 21.6939L11.4522 21.7068L11.4611 21.7197L11.47 21.7326L11.4789 21.7454L11.4878 21.7583L11.4967 21.7711L11.5055 21.784L11.5144 21.7968L11.5233 21.8096L11.5321 21.8224L11.5409 21.8351L11.5497 21.8479L11.5585 21.8606L11.5673 21.8733L11.5761 21.886L11.5849 21.8987L11.5937 21.9114L11.6024 21.9241L11.6112 21.9367L11.6199 21.9493L11.6286 21.9619L11.6373 21.9745L11.646 21.9871L11.6547 21.9996L11.6634 22.0122L11.672 22.0247L11.6807 22.0372L11.6893 22.0497L11.6979 22.0622L11.7065 22.0746L11.7151 22.0871L11.7237 22.0995L11.7323 22.1119L11.7408 22.1242L11.7494 22.1366L11.7579 22.1489L11.7664 22.1612L11.7749 22.1735L11.7834 22.1858L11.7919 22.1981L11.8004 22.2103L11.8088 22.2225L11.8172 22.2347L11.8257 22.2469L11.8341 22.2591L11.8425 22.2712L11.8508 22.2833L11.8592 22.2954L11.8675 22.3075L11.8759 22.3195L11.8842 22.3315L11.8925 22.3436L11.9008 22.3555L11.909 22.3675L11.9173 22.3794L11.9255 22.3913L11.9338 22.4032L11.942 22.4151L11.9502 22.4269L11.9583 22.4388L11.9665 22.4506L11.9746 22.4623L11.9827 22.4741L11.9909 22.4858L11.9989 22.4975L12.007 22.5092L12.0151 22.5208L12.0231 22.5325L12.0311 22.5441L12.0391 22.5556L12.0471 22.5672L12.0551 22.5787L12.063 22.5902L12.071 22.6017L12.0789 22.6131L12.0868 22.6245L12.0947 22.6359L12.1025 22.6473L12.1103 22.6586L12.1182 22.6699L12.126 22.6812L12.1338 22.6925L12.1415 22.7037L12.1493 22.7149L12.157 22.7261L12.1647 22.7372L12.1724 22.7483L12.18 22.7594L12.1877 22.7705L12.1953 22.7815L12.2029 22.7925L12.2105 22.8035L12.2181 22.8144L12.2256 22.8253L12.2331 22.8362L12.2406 22.8471L12.2481 22.8579L12.2556 22.8687L12.263 22.8794L12.2704 22.8902L12.2778 22.9008L12.2852 22.9115L12.2926 22.9222L12.2999 22.9328L12.3072 22.9433L12.3145 22.9539L12.3218 22.9644L12.329 22.9749L12.3362 22.9853L12.3434 22.9957L12.3506 23.0061L12.3578 23.0164L12.3649 23.0267L12.372 23.037L12.3791 23.0473L12.3862 23.0575L12.3932 23.0677L12.4002 23.0778L12.4072 23.0879L12.4142 23.098L12.4211 23.108L12.428 23.118L12.4349 23.128L12.4418 23.138L12.4486 23.1479L12.4555 23.1577L12.4623 23.1675L12.469 23.1773L12.4758 23.1871L12.4825 23.1968L12.4892 23.2065L12.4959 23.2162L12.5025 23.2258L12.5091 23.2354L12.5157 23.2449L12.5223 23.2544L12.5289 23.2639L12.5354 23.2733L12.5419 23.2827L12.5483 23.292L12.5548 23.3013L12.5612 23.3106L12.5676 23.3199L12.5739 23.3291L12.5803 23.3382L12.5866 23.3473L12.5929 23.3564L12.5991 23.3655L12.6053 23.3745L12.6115 23.3834L12.6177 23.3923L12.6238 23.4012L12.63 23.4101L12.636 23.4189L12.6421 23.4276L12.6481 23.4364L12.6541 23.445L12.6601 23.4537L12.6661 23.4623L12.672 23.4708L12.6779 23.4793L12.6837 23.4878L12.6895 23.4962L12.6953 23.5046L12.7011 23.513L12.7069 23.5213L12.7126 23.5295L12.7182 23.5378L12.7239 23.5459L12.7295 23.5541L12.7351 23.5621L12.7407 23.5702L12.7462 23.5782L12.7517 23.5861L12.7572 23.5941L12.7626 23.6019L12.768 23.6097L12.7734 23.6175L12.7788 23.6253L12.7841 23.6329Z" fill="#281342" stroke="#281342" stroke-width="0.2"/>
<path d="M34.8484 17.5249L34.8474 17.5235L34.7823 17.5373C34.5101 17.5949 34.2561 17.6989 34.0186 17.824L34.108 18.0028C34.6175 17.762 35.097 17.7183 35.5378 17.8326C35.9799 17.9473 36.3916 18.2231 36.7592 18.636L36.7592 18.636L36.7607 18.6377C37.2733 19.1873 37.7309 19.8992 38.1492 20.5499C38.2832 20.7584 38.4131 20.9606 38.5396 21.1491C38.8682 21.8061 39.6038 23.31 39.9134 23.9482L39.9134 23.9482L39.9146 23.9505C41.0246 26.0976 42.0506 28.2959 42.8379 30.5762C42.9038 30.8178 42.982 31.0644 43.0604 31.3117C43.0827 31.3821 43.105 31.4526 43.1271 31.523C43.2275 31.8433 43.3232 32.1645 43.3914 32.4852C43.5279 33.1266 43.5525 33.756 43.2913 34.3555L43.2908 34.3566C43.0411 34.9504 42.6134 35.4581 42.0917 35.8392L42.0912 35.8386L42.0821 35.8471C37.9202 39.7638 31.843 41.7277 26.1888 42.0115L26.1866 42.0116L26.1279 42.0159C24.7941 42.1122 23.373 42.2149 22.1978 41.6105C21.5181 41.2214 20.4051 40.3811 19.2895 39.5132C18.9686 39.2636 18.6477 39.0118 18.3375 38.7684C17.572 38.1679 16.8714 37.6183 16.3961 37.2772L16.3962 37.2771L16.3924 37.2746C13.736 35.5424 13.0947 31.7307 15.0323 29.2258L15.0312 29.2249L15.036 29.2191C15.0767 29.1699 15.1259 29.105 15.1791 29.0347C15.2167 28.9851 15.2562 28.9328 15.2964 28.8814C15.3967 28.7529 15.5065 28.6214 15.6198 28.5162C15.735 28.4092 15.8436 28.3389 15.9403 28.3178C16.0249 28.2993 16.109 28.3162 16.1971 28.4085C17.0859 29.7997 18.2185 31.0428 19.3302 32.263C19.5988 32.5577 19.8662 32.8512 20.1286 33.1451L20.2827 33.0179C19.9833 32.6249 19.6777 32.2363 19.3724 31.8479C18.4484 30.6726 17.5263 29.4998 16.7807 28.2158C16.6852 28.0028 16.5219 27.774 16.2509 27.6888L16.2509 27.6886L16.2449 27.6871C15.856 27.5907 15.4968 27.7569 15.1977 27.9884C14.9038 28.2159 14.6494 28.5207 14.4581 28.7499L14.4556 28.7529L14.4504 28.7565L14.4415 28.7675C12.7825 30.8022 12.7041 33.8975 14.1431 36.0663C14.5986 36.7887 15.2589 37.4086 15.929 37.8937L19.7974 40.8605L19.7974 40.8605L19.7987 40.8615C19.9471 40.9714 20.106 41.0951 20.2724 41.2249L20.2799 41.2308C20.4437 41.3585 20.6145 41.4917 20.7878 41.6213C21.1385 41.8836 21.5042 42.1352 21.8508 42.3013C23.2152 42.9987 24.7933 42.892 26.2324 42.7831C32.0603 42.488 38.3073 40.4658 42.6204 36.4001C42.8403 36.2646 43.1218 35.9915 43.3764 35.6787C43.6355 35.3604 43.8764 34.989 44.0009 34.6589L44.0018 34.6592L44.0048 34.6463C44.4807 32.6045 43.6939 30.0481 42.574 27.5704C41.8441 25.9554 40.964 24.3567 40.186 22.9436C39.7701 22.1882 39.3834 21.4857 39.0644 20.8621L39.0599 20.8534L39.0539 20.8458C38.8928 20.6412 38.7229 20.405 38.5413 20.1524C38.4485 20.0234 38.3526 19.89 38.2533 19.7544C37.9613 19.356 37.642 18.9425 37.2936 18.5802C36.6155 17.8753 35.805 17.3427 34.8484 17.5249Z" fill="#281342" stroke="#281342" stroke-width="0.2"/>
<path d="M27.783 19.097C26.4862 16.1193 22.4503 15.3985 20.2729 17.843L20.2055 17.9187L20.282 17.9851L20.3255 18.0228L20.3929 18.0813L20.4587 18.0209C21.0332 17.4931 21.7603 17.1379 22.5094 16.9966L22.5094 16.9927L22.5101 16.9957C23.725 16.7325 24.7822 17.0943 25.6876 17.7663C26.5955 18.44 27.3466 19.4231 27.9393 20.3903L27.9812 20.4586L28.057 20.4327L28.1118 20.4139L28.1915 20.3866L28.1781 20.3034C28.1097 19.8788 27.9627 19.4791 27.783 19.097Z" fill="#281342" stroke="#281342" stroke-width="0.2"/>
<path d="M30.625 17.0742L30.625 17.0742L30.6271 17.0747C31.6252 17.2979 32.3016 17.973 32.8242 18.8218C33.2287 19.4787 33.535 20.2285 33.8263 20.9418C33.913 21.1539 33.9983 21.3629 34.0846 21.5652L34.1154 21.6374L34.1929 21.6246L34.249 21.6153L34.3277 21.6023L34.3325 21.5227C34.4473 19.616 33.3256 17.7678 31.8732 16.9013C31.1451 16.4669 30.3268 16.2751 29.5347 16.4543C28.7409 16.6339 27.989 17.1825 27.3889 18.1983L27.3315 18.2955L27.4349 18.3408L27.4872 18.3637L27.5698 18.3999L27.6143 18.3214C28.204 17.2808 29.4754 16.7911 30.625 17.0742Z" fill="#281342" stroke="#281342" stroke-width="0.2"/>
<path d="M40.1483 34.2813L40.1694 34.275L40.3013 34.2355L40.3224 34.2291L40.3421 34.2192C40.4256 34.1771 40.5099 34.1384 40.5949 34.1029C41.312 33.8847 42.1351 33.966 42.904 34.2762C43.8222 34.6466 44.6263 35.3298 45.0391 36.1488L45.1545 36.3778C45.5288 37.1205 45.5542 38.0959 45.2952 39.0273C44.773 39.7859 43.9582 40.4464 43.0609 40.8986L43.0608 40.8984L43.0515 40.9035L35.0085 45.3937L31.1979 47.1361L31.1979 47.1359L31.1894 47.1402C29.5489 47.9669 27.5489 47.3073 26.7222 45.6668L26.6068 45.4378C26.1949 44.6205 26.135 43.5698 26.3949 42.6118C26.6549 41.6534 27.2239 40.8258 28.0256 40.4218L28.0333 40.4179L28.0407 40.4135L36.5682 35.3534L40.1483 34.2813ZM27.6176 40.0718C25.4842 41.1522 24.6274 43.7563 25.7041 45.8928L25.8195 46.1218C26.9112 48.2879 29.6447 48.8459 31.7547 47.7826L31.7548 47.7828L31.764 47.7776L35.2347 45.84L43.6583 41.9882L43.6584 41.9884L43.6669 41.9841C44.6245 41.5015 45.3375 40.5047 45.698 39.42C45.7177 39.3609 45.7364 39.3013 45.754 39.2414C45.7887 39.1891 45.8222 39.1363 45.8544 39.083C46.4286 38.1341 46.6123 37.0242 46.0572 35.9229L45.9418 35.6939C44.9154 33.6571 42.5018 32.7799 40.4267 33.6314C40.2758 33.6786 40.1279 33.7374 39.9842 33.8085L36.3954 34.8832L36.3661 34.892L36.3659 34.892L36.3397 34.9076L36.3395 34.9077L27.6176 40.0718Z" fill="#281342" stroke="#281342" stroke-width="0.5"/>
<path d="M29.1836 39.5605C28.1794 40.3344 27.294 41.0634 26.6328 41.6365C27.1614 40.985 28.0629 40.2785 29.1836 39.5605C32.0588 37.3446 35.9077 34.7612 38.2552 34.4204L41.5121 33.7817C38.4408 34.9133 32.7206 37.2944 29.1836 39.5605Z" fill="#281342"/>
<path d="M25.9275 45.7804C24.9117 43.7647 25.7222 41.3071 27.7379 40.2913L40.2297 33.9961C42.2454 32.9803 44.7029 33.7908 45.7187 35.8065L45.8341 36.0355C46.8499 38.0512 46.0394 40.5087 44.0237 41.5245L31.5319 47.8198C29.5162 48.8356 27.0587 48.025 26.0429 46.0093L25.9275 45.7804Z" fill="#1EC593"/>
<path d="M42.7058 34.875C40.8558 33.375 31.7266 39.0834 27.3933 42.125C26.9766 42.8959 26.3933 44.6 27.3933 45.25C28.6433 46.0625 33.8308 41.8125 38.8308 39.625C43.8308 37.4375 45.0183 36.75 42.7058 34.875Z" fill="url(#paint1_linear_151_31719)" fill-opacity="0.5"/>
<defs>
<linearGradient id="paint0_linear_151_31719" x1="25.2719" y1="10.4965" x2="25.2719" y2="41.1939" gradientUnits="userSpaceOnUse">
<stop stop-color="#EDFFF1"/>
<stop offset="1" stop-color="#D9D9D9" stop-opacity="0"/>
</linearGradient>
<linearGradient id="paint1_linear_151_31719" x1="33.4559" y1="35.875" x2="35.3348" y2="45.2024" gradientUnits="userSpaceOnUse">
<stop stop-color="#EDFFF1"/>
<stop offset="1" stop-color="#D9D9D9" stop-opacity="0"/>
</linearGradient>
</defs>
</svg>
