<svg width="47" height="50" viewBox="0 0 47 50" fill="none" xmlns="http://www.w3.org/2000/svg">
<path d="M29.3503 16.7296C29.3503 16.7296 27.9104 16.6724 26.612 18.6995C25.3828 16.766 22.8444 16.1027 20.8172 17.2316C20.3338 17.4999 19.9239 17.8494 19.589 18.2495L15.1048 11.7645C13.7361 9.78508 11.0201 9.28969 9.04067 10.6584C7.06121 12.0272 6.56582 14.7431 7.93457 16.7226L15.5626 27.7542C15.0631 28.0996 14.6065 28.5248 14.2179 29.0332C12.2194 31.6383 12.7117 35.3706 15.318 37.3683L20.5968 41.4168C22.144 42.604 23.5195 42.6032 25.8343 42.4204C27.9696 42.3651 30.4601 41.934 33.0315 41.1046C36.8589 39.8706 40.0227 38.0235 41.8378 36.1533C42.6066 35.5991 43.1386 34.783 43.3452 33.8756C43.3452 33.8756 43.6154 30.1757 38.623 21.4255C35.7417 15.9797 33.5946 17.9126 33.5946 17.9126C33.0128 18.3149 32.918 18.615 32.5509 18.431C32.5509 18.431 31.2316 16.1637 29.3527 16.728" fill="#E0953D"/>
<path d="M8.71294 14.664C7.35236 9.37359 12.0882 8.7891 14.6507 11.0391L19.4006 17.914C20.3382 17.914 19.9007 17.539 21.9631 16.9765C24.0867 16.3974 25.7501 17.502 26.8983 18.8463C26.9316 18.082 27.442 17.3997 28.5881 16.9765C30.3758 16.3165 31.6592 17.6725 32.3309 18.898C32.5132 18.5426 32.9225 18.1908 33.7132 17.914C36.2132 17.039 39.2131 23.164 40.8381 27.539C42.4631 31.914 40.4631 35.664 37.3381 36.164C34.2131 36.664 34.3381 37.789 27.2131 40.414C20.0881 43.039 22.3381 41.2266 16.8381 36.9766C13.144 34.1221 13.2359 30.4553 15.588 29.2891C16.3688 28.902 17.6199 31.2123 18.4969 32.6327L19.4006 33.6716C20.2071 33.6977 21.5781 33.4 20.6104 32C19.6426 30.6 12.2755 19.8593 8.71294 14.664Z" fill="url(#paint0_linear_151_31743)"/>
<path d="M12.3136 23.6329L12.3134 23.633L12.3168 23.6374C12.4013 23.7462 12.4858 23.8551 12.5703 23.964C13.457 25.1068 14.3443 26.2504 15.2522 27.3798L15.4163 27.2664C14.6802 26.0182 13.9235 24.7842 13.1673 23.5511C13.0953 23.4336 13.0233 23.3162 12.9512 23.1987L12.9513 23.1986L12.9486 23.1946C12.4501 22.4632 11.806 21.5376 11.1309 20.5674C10.037 18.9955 8.86164 17.3065 8.09224 16.1364C7.96883 15.9112 7.85992 15.6415 7.77251 15.3938C7.10028 13.4182 8.11975 11.6685 9.65461 10.8084C11.1893 9.94842 13.2143 9.99179 14.5443 11.5839C15.1227 12.3337 16.1979 13.9062 17.1531 15.3031C17.7176 16.1287 18.2401 16.8929 18.5934 17.3897L18.5933 17.3897L18.5958 17.3929L18.5962 17.3934C19.565 18.6464 20.5347 19.9004 21.5339 21.1342L21.6979 21.0207C20.895 19.6509 20.0653 18.3001 19.2349 16.951L19.2353 16.9507L19.2295 16.943C18.7965 16.3709 18.2621 15.5701 17.6909 14.714C17.4682 14.3804 17.24 14.0384 17.0101 13.6983C16.1934 12.4906 15.3534 11.3053 14.6742 10.6293L14.6745 10.629L14.6672 10.623C13.4807 9.64633 12.2214 9.32633 11.0649 9.47143C9.91039 9.61628 8.86605 10.2236 8.10369 11.088C6.57978 12.8159 6.17185 15.5874 8.26953 17.7845L8.27016 17.7854L8.27532 17.7929L8.28051 17.8004L8.28573 17.808L8.29098 17.8156L8.29626 17.8232L8.30158 17.8309L8.30693 17.8386L8.31231 17.8464L8.31771 17.8542L8.32315 17.8621L8.32862 17.87L8.33412 17.878L8.33966 17.886L8.34522 17.894L8.35081 17.9021L8.35643 17.9102L8.36208 17.9184L8.36776 17.9266L8.37348 17.9349L8.37922 17.9432L8.38499 17.9515L8.39079 17.9599L8.39662 17.9683L8.40247 17.9768L8.40836 17.9853L8.41428 17.9939L8.42022 18.0025L8.42619 18.0111L8.43219 18.0198L8.43822 18.0285L8.44428 18.0373L8.45037 18.0461L8.45648 18.0549L8.46262 18.0638L8.46879 18.0727L8.47499 18.0817L8.48121 18.0907L8.48747 18.0997L8.49374 18.1088L8.50005 18.1179L8.50638 18.1271L8.51274 18.1363L8.51913 18.1455L8.52554 18.1548L8.53198 18.1641L8.53845 18.1734L8.54494 18.1828L8.55146 18.1923L8.558 18.2017L8.56457 18.2112L8.57117 18.2208L8.57779 18.2303L8.58444 18.24L8.59111 18.2496L8.59781 18.2593L8.60453 18.269L8.61128 18.2788L8.61805 18.2886L8.62485 18.2984L8.63167 18.3083L8.63852 18.3182L8.64539 18.3281L8.65228 18.3381L8.6592 18.3481L8.66615 18.3581L8.67311 18.3682L8.6801 18.3783L8.68712 18.3884L8.69415 18.3986L8.70122 18.4088L8.7083 18.4191L8.71541 18.4294L8.72254 18.4397L8.72969 18.45L8.73687 18.4604L8.74407 18.4708L8.75129 18.4813L8.75853 18.4917L8.7658 18.5022L8.77309 18.5128L8.7804 18.5233L8.78773 18.534L8.79508 18.5446L8.80246 18.5553L8.80986 18.5659L8.81727 18.5767L8.82471 18.5874L8.83217 18.5982L8.83966 18.609L8.84716 18.6199L8.85468 18.6308L8.86223 18.6417L8.86979 18.6526L8.87738 18.6636L8.88498 18.6746L8.89261 18.6856L8.90025 18.6967L8.90792 18.7078L8.9156 18.7189L8.92331 18.73L8.93103 18.7412L8.93878 18.7524L8.94654 18.7636L8.95432 18.7749L8.96212 18.7862L8.96995 18.7975L8.97778 18.8088L8.98564 18.8202L8.99352 18.8316L9.00141 18.843L9.00933 18.8544L9.01726 18.8659L9.02521 18.8774L9.03318 18.8889L9.04116 18.9005L9.04916 18.912L9.05718 18.9236L9.06522 18.9353L9.07328 18.9469L9.08135 18.9586L9.08944 18.9703L9.09754 18.982L9.10567 18.9937L9.11381 19.0055L9.12196 19.0173L9.13014 19.0291L9.13833 19.041L9.14653 19.0528L9.15475 19.0647L9.16299 19.0766L9.17124 19.0886L9.17951 19.1005L9.1878 19.1125L9.1961 19.1245L9.20441 19.1366L9.21274 19.1486L9.22109 19.1607L9.22945 19.1728L9.23783 19.1849L9.24622 19.197L9.25462 19.2092L9.26304 19.2213L9.27147 19.2335L9.27992 19.2458L9.28838 19.258L9.29686 19.2702L9.30535 19.2825L9.31385 19.2948L9.32237 19.3071L9.3309 19.3195L9.33945 19.3318L9.348 19.3442L9.35657 19.3566L9.36516 19.369L9.37375 19.3814L9.38236 19.3939L9.39098 19.4064L9.39962 19.4189L9.40826 19.4314L9.41692 19.4439L9.42559 19.4564L9.43428 19.469L9.44297 19.4816L9.45168 19.4941L9.46039 19.5068L9.46912 19.5194L9.47787 19.532L9.48662 19.5447L9.49538 19.5573L9.50416 19.57L9.51294 19.5827L9.52174 19.5955L9.53054 19.6082L9.53936 19.6209L9.54819 19.6337L9.55703 19.6465L9.56587 19.6593L9.57473 19.6721L9.5836 19.6849L9.59248 19.6978L9.60136 19.7106L9.61026 19.7235L9.61917 19.7364L9.62808 19.7493L9.63701 19.7622L9.64594 19.7751L9.65488 19.788L9.66383 19.801L9.67279 19.8139L9.68176 19.8269L9.69074 19.8399L9.69972 19.8529L9.70872 19.8659L9.71772 19.8789L9.72673 19.8919L9.73575 19.905L9.74477 19.918L9.7538 19.9311L9.76284 19.9441L9.77189 19.9572L9.78094 19.9703L9.79001 19.9834L9.79907 19.9965L9.80815 20.0097L9.81723 20.0228L9.82632 20.0359L9.83541 20.0491L9.84452 20.0623L9.85362 20.0754L9.86274 20.0886L9.87185 20.1018L9.88098 20.115L9.89011 20.1282L9.89925 20.1414L9.90839 20.1546L9.91753 20.1679L9.92669 20.1811L9.93584 20.1943L9.94501 20.2076L9.95417 20.2208L9.96335 20.2341L9.97252 20.2474L9.9817 20.2607L9.99089 20.2739L10.0001 20.2872L10.0093 20.3005L10.0185 20.3138L10.0277 20.3271L10.0369 20.3404L10.0461 20.3538L10.0553 20.3671L10.0645 20.3804L10.0737 20.3937L10.083 20.4071L10.0922 20.4204L10.1014 20.4338L10.1106 20.4471L10.1199 20.4605L10.1291 20.4738L10.1383 20.4872L10.1476 20.5005L10.1568 20.5139L10.1661 20.5273L10.1753 20.5407L10.1846 20.554L10.1938 20.5674L10.2031 20.5808L10.2123 20.5942L10.2216 20.6075L10.2308 20.6209L10.2401 20.6343L10.2493 20.6477L10.2586 20.6611L10.2678 20.6745L10.2771 20.6879L10.2864 20.7012L10.2956 20.7146L10.3049 20.728L10.3141 20.7414L10.3234 20.7548L10.3327 20.7682L10.3419 20.7816L10.3512 20.795L10.3604 20.8084L10.3697 20.8217L10.3789 20.8351L10.3882 20.8485L10.3974 20.8619L10.4067 20.8753L10.4159 20.8887L10.4252 20.902L10.4344 20.9154L10.4437 20.9288L10.4529 20.9421L10.4622 20.9555L10.4714 20.9689L10.4807 20.9822L10.4899 20.9956L10.4991 21.0089L10.5083 21.0223L10.5176 21.0356L10.5268 21.049L10.536 21.0623L10.5452 21.0756L10.5545 21.089L10.5637 21.1023L10.5729 21.1156L10.5821 21.1289L10.5913 21.1422L10.6005 21.1555L10.6097 21.1688L10.6189 21.1821L10.628 21.1954L10.6372 21.2087L10.6464 21.2219L10.6556 21.2352L10.6647 21.2485L10.6739 21.2617L10.6831 21.275L10.6922 21.2882L10.7014 21.3014L10.7105 21.3146L10.7196 21.3279L10.7288 21.3411L10.7379 21.3543L10.747 21.3674L10.7561 21.3806L10.7652 21.3938L10.7743 21.407L10.7834 21.4201L10.7925 21.4333L10.8016 21.4464L10.8107 21.4595L10.8197 21.4726L10.8288 21.4857L10.8379 21.4988L10.8469 21.5119L10.856 21.525L10.865 21.538L10.874 21.5511L10.883 21.5641L10.892 21.5772L10.901 21.5902L10.91 21.6032L10.919 21.6162L10.928 21.6292L10.937 21.6421L10.9459 21.6551L10.9549 21.668L10.9638 21.681L10.9727 21.6939L10.9817 21.7068L10.9906 21.7197L10.9995 21.7326L11.0084 21.7454L11.0173 21.7583L11.0262 21.7711L11.035 21.784L11.0439 21.7968L11.0527 21.8096L11.0616 21.8224L11.0704 21.8351L11.0792 21.8479L11.088 21.8606L11.0968 21.8733L11.1056 21.886L11.1144 21.8987L11.1231 21.9114L11.1319 21.9241L11.1406 21.9367L11.1494 21.9493L11.1581 21.9619L11.1668 21.9745L11.1755 21.9871L11.1842 21.9996L11.1928 22.0122L11.2015 22.0247L11.2101 22.0372L11.2188 22.0497L11.2274 22.0622L11.236 22.0746L11.2446 22.0871L11.2532 22.0995L11.2618 22.1119L11.2703 22.1242L11.2789 22.1366L11.2874 22.1489L11.2959 22.1612L11.3044 22.1735L11.3129 22.1858L11.3214 22.1981L11.3298 22.2103L11.3383 22.2225L11.3467 22.2347L11.3551 22.2469L11.3635 22.2591L11.3719 22.2712L11.3803 22.2833L11.3887 22.2954L11.397 22.3075L11.4054 22.3195L11.4137 22.3315L11.422 22.3436L11.4303 22.3555L11.4385 22.3675L11.4468 22.3794L11.455 22.3913L11.4632 22.4032L11.4714 22.4151L11.4796 22.4269L11.4878 22.4388L11.496 22.4506L11.5041 22.4623L11.5122 22.4741L11.5203 22.4858L11.5284 22.4975L11.5365 22.5092L11.5445 22.5208L11.5526 22.5325L11.5606 22.5441L11.5686 22.5556L11.5766 22.5672L11.5846 22.5787L11.5925 22.5902L11.6004 22.6017L11.6084 22.6131L11.6163 22.6245L11.6241 22.6359L11.632 22.6473L11.6398 22.6586L11.6477 22.6699L11.6555 22.6812L11.6632 22.6925L11.671 22.7037L11.6787 22.7149L11.6865 22.7261L11.6942 22.7372L11.7019 22.7483L11.7095 22.7594L11.7172 22.7705L11.7248 22.7815L11.7324 22.7925L11.74 22.8035L11.7476 22.8144L11.7551 22.8253L11.7626 22.8362L11.7701 22.8471L11.7776 22.8579L11.7851 22.8687L11.7925 22.8794L11.7999 22.8902L11.8073 22.9008L11.8147 22.9115L11.8221 22.9222L11.8294 22.9328L11.8367 22.9433L11.844 22.9539L11.8513 22.9644L11.8585 22.9749L11.8657 22.9853L11.8729 22.9957L11.8801 23.0061L11.8872 23.0164L11.8944 23.0267L11.9015 23.037L11.9086 23.0473L11.9156 23.0575L11.9227 23.0677L11.9297 23.0778L11.9367 23.0879L11.9436 23.098L11.9506 23.108L11.9575 23.118L11.9644 23.128L11.9713 23.138L11.9781 23.1479L11.9849 23.1577L11.9917 23.1675L11.9985 23.1773L12.0053 23.1871L12.012 23.1968L12.0187 23.2065L12.0254 23.2162L12.032 23.2258L12.0386 23.2354L12.0452 23.2449L12.0518 23.2544L12.0583 23.2639L12.0649 23.2733L12.0713 23.2827L12.0778 23.292L12.0843 23.3013L12.0907 23.3106L12.0971 23.3199L12.1034 23.3291L12.1097 23.3382L12.1161 23.3473L12.1223 23.3564L12.1286 23.3655L12.1348 23.3745L12.141 23.3834L12.1472 23.3923L12.1533 23.4012L12.1594 23.4101L12.1655 23.4189L12.1716 23.4276L12.1776 23.4364L12.1836 23.445L12.1896 23.4537L12.1955 23.4623L12.2014 23.4708L12.2073 23.4793L12.2132 23.4878L12.219 23.4962L12.2248 23.5046L12.2306 23.513L12.2363 23.5213L12.242 23.5295L12.2477 23.5378L12.2534 23.5459L12.259 23.5541L12.2646 23.5621L12.2702 23.5702L12.2757 23.5782L12.2812 23.5861L12.2867 23.5941L12.2921 23.6019L12.2975 23.6097L12.3029 23.6175L12.3082 23.6253L12.3136 23.6329Z" fill="#281342" stroke="#281342" stroke-width="0.2"/>
<path d="M34.3779 17.5249L34.3769 17.5235L34.3118 17.5373C34.0396 17.5949 33.7855 17.6989 33.5481 17.824L33.6374 18.0028C34.1469 17.762 34.6265 17.7183 35.0672 17.8326C35.5093 17.9473 35.9211 18.2231 36.2887 18.636L36.2886 18.636L36.2902 18.6377C36.8028 19.1873 37.2604 19.8992 37.6787 20.5499C37.8127 20.7584 37.9426 20.9606 38.0691 21.1491C38.3977 21.8061 39.1333 23.31 39.4429 23.9482L39.4429 23.9482L39.4441 23.9505C40.554 26.0976 41.5801 28.2959 42.3674 30.5762C42.4333 30.8178 42.5115 31.0644 42.5899 31.3117C42.6122 31.3821 42.6345 31.4526 42.6566 31.523C42.757 31.8433 42.8526 32.1645 42.9209 32.4852C43.0574 33.1266 43.082 33.756 42.8208 34.3555L42.8203 34.3566C42.5706 34.9504 42.1428 35.4581 41.6212 35.8392L41.6207 35.8386L41.6116 35.8471C37.4496 39.7638 31.3725 41.7277 25.7182 42.0115L25.7161 42.0116L25.6573 42.0159C24.3236 42.1122 22.9024 42.2149 21.7273 41.6105C21.0476 41.2214 19.9346 40.3811 18.819 39.5132C18.4981 39.2636 18.1772 39.0118 17.8669 38.7684C17.1015 38.1679 16.4008 37.6183 15.9256 37.2772L15.9257 37.2771L15.9219 37.2746C13.2655 35.5424 12.6242 31.7307 14.5617 29.2258L14.5607 29.2249L14.5655 29.2191C14.6062 29.1699 14.6553 29.105 14.7086 29.0347C14.7461 28.9851 14.7857 28.9328 14.8259 28.8814C14.9261 28.7529 15.036 28.6214 15.1493 28.5162C15.2644 28.4092 15.3731 28.3389 15.4697 28.3178C15.5543 28.2993 15.6385 28.3162 15.7266 28.4085C16.6154 29.7997 17.748 31.0428 18.8597 32.263C19.1283 32.5577 19.3956 32.8512 19.658 33.1451L19.8122 33.0179C19.5127 32.6249 19.2072 32.2363 18.9019 31.8479C17.9779 30.6726 17.0557 29.4998 16.3102 28.2158C16.2147 28.0028 16.0514 27.774 15.7803 27.6888L15.7804 27.6886L15.7744 27.6871C15.3855 27.5907 15.0263 27.7569 14.7272 27.9884C14.4333 28.2159 14.1789 28.5207 13.9876 28.7499L13.9851 28.7529L13.9799 28.7565L13.9709 28.7675C12.312 30.8022 12.2336 33.8975 13.6725 36.0663C14.1281 36.7887 14.7884 37.4086 15.4585 37.8937L19.3269 40.8605L19.3269 40.8605L19.3282 40.8615C19.4766 40.9714 19.6354 41.0951 19.8019 41.2249L19.8094 41.2308C19.9732 41.3585 20.144 41.4917 20.3173 41.6213C20.668 41.8836 21.0337 42.1352 21.3802 42.3013C22.7447 42.9987 24.3228 42.892 25.7618 42.7831C31.5898 42.488 37.8368 40.4658 42.1499 36.4001C42.3698 36.2646 42.6513 35.9915 42.9059 35.6787C43.165 35.3604 43.4058 34.989 43.5304 34.6589L43.5312 34.6592L43.5342 34.6463C44.0102 32.6045 43.2233 30.0481 42.1035 27.5704C41.3736 25.9554 40.4935 24.3567 39.7155 22.9436C39.2996 22.1882 38.9129 21.4857 38.5939 20.8621L38.5894 20.8534L38.5834 20.8458C38.4222 20.6412 38.2524 20.405 38.0708 20.1524C37.978 20.0234 37.8821 19.89 37.7828 19.7544C37.4907 19.356 37.1715 18.9425 36.8231 18.5802C36.1449 17.8753 35.3345 17.3427 34.3779 17.5249Z" fill="#281342" stroke="#281342" stroke-width="0.2"/>
<path d="M27.3124 19.097C26.0157 16.1193 21.9798 15.3985 19.8024 17.843L19.735 17.9187L19.8115 17.9851L19.855 18.0228L19.9224 18.0813L19.9882 18.0209C20.5626 17.4931 21.2897 17.1379 22.0389 16.9966L22.0389 16.9927L22.0395 16.9957C23.2544 16.7325 24.3116 17.0943 25.2171 17.7663C26.125 18.44 26.8761 19.4231 27.4688 20.3903L27.5107 20.4586L27.5865 20.4327L27.6413 20.4139L27.721 20.3866L27.7076 20.3034C27.6392 19.8788 27.4922 19.4791 27.3124 19.097Z" fill="#281342" stroke="#281342" stroke-width="0.2"/>
<path d="M30.1545 17.0742L30.1545 17.0742L30.1566 17.0747C31.1547 17.2979 31.8311 17.973 32.3537 18.8218C32.7582 19.4787 33.0645 20.2285 33.3558 20.9418C33.4425 21.1539 33.5278 21.3629 33.614 21.5652L33.6448 21.6374L33.7223 21.6246L33.7785 21.6153L33.8572 21.6023L33.862 21.5227C33.9768 19.616 32.8551 17.7678 31.4026 16.9013C30.6746 16.4669 29.8563 16.2751 29.0642 16.4543C28.2704 16.6339 27.5185 17.1825 26.9184 18.1983L26.8609 18.2955L26.9644 18.3408L27.0167 18.3637L27.0993 18.3999L27.1438 18.3214C27.7334 17.2808 29.0049 16.7911 30.1545 17.0742Z" fill="#281342" stroke="#281342" stroke-width="0.2"/>
<path d="M39.6777 34.2813L39.6989 34.275L39.8307 34.2355L39.8519 34.2291L39.8715 34.2192C39.9551 34.1771 40.0394 34.1384 40.1243 34.1029C40.8415 33.8847 41.6646 33.966 42.4335 34.2762C43.3517 34.6466 44.1558 35.3298 44.5686 36.1488L44.684 36.3778C45.0583 37.1205 45.0837 38.0959 44.8247 39.0273C44.3025 39.7859 43.4876 40.4464 42.5904 40.8986L42.5903 40.8984L42.581 40.9035L34.538 45.3937L30.7274 47.1361L30.7273 47.1359L30.7189 47.1402C29.0784 47.9669 27.0784 47.3073 26.2517 45.6668L26.1363 45.4378C25.7244 44.6205 25.6645 43.5698 25.9244 42.6118C26.1844 41.6534 26.7533 40.8258 27.5551 40.4218L27.5627 40.4179L27.5701 40.4135L36.0977 35.3534L39.6777 34.2813ZM27.1471 40.0718C25.0137 41.1522 24.1569 43.7563 25.2336 45.8928L25.349 46.1218C26.4406 48.2879 29.1742 48.8459 31.2841 47.7826L31.2842 47.7828L31.2935 47.7776L34.7642 45.84L43.1878 41.9882L43.1879 41.9884L43.1964 41.9841C44.154 41.5015 44.8669 40.5047 45.2275 39.42C45.2472 39.3609 45.2658 39.3013 45.2835 39.2414C45.3182 39.1891 45.3516 39.1363 45.3839 39.083C45.958 38.1341 46.1417 37.0242 45.5867 35.9229L45.4713 35.6939C44.4449 33.6571 42.0313 32.7799 39.9562 33.6314C39.8053 33.6786 39.6574 33.7374 39.5137 33.8085L35.9249 34.8832L35.8955 34.892L35.8954 34.892L35.8692 34.9076L35.869 34.9077L27.1471 40.0718Z" fill="#281342" stroke="#281342" stroke-width="0.5"/>
<path d="M28.7131 39.5605C27.7089 40.3344 26.8235 41.0634 26.1623 41.6365C26.6909 40.985 27.5924 40.2785 28.7131 39.5605C31.5883 37.3446 35.4372 34.7612 37.7847 34.4204L41.0416 33.7817C37.9703 34.9133 32.25 37.2944 28.7131 39.5605Z" fill="#281342"/>
<path d="M25.457 45.7804C24.4412 43.7647 25.2517 41.3071 27.2674 40.2913L39.7592 33.9961C41.7749 32.9803 44.2324 33.7908 45.2482 35.8065L45.3636 36.0355C46.3794 38.0512 45.5688 40.5087 43.5531 41.5245L31.0614 47.8198C29.0457 48.8356 26.5882 48.025 25.5724 46.0093L25.457 45.7804Z" fill="#E0953D"/>
<path d="M42.2353 34.875C40.3853 33.375 31.2561 39.0834 26.9228 42.125C26.5061 42.8959 25.9228 44.6 26.9228 45.25C28.1728 46.0625 33.3603 41.8125 38.3603 39.625C43.3603 37.4375 44.5478 36.75 42.2353 34.875Z" fill="url(#paint1_linear_151_31743)" fill-opacity="0.5"/>
<defs>
<linearGradient id="paint0_linear_151_31743" x1="24.8014" y1="10.4965" x2="24.8014" y2="41.1939" gradientUnits="userSpaceOnUse">
<stop stop-color="#EDFFF1"/>
<stop offset="1" stop-color="#D9D9D9" stop-opacity="0"/>
</linearGradient>
<linearGradient id="paint1_linear_151_31743" x1="32.9854" y1="35.875" x2="34.8643" y2="45.2024" gradientUnits="userSpaceOnUse">
<stop stop-color="#EDFFF1"/>
<stop offset="1" stop-color="#D9D9D9" stop-opacity="0"/>
</linearGradient>
</defs>
</svg>
