<svg width="11" height="17" viewBox="0 0 11 17" fill="none" xmlns="http://www.w3.org/2000/svg">
<rect x="10.4211" width="3" height="3" transform="rotate(90 10.4211 0)" fill="#F1F1F1"/>
<rect x="10.4211" y="3.5" width="3" height="3" transform="rotate(90 10.4211 3.5)" fill="#0C0A0A"/>
<rect x="10.4211" y="7" width="3" height="3" transform="rotate(90 10.4211 7)" fill="#F1F1F1"/>
<rect x="10.4211" y="10.5" width="3" height="3" transform="rotate(90 10.4211 10.5)" fill="#0C0A0A"/>
<rect x="10.4211" y="14" width="3" height="3" transform="rotate(90 10.4211 14)" fill="#F1F1F1"/>
<rect x="6.71057" width="3" height="3" transform="rotate(90 6.71057 0)" fill="#0C0A0A"/>
<rect x="6.7106" y="3.5" width="3" height="3" transform="rotate(90 6.7106 3.5)" fill="#F1F1F1"/>
<rect x="6.7106" y="7" width="3" height="3" transform="rotate(90 6.7106 7)" fill="#0C0A0A"/>
<rect x="6.71057" y="10.5" width="3" height="3" transform="rotate(90 6.71057 10.5)" fill="#F1F1F1"/>
<rect x="6.71057" y="14" width="3" height="3" transform="rotate(90 6.71057 14)" fill="#0C0A0A"/>
<rect x="3" width="3" height="3" transform="rotate(90 3 0)" fill="#F1F1F1"/>
<rect x="3.00003" y="3.5" width="3" height="3" transform="rotate(90 3.00003 3.5)" fill="#0C0A0A"/>
<rect x="3.00003" y="7" width="3" height="3" transform="rotate(90 3.00003 7)" fill="#F1F1F1"/>
<rect x="3" y="10.5" width="3" height="3" transform="rotate(90 3 10.5)" fill="#0C0A0A"/>
<rect x="3" y="14" width="3" height="3" transform="rotate(90 3 14)" fill="#F1F1F1"/>
</svg>
