<svg width="24" height="24" viewBox="0 0 24 24" fill="none" xmlns="http://www.w3.org/2000/svg">
<path d="M17.628 16.4501C19.5369 14.845 20.75 12.4392 20.75 9.75C20.75 4.91751 16.8325 1 12 1C7.16751 1 3.25 4.91751 3.25 9.75C3.25 12.4392 4.46312 14.845 6.37197 16.4501C6.86019 16.8606 6.93144 17.4524 7.00541 18.0668C7.11643 18.989 7.23359 19.9621 8.77595 20.45H15.2241C16.7664 19.9621 16.8836 18.989 16.9946 18.0668C17.0686 17.4524 17.1398 16.8606 17.628 16.4501Z" fill="#FF9846"/>
<path d="M8.59784 21.9192C8.08293 21.9192 7.66551 22.3366 7.66551 22.8515C7.66551 23.3664 8.08293 23.7838 8.59784 23.7838H15.4022C15.9171 23.7838 16.3345 23.3664 16.3345 22.8515C16.3345 22.3366 15.9171 21.9192 15.4022 21.9192H8.59784Z" fill="#FF9846"/>
</svg>
