<svg width="35" height="43" viewBox="0 0 35 43" fill="none" xmlns="http://www.w3.org/2000/svg">
<ellipse cx="15.4548" cy="28.2755" rx="11.8872" ry="11.8872" transform="rotate(15 15.4548 28.2755)" fill="#271238" fill-opacity="0.7"/>
<ellipse cx="15.4548" cy="26.047" rx="11.8872" ry="11.8872" transform="rotate(15 15.4548 26.047)" fill="url(#paint0_linear_708_56295)"/>
<mask id="mask0_708_56295" style="mask-type:alpha" maskUnits="userSpaceOnUse" x="3" y="14" width="25" height="24">
<ellipse cx="15.4547" cy="26.047" rx="11.8872" ry="11.8872" transform="rotate(15 15.4547 26.047)" fill="#2A4C96"/>
</mask>
<g mask="url(#mask0_708_56295)">
<ellipse cx="14.2012" cy="23.809" rx="10.4764" ry="10.4764" transform="rotate(15 14.2012 23.809)" fill="url(#paint1_linear_708_56295)" fill-opacity="0.5"/>
</g>
<ellipse cx="18.6919" cy="15.5961" rx="3.22134" ry="0.880809" transform="rotate(17.5862 18.6919 15.5961)" fill="#17121C" fill-opacity="0.5"/>
<path d="M16.1189 12.4475C16.2519 12.2975 17.2103 12.382 18.9886 12.8585C20.7669 13.335 21.6128 13.7165 21.6939 13.8834C21.7749 14.0502 21.4374 15.9237 21.0795 16.1761C20.7216 16.4285 20.2506 16.67 18.1348 16.045C16.019 15.42 15.6318 14.9873 15.519 14.6862C15.4062 14.3851 15.9858 12.5976 16.1189 12.4475Z" fill="#765602"/>
<path fill-rule="evenodd" clip-rule="evenodd" d="M18.5574 16.1644C18.4243 16.1287 18.2836 16.089 18.1348 16.045C17.8338 15.9561 17.5677 15.8711 17.3325 15.7898C17.3063 15.356 18.2981 13.1523 18.4261 13.0079C18.5364 12.8835 18.6705 12.8146 19.7265 13.0662C21.0035 13.4447 21.625 13.7416 21.6939 13.8834C21.7749 14.0502 21.4374 15.9238 21.0795 16.1762C20.7852 16.3838 20.4143 16.5839 19.1148 16.3008C18.9036 16.2448 18.719 16.2002 18.5574 16.1644Z" fill="#0B0C10" fill-opacity="0.1"/>
<ellipse cx="18.8568" cy="13.2877" rx="2.81979" ry="0.336429" transform="rotate(15 18.8568 13.2877)" fill="url(#paint2_linear_708_56295)"/>
<path d="M25.6763 8.81613C20.2861 7.01644 18.1742 10.6553 17.9369 12.7773C17.94 12.8476 18.2133 13.2747 18.8388 13.4215C19.4643 13.5683 20.007 13.5992 20.0745 13.5801C19.7849 12.1301 20.0229 10.8586 21.664 10.4561C23.3051 10.0535 25.1576 10.5723 25.4187 10.4561C25.5265 10.4081 25.6632 9.96866 25.6763 9.72621C25.695 9.38144 25.8545 8.88452 25.6763 8.81613Z" fill="#D9D9D9"/>
<path fill-rule="evenodd" clip-rule="evenodd" d="M25.6769 9.71981C20.0927 8.5766 18.8255 11.1275 18.8254 13.3923C18.8257 13.3981 18.8284 13.4075 18.8332 13.42C18.8352 13.4204 18.8371 13.4209 18.839 13.4214C19.4645 13.5682 20.0072 13.5991 20.0747 13.5799C19.7851 12.13 20.0231 10.8585 21.6642 10.4559C22.761 10.1869 23.9522 10.3294 24.6997 10.4188C25.0707 10.4632 25.3323 10.4945 25.4189 10.4559C25.5268 10.4079 25.6634 9.96853 25.6765 9.72609C25.6766 9.724 25.6768 9.72191 25.6769 9.71981Z" fill="#282832" fill-opacity="0.5"/>
<path d="M30.3388 6.53338L28.3936 9.55838L28.2801 9.7348L28.4468 9.86216L31.3043 12.0459L27.712 11.8738L27.5025 11.8638L27.4755 12.0718L27.0131 15.6384L25.366 12.4413L25.2699 12.2549L25.0763 12.3355L21.7564 13.7183L23.7015 10.6933L23.815 10.5169L23.6483 10.3896L20.7908 8.20581L24.3831 8.37789L24.5926 8.38792L24.6196 8.17992L25.082 4.61333L26.7291 7.81041L26.8252 7.99687L27.0188 7.91622L30.3388 6.53338Z" fill="#F6D049" stroke="#C5650C" stroke-width="0.454961"/>
<path d="M15.3483 39.065C14.2683 39.065 13.1583 38.925 12.0683 38.635C5.24828 36.805 1.19828 29.725 3.03828 22.855C4.48828 17.445 9.30828 13.555 14.8283 13.285C14.9193 12.9208 15.0413 12.5947 15.1483 12.345C15.2223 12.1722 15.2895 11.9967 15.4183 11.855C15.6229 11.6333 15.8898 11.5431 16.1783 11.495C16.3283 11.475 16.5183 11.475 16.7183 11.495C16.8783 11.505 17.0583 11.525 17.2783 11.565C17.5383 10.775 18.1183 9.515 19.3783 8.575L17.1983 6.915L23.5983 7.225L24.4283 0.875L27.3583 6.565L33.2683 4.105L29.8083 9.495L34.8983 13.385L28.4983 13.075L27.6783 19.425L24.7483 13.735L22.5583 14.645C22.5151 14.8753 22.4568 15.104 22.4183 15.335C27.0283 18.335 29.2383 24.105 27.7983 29.495C26.2483 35.265 21.0383 39.085 15.3783 39.085L15.3483 39.065ZM16.1683 12.405L16.0583 12.525C16.0383 12.565 16.0183 12.615 15.9983 12.665C15.9483 12.785 15.8983 12.935 15.8383 13.095C15.7683 13.315 15.6883 13.575 15.6283 13.815L15.4634 14.6548L15.1978 14.145C9.93781 14.275 5.30828 17.935 3.92828 23.065C2.21828 29.455 5.97828 36.035 12.3083 37.735C18.6383 39.435 25.1883 35.615 26.8983 29.225C28.2754 24.0886 25.6052 19.4126 21.7183 15.9534C21.3438 15.6201 21.2533 16.2089 21.1283 16.1313C21.1666 16.0049 21.4231 15.462 21.4581 15.335C21.4965 15.1956 21.5331 15.0557 21.5683 14.915C21.6331 14.6037 21.6819 14.2907 21.7183 13.975L25.1583 12.545L27.1353 16.3657L27.6983 12.105L32.0183 12.315L28.5783 9.685L30.9183 6.045L26.9283 7.705L24.9483 3.855L24.3883 8.145L20.0683 7.935L21.0883 8.67041L20.3883 8.975C18.7583 9.915 18.2045 11.6882 18.0494 12.1782C17.8942 12.6682 18.2838 13.245 18.2838 13.245L17.2134 12.485C16.8734 12.415 16.8983 12.405 16.6683 12.395C16.51 12.395 16.3209 12.3541 16.1683 12.405ZM21.5025 13.735L21.1283 13.555C20.8983 13.455 20.5378 13.355 20.1978 13.245L20.0583 13.6001L19.9583 12.835C19.9218 12.1604 20.0582 11.6036 20.3683 11.205C20.6483 10.845 21.0783 10.585 21.6483 10.445C21.9983 10.355 22.7131 10.2976 23.1431 10.2876L23.5103 10.5688L21.5025 13.735ZM20.8683 12.485C20.9583 12.515 21.0483 12.545 21.1283 12.575L21.9283 11.325C21.9283 11.325 21.8883 11.325 21.8683 11.345C21.5083 11.435 21.2483 11.575 21.0883 11.775C20.9552 11.9461 20.8894 12.1686 20.8683 12.485Z" fill="#181022"/>
<defs>
<linearGradient id="paint0_linear_708_56295" x1="24.0623" y1="26.047" x2="1.10873" y2="26.047" gradientUnits="userSpaceOnUse">
<stop stop-color="#A17400"/>
<stop offset="1" stop-color="#694C02"/>
</linearGradient>
<linearGradient id="paint1_linear_708_56295" x1="7.99036" y1="14.9299" x2="19.6008" y2="31.9354" gradientUnits="userSpaceOnUse">
<stop offset="0.0001" stop-color="#FFCA44"/>
<stop offset="1" stop-color="white" stop-opacity="0"/>
</linearGradient>
<linearGradient id="paint2_linear_708_56295" x1="17.3965" y1="13.0727" x2="21.3028" y2="13.6241" gradientUnits="userSpaceOnUse">
<stop stop-color="#2B2D37"/>
<stop offset="1" stop-color="#22202A"/>
</linearGradient>
</defs>
</svg>
