<svg width="24" height="25" viewBox="0 0 24 25" fill="none" xmlns="http://www.w3.org/2000/svg">
<path d="M23 0L8.00891 5.64272L7.94134 5.66807V17.53C7.39866 17.3284 6.82064 17.2259 6.21871 17.2259C3.89208 17.2259 2 18.7971 2 20.7284C2 22.6596 3.89208 24.2308 6.21871 24.2308C8.54535 24.2308 10.3938 22.6955 10.4364 20.7949H10.4457V7.43881L20.4946 3.65658V13.7805C19.955 13.581 19.3791 13.4796 18.7813 13.4796C16.4547 13.4796 14.5626 15.0508 14.5626 16.982C14.5626 18.9133 16.4547 20.4844 18.7813 20.4844C21.1079 20.4844 23 18.9133 23 16.982C23 16.9018 22.9969 16.8205 22.9896 16.7402H23V0Z" fill="white"/>
</svg>
