<svg width="24" height="24" viewBox="0 0 24 24" fill="none" xmlns="http://www.w3.org/2000/svg">
<path d="M6.38096 9.08508V17.0289C5.86664 16.8416 5.31881 16.7465 4.74833 16.7465C2.54324 16.7465 0.75 18.2055 0.75 19.9988C0.75 21.7921 2.54324 23.251 4.74833 23.251C6.95342 23.251 8.70527 21.8254 8.74567 20.0605H8.75453V10.8392L6.37997 9.08508H6.38096Z" fill="white"/>
<path d="M13.6002 5.87104L18.2784 4.14539V9.32722L20.653 11.0823V0.75L11.3252 4.18952L13.6002 5.87104Z" fill="white"/>
<path d="M13.6031 14.4208C13.0139 14.9875 12.6572 15.7189 12.6572 16.518C12.6572 18.3113 14.4505 19.7703 16.6556 19.7703C17.7748 19.7703 18.7877 19.3938 19.5149 18.7888L13.6041 14.4218L13.6031 14.4208Z" fill="white"/>
<path d="M23.3037 15.2365L6.84612 3.0782C6.08151 2.51334 5.0015 2.67223 4.43386 3.4331C3.86622 4.19397 4.02589 5.2687 4.7905 5.83357L21.2481 17.9918C22.0127 18.5567 23.0927 18.3978 23.6603 17.6369C24.228 16.8761 24.0683 15.8013 23.3037 15.2365Z" fill="white"/>
</svg>
