<svg width="18" height="18" viewBox="0 0 14 14" fill="none" xmlns="http://www.w3.org/2000/svg">
<g clip-path="url(#clip0_1324_27334)">
<path fill-rule="evenodd" clip-rule="evenodd" d="M6.98784 2.58856C9.50042 2.58856 11.7673 3.60755 13.3721 5.24218L12.3054 6.27854C10.9742 4.90754 9.08421 4.05143 6.98784 4.05143C4.90498 4.05143 3.02588 4.89656 1.69605 6.25213L0.62793 5.21744C2.2313 3.59727 4.48797 2.58856 6.98784 2.58856ZM11.2385 7.31513C10.181 6.20766 8.66803 5.51429 6.98788 5.51429C5.32202 5.51429 3.82051 6.19591 2.76435 7.28695L3.83294 8.32208C4.61514 7.49544 5.73903 6.97716 6.98788 6.97716C8.25183 6.97716 9.38778 7.50805 10.171 8.3522L11.2385 7.31513ZM9.10247 9.39048C8.59461 8.80909 7.83583 8.43996 6.98805 8.43996C6.15619 8.43996 5.41002 8.79535 4.90251 9.35794L7.02233 11.4114L9.10247 9.39048Z" fill="white"/>
</g>
<defs>
<clipPath id="clip0_1324_27334">
<rect width="14" height="14" fill="white"/>
</clipPath>
</defs>
</svg>
