<svg width="18" height="18" viewBox="0 0 14 14" fill="none" xmlns="http://www.w3.org/2000/svg">
<g clip-path="url(#clip0_1327_27353)">
<path fill-rule="evenodd" clip-rule="evenodd" d="M5.63421 10.0669L7.02219 11.4114L9.10232 9.39048C8.68085 8.90797 8.08654 8.57167 7.41196 8.47122L5.63421 10.0669ZM8.69451 7.32004C9.26095 7.55899 9.76361 7.91325 10.1709 8.3522L11.2384 7.31513C10.8426 6.90072 10.3832 6.54429 9.87499 6.26048L8.69451 7.32004ZM7.0955 4.05218C7.05964 4.05168 7.02371 4.05143 6.98772 4.05143C4.90486 4.05143 3.02576 4.89656 1.69593 6.25213L0.627808 5.21744C2.23118 3.59727 4.48784 2.58856 6.98772 2.58856C7.52882 2.58856 8.05853 2.63582 8.57268 2.72631L7.0955 4.05218ZM11.0235 5.22963C11.4915 5.53105 11.9216 5.88341 12.3053 6.27854L13.372 5.24218C13.0009 4.86413 12.5943 4.51901 12.1575 4.2118L11.0235 5.22963ZM5.14241 5.80522L3.11405 7.62583L2.76421 7.28695C3.41131 6.61848 4.22559 6.1037 5.14241 5.80522Z" fill="white"/>
<path d="M2.60575 10.8355C2.26568 10.4781 2.27969 9.91273 2.63706 9.57266L10.1318 2.44057C10.4892 2.10049 11.0546 2.11451 11.3946 2.47188C11.7347 2.82924 11.7207 3.39463 11.3633 3.73471L3.86858 10.8668C3.51121 11.2069 2.94582 11.1929 2.60575 10.8355Z" fill="white"/>
</g>
<defs>
<clipPath id="clip0_1327_27353">
<rect width="14" height="14" fill="white"/>
</clipPath>
</defs>
</svg>
