<svg xmlns="http://www.w3.org/2000/svg" xmlns:xlink="http://www.w3.org/1999/xlink" width="64" height="64"><defs><circle id="a" cx="32" cy="32" r="32"/></defs><g fill="none" fill-rule="evenodd"><mask id="b" fill="#fff"><use xlink:href="#a"/></mask><use xlink:href="#a" fill="#F5F5F5"/><g mask="url(#b)"><path fill="#D2D2D2" fill-rule="nonzero" d="M17.957 40.964c0 2.16-3.665 6.663-5.008 6.663-1.344 0-2.433-1.75-2.433-3.911 0-2.16 1.09-3.911 2.433-3.911 1.343 0 5.008-1.001 5.008 1.159Z"/><path fill="#D2D2D2" fill-rule="nonzero" d="M17.956 46.56c0 2.16-3.664 6.664-5.008 6.664-1.343 0-2.432-1.751-2.432-3.911s1.089-3.912 2.432-3.912c1.344 0 5.008-1 5.008 1.16ZM45.981 39.599c0 2.16 3.665 6.663 5.008 6.663 1.344 0 2.433-1.751 2.433-3.911s-1.09-3.911-2.433-3.911c-1.343 0-5.008-1.001-5.008 1.159Z"/><path fill="#D2D2D2" fill-rule="nonzero" d="M45.981 45.195c0 2.16 3.665 6.664 5.008 6.664 1.344 0 2.433-1.751 2.433-3.912 0-2.16-1.09-3.91-2.433-3.91-1.343 0-5.008-1.002-5.008 1.158Z"/><path fill="#D2D2D2" fill-rule="nonzero" d="M45.44 50.793c0 2.16 3.664 6.663 5.008 6.663 1.343 0 2.432-1.751 2.432-3.911s-1.09-3.912-2.433-3.912c-1.343 0-5.008-1-5.008 1.16ZM18.43 52.158c0 2.16-3.664 6.663-5.008 6.663-1.343 0-2.432-1.751-2.432-3.911s1.089-3.911 2.432-3.911c1.344 0 5.008-1.001 5.008 1.159Z"/><path fill="#D2D2D2" d="M13.747 30.397C8.903 28.53 7.134 18.371 7.134 9.352c0-11.787 4.454-20.97 8.529-20.97 3.331 0 3.235 5.588 3.089 14.067-.033 1.893-.068 3.93-.068 6.082.48 3.566 1.243 6.757 1.903 9.516.233.972.453 1.89.643 2.753 2.8-1.478 6.175-2.173 9.933-2.173 4.165 0 8.187.854 11.549 2.68.212-1.007.473-2.095.751-3.26.66-2.76 1.424-5.95 1.904-9.516 0-2.151-.035-4.189-.068-6.082-.146-8.479-.242-14.067 3.089-14.067 4.075 0 8.529 9.183 8.529 20.97 0 8.905-1.725 18.923-6.432 20.97.756 2.118 1.173 4.545 1.173 7.299 0 1.51.049 3.16.1 4.903.407 13.654.978 32.89-20.595 32.89-20.541 0-19.46-17.44-18.627-30.896.153-2.479.298-4.823.298-6.897 0-2.722.317-5.124.913-7.224Z"/><path fill="#E1E1E1" fill-rule="nonzero" d="M54.958 11.56c0 6.007-6.814 15.329-7.268 13.802-.453-1.526.926-3.687 0-13.23-.926-9.542-.415-19.72 1.67-19.91.872-.08 5.194 9.606 5.598 19.338ZM8.669 12.276c0 6.008 6.814 15.33 7.267 13.803.454-1.527-.926-3.688 0-13.23.927-9.543.416-19.72-1.67-19.911-.871-.08-5.194 9.606-5.597 19.338Z"/></g></g></svg>