<svg width="34" height="29" viewBox="0 0 34 29" fill="none" xmlns="http://www.w3.org/2000/svg">
<g clip-path="url(#clip0_232_40585)">
<path fill-rule="evenodd" clip-rule="evenodd" d="M3.80999 24.659C3.71999 24.199 3.84999 23.899 4.25999 23.799L7.58999 23.169C8.99999 22.899 9.69999 22.809 10.72 21.619C10.94 21.369 11.13 21.089 11.31 20.769C12.14 19.289 12.23 17.669 12.32 15.949C12.49 12.619 13.1 9.02895 16.14 7.06895C17.87 5.95895 20.47 5.61895 22.5 5.22895L23.75 4.98895L23.3 2.60895C23.08 1.42895 23.32 1.16895 24.32 1.81895L29.77 5.33895C30.43 5.75895 30.42 6.11895 29.98 6.72895L26.25 11.969C25.61 12.929 25.2 12.769 25.01 11.649L24.48 8.85895C16.42 10.259 16.86 10.709 16.07 18.799C15.69 21.329 14.75 23.229 13.36 24.619C11.9 26.079 10.41 26.739 8.43999 27.119L5.98999 27.579C4.58999 27.849 4.40999 27.809 4.12999 26.369L3.79999 24.639L3.80999 24.659Z" fill="#3A7468"/>
<path fill-rule="evenodd" clip-rule="evenodd" d="M30.21 4.66901L24.76 1.14901C24.49 0.979011 24.21 0.819011 23.94 0.739011C23.69 0.659011 23.23 0.589011 22.84 0.919011C22.49 1.20901 22.44 1.63901 22.43 1.86901C22.43 2.13901 22.46 2.44901 22.52 2.75901L22.82 4.34901L22.36 4.43901C22.1 4.48901 21.83 4.53901 21.54 4.58901C20.75 4.72901 19.87 4.88901 19.03 5.09901C17.88 5.37901 16.69 5.76901 15.72 6.39901C12.31 8.58901 11.71 12.589 11.53 15.909C11.44 17.659 11.34 19.089 10.62 20.379C10.47 20.649 10.3 20.889 10.12 21.099C9.66999 21.629 9.32999 21.859 8.98999 22.009C8.62999 22.159 8.22999 22.239 7.55999 22.369C7.51999 22.369 7.48999 22.379 7.44999 22.389L4.09999 23.029H4.06999C3.69999 23.129 3.34999 23.349 3.13999 23.749C2.95999 24.119 2.96999 24.509 3.02999 24.829L3.35999 26.549C3.42999 26.909 3.49999 27.239 3.60999 27.519C3.71999 27.799 3.89999 28.119 4.23999 28.329C4.56999 28.529 4.92999 28.549 5.20999 28.539C5.48999 28.519 5.81999 28.469 6.15999 28.399L8.60999 27.939C10.71 27.539 12.35 26.809 13.94 25.219C15.48 23.689 16.48 21.619 16.88 18.949V18.929V18.909C16.93 18.439 16.97 17.989 17.01 17.579C17.14 16.189 17.24 15.089 17.39 14.199C17.58 13.039 17.83 12.339 18.2 11.849C18.56 11.379 19.12 11.009 20.15 10.669C21.05 10.369 22.24 10.119 23.86 9.82901L24.24 11.839C24.29 12.149 24.37 12.449 24.49 12.699C24.6 12.929 24.82 13.279 25.25 13.399C25.71 13.529 26.09 13.329 26.32 13.159C26.55 12.979 26.75 12.739 26.92 12.469L30.65 7.23901C30.87 6.91901 31.16 6.45901 31.1 5.91901C31.03 5.32901 30.61 4.95901 30.22 4.70901L30.21 4.66901ZM7.73999 23.139C9.04999 22.889 9.72999 22.759 10.71 21.619C10.93 21.369 11.12 21.089 11.3 20.769C12.13 19.289 12.22 17.669 12.31 15.949C12.48 12.619 13.09 9.02901 16.13 7.06901C17.63 6.10901 19.78 5.71901 21.64 5.38901C21.93 5.33901 22.21 5.28901 22.49 5.22901L23.74 4.98901L23.29 2.60901C23.07 1.42901 23.31 1.16901 24.31 1.81901L29.76 5.33901C30.42 5.75901 30.41 6.11901 29.97 6.72901L26.24 11.969C25.6 12.929 25.19 12.769 25 11.649L24.47 8.85901C16.87 10.179 16.82 10.659 16.18 17.489C16.14 17.899 16.1 18.339 16.06 18.799C15.68 21.329 14.74 23.229 13.35 24.619C11.89 26.079 10.4 26.739 8.42999 27.119L5.97999 27.579C4.57999 27.849 4.39999 27.809 4.11999 26.369L3.78999 24.639C3.69999 24.179 4.32999 23.709 4.73999 23.599L7.71999 23.119" fill="#281342"/>
<path d="M23.62 3.90888C23.85 5.21888 23.83 5.08888 22.61 5.21888C5.36 6.98888 17.67 21.5689 7.4 23.2089C4.86 23.6189 2.54 23.4289 4.54 27.0089C4.74 27.5089 4.895 27.2089 5.875 27.0089C8.445 26.6489 11.46 26.0289 13.31 24.1289C16.64 20.6589 14.39 14.3189 17.04 10.6389C19.04 7.85888 24.56 7.78888 24.56 7.78888C24.84 8.29888 24.92 12.2789 25.99 11.3389C26.16 10.5789 31.16 5.41888 29.25 5.01888L24.32 1.84888C24.32 1.84888 22.45 0.178881 23.61 3.92888L23.62 3.90888Z" fill="url(#paint0_linear_232_40585)"/>
<path fill-rule="evenodd" clip-rule="evenodd" d="M1.24 11.079C1.32 11.539 1.56 11.769 1.98 11.719L5.31 11.089C6.72 10.819 7.4 10.649 8.79 11.389C9.08 11.539 9.37 11.739 9.65 11.959C10.97 13.029 11.64 14.509 12.36 16.069C13.74 19.099 15.62 22.229 19.16 22.939C21.18 23.339 23.72 22.709 25.75 22.319L27 22.079L27.45 24.449C27.67 25.629 27.99 25.789 28.69 24.809L32.48 19.539C32.94 18.899 32.79 18.569 32.17 18.159L26.78 14.649C25.83 13.989 25.51 14.289 25.74 15.399L26.27 18.189C18.26 19.839 18.5 19.249 14.81 12.019C13.53 9.79904 11.96 8.37904 10.15 7.58904C8.26 6.76904 6.63 6.68904 4.66 7.06904L2.21 7.52904C0.810002 7.79904 0.650002 7.88904 0.920002 9.32904L1.25 11.059L1.24 11.079Z" fill="#7FD0C0"/>
<path fill-rule="evenodd" clip-rule="evenodd" d="M33.49 18.579C33.35 18.049 32.91 17.729 32.59 17.509L27.21 14.009C26.95 13.829 26.67 13.669 26.4 13.589C26.13 13.509 25.7 13.459 25.32 13.749C24.97 14.019 24.88 14.429 24.87 14.689C24.85 14.969 24.89 15.269 24.95 15.579L25.33 17.589C23.72 17.909 22.51 18.109 21.57 18.169C20.49 18.229 19.84 18.089 19.33 17.779C18.8 17.459 18.32 16.899 17.72 15.889C17.26 15.109 16.76 14.129 16.13 12.879C15.94 12.509 15.74 12.109 15.52 11.689V11.669L15.5 11.649C14.15 9.30898 12.46 7.74898 10.47 6.88898C8.4 5.98898 6.61 5.91898 4.51 6.30898L2.06 6.76898C1.72 6.82898 1.39 6.89898 1.12 6.98898C0.85 7.07898 0.53 7.22898 0.29 7.53898C0.05 7.83898 0 8.19898 0 8.50898C0 8.79898 0.06 9.13898 0.13 9.49898L0.46 11.219C0.52 11.539 0.65 11.909 0.96 12.179C1.29 12.479 1.7 12.549 2.08 12.509H2.11L5.46 11.869C5.5 11.869 5.54 11.859 5.57 11.849C6.24 11.719 6.64 11.649 7.03 11.659C7.4 11.669 7.79 11.769 8.41 12.089C8.65 12.219 8.9 12.379 9.14 12.579C10.29 13.519 10.9 14.809 11.62 16.409C13 19.439 15.02 22.939 19 23.729C20.14 23.959 21.38 23.889 22.56 23.729C23.42 23.609 24.29 23.439 25.09 23.279C25.37 23.219 25.65 23.169 25.91 23.119L26.37 23.029L26.67 24.619C26.73 24.929 26.8 25.239 26.91 25.479C27 25.689 27.21 26.069 27.64 26.219C28.12 26.379 28.52 26.139 28.73 25.979C28.95 25.809 29.15 25.559 29.34 25.299L33.13 20.029C33.4 19.659 33.66 19.159 33.5 18.579H33.49ZM32.47 19.559L28.68 24.829C27.98 25.799 27.66 25.649 27.44 24.469L26.99 22.099L25.74 22.339C25.47 22.389 25.18 22.449 24.89 22.509C23.03 22.879 20.89 23.309 19.14 22.959C15.59 22.249 13.72 19.129 12.34 16.089C11.63 14.529 10.95 13.049 9.63 11.979C9.35 11.749 9.07 11.559 8.77 11.409C7.44 10.699 6.76 10.829 5.45 11.079C5.4 11.079 5.35 11.099 5.3 11.109L1.97 11.739C1.55 11.789 1.32 11.559 1.23 11.099L0.9 9.36898C0.63 7.92898 0.78 7.83898 2.19 7.56898L4.64 7.10898C6.61 6.73898 8.24 6.80898 10.13 7.62898C11.94 8.41898 13.51 9.83898 14.79 12.059C15 12.469 15.2 12.859 15.38 13.229C18.48 19.349 18.69 19.779 26.25 18.229L25.72 15.439C25.49 14.329 25.81 14.029 26.76 14.689L32.15 18.199C32.78 18.609 32.92 18.939 32.46 19.579L32.47 19.559Z" fill="#281342"/>
<path d="M1.87 11.079C1.48 11.129 1.27 10.919 1.19 10.489L0.889998 8.89901C0.849998 8.69901 0.819998 8.51901 0.809998 8.36901C0.849998 7.83901 1.22 7.72901 2.2 7.54901L4.65 7.08901C6.43 6.74901 7.93 6.77901 9.59 7.39901C11.22 8.21901 13.19 10.469 14.32 12.429C15.86 15.459 16.91 17.159 18.28 17.979C19.75 19.379 21.62 19.169 26.26 18.219L25.73 15.429C25.55 14.549 25.71 14.189 26.25 14.389C26.34 14.439 26.44 14.499 26.55 14.579L31.52 17.809C32.1 18.189 32.23 18.489 31.81 19.079L28.32 23.929C27.89 24.519 27.62 24.659 27.43 24.369L27 22.089L26.9 22.109L26.77 21.409L25.62 21.629C25.22 21.709 24.76 21.819 24.26 21.939C22.46 22.379 20.18 22.949 18.32 22.279C16.82 21.749 15.66 20.999 14.73 20.139C13.75 18.939 12.99 17.499 12.34 16.069C11.63 14.509 10.95 13.029 9.63 11.959C9.6 11.929 9.56 11.909 9.53 11.879C9.34 11.679 9.14 11.489 8.92 11.309C8.66 11.099 8.4 10.929 8.13 10.779C6.9 10.129 6.27 10.249 5.07 10.479C5.02 10.479 4.98 10.499 4.93 10.509L1.86 11.089L1.87 11.079Z" fill="url(#paint1_linear_232_40585)" fill-opacity="0.5"/>
<path d="M1.86999 11.079C1.47999 11.129 1.26999 10.919 1.18999 10.489C1.13999 10.149 0.829988 8.68898 0.799988 8.36898C0.839988 7.83898 1.20999 7.72898 2.18999 7.54898C4.59999 7.07898 7.24999 6.40898 9.57999 7.38898C11.21 8.20898 13.18 10.459 14.31 12.419C15.85 15.449 16.9 17.149 18.27 17.969C19.74 19.369 21.61 19.159 26.25 18.209L25.72 15.419C25.54 14.539 25.7 14.179 26.24 14.379C26.33 14.429 26.43 14.489 26.54 14.569L31.51 17.799C32.09 18.179 32.22 18.479 31.8 19.069L28.31 23.919C27.88 24.509 27.61 24.649 27.42 24.359L26.99 22.079L26.89 22.099L26.76 21.399L25.61 21.619C21.33 22.739 18.26 23.399 14.73 20.139C12.27 17.189 11.73 12.729 8.13999 10.779C6.87999 10.099 6.17999 10.269 4.92999 10.509L1.85999 11.089L1.86999 11.079Z" fill="url(#paint2_linear_232_40585)" fill-opacity="0.5"/>
</g>
<defs>
<linearGradient id="paint0_linear_232_40585" x1="24.12" y1="29.4589" x2="12.38" y2="7.18888" gradientUnits="userSpaceOnUse">
<stop stop-color="#00702D" stop-opacity="0.51"/>
<stop offset="1" stop-color="#7EFFA2"/>
</linearGradient>
<linearGradient id="paint1_linear_232_40585" x1="19.08" y1="27.409" x2="14.79" y2="4.789" gradientUnits="userSpaceOnUse">
<stop stop-color="#00702D" stop-opacity="0.51"/>
<stop offset="1" stop-color="#7EFFA2"/>
</linearGradient>
<linearGradient id="paint2_linear_232_40585" x1="19.08" y1="27.419" x2="14.79" y2="4.77898" gradientUnits="userSpaceOnUse">
<stop stop-color="#00702D" stop-opacity="0.51"/>
<stop offset="1" stop-color="#7EFFA2"/>
</linearGradient>
<clipPath id="clip0_232_40585">
<rect width="33.54" height="27.84" fill="white" transform="translate(0 0.678955)"/>
</clipPath>
</defs>
</svg>
