<svg clip-rule="evenodd" stroke-linecap="round" stroke-linejoin="round" stroke-miterlimit="10" viewBox="0 0 38 38" xmlns="http://www.w3.org/2000/svg" xmlns:xlink="http://www.w3.org/1999/xlink"><linearGradient id="a"><stop offset="0" stop-color="#ffcda9"/><stop offset="1" stop-color="#853d27"/></linearGradient><linearGradient id="b" gradientUnits="userSpaceOnUse" x1="8.606839" x2="6.486389" xlink:href="#a" y1="7.18659" y2="11.69466"/><linearGradient id="c" gradientUnits="userSpaceOnUse" x1="28.157729" x2="30.278229" xlink:href="#a" y1="7.18659" y2="11.69466"/><linearGradient id="d" gradientUnits="userSpaceOnUse" x1="17.935129" x2="17.935129" y1="22.75246" y2="30.07906"><stop offset="0" stop-color="#fbbaac"/><stop offset="1" stop-color="#ec8f7b"/></linearGradient><clipPath id="e"><path clip-rule="evenodd" d="m6.7308 15.0308c0-3.9799 3.22638-7.20634 7.2063-7.20634h7.9784c3.9799 0 7.2063 3.22644 7.2063 7.20634v8.5696c0 2.8428-2.3045 5.1474-5.1473 5.1474h-12.0964c-2.84274 0-5.1473-2.3046-5.1473-5.1474z"/></clipPath><g><path d="m13.2755 7.89386c-.1971.54847-.3499 1.24304-.4185 1.94184-.2291-.25836-.5105-.4736-.8386-.62794-1.3809-.64952-5.2472-1.00078-5.94435.48135-.6803 1.44639 1.90865 4.10409 3.31735 4.83519-.27515.7633-.42511 1.5863-.42511 2.4443v8.5696c0 1.7607.88399 3.3149 2.23231 4.243.3824 1.3746 1.4746 2.4624 2.9375 2.7178 1.5936.2782 3.6445.5499 5.7599.5981 2.2612.0516 4.583-.2542 6.3528-.5766 1.4654-.267 2.5481-1.3751 2.9105-2.7632 1.329-.9307 2.198-2.4734 2.198-4.2191v-8.5696c0-.7582-.1171-1.489-.3342-2.1754.2441-.0367.4857-.1086.7187-.2181 1.3809-.6496 4.1169-3.4038 3.4197-4.88599-.6971-1.48213-4.5634-1.13087-5.9443-.48135-.6294.29605-1.0871.81614-1.3328 1.43494.0038-.94483-.1844-1.98757-.458-2.74884-1.0277-.33228-2.5585.56766-3.2637 1.86841l-7.6235-.00001c-.7052-1.30074-2.236-2.20068-3.2637-1.8684z" fill="#281342" fill-opacity=".5"/><path d="m11.0209 11.1296c-.6971 1.4822-2.3817 2.1571-3.76258 1.5076-1.38089-.6495-4.1169-3.40381-3.41976-4.88594.69715-1.48213 4.56346-1.13087 5.94434-.48135 1.3809.64952 1.9351 2.37757 1.238 3.85969z" fill="#593310"/><path d="m10.5629 10.8594c-.58553 1.2449-2.00044 1.8118-3.16027 1.2663-1.15983-.5456-3.45786-2.85897-2.87231-4.10384.58554-1.24487 3.83293-.94984 4.99276-.4043 1.15982.54555 1.62532 1.99697 1.03982 3.24184z" fill="url(#b)"/><path d="m25.7436 11.1296c.6972 1.4822 2.3817 2.1571 3.7626 1.5076s4.1169-3.40381 3.4198-4.88594c-.6972-1.48213-4.5635-1.13087-5.9444-.48135-1.3808.64952-1.9351 2.37757-1.238 3.85969z" fill="#e8e5de"/><path d="m26.2016 10.8594c.5856 1.2449 2.0005 1.8118 3.1603 1.2663 1.1598-.5456 3.4579-2.85897 2.8723-4.10384-.5855-1.24487-3.8329-.94984-4.9927-.4043-1.1599.54555-1.6254 1.99697-1.0399 3.24184z" fill="url(#c)"/><path d="m11.04 5.95602c-.4984 1.38715-.7136 3.70881 0 4.66978.9115.5644 3.034 1.4112 3.5723-.78559.5382-2.19679-2.061-4.37281-3.5723-3.88419z" fill="#ffbf85"/><path d="m25.1909 5.95602c.4984 1.38715.7136 3.70881 0 4.66978-.9115.5644-3.034 1.4112-3.5723-.78559-.5382-2.19679 2.0609-4.37281 3.5723-3.88419z" fill="#ffbf85"/><path d="m6.7308 15.0308c0-3.9799 3.22638-7.20634 7.2063-7.20634h7.9784c3.9799 0 7.2063 3.22644 7.2063 7.20634v8.5696c0 2.8428-2.3045 5.1474-5.1473 5.1474h-12.0964c-2.84274 0-5.1473-2.3046-5.1473-5.1474z" fill="#a27400"/><g clip-path="url(#e)" fill="#ffe6cf"><path d="m12.6756 20.7103c8.3946-3.7743 3.5979-12.99325 1.4504-15.4227l-4.35998-2.86328c-1.67025 1.45333-5.42723 5.17994-7.09314 8.45978-2.082386 4.0997-3.077261 4.5552 1.47796 5.2059 4.55523.6508 2.79344 7.1972 8.52476 4.6203z"/><path d="m5.73139 19.0184c.57266-2.2386-2.27761-2.5813-3.77433-2.4728l-1.106268 10.6722c1.301498.6941 4.099708 1.9783 4.880598 1.5618.97612-.5206 2.58423-1.757 2.12871-3.9696-.45552-2.2125-2.84453-2.9934-2.12871-5.7916z"/></g><path d="m8.81466 26.8353c0-2.2549 1.82794-4.0828 4.08274-4.0828h10.0564c2.2654 0 4.1018 1.8364 4.1018 4.1018 0 1.8925-1.2953 3.5389-3.1655 3.8278-1.7535.2709-4.0205.5217-6.2296.4783-2.07-.0407-4.0782-.2661-5.6566-.5006-1.8787-.2791-3.18924-1.9252-3.18924-3.8245z" fill="url(#d)"/><path d="m15.2525 28.3284c2.2308 1.2363 3.4113 1.3068 5.3653 0" fill="none" stroke="#c56e6e" stroke-linecap="round" stroke-linejoin="round" stroke-width=".475653"/><g fill="#c56e6e"><path d="m15.0445 25.2369c0-.2503.2029-.4532.4531-.4532.2503 0 .4532.2029.4532.4532 0 .2502-.2029.4531-.4532.4531-.2502 0-.4531-.2029-.4531-.4531z"/><path d="m15.0445 25.2369c0-.2503.2029-.4532.4531-.4532.2503 0 .4532.2029.4532.4532 0 .2502-.2029.4531-.4532.4531-.2502 0-.4531-.2029-.4531-.4531z"/><path d="m15.0445 25.2369c0-.2503.2029-.4532.4531-.4532.2503 0 .4532.2029.4532.4532 0 .2502-.2029.4531-.4532.4531-.2502 0-.4531-.2029-.4531-.4531z"/><path d="m19.9195 25.2369c0-.2503.2029-.4532.4531-.4532.2503 0 .4532.2029.4532.4532 0 .2502-.2029.4531-.4532.4531-.2502 0-.4531-.2029-.4531-.4531z"/><path d="m19.9195 25.2369c0-.2503.2029-.4532.4531-.4532.2503 0 .4532.2029.4532.4532 0 .2502-.2029.4531-.4532.4531-.2502 0-.4531-.2029-.4531-.4531z"/><path d="m19.9195 25.2369c0-.2503.2029-.4532.4531-.4532.2503 0 .4532.2029.4532.4532 0 .2502-.2029.4531-.4532.4531-.2502 0-.4531-.2029-.4531-.4531z"/></g><path d="m9.61338 16.2354c.0906-.1518-.07055-.4175-.35993-.5933-.28939-.1758-.59743-.1952-.68804-.0433-.0906.1518.07055.4174.35994.5932.28938.1758.59743.1953.68803.0434z" fill="#0d0d0d"/><path d="m9.95089 15.4875c.10051-.1454-.04247-.4212-.31945-.616-.27699-.1947-.58304-.2347-.6836-.0893-.10055.1455.04247.4213.31946.616.27698.1948.58303.2348.68359.0893z" fill="#0d0d0d"/><path d="m14.1997 17.0986c.3562 1.4575-.4873 2.925-1.8841 3.2777-1.3967.3527-2.81766-.543-3.17384-2.0006-.35617-1.4575.48736-2.925 1.88404-3.2777 1.3967-.3526 2.8178.543 3.1739 2.0006z" fill="#ffbe16" fill-opacity=".2"/><path d="m14.2362 16.7663c.3561 1.4575-.4874 2.925-1.8841 3.2777s-2.81773-.543-3.1739-2.0005c-.35617-1.4576.48736-2.9251 1.8841-3.2777 1.3967-.3527 2.8177.543 3.1739 2.0005z" fill="#525787"/><path d="m9.77745 17.405c0-1.0374.84095-1.8784 1.87835-1.8784s1.8784.841 1.8784 1.8784-.841 1.8783-1.8784 1.8783-1.87835-.8409-1.87835-1.8783z" fill="#2e2948"/><path d="m10.0763 16.3747c-.10783-.4404.1596-.8867.5974-.997.4378-.1102.8801.1573.988.5977s-.1595.8867-.5973.997c-.4378.1102-.8802-.1574-.9881-.5977z" fill="#fff"/><path d="m12.0237 15.7682c-.027-.1101.0399-.2217.1493-.2493.1094-.0275.22.0394.247.1495s-.0399.2217-.1493.2492c-.1095.0276-.2201-.0393-.247-.1494z" fill="#fff"/><path d="m14.7623 19.1441c.0906-.1518-.0706-.4175-.36-.5933-.2893-.1758-.5974-.1952-.688-.0433-.0906.1518.0706.4174.36.5933.2893.1758.5974.1952.688.0433z" fill="#525787"/><path d="m26.2393 16.2354c-.0906-.1518.0705-.4175.3599-.5933s.5974-.1952.688-.0433c.0906.1518-.0705.4174-.3599.5932s-.5974.1953-.688.0434z" fill="#0d0d0d"/><path d="m25.9018 15.4875c-.1006-.1454.0425-.4212.3195-.616.2769-.1947.583-.2347.6835-.0893.1006.1455-.0424.4213-.3194.616-.277.1948-.583.2348-.6836.0893z" fill="#0d0d0d"/><path d="m21.6529 17.0986c-.3562 1.4575.4873 2.925 1.884 3.2777 1.3968.3527 2.8178-.543 3.174-2.0006.3561-1.4575-.4874-2.925-1.8841-3.2777-1.3968-.3526-2.8178.543-3.1739 2.0006z" fill="#ffebb7"/><path d="m21.6164 16.7663c-.3562 1.4575.4874 2.925 1.8841 3.2777s2.8177-.543 3.1739-2.0005c.3562-1.4576-.4873-2.9251-1.8841-3.2777-1.3967-.3527-2.8177.543-3.1739 2.0005z" fill="#525787"/><path d="m26.0752 17.405c0-1.0374-.841-1.8783-1.8784-1.8783s-1.8783.8409-1.8783 1.8783.8409 1.8784 1.8783 1.8784 1.8784-.841 1.8784-1.8784z" fill="#2e2948"/><path d="m22.5386 16.2654c-.1079-.4404.1595-.8867.5973-.997.4378-.1102.8802.1573.988.5977.1079.4404-.1595.8867-.5973.997-.4378.1102-.8801-.1574-.988-.5977z" fill="#fff"/><path d="m24.486 15.6588c-.027-.1101.0399-.2217.1493-.2493.1094-.0275.22.0394.247.1495s-.0399.2217-.1493.2492c-.1095.0276-.2201-.0393-.247-.1494z" fill="#fff"/><path d="m21.0904 19.1441c-.0906-.1518.0705-.4175.3599-.5933s.5974-.1952.688-.0433c.0906.1518-.0705.4174-.3599.5933-.2894.1758-.5974.1952-.688.0433z" fill="#525787"/><path d="m25.191 5.96717c.1232.34302.2291.74319.308 1.1658.0355.19051.19.84865-.0769 1.13902-.0468.12865-.9921-.11354-.9921 0-.0625 0 .553.23021 1.0686.48021.2128.10316.6178.49219.9392.66406-.5146-.35339-.5892-1.05333-.5324-1.14427.1833-.29345.4126-.56791.6665-.75024.127-.09124.2638-.17199.4098-.24067 1.3809-.64952 5.2472-1.00078 5.9444.48135.688 1.46285-1.9352 4.12337-3.3321 4.81797-.1282.0637-.2143.0947-.2322.1031-.233.1096-.6389-.5367-.9826-.8414.0999.3161.5872 1.666.6431 1.9993.0655.3904.0995.7915.0995 1.2005v8.5696c0 1.5843-.6207 2.7903-1.7465 3.7345-.4063.3407-.2344-1.4531-.3282-1.4531-.0468 0-.2484 2.3484-.3341 2.5424-.4854 1.0973-1.4544 1.9316-2.6997 2.1585-1.7697.3224-4.0915.6282-6.3528.5767-2.1154-.0482-4.1663-.32-5.7598-.5982-1.2764-.2228-2.27057-1.0793-2.75734-2.2071-.07113-.1648-.29743-2.1721-.34619-2.3473-.13245-.0912-.00123 1.7514-.32812 1.375-1.12999-.9443-1.73823-2.1937-1.73823-3.7814v-8.5696c0-.6517.08651-1.2831.24866-1.8836.05134-.1901.64215-1.5506.70832-1.7342-.1325-.0688-.70832 1.0853-.95698.9187-1.44168-.9655-3.50855-3.27009-2.89224-4.58037.68344-1.453 4.41272-1.14397 5.86009-.51929.85683.3698.76743.65576.69223.89968-.292.94689-.60935.59375-.90623 1.2248.91303-.38105 1.70713-.8589 1.95313-1.06855.2853-.24319-.5891.22081-.7054.28125-.2555.13282-.0915-.39843-.0915-.4375.0649-.27616.315-1.94165.3991-2.17565.9532-.30815 2.2204.32811 2.979 1.47639.0594.08989-.8356.29759-.7844.39202h1.461 6.8359l1.5391.06506c-.1325-.27344-.8985-.22264-.8985-.37889.2422-.63282 2.0327-1.87339 3.0189-1.55458zm-3.8129.86842c.4251-.58713.9754-1.07505 1.56-1.4126.7253-.41879 1.6697-.69531 2.5605-.40733l.4674.15111.1661.46227c.0924.25729.1756.53938.2469.83642.0579-.03118.1169-.06096.1771-.08928.8696-.40906 2.344-.67126 3.6675-.65371.6731.00893 1.3801.09023 1.9982.30223.604.20716 1.2709.59291 1.6092 1.3121.3382.71918.2101 1.47889-.0155 2.07626-.2308.61134-.619 1.20784-1.0414 1.73204-.8144 1.0107-1.9286 1.9618-2.7916 2.3839.0916.4909.1393.9967.1393 1.5129v8.5696c0 1.9565-.9148 3.6992-2.3363 4.8238-.5358 1.5682-1.8405 2.8231-3.593 3.1423-1.8031.3285-4.1988.6463-6.5547.5926-2.1815-.0497-4.285-.3293-5.9091-.6128-1.74666-.3049-3.06171-1.5354-3.61886-3.0887-1.44588-1.1233-2.37902-2.8812-2.37902-4.8572v-8.5696c0-.6906.08553-1.3624.24689-2.0048-.70073-.5027-1.45663-1.2181-2.04918-1.9698-.40643-.5156-.77787-1.10025-.99629-1.69968-.21414-.58771-.32882-1.32868.00144-2.03082.33828-.71919 1.00519-1.10494 1.60919-1.3121.61809-.212 1.32511-.2933 1.99822-.30223 1.18057-.01565 2.48125.19131 3.36564.52654.05781-.21704.12217-.42511.19217-.61997l.1661-.46227.4674-.15111c.8907-.28798 1.8352-.01146 2.5605.40732.5846.33755 1.1348.82547 1.5599 1.4126z" fill="#181022" fill-rule="evenodd"/></g></svg>