<svg clip-rule="evenodd" stroke-linecap="round" stroke-linejoin="round" stroke-miterlimit="10" viewBox="0 0 38 38" xmlns="http://www.w3.org/2000/svg" xmlns:xlink="http://www.w3.org/1999/xlink"><linearGradient id="a"><stop offset="0" stop-color="#353435"/><stop offset="1" stop-color="#93a4a3"/></linearGradient><linearGradient id="b" gradientTransform="matrix(.851968 -.523593 .523593 .851968 -2.48276 4.41606)" gradientUnits="userSpaceOnUse" x1="6.59832" x2="6.59832" xlink:href="#a" y1="5.9881" y2="11.6177"/><linearGradient id="c" gradientTransform="matrix(-.851969 -.523593 -.523593 .851969 33.9896 7.62955)" gradientUnits="userSpaceOnUse" x1="2.99212" x2="2.99212" xlink:href="#a" y1="0" y2="5.62961"/><linearGradient id="d" gradientUnits="userSpaceOnUse" x1="8.01997" x2="24.66553" y1="3.316332" y2="29.202812"><stop offset="0" stop-color="#fff"/><stop offset="1" stop-color="#d9d9d9" stop-opacity="0"/></linearGradient><g><path d="m25.6519 7.21071c1.173-2.89705 4.8291-3.81803 7.4291-2.22016 2.4075 1.47959 3.3216 4.58941 1.8466 6.98935-.5063.8238-1.2215 1.4369-2.0367 1.8247 1.0728 1.9761 1.6798 4.214 1.6798 6.5854 0 8.137-7.0871 14.5947-15.652 14.5947s-15.65198-6.4577-15.65198-14.5947c0-2.4447.6451-4.7475 1.78059-6.7678-.67085-.3875-1.25689-.9383-1.68951-1.6423-1.47493-2.3999-.5609-5.50971 1.84663-6.9893 2.54155-1.56195 6.10737-.73302 7.35967 2.05747 1.9444-.80619 4.0955-1.2529 6.3546-1.2529 2.4068 0 4.6909.50702 6.7332 1.41554z" fill="#281342" fill-opacity=".5" fill-rule="evenodd"/><path d="m4.00814 10.2106c-1.12472-1.83013-.45944-4.28292 1.48594-5.4785 1.94538-1.19557 4.4342-.68118 5.55892 1.14892 1.1247 1.8301.4594 4.28288-1.48594 5.47848-1.94538 1.1956-4.4342.6812-5.55892-1.1489z" fill="#161515"/><path d="m5.19876 10.0277c-.81396-1.32447-.3325-3.09956 1.07538-3.9648s3.20904-.49298 4.02296.83147c.814 1.32444.3325 3.09953-1.07534 3.96473-1.40788.8653-3.20904.493-4.023-.8314z" fill="url(#b)"/><path d="m33.7064 10.2106c1.1248-1.83013.4595-4.28292-1.4859-5.47849s-4.4342-.68119-5.5589 1.14891-.4595 4.28288 1.4859 5.47848 4.4342.6812 5.5589-1.1489z" fill="#161515"/><path d="m32.5158 10.0277c.814-1.32447.3325-3.09956-1.0754-3.9648-1.4078-.86524-3.209-.49298-4.023.83147-.8139 1.32444-.3325 3.09953 1.0754 3.96473 1.4079.8653 3.2091.493 4.023-.8314z" fill="url(#c)"/><path d="m4.07963 19.1958c0-7.4538 6.51587-13.49639 14.55357-13.49639 8.0378 0 14.5536 6.04259 14.5536 13.49639 0 7.4539-6.5158 13.4964-14.5536 13.4964-8.0377 0-14.55357-6.0425-14.55357-13.4964z" fill="#b6b6b6"/><path d="m5.30033 19.147c0-6.819 5.96097-12.34699 13.31417-12.34699 7.3533 0 13.3142 5.52799 13.3142 12.34699 0 6.8191-5.9609 12.347-13.3142 12.347-7.3532 0-13.31417-5.5279-13.31417-12.347z" fill="url(#d)"/><path d="m21.8938 21.3125c-1.5138-2.529-1.0204-5.6091 1.1019-6.8795 2.1224-1.2704 5.0701-.2501 6.5839 2.2789 1.5138 2.5291 1.0205 5.6091-1.1019 6.8795-2.1223 1.2704-5.07.2501-6.5839-2.2789z" fill="#313030"/><path d="m15.3352 21.3125c1.5138-2.529 1.0205-5.6091-1.1019-6.8795-2.1223-1.2704-5.07002-.25-6.58384 2.279-1.51381 2.529-1.02049 5.609 1.10188 6.8794 2.12236 1.2704 5.07006.2501 6.58386-2.2789z" fill="#313030"/><path d="m18.5768 26.8578v2.825" fill="none" stroke="#000" stroke-linecap="butt" stroke-linejoin="miter" stroke-width=".441459"/><path d="m15.5311 28.7409c2.3491 1.2205 3.5922 1.29 5.6498 0" fill="none" stroke="#000" stroke-linecap="round" stroke-linejoin="round" stroke-width=".461994"/><path d="m18.6442 24.109c2.1041.0453 2.5661 1.5602 2.8467 1.9934.2805.4332-.064 1.8841-2.8467 1.5663-2.1394-.0804-3.3081-.5461-2.9085-1.4951 0 0 .8044-2.1099 2.9085-2.0646z" fill="#373235"/><path d="m20.8634 25.9822c.1336.2773-.8612 1.0725-1.2036 1.1858-.4876.1613-1.0415.3622-1.0683.3065-.0269-.0557.5191-.4457.9161-.8192.3969-.3735 1.2222-.9505 1.3558-.6731z" fill="#111011"/><path d="m16.4287 25.9822c-.1336.2773.8611 1.0725 1.2035 1.1858.4877.1613 1.0415.3622 1.0684.3065.0268-.0557-.5192-.4457-.9161-.8192-.397-.3735-1.2222-.9505-1.3558-.6731z" fill="#111011"/><path d="m25.3665 6.01638c1.1729-2.89706 4.829-3.81804 7.429-2.22016 2.4076 1.47959 3.3216 4.5894 1.8467 6.98938-.5063.8238-1.2215 1.4368-2.0368 1.8247 1.0729 1.9761 1.6799 4.214 1.6799 6.5853 0 8.137-7.0872 14.5948-15.6521 14.5948-8.5648 0-15.65194-6.4578-15.65194-14.5948 0-2.4447.6451-4.7475 1.78059-6.7677-.67085-.3875-1.25689-.9384-1.68951-1.6423-1.47493-2.39994-.5609-5.50975 1.84663-6.98934 2.54154-1.56195 6.10743-.73302 7.35963 2.05747 1.9445-.80619 4.0956-1.2529 6.3546-1.2529 2.4068 0 4.691.50702 6.7333 1.41555zm-.2945 1.0722c-1.9411-.88951-4.127-1.38936-6.4388-1.38936-2.1479 0-4.1871.43152-6.0224 1.20617-.3531.14903-2.6918 1.53204-3.0291 1.70584-.04273-.36873 2.189-1.20172 1.6972-2.30249-.0651-.14565-.1403-.28851-.2259-.42777-1.12472-1.8301-3.61354-2.34449-5.55892-1.14892-1.94539 1.19558-2.61067 3.64837-1.48595 5.47845.3373.5488.84705.6148 1.37826.9164.32728.1857 1.95312-1.0157 2.45312-1.0157-.21862.3149-1.87547 2.427-2.06583 2.7591-1.08136 1.8867-1.69404 4.0397-1.69404 6.3253 0 7.4539 6.51586 13.4964 14.55356 13.4964 8.0378 0 14.5537-6.0425 14.5537-13.4964 0-2.2436-.5904-4.3594-1.6349-6.221-.1928-.3436-1.6772-2.2723-1.9-2.5977.2574 0 1.5575 1.1673 2.125 1.125.7346-.0549 1.5227-.6297 1.9294-1.2914 1.1247-1.83013.4594-4.28292-1.486-5.47849s-4.4342-.68119-5.5589 1.14891c-.1225.19926-.2179.45622-.2986.66781-.4931.98915 2.0235 2.03126 1.7891 2.42188-.3406-.18982-2.722-1.71802-3.08-1.88203z" fill="#181022" fill-rule="evenodd"/><path d="m14.7994 20.1269c0 1.6568.2709-2.2188-3.3229-2.2188-3.5937 0-3.27084 3.8756-3.27084 2.2188 0-1.6569 1.61404-3 3.27084-3 1.6569 0 3.3229 1.3431 3.3229 3z"/><path d="m29.0261 20.1269c0 1.6568.2709-2.2188-3.3228-2.2188-3.5938 0-3.2709 3.8756-3.2709 2.2188 0-1.6569 1.614-3 3.2709-3 1.6568 0 3.3228 1.3431 3.3228 3z"/></g></svg>