<svg width="27" height="22" viewBox="0 0 27 22" fill="none" xmlns="http://www.w3.org/2000/svg">
<g clip-path="url(#clip0_2761_6113)">
<path d="M2.81641 12.9232C3.73035 14.0262 5.05399 16.0904 6.15702 19.6832C6.37762 20.408 7.03944 20.9123 7.81156 20.928C7.82732 20.928 7.84308 20.928 7.85884 20.928C8.59944 20.928 9.27702 20.4553 9.52914 19.7619C9.57641 19.6359 14.1776 7.06135 24.814 3.92559C25.7594 3.64195 26.3267 2.64922 26.0431 1.70377C25.7594 0.774072 24.7825 0.254072 23.8528 0.521951C20.9534 1.37286 18.2273 2.85407 15.7219 4.94983C13.7364 6.58862 11.9085 8.62134 10.2697 10.9535C9.35581 12.2613 8.59944 13.522 8.00065 14.6407C7.21277 12.9704 6.39338 11.7256 5.62126 10.7801C4.36065 9.23589 1.91823 9.59831 1.16187 11.4262C1.16187 11.4262 1.14611 11.4262 1.11459 11.4104C1.14611 11.4104 1.8552 11.7571 2.81641 12.9232Z" fill="url(#paint0_linear_2761_6113)"/>
<path fill-rule="evenodd" clip-rule="evenodd" d="M6.26732 19.6513C6.47217 20.3289 7.10247 20.8016 7.81156 20.8174H7.85884C8.55217 20.8174 9.18247 20.3761 9.41884 19.7143C9.45035 19.6513 10.6164 16.4525 13.1061 12.8913C15.58 9.33008 19.4091 5.39069 24.7667 3.79917C25.6491 3.53129 26.1849 2.6016 25.917 1.71917C25.6491 0.852505 24.7352 0.36402 23.8685 0.616141C20.9849 1.45129 18.2746 2.94826 15.7849 5.02826L15.7061 4.93372C18.2116 2.83796 20.9376 1.35675 23.837 0.505838C24.7667 0.237959 25.7437 0.757959 26.0273 1.68766C26.311 2.63311 25.7437 3.62584 24.7982 3.90947C14.1619 7.04523 9.56065 19.6198 9.51338 19.7458C9.26126 20.4549 8.59944 20.9119 7.84308 20.9119H7.7958C7.03944 20.8961 6.36187 20.3919 6.14126 19.6671C5.03823 16.0901 3.71459 14.0258 2.80065 12.9071C2.09156 12.0404 1.50853 11.6307 1.25641 11.4731C1.20914 11.4416 1.17762 11.4258 1.16187 11.4101C1.14611 11.3943 1.13035 11.3943 1.13035 11.3943C1.13035 11.3943 1.13035 11.3943 1.11459 11.3943H1.13035C1.14611 11.4101 1.16187 11.4101 1.16187 11.4101C1.17762 11.3786 1.19338 11.3471 1.20914 11.3155C2.02853 9.5822 4.39217 9.26705 5.62126 10.7798C6.36187 11.6937 7.1655 12.9071 7.93762 14.5143C7.95338 14.5616 7.9849 14.5931 8.00065 14.6404C8.01641 14.5931 8.04793 14.5616 8.06368 14.5143C8.64671 13.4428 9.38732 12.2137 10.2697 10.9531C11.9085 8.62099 13.7364 6.58826 15.7061 4.94947L15.7849 5.04402C13.831 6.68281 12.0031 8.69978 10.3643 11.0319C9.45035 12.3398 8.69399 13.6004 8.0952 14.7034L7.9849 14.9083L7.90611 14.6877C7.11823 13.0331 6.29884 11.7725 5.54247 10.8428C4.36065 9.39311 2.07581 9.70826 1.31944 11.3786C1.41399 11.4258 1.52429 11.5204 1.68187 11.6307C1.99702 11.8671 2.42247 12.261 2.91096 12.844C3.84065 13.9786 5.16429 16.0586 6.26732 19.6513Z" fill="url(#paint1_linear_2761_6113)"/>
</g>
<defs>
<linearGradient id="paint0_linear_2761_6113" x1="13.6172" y1="0.443163" x2="13.6172" y2="27.8336" gradientUnits="userSpaceOnUse">
<stop stop-color="#88FF68"/>
<stop offset="1" stop-color="#1F5F0E"/>
</linearGradient>
<linearGradient id="paint1_linear_2761_6113" x1="21.6816" y1="17.1471" x2="6.95079" y2="0.114687" gradientUnits="userSpaceOnUse">
<stop/>
<stop offset="1" stop-opacity="0"/>
</linearGradient>
<clipPath id="clip0_2761_6113">
<rect width="26" height="21.4303" fill="white" transform="translate(0.657715 0.442383)"/>
</clipPath>
</defs>
</svg>
