<svg width="31" height="26" viewBox="0 0 31 26" fill="none" xmlns="http://www.w3.org/2000/svg">
<path d="M3.57611 17.8149C3.75956 17.9029 4.02998 16.8073 4.02925 16.6862C4.02636 16.1664 3.94 15.6272 3.83046 15.1202C3.6069 14.0857 3.168 13.1094 2.49456 12.2863C1.85566 11.5055 1.52147 10.5266 1.26821 9.54127C0.765179 7.58463 0.923637 5.45969 2.13477 3.78319C2.96619 2.63236 4.31875 1.81261 5.74354 1.81634C5.90586 1.81682 6.07543 1.82607 6.22254 1.75783C6.32677 1.70954 6.40962 1.62642 6.49549 1.55025C8.5093 -0.236286 11.3953 0.645933 13.4555 1.7403C15.5812 2.8695 16.6287 4.26058 16.2614 4.63862C16.2614 4.63862 16.2614 4.63886 16.2614 4.63898C16.2053 4.9996 15.8044 5.21763 15.5892 5.47735C15.5643 5.50738 15.5389 5.54006 15.5347 5.57874C15.5305 5.6173 15.5478 5.65466 15.5649 5.68962C15.9521 6.48402 16.4992 7.18256 16.9101 7.96339C17.1113 8.3448 16.9661 8.97451 16.8398 9.27315C16.7604 9.46067 16.6198 9.64939 16.672 9.84616C16.6968 9.93974 16.7626 10.0163 16.8265 10.0893C17.2552 10.5795 17.6839 11.0336 18.1126 11.5239C18.3045 11.7433 18.6659 12.0834 18.7577 12.3595C18.8496 12.6356 18.7457 12.9967 18.4954 13.1471C18.2867 13.2724 18.0206 13.2569 17.8101 13.3237C17.5996 13.3904 17.3595 13.5388 17.3681 13.7584C17.3809 14.0893 17.4624 14.1423 17.5982 14.5578C17.7072 14.8906 17.1393 15.2425 16.8011 15.2305C17.0548 15.2786 17.5294 15.9799 17.1393 16.1435C17.0295 16.1895 16.8163 16.3249 16.7649 16.4318C16.7323 16.4997 16.7487 16.5865 16.7649 16.66C16.8719 17.1475 16.9993 17.6179 16.9552 18.115C16.8628 19.1551 16.211 19.1458 15.3946 19.176C14.8536 19.1959 14.2984 19.1339 13.7581 19.072C12.2368 18.8974 12.6384 18.9736 12.1603 20.7612C10.1468 20.0771 8.05349 19.893 6.03401 19.2298C5.66999 19.1103 5.31334 18.9669 4.97299 18.7898C4.63277 18.613 4.30921 18.4019 4.01597 18.1525L3.57623 17.8148L3.57611 17.8149Z" fill="white"/>
<path d="M29.322 10.9388C28.5548 9.46147 27.4974 8.18032 26.2421 7.20029C25.9632 6.98259 25.557 7.04543 25.3559 7.33585L25.3486 7.34642C25.1638 7.61316 25.2202 7.97656 25.4767 8.17623C27.9207 10.0798 29.4157 13.1606 29.4123 16.3553C29.4123 16.3672 29.4123 16.3789 29.4123 16.3907C29.3979 19.5589 27.8957 22.3984 25.165 24.4459C24.9024 24.6428 24.8429 25.0107 25.0289 25.2803L25.0367 25.2917C25.2346 25.5787 25.6338 25.6452 25.9135 25.4358C27.4244 24.3053 28.5983 22.9578 29.4078 21.423C30.229 19.8658 30.6495 18.175 30.6576 16.3969C30.6576 16.3835 30.6576 16.37 30.6576 16.3567C30.6596 14.4981 30.1977 12.6246 29.322 10.9388Z" fill="white"/>
<path d="M25.7329 13.3205C25.2684 12.3161 24.5993 11.4045 23.7399 10.6033C23.4806 10.3615 23.0693 10.3884 22.8434 10.6614L22.8345 10.6722C22.629 10.9205 22.6508 11.2853 22.8862 11.5055C24.4516 12.97 25.2861 14.8685 25.1914 16.7895C25.1077 18.4869 24.301 20.0338 22.9564 21.1102C22.7084 21.3088 22.6557 21.6636 22.833 21.9265L22.8406 21.9378C23.041 22.2351 23.4552 22.3002 23.7358 22.076C25.3593 20.7781 26.3337 18.9067 26.4351 16.8501C26.4937 15.6608 26.2509 14.4404 25.7329 13.3203V13.3205Z" fill="white"/>
<path d="M21.0577 14.1207L21.0499 14.1284C20.8613 14.316 20.8373 14.6106 20.9905 14.8278C21.6205 15.7215 21.6205 16.9236 20.9905 17.8174C20.8375 18.0346 20.8613 18.3292 21.0499 18.5168L21.0577 18.5245C21.2969 18.7625 21.695 18.7304 21.8904 18.4556C22.3317 17.8355 22.5695 17.097 22.5695 16.3225C22.5695 15.5481 22.3317 14.8096 21.8904 14.1894C21.695 13.9148 21.2969 13.8827 21.0577 14.1205V14.1207Z" fill="white"/>
</svg>
